M48
;Layer_Color=9474304
;FILE_FORMAT=2:3
INCH,TZ
;TYPE=PLATED
T1F00S00C0.010
T4F00S00C0.030
T5F00S00C0.031
T6F00S00C0.035
T7F00S00C0.039
T8F00S00C0.040
T9F00S00C0.070
T10F00S00C0.118
;TYPE=NON_PLATED
T11F00S00C0.039
%
T01
X1585Y495
X1661Y531
X3142Y402
X3268Y364
X3228Y259
X3197
X3165
X3681Y276
X3488Y543
X3809Y433
X3832Y395
X3786
X3809Y358
X3864Y315
X4026Y502
X4114Y500
X4337Y423
X4398Y453
X4343Y226
X4587Y280
X4654Y295
X5020Y369
X5059
Y448
X5020
X5484Y248
X5713Y374
X5827
X5768Y437
X5579Y1683
X5578Y1969
X5122Y1965
X5059Y1925
X4931Y2119
X4689Y2118
Y2077
X4724Y2043
X4716Y1969
X4654Y1933
X4469Y2002
X4203Y1801
X4212Y1762
X4045Y1742
X4035Y1802
X3976Y1782
X3867Y1732
X3799Y1707
Y1679
X3803Y1618
X3947Y1524
X3909Y1390
X3854Y1417
X3825Y1303
X3867Y1280
X3906Y1283
X3976Y1328
X3789Y1260
X3705Y1063
Y1004
X4151Y1524
X4343Y1560
X4469Y1362
X4515Y1280
X4606Y1150
X4783Y1122
X4823
X4858Y1122
X4854Y1087
X4890Y1087
X4831Y1240
X4774Y1417
X4766Y1620
X4724Y1679
X4791Y1705
X5161Y1496
X5158Y1299
X5083Y1228
X5047Y1260
X5033Y1168
X5191Y903
X5190Y596
X4362Y614
X4276Y567
X4638Y969
X3985Y2018
X3867Y1976
X3791Y1957
X3789Y1998
X3811Y2045
Y2077
Y2118
X3618Y2004
X3567Y1979
X3591Y1949
X3603Y1799
X3573Y1624
Y1579
Y1539
Y1506
X3591Y1447
X3524Y1467
X3319Y1484
X3343Y1524
X3294Y1440
X3232Y1303
X3091
X3067Y1272
X2992Y1322
X2953Y1323
X2915
X2795Y1354
X2777Y1290
X2835Y1243
X2884Y1073
X2716
X2667Y1004
X2651Y965
X2535Y966
X2604Y1270
X2632Y1299
X2604Y1329
X2603Y1362
X2587Y1413
X2587Y1461
X2551Y1433
X2539Y1337
X2481Y1336
X2268Y1343
X2136Y1408
X2126Y1551
X2168Y1686
X2157Y1732
X2150Y1823
X2174Y1959
X2290Y2028
X2434
X2540Y1988
X2608Y1988
X2626Y1939
X2610Y1880
X2607Y1839
X2602Y1748
X2622Y1723
X2638Y1772
X2539Y1735
X2583Y1665
X2602Y1634
X2587Y1528
X2549Y1545
X2508Y1547
X2351Y1575
X2323
X2295
X2819Y1559
X2831Y1634
X2803Y1650
X2776Y1673
X2760Y1701
X2759Y1811
X2803Y1961
X2831Y1937
X2858Y1911
X2935Y1920
X3016Y1862
X2957Y1725
Y1650
X3272Y1638
X3249Y1602
X3228Y1579
X3197Y1839
X3366Y1819
X3351Y1880
X3415Y2018
X3445Y2055
X3343Y2091
X3295
X3272Y2114
X3319Y2114
X3248Y2091
X3224Y2114
X3092Y2076
X3067Y2098
X2943Y2077
X2783Y1992
X2776Y1457
X2815Y1457
X3146Y1134
X3126Y1114
X3191Y1097
X3240Y1067
X3307Y1122
X3213Y969
X3226Y940
X3199Y916
X3091Y965
X3091Y1024
X3573
X3574Y943
X3685Y1035
Y1091
X3650Y1185
X3630Y1319
X2358Y755
X2106Y844
X1909Y837
X1843Y579
X1744Y1134
X1717Y1114
X1654Y1160
Y1221
X1673Y1290
Y1358
Y1457
Y1496
Y1565
X1783Y1605
X1854Y1583
X1882Y1618
X1957Y1537
X1959Y1467
Y1398
Y1329
X1969Y1752
X1961Y1819
X1922
X1890Y1819
X1858
X1826Y1819
X1705Y1846
X1705Y1890
Y1929
Y1957
X1685Y1984
X1717Y2008
X1711Y2044
X1689Y2067
Y2106
X1520Y2094
X1492Y2028
X1457Y2028
X1458Y1890
X1492Y1909
X1520Y1831
X1484Y1733
X1508Y1673
X1457Y1516
X1397Y1515
X1506Y1250
X1397Y1137
X937Y1165
X600Y1168
X778Y1457
X778Y1811
X837
X837Y1949
X709Y1870
X896Y2118
X1289Y2057
X1740Y1941
X1902Y1957
X1961Y2087
X2103Y1831
X2124Y1713
X2106Y1685
X1717Y1689
Y1717
X1669Y1807
X1661Y1843
X1457Y2175
X2114Y2181
X2093Y2240
X1860Y2766
X955Y2530
X2154Y2181
X2182
X2500Y2229
X2579Y2224
X2630Y2480
X2661Y2453
X2689Y2425
X2810Y2520
X2898Y2382
X2904Y2303
Y2268
X2972Y2256
X3022Y2266
X3092Y2276
X3140Y2264
X3189
X3240Y2264
X3268Y2296
X3415Y2303
X3425Y2268
X3500Y2267
X3583Y2358
X3568Y2387
X3542Y2407
X3583Y2608
X3440
X3131
X2992
X2953Y2717
X2657Y2667
X2752Y2907
X3051Y2405
X3016Y2134
X2985Y2133
X2953Y2134
X2902
X2871Y2133
X2839Y2134
X3111Y2133
X3151
X3217Y3323
X3224Y3370
X3287Y3417
X3315Y3469
X3348Y3563
X3480Y3370
X3055Y3421
X3789Y2657
X3829Y2657
X3868Y2657
X3907Y2657
X3987Y2785
X4163Y2717
X4657Y2827
X4697
X4736
X4776
X4815
X4854
X4890
X4931
X4972
X5012
X5049Y2807
X5150Y2805
X5182Y2827
X5128Y2943
X5004Y2658
X4957Y2657
X4909Y2689
X4870Y2579
X4815
X4768Y2579
X4720
X4673
X4602Y2508
X4575Y2292
X4547Y2268
X4515Y2319
X4630Y2281
X4471Y2193
X4815Y2358
X4972Y2402
X5012Y2382
X4998Y2270
X5138Y2437
X5213Y2449
X5181Y2480
X5226Y2386
X5035Y2570
X4913Y2528
X5344Y3071
X5415Y3415
T04
X1299Y1711
X1399Y1911
X1199
T05
X135Y1711
Y1811
Y1911
X435
Y1811
Y1711
T06
X1581Y148
X1681
X1781
X5550Y2087
X5650
X4569Y896
X4469
X4369
X4269
X4169
X4069
X1683Y2648
Y2748
X1098Y2804
X998
X898
X798
Y2904
X898
X998
X1098
X1311Y3069
Y3169
X591Y2964
Y2864
X2354Y2882
Y2982
Y3082
T07
X4415Y3563
X4515
X4615
X4715
T08
X157Y2229
Y2329
Y2429
Y2529
Y2629
Y3229
Y3329
Y3429
Y3529
Y3629
X1557
Y3529
Y3429
Y3329
Y3229
Y2629
Y2529
Y2429
Y2329
Y2229
T09
X448Y395
X748Y495
Y295
X2423
Y495
X2723Y395
T10
X128Y128
X5872
Y3872
X128
T11
X4212Y644
Y724
X4412Y684
M30
