G04*
G04 #@! TF.GenerationSoftware,Altium Limited,Altium Designer,19.0.15 (446)*
G04*
G04 Layer_Color=10066329*
%FSLAX23Y23*%
%MOIN*%
G70*
G01*
G75*
%ADD10C,0.010*%
%ADD11C,0.008*%
%ADD12C,0.005*%
%ADD13C,0.010*%
%ADD16C,0.006*%
%ADD17C,0.012*%
%ADD128C,0.020*%
%ADD198C,0.030*%
G36*
X901Y1324D02*
X899Y1319D01*
X715D01*
X713Y1324D01*
X807Y1417D01*
X901Y1324D01*
D02*
G37*
G36*
X630Y1254D02*
Y1069D01*
X625Y1067D01*
X531Y1162D01*
X625Y1256D01*
X630Y1254D01*
D02*
G37*
G36*
X1083Y1161D02*
X989Y1067D01*
X984Y1069D01*
Y1254D01*
X989Y1256D01*
X1083Y1161D01*
D02*
G37*
G36*
X902Y999D02*
X807Y906D01*
X713Y999D01*
X715Y1004D01*
X900D01*
X902Y999D01*
D02*
G37*
G36*
X2880Y630D02*
X2862D01*
X2854Y669D01*
X2820D01*
X2828Y630D01*
X2810D01*
X2791Y718D01*
X2809D01*
X2816Y684D01*
X2851D01*
X2844Y718D01*
X2862D01*
X2880Y630D01*
D02*
G37*
G36*
X2918Y720D02*
X2921Y720D01*
X2925Y719D01*
X2929Y718D01*
X2931Y717D01*
X2933Y716D01*
X2934Y716D01*
X2936Y715D01*
X2937Y715D01*
X2938Y714D01*
X2939Y714D01*
X2939Y713D01*
X2940Y713D01*
X2940Y713D01*
X2942Y712D01*
X2943Y710D01*
X2947Y707D01*
X2950Y704D01*
X2952Y701D01*
X2953Y700D01*
X2954Y698D01*
X2955Y697D01*
X2955Y696D01*
X2956Y695D01*
X2956Y694D01*
X2956Y694D01*
X2957Y694D01*
X2958Y692D01*
X2959Y689D01*
X2960Y684D01*
X2961Y680D01*
X2962Y677D01*
X2962Y675D01*
X2962Y674D01*
X2962Y672D01*
X2962Y670D01*
Y669D01*
X2963Y668D01*
Y667D01*
Y667D01*
Y666D01*
X2962Y663D01*
X2962Y660D01*
X2962Y657D01*
X2961Y654D01*
X2961Y652D01*
X2960Y649D01*
X2959Y647D01*
X2958Y645D01*
X2957Y644D01*
X2956Y642D01*
X2956Y641D01*
X2955Y640D01*
X2954Y639D01*
X2954Y638D01*
X2954Y638D01*
X2954Y638D01*
X2952Y636D01*
X2950Y635D01*
X2948Y633D01*
X2946Y632D01*
X2944Y631D01*
X2941Y631D01*
X2939Y630D01*
X2937Y630D01*
X2936Y629D01*
X2934Y629D01*
X2932Y629D01*
X2931Y628D01*
X2930D01*
X2929Y628D01*
X2928D01*
X2925Y628D01*
X2923Y629D01*
X2921Y629D01*
X2918Y630D01*
X2916Y630D01*
X2914Y631D01*
X2912Y631D01*
X2910Y632D01*
X2909Y633D01*
X2907Y634D01*
X2906Y634D01*
X2905Y635D01*
X2904Y635D01*
X2904Y636D01*
X2903Y636D01*
X2903Y636D01*
X2901Y638D01*
X2899Y639D01*
X2896Y643D01*
X2893Y647D01*
X2891Y650D01*
X2890Y652D01*
X2889Y654D01*
X2889Y655D01*
X2888Y656D01*
X2888Y657D01*
X2887Y658D01*
X2887Y659D01*
Y659D01*
X2905Y662D01*
X2907Y658D01*
X2908Y656D01*
X2909Y653D01*
X2911Y651D01*
X2912Y650D01*
X2913Y649D01*
X2914Y648D01*
X2914Y648D01*
X2914D01*
X2916Y646D01*
X2919Y645D01*
X2921Y645D01*
X2923Y644D01*
X2924Y644D01*
X2926Y644D01*
X2926Y643D01*
X2927D01*
X2928Y644D01*
X2930Y644D01*
X2932Y644D01*
X2934Y645D01*
X2936Y646D01*
X2938Y647D01*
X2939Y648D01*
X2939Y649D01*
X2940Y649D01*
X2941Y652D01*
X2943Y654D01*
X2943Y657D01*
X2944Y660D01*
X2944Y662D01*
X2944Y663D01*
Y664D01*
X2945Y665D01*
Y665D01*
Y665D01*
Y666D01*
X2944Y669D01*
X2944Y673D01*
X2943Y676D01*
X2943Y679D01*
X2942Y680D01*
X2942Y681D01*
X2942Y682D01*
X2941Y683D01*
X2941Y684D01*
X2941Y685D01*
X2941Y685D01*
Y685D01*
X2939Y688D01*
X2937Y691D01*
X2936Y694D01*
X2934Y696D01*
X2933Y697D01*
X2931Y699D01*
X2931Y699D01*
X2930Y699D01*
X2930D01*
X2928Y701D01*
X2925Y702D01*
X2923Y703D01*
X2921Y703D01*
X2919Y704D01*
X2918Y704D01*
X2917Y704D01*
X2916D01*
X2914Y704D01*
X2912Y704D01*
X2910Y703D01*
X2908Y702D01*
X2907Y702D01*
X2906Y701D01*
X2905Y701D01*
X2905Y701D01*
X2904Y699D01*
X2903Y697D01*
X2902Y696D01*
X2901Y694D01*
X2900Y692D01*
X2900Y691D01*
X2900Y690D01*
Y690D01*
X2900Y690D01*
Y689D01*
X2882Y691D01*
X2883Y694D01*
X2883Y696D01*
X2884Y698D01*
X2885Y700D01*
X2886Y702D01*
X2886Y704D01*
X2887Y705D01*
X2888Y707D01*
X2889Y708D01*
X2890Y709D01*
X2891Y710D01*
X2891Y711D01*
X2892Y711D01*
X2892Y712D01*
X2893Y712D01*
X2893Y712D01*
X2895Y713D01*
X2896Y715D01*
X2898Y716D01*
X2900Y716D01*
X2902Y717D01*
X2904Y718D01*
X2908Y719D01*
X2909Y719D01*
X2911Y719D01*
X2912Y720D01*
X2914Y720D01*
X2915Y720D01*
X2916D01*
X2918Y720D01*
D02*
G37*
G36*
X2561D02*
X2564Y719D01*
X2567Y719D01*
X2569Y719D01*
X2571Y718D01*
X2574Y717D01*
X2576Y717D01*
X2577Y716D01*
X2579Y715D01*
X2581Y714D01*
X2582Y714D01*
X2583Y713D01*
X2584Y713D01*
X2585Y712D01*
X2585Y712D01*
X2585Y712D01*
X2587Y710D01*
X2589Y709D01*
X2592Y705D01*
X2594Y703D01*
X2596Y701D01*
X2597Y700D01*
X2598Y698D01*
X2599Y696D01*
X2600Y695D01*
X2601Y693D01*
X2601Y692D01*
X2602Y691D01*
X2602Y690D01*
X2602Y690D01*
X2602Y690D01*
X2604Y685D01*
X2605Y681D01*
X2606Y677D01*
X2607Y675D01*
X2607Y673D01*
X2607Y671D01*
X2607Y670D01*
X2607Y668D01*
Y667D01*
X2608Y666D01*
Y666D01*
Y665D01*
Y665D01*
X2607Y662D01*
X2607Y658D01*
X2606Y655D01*
X2606Y652D01*
X2605Y650D01*
X2604Y647D01*
X2603Y645D01*
X2602Y643D01*
X2600Y641D01*
X2599Y640D01*
X2598Y639D01*
X2597Y638D01*
X2597Y637D01*
X2596Y636D01*
X2596Y636D01*
X2596Y636D01*
X2594Y634D01*
X2592Y633D01*
X2590Y632D01*
X2588Y631D01*
X2586Y631D01*
X2584Y630D01*
X2580Y629D01*
X2578Y629D01*
X2576Y629D01*
X2575Y629D01*
X2573Y628D01*
X2572Y628D01*
X2571D01*
X2567Y628D01*
X2563Y629D01*
X2559Y629D01*
X2556Y630D01*
X2555Y630D01*
X2554Y630D01*
X2553Y631D01*
X2552Y631D01*
X2551Y631D01*
X2550Y631D01*
X2550Y631D01*
X2550D01*
X2546Y633D01*
X2543Y634D01*
X2540Y635D01*
X2537Y636D01*
X2536Y637D01*
X2535Y637D01*
X2535Y638D01*
X2534Y638D01*
X2533Y639D01*
X2533Y639D01*
X2533Y639D01*
X2533D01*
X2525Y677D01*
X2564D01*
X2567Y662D01*
X2545D01*
X2547Y649D01*
X2549Y648D01*
X2551Y648D01*
X2553Y647D01*
X2554Y646D01*
X2556Y646D01*
X2557Y645D01*
X2558Y645D01*
X2558Y645D01*
X2558D01*
X2560Y645D01*
X2563Y644D01*
X2565Y644D01*
X2566Y644D01*
X2568Y644D01*
X2569Y643D01*
X2570D01*
X2573Y644D01*
X2577Y644D01*
X2579Y645D01*
X2581Y646D01*
X2583Y647D01*
X2584Y648D01*
X2585Y648D01*
X2585Y649D01*
X2586Y650D01*
X2587Y651D01*
X2588Y654D01*
X2589Y656D01*
X2589Y659D01*
X2590Y661D01*
X2590Y662D01*
Y663D01*
X2590Y664D01*
Y665D01*
Y665D01*
Y665D01*
X2590Y669D01*
X2589Y673D01*
X2589Y677D01*
X2588Y678D01*
X2588Y680D01*
X2587Y681D01*
X2587Y683D01*
X2587Y684D01*
X2586Y684D01*
X2586Y685D01*
X2586Y686D01*
X2586Y686D01*
Y686D01*
X2584Y690D01*
X2582Y693D01*
X2580Y695D01*
X2579Y697D01*
X2577Y699D01*
X2576Y700D01*
X2575Y700D01*
X2575Y700D01*
X2574Y700D01*
X2574D01*
X2572Y702D01*
X2569Y703D01*
X2566Y704D01*
X2564Y705D01*
X2561Y705D01*
X2561Y705D01*
X2560D01*
X2559Y705D01*
X2558D01*
X2556Y705D01*
X2553Y705D01*
X2551Y704D01*
X2549Y703D01*
X2548Y703D01*
X2547Y702D01*
X2546Y701D01*
X2546Y701D01*
X2544Y700D01*
X2543Y698D01*
X2541Y696D01*
X2540Y694D01*
X2540Y693D01*
X2539Y691D01*
X2539Y691D01*
X2539Y690D01*
X2539Y690D01*
Y690D01*
X2522Y692D01*
X2522Y694D01*
X2523Y697D01*
X2524Y699D01*
X2525Y701D01*
X2526Y703D01*
X2527Y705D01*
X2528Y706D01*
X2529Y707D01*
X2530Y709D01*
X2531Y710D01*
X2532Y711D01*
X2532Y711D01*
X2533Y712D01*
X2534Y712D01*
X2534Y713D01*
X2534Y713D01*
X2536Y714D01*
X2538Y715D01*
X2540Y716D01*
X2542Y717D01*
X2546Y718D01*
X2550Y719D01*
X2551Y719D01*
X2553Y719D01*
X2555Y720D01*
X2556Y720D01*
X2557Y720D01*
X2558D01*
X2561Y720D01*
D02*
G37*
G36*
X2798Y630D02*
X2779D01*
X2768Y649D01*
X2733D01*
X2731Y630D01*
X2713D01*
X2727Y718D01*
X2748D01*
X2798Y630D01*
D02*
G37*
G36*
X2702D02*
X2684D01*
X2676Y666D01*
X2669D01*
X2667Y666D01*
X2665Y666D01*
X2663Y666D01*
X2662Y665D01*
X2661Y665D01*
X2660Y665D01*
X2660Y665D01*
X2660Y665D01*
X2659Y664D01*
X2658Y663D01*
X2657Y662D01*
X2655Y660D01*
X2654Y658D01*
X2653Y656D01*
X2653Y655D01*
X2652Y654D01*
X2652Y654D01*
X2652Y653D01*
Y653D01*
X2651Y650D01*
X2649Y648D01*
X2648Y645D01*
X2648Y643D01*
X2647Y641D01*
X2646Y639D01*
X2645Y637D01*
X2645Y636D01*
X2644Y634D01*
X2644Y633D01*
X2643Y632D01*
X2643Y631D01*
X2643Y631D01*
X2643Y630D01*
X2643Y630D01*
Y630D01*
X2623D01*
X2624Y633D01*
X2626Y637D01*
X2627Y640D01*
X2628Y642D01*
X2630Y645D01*
X2631Y648D01*
X2632Y650D01*
X2633Y652D01*
X2634Y653D01*
X2634Y655D01*
X2635Y656D01*
X2636Y657D01*
X2636Y658D01*
X2636Y659D01*
X2637Y659D01*
X2637Y659D01*
X2638Y661D01*
X2639Y663D01*
X2640Y664D01*
X2641Y665D01*
X2642Y666D01*
X2643Y667D01*
X2643Y667D01*
X2643Y667D01*
X2641Y668D01*
X2638Y668D01*
X2636Y669D01*
X2634Y669D01*
X2632Y670D01*
X2631Y671D01*
X2629Y672D01*
X2628Y673D01*
X2627Y673D01*
X2626Y674D01*
X2625Y675D01*
X2624Y675D01*
X2624Y676D01*
X2623Y676D01*
X2623Y676D01*
X2623Y676D01*
X2622Y678D01*
X2621Y679D01*
X2620Y681D01*
X2619Y682D01*
X2618Y686D01*
X2617Y688D01*
X2617Y690D01*
X2616Y691D01*
X2616Y692D01*
X2616Y693D01*
X2616Y694D01*
Y694D01*
Y695D01*
Y695D01*
X2616Y698D01*
X2617Y700D01*
X2617Y703D01*
X2618Y705D01*
X2618Y706D01*
X2619Y707D01*
X2619Y708D01*
X2620Y708D01*
X2621Y710D01*
X2622Y712D01*
X2624Y713D01*
X2625Y714D01*
X2627Y715D01*
X2628Y716D01*
X2628Y716D01*
X2629Y716D01*
X2629D01*
X2631Y717D01*
X2634Y717D01*
X2636Y718D01*
X2639Y718D01*
X2641Y718D01*
X2642Y718D01*
X2683D01*
X2702Y630D01*
D02*
G37*
G36*
X2517D02*
X2449D01*
X2445Y645D01*
X2497D01*
X2491Y669D01*
X2445D01*
X2442Y683D01*
X2488D01*
X2484Y703D01*
X2437D01*
X2433Y718D01*
X2499D01*
X2517Y630D01*
D02*
G37*
G36*
X2435D02*
X2417D01*
X2409Y666D01*
X2402D01*
X2399Y666D01*
X2398Y666D01*
X2396Y666D01*
X2395Y665D01*
X2394Y665D01*
X2393Y665D01*
X2393Y665D01*
X2393Y665D01*
X2392Y664D01*
X2391Y663D01*
X2390Y662D01*
X2388Y660D01*
X2387Y658D01*
X2386Y656D01*
X2385Y655D01*
X2385Y654D01*
X2385Y654D01*
X2385Y653D01*
Y653D01*
X2383Y650D01*
X2382Y648D01*
X2381Y645D01*
X2380Y643D01*
X2380Y641D01*
X2379Y639D01*
X2378Y637D01*
X2378Y636D01*
X2377Y634D01*
X2377Y633D01*
X2376Y632D01*
X2376Y631D01*
X2376Y631D01*
X2376Y630D01*
X2375Y630D01*
Y630D01*
X2356D01*
X2357Y633D01*
X2359Y637D01*
X2360Y640D01*
X2361Y642D01*
X2362Y645D01*
X2364Y648D01*
X2365Y650D01*
X2366Y652D01*
X2367Y653D01*
X2367Y655D01*
X2368Y656D01*
X2369Y657D01*
X2369Y658D01*
X2369Y659D01*
X2369Y659D01*
X2370Y659D01*
X2371Y661D01*
X2372Y663D01*
X2373Y664D01*
X2374Y665D01*
X2375Y666D01*
X2375Y667D01*
X2376Y667D01*
X2376Y667D01*
X2374Y668D01*
X2371Y668D01*
X2369Y669D01*
X2367Y669D01*
X2365Y670D01*
X2364Y671D01*
X2362Y672D01*
X2361Y673D01*
X2360Y673D01*
X2359Y674D01*
X2358Y675D01*
X2357Y675D01*
X2356Y676D01*
X2356Y676D01*
X2356Y676D01*
X2356Y676D01*
X2355Y678D01*
X2353Y679D01*
X2353Y681D01*
X2352Y682D01*
X2351Y686D01*
X2350Y688D01*
X2349Y690D01*
X2349Y691D01*
X2349Y692D01*
X2349Y693D01*
X2349Y694D01*
Y694D01*
Y695D01*
Y695D01*
X2349Y698D01*
X2349Y700D01*
X2350Y703D01*
X2351Y705D01*
X2351Y706D01*
X2352Y707D01*
X2352Y708D01*
X2353Y708D01*
X2354Y710D01*
X2355Y712D01*
X2357Y713D01*
X2358Y714D01*
X2360Y715D01*
X2361Y716D01*
X2361Y716D01*
X2361Y716D01*
X2362D01*
X2364Y717D01*
X2366Y717D01*
X2369Y718D01*
X2372Y718D01*
X2374Y718D01*
X2375Y718D01*
X2416D01*
X2435Y630D01*
D02*
G37*
G36*
X1390Y49D02*
X1380D01*
Y71D01*
X1359D01*
Y79D01*
X1380D01*
Y91D01*
X1355D01*
Y100D01*
X1390D01*
Y49D01*
D02*
G37*
G36*
X1347D02*
X1337D01*
Y71D01*
X1316D01*
Y79D01*
X1337D01*
Y91D01*
X1312D01*
Y100D01*
X1347D01*
Y49D01*
D02*
G37*
G36*
X1425Y101D02*
X1427Y100D01*
X1429Y100D01*
X1430Y100D01*
X1431Y99D01*
X1432Y99D01*
X1432Y99D01*
X1432Y99D01*
X1433Y99D01*
X1433Y99D01*
X1433Y99D01*
X1433D01*
X1435Y98D01*
X1436Y97D01*
X1437Y96D01*
X1438Y96D01*
X1439Y95D01*
X1439Y94D01*
X1440Y94D01*
X1440Y94D01*
X1440Y94D01*
X1441Y93D01*
X1442Y92D01*
X1443Y90D01*
X1443Y89D01*
X1444Y88D01*
X1444Y88D01*
X1444Y87D01*
X1445Y87D01*
X1445Y87D01*
Y87D01*
X1445Y85D01*
X1446Y83D01*
X1446Y81D01*
X1447Y79D01*
X1447Y78D01*
X1447Y77D01*
X1447Y76D01*
Y75D01*
X1447Y75D01*
Y74D01*
Y74D01*
Y74D01*
X1447Y72D01*
X1447Y70D01*
X1446Y68D01*
X1446Y66D01*
X1445Y64D01*
X1445Y63D01*
X1444Y61D01*
X1443Y60D01*
X1443Y59D01*
X1442Y58D01*
X1442Y57D01*
X1441Y56D01*
X1441Y56D01*
X1441Y55D01*
X1440Y55D01*
X1440Y55D01*
X1439Y54D01*
X1438Y53D01*
X1436Y52D01*
X1435Y51D01*
X1433Y51D01*
X1432Y50D01*
X1430Y50D01*
X1429Y49D01*
X1427Y49D01*
X1426Y49D01*
X1425Y48D01*
X1424Y48D01*
X1423Y48D01*
X1423Y48D01*
X1422D01*
X1420Y48D01*
X1418Y49D01*
X1417Y49D01*
X1415Y49D01*
X1413Y50D01*
X1412Y50D01*
X1411Y51D01*
X1409Y52D01*
X1408Y52D01*
X1407Y53D01*
X1407Y54D01*
X1406Y54D01*
X1405Y54D01*
X1405Y55D01*
X1405Y55D01*
X1405Y55D01*
X1403Y57D01*
X1402Y58D01*
X1402Y59D01*
X1401Y61D01*
X1400Y63D01*
X1400Y64D01*
X1399Y66D01*
X1399Y67D01*
X1399Y69D01*
X1398Y70D01*
X1398Y71D01*
X1398Y72D01*
Y73D01*
X1398Y74D01*
Y74D01*
Y74D01*
X1398Y77D01*
X1398Y79D01*
X1399Y81D01*
X1399Y83D01*
X1399Y84D01*
X1400Y86D01*
X1401Y87D01*
X1401Y89D01*
X1402Y90D01*
X1403Y91D01*
X1403Y92D01*
X1404Y92D01*
X1404Y93D01*
X1404Y93D01*
X1405Y94D01*
X1405Y94D01*
X1406Y95D01*
X1407Y96D01*
X1409Y97D01*
X1410Y98D01*
X1412Y98D01*
X1413Y99D01*
X1415Y99D01*
X1416Y100D01*
X1417Y100D01*
X1419Y100D01*
X1420Y100D01*
X1421Y101D01*
X1421D01*
X1422Y101D01*
X1423D01*
X1425Y101D01*
D02*
G37*
G36*
X1938Y49D02*
X1929D01*
Y82D01*
X1908Y49D01*
X1898D01*
Y100D01*
X1907D01*
Y66D01*
X1928Y100D01*
X1938D01*
Y49D01*
D02*
G37*
G36*
X1973Y101D02*
X1975Y100D01*
X1977Y100D01*
X1978Y100D01*
X1979Y99D01*
X1980Y99D01*
X1980Y99D01*
X1981Y99D01*
X1981Y99D01*
X1981Y99D01*
X1981Y99D01*
X1981D01*
X1983Y98D01*
X1984Y97D01*
X1985Y96D01*
X1986Y96D01*
X1987Y95D01*
X1987Y94D01*
X1988Y94D01*
X1988Y94D01*
X1988Y94D01*
X1989Y93D01*
X1990Y92D01*
X1991Y90D01*
X1991Y89D01*
X1992Y88D01*
X1992Y88D01*
X1992Y87D01*
X1993Y87D01*
X1993Y87D01*
Y87D01*
X1993Y85D01*
X1994Y83D01*
X1994Y81D01*
X1995Y79D01*
X1995Y78D01*
X1995Y77D01*
X1995Y76D01*
Y75D01*
X1995Y75D01*
Y74D01*
Y74D01*
Y74D01*
X1995Y72D01*
X1995Y70D01*
X1994Y68D01*
X1994Y66D01*
X1993Y64D01*
X1993Y63D01*
X1992Y61D01*
X1992Y60D01*
X1991Y59D01*
X1990Y58D01*
X1990Y57D01*
X1989Y56D01*
X1989Y56D01*
X1989Y55D01*
X1988Y55D01*
X1988Y55D01*
X1987Y54D01*
X1986Y53D01*
X1984Y52D01*
X1983Y51D01*
X1981Y51D01*
X1980Y50D01*
X1978Y50D01*
X1977Y49D01*
X1976Y49D01*
X1974Y49D01*
X1973Y48D01*
X1972Y48D01*
X1971Y48D01*
X1971Y48D01*
X1970D01*
X1968Y48D01*
X1966Y49D01*
X1965Y49D01*
X1963Y49D01*
X1961Y50D01*
X1960Y50D01*
X1959Y51D01*
X1957Y52D01*
X1956Y52D01*
X1955Y53D01*
X1955Y54D01*
X1954Y54D01*
X1953Y54D01*
X1953Y55D01*
X1953Y55D01*
X1953Y55D01*
X1952Y57D01*
X1951Y58D01*
X1950Y59D01*
X1949Y61D01*
X1948Y63D01*
X1948Y64D01*
X1947Y66D01*
X1947Y67D01*
X1947Y69D01*
X1946Y70D01*
X1946Y71D01*
X1946Y72D01*
Y73D01*
X1946Y74D01*
Y74D01*
Y74D01*
X1946Y77D01*
X1946Y79D01*
X1947Y81D01*
X1947Y83D01*
X1948Y84D01*
X1948Y86D01*
X1949Y87D01*
X1949Y89D01*
X1950Y90D01*
X1951Y91D01*
X1951Y92D01*
X1952Y92D01*
X1952Y93D01*
X1952Y93D01*
X1953Y94D01*
X1953Y94D01*
X1954Y95D01*
X1955Y96D01*
X1957Y97D01*
X1958Y98D01*
X1960Y98D01*
X1961Y99D01*
X1963Y99D01*
X1964Y100D01*
X1965Y100D01*
X1967Y100D01*
X1968Y100D01*
X1969Y101D01*
X1969D01*
X1970Y101D01*
X1971D01*
X1973Y101D01*
D02*
G37*
G36*
X7916Y361D02*
X7918Y361D01*
X7918D01*
X7919Y361D01*
X7919Y361D01*
X7920Y360D01*
X7920Y360D01*
X7920Y360D01*
X7921Y359D01*
X7920Y359D01*
Y358D01*
X7920Y358D01*
X7920Y357D01*
X7919Y356D01*
X7891Y298D01*
Y261D01*
Y260D01*
X7890Y260D01*
X7890Y259D01*
X7889Y259D01*
X7889D01*
X7889Y259D01*
X7888D01*
X7887Y259D01*
X7887D01*
X7886Y258D01*
X7885Y258D01*
X7883D01*
X7882Y258D01*
X7881Y259D01*
X7880D01*
X7880Y259D01*
X7878Y259D01*
X7878D01*
X7878Y259D01*
X7877Y260D01*
Y260D01*
Y260D01*
X7877Y261D01*
Y298D01*
X7848Y356D01*
X7848Y356D01*
X7848Y357D01*
X7847Y358D01*
X7847Y359D01*
Y359D01*
Y359D01*
Y360D01*
X7847Y360D01*
X7848Y361D01*
X7848Y361D01*
X7849Y361D01*
X7850Y361D01*
X7850D01*
X7851Y361D01*
X7856D01*
X7858Y361D01*
X7858D01*
X7859Y361D01*
X7859Y361D01*
X7860Y361D01*
X7860D01*
X7860Y360D01*
X7861Y360D01*
X7861Y360D01*
X7861D01*
X7862Y359D01*
X7862Y359D01*
X7876Y329D01*
Y329D01*
X7877Y328D01*
X7877Y328D01*
X7877Y326D01*
X7878Y325D01*
X7879Y324D01*
X7880Y320D01*
X7880Y320D01*
X7880Y320D01*
X7881Y319D01*
X7881Y318D01*
X7882Y316D01*
X7883Y315D01*
X7884Y311D01*
X7884D01*
Y311D01*
X7885Y312D01*
X7885Y313D01*
X7885Y314D01*
X7886Y315D01*
X7887Y317D01*
X7888Y320D01*
X7888Y320D01*
X7888Y321D01*
X7889Y322D01*
X7889Y323D01*
X7890Y324D01*
X7890Y326D01*
X7892Y329D01*
X7906Y358D01*
Y359D01*
X7906Y359D01*
X7907Y360D01*
Y360D01*
X7907Y360D01*
X7908Y361D01*
X7908D01*
X7908Y361D01*
X7909Y361D01*
X7910Y361D01*
X7910D01*
X7911Y361D01*
X7915D01*
X7916Y361D01*
D02*
G37*
G36*
X7265Y361D02*
X7265Y360D01*
X7266D01*
X7266Y360D01*
X7267Y360D01*
X7267Y359D01*
X7267Y359D01*
X7268Y359D01*
X7268Y358D01*
X7268Y357D01*
X7269Y357D01*
X7269Y357D01*
X7269Y356D01*
Y355D01*
Y261D01*
Y260D01*
X7269Y260D01*
X7268Y259D01*
X7268Y259D01*
X7267Y259D01*
X7267D01*
X7267Y259D01*
X7266D01*
X7265Y259D01*
X7265D01*
X7264Y258D01*
X7263Y258D01*
X7261D01*
X7260Y258D01*
X7259Y259D01*
X7259D01*
X7258Y259D01*
X7257D01*
X7257Y259D01*
X7257D01*
X7256Y259D01*
X7256Y260D01*
Y260D01*
Y260D01*
X7256Y261D01*
Y350D01*
X7255D01*
X7219Y260D01*
X7219Y260D01*
X7219Y259D01*
X7218Y259D01*
X7218Y259D01*
X7217Y259D01*
X7217D01*
X7217Y259D01*
X7216D01*
X7215Y258D01*
X7215D01*
X7214Y258D01*
X7211D01*
X7210Y258D01*
X7210D01*
X7209Y259D01*
X7208Y259D01*
X7208D01*
X7207Y259D01*
X7207Y259D01*
Y260D01*
X7206Y260D01*
X7206Y260D01*
X7172Y350D01*
Y261D01*
Y260D01*
X7171Y260D01*
X7171Y259D01*
X7171Y259D01*
X7170Y259D01*
X7170D01*
X7170Y259D01*
X7169D01*
X7168Y259D01*
X7168D01*
X7167Y258D01*
X7166Y258D01*
X7164D01*
X7163Y258D01*
X7162Y259D01*
X7161D01*
X7161Y259D01*
X7160D01*
X7160Y259D01*
X7159D01*
X7159Y259D01*
X7158Y260D01*
Y260D01*
Y260D01*
X7158Y261D01*
Y355D01*
Y355D01*
Y355D01*
X7158Y356D01*
Y356D01*
X7159Y358D01*
X7160Y359D01*
X7160Y359D01*
X7161Y360D01*
X7162Y361D01*
X7164Y361D01*
X7174D01*
X7175Y361D01*
X7176Y360D01*
X7177D01*
X7177Y360D01*
X7178Y360D01*
X7179Y359D01*
X7180Y359D01*
X7180Y358D01*
X7181Y358D01*
X7182Y357D01*
X7182Y356D01*
X7182Y356D01*
X7183Y355D01*
X7183Y354D01*
X7184Y352D01*
X7213Y279D01*
X7214D01*
X7244Y352D01*
Y352D01*
X7244Y353D01*
X7244Y354D01*
X7245Y355D01*
X7246Y356D01*
X7246Y357D01*
X7247Y357D01*
X7247Y358D01*
X7248Y359D01*
X7248Y359D01*
X7249Y359D01*
X7250Y360D01*
X7251Y360D01*
X7251Y360D01*
X7252Y361D01*
X7253Y361D01*
X7264D01*
X7265Y361D01*
D02*
G37*
G36*
X7511Y361D02*
X7512Y361D01*
X7512D01*
X7513Y361D01*
X7514Y361D01*
X7514Y360D01*
Y360D01*
X7514Y360D01*
X7514Y359D01*
Y359D01*
Y358D01*
Y358D01*
X7514Y357D01*
X7514Y356D01*
X7481Y261D01*
Y261D01*
X7480Y260D01*
X7480Y260D01*
X7479D01*
X7479Y259D01*
X7479Y259D01*
X7478Y259D01*
X7478D01*
X7477Y259D01*
X7477D01*
X7475Y258D01*
X7474D01*
X7473Y258D01*
X7470D01*
X7469Y258D01*
X7467D01*
X7466Y259D01*
X7466D01*
X7466Y259D01*
X7465D01*
X7464Y259D01*
X7464Y259D01*
X7463Y259D01*
X7463Y260D01*
Y260D01*
X7463Y260D01*
X7462Y261D01*
X7429Y356D01*
X7429Y356D01*
X7429Y357D01*
X7429Y358D01*
X7428Y359D01*
Y359D01*
Y359D01*
X7429Y360D01*
X7429Y360D01*
X7429Y361D01*
X7430Y361D01*
X7430Y361D01*
X7431Y361D01*
X7432D01*
X7432Y361D01*
X7438D01*
X7439Y361D01*
X7439D01*
X7440Y361D01*
X7441Y361D01*
X7441Y361D01*
X7441D01*
X7442Y360D01*
X7442Y360D01*
X7442Y360D01*
X7442Y359D01*
X7443Y359D01*
X7472Y273D01*
X7472D01*
X7501Y358D01*
Y359D01*
X7501Y359D01*
X7501Y360D01*
Y360D01*
X7501Y360D01*
X7502Y361D01*
X7502D01*
X7503Y361D01*
X7504Y361D01*
X7504Y361D01*
X7505D01*
X7506Y361D01*
X7510D01*
X7511Y361D01*
D02*
G37*
G36*
X7706D02*
X7707Y361D01*
X7707D01*
X7708Y361D01*
X7708Y361D01*
X7709Y360D01*
X7709D01*
X7710Y360D01*
X7710Y360D01*
X7710Y360D01*
X7710Y359D01*
X7711Y359D01*
Y271D01*
X7747D01*
X7748Y270D01*
X7749D01*
X7749Y270D01*
X7749Y269D01*
Y269D01*
X7749Y269D01*
X7750Y268D01*
X7750Y267D01*
Y267D01*
X7750Y267D01*
Y266D01*
Y265D01*
Y265D01*
Y264D01*
Y263D01*
X7750Y262D01*
Y262D01*
X7750Y261D01*
X7749Y260D01*
Y260D01*
X7749Y260D01*
X7748Y259D01*
X7748D01*
X7747Y259D01*
X7702D01*
X7701Y259D01*
X7700Y259D01*
X7699Y260D01*
X7698Y260D01*
X7698Y261D01*
X7697Y262D01*
X7697Y264D01*
Y359D01*
Y359D01*
Y359D01*
X7697Y360D01*
Y360D01*
X7698Y360D01*
X7698Y360D01*
X7699D01*
X7699Y361D01*
X7700Y361D01*
X7701Y361D01*
X7701D01*
X7702Y361D01*
X7703Y361D01*
X7705D01*
X7706Y361D01*
D02*
G37*
G36*
X7585Y360D02*
X7585D01*
X7586Y360D01*
X7586Y359D01*
Y359D01*
X7586Y359D01*
X7586Y358D01*
X7587Y357D01*
Y357D01*
X7587Y357D01*
X7587Y356D01*
Y355D01*
Y355D01*
Y354D01*
X7587Y353D01*
X7587Y352D01*
Y352D01*
X7586Y352D01*
X7586Y351D01*
X7586Y350D01*
X7585Y350D01*
X7585D01*
X7584Y349D01*
X7544D01*
Y318D01*
X7579D01*
X7579Y317D01*
X7580D01*
X7580Y317D01*
X7580Y316D01*
Y316D01*
X7581Y316D01*
X7581Y315D01*
X7581Y314D01*
Y314D01*
X7581Y314D01*
Y313D01*
Y312D01*
Y312D01*
Y311D01*
Y310D01*
X7581Y309D01*
Y309D01*
X7581Y309D01*
X7581Y308D01*
X7580Y308D01*
X7580Y307D01*
X7579Y307D01*
X7579D01*
X7578Y307D01*
X7544D01*
Y270D01*
X7585D01*
X7586Y270D01*
X7586D01*
X7586Y270D01*
X7587Y269D01*
X7587Y269D01*
X7587Y268D01*
X7587Y268D01*
X7587Y267D01*
Y267D01*
X7587Y266D01*
Y265D01*
Y264D01*
Y264D01*
Y263D01*
Y263D01*
X7587Y262D01*
Y262D01*
X7587Y261D01*
X7587Y260D01*
Y260D01*
X7586Y260D01*
X7586Y259D01*
X7585D01*
X7585Y259D01*
X7535D01*
X7535Y259D01*
X7534Y259D01*
X7532Y260D01*
X7532Y260D01*
X7532Y261D01*
X7531Y262D01*
X7531Y264D01*
Y355D01*
Y355D01*
Y356D01*
X7531Y357D01*
X7531Y358D01*
X7532Y359D01*
X7533Y360D01*
X7533Y360D01*
X7534Y361D01*
X7536Y361D01*
X7585D01*
X7585Y360D01*
D02*
G37*
G36*
X6734Y361D02*
X6736Y360D01*
X6738Y360D01*
X6741Y359D01*
X6743Y359D01*
X6743D01*
X6744Y359D01*
X6745Y358D01*
X6747Y358D01*
X6750Y356D01*
X6751Y355D01*
X6753Y354D01*
X6753Y354D01*
X6754Y353D01*
X6754Y353D01*
X6755Y352D01*
X6756Y350D01*
X6757Y349D01*
X6758Y347D01*
X6759Y346D01*
X6759Y345D01*
X6759Y345D01*
X6760Y344D01*
X6760Y342D01*
X6760Y341D01*
X6760Y339D01*
X6761Y337D01*
Y335D01*
Y335D01*
Y334D01*
Y334D01*
X6761Y333D01*
X6760Y330D01*
X6760Y328D01*
Y328D01*
X6760Y327D01*
X6760Y327D01*
X6759Y326D01*
X6758Y324D01*
X6757Y322D01*
Y322D01*
X6757Y321D01*
X6756Y320D01*
X6755Y318D01*
X6753Y317D01*
X6753D01*
X6753Y316D01*
X6752Y316D01*
X6751Y316D01*
X6750Y314D01*
X6747Y313D01*
X6747D01*
X6748Y313D01*
X6749Y313D01*
X6750Y313D01*
X6752Y312D01*
X6755Y310D01*
X6755D01*
X6756Y310D01*
X6756Y310D01*
X6757Y309D01*
X6759Y307D01*
X6761Y305D01*
X6761Y305D01*
X6762Y304D01*
X6762Y304D01*
X6763Y303D01*
X6763Y302D01*
X6764Y300D01*
X6766Y297D01*
Y297D01*
X6766Y297D01*
X6766Y296D01*
X6767Y295D01*
X6767Y293D01*
X6767Y292D01*
X6767Y288D01*
Y288D01*
Y287D01*
Y286D01*
X6767Y285D01*
X6767Y284D01*
X6767Y282D01*
X6766Y279D01*
Y279D01*
X6766Y278D01*
X6765Y278D01*
X6765Y277D01*
X6764Y274D01*
X6762Y272D01*
X6762Y272D01*
X6762Y271D01*
X6762Y271D01*
X6761Y270D01*
X6759Y268D01*
X6757Y266D01*
X6757Y266D01*
X6757Y266D01*
X6756Y265D01*
X6755Y265D01*
X6754Y264D01*
X6753Y263D01*
X6750Y262D01*
X6750D01*
X6749Y262D01*
X6749Y262D01*
X6748Y261D01*
X6746Y261D01*
X6745Y260D01*
X6742Y260D01*
X6742D01*
X6741Y259D01*
X6740D01*
X6739Y259D01*
X6737Y259D01*
X6736D01*
X6734Y259D01*
X6705D01*
X6704Y259D01*
X6703Y259D01*
X6701Y260D01*
X6701Y260D01*
X6701Y261D01*
X6700Y262D01*
X6700Y264D01*
Y355D01*
Y355D01*
Y356D01*
X6700Y357D01*
X6701Y358D01*
X6701Y359D01*
X6702Y360D01*
X6703Y360D01*
X6704Y361D01*
X6705Y361D01*
X6732D01*
X6734Y361D01*
D02*
G37*
G36*
X7802Y361D02*
X7802D01*
X7803Y361D01*
X7804Y361D01*
X7804Y361D01*
X7805D01*
X7805Y360D01*
X7806Y360D01*
X7806Y360D01*
X7806D01*
X7807Y359D01*
X7807Y358D01*
X7841Y264D01*
X7841Y263D01*
X7842Y263D01*
X7842Y262D01*
Y261D01*
Y260D01*
Y260D01*
X7842Y260D01*
X7841Y259D01*
X7841D01*
X7841Y259D01*
X7840Y259D01*
X7839Y258D01*
X7838D01*
X7837Y258D01*
X7833D01*
X7831Y258D01*
X7831D01*
X7831Y259D01*
X7830D01*
X7829Y259D01*
X7829D01*
X7829Y259D01*
X7828Y259D01*
Y260D01*
X7828Y260D01*
X7827Y261D01*
X7819Y286D01*
X7776D01*
X7768Y261D01*
Y261D01*
X7768Y261D01*
X7767Y260D01*
X7767Y259D01*
X7766Y259D01*
X7766D01*
X7766Y259D01*
X7765D01*
X7764Y258D01*
X7763D01*
X7762Y258D01*
X7759D01*
X7758Y258D01*
X7757Y259D01*
X7757D01*
X7756Y259D01*
X7755Y259D01*
X7755Y259D01*
Y259D01*
X7755Y260D01*
X7754Y260D01*
X7754Y261D01*
Y261D01*
X7754Y261D01*
X7755Y262D01*
X7755Y264D01*
X7789Y358D01*
Y359D01*
X7789Y359D01*
X7790Y360D01*
X7790Y360D01*
X7790Y360D01*
X7791Y361D01*
X7791D01*
X7792Y361D01*
X7793Y361D01*
X7794Y361D01*
X7794D01*
X7795Y361D01*
X7801D01*
X7802Y361D01*
D02*
G37*
G36*
X7641Y361D02*
X7643Y360D01*
X7643D01*
X7644Y360D01*
X7646D01*
X7647Y360D01*
X7647D01*
X7648Y360D01*
X7649Y360D01*
X7651Y359D01*
X7652Y359D01*
X7654Y358D01*
X7658Y357D01*
X7658Y357D01*
X7658Y356D01*
X7659Y356D01*
X7660Y355D01*
X7663Y353D01*
X7665Y351D01*
X7665Y351D01*
X7666Y351D01*
X7666Y350D01*
X7667Y349D01*
X7668Y348D01*
X7669Y346D01*
X7670Y343D01*
Y343D01*
X7670Y343D01*
X7670Y342D01*
X7671Y340D01*
X7671Y339D01*
X7671Y338D01*
X7671Y334D01*
Y334D01*
Y333D01*
Y332D01*
X7671Y331D01*
X7671Y329D01*
X7671Y328D01*
X7670Y324D01*
Y324D01*
X7670Y324D01*
X7669Y323D01*
X7669Y322D01*
X7668Y320D01*
X7666Y317D01*
X7666Y317D01*
X7666Y317D01*
X7665Y316D01*
X7664Y316D01*
X7662Y314D01*
X7660Y312D01*
X7660D01*
X7659Y312D01*
X7658Y311D01*
X7657Y311D01*
X7656Y310D01*
X7655Y310D01*
X7652Y308D01*
X7652D01*
X7652Y308D01*
X7653Y307D01*
X7655Y306D01*
X7656Y305D01*
X7656D01*
X7657Y305D01*
X7657Y304D01*
X7659Y303D01*
X7660Y301D01*
Y301D01*
X7660Y301D01*
X7661Y300D01*
X7661Y300D01*
X7662Y298D01*
X7663Y296D01*
Y296D01*
X7664Y295D01*
X7664Y295D01*
X7664Y294D01*
X7665Y292D01*
X7667Y289D01*
X7676Y267D01*
Y266D01*
X7676Y266D01*
X7676Y265D01*
X7677Y264D01*
X7677Y263D01*
Y262D01*
X7677Y262D01*
X7677Y261D01*
Y260D01*
X7677Y260D01*
X7677Y259D01*
X7677Y259D01*
X7676Y259D01*
X7676D01*
X7675Y259D01*
X7675D01*
X7674Y258D01*
X7673D01*
X7672Y258D01*
X7668D01*
X7667Y258D01*
X7667D01*
X7666Y259D01*
X7665D01*
X7665Y259D01*
X7665D01*
X7664Y259D01*
X7663Y260D01*
Y260D01*
X7663Y260D01*
X7663Y261D01*
X7653Y285D01*
Y286D01*
X7653Y286D01*
X7653Y287D01*
X7652Y288D01*
X7651Y290D01*
X7650Y293D01*
Y293D01*
X7650Y293D01*
X7649Y294D01*
X7649Y295D01*
X7647Y297D01*
X7646Y299D01*
X7645Y299D01*
X7645Y299D01*
X7645Y300D01*
X7644Y300D01*
X7642Y301D01*
X7640Y303D01*
X7640D01*
X7639Y303D01*
X7639Y303D01*
X7638Y303D01*
X7637Y304D01*
X7635Y304D01*
X7632Y304D01*
X7623D01*
Y261D01*
Y260D01*
X7623Y260D01*
X7622Y259D01*
X7622Y259D01*
X7621Y259D01*
X7621D01*
X7621Y259D01*
X7620D01*
X7619Y259D01*
X7619D01*
X7618Y258D01*
X7618Y258D01*
X7615D01*
X7614Y258D01*
X7613Y259D01*
X7613D01*
X7612Y259D01*
X7611Y259D01*
X7611D01*
X7610Y259D01*
X7610Y260D01*
Y260D01*
Y260D01*
X7610Y261D01*
Y355D01*
Y355D01*
Y356D01*
X7610Y357D01*
X7610Y358D01*
X7611Y359D01*
X7611Y360D01*
X7612Y360D01*
X7613Y361D01*
X7614Y361D01*
X7638D01*
X7641Y361D01*
D02*
G37*
G36*
X7035Y360D02*
X7035D01*
X7035Y360D01*
X7036Y359D01*
Y359D01*
X7036Y359D01*
X7036Y358D01*
X7037Y357D01*
Y357D01*
X7037Y357D01*
Y356D01*
Y355D01*
Y355D01*
Y354D01*
Y353D01*
X7037Y352D01*
Y352D01*
X7036Y352D01*
X7036Y350D01*
X7036Y350D01*
X7035Y349D01*
X7035D01*
X7034Y349D01*
X7005D01*
Y261D01*
Y260D01*
X7005Y260D01*
X7005Y259D01*
X7004Y259D01*
X7004Y259D01*
X7004D01*
X7003Y259D01*
X7003D01*
X7002Y259D01*
X7002D01*
X7001Y258D01*
X7000Y258D01*
X6998D01*
X6996Y258D01*
X6995Y259D01*
X6995D01*
X6995Y259D01*
X6993Y259D01*
X6993D01*
X6993Y259D01*
X6992Y260D01*
Y260D01*
Y260D01*
X6992Y261D01*
Y349D01*
X6963D01*
X6962Y349D01*
X6962Y350D01*
X6961Y350D01*
Y351D01*
X6961Y351D01*
Y351D01*
X6961Y352D01*
Y352D01*
Y353D01*
X6961Y354D01*
Y355D01*
Y355D01*
Y356D01*
Y357D01*
X6961Y357D01*
Y358D01*
X6961Y358D01*
X6961Y359D01*
Y359D01*
X6961Y360D01*
X6962Y360D01*
X6962D01*
X6962Y361D01*
X6963Y361D01*
X7034D01*
X7035Y360D01*
D02*
G37*
G36*
X6957D02*
X6957D01*
X6957Y360D01*
X6957Y359D01*
Y359D01*
X6958Y359D01*
X6958Y358D01*
X6958Y357D01*
Y357D01*
X6958Y357D01*
Y356D01*
Y355D01*
Y355D01*
Y354D01*
Y353D01*
X6958Y352D01*
Y352D01*
X6958Y352D01*
X6957Y350D01*
X6957Y350D01*
X6957Y349D01*
X6956D01*
X6955Y349D01*
X6927D01*
Y261D01*
Y260D01*
X6926Y260D01*
X6926Y259D01*
X6926Y259D01*
X6925Y259D01*
X6925D01*
X6925Y259D01*
X6924D01*
X6923Y259D01*
X6923D01*
X6922Y258D01*
X6921Y258D01*
X6919D01*
X6918Y258D01*
X6917Y259D01*
X6917D01*
X6916Y259D01*
X6915Y259D01*
X6914D01*
X6914Y259D01*
X6914Y260D01*
Y260D01*
Y260D01*
X6913Y261D01*
Y349D01*
X6884D01*
X6883Y349D01*
X6883Y350D01*
X6883Y350D01*
Y351D01*
X6882Y351D01*
Y351D01*
X6882Y352D01*
Y352D01*
Y353D01*
X6882Y354D01*
Y355D01*
Y355D01*
Y356D01*
Y357D01*
X6882Y357D01*
Y358D01*
X6882Y358D01*
X6883Y359D01*
Y359D01*
X6883Y360D01*
X6883Y360D01*
X6884D01*
X6884Y361D01*
X6885Y361D01*
X6956D01*
X6957Y360D01*
D02*
G37*
G36*
X7377Y362D02*
X7380Y362D01*
X7383Y361D01*
X7387Y361D01*
X7390Y360D01*
X7393Y359D01*
X7393D01*
X7393Y359D01*
X7395Y358D01*
X7396Y357D01*
X7398Y356D01*
X7400Y355D01*
X7403Y353D01*
X7405Y351D01*
X7407Y349D01*
X7407Y348D01*
X7408Y348D01*
X7409Y346D01*
X7410Y344D01*
X7411Y342D01*
X7413Y339D01*
X7414Y336D01*
X7415Y333D01*
Y332D01*
X7415Y332D01*
Y332D01*
X7416Y331D01*
X7416Y330D01*
X7416Y329D01*
X7417Y326D01*
X7417Y323D01*
X7418Y319D01*
X7418Y315D01*
X7418Y311D01*
Y311D01*
Y310D01*
Y310D01*
Y309D01*
Y308D01*
X7418Y306D01*
X7418Y303D01*
X7417Y300D01*
X7417Y296D01*
X7416Y292D01*
X7415Y289D01*
Y288D01*
X7415Y288D01*
X7415Y288D01*
X7415Y287D01*
X7414Y285D01*
X7413Y283D01*
X7412Y280D01*
X7410Y277D01*
X7408Y275D01*
X7406Y272D01*
X7406Y271D01*
X7405Y271D01*
X7404Y269D01*
X7402Y268D01*
X7400Y266D01*
X7398Y264D01*
X7395Y263D01*
X7392Y261D01*
X7392D01*
X7391Y261D01*
X7391Y261D01*
X7390Y260D01*
X7388Y260D01*
X7386Y259D01*
X7383Y258D01*
X7380Y258D01*
X7376Y258D01*
X7371Y257D01*
X7369D01*
X7368Y258D01*
X7367D01*
X7365Y258D01*
X7362Y258D01*
X7358Y259D01*
X7355Y260D01*
X7352Y261D01*
X7351Y261D01*
X7350Y261D01*
X7349Y262D01*
X7347Y263D01*
X7344Y265D01*
X7342Y266D01*
X7340Y268D01*
X7338Y271D01*
X7338Y271D01*
X7337Y272D01*
X7336Y273D01*
X7335Y275D01*
X7333Y278D01*
X7332Y280D01*
X7331Y283D01*
X7330Y287D01*
Y287D01*
X7329Y287D01*
Y288D01*
X7329Y289D01*
X7329Y289D01*
X7329Y291D01*
X7328Y293D01*
X7328Y297D01*
X7327Y300D01*
X7327Y305D01*
X7327Y309D01*
Y309D01*
Y310D01*
Y310D01*
Y311D01*
Y312D01*
X7327Y314D01*
X7327Y316D01*
X7328Y320D01*
X7328Y324D01*
X7329Y327D01*
X7330Y331D01*
Y331D01*
X7330Y331D01*
X7330Y332D01*
X7330Y333D01*
X7331Y334D01*
X7332Y337D01*
X7333Y339D01*
X7335Y342D01*
X7336Y345D01*
X7338Y348D01*
X7339Y348D01*
X7340Y349D01*
X7341Y350D01*
X7342Y352D01*
X7345Y353D01*
X7347Y355D01*
X7350Y357D01*
X7353Y358D01*
X7353D01*
X7353Y359D01*
X7354Y359D01*
X7355Y359D01*
X7356Y360D01*
X7359Y360D01*
X7362Y361D01*
X7365Y362D01*
X7369Y362D01*
X7373Y362D01*
X7375D01*
X7377Y362D01*
D02*
G37*
G36*
X7096D02*
X7099Y362D01*
X7102Y361D01*
X7105Y361D01*
X7109Y360D01*
X7112Y359D01*
X7112D01*
X7112Y359D01*
X7113Y358D01*
X7115Y357D01*
X7117Y356D01*
X7119Y355D01*
X7121Y353D01*
X7124Y351D01*
X7126Y349D01*
X7126Y348D01*
X7127Y348D01*
X7128Y346D01*
X7129Y344D01*
X7130Y342D01*
X7132Y339D01*
X7133Y336D01*
X7134Y333D01*
Y332D01*
X7134Y332D01*
Y332D01*
X7135Y331D01*
X7135Y330D01*
X7135Y329D01*
X7136Y326D01*
X7136Y323D01*
X7137Y319D01*
X7137Y315D01*
X7137Y311D01*
Y311D01*
Y310D01*
Y310D01*
Y309D01*
Y308D01*
X7137Y306D01*
X7137Y303D01*
X7136Y300D01*
X7136Y296D01*
X7135Y292D01*
X7134Y289D01*
Y288D01*
X7134Y288D01*
X7134Y288D01*
X7133Y287D01*
X7133Y285D01*
X7132Y283D01*
X7131Y280D01*
X7129Y277D01*
X7127Y275D01*
X7125Y272D01*
X7125Y271D01*
X7124Y271D01*
X7123Y269D01*
X7121Y268D01*
X7119Y266D01*
X7117Y264D01*
X7114Y263D01*
X7111Y261D01*
X7110D01*
X7110Y261D01*
X7110Y261D01*
X7109Y260D01*
X7107Y260D01*
X7105Y259D01*
X7102Y258D01*
X7098Y258D01*
X7094Y258D01*
X7090Y257D01*
X7088D01*
X7087Y258D01*
X7086D01*
X7084Y258D01*
X7080Y258D01*
X7077Y259D01*
X7074Y260D01*
X7070Y261D01*
X7070Y261D01*
X7069Y261D01*
X7067Y262D01*
X7065Y263D01*
X7063Y265D01*
X7061Y266D01*
X7059Y268D01*
X7057Y271D01*
X7056Y271D01*
X7056Y272D01*
X7055Y273D01*
X7053Y275D01*
X7052Y278D01*
X7051Y280D01*
X7049Y283D01*
X7048Y287D01*
Y287D01*
X7048Y287D01*
Y288D01*
X7048Y289D01*
X7048Y289D01*
X7048Y291D01*
X7047Y293D01*
X7047Y297D01*
X7046Y300D01*
X7046Y305D01*
X7046Y309D01*
Y309D01*
Y310D01*
Y310D01*
Y311D01*
Y312D01*
X7046Y314D01*
X7046Y316D01*
X7047Y320D01*
X7047Y324D01*
X7048Y327D01*
X7049Y331D01*
Y331D01*
X7049Y331D01*
X7049Y332D01*
X7049Y333D01*
X7050Y334D01*
X7051Y337D01*
X7052Y339D01*
X7053Y342D01*
X7055Y345D01*
X7057Y348D01*
X7058Y348D01*
X7058Y349D01*
X7060Y350D01*
X7061Y352D01*
X7063Y353D01*
X7066Y355D01*
X7069Y357D01*
X7072Y358D01*
X7072D01*
X7072Y359D01*
X7073Y359D01*
X7074Y359D01*
X7075Y360D01*
X7078Y360D01*
X7081Y361D01*
X7084Y362D01*
X7088Y362D01*
X7092Y362D01*
X7094D01*
X7096Y362D01*
D02*
G37*
G36*
X6832D02*
X6835Y362D01*
X6838Y361D01*
X6842Y361D01*
X6845Y360D01*
X6848Y359D01*
X6848D01*
X6848Y359D01*
X6850Y358D01*
X6851Y357D01*
X6853Y356D01*
X6855Y355D01*
X6858Y353D01*
X6860Y351D01*
X6862Y349D01*
X6862Y348D01*
X6863Y348D01*
X6864Y346D01*
X6865Y344D01*
X6867Y342D01*
X6868Y339D01*
X6869Y336D01*
X6870Y333D01*
Y332D01*
X6871Y332D01*
Y332D01*
X6871Y331D01*
X6871Y330D01*
X6871Y329D01*
X6872Y326D01*
X6872Y323D01*
X6873Y319D01*
X6873Y315D01*
X6873Y311D01*
Y311D01*
Y310D01*
Y310D01*
Y309D01*
Y308D01*
X6873Y306D01*
X6873Y303D01*
X6872Y300D01*
X6872Y296D01*
X6871Y292D01*
X6870Y289D01*
Y288D01*
X6870Y288D01*
X6870Y288D01*
X6870Y287D01*
X6869Y285D01*
X6868Y283D01*
X6867Y280D01*
X6865Y277D01*
X6863Y275D01*
X6861Y272D01*
X6861Y271D01*
X6860Y271D01*
X6859Y269D01*
X6857Y268D01*
X6855Y266D01*
X6853Y264D01*
X6850Y263D01*
X6847Y261D01*
X6847D01*
X6846Y261D01*
X6846Y261D01*
X6845Y260D01*
X6843Y260D01*
X6841Y259D01*
X6838Y258D01*
X6835Y258D01*
X6831Y258D01*
X6826Y257D01*
X6824D01*
X6824Y258D01*
X6822D01*
X6820Y258D01*
X6817Y258D01*
X6813Y259D01*
X6810Y260D01*
X6807Y261D01*
X6806Y261D01*
X6805Y261D01*
X6804Y262D01*
X6802Y263D01*
X6799Y265D01*
X6797Y266D01*
X6795Y268D01*
X6793Y271D01*
X6793Y271D01*
X6792Y272D01*
X6791Y273D01*
X6790Y275D01*
X6788Y278D01*
X6787Y280D01*
X6786Y283D01*
X6785Y287D01*
Y287D01*
X6784Y287D01*
Y288D01*
X6784Y289D01*
X6784Y289D01*
X6784Y291D01*
X6783Y293D01*
X6783Y297D01*
X6782Y300D01*
X6782Y305D01*
X6782Y309D01*
Y309D01*
Y310D01*
Y310D01*
Y311D01*
Y312D01*
X6782Y314D01*
X6782Y316D01*
X6783Y320D01*
X6783Y324D01*
X6784Y327D01*
X6785Y331D01*
Y331D01*
X6785Y331D01*
X6785Y332D01*
X6785Y333D01*
X6786Y334D01*
X6787Y337D01*
X6788Y339D01*
X6790Y342D01*
X6791Y345D01*
X6793Y348D01*
X6794Y348D01*
X6795Y349D01*
X6796Y350D01*
X6797Y352D01*
X6800Y353D01*
X6802Y355D01*
X6805Y357D01*
X6808Y358D01*
X6808D01*
X6808Y359D01*
X6809Y359D01*
X6810Y359D01*
X6812Y360D01*
X6814Y360D01*
X6817Y361D01*
X6820Y362D01*
X6824Y362D01*
X6828Y362D01*
X6830D01*
X6832Y362D01*
D02*
G37*
G36*
X5110Y3920D02*
Y3775D01*
X5091D01*
Y3858D01*
X5031D01*
Y3775D01*
X5011D01*
Y3855D01*
X5011Y3858D01*
X5012Y3860D01*
X5013Y3863D01*
X5014Y3865D01*
X5015Y3866D01*
X5016Y3868D01*
X5017Y3869D01*
X5017Y3869D01*
X5019Y3871D01*
X5021Y3872D01*
X5024Y3873D01*
X5026Y3874D01*
X5028Y3874D01*
X5030Y3875D01*
X5076D01*
X5091Y3860D01*
Y3940D01*
X5110Y3920D01*
D02*
G37*
G36*
X4971Y3775D02*
X4951D01*
Y3858D01*
X4892D01*
Y3775D01*
X4872D01*
Y3855D01*
X4872Y3858D01*
X4873Y3860D01*
X4873Y3863D01*
X4874Y3865D01*
X4876Y3866D01*
X4877Y3868D01*
X4877Y3869D01*
X4878Y3869D01*
X4880Y3871D01*
X4882Y3872D01*
X4884Y3873D01*
X4887Y3874D01*
X4889Y3874D01*
X4890Y3875D01*
X4937D01*
X4951Y3860D01*
Y3875D01*
X4971D01*
Y3775D01*
D02*
G37*
G36*
X3848D02*
X3829D01*
Y3858D01*
X3775D01*
Y3775D01*
X3755D01*
Y3858D01*
X3701D01*
Y3775D01*
X3681D01*
Y3855D01*
X3681Y3858D01*
X3682Y3860D01*
X3683Y3863D01*
X3684Y3865D01*
X3685Y3866D01*
X3686Y3868D01*
X3686Y3869D01*
X3687Y3869D01*
X3689Y3871D01*
X3691Y3872D01*
X3694Y3873D01*
X3696Y3874D01*
X3698Y3874D01*
X3700Y3875D01*
X3741D01*
X3755Y3860D01*
X3755Y3863D01*
X3756Y3865D01*
X3757Y3867D01*
X3759Y3869D01*
X3760Y3870D01*
X3762Y3871D01*
X3766Y3873D01*
X3769Y3874D01*
X3772Y3874D01*
X3773Y3875D01*
X3814D01*
X3829Y3860D01*
Y3875D01*
X3848D01*
Y3775D01*
D02*
G37*
G36*
X3502D02*
X3482D01*
Y3858D01*
X3423D01*
Y3775D01*
X3403D01*
Y3855D01*
X3403Y3858D01*
X3404Y3860D01*
X3405Y3863D01*
X3406Y3865D01*
X3407Y3866D01*
X3408Y3868D01*
X3408Y3869D01*
X3409Y3869D01*
X3411Y3871D01*
X3413Y3872D01*
X3416Y3873D01*
X3418Y3874D01*
X3420Y3874D01*
X3421Y3875D01*
X3468D01*
X3482Y3860D01*
Y3875D01*
X3502D01*
Y3775D01*
D02*
G37*
G36*
X3159D02*
X3139D01*
Y3858D01*
X3099D01*
Y3835D01*
X3079D01*
Y3855D01*
X3080Y3858D01*
X3080Y3860D01*
X3081Y3863D01*
X3082Y3865D01*
X3083Y3866D01*
X3084Y3868D01*
X3085Y3869D01*
X3085Y3869D01*
X3088Y3871D01*
X3090Y3872D01*
X3092Y3873D01*
X3094Y3874D01*
X3096Y3874D01*
X3098Y3875D01*
X3125D01*
X3139Y3860D01*
Y3875D01*
X3159D01*
Y3775D01*
D02*
G37*
G36*
X2681D02*
X2661D01*
Y3858D01*
X2621D01*
Y3835D01*
X2601D01*
Y3855D01*
X2601Y3858D01*
X2602Y3860D01*
X2603Y3863D01*
X2604Y3865D01*
X2605Y3866D01*
X2606Y3868D01*
X2607Y3869D01*
X2607Y3869D01*
X2609Y3871D01*
X2612Y3872D01*
X2614Y3873D01*
X2616Y3874D01*
X2618Y3874D01*
X2620Y3875D01*
X2646D01*
X2661Y3860D01*
Y3875D01*
X2681D01*
Y3775D01*
D02*
G37*
G36*
X4469Y3874D02*
X4472Y3874D01*
X4474Y3873D01*
X4476Y3872D01*
X4478Y3871D01*
X4479Y3870D01*
X4480Y3869D01*
X4480Y3869D01*
X4482Y3866D01*
X4483Y3864D01*
X4484Y3862D01*
X4485Y3860D01*
X4485Y3858D01*
X4486Y3856D01*
Y3855D01*
Y3855D01*
Y3795D01*
X4485Y3792D01*
X4485Y3789D01*
X4484Y3787D01*
X4483Y3785D01*
X4482Y3783D01*
X4481Y3782D01*
X4480Y3781D01*
X4480Y3781D01*
X4478Y3779D01*
X4476Y3777D01*
X4473Y3776D01*
X4471Y3776D01*
X4469Y3775D01*
X4467Y3775D01*
X4423D01*
X4406Y3789D01*
Y3733D01*
X4472D01*
X4489Y3715D01*
X4406D01*
X4403Y3716D01*
X4401Y3716D01*
X4398Y3717D01*
X4396Y3719D01*
X4395Y3720D01*
X4393Y3720D01*
X4393Y3721D01*
X4392Y3721D01*
X4390Y3724D01*
X4389Y3726D01*
X4388Y3728D01*
X4387Y3730D01*
X4387Y3733D01*
X4386Y3734D01*
Y3735D01*
Y3735D01*
Y3849D01*
X4406D01*
Y3792D01*
X4466D01*
Y3858D01*
X4395D01*
X4378Y3875D01*
X4466D01*
X4469Y3874D01*
D02*
G37*
G36*
X4345Y3795D02*
X4345Y3792D01*
X4344Y3789D01*
X4344Y3787D01*
X4342Y3785D01*
X4341Y3783D01*
X4341Y3782D01*
X4340Y3781D01*
X4340Y3781D01*
X4337Y3779D01*
X4335Y3777D01*
X4332Y3776D01*
X4330Y3776D01*
X4328Y3775D01*
X4327Y3775D01*
X4280D01*
X4266Y3789D01*
Y3733D01*
X4331D01*
X4348Y3715D01*
X4266D01*
X4263Y3716D01*
X4260Y3716D01*
X4258Y3717D01*
X4256Y3719D01*
X4254Y3720D01*
X4253Y3720D01*
X4252Y3721D01*
X4252Y3721D01*
X4250Y3724D01*
X4248Y3726D01*
X4247Y3728D01*
X4247Y3730D01*
X4246Y3733D01*
X4246Y3734D01*
Y3735D01*
Y3735D01*
Y3875D01*
X4266D01*
Y3792D01*
X4326D01*
Y3875D01*
X4345D01*
Y3795D01*
D02*
G37*
G36*
X5475Y3895D02*
X5434D01*
Y3775D01*
X5411D01*
Y3895D01*
X5370D01*
Y3914D01*
X5475D01*
Y3895D01*
D02*
G37*
G36*
X5332Y3874D02*
X5335Y3874D01*
X5337Y3873D01*
X5339Y3872D01*
X5341Y3871D01*
X5342Y3870D01*
X5343Y3869D01*
X5343Y3869D01*
X5345Y3866D01*
X5346Y3864D01*
X5347Y3862D01*
X5348Y3860D01*
X5349Y3858D01*
X5349Y3856D01*
Y3855D01*
Y3855D01*
Y3795D01*
X5349Y3792D01*
X5348Y3789D01*
X5347Y3787D01*
X5346Y3785D01*
X5345Y3783D01*
X5344Y3782D01*
X5343Y3781D01*
X5343Y3781D01*
X5341Y3779D01*
X5339Y3777D01*
X5336Y3776D01*
X5334Y3776D01*
X5332Y3775D01*
X5330Y3775D01*
X5249D01*
Y3792D01*
X5329D01*
Y3858D01*
X5269D01*
Y3832D01*
X5309D01*
X5326Y3815D01*
X5269D01*
X5249Y3835D01*
Y3855D01*
X5250Y3858D01*
X5251Y3860D01*
X5251Y3863D01*
X5252Y3865D01*
X5254Y3866D01*
X5254Y3868D01*
X5255Y3869D01*
X5255Y3869D01*
X5258Y3871D01*
X5260Y3872D01*
X5262Y3873D01*
X5265Y3874D01*
X5267Y3874D01*
X5268Y3875D01*
X5329D01*
X5332Y3874D01*
D02*
G37*
G36*
X5202D02*
X5204Y3874D01*
X5206Y3873D01*
X5208Y3872D01*
X5210Y3871D01*
X5211Y3870D01*
X5212Y3869D01*
X5213Y3869D01*
X5215Y3866D01*
X5216Y3864D01*
X5217Y3862D01*
X5218Y3860D01*
X5218Y3858D01*
X5218Y3856D01*
Y3855D01*
Y3855D01*
Y3795D01*
X5218Y3792D01*
X5217Y3789D01*
X5217Y3787D01*
X5215Y3785D01*
X5214Y3783D01*
X5214Y3782D01*
X5213Y3781D01*
X5213Y3781D01*
X5210Y3779D01*
X5208Y3777D01*
X5205Y3776D01*
X5203Y3776D01*
X5201Y3775D01*
X5200Y3775D01*
X5139D01*
Y3792D01*
X5198D01*
Y3858D01*
X5151D01*
X5133Y3875D01*
X5198D01*
X5202Y3874D01*
D02*
G37*
G36*
X4815D02*
X4818Y3874D01*
X4820Y3873D01*
X4822Y3872D01*
X4824Y3871D01*
X4825Y3870D01*
X4826Y3869D01*
X4826Y3869D01*
X4828Y3866D01*
X4830Y3864D01*
X4831Y3862D01*
X4831Y3860D01*
X4832Y3858D01*
X4832Y3856D01*
Y3855D01*
Y3855D01*
Y3795D01*
X4832Y3792D01*
X4831Y3789D01*
X4830Y3787D01*
X4829Y3785D01*
X4828Y3783D01*
X4827Y3782D01*
X4827Y3781D01*
X4826Y3781D01*
X4824Y3779D01*
X4822Y3777D01*
X4819Y3776D01*
X4817Y3776D01*
X4815Y3775D01*
X4814Y3775D01*
X4753D01*
X4749Y3775D01*
X4747Y3776D01*
X4745Y3777D01*
X4742Y3778D01*
X4741Y3779D01*
X4740Y3780D01*
X4739Y3780D01*
X4739Y3781D01*
X4736Y3783D01*
X4735Y3785D01*
X4734Y3788D01*
X4733Y3790D01*
X4733Y3792D01*
X4733Y3794D01*
Y3795D01*
Y3795D01*
Y3855D01*
X4733Y3858D01*
X4734Y3860D01*
X4734Y3863D01*
X4735Y3865D01*
X4737Y3866D01*
X4738Y3868D01*
X4738Y3869D01*
X4739Y3869D01*
X4741Y3871D01*
X4743Y3872D01*
X4745Y3873D01*
X4748Y3874D01*
X4750Y3874D01*
X4751Y3875D01*
X4812D01*
X4815Y3874D01*
D02*
G37*
G36*
X4690Y3920D02*
Y3775D01*
X4670D01*
Y3940D01*
X4690Y3920D01*
D02*
G37*
G36*
X4611Y3874D02*
X4614Y3874D01*
X4616Y3873D01*
X4618Y3872D01*
X4620Y3871D01*
X4621Y3870D01*
X4622Y3869D01*
X4622Y3869D01*
X4624Y3866D01*
X4625Y3864D01*
X4626Y3862D01*
X4627Y3860D01*
X4628Y3858D01*
X4628Y3856D01*
Y3855D01*
Y3855D01*
Y3795D01*
X4628Y3792D01*
X4627Y3789D01*
X4626Y3787D01*
X4625Y3785D01*
X4624Y3783D01*
X4623Y3782D01*
X4622Y3781D01*
X4622Y3781D01*
X4620Y3779D01*
X4617Y3777D01*
X4615Y3776D01*
X4613Y3776D01*
X4611Y3775D01*
X4609Y3775D01*
X4548D01*
X4545Y3775D01*
X4543Y3776D01*
X4540Y3777D01*
X4538Y3778D01*
X4536Y3779D01*
X4535Y3780D01*
X4534Y3780D01*
X4534Y3781D01*
X4532Y3783D01*
X4531Y3785D01*
X4530Y3788D01*
X4529Y3790D01*
X4529Y3792D01*
X4528Y3794D01*
Y3795D01*
Y3795D01*
Y3855D01*
X4529Y3858D01*
X4529Y3860D01*
X4530Y3863D01*
X4531Y3865D01*
X4532Y3866D01*
X4533Y3868D01*
X4534Y3869D01*
X4534Y3869D01*
X4536Y3871D01*
X4539Y3872D01*
X4541Y3873D01*
X4543Y3874D01*
X4545Y3874D01*
X4547Y3875D01*
X4608D01*
X4611Y3874D01*
D02*
G37*
G36*
X4142Y3895D02*
X4122D01*
X4142Y3875D01*
Y3775D01*
X4043D01*
X4040Y3775D01*
X4037Y3776D01*
X4035Y3777D01*
X4033Y3778D01*
X4031Y3779D01*
X4030Y3780D01*
X4029Y3781D01*
X4029Y3781D01*
X4027Y3783D01*
X4026Y3786D01*
X4025Y3788D01*
X4024Y3790D01*
X4023Y3792D01*
X4023Y3794D01*
Y3795D01*
Y3795D01*
Y3895D01*
X4023Y3897D01*
X4024Y3900D01*
X4025Y3902D01*
X4026Y3904D01*
X4027Y3906D01*
X4028Y3907D01*
X4029Y3908D01*
X4029Y3908D01*
X4031Y3910D01*
X4034Y3912D01*
X4036Y3913D01*
X4038Y3914D01*
X4040Y3914D01*
X4042Y3914D01*
X4142D01*
Y3895D01*
D02*
G37*
G36*
X3962Y3874D02*
X3965Y3874D01*
X3967Y3873D01*
X3969Y3872D01*
X3971Y3871D01*
X3972Y3870D01*
X3973Y3869D01*
X3973Y3869D01*
X3975Y3866D01*
X3977Y3864D01*
X3978Y3862D01*
X3978Y3860D01*
X3979Y3858D01*
X3979Y3856D01*
Y3855D01*
Y3855D01*
Y3795D01*
X3979Y3792D01*
X3978Y3789D01*
X3977Y3787D01*
X3976Y3785D01*
X3975Y3783D01*
X3974Y3782D01*
X3973Y3781D01*
X3973Y3781D01*
X3971Y3779D01*
X3969Y3777D01*
X3966Y3776D01*
X3964Y3776D01*
X3962Y3775D01*
X3960Y3775D01*
X3880D01*
Y3792D01*
X3959D01*
Y3858D01*
X3900D01*
Y3832D01*
X3939D01*
X3956Y3815D01*
X3900D01*
X3880Y3835D01*
Y3855D01*
X3880Y3858D01*
X3881Y3860D01*
X3881Y3863D01*
X3882Y3865D01*
X3884Y3866D01*
X3884Y3868D01*
X3885Y3869D01*
X3885Y3869D01*
X3888Y3871D01*
X3890Y3872D01*
X3892Y3873D01*
X3895Y3874D01*
X3897Y3874D01*
X3898Y3875D01*
X3959D01*
X3962Y3874D01*
D02*
G37*
G36*
X3625D02*
X3627Y3874D01*
X3629Y3873D01*
X3631Y3872D01*
X3633Y3871D01*
X3634Y3870D01*
X3635Y3869D01*
X3635Y3869D01*
X3638Y3866D01*
X3639Y3864D01*
X3640Y3862D01*
X3641Y3860D01*
X3641Y3858D01*
X3641Y3856D01*
Y3855D01*
Y3855D01*
Y3795D01*
X3641Y3792D01*
X3640Y3789D01*
X3640Y3787D01*
X3638Y3785D01*
X3637Y3783D01*
X3636Y3782D01*
X3636Y3781D01*
X3635Y3781D01*
X3633Y3779D01*
X3631Y3777D01*
X3628Y3776D01*
X3626Y3776D01*
X3624Y3775D01*
X3623Y3775D01*
X3562D01*
X3559Y3775D01*
X3556Y3776D01*
X3554Y3777D01*
X3552Y3778D01*
X3550Y3779D01*
X3549Y3780D01*
X3548Y3780D01*
X3548Y3781D01*
X3546Y3783D01*
X3544Y3785D01*
X3543Y3788D01*
X3543Y3790D01*
X3542Y3792D01*
X3542Y3794D01*
Y3795D01*
Y3795D01*
Y3855D01*
X3542Y3858D01*
X3543Y3860D01*
X3544Y3863D01*
X3545Y3865D01*
X3546Y3866D01*
X3547Y3868D01*
X3547Y3869D01*
X3548Y3869D01*
X3550Y3871D01*
X3552Y3872D01*
X3555Y3873D01*
X3557Y3874D01*
X3559Y3874D01*
X3560Y3875D01*
X3621D01*
X3625Y3874D01*
D02*
G37*
G36*
X3351D02*
X3353Y3874D01*
X3356Y3873D01*
X3358Y3872D01*
X3359Y3871D01*
X3361Y3870D01*
X3361Y3869D01*
X3362Y3869D01*
X3364Y3866D01*
X3365Y3864D01*
X3366Y3862D01*
X3367Y3860D01*
X3367Y3858D01*
X3367Y3856D01*
Y3855D01*
Y3855D01*
Y3838D01*
X3367Y3835D01*
X3367Y3832D01*
X3366Y3829D01*
X3365Y3827D01*
X3364Y3826D01*
X3363Y3824D01*
X3362Y3824D01*
X3362Y3823D01*
X3359Y3822D01*
X3357Y3820D01*
X3355Y3819D01*
X3352Y3819D01*
X3351Y3818D01*
X3349Y3818D01*
X3308D01*
Y3792D01*
X3367D01*
Y3775D01*
X3308D01*
X3305Y3775D01*
X3302Y3776D01*
X3300Y3777D01*
X3298Y3778D01*
X3296Y3779D01*
X3295Y3780D01*
X3294Y3780D01*
X3294Y3781D01*
X3292Y3783D01*
X3291Y3785D01*
X3290Y3788D01*
X3289Y3790D01*
X3288Y3792D01*
X3288Y3794D01*
Y3795D01*
Y3795D01*
Y3815D01*
X3288Y3818D01*
X3289Y3821D01*
X3290Y3823D01*
X3291Y3825D01*
X3292Y3827D01*
X3293Y3828D01*
X3294Y3829D01*
X3294Y3829D01*
X3296Y3831D01*
X3298Y3832D01*
X3301Y3833D01*
X3303Y3834D01*
X3305Y3835D01*
X3306Y3835D01*
X3347D01*
Y3858D01*
X3300D01*
X3282Y3875D01*
X3347D01*
X3351Y3874D01*
D02*
G37*
G36*
X3247Y3895D02*
Y3875D01*
X3258D01*
X3275Y3858D01*
X3247D01*
Y3795D01*
X3246Y3792D01*
X3246Y3789D01*
X3245Y3787D01*
X3244Y3785D01*
X3243Y3783D01*
X3242Y3782D01*
X3241Y3781D01*
X3241Y3781D01*
X3239Y3779D01*
X3236Y3777D01*
X3234Y3776D01*
X3232Y3776D01*
X3230Y3775D01*
X3228Y3775D01*
X3187D01*
Y3792D01*
X3227D01*
Y3858D01*
X3187D01*
Y3875D01*
X3227D01*
Y3914D01*
X3247Y3895D01*
D02*
G37*
G36*
X3052Y3858D02*
X2973D01*
Y3792D01*
X3032D01*
Y3818D01*
X2993D01*
X2976Y3835D01*
X3032D01*
X3035Y3835D01*
X3038Y3834D01*
X3041Y3833D01*
X3043Y3832D01*
X3044Y3831D01*
X3046Y3830D01*
X3046Y3829D01*
X3047Y3829D01*
X3048Y3827D01*
X3050Y3824D01*
X3051Y3822D01*
X3052Y3820D01*
X3052Y3818D01*
X3052Y3816D01*
Y3815D01*
Y3815D01*
Y3795D01*
X3052Y3792D01*
X3052Y3789D01*
X3051Y3787D01*
X3050Y3785D01*
X3048Y3783D01*
X3047Y3782D01*
X3047Y3781D01*
X3047Y3781D01*
X3044Y3779D01*
X3042Y3777D01*
X3040Y3776D01*
X3037Y3776D01*
X3035Y3775D01*
X3034Y3775D01*
X2990D01*
X2973Y3789D01*
Y3775D01*
X2953D01*
Y3855D01*
X2953Y3858D01*
X2954Y3860D01*
X2955Y3863D01*
X2956Y3865D01*
X2957Y3866D01*
X2958Y3868D01*
X2959Y3869D01*
X2959Y3869D01*
X2961Y3871D01*
X2964Y3872D01*
X2966Y3873D01*
X2968Y3874D01*
X2970Y3874D01*
X2971Y3875D01*
X3035D01*
X3052Y3858D01*
D02*
G37*
G36*
X2907Y3895D02*
Y3875D01*
X2919D01*
X2936Y3858D01*
X2907D01*
Y3795D01*
X2907Y3792D01*
X2907Y3789D01*
X2906Y3787D01*
X2905Y3785D01*
X2904Y3783D01*
X2903Y3782D01*
X2902Y3781D01*
X2902Y3781D01*
X2900Y3779D01*
X2897Y3777D01*
X2895Y3776D01*
X2892Y3776D01*
X2891Y3775D01*
X2889Y3775D01*
X2848D01*
Y3792D01*
X2888D01*
Y3858D01*
X2848D01*
Y3875D01*
X2888D01*
Y3914D01*
X2907Y3895D01*
D02*
G37*
G36*
X2803Y3874D02*
X2805Y3874D01*
X2808Y3873D01*
X2810Y3872D01*
X2812Y3871D01*
X2813Y3870D01*
X2814Y3869D01*
X2814Y3869D01*
X2816Y3866D01*
X2817Y3864D01*
X2818Y3862D01*
X2819Y3860D01*
X2819Y3858D01*
X2820Y3856D01*
Y3855D01*
Y3855D01*
Y3795D01*
X2819Y3792D01*
X2819Y3789D01*
X2818Y3787D01*
X2817Y3785D01*
X2816Y3783D01*
X2815Y3782D01*
X2814Y3781D01*
X2814Y3781D01*
X2812Y3779D01*
X2809Y3777D01*
X2807Y3776D01*
X2805Y3776D01*
X2803Y3775D01*
X2801Y3775D01*
X2740D01*
X2737Y3775D01*
X2734Y3776D01*
X2732Y3777D01*
X2730Y3778D01*
X2728Y3779D01*
X2727Y3780D01*
X2726Y3780D01*
X2726Y3781D01*
X2724Y3783D01*
X2723Y3785D01*
X2722Y3788D01*
X2721Y3790D01*
X2720Y3792D01*
X2720Y3794D01*
Y3795D01*
Y3795D01*
Y3855D01*
X2720Y3858D01*
X2721Y3860D01*
X2722Y3863D01*
X2723Y3865D01*
X2724Y3866D01*
X2725Y3868D01*
X2726Y3869D01*
X2726Y3869D01*
X2728Y3871D01*
X2731Y3872D01*
X2733Y3873D01*
X2735Y3874D01*
X2737Y3874D01*
X2739Y3875D01*
X2800D01*
X2803Y3874D01*
D02*
G37*
G36*
X4761Y3013D02*
X4764Y3013D01*
X4766Y3012D01*
X4769Y3012D01*
X4771Y3011D01*
X4773Y3011D01*
X4775Y3010D01*
X4777Y3009D01*
X4779Y3008D01*
X4780Y3008D01*
X4782Y3007D01*
X4783Y3006D01*
X4784Y3006D01*
X4784Y3006D01*
X4785Y3005D01*
X4785Y3005D01*
X4787Y3004D01*
X4789Y3002D01*
X4792Y2998D01*
X4794Y2997D01*
X4795Y2995D01*
X4797Y2993D01*
X4798Y2991D01*
X4799Y2990D01*
X4800Y2988D01*
X4800Y2987D01*
X4801Y2985D01*
X4801Y2985D01*
X4802Y2984D01*
X4802Y2983D01*
X4802Y2983D01*
X4804Y2979D01*
X4805Y2974D01*
X4806Y2970D01*
X4806Y2968D01*
X4807Y2966D01*
X4807Y2965D01*
X4807Y2963D01*
X4807Y2962D01*
Y2960D01*
X4807Y2960D01*
Y2959D01*
Y2958D01*
Y2958D01*
X4807Y2955D01*
X4807Y2952D01*
X4806Y2948D01*
X4805Y2946D01*
X4804Y2943D01*
X4804Y2941D01*
X4802Y2938D01*
X4801Y2936D01*
X4800Y2935D01*
X4799Y2933D01*
X4798Y2932D01*
X4797Y2931D01*
X4797Y2930D01*
X4796Y2929D01*
X4795Y2929D01*
X4795Y2929D01*
X4794Y2928D01*
X4792Y2927D01*
X4790Y2926D01*
X4788Y2925D01*
X4786Y2924D01*
X4784Y2923D01*
X4780Y2922D01*
X4778Y2922D01*
X4776Y2922D01*
X4774Y2922D01*
X4773Y2922D01*
X4772Y2922D01*
X4770D01*
X4766Y2922D01*
X4763Y2922D01*
X4759Y2923D01*
X4756Y2923D01*
X4755Y2923D01*
X4753Y2924D01*
X4752Y2924D01*
X4751Y2924D01*
X4751Y2924D01*
X4750Y2925D01*
X4750Y2925D01*
X4750D01*
X4746Y2926D01*
X4743Y2927D01*
X4740Y2928D01*
X4737Y2930D01*
X4736Y2930D01*
X4735Y2931D01*
X4734Y2931D01*
X4734Y2932D01*
X4733Y2932D01*
X4733Y2932D01*
X4733Y2932D01*
X4732D01*
X4724Y2970D01*
X4764D01*
X4767Y2956D01*
X4744D01*
X4747Y2942D01*
X4749Y2942D01*
X4751Y2941D01*
X4753Y2940D01*
X4754Y2940D01*
X4756Y2939D01*
X4757Y2939D01*
X4758Y2939D01*
X4758Y2938D01*
X4758D01*
X4760Y2938D01*
X4762Y2938D01*
X4764Y2937D01*
X4766Y2937D01*
X4768Y2937D01*
X4769Y2937D01*
X4770D01*
X4773Y2937D01*
X4776Y2938D01*
X4779Y2938D01*
X4781Y2939D01*
X4782Y2940D01*
X4784Y2941D01*
X4784Y2942D01*
X4785Y2942D01*
X4786Y2943D01*
X4786Y2944D01*
X4788Y2947D01*
X4788Y2950D01*
X4789Y2952D01*
X4789Y2955D01*
X4790Y2956D01*
Y2957D01*
X4790Y2958D01*
Y2958D01*
Y2958D01*
Y2959D01*
X4790Y2963D01*
X4789Y2967D01*
X4788Y2970D01*
X4788Y2972D01*
X4788Y2973D01*
X4787Y2975D01*
X4787Y2976D01*
X4786Y2977D01*
X4786Y2978D01*
X4786Y2979D01*
X4786Y2979D01*
X4786Y2979D01*
Y2979D01*
X4784Y2983D01*
X4782Y2986D01*
X4780Y2988D01*
X4778Y2990D01*
X4777Y2992D01*
X4775Y2993D01*
X4775Y2993D01*
X4774Y2993D01*
X4774Y2994D01*
X4774D01*
X4771Y2995D01*
X4768Y2996D01*
X4766Y2997D01*
X4763Y2998D01*
X4761Y2998D01*
X4760Y2998D01*
X4759D01*
X4759Y2998D01*
X4758D01*
X4755Y2998D01*
X4753Y2998D01*
X4751Y2997D01*
X4749Y2997D01*
X4747Y2996D01*
X4746Y2995D01*
X4746Y2995D01*
X4746Y2995D01*
X4744Y2993D01*
X4742Y2991D01*
X4741Y2989D01*
X4740Y2988D01*
X4739Y2986D01*
X4739Y2985D01*
X4739Y2984D01*
X4738Y2984D01*
X4738Y2984D01*
Y2983D01*
X4721Y2985D01*
X4722Y2988D01*
X4723Y2990D01*
X4724Y2992D01*
X4724Y2994D01*
X4725Y2996D01*
X4727Y2998D01*
X4728Y2999D01*
X4729Y3001D01*
X4730Y3002D01*
X4731Y3003D01*
X4731Y3004D01*
X4732Y3005D01*
X4733Y3005D01*
X4733Y3006D01*
X4734Y3006D01*
X4734Y3006D01*
X4735Y3007D01*
X4737Y3008D01*
X4739Y3009D01*
X4741Y3010D01*
X4745Y3011D01*
X4749Y3012D01*
X4751Y3012D01*
X4753Y3013D01*
X4754Y3013D01*
X4756Y3013D01*
X4757Y3013D01*
X4758D01*
X4761Y3013D01*
D02*
G37*
G36*
X4902Y2923D02*
X4884D01*
X4876Y2960D01*
X4869D01*
X4866Y2960D01*
X4864Y2959D01*
X4863Y2959D01*
X4862Y2959D01*
X4861Y2958D01*
X4860Y2958D01*
X4860Y2958D01*
X4859Y2958D01*
X4859Y2957D01*
X4858Y2957D01*
X4856Y2955D01*
X4855Y2953D01*
X4854Y2951D01*
X4853Y2949D01*
X4852Y2948D01*
X4852Y2947D01*
X4852Y2947D01*
X4852Y2947D01*
Y2946D01*
X4850Y2944D01*
X4849Y2941D01*
X4848Y2938D01*
X4847Y2936D01*
X4846Y2934D01*
X4846Y2932D01*
X4845Y2930D01*
X4844Y2929D01*
X4844Y2928D01*
X4843Y2926D01*
X4843Y2925D01*
X4843Y2925D01*
X4843Y2924D01*
X4842Y2924D01*
X4842Y2923D01*
Y2923D01*
X4823D01*
X4824Y2927D01*
X4826Y2930D01*
X4827Y2933D01*
X4828Y2936D01*
X4829Y2938D01*
X4830Y2941D01*
X4831Y2943D01*
X4832Y2945D01*
X4833Y2947D01*
X4834Y2948D01*
X4835Y2949D01*
X4835Y2951D01*
X4836Y2951D01*
X4836Y2952D01*
X4836Y2952D01*
X4836Y2952D01*
X4838Y2954D01*
X4839Y2956D01*
X4840Y2957D01*
X4841Y2959D01*
X4842Y2959D01*
X4842Y2960D01*
X4843Y2961D01*
X4843Y2961D01*
X4841Y2961D01*
X4838Y2962D01*
X4836Y2962D01*
X4834Y2963D01*
X4832Y2964D01*
X4830Y2964D01*
X4829Y2965D01*
X4828Y2966D01*
X4826Y2967D01*
X4825Y2967D01*
X4825Y2968D01*
X4824Y2968D01*
X4823Y2969D01*
X4823Y2969D01*
X4823Y2970D01*
X4823Y2970D01*
X4821Y2971D01*
X4820Y2973D01*
X4819Y2974D01*
X4819Y2976D01*
X4817Y2979D01*
X4817Y2982D01*
X4816Y2983D01*
X4816Y2984D01*
X4816Y2985D01*
X4816Y2986D01*
X4816Y2987D01*
Y2988D01*
Y2988D01*
Y2988D01*
X4816Y2991D01*
X4816Y2994D01*
X4817Y2996D01*
X4818Y2998D01*
X4818Y2999D01*
X4819Y3001D01*
X4819Y3001D01*
X4819Y3002D01*
X4821Y3004D01*
X4822Y3005D01*
X4824Y3006D01*
X4825Y3008D01*
X4826Y3008D01*
X4827Y3009D01*
X4828Y3009D01*
X4828Y3009D01*
X4828D01*
X4831Y3010D01*
X4833Y3011D01*
X4836Y3011D01*
X4838Y3011D01*
X4841Y3011D01*
X4842Y3011D01*
X4883D01*
X4902Y2923D01*
D02*
G37*
G36*
X4717D02*
X4673D01*
X4671Y2923D01*
X4669Y2923D01*
X4666Y2924D01*
X4665Y2924D01*
X4663Y2924D01*
X4661Y2925D01*
X4660Y2925D01*
X4658Y2925D01*
X4657Y2925D01*
X4656Y2926D01*
X4655Y2926D01*
X4655Y2926D01*
X4654Y2926D01*
X4654Y2926D01*
X4654D01*
X4651Y2928D01*
X4649Y2929D01*
X4646Y2931D01*
X4645Y2933D01*
X4643Y2934D01*
X4642Y2935D01*
X4642Y2936D01*
X4642Y2936D01*
X4641Y2936D01*
Y2936D01*
X4640Y2939D01*
X4639Y2942D01*
X4638Y2944D01*
X4637Y2947D01*
X4637Y2949D01*
X4637Y2950D01*
Y2950D01*
X4637Y2951D01*
Y2951D01*
Y2952D01*
Y2952D01*
X4637Y2954D01*
X4638Y2956D01*
X4638Y2958D01*
X4639Y2959D01*
X4639Y2961D01*
X4640Y2962D01*
X4641Y2962D01*
X4641Y2962D01*
X4642Y2964D01*
X4644Y2965D01*
X4646Y2967D01*
X4647Y2967D01*
X4649Y2968D01*
X4650Y2969D01*
X4651Y2969D01*
X4651Y2969D01*
X4651Y2969D01*
X4651D01*
X4648Y2970D01*
X4646Y2971D01*
X4644Y2973D01*
X4642Y2974D01*
X4641Y2975D01*
X4640Y2976D01*
X4639Y2977D01*
X4639Y2977D01*
X4637Y2979D01*
X4636Y2981D01*
X4636Y2984D01*
X4635Y2986D01*
X4635Y2987D01*
X4635Y2989D01*
Y2989D01*
Y2990D01*
Y2990D01*
Y2990D01*
X4635Y2992D01*
X4635Y2994D01*
X4635Y2996D01*
X4636Y2997D01*
X4636Y2998D01*
X4637Y2999D01*
X4637Y3000D01*
X4637Y3000D01*
X4638Y3002D01*
X4639Y3003D01*
X4640Y3004D01*
X4641Y3005D01*
X4642Y3006D01*
X4643Y3007D01*
X4644Y3007D01*
X4644Y3007D01*
X4646Y3008D01*
X4647Y3009D01*
X4649Y3010D01*
X4651Y3010D01*
X4653Y3010D01*
X4654Y3011D01*
X4655Y3011D01*
X4655D01*
X4656Y3011D01*
X4657Y3011D01*
X4659Y3011D01*
X4661Y3011D01*
X4663D01*
X4665Y3011D01*
X4699D01*
X4717Y2923D01*
D02*
G37*
G36*
X4591Y3012D02*
X4594Y3011D01*
X4597Y3011D01*
X4599Y3010D01*
X4601Y3010D01*
X4602Y3009D01*
X4602Y3009D01*
X4603Y3009D01*
X4603Y3009D01*
X4603D01*
X4605Y3007D01*
X4607Y3006D01*
X4609Y3004D01*
X4610Y3003D01*
X4611Y3001D01*
X4612Y3000D01*
X4613Y2999D01*
X4613Y2999D01*
Y2999D01*
X4614Y2997D01*
X4615Y2995D01*
X4615Y2993D01*
X4616Y2991D01*
X4616Y2990D01*
X4616Y2989D01*
Y2988D01*
Y2988D01*
Y2988D01*
X4616Y2986D01*
X4616Y2984D01*
X4615Y2983D01*
X4615Y2981D01*
X4614Y2980D01*
X4614Y2979D01*
X4614Y2979D01*
X4614Y2979D01*
X4613Y2977D01*
X4612Y2976D01*
X4610Y2975D01*
X4609Y2974D01*
X4608Y2973D01*
X4608Y2972D01*
X4607Y2972D01*
X4607Y2972D01*
X4610Y2970D01*
X4612Y2969D01*
X4615Y2967D01*
X4617Y2966D01*
X4618Y2964D01*
X4619Y2963D01*
X4620Y2962D01*
X4620Y2962D01*
X4620Y2962D01*
Y2962D01*
X4622Y2959D01*
X4623Y2956D01*
X4624Y2954D01*
X4624Y2951D01*
X4625Y2949D01*
X4625Y2948D01*
Y2947D01*
X4625Y2947D01*
Y2946D01*
Y2946D01*
Y2946D01*
X4625Y2944D01*
X4625Y2942D01*
X4624Y2939D01*
X4623Y2936D01*
X4621Y2933D01*
X4621Y2932D01*
X4620Y2931D01*
X4620Y2930D01*
X4619Y2930D01*
X4619Y2929D01*
X4618Y2929D01*
X4618Y2929D01*
X4618Y2928D01*
X4617Y2927D01*
X4615Y2926D01*
X4614Y2925D01*
X4612Y2925D01*
X4609Y2923D01*
X4606Y2922D01*
X4605Y2922D01*
X4603Y2922D01*
X4602Y2922D01*
X4601Y2922D01*
X4600Y2922D01*
X4599D01*
X4596Y2922D01*
X4594Y2922D01*
X4591Y2923D01*
X4589Y2923D01*
X4586Y2924D01*
X4584Y2925D01*
X4582Y2926D01*
X4581Y2927D01*
X4579Y2929D01*
X4578Y2930D01*
X4577Y2931D01*
X4576Y2932D01*
X4575Y2932D01*
X4574Y2933D01*
X4574Y2933D01*
X4574Y2933D01*
X4573Y2935D01*
X4572Y2936D01*
X4571Y2938D01*
X4570Y2940D01*
X4569Y2943D01*
X4568Y2946D01*
X4568Y2947D01*
X4568Y2948D01*
X4568Y2949D01*
Y2950D01*
X4568Y2951D01*
Y2951D01*
Y2951D01*
Y2952D01*
X4568Y2954D01*
X4568Y2956D01*
X4568Y2958D01*
X4569Y2959D01*
X4569Y2960D01*
X4570Y2961D01*
X4570Y2962D01*
X4570Y2962D01*
X4571Y2964D01*
X4573Y2966D01*
X4574Y2967D01*
X4575Y2968D01*
X4576Y2969D01*
X4577Y2970D01*
X4578Y2970D01*
X4578Y2970D01*
X4578D01*
X4576Y2972D01*
X4573Y2973D01*
X4571Y2974D01*
X4570Y2976D01*
X4569Y2977D01*
X4568Y2978D01*
X4567Y2978D01*
X4567Y2979D01*
X4566Y2980D01*
X4565Y2983D01*
X4564Y2984D01*
X4564Y2986D01*
X4564Y2988D01*
X4563Y2989D01*
Y2990D01*
Y2990D01*
Y2990D01*
Y2990D01*
X4563Y2992D01*
X4564Y2994D01*
X4564Y2997D01*
X4565Y2999D01*
X4567Y3002D01*
X4568Y3003D01*
X4569Y3005D01*
X4569Y3005D01*
X4570Y3005D01*
X4570Y3006D01*
X4570Y3006D01*
X4571Y3007D01*
X4573Y3008D01*
X4574Y3009D01*
X4576Y3009D01*
X4579Y3010D01*
X4582Y3011D01*
X4583Y3011D01*
X4584Y3012D01*
X4586Y3012D01*
X4587D01*
X4587Y3012D01*
X4588D01*
X4591Y3012D01*
D02*
G37*
G36*
X4523D02*
X4526Y3011D01*
X4528Y3011D01*
X4530Y3010D01*
X4532Y3010D01*
X4533Y3009D01*
X4534Y3009D01*
X4534Y3009D01*
X4534Y3009D01*
X4535D01*
X4537Y3007D01*
X4539Y3006D01*
X4540Y3004D01*
X4542Y3003D01*
X4543Y3001D01*
X4544Y3000D01*
X4544Y2999D01*
X4544Y2999D01*
Y2999D01*
X4545Y2997D01*
X4546Y2995D01*
X4547Y2993D01*
X4547Y2991D01*
X4547Y2990D01*
X4547Y2989D01*
Y2988D01*
Y2988D01*
Y2988D01*
X4547Y2986D01*
X4547Y2984D01*
X4547Y2983D01*
X4546Y2981D01*
X4546Y2980D01*
X4545Y2979D01*
X4545Y2979D01*
X4545Y2979D01*
X4544Y2977D01*
X4543Y2976D01*
X4542Y2975D01*
X4541Y2974D01*
X4540Y2973D01*
X4539Y2972D01*
X4538Y2972D01*
X4538Y2972D01*
X4541Y2970D01*
X4544Y2969D01*
X4546Y2967D01*
X4548Y2966D01*
X4550Y2964D01*
X4551Y2963D01*
X4551Y2962D01*
X4551Y2962D01*
X4552Y2962D01*
Y2962D01*
X4553Y2959D01*
X4554Y2956D01*
X4555Y2954D01*
X4556Y2951D01*
X4556Y2949D01*
X4556Y2948D01*
Y2947D01*
X4556Y2947D01*
Y2946D01*
Y2946D01*
Y2946D01*
X4556Y2944D01*
X4556Y2942D01*
X4555Y2939D01*
X4554Y2936D01*
X4553Y2933D01*
X4552Y2932D01*
X4552Y2931D01*
X4551Y2930D01*
X4551Y2930D01*
X4550Y2929D01*
X4550Y2929D01*
X4550Y2929D01*
X4549Y2928D01*
X4548Y2927D01*
X4547Y2926D01*
X4545Y2925D01*
X4543Y2925D01*
X4540Y2923D01*
X4537Y2922D01*
X4536Y2922D01*
X4535Y2922D01*
X4534Y2922D01*
X4533Y2922D01*
X4532Y2922D01*
X4531D01*
X4528Y2922D01*
X4525Y2922D01*
X4522Y2923D01*
X4520Y2923D01*
X4518Y2924D01*
X4516Y2925D01*
X4514Y2926D01*
X4512Y2927D01*
X4510Y2929D01*
X4509Y2930D01*
X4508Y2931D01*
X4507Y2932D01*
X4506Y2932D01*
X4506Y2933D01*
X4505Y2933D01*
X4505Y2933D01*
X4504Y2935D01*
X4503Y2936D01*
X4502Y2938D01*
X4502Y2940D01*
X4500Y2943D01*
X4500Y2946D01*
X4499Y2947D01*
X4499Y2948D01*
X4499Y2949D01*
Y2950D01*
X4499Y2951D01*
Y2951D01*
Y2951D01*
Y2952D01*
X4499Y2954D01*
X4499Y2956D01*
X4500Y2958D01*
X4500Y2959D01*
X4501Y2960D01*
X4501Y2961D01*
X4501Y2962D01*
X4502Y2962D01*
X4503Y2964D01*
X4504Y2966D01*
X4505Y2967D01*
X4507Y2968D01*
X4508Y2969D01*
X4509Y2970D01*
X4510Y2970D01*
X4510Y2970D01*
X4510D01*
X4507Y2972D01*
X4505Y2973D01*
X4503Y2974D01*
X4501Y2976D01*
X4500Y2977D01*
X4499Y2978D01*
X4499Y2978D01*
X4499Y2979D01*
X4497Y2980D01*
X4496Y2983D01*
X4496Y2984D01*
X4495Y2986D01*
X4495Y2988D01*
X4495Y2989D01*
Y2990D01*
Y2990D01*
Y2990D01*
Y2990D01*
X4495Y2992D01*
X4495Y2994D01*
X4496Y2997D01*
X4497Y2999D01*
X4498Y3002D01*
X4499Y3003D01*
X4500Y3005D01*
X4501Y3005D01*
X4501Y3005D01*
X4501Y3006D01*
X4501Y3006D01*
X4503Y3007D01*
X4504Y3008D01*
X4506Y3009D01*
X4507Y3009D01*
X4510Y3010D01*
X4513Y3011D01*
X4514Y3011D01*
X4516Y3012D01*
X4517Y3012D01*
X4518D01*
X4519Y3012D01*
X4520D01*
X4523Y3012D01*
D02*
G37*
G36*
X4454D02*
X4457Y3011D01*
X4459Y3011D01*
X4462Y3010D01*
X4463Y3010D01*
X4465Y3009D01*
X4465Y3009D01*
X4466Y3009D01*
X4466Y3009D01*
X4466D01*
X4468Y3007D01*
X4470Y3006D01*
X4472Y3004D01*
X4473Y3003D01*
X4474Y3001D01*
X4475Y3000D01*
X4475Y2999D01*
X4476Y2999D01*
Y2999D01*
X4477Y2997D01*
X4477Y2995D01*
X4478Y2993D01*
X4478Y2991D01*
X4479Y2990D01*
X4479Y2989D01*
Y2988D01*
Y2988D01*
Y2988D01*
X4479Y2986D01*
X4478Y2984D01*
X4478Y2983D01*
X4478Y2981D01*
X4477Y2980D01*
X4477Y2979D01*
X4477Y2979D01*
X4476Y2979D01*
X4475Y2977D01*
X4474Y2976D01*
X4473Y2975D01*
X4472Y2974D01*
X4471Y2973D01*
X4470Y2972D01*
X4470Y2972D01*
X4470Y2972D01*
X4473Y2970D01*
X4475Y2969D01*
X4478Y2967D01*
X4479Y2966D01*
X4481Y2964D01*
X4482Y2963D01*
X4482Y2962D01*
X4483Y2962D01*
X4483Y2962D01*
Y2962D01*
X4485Y2959D01*
X4486Y2956D01*
X4487Y2954D01*
X4487Y2951D01*
X4488Y2949D01*
X4488Y2948D01*
Y2947D01*
X4488Y2947D01*
Y2946D01*
Y2946D01*
Y2946D01*
X4488Y2944D01*
X4488Y2942D01*
X4487Y2939D01*
X4486Y2936D01*
X4484Y2933D01*
X4484Y2932D01*
X4483Y2931D01*
X4482Y2930D01*
X4482Y2930D01*
X4481Y2929D01*
X4481Y2929D01*
X4481Y2929D01*
X4481Y2928D01*
X4479Y2927D01*
X4478Y2926D01*
X4476Y2925D01*
X4475Y2925D01*
X4472Y2923D01*
X4469Y2922D01*
X4467Y2922D01*
X4466Y2922D01*
X4465Y2922D01*
X4464Y2922D01*
X4463Y2922D01*
X4462D01*
X4459Y2922D01*
X4456Y2922D01*
X4454Y2923D01*
X4451Y2923D01*
X4449Y2924D01*
X4447Y2925D01*
X4445Y2926D01*
X4443Y2927D01*
X4442Y2929D01*
X4441Y2930D01*
X4439Y2931D01*
X4438Y2932D01*
X4438Y2932D01*
X4437Y2933D01*
X4437Y2933D01*
X4437Y2933D01*
X4436Y2935D01*
X4435Y2936D01*
X4434Y2938D01*
X4433Y2940D01*
X4432Y2943D01*
X4431Y2946D01*
X4431Y2947D01*
X4431Y2948D01*
X4430Y2949D01*
Y2950D01*
X4430Y2951D01*
Y2951D01*
Y2951D01*
Y2952D01*
X4430Y2954D01*
X4431Y2956D01*
X4431Y2958D01*
X4432Y2959D01*
X4432Y2960D01*
X4433Y2961D01*
X4433Y2962D01*
X4433Y2962D01*
X4434Y2964D01*
X4435Y2966D01*
X4437Y2967D01*
X4438Y2968D01*
X4439Y2969D01*
X4440Y2970D01*
X4441Y2970D01*
X4441Y2970D01*
X4441D01*
X4438Y2972D01*
X4436Y2973D01*
X4434Y2974D01*
X4433Y2976D01*
X4431Y2977D01*
X4431Y2978D01*
X4430Y2978D01*
X4430Y2979D01*
X4429Y2980D01*
X4428Y2983D01*
X4427Y2984D01*
X4427Y2986D01*
X4426Y2988D01*
X4426Y2989D01*
Y2990D01*
Y2990D01*
Y2990D01*
Y2990D01*
X4426Y2992D01*
X4426Y2994D01*
X4427Y2997D01*
X4428Y2999D01*
X4429Y3002D01*
X4431Y3003D01*
X4432Y3005D01*
X4432Y3005D01*
X4433Y3005D01*
X4433Y3006D01*
X4433Y3006D01*
X4434Y3007D01*
X4435Y3008D01*
X4437Y3009D01*
X4438Y3009D01*
X4442Y3010D01*
X4444Y3011D01*
X4446Y3011D01*
X4447Y3012D01*
X4448Y3012D01*
X4449D01*
X4450Y3012D01*
X4451D01*
X4454Y3012D01*
D02*
G37*
G36*
X1199Y3100D02*
X1183D01*
X1169Y3174D01*
X1166Y3100D01*
X1148D01*
X1116Y3173D01*
X1131Y3100D01*
X1115D01*
X1098Y3188D01*
X1125D01*
X1152Y3128D01*
X1155Y3188D01*
X1181D01*
X1199Y3100D01*
D02*
G37*
G36*
X903Y3142D02*
X903Y3140D01*
X903Y3139D01*
X903Y3137D01*
X904Y3136D01*
X904Y3135D01*
X904Y3134D01*
X904Y3133D01*
X905Y3132D01*
Y3131D01*
X905Y3131D01*
Y3131D01*
X905Y3129D01*
X905Y3128D01*
X905Y3127D01*
Y3126D01*
X905Y3126D01*
Y3125D01*
Y3125D01*
X905Y3123D01*
X905Y3121D01*
X905Y3119D01*
X904Y3117D01*
X903Y3116D01*
X903Y3114D01*
X902Y3112D01*
X901Y3111D01*
X900Y3110D01*
X900Y3109D01*
X899Y3108D01*
X898Y3107D01*
X898Y3107D01*
X897Y3106D01*
X897Y3106D01*
X897Y3106D01*
X895Y3105D01*
X893Y3103D01*
X891Y3102D01*
X890Y3102D01*
X887Y3101D01*
X885Y3100D01*
X881Y3099D01*
X880Y3099D01*
X878Y3099D01*
X876Y3099D01*
X875Y3098D01*
X874Y3098D01*
X872D01*
X868Y3099D01*
X865Y3099D01*
X863Y3099D01*
X861Y3099D01*
X860Y3100D01*
X858Y3100D01*
X856Y3101D01*
X855Y3101D01*
X854Y3102D01*
X853Y3102D01*
X852Y3102D01*
X851Y3103D01*
X851Y3103D01*
X850Y3103D01*
X850D01*
X847Y3105D01*
X845Y3107D01*
X842Y3109D01*
X841Y3111D01*
X839Y3113D01*
X838Y3115D01*
X838Y3115D01*
X837Y3115D01*
X837Y3116D01*
Y3116D01*
X836Y3117D01*
X836Y3119D01*
X834Y3123D01*
X833Y3126D01*
X832Y3130D01*
X831Y3132D01*
X831Y3133D01*
X831Y3135D01*
X830Y3136D01*
X830Y3137D01*
X830Y3138D01*
X830Y3138D01*
Y3138D01*
X819Y3188D01*
X837D01*
X847Y3140D01*
X848Y3138D01*
X848Y3136D01*
X849Y3134D01*
X849Y3132D01*
X850Y3131D01*
X850Y3129D01*
X851Y3128D01*
X851Y3127D01*
X851Y3126D01*
X852Y3125D01*
X852Y3125D01*
X852Y3124D01*
X852Y3123D01*
X853Y3123D01*
X854Y3122D01*
X855Y3120D01*
X856Y3119D01*
X857Y3118D01*
X858Y3117D01*
X859Y3116D01*
X860Y3116D01*
X860Y3116D01*
X862Y3115D01*
X864Y3115D01*
X866Y3114D01*
X867Y3114D01*
X869Y3114D01*
X870Y3114D01*
X872D01*
X874Y3114D01*
X877Y3114D01*
X879Y3115D01*
X881Y3115D01*
X882Y3116D01*
X883Y3116D01*
X883Y3116D01*
X884Y3117D01*
X885Y3118D01*
X886Y3119D01*
X887Y3121D01*
X887Y3122D01*
X887Y3123D01*
X888Y3124D01*
X888Y3124D01*
Y3125D01*
X887Y3126D01*
X887Y3127D01*
X887Y3128D01*
Y3128D01*
Y3128D01*
X885Y3140D01*
X874Y3188D01*
X892D01*
X903Y3142D01*
D02*
G37*
G36*
X1000Y3100D02*
X965D01*
X963Y3100D01*
X962Y3100D01*
X960D01*
X958Y3100D01*
X957Y3101D01*
X956Y3101D01*
X955Y3101D01*
X954Y3101D01*
X953Y3101D01*
X953D01*
X952Y3101D01*
X952Y3101D01*
X952D01*
X948Y3102D01*
X945Y3103D01*
X942Y3105D01*
X940Y3106D01*
X938Y3107D01*
X937Y3107D01*
X937Y3108D01*
X936Y3108D01*
X936Y3108D01*
X936Y3109D01*
X935D01*
X932Y3111D01*
X930Y3114D01*
X927Y3117D01*
X925Y3120D01*
X924Y3122D01*
X923Y3123D01*
X923Y3124D01*
X922Y3125D01*
X922Y3126D01*
X922Y3126D01*
Y3126D01*
X921Y3128D01*
X920Y3131D01*
X918Y3135D01*
X917Y3139D01*
X917Y3141D01*
X917Y3143D01*
X917Y3145D01*
X916Y3147D01*
X916Y3148D01*
Y3149D01*
X916Y3150D01*
Y3151D01*
Y3152D01*
Y3152D01*
Y3154D01*
X916Y3156D01*
X917Y3158D01*
X917Y3160D01*
X917Y3162D01*
X917Y3163D01*
X917Y3163D01*
X918Y3164D01*
X918Y3166D01*
X919Y3168D01*
X919Y3169D01*
X920Y3171D01*
X921Y3172D01*
X921Y3173D01*
X921Y3173D01*
X922Y3174D01*
X923Y3175D01*
X924Y3177D01*
X925Y3178D01*
X925Y3179D01*
X926Y3180D01*
X927Y3180D01*
X928Y3181D01*
X928Y3181D01*
X929Y3182D01*
X930Y3183D01*
X932Y3184D01*
X933Y3184D01*
X934Y3185D01*
X935Y3185D01*
X935Y3185D01*
X936Y3186D01*
X939Y3187D01*
X941Y3187D01*
X942Y3187D01*
X943Y3188D01*
X944Y3188D01*
X945Y3188D01*
X945D01*
X946Y3188D01*
X947D01*
X948Y3188D01*
X951D01*
X953Y3188D01*
X982D01*
X1000Y3100D01*
D02*
G37*
G36*
X822D02*
X759D01*
X756Y3115D01*
X801D01*
X785Y3188D01*
X804D01*
X822Y3100D01*
D02*
G37*
G36*
X747D02*
X678D01*
X675Y3115D01*
X726D01*
X721Y3139D01*
X675D01*
X672Y3154D01*
X718D01*
X714Y3173D01*
X666D01*
X663Y3188D01*
X729D01*
X747Y3100D01*
D02*
G37*
G36*
X1046Y3190D02*
X1050Y3189D01*
X1054Y3188D01*
X1055Y3188D01*
X1057Y3187D01*
X1058Y3187D01*
X1059Y3186D01*
X1061Y3186D01*
X1062Y3186D01*
X1062Y3185D01*
X1063Y3185D01*
X1063Y3185D01*
X1063D01*
X1067Y3183D01*
X1070Y3181D01*
X1072Y3178D01*
X1075Y3176D01*
X1076Y3174D01*
X1077Y3173D01*
X1078Y3173D01*
X1078Y3172D01*
X1079Y3172D01*
X1079Y3171D01*
X1079Y3171D01*
X1081Y3168D01*
X1083Y3165D01*
X1085Y3161D01*
X1086Y3158D01*
X1087Y3157D01*
X1087Y3155D01*
X1087Y3154D01*
X1088Y3153D01*
X1088Y3152D01*
X1088Y3152D01*
X1088Y3151D01*
Y3151D01*
X1089Y3148D01*
X1090Y3145D01*
X1090Y3142D01*
X1090Y3140D01*
X1090Y3137D01*
Y3137D01*
X1091Y3136D01*
Y3135D01*
Y3135D01*
Y3135D01*
Y3135D01*
X1090Y3131D01*
X1090Y3128D01*
X1089Y3126D01*
X1089Y3123D01*
X1088Y3121D01*
X1088Y3120D01*
X1088Y3119D01*
X1087Y3119D01*
X1087Y3118D01*
X1087Y3118D01*
Y3118D01*
X1086Y3115D01*
X1084Y3112D01*
X1082Y3110D01*
X1080Y3108D01*
X1078Y3106D01*
X1077Y3105D01*
X1076Y3105D01*
X1076Y3104D01*
X1076Y3104D01*
X1075Y3104D01*
X1074Y3103D01*
X1072Y3102D01*
X1069Y3101D01*
X1065Y3100D01*
X1062Y3099D01*
X1060Y3099D01*
X1059Y3099D01*
X1058Y3098D01*
X1057D01*
X1056Y3098D01*
X1055D01*
X1052Y3098D01*
X1050Y3099D01*
X1045Y3099D01*
X1043Y3100D01*
X1040Y3101D01*
X1038Y3101D01*
X1037Y3102D01*
X1035Y3103D01*
X1034Y3103D01*
X1032Y3104D01*
X1031Y3104D01*
X1030Y3105D01*
X1030Y3105D01*
X1029Y3105D01*
X1029Y3105D01*
X1027Y3107D01*
X1025Y3108D01*
X1022Y3111D01*
X1020Y3113D01*
X1019Y3115D01*
X1017Y3116D01*
X1016Y3118D01*
X1015Y3120D01*
X1014Y3121D01*
X1013Y3122D01*
X1013Y3123D01*
X1012Y3124D01*
X1012Y3125D01*
X1012Y3125D01*
X1011Y3125D01*
X1010Y3128D01*
X1009Y3130D01*
X1008Y3133D01*
X1008Y3135D01*
X1006Y3140D01*
X1006Y3142D01*
X1006Y3144D01*
X1005Y3146D01*
X1005Y3147D01*
X1005Y3149D01*
X1005Y3150D01*
X1005Y3151D01*
Y3152D01*
Y3152D01*
Y3153D01*
X1005Y3156D01*
X1005Y3159D01*
X1006Y3161D01*
X1006Y3164D01*
X1007Y3166D01*
X1008Y3169D01*
X1009Y3171D01*
X1010Y3172D01*
X1011Y3174D01*
X1012Y3176D01*
X1013Y3177D01*
X1013Y3178D01*
X1014Y3179D01*
X1014Y3179D01*
X1015Y3180D01*
X1015Y3180D01*
X1017Y3181D01*
X1019Y3183D01*
X1021Y3184D01*
X1023Y3186D01*
X1025Y3187D01*
X1028Y3187D01*
X1030Y3188D01*
X1032Y3189D01*
X1034Y3189D01*
X1036Y3189D01*
X1037Y3190D01*
X1039Y3190D01*
X1040Y3190D01*
X1041D01*
X1046Y3190D01*
D02*
G37*
G36*
X1088Y3287D02*
X1127Y3242D01*
X1103D01*
X1091Y3256D01*
X1089Y3258D01*
X1088Y3259D01*
X1086Y3261D01*
X1085Y3262D01*
X1084Y3264D01*
X1083Y3265D01*
X1082Y3266D01*
X1082Y3267D01*
X1080Y3268D01*
X1080Y3269D01*
X1079Y3270D01*
X1079Y3270D01*
X1079Y3269D01*
X1078Y3268D01*
X1077Y3266D01*
X1076Y3263D01*
X1075Y3261D01*
X1074Y3259D01*
X1073Y3258D01*
X1073Y3257D01*
X1073Y3256D01*
X1072Y3256D01*
X1072Y3255D01*
Y3255D01*
X1065Y3242D01*
X1045D01*
X1067Y3284D01*
X1026Y3331D01*
X1049D01*
X1063Y3315D01*
X1065Y3313D01*
X1067Y3311D01*
X1069Y3308D01*
X1071Y3306D01*
X1073Y3304D01*
X1074Y3303D01*
X1074Y3303D01*
X1075Y3302D01*
X1075Y3302D01*
X1075Y3301D01*
X1075Y3301D01*
X1076Y3302D01*
X1076Y3302D01*
X1076Y3303D01*
X1076Y3303D01*
X1077Y3305D01*
X1078Y3306D01*
X1079Y3308D01*
X1079Y3309D01*
X1080Y3310D01*
X1080Y3311D01*
X1081Y3312D01*
X1081Y3313D01*
X1081Y3313D01*
X1082Y3314D01*
X1082Y3314D01*
X1082Y3315D01*
X1091Y3331D01*
X1110D01*
X1088Y3287D01*
D02*
G37*
G36*
X864Y3242D02*
X847D01*
X835Y3302D01*
X811Y3242D01*
X794D01*
X776Y3331D01*
X792D01*
X805Y3272D01*
X829Y3331D01*
X845D01*
X864Y3242D01*
D02*
G37*
G36*
X562D02*
X546D01*
X533Y3302D01*
X509Y3242D01*
X493D01*
X474Y3331D01*
X491D01*
X503Y3272D01*
X527Y3331D01*
X544D01*
X562Y3242D01*
D02*
G37*
G36*
X1200D02*
X1131D01*
X1128Y3257D01*
X1179D01*
X1174Y3281D01*
X1128D01*
X1125Y3296D01*
X1171D01*
X1166Y3316D01*
X1119D01*
X1116Y3331D01*
X1182D01*
X1200Y3242D01*
D02*
G37*
G36*
X1036D02*
X1018D01*
X1011Y3276D01*
X993D01*
X991Y3276D01*
X989D01*
X988Y3276D01*
X986D01*
X985Y3277D01*
X984D01*
X983Y3277D01*
X983D01*
X980Y3277D01*
X978Y3278D01*
X976Y3278D01*
X974Y3279D01*
X973Y3279D01*
X972Y3279D01*
X971Y3279D01*
X971Y3280D01*
X969Y3280D01*
X968Y3281D01*
X967Y3282D01*
X966Y3283D01*
X965Y3284D01*
X964Y3285D01*
X963Y3285D01*
X963Y3285D01*
X962Y3287D01*
X960Y3288D01*
X959Y3290D01*
X959Y3292D01*
X958Y3293D01*
X957Y3294D01*
X957Y3295D01*
X957Y3295D01*
Y3295D01*
X956Y3298D01*
X955Y3300D01*
X955Y3302D01*
X954Y3304D01*
X954Y3306D01*
X954Y3307D01*
Y3308D01*
Y3308D01*
Y3308D01*
Y3309D01*
X954Y3311D01*
X955Y3313D01*
X955Y3316D01*
X956Y3317D01*
X956Y3319D01*
X957Y3320D01*
X957Y3321D01*
X957Y3321D01*
X959Y3323D01*
X960Y3324D01*
X962Y3326D01*
X963Y3327D01*
X964Y3327D01*
X965Y3328D01*
X966Y3328D01*
X966Y3328D01*
X966D01*
X968Y3329D01*
X971Y3330D01*
X973Y3330D01*
X976Y3330D01*
X978Y3331D01*
X979D01*
X980Y3331D01*
X1017D01*
X1036Y3242D01*
D02*
G37*
G36*
X960D02*
X941D01*
X930Y3262D01*
X896D01*
X893Y3242D01*
X875D01*
X890Y3331D01*
X910D01*
X960Y3242D01*
D02*
G37*
G36*
X694D02*
X676D01*
X657Y3331D01*
X675D01*
X694Y3242D01*
D02*
G37*
G36*
X733Y3332D02*
X736Y3332D01*
X738Y3332D01*
X741Y3331D01*
X743Y3331D01*
X745Y3330D01*
X746Y3329D01*
X748Y3329D01*
X749Y3328D01*
X751Y3327D01*
X752Y3327D01*
X752Y3326D01*
X753Y3326D01*
X753Y3325D01*
X754Y3325D01*
X754Y3325D01*
X755Y3324D01*
X757Y3322D01*
X758Y3321D01*
X758Y3319D01*
X759Y3317D01*
X760Y3316D01*
X761Y3313D01*
X761Y3312D01*
X762Y3310D01*
X762Y3309D01*
X762Y3308D01*
X762Y3307D01*
Y3307D01*
Y3306D01*
Y3306D01*
X762Y3304D01*
X762Y3302D01*
X761Y3300D01*
X761Y3298D01*
X760Y3297D01*
X760Y3296D01*
X759Y3295D01*
X759Y3295D01*
X758Y3293D01*
X757Y3292D01*
X756Y3291D01*
X755Y3290D01*
X753Y3289D01*
X753Y3288D01*
X752Y3287D01*
X752Y3287D01*
X751Y3287D01*
X750Y3286D01*
X748Y3285D01*
X745Y3284D01*
X743Y3283D01*
X740Y3281D01*
X739Y3281D01*
X738Y3281D01*
X738Y3280D01*
X737Y3280D01*
X737Y3280D01*
X737D01*
X735Y3279D01*
X733Y3278D01*
X732Y3278D01*
X730Y3277D01*
X729Y3277D01*
X728Y3276D01*
X727Y3275D01*
X727Y3275D01*
X725Y3274D01*
X725Y3274D01*
X724Y3274D01*
X724Y3273D01*
X723Y3272D01*
X722Y3271D01*
X722Y3270D01*
X721Y3269D01*
X721Y3268D01*
X721Y3267D01*
Y3267D01*
Y3267D01*
X721Y3265D01*
X721Y3264D01*
X722Y3262D01*
X723Y3261D01*
X724Y3260D01*
X724Y3260D01*
X725Y3259D01*
X725Y3259D01*
X727Y3258D01*
X729Y3257D01*
X731Y3257D01*
X733Y3256D01*
X735Y3256D01*
X736D01*
X736Y3256D01*
X740D01*
X742Y3256D01*
X743Y3256D01*
X745Y3257D01*
X746Y3257D01*
X747Y3257D01*
X748Y3258D01*
X749Y3258D01*
X751Y3259D01*
X752Y3260D01*
X752Y3260D01*
X752Y3261D01*
X753Y3262D01*
X754Y3264D01*
X755Y3265D01*
X755Y3267D01*
X755Y3269D01*
X755Y3271D01*
X755Y3271D01*
Y3271D01*
Y3272D01*
Y3272D01*
X773Y3271D01*
X772Y3268D01*
X772Y3265D01*
X772Y3262D01*
X771Y3260D01*
X770Y3258D01*
X770Y3257D01*
X770Y3256D01*
X770Y3256D01*
X770Y3255D01*
X769Y3255D01*
Y3255D01*
X768Y3253D01*
X766Y3251D01*
X764Y3249D01*
X762Y3247D01*
X761Y3246D01*
X759Y3245D01*
X758Y3245D01*
X758Y3245D01*
X758Y3245D01*
X758D01*
X755Y3243D01*
X751Y3242D01*
X748Y3242D01*
X745Y3241D01*
X743Y3241D01*
X742D01*
X741Y3241D01*
X740Y3241D01*
X738D01*
X735Y3241D01*
X732Y3241D01*
X729Y3242D01*
X727Y3242D01*
X725Y3243D01*
X723Y3243D01*
X721Y3244D01*
X719Y3245D01*
X717Y3246D01*
X716Y3246D01*
X715Y3247D01*
X714Y3248D01*
X713Y3248D01*
X713Y3249D01*
X712Y3249D01*
X712Y3249D01*
X711Y3251D01*
X709Y3252D01*
X708Y3254D01*
X707Y3256D01*
X706Y3257D01*
X705Y3259D01*
X705Y3261D01*
X704Y3262D01*
X704Y3264D01*
X703Y3265D01*
X703Y3266D01*
X703Y3267D01*
X703Y3268D01*
Y3269D01*
Y3269D01*
Y3269D01*
X703Y3271D01*
X703Y3272D01*
X704Y3275D01*
X705Y3278D01*
X706Y3280D01*
X707Y3282D01*
X708Y3284D01*
X708Y3284D01*
X709Y3284D01*
X709Y3284D01*
X709Y3285D01*
X710Y3285D01*
X711Y3286D01*
X712Y3287D01*
X714Y3288D01*
X717Y3290D01*
X720Y3291D01*
X724Y3293D01*
X725Y3294D01*
X726Y3294D01*
X727Y3295D01*
X728Y3295D01*
X729Y3295D01*
X729Y3295D01*
X730Y3296D01*
X732Y3297D01*
X734Y3298D01*
X735Y3298D01*
X736Y3299D01*
X737Y3299D01*
X738Y3300D01*
X739Y3300D01*
X740Y3301D01*
X741Y3302D01*
X742Y3302D01*
X742Y3302D01*
X743Y3303D01*
X743Y3304D01*
X744Y3305D01*
X744Y3306D01*
X744Y3307D01*
X745Y3308D01*
Y3308D01*
Y3309D01*
X744Y3310D01*
X744Y3311D01*
X744Y3312D01*
X743Y3313D01*
X742Y3314D01*
X742Y3315D01*
X742Y3315D01*
X741Y3315D01*
X740Y3316D01*
X738Y3317D01*
X737Y3317D01*
X735Y3318D01*
X733Y3318D01*
X732Y3318D01*
X731D01*
X728Y3318D01*
X726Y3317D01*
X724Y3317D01*
X722Y3316D01*
X721Y3316D01*
X720Y3315D01*
X719Y3315D01*
X719Y3315D01*
X718Y3313D01*
X717Y3312D01*
X716Y3310D01*
X715Y3308D01*
X715Y3307D01*
X714Y3306D01*
X714Y3305D01*
Y3305D01*
Y3305D01*
X697Y3306D01*
X697Y3308D01*
X698Y3310D01*
X698Y3312D01*
X699Y3314D01*
X700Y3315D01*
X700Y3317D01*
X701Y3318D01*
X702Y3320D01*
X703Y3321D01*
X704Y3322D01*
X704Y3323D01*
X705Y3324D01*
X706Y3324D01*
X706Y3325D01*
X706Y3325D01*
X706Y3325D01*
X708Y3326D01*
X710Y3327D01*
X712Y3328D01*
X714Y3329D01*
X716Y3330D01*
X718Y3331D01*
X722Y3331D01*
X724Y3332D01*
X725Y3332D01*
X727Y3332D01*
X728Y3332D01*
X729Y3332D01*
X731D01*
X733Y3332D01*
D02*
G37*
G36*
X608Y3332D02*
X612Y3332D01*
X616Y3331D01*
X618Y3330D01*
X619Y3330D01*
X621Y3329D01*
X622Y3329D01*
X623Y3328D01*
X624Y3328D01*
X625Y3328D01*
X625Y3328D01*
X625Y3327D01*
X626D01*
X629Y3325D01*
X632Y3323D01*
X635Y3321D01*
X637Y3319D01*
X639Y3317D01*
X640Y3316D01*
X640Y3315D01*
X641Y3315D01*
X641Y3314D01*
X641Y3314D01*
X641Y3314D01*
X644Y3310D01*
X646Y3307D01*
X647Y3304D01*
X648Y3300D01*
X649Y3299D01*
X649Y3298D01*
X650Y3297D01*
X650Y3296D01*
X650Y3295D01*
X651Y3294D01*
X651Y3294D01*
Y3294D01*
X651Y3290D01*
X652Y3287D01*
X653Y3285D01*
X653Y3282D01*
X653Y3280D01*
Y3279D01*
X653Y3278D01*
Y3278D01*
Y3277D01*
Y3277D01*
Y3277D01*
X653Y3274D01*
X653Y3271D01*
X652Y3268D01*
X651Y3266D01*
X651Y3263D01*
X650Y3262D01*
X650Y3262D01*
X650Y3261D01*
X650Y3261D01*
X650Y3260D01*
Y3260D01*
X648Y3257D01*
X646Y3255D01*
X644Y3252D01*
X642Y3250D01*
X641Y3249D01*
X639Y3247D01*
X639Y3247D01*
X638Y3247D01*
X638Y3247D01*
X638Y3246D01*
X636Y3245D01*
X635Y3245D01*
X631Y3243D01*
X628Y3242D01*
X624Y3242D01*
X623Y3241D01*
X621Y3241D01*
X620Y3241D01*
X619D01*
X618Y3241D01*
X617D01*
X614Y3241D01*
X612Y3241D01*
X607Y3242D01*
X605Y3242D01*
X603Y3243D01*
X601Y3244D01*
X599Y3244D01*
X597Y3245D01*
X596Y3246D01*
X595Y3246D01*
X594Y3247D01*
X593Y3247D01*
X592Y3248D01*
X592Y3248D01*
X592Y3248D01*
X590Y3249D01*
X588Y3251D01*
X584Y3254D01*
X583Y3256D01*
X581Y3257D01*
X580Y3259D01*
X579Y3261D01*
X577Y3262D01*
X577Y3264D01*
X576Y3265D01*
X575Y3266D01*
X574Y3267D01*
X574Y3267D01*
X574Y3268D01*
X574Y3268D01*
X573Y3270D01*
X572Y3273D01*
X571Y3275D01*
X570Y3278D01*
X569Y3282D01*
X568Y3284D01*
X568Y3286D01*
X568Y3288D01*
X568Y3290D01*
X567Y3291D01*
X567Y3293D01*
X567Y3294D01*
Y3294D01*
Y3295D01*
Y3295D01*
X567Y3298D01*
X568Y3301D01*
X568Y3304D01*
X569Y3306D01*
X570Y3309D01*
X570Y3311D01*
X571Y3313D01*
X572Y3315D01*
X573Y3317D01*
X574Y3318D01*
X575Y3319D01*
X576Y3320D01*
X576Y3321D01*
X577Y3322D01*
X577Y3322D01*
X577Y3322D01*
X579Y3324D01*
X581Y3325D01*
X583Y3327D01*
X586Y3328D01*
X588Y3329D01*
X590Y3330D01*
X592Y3331D01*
X594Y3331D01*
X596Y3331D01*
X598Y3332D01*
X600Y3332D01*
X601Y3332D01*
X602Y3332D01*
X604D01*
X608Y3332D01*
D02*
G37*
G36*
X3531Y3022D02*
X3513D01*
X3505Y3061D01*
X3471D01*
X3479Y3022D01*
X3461D01*
X3442Y3110D01*
X3460D01*
X3468Y3076D01*
X3502D01*
X3495Y3110D01*
X3513D01*
X3531Y3022D01*
D02*
G37*
G36*
X4124Y3111D02*
X4127Y3111D01*
X4131Y3111D01*
X4135Y3109D01*
X4137Y3109D01*
X4139Y3108D01*
X4140Y3108D01*
X4141Y3107D01*
X4143Y3106D01*
X4144Y3106D01*
X4144Y3105D01*
X4145Y3105D01*
X4145Y3105D01*
X4146Y3105D01*
X4147Y3104D01*
X4149Y3102D01*
X4153Y3099D01*
X4156Y3096D01*
X4158Y3093D01*
X4159Y3091D01*
X4160Y3090D01*
X4161Y3089D01*
X4161Y3088D01*
X4162Y3087D01*
X4162Y3086D01*
X4162Y3086D01*
X4163Y3086D01*
X4164Y3083D01*
X4164Y3081D01*
X4166Y3076D01*
X4167Y3072D01*
X4167Y3069D01*
X4168Y3067D01*
X4168Y3065D01*
X4168Y3064D01*
X4168Y3062D01*
Y3061D01*
X4169Y3060D01*
Y3059D01*
Y3058D01*
Y3058D01*
X4168Y3055D01*
X4168Y3052D01*
X4168Y3049D01*
X4167Y3046D01*
X4166Y3043D01*
X4166Y3041D01*
X4165Y3039D01*
X4164Y3037D01*
X4163Y3035D01*
X4162Y3034D01*
X4161Y3032D01*
X4161Y3031D01*
X4160Y3031D01*
X4160Y3030D01*
X4160Y3030D01*
X4159Y3030D01*
X4158Y3028D01*
X4156Y3026D01*
X4154Y3025D01*
X4152Y3024D01*
X4150Y3023D01*
X4147Y3022D01*
X4145Y3022D01*
X4143Y3021D01*
X4141Y3021D01*
X4140Y3021D01*
X4138Y3020D01*
X4137Y3020D01*
X4136D01*
X4135Y3020D01*
X4134D01*
X4131Y3020D01*
X4129Y3020D01*
X4126Y3021D01*
X4124Y3021D01*
X4122Y3022D01*
X4120Y3022D01*
X4118Y3023D01*
X4116Y3024D01*
X4115Y3025D01*
X4113Y3025D01*
X4112Y3026D01*
X4111Y3027D01*
X4110Y3027D01*
X4110Y3027D01*
X4109Y3028D01*
X4109Y3028D01*
X4107Y3029D01*
X4105Y3031D01*
X4102Y3035D01*
X4099Y3038D01*
X4097Y3042D01*
X4096Y3044D01*
X4095Y3045D01*
X4095Y3047D01*
X4094Y3048D01*
X4093Y3049D01*
X4093Y3050D01*
X4093Y3050D01*
Y3050D01*
X4111Y3053D01*
X4113Y3050D01*
X4114Y3047D01*
X4115Y3045D01*
X4117Y3043D01*
X4118Y3042D01*
X4119Y3041D01*
X4120Y3040D01*
X4120Y3040D01*
X4120D01*
X4122Y3038D01*
X4125Y3037D01*
X4127Y3036D01*
X4129Y3036D01*
X4130Y3035D01*
X4132Y3035D01*
X4132Y3035D01*
X4133D01*
X4134Y3035D01*
X4136Y3035D01*
X4138Y3036D01*
X4140Y3037D01*
X4142Y3038D01*
X4144Y3039D01*
X4145Y3040D01*
X4145Y3041D01*
X4146Y3041D01*
X4147Y3043D01*
X4148Y3046D01*
X4149Y3049D01*
X4150Y3051D01*
X4150Y3054D01*
X4150Y3055D01*
Y3056D01*
X4151Y3056D01*
Y3057D01*
Y3057D01*
Y3057D01*
X4150Y3061D01*
X4150Y3064D01*
X4149Y3068D01*
X4149Y3071D01*
X4148Y3072D01*
X4148Y3073D01*
X4148Y3074D01*
X4147Y3075D01*
X4147Y3076D01*
X4147Y3076D01*
X4147Y3077D01*
Y3077D01*
X4145Y3080D01*
X4143Y3083D01*
X4142Y3086D01*
X4140Y3088D01*
X4139Y3089D01*
X4137Y3090D01*
X4137Y3091D01*
X4136Y3091D01*
X4136D01*
X4134Y3093D01*
X4131Y3094D01*
X4129Y3095D01*
X4127Y3095D01*
X4125Y3096D01*
X4123Y3096D01*
X4123Y3096D01*
X4122D01*
X4120Y3096D01*
X4118Y3095D01*
X4116Y3095D01*
X4114Y3094D01*
X4113Y3093D01*
X4112Y3093D01*
X4111Y3092D01*
X4111Y3092D01*
X4110Y3091D01*
X4109Y3089D01*
X4108Y3087D01*
X4107Y3085D01*
X4106Y3084D01*
X4106Y3082D01*
X4106Y3082D01*
Y3082D01*
X4106Y3081D01*
Y3081D01*
X4088Y3083D01*
X4089Y3085D01*
X4089Y3088D01*
X4090Y3090D01*
X4091Y3092D01*
X4091Y3094D01*
X4092Y3095D01*
X4093Y3097D01*
X4094Y3098D01*
X4095Y3100D01*
X4096Y3101D01*
X4097Y3102D01*
X4097Y3102D01*
X4098Y3103D01*
X4098Y3103D01*
X4099Y3104D01*
X4099Y3104D01*
X4100Y3105D01*
X4102Y3106D01*
X4104Y3107D01*
X4106Y3108D01*
X4108Y3109D01*
X4110Y3110D01*
X4114Y3111D01*
X4115Y3111D01*
X4117Y3111D01*
X4118Y3111D01*
X4120Y3111D01*
X4121Y3112D01*
X4122D01*
X4124Y3111D01*
D02*
G37*
G36*
X3700Y3063D02*
X3701Y3062D01*
X3701Y3060D01*
X3701Y3059D01*
X3702Y3058D01*
X3702Y3057D01*
X3702Y3056D01*
X3702Y3054D01*
X3702Y3054D01*
Y3053D01*
X3703Y3053D01*
Y3052D01*
X3703Y3050D01*
X3703Y3049D01*
X3703Y3049D01*
Y3048D01*
X3703Y3047D01*
Y3047D01*
Y3047D01*
X3703Y3045D01*
X3703Y3043D01*
X3702Y3041D01*
X3702Y3039D01*
X3701Y3037D01*
X3701Y3036D01*
X3700Y3034D01*
X3699Y3033D01*
X3698Y3032D01*
X3698Y3031D01*
X3697Y3030D01*
X3696Y3029D01*
X3696Y3028D01*
X3695Y3028D01*
X3695Y3028D01*
X3695Y3028D01*
X3693Y3026D01*
X3691Y3025D01*
X3689Y3024D01*
X3687Y3023D01*
X3685Y3022D01*
X3683Y3022D01*
X3679Y3021D01*
X3678Y3021D01*
X3676Y3020D01*
X3674Y3020D01*
X3673Y3020D01*
X3672Y3020D01*
X3670D01*
X3666Y3020D01*
X3663Y3021D01*
X3661Y3021D01*
X3659Y3021D01*
X3657Y3022D01*
X3656Y3022D01*
X3654Y3022D01*
X3653Y3023D01*
X3652Y3023D01*
X3651Y3024D01*
X3650Y3024D01*
X3649Y3024D01*
X3649Y3025D01*
X3648Y3025D01*
X3648D01*
X3645Y3027D01*
X3643Y3029D01*
X3640Y3031D01*
X3638Y3033D01*
X3637Y3035D01*
X3636Y3036D01*
X3636Y3037D01*
X3635Y3037D01*
X3635Y3037D01*
Y3037D01*
X3634Y3039D01*
X3634Y3041D01*
X3632Y3044D01*
X3631Y3048D01*
X3630Y3052D01*
X3629Y3053D01*
X3629Y3055D01*
X3629Y3056D01*
X3628Y3057D01*
X3628Y3059D01*
X3628Y3059D01*
X3628Y3060D01*
Y3060D01*
X3617Y3110D01*
X3635D01*
X3645Y3062D01*
X3646Y3059D01*
X3646Y3057D01*
X3647Y3056D01*
X3647Y3054D01*
X3648Y3053D01*
X3648Y3051D01*
X3649Y3050D01*
X3649Y3049D01*
X3649Y3048D01*
X3650Y3047D01*
X3650Y3046D01*
X3650Y3046D01*
X3650Y3045D01*
X3650Y3045D01*
X3651Y3043D01*
X3653Y3042D01*
X3654Y3040D01*
X3655Y3039D01*
X3656Y3039D01*
X3657Y3038D01*
X3657Y3038D01*
X3658Y3038D01*
X3660Y3037D01*
X3662Y3036D01*
X3663Y3036D01*
X3665Y3035D01*
X3667Y3035D01*
X3668Y3035D01*
X3669D01*
X3672Y3035D01*
X3675Y3036D01*
X3677Y3036D01*
X3679Y3037D01*
X3680Y3037D01*
X3681Y3038D01*
X3681Y3038D01*
X3682Y3038D01*
X3683Y3040D01*
X3684Y3041D01*
X3685Y3042D01*
X3685Y3043D01*
X3685Y3045D01*
X3686Y3045D01*
X3686Y3046D01*
Y3046D01*
X3685Y3048D01*
X3685Y3049D01*
X3685Y3050D01*
Y3050D01*
Y3050D01*
X3682Y3062D01*
X3672Y3110D01*
X3690D01*
X3700Y3063D01*
D02*
G37*
G36*
X3570Y3111D02*
X3572Y3111D01*
X3576Y3111D01*
X3580Y3109D01*
X3582Y3109D01*
X3584Y3108D01*
X3585Y3108D01*
X3587Y3107D01*
X3588Y3106D01*
X3589Y3106D01*
X3590Y3105D01*
X3590Y3105D01*
X3591Y3105D01*
X3591Y3105D01*
X3593Y3104D01*
X3595Y3102D01*
X3598Y3099D01*
X3601Y3096D01*
X3603Y3093D01*
X3604Y3091D01*
X3605Y3090D01*
X3606Y3089D01*
X3607Y3088D01*
X3607Y3087D01*
X3608Y3086D01*
X3608Y3086D01*
X3608Y3086D01*
X3609Y3083D01*
X3610Y3081D01*
X3611Y3076D01*
X3612Y3072D01*
X3613Y3069D01*
X3613Y3067D01*
X3613Y3065D01*
X3613Y3064D01*
X3614Y3062D01*
Y3061D01*
X3614Y3060D01*
Y3059D01*
Y3058D01*
Y3058D01*
X3614Y3055D01*
X3613Y3052D01*
X3613Y3049D01*
X3612Y3046D01*
X3612Y3043D01*
X3611Y3041D01*
X3610Y3039D01*
X3609Y3037D01*
X3608Y3035D01*
X3608Y3034D01*
X3607Y3032D01*
X3606Y3031D01*
X3606Y3031D01*
X3605Y3030D01*
X3605Y3030D01*
X3605Y3030D01*
X3603Y3028D01*
X3601Y3026D01*
X3599Y3025D01*
X3597Y3024D01*
X3595Y3023D01*
X3593Y3022D01*
X3591Y3022D01*
X3589Y3021D01*
X3587Y3021D01*
X3585Y3021D01*
X3583Y3020D01*
X3582Y3020D01*
X3581D01*
X3580Y3020D01*
X3579D01*
X3577Y3020D01*
X3574Y3020D01*
X3572Y3021D01*
X3569Y3021D01*
X3567Y3022D01*
X3565Y3022D01*
X3563Y3023D01*
X3561Y3024D01*
X3560Y3025D01*
X3558Y3025D01*
X3557Y3026D01*
X3556Y3027D01*
X3555Y3027D01*
X3555Y3027D01*
X3554Y3028D01*
X3554Y3028D01*
X3552Y3029D01*
X3551Y3031D01*
X3547Y3035D01*
X3545Y3038D01*
X3542Y3042D01*
X3541Y3044D01*
X3540Y3045D01*
X3540Y3047D01*
X3539Y3048D01*
X3539Y3049D01*
X3538Y3050D01*
X3538Y3050D01*
Y3050D01*
X3557Y3053D01*
X3558Y3050D01*
X3559Y3047D01*
X3561Y3045D01*
X3562Y3043D01*
X3563Y3042D01*
X3564Y3041D01*
X3565Y3040D01*
X3565Y3040D01*
X3565D01*
X3568Y3038D01*
X3570Y3037D01*
X3572Y3036D01*
X3574Y3036D01*
X3576Y3035D01*
X3577Y3035D01*
X3578Y3035D01*
X3578D01*
X3580Y3035D01*
X3581Y3035D01*
X3583Y3036D01*
X3585Y3037D01*
X3587Y3038D01*
X3589Y3039D01*
X3590Y3040D01*
X3591Y3041D01*
X3591Y3041D01*
X3592Y3043D01*
X3594Y3046D01*
X3594Y3049D01*
X3595Y3051D01*
X3596Y3054D01*
X3596Y3055D01*
Y3056D01*
X3596Y3056D01*
Y3057D01*
Y3057D01*
Y3057D01*
X3596Y3061D01*
X3595Y3064D01*
X3594Y3068D01*
X3594Y3071D01*
X3593Y3072D01*
X3593Y3073D01*
X3593Y3074D01*
X3593Y3075D01*
X3592Y3076D01*
X3592Y3076D01*
X3592Y3077D01*
Y3077D01*
X3590Y3080D01*
X3589Y3083D01*
X3587Y3086D01*
X3585Y3088D01*
X3584Y3089D01*
X3583Y3090D01*
X3582Y3091D01*
X3582Y3091D01*
X3581D01*
X3579Y3093D01*
X3577Y3094D01*
X3574Y3095D01*
X3572Y3095D01*
X3570Y3096D01*
X3569Y3096D01*
X3568Y3096D01*
X3567D01*
X3565Y3096D01*
X3563Y3095D01*
X3561Y3095D01*
X3559Y3094D01*
X3558Y3093D01*
X3557Y3093D01*
X3557Y3092D01*
X3557Y3092D01*
X3555Y3091D01*
X3554Y3089D01*
X3553Y3087D01*
X3552Y3085D01*
X3552Y3084D01*
X3551Y3082D01*
X3551Y3082D01*
Y3082D01*
X3551Y3081D01*
Y3081D01*
X3534Y3083D01*
X3534Y3085D01*
X3534Y3088D01*
X3535Y3090D01*
X3536Y3092D01*
X3537Y3094D01*
X3538Y3095D01*
X3539Y3097D01*
X3539Y3098D01*
X3540Y3100D01*
X3541Y3101D01*
X3542Y3102D01*
X3543Y3102D01*
X3543Y3103D01*
X3544Y3103D01*
X3544Y3104D01*
X3544Y3104D01*
X3546Y3105D01*
X3548Y3106D01*
X3549Y3107D01*
X3551Y3108D01*
X3553Y3109D01*
X3555Y3110D01*
X3559Y3111D01*
X3561Y3111D01*
X3562Y3111D01*
X3564Y3111D01*
X3565Y3111D01*
X3566Y3112D01*
X3567D01*
X3570Y3111D01*
D02*
G37*
G36*
X4093Y3022D02*
X4074D01*
X4063Y3041D01*
X4028D01*
X4025Y3022D01*
X4008D01*
X4022Y3110D01*
X4043D01*
X4093Y3022D01*
D02*
G37*
G36*
X3997D02*
X3979D01*
X3972Y3055D01*
X3955D01*
X3953Y3055D01*
X3950D01*
X3949Y3056D01*
X3947D01*
X3947Y3056D01*
X3945D01*
X3945Y3056D01*
X3944D01*
X3942Y3056D01*
X3940Y3057D01*
X3937Y3057D01*
X3936Y3058D01*
X3935Y3058D01*
X3934Y3059D01*
X3933Y3059D01*
X3933Y3059D01*
X3931Y3060D01*
X3930Y3061D01*
X3928Y3061D01*
X3927Y3062D01*
X3926Y3063D01*
X3925Y3064D01*
X3925Y3064D01*
X3925Y3064D01*
X3923Y3066D01*
X3922Y3068D01*
X3921Y3069D01*
X3920Y3071D01*
X3919Y3072D01*
X3919Y3074D01*
X3918Y3074D01*
X3918Y3074D01*
Y3075D01*
X3917Y3077D01*
X3917Y3079D01*
X3916Y3082D01*
X3916Y3083D01*
X3916Y3085D01*
X3916Y3087D01*
Y3087D01*
Y3087D01*
Y3088D01*
Y3088D01*
X3916Y3090D01*
X3916Y3093D01*
X3917Y3095D01*
X3917Y3097D01*
X3918Y3098D01*
X3918Y3099D01*
X3919Y3100D01*
X3919Y3100D01*
X3920Y3102D01*
X3922Y3104D01*
X3923Y3105D01*
X3925Y3106D01*
X3926Y3107D01*
X3927Y3107D01*
X3928Y3107D01*
X3928Y3108D01*
X3928D01*
X3930Y3108D01*
X3933Y3109D01*
X3935Y3109D01*
X3937Y3110D01*
X3940Y3110D01*
X3941D01*
X3941Y3110D01*
X3979D01*
X3997Y3022D01*
D02*
G37*
G36*
X3871Y3095D02*
X3845D01*
X3860Y3022D01*
X3842D01*
X3827Y3095D01*
X3801D01*
X3798Y3110D01*
X3868D01*
X3871Y3095D01*
D02*
G37*
G36*
X3755Y3111D02*
X3759Y3111D01*
X3763Y3110D01*
X3764Y3110D01*
X3766Y3109D01*
X3767Y3108D01*
X3768Y3108D01*
X3770Y3108D01*
X3770Y3107D01*
X3771Y3107D01*
X3772Y3107D01*
X3772Y3106D01*
X3772D01*
X3776Y3104D01*
X3779Y3102D01*
X3781Y3100D01*
X3784Y3098D01*
X3785Y3096D01*
X3786Y3095D01*
X3787Y3094D01*
X3787Y3094D01*
X3788Y3093D01*
X3788Y3093D01*
X3788Y3093D01*
X3790Y3090D01*
X3792Y3086D01*
X3794Y3083D01*
X3795Y3080D01*
X3795Y3078D01*
X3796Y3077D01*
X3796Y3076D01*
X3797Y3075D01*
X3797Y3074D01*
X3797Y3073D01*
X3797Y3073D01*
Y3073D01*
X3798Y3070D01*
X3798Y3067D01*
X3799Y3064D01*
X3799Y3061D01*
X3799Y3059D01*
Y3058D01*
X3800Y3058D01*
Y3057D01*
Y3057D01*
Y3056D01*
Y3056D01*
X3799Y3053D01*
X3799Y3050D01*
X3798Y3047D01*
X3798Y3045D01*
X3797Y3043D01*
X3797Y3042D01*
X3797Y3041D01*
X3796Y3040D01*
X3796Y3040D01*
X3796Y3040D01*
Y3040D01*
X3795Y3037D01*
X3793Y3034D01*
X3791Y3031D01*
X3789Y3029D01*
X3787Y3028D01*
X3786Y3027D01*
X3785Y3026D01*
X3785Y3026D01*
X3784Y3026D01*
X3784Y3026D01*
X3783Y3025D01*
X3781Y3024D01*
X3778Y3022D01*
X3774Y3021D01*
X3771Y3021D01*
X3769Y3021D01*
X3768Y3020D01*
X3767Y3020D01*
X3766D01*
X3765Y3020D01*
X3764D01*
X3761Y3020D01*
X3758Y3020D01*
X3754Y3021D01*
X3751Y3022D01*
X3749Y3022D01*
X3747Y3023D01*
X3746Y3024D01*
X3744Y3024D01*
X3743Y3025D01*
X3741Y3025D01*
X3740Y3026D01*
X3739Y3026D01*
X3739Y3027D01*
X3738Y3027D01*
X3738Y3027D01*
X3736Y3028D01*
X3734Y3030D01*
X3731Y3033D01*
X3729Y3035D01*
X3728Y3036D01*
X3726Y3038D01*
X3725Y3040D01*
X3724Y3041D01*
X3723Y3043D01*
X3722Y3044D01*
X3721Y3045D01*
X3721Y3046D01*
X3721Y3047D01*
X3720Y3047D01*
X3720Y3047D01*
X3719Y3050D01*
X3718Y3052D01*
X3717Y3055D01*
X3717Y3057D01*
X3715Y3061D01*
X3715Y3064D01*
X3714Y3066D01*
X3714Y3067D01*
X3714Y3069D01*
X3714Y3071D01*
X3714Y3072D01*
X3714Y3073D01*
Y3074D01*
Y3074D01*
Y3074D01*
X3714Y3077D01*
X3714Y3080D01*
X3715Y3083D01*
X3715Y3086D01*
X3716Y3088D01*
X3717Y3090D01*
X3718Y3092D01*
X3719Y3094D01*
X3720Y3096D01*
X3721Y3097D01*
X3721Y3098D01*
X3722Y3099D01*
X3723Y3100D01*
X3723Y3101D01*
X3724Y3101D01*
X3724Y3101D01*
X3726Y3103D01*
X3728Y3105D01*
X3730Y3106D01*
X3732Y3107D01*
X3734Y3108D01*
X3737Y3109D01*
X3739Y3110D01*
X3741Y3110D01*
X3743Y3111D01*
X3745Y3111D01*
X3746Y3111D01*
X3748Y3111D01*
X3749Y3112D01*
X3750D01*
X3755Y3111D01*
D02*
G37*
G36*
X4436Y3131D02*
X4438Y3131D01*
X4442Y3130D01*
X4446Y3129D01*
X4448Y3128D01*
X4450Y3128D01*
X4451Y3127D01*
X4453Y3127D01*
X4454Y3126D01*
X4455Y3125D01*
X4456Y3125D01*
X4456Y3125D01*
X4457Y3125D01*
X4457Y3124D01*
X4459Y3123D01*
X4461Y3122D01*
X4464Y3119D01*
X4467Y3116D01*
X4469Y3112D01*
X4470Y3111D01*
X4471Y3110D01*
X4472Y3108D01*
X4473Y3107D01*
X4473Y3106D01*
X4474Y3106D01*
X4474Y3105D01*
X4474Y3105D01*
X4475Y3103D01*
X4476Y3101D01*
X4477Y3096D01*
X4478Y3091D01*
X4479Y3089D01*
X4479Y3087D01*
X4479Y3085D01*
X4480Y3083D01*
X4480Y3082D01*
Y3080D01*
X4480Y3079D01*
Y3078D01*
Y3078D01*
Y3078D01*
X4480Y3074D01*
X4480Y3071D01*
X4479Y3068D01*
X4479Y3066D01*
X4478Y3063D01*
X4477Y3061D01*
X4476Y3059D01*
X4475Y3057D01*
X4475Y3055D01*
X4474Y3053D01*
X4473Y3052D01*
X4472Y3051D01*
X4472Y3050D01*
X4471Y3050D01*
X4471Y3049D01*
X4471Y3049D01*
X4469Y3048D01*
X4467Y3046D01*
X4465Y3045D01*
X4463Y3044D01*
X4461Y3043D01*
X4459Y3042D01*
X4457Y3041D01*
X4455Y3041D01*
X4453Y3040D01*
X4451Y3040D01*
X4450Y3040D01*
X4448Y3040D01*
X4447D01*
X4446Y3040D01*
X4446D01*
X4443Y3040D01*
X4440Y3040D01*
X4438Y3040D01*
X4436Y3041D01*
X4433Y3041D01*
X4431Y3042D01*
X4429Y3043D01*
X4428Y3044D01*
X4426Y3044D01*
X4425Y3045D01*
X4423Y3046D01*
X4422Y3046D01*
X4422Y3047D01*
X4421Y3047D01*
X4421Y3047D01*
X4421Y3047D01*
X4419Y3049D01*
X4417Y3051D01*
X4414Y3054D01*
X4411Y3058D01*
X4408Y3062D01*
X4407Y3063D01*
X4407Y3065D01*
X4406Y3066D01*
X4405Y3068D01*
X4405Y3069D01*
X4405Y3070D01*
X4404Y3070D01*
Y3070D01*
X4423Y3073D01*
X4424Y3070D01*
X4425Y3067D01*
X4427Y3065D01*
X4428Y3063D01*
X4429Y3061D01*
X4430Y3060D01*
X4431Y3060D01*
X4431Y3059D01*
X4431D01*
X4434Y3058D01*
X4436Y3057D01*
X4438Y3056D01*
X4440Y3055D01*
X4442Y3055D01*
X4443Y3055D01*
X4444Y3055D01*
X4444D01*
X4446Y3055D01*
X4447Y3055D01*
X4449Y3056D01*
X4452Y3057D01*
X4454Y3058D01*
X4455Y3059D01*
X4456Y3060D01*
X4457Y3060D01*
X4457Y3061D01*
X4459Y3063D01*
X4460Y3066D01*
X4461Y3068D01*
X4461Y3071D01*
X4462Y3073D01*
X4462Y3074D01*
Y3075D01*
X4462Y3076D01*
Y3077D01*
Y3077D01*
Y3077D01*
X4462Y3081D01*
X4461Y3084D01*
X4461Y3087D01*
X4460Y3090D01*
X4460Y3092D01*
X4459Y3093D01*
X4459Y3094D01*
X4459Y3095D01*
X4459Y3096D01*
X4458Y3096D01*
X4458Y3096D01*
Y3096D01*
X4457Y3100D01*
X4455Y3103D01*
X4453Y3105D01*
X4451Y3107D01*
X4450Y3109D01*
X4449Y3110D01*
X4448Y3111D01*
X4448Y3111D01*
X4448D01*
X4445Y3112D01*
X4443Y3114D01*
X4440Y3114D01*
X4438Y3115D01*
X4436Y3115D01*
X4435Y3115D01*
X4434Y3116D01*
X4434D01*
X4431Y3115D01*
X4429Y3115D01*
X4427Y3114D01*
X4426Y3114D01*
X4424Y3113D01*
X4423Y3112D01*
X4423Y3112D01*
X4423Y3112D01*
X4421Y3111D01*
X4420Y3109D01*
X4419Y3107D01*
X4418Y3105D01*
X4418Y3103D01*
X4417Y3102D01*
X4417Y3102D01*
Y3101D01*
X4417Y3101D01*
Y3101D01*
X4400Y3103D01*
X4400Y3105D01*
X4401Y3107D01*
X4401Y3109D01*
X4402Y3111D01*
X4403Y3113D01*
X4404Y3115D01*
X4405Y3117D01*
X4406Y3118D01*
X4406Y3119D01*
X4407Y3120D01*
X4408Y3121D01*
X4409Y3122D01*
X4409Y3123D01*
X4410Y3123D01*
X4410Y3123D01*
X4410Y3123D01*
X4412Y3125D01*
X4414Y3126D01*
X4416Y3127D01*
X4418Y3128D01*
X4419Y3129D01*
X4421Y3129D01*
X4425Y3130D01*
X4427Y3131D01*
X4428Y3131D01*
X4430Y3131D01*
X4431Y3131D01*
X4432Y3131D01*
X4433D01*
X4436Y3131D01*
D02*
G37*
G36*
X4902Y3115D02*
X4876D01*
X4891Y3041D01*
X4873D01*
X4858Y3115D01*
X4832D01*
X4829Y3130D01*
X4899D01*
X4902Y3115D01*
D02*
G37*
G36*
X4836Y3041D02*
X4818D01*
X4810Y3079D01*
X4767D01*
X4764Y3094D01*
X4807D01*
X4803Y3115D01*
X4759D01*
X4756Y3130D01*
X4818D01*
X4836Y3041D01*
D02*
G37*
G36*
X4751Y3115D02*
X4725D01*
X4740Y3041D01*
X4722D01*
X4707Y3115D01*
X4681D01*
X4678Y3130D01*
X4748D01*
X4751Y3115D01*
D02*
G37*
G36*
X4651Y3041D02*
X4587D01*
X4584Y3056D01*
X4629D01*
X4614Y3130D01*
X4632D01*
X4651Y3041D01*
D02*
G37*
G36*
X4575D02*
X4540D01*
X4538Y3041D01*
X4537Y3042D01*
X4535D01*
X4534Y3042D01*
X4532Y3042D01*
X4531Y3042D01*
X4530Y3042D01*
X4529Y3042D01*
X4529Y3042D01*
X4528D01*
X4527Y3042D01*
X4527Y3043D01*
X4527D01*
X4523Y3044D01*
X4520Y3045D01*
X4517Y3046D01*
X4515Y3047D01*
X4513Y3048D01*
X4512Y3049D01*
X4512Y3049D01*
X4511Y3049D01*
X4511Y3050D01*
X4511Y3050D01*
X4511D01*
X4508Y3053D01*
X4505Y3055D01*
X4503Y3058D01*
X4501Y3061D01*
X4499Y3064D01*
X4498Y3065D01*
X4498Y3066D01*
X4497Y3067D01*
X4497Y3067D01*
X4497Y3067D01*
Y3068D01*
X4496Y3070D01*
X4495Y3072D01*
X4494Y3076D01*
X4493Y3080D01*
X4492Y3083D01*
X4492Y3084D01*
X4492Y3086D01*
X4492Y3088D01*
X4491Y3089D01*
Y3091D01*
X4491Y3092D01*
Y3092D01*
Y3093D01*
Y3093D01*
Y3095D01*
X4492Y3098D01*
X4492Y3100D01*
X4492Y3102D01*
X4492Y3103D01*
X4492Y3104D01*
X4493Y3105D01*
X4493Y3105D01*
X4493Y3107D01*
X4494Y3109D01*
X4495Y3111D01*
X4495Y3112D01*
X4496Y3113D01*
X4496Y3114D01*
X4497Y3115D01*
X4497Y3115D01*
X4498Y3116D01*
X4499Y3118D01*
X4500Y3119D01*
X4501Y3120D01*
X4501Y3121D01*
X4502Y3122D01*
X4503Y3122D01*
X4503Y3122D01*
X4504Y3123D01*
X4505Y3124D01*
X4507Y3125D01*
X4508Y3126D01*
X4509Y3126D01*
X4510Y3127D01*
X4510Y3127D01*
X4511Y3127D01*
X4514Y3128D01*
X4516Y3128D01*
X4517Y3129D01*
X4519Y3129D01*
X4520Y3129D01*
X4520Y3129D01*
X4520D01*
X4521Y3129D01*
X4522D01*
X4524Y3129D01*
X4526D01*
X4528Y3130D01*
X4557D01*
X4575Y3041D01*
D02*
G37*
G36*
X3958Y825D02*
X3944Y824D01*
X3943Y825D01*
X3942Y826D01*
X3941Y827D01*
X3940Y828D01*
X3939Y828D01*
X3939Y829D01*
X3938Y829D01*
X3938Y829D01*
X3937Y829D01*
X3936Y830D01*
X3935Y830D01*
X3934Y830D01*
X3933Y831D01*
X3932Y831D01*
X3931D01*
X3930Y831D01*
X3928Y830D01*
X3927Y830D01*
X3926Y829D01*
X3925Y828D01*
X3924Y828D01*
X3924Y828D01*
X3924Y827D01*
X3923Y826D01*
X3922Y825D01*
X3922Y823D01*
X3921Y822D01*
X3921Y820D01*
X3921Y819D01*
Y818D01*
Y818D01*
Y818D01*
X3921Y814D01*
X3922Y811D01*
X3923Y808D01*
X3924Y806D01*
X3924Y804D01*
X3925Y803D01*
X3925Y803D01*
X3926Y802D01*
X3926Y802D01*
X3926Y802D01*
Y802D01*
X3927Y801D01*
X3928Y800D01*
X3930Y798D01*
X3932Y797D01*
X3934Y797D01*
X3935Y796D01*
X3936Y796D01*
X3937Y796D01*
X3937D01*
X3939Y796D01*
X3940Y796D01*
X3941Y797D01*
X3943Y797D01*
X3943Y798D01*
X3944Y798D01*
X3944Y799D01*
X3944Y799D01*
X3945Y800D01*
X3946Y802D01*
X3946Y803D01*
X3947Y805D01*
X3947Y806D01*
X3947Y807D01*
Y808D01*
Y808D01*
Y808D01*
Y809D01*
X3947Y809D01*
Y810D01*
Y810D01*
X3964Y808D01*
X3964Y806D01*
X3964Y804D01*
X3963Y802D01*
X3963Y800D01*
X3962Y799D01*
X3962Y797D01*
X3961Y795D01*
X3960Y794D01*
X3959Y793D01*
X3959Y792D01*
X3958Y791D01*
X3958Y790D01*
X3957Y790D01*
X3957Y789D01*
X3957Y789D01*
X3957Y789D01*
X3955Y788D01*
X3954Y787D01*
X3952Y786D01*
X3951Y785D01*
X3947Y784D01*
X3945Y783D01*
X3943Y782D01*
X3942Y782D01*
X3941Y782D01*
X3940Y782D01*
X3939Y782D01*
X3938D01*
X3935Y782D01*
X3932Y783D01*
X3929Y783D01*
X3926Y784D01*
X3924Y785D01*
X3923Y785D01*
X3922Y786D01*
X3922Y786D01*
X3921Y786D01*
X3921Y787D01*
X3921D01*
X3918Y788D01*
X3916Y791D01*
X3913Y793D01*
X3912Y795D01*
X3910Y797D01*
X3910Y798D01*
X3909Y799D01*
X3909Y799D01*
X3909Y800D01*
X3908Y800D01*
Y800D01*
X3907Y803D01*
X3906Y807D01*
X3905Y810D01*
X3904Y813D01*
X3904Y814D01*
X3904Y815D01*
X3904Y816D01*
Y817D01*
X3904Y817D01*
Y818D01*
Y818D01*
Y818D01*
X3904Y820D01*
X3904Y822D01*
X3905Y826D01*
X3905Y828D01*
X3906Y829D01*
X3906Y831D01*
X3907Y832D01*
X3908Y833D01*
X3908Y834D01*
X3909Y835D01*
X3909Y835D01*
X3910Y836D01*
X3910Y836D01*
X3910Y836D01*
X3910Y837D01*
X3912Y838D01*
X3913Y839D01*
X3914Y840D01*
X3916Y840D01*
X3919Y842D01*
X3921Y842D01*
X3923Y843D01*
X3924Y843D01*
X3925Y843D01*
X3926Y843D01*
X3927D01*
X3929Y843D01*
X3930Y843D01*
X3931Y843D01*
X3932Y843D01*
X3932Y843D01*
X3932D01*
X3934Y842D01*
X3936Y842D01*
X3936Y841D01*
X3937Y841D01*
X3937Y841D01*
X3937D01*
X3933Y855D01*
X3904D01*
X3900Y871D01*
X3945D01*
X3958Y825D01*
D02*
G37*
G36*
X3699Y783D02*
X3683D01*
X3669Y857D01*
X3666Y783D01*
X3648D01*
X3616Y857D01*
X3631Y783D01*
X3615D01*
X3599Y872D01*
X3625D01*
X3652Y811D01*
X3655Y872D01*
X3681D01*
X3699Y783D01*
D02*
G37*
G36*
X3873D02*
X3854D01*
X3805Y872D01*
X3823D01*
X3860Y805D01*
X3871Y872D01*
X3889D01*
X3873Y783D01*
D02*
G37*
G36*
X3596D02*
X3579D01*
X3571Y817D01*
X3554D01*
X3552Y817D01*
X3550D01*
X3548Y817D01*
X3546D01*
X3546Y818D01*
X3545D01*
X3544Y818D01*
X3544D01*
X3541Y818D01*
X3539Y819D01*
X3537Y819D01*
X3535Y820D01*
X3534Y820D01*
X3533Y820D01*
X3532Y820D01*
X3532Y821D01*
X3530Y821D01*
X3529Y822D01*
X3528Y823D01*
X3526Y824D01*
X3525Y825D01*
X3525Y826D01*
X3524Y826D01*
X3524Y826D01*
X3523Y828D01*
X3521Y829D01*
X3520Y831D01*
X3519Y833D01*
X3519Y834D01*
X3518Y835D01*
X3518Y836D01*
X3518Y836D01*
Y836D01*
X3517Y839D01*
X3516Y841D01*
X3516Y843D01*
X3515Y845D01*
X3515Y847D01*
X3515Y848D01*
Y849D01*
Y849D01*
Y849D01*
Y850D01*
X3515Y852D01*
X3515Y854D01*
X3516Y857D01*
X3517Y858D01*
X3517Y860D01*
X3518Y861D01*
X3518Y862D01*
X3518Y862D01*
X3519Y864D01*
X3521Y865D01*
X3523Y867D01*
X3524Y868D01*
X3525Y868D01*
X3526Y869D01*
X3527Y869D01*
X3527Y869D01*
X3527D01*
X3529Y870D01*
X3532Y871D01*
X3534Y871D01*
X3537Y871D01*
X3539Y872D01*
X3540D01*
X3541Y872D01*
X3578D01*
X3596Y783D01*
D02*
G37*
G36*
X3739Y873D02*
X3742Y873D01*
X3744Y873D01*
X3747Y872D01*
X3749Y872D01*
X3751Y871D01*
X3752Y870D01*
X3754Y870D01*
X3755Y869D01*
X3757Y868D01*
X3758Y868D01*
X3758Y867D01*
X3759Y867D01*
X3760Y866D01*
X3760Y866D01*
X3760Y866D01*
X3761Y865D01*
X3763Y863D01*
X3764Y861D01*
X3765Y860D01*
X3765Y858D01*
X3766Y857D01*
X3767Y854D01*
X3767Y853D01*
X3768Y851D01*
X3768Y850D01*
X3768Y849D01*
X3768Y848D01*
Y848D01*
Y847D01*
Y847D01*
X3768Y845D01*
X3768Y843D01*
X3767Y841D01*
X3767Y839D01*
X3766Y838D01*
X3766Y837D01*
X3765Y836D01*
X3765Y836D01*
X3764Y834D01*
X3763Y833D01*
X3762Y832D01*
X3761Y831D01*
X3760Y830D01*
X3759Y829D01*
X3758Y828D01*
X3758Y828D01*
X3757Y828D01*
X3756Y827D01*
X3754Y826D01*
X3751Y825D01*
X3749Y823D01*
X3746Y822D01*
X3745Y822D01*
X3745Y822D01*
X3744Y821D01*
X3743Y821D01*
X3743Y821D01*
X3743D01*
X3741Y820D01*
X3739Y819D01*
X3738Y819D01*
X3736Y818D01*
X3735Y818D01*
X3734Y817D01*
X3733Y816D01*
X3733Y816D01*
X3732Y815D01*
X3731Y815D01*
X3730Y815D01*
X3730Y814D01*
X3729Y813D01*
X3728Y812D01*
X3728Y811D01*
X3727Y810D01*
X3727Y809D01*
X3727Y808D01*
Y808D01*
Y808D01*
X3727Y806D01*
X3728Y805D01*
X3728Y803D01*
X3729Y802D01*
X3730Y801D01*
X3730Y801D01*
X3731Y800D01*
X3731Y800D01*
X3733Y799D01*
X3735Y798D01*
X3737Y798D01*
X3739Y797D01*
X3741Y797D01*
X3742D01*
X3742Y797D01*
X3746D01*
X3748Y797D01*
X3749Y797D01*
X3751Y798D01*
X3752Y798D01*
X3753Y798D01*
X3754Y799D01*
X3755Y799D01*
X3757Y800D01*
X3758Y801D01*
X3758Y801D01*
X3759Y802D01*
X3759Y803D01*
X3760Y805D01*
X3761Y806D01*
X3761Y808D01*
X3761Y810D01*
X3761Y812D01*
X3761Y812D01*
Y812D01*
Y813D01*
Y813D01*
X3779Y812D01*
X3779Y809D01*
X3778Y806D01*
X3778Y803D01*
X3777Y801D01*
X3777Y799D01*
X3776Y798D01*
X3776Y797D01*
X3776Y797D01*
X3776Y796D01*
X3775Y796D01*
Y796D01*
X3774Y794D01*
X3772Y792D01*
X3770Y790D01*
X3768Y788D01*
X3767Y787D01*
X3765Y786D01*
X3765Y786D01*
X3764Y786D01*
X3764Y786D01*
X3764D01*
X3761Y784D01*
X3757Y783D01*
X3754Y783D01*
X3751Y782D01*
X3749Y782D01*
X3748D01*
X3747Y782D01*
X3746Y782D01*
X3744D01*
X3741Y782D01*
X3738Y782D01*
X3735Y783D01*
X3733Y783D01*
X3731Y784D01*
X3729Y784D01*
X3727Y785D01*
X3725Y786D01*
X3723Y787D01*
X3722Y787D01*
X3721Y788D01*
X3720Y789D01*
X3719Y789D01*
X3719Y790D01*
X3718Y790D01*
X3718Y790D01*
X3717Y792D01*
X3715Y793D01*
X3714Y795D01*
X3713Y797D01*
X3712Y798D01*
X3711Y800D01*
X3711Y802D01*
X3710Y803D01*
X3710Y805D01*
X3709Y806D01*
X3709Y807D01*
X3709Y808D01*
X3709Y809D01*
Y810D01*
Y810D01*
Y810D01*
X3709Y812D01*
X3709Y813D01*
X3710Y816D01*
X3711Y819D01*
X3712Y821D01*
X3713Y823D01*
X3714Y825D01*
X3715Y825D01*
X3715Y825D01*
X3715Y825D01*
X3715Y826D01*
X3716Y826D01*
X3717Y827D01*
X3718Y828D01*
X3720Y829D01*
X3723Y831D01*
X3727Y832D01*
X3730Y834D01*
X3731Y835D01*
X3732Y835D01*
X3733Y836D01*
X3734Y836D01*
X3735Y836D01*
X3735Y836D01*
X3736Y837D01*
X3738Y838D01*
X3740Y839D01*
X3741Y839D01*
X3742Y840D01*
X3743Y840D01*
X3744Y841D01*
X3745Y841D01*
X3746Y842D01*
X3747Y843D01*
X3748Y843D01*
X3748Y843D01*
X3749Y844D01*
X3749Y845D01*
X3750Y846D01*
X3750Y847D01*
X3750Y848D01*
X3751Y849D01*
Y849D01*
Y850D01*
X3750Y851D01*
X3750Y852D01*
X3750Y853D01*
X3749Y854D01*
X3748Y855D01*
X3748Y856D01*
X3748Y856D01*
X3747Y856D01*
X3746Y857D01*
X3744Y858D01*
X3743Y858D01*
X3741Y859D01*
X3739Y859D01*
X3738Y859D01*
X3737D01*
X3734Y859D01*
X3732Y858D01*
X3730Y858D01*
X3728Y857D01*
X3727Y857D01*
X3726Y856D01*
X3725Y856D01*
X3725Y856D01*
X3724Y854D01*
X3723Y853D01*
X3722Y851D01*
X3721Y849D01*
X3721Y848D01*
X3721Y847D01*
X3720Y846D01*
Y846D01*
Y846D01*
X3703Y847D01*
X3703Y849D01*
X3704Y851D01*
X3704Y853D01*
X3705Y855D01*
X3706Y856D01*
X3706Y858D01*
X3707Y859D01*
X3708Y861D01*
X3709Y862D01*
X3710Y863D01*
X3710Y864D01*
X3711Y865D01*
X3712Y865D01*
X3712Y866D01*
X3712Y866D01*
X3713Y866D01*
X3714Y867D01*
X3716Y868D01*
X3718Y869D01*
X3720Y870D01*
X3722Y871D01*
X3724Y872D01*
X3728Y872D01*
X3730Y873D01*
X3731Y873D01*
X3733Y873D01*
X3734Y873D01*
X3735Y873D01*
X3737D01*
X3739Y873D01*
D02*
G37*
G36*
X3472D02*
X3475Y873D01*
X3477Y873D01*
X3479Y872D01*
X3482Y872D01*
X3484Y871D01*
X3485Y870D01*
X3487Y870D01*
X3488Y869D01*
X3489Y868D01*
X3490Y868D01*
X3491Y867D01*
X3492Y867D01*
X3492Y866D01*
X3493Y866D01*
X3493Y866D01*
X3494Y865D01*
X3495Y863D01*
X3496Y861D01*
X3497Y860D01*
X3498Y858D01*
X3499Y857D01*
X3500Y854D01*
X3500Y853D01*
X3500Y851D01*
X3500Y850D01*
X3501Y849D01*
X3501Y848D01*
Y848D01*
Y847D01*
Y847D01*
X3501Y845D01*
X3500Y843D01*
X3500Y841D01*
X3499Y839D01*
X3499Y838D01*
X3498Y837D01*
X3498Y836D01*
X3498Y836D01*
X3497Y834D01*
X3496Y833D01*
X3494Y832D01*
X3493Y831D01*
X3492Y830D01*
X3491Y829D01*
X3491Y828D01*
X3491Y828D01*
X3490Y828D01*
X3489Y827D01*
X3486Y826D01*
X3484Y825D01*
X3481Y823D01*
X3479Y822D01*
X3478Y822D01*
X3477Y822D01*
X3477Y821D01*
X3476Y821D01*
X3476Y821D01*
X3476D01*
X3474Y820D01*
X3472Y819D01*
X3471Y819D01*
X3469Y818D01*
X3468Y818D01*
X3467Y817D01*
X3466Y816D01*
X3465Y816D01*
X3464Y815D01*
X3463Y815D01*
X3463Y815D01*
X3463Y814D01*
X3462Y813D01*
X3461Y812D01*
X3460Y811D01*
X3460Y810D01*
X3460Y809D01*
X3460Y808D01*
Y808D01*
Y808D01*
X3460Y806D01*
X3460Y805D01*
X3461Y803D01*
X3462Y802D01*
X3462Y801D01*
X3463Y801D01*
X3464Y800D01*
X3464Y800D01*
X3465Y799D01*
X3467Y798D01*
X3470Y798D01*
X3472Y797D01*
X3474Y797D01*
X3474D01*
X3475Y797D01*
X3479D01*
X3480Y797D01*
X3482Y797D01*
X3483Y798D01*
X3485Y798D01*
X3486Y798D01*
X3487Y799D01*
X3488Y799D01*
X3490Y800D01*
X3491Y801D01*
X3491Y801D01*
X3491Y802D01*
X3492Y803D01*
X3493Y805D01*
X3493Y806D01*
X3494Y808D01*
X3494Y810D01*
X3494Y812D01*
X3494Y812D01*
Y812D01*
Y813D01*
Y813D01*
X3511Y812D01*
X3511Y809D01*
X3511Y806D01*
X3511Y803D01*
X3510Y801D01*
X3509Y799D01*
X3509Y798D01*
X3509Y797D01*
X3509Y797D01*
X3508Y796D01*
X3508Y796D01*
Y796D01*
X3507Y794D01*
X3505Y792D01*
X3503Y790D01*
X3501Y788D01*
X3499Y787D01*
X3498Y786D01*
X3497Y786D01*
X3497Y786D01*
X3497Y786D01*
X3497D01*
X3493Y784D01*
X3490Y783D01*
X3487Y783D01*
X3484Y782D01*
X3482Y782D01*
X3481D01*
X3480Y782D01*
X3479Y782D01*
X3477D01*
X3474Y782D01*
X3471Y782D01*
X3468Y783D01*
X3466Y783D01*
X3463Y784D01*
X3461Y784D01*
X3459Y785D01*
X3458Y786D01*
X3456Y787D01*
X3455Y787D01*
X3454Y788D01*
X3453Y789D01*
X3452Y789D01*
X3451Y790D01*
X3451Y790D01*
X3451Y790D01*
X3449Y792D01*
X3448Y793D01*
X3447Y795D01*
X3446Y797D01*
X3445Y798D01*
X3444Y800D01*
X3443Y802D01*
X3443Y803D01*
X3442Y805D01*
X3442Y806D01*
X3442Y807D01*
X3442Y808D01*
X3442Y809D01*
Y810D01*
Y810D01*
Y810D01*
X3442Y812D01*
X3442Y813D01*
X3443Y816D01*
X3444Y819D01*
X3445Y821D01*
X3446Y823D01*
X3447Y825D01*
X3447Y825D01*
X3448Y825D01*
X3448Y825D01*
X3448Y826D01*
X3449Y826D01*
X3450Y827D01*
X3451Y828D01*
X3453Y829D01*
X3456Y831D01*
X3459Y832D01*
X3462Y834D01*
X3464Y835D01*
X3465Y835D01*
X3466Y836D01*
X3467Y836D01*
X3467Y836D01*
X3467Y836D01*
X3469Y837D01*
X3471Y838D01*
X3472Y839D01*
X3474Y839D01*
X3475Y840D01*
X3476Y840D01*
X3477Y841D01*
X3478Y841D01*
X3479Y842D01*
X3480Y843D01*
X3480Y843D01*
X3480Y843D01*
X3481Y844D01*
X3482Y845D01*
X3483Y846D01*
X3483Y847D01*
X3483Y848D01*
X3483Y849D01*
Y849D01*
Y850D01*
X3483Y851D01*
X3483Y852D01*
X3482Y853D01*
X3482Y854D01*
X3481Y855D01*
X3481Y856D01*
X3480Y856D01*
X3480Y856D01*
X3479Y857D01*
X3477Y858D01*
X3475Y858D01*
X3474Y859D01*
X3472Y859D01*
X3471Y859D01*
X3469D01*
X3467Y859D01*
X3464Y858D01*
X3462Y858D01*
X3461Y857D01*
X3460Y857D01*
X3459Y856D01*
X3458Y856D01*
X3458Y856D01*
X3456Y854D01*
X3455Y853D01*
X3455Y851D01*
X3454Y849D01*
X3454Y848D01*
X3453Y847D01*
X3453Y846D01*
Y846D01*
Y846D01*
X3436Y847D01*
X3436Y849D01*
X3436Y851D01*
X3437Y853D01*
X3438Y855D01*
X3438Y856D01*
X3439Y858D01*
X3440Y859D01*
X3441Y861D01*
X3442Y862D01*
X3442Y863D01*
X3443Y864D01*
X3444Y865D01*
X3444Y865D01*
X3445Y866D01*
X3445Y866D01*
X3445Y866D01*
X3447Y867D01*
X3449Y868D01*
X3451Y869D01*
X3453Y870D01*
X3455Y871D01*
X3457Y872D01*
X3461Y872D01*
X3462Y873D01*
X3464Y873D01*
X3466Y873D01*
X3467Y873D01*
X3468Y873D01*
X3469D01*
X3472Y873D01*
D02*
G37*
G36*
X5496Y709D02*
X5498Y708D01*
X5500Y708D01*
X5502Y708D01*
X5505Y706D01*
X5507Y706D01*
X5508Y705D01*
X5509Y704D01*
X5510Y703D01*
X5511Y703D01*
X5512Y702D01*
X5513Y702D01*
X5513Y701D01*
X5513Y701D01*
X5514Y701D01*
X5515Y699D01*
X5517Y696D01*
X5518Y694D01*
X5520Y691D01*
X5521Y689D01*
X5521Y688D01*
X5521Y688D01*
X5522Y687D01*
X5522Y686D01*
X5522Y686D01*
Y686D01*
X5506Y683D01*
X5505Y685D01*
X5505Y687D01*
X5504Y689D01*
X5503Y690D01*
X5502Y691D01*
X5502Y692D01*
X5502Y692D01*
X5501Y692D01*
X5500Y693D01*
X5499Y694D01*
X5498Y694D01*
X5497Y695D01*
X5496Y695D01*
X5495Y695D01*
X5495D01*
X5493Y695D01*
X5492Y695D01*
X5491Y694D01*
X5490Y694D01*
X5489Y693D01*
X5489Y693D01*
X5489Y693D01*
X5488Y692D01*
X5488Y691D01*
X5487Y690D01*
X5486Y689D01*
X5486Y688D01*
X5486Y687D01*
X5486Y686D01*
Y686D01*
Y686D01*
X5486Y683D01*
X5486Y682D01*
X5487Y680D01*
X5488Y678D01*
X5488Y677D01*
X5489Y677D01*
X5489Y676D01*
X5490Y676D01*
X5491Y675D01*
X5493Y674D01*
X5494Y673D01*
X5496Y673D01*
X5498Y673D01*
X5499Y672D01*
X5502D01*
X5505Y658D01*
X5504Y658D01*
X5503Y658D01*
X5502D01*
X5500Y658D01*
X5498Y658D01*
X5497Y657D01*
X5496Y657D01*
X5495Y656D01*
X5494Y656D01*
X5494Y655D01*
X5494Y655D01*
X5492Y654D01*
X5492Y653D01*
X5491Y651D01*
X5491Y650D01*
X5490Y649D01*
X5490Y647D01*
Y647D01*
Y647D01*
Y647D01*
X5490Y644D01*
X5491Y642D01*
X5492Y641D01*
X5492Y639D01*
X5493Y638D01*
X5494Y637D01*
X5494Y637D01*
X5494Y636D01*
X5496Y635D01*
X5497Y634D01*
X5499Y633D01*
X5501Y633D01*
X5502Y633D01*
X5503Y633D01*
X5504Y632D01*
X5504D01*
X5506Y633D01*
X5507Y633D01*
X5508Y633D01*
X5509Y634D01*
X5510Y634D01*
X5511Y635D01*
X5511Y635D01*
X5511Y635D01*
X5512Y636D01*
X5513Y638D01*
X5514Y639D01*
X5514Y641D01*
X5514Y643D01*
X5515Y644D01*
X5515Y644D01*
X5515Y645D01*
Y645D01*
Y645D01*
X5531Y643D01*
X5531Y641D01*
X5531Y639D01*
X5530Y637D01*
X5529Y635D01*
X5529Y633D01*
X5528Y632D01*
X5527Y631D01*
X5527Y630D01*
X5526Y628D01*
X5525Y627D01*
X5524Y627D01*
X5524Y626D01*
X5523Y625D01*
X5523Y625D01*
X5523Y625D01*
X5523Y625D01*
X5521Y624D01*
X5520Y623D01*
X5518Y622D01*
X5517Y621D01*
X5514Y620D01*
X5511Y619D01*
X5509Y619D01*
X5508Y619D01*
X5507Y619D01*
X5506Y619D01*
X5505Y618D01*
X5504D01*
X5502Y619D01*
X5499Y619D01*
X5496Y619D01*
X5494Y620D01*
X5492Y621D01*
X5490Y622D01*
X5488Y623D01*
X5486Y624D01*
X5485Y625D01*
X5484Y626D01*
X5483Y627D01*
X5482Y628D01*
X5481Y629D01*
X5480Y629D01*
X5480Y630D01*
X5480Y630D01*
X5479Y631D01*
X5478Y633D01*
X5477Y634D01*
X5476Y636D01*
X5475Y639D01*
X5474Y642D01*
X5473Y643D01*
X5473Y644D01*
X5473Y645D01*
X5473Y646D01*
X5473Y647D01*
Y647D01*
Y647D01*
Y648D01*
X5473Y650D01*
X5473Y651D01*
X5474Y653D01*
X5474Y655D01*
X5475Y656D01*
X5475Y657D01*
X5475Y657D01*
X5476Y657D01*
X5477Y659D01*
X5478Y661D01*
X5479Y662D01*
X5481Y663D01*
X5482Y664D01*
X5483Y665D01*
X5484Y665D01*
X5484Y665D01*
X5484D01*
X5481Y666D01*
X5479Y667D01*
X5477Y669D01*
X5476Y670D01*
X5474Y671D01*
X5473Y672D01*
X5473Y673D01*
X5473Y673D01*
X5471Y675D01*
X5470Y678D01*
X5470Y680D01*
X5469Y682D01*
X5469Y683D01*
X5469Y685D01*
Y685D01*
Y685D01*
Y686D01*
Y686D01*
X5469Y688D01*
X5469Y689D01*
X5470Y692D01*
X5471Y695D01*
X5472Y697D01*
X5473Y699D01*
X5473Y700D01*
X5474Y701D01*
X5474Y701D01*
X5475Y702D01*
X5475Y702D01*
X5475Y702D01*
X5476Y703D01*
X5478Y704D01*
X5479Y705D01*
X5481Y706D01*
X5484Y707D01*
X5487Y708D01*
X5489Y708D01*
X5490Y709D01*
X5491Y709D01*
X5492Y709D01*
X5494D01*
X5496Y709D01*
D02*
G37*
G36*
X5393D02*
X5395Y708D01*
X5397Y708D01*
X5399Y708D01*
X5402Y706D01*
X5404Y706D01*
X5405Y705D01*
X5406Y704D01*
X5407Y703D01*
X5408Y703D01*
X5409Y702D01*
X5410Y702D01*
X5410Y701D01*
X5410Y701D01*
X5411Y701D01*
X5413Y699D01*
X5414Y696D01*
X5416Y694D01*
X5417Y691D01*
X5418Y689D01*
X5418Y688D01*
X5418Y688D01*
X5419Y687D01*
X5419Y686D01*
X5419Y686D01*
Y686D01*
X5403Y683D01*
X5402Y685D01*
X5402Y687D01*
X5401Y689D01*
X5400Y690D01*
X5400Y691D01*
X5399Y692D01*
X5399Y692D01*
X5399Y692D01*
X5397Y693D01*
X5396Y694D01*
X5395Y694D01*
X5394Y695D01*
X5393Y695D01*
X5393Y695D01*
X5392D01*
X5390Y695D01*
X5389Y695D01*
X5388Y694D01*
X5387Y694D01*
X5387Y693D01*
X5386Y693D01*
X5386Y693D01*
X5386Y692D01*
X5385Y691D01*
X5384Y690D01*
X5384Y689D01*
X5383Y688D01*
X5383Y687D01*
X5383Y686D01*
Y686D01*
Y686D01*
X5383Y683D01*
X5383Y682D01*
X5384Y680D01*
X5385Y678D01*
X5386Y677D01*
X5386Y677D01*
X5387Y676D01*
X5387Y676D01*
X5388Y675D01*
X5390Y674D01*
X5392Y673D01*
X5393Y673D01*
X5395Y673D01*
X5396Y672D01*
X5399D01*
X5402Y658D01*
X5401Y658D01*
X5400Y658D01*
X5399D01*
X5397Y658D01*
X5396Y658D01*
X5394Y657D01*
X5393Y657D01*
X5392Y656D01*
X5391Y656D01*
X5391Y655D01*
X5391Y655D01*
X5390Y654D01*
X5389Y653D01*
X5388Y651D01*
X5388Y650D01*
X5388Y649D01*
X5387Y647D01*
Y647D01*
Y647D01*
Y647D01*
X5388Y644D01*
X5388Y642D01*
X5389Y641D01*
X5389Y639D01*
X5390Y638D01*
X5391Y637D01*
X5391Y637D01*
X5391Y636D01*
X5393Y635D01*
X5395Y634D01*
X5396Y633D01*
X5398Y633D01*
X5399Y633D01*
X5400Y633D01*
X5401Y632D01*
X5401D01*
X5403Y633D01*
X5404Y633D01*
X5405Y633D01*
X5406Y634D01*
X5407Y634D01*
X5408Y635D01*
X5408Y635D01*
X5408Y635D01*
X5409Y636D01*
X5410Y638D01*
X5411Y639D01*
X5411Y641D01*
X5412Y643D01*
X5412Y644D01*
X5412Y644D01*
X5412Y645D01*
Y645D01*
Y645D01*
X5429Y643D01*
X5428Y641D01*
X5428Y639D01*
X5427Y637D01*
X5427Y635D01*
X5426Y633D01*
X5425Y632D01*
X5424Y631D01*
X5424Y630D01*
X5423Y628D01*
X5422Y627D01*
X5422Y627D01*
X5421Y626D01*
X5420Y625D01*
X5420Y625D01*
X5420Y625D01*
X5420Y625D01*
X5418Y624D01*
X5417Y623D01*
X5415Y622D01*
X5414Y621D01*
X5411Y620D01*
X5408Y619D01*
X5407Y619D01*
X5405Y619D01*
X5404Y619D01*
X5403Y619D01*
X5402Y618D01*
X5401D01*
X5399Y619D01*
X5396Y619D01*
X5394Y619D01*
X5391Y620D01*
X5389Y621D01*
X5387Y622D01*
X5385Y623D01*
X5384Y624D01*
X5382Y625D01*
X5381Y626D01*
X5380Y627D01*
X5379Y628D01*
X5378Y629D01*
X5377Y629D01*
X5377Y630D01*
X5377Y630D01*
X5376Y631D01*
X5375Y633D01*
X5374Y634D01*
X5373Y636D01*
X5372Y639D01*
X5371Y642D01*
X5371Y643D01*
X5370Y644D01*
X5370Y645D01*
X5370Y646D01*
X5370Y647D01*
Y647D01*
Y647D01*
Y648D01*
X5370Y650D01*
X5370Y651D01*
X5371Y653D01*
X5371Y655D01*
X5372Y656D01*
X5372Y657D01*
X5373Y657D01*
X5373Y657D01*
X5374Y659D01*
X5375Y661D01*
X5376Y662D01*
X5378Y663D01*
X5379Y664D01*
X5380Y665D01*
X5381Y665D01*
X5381Y665D01*
X5381D01*
X5378Y666D01*
X5376Y667D01*
X5374Y669D01*
X5373Y670D01*
X5371Y671D01*
X5371Y672D01*
X5370Y673D01*
X5370Y673D01*
X5368Y675D01*
X5367Y678D01*
X5367Y680D01*
X5366Y682D01*
X5366Y683D01*
X5366Y685D01*
Y685D01*
Y685D01*
Y686D01*
Y686D01*
X5366Y688D01*
X5366Y689D01*
X5367Y692D01*
X5368Y695D01*
X5369Y697D01*
X5370Y699D01*
X5371Y700D01*
X5371Y701D01*
X5371Y701D01*
X5372Y702D01*
X5372Y702D01*
X5372Y702D01*
X5373Y703D01*
X5375Y704D01*
X5376Y705D01*
X5378Y706D01*
X5381Y707D01*
X5384Y708D01*
X5386Y708D01*
X5388Y709D01*
X5389Y709D01*
X5389Y709D01*
X5391D01*
X5393Y709D01*
D02*
G37*
G36*
X5163Y620D02*
X5146D01*
X5132Y694D01*
X5129Y620D01*
X5112D01*
X5079Y693D01*
X5094Y620D01*
X5078D01*
X5062Y708D01*
X5088D01*
X5116Y648D01*
X5118Y708D01*
X5144D01*
X5163Y620D01*
D02*
G37*
G36*
X5336D02*
X5317D01*
X5268Y708D01*
X5286D01*
X5323Y642D01*
X5334Y708D01*
X5352D01*
X5336Y620D01*
D02*
G37*
G36*
X5464D02*
X5446D01*
X5443Y637D01*
X5460D01*
X5464Y620D01*
D02*
G37*
G36*
X5060D02*
X5042D01*
X5035Y654D01*
X5017D01*
X5016Y654D01*
X5013D01*
X5012Y654D01*
X5010D01*
X5009Y654D01*
X5008D01*
X5007Y654D01*
X5007D01*
X5004Y655D01*
X5002Y655D01*
X5000Y656D01*
X4998Y656D01*
X4997Y657D01*
X4996Y657D01*
X4995Y657D01*
X4995Y657D01*
X4994Y658D01*
X4992Y659D01*
X4991Y660D01*
X4990Y661D01*
X4989Y662D01*
X4988Y662D01*
X4987Y663D01*
X4987Y663D01*
X4986Y664D01*
X4985Y666D01*
X4984Y668D01*
X4983Y669D01*
X4982Y671D01*
X4981Y672D01*
X4981Y673D01*
X4981Y673D01*
Y673D01*
X4980Y675D01*
X4979Y678D01*
X4979Y680D01*
X4979Y682D01*
X4978Y684D01*
X4978Y685D01*
Y685D01*
Y686D01*
Y686D01*
Y686D01*
X4978Y689D01*
X4979Y691D01*
X4979Y693D01*
X4980Y695D01*
X4980Y696D01*
X4981Y698D01*
X4981Y698D01*
X4981Y698D01*
X4983Y700D01*
X4984Y702D01*
X4986Y703D01*
X4987Y704D01*
X4988Y705D01*
X4989Y706D01*
X4990Y706D01*
X4990Y706D01*
X4990D01*
X4993Y707D01*
X4995Y707D01*
X4998Y708D01*
X5000Y708D01*
X5002Y708D01*
X5003D01*
X5004Y708D01*
X5041D01*
X5060Y620D01*
D02*
G37*
G36*
X5203Y710D02*
X5205Y710D01*
X5208Y709D01*
X5210Y709D01*
X5212Y708D01*
X5214Y708D01*
X5216Y707D01*
X5217Y706D01*
X5219Y706D01*
X5220Y705D01*
X5221Y704D01*
X5222Y704D01*
X5222Y703D01*
X5223Y703D01*
X5223Y703D01*
X5223Y703D01*
X5225Y701D01*
X5226Y700D01*
X5227Y698D01*
X5228Y697D01*
X5229Y695D01*
X5229Y693D01*
X5230Y690D01*
X5231Y689D01*
X5231Y688D01*
X5231Y687D01*
X5231Y686D01*
X5231Y685D01*
Y684D01*
Y684D01*
Y684D01*
X5231Y682D01*
X5231Y679D01*
X5230Y678D01*
X5230Y676D01*
X5229Y675D01*
X5229Y674D01*
X5229Y673D01*
X5229Y673D01*
X5227Y671D01*
X5226Y670D01*
X5225Y668D01*
X5224Y667D01*
X5223Y666D01*
X5222Y665D01*
X5221Y665D01*
X5221Y665D01*
X5220Y664D01*
X5219Y664D01*
X5217Y663D01*
X5214Y661D01*
X5212Y660D01*
X5210Y659D01*
X5209Y659D01*
X5208Y658D01*
X5207Y658D01*
X5207Y658D01*
X5206Y658D01*
X5206D01*
X5204Y657D01*
X5203Y656D01*
X5201Y655D01*
X5200Y655D01*
X5199Y654D01*
X5198Y654D01*
X5197Y653D01*
X5196Y653D01*
X5195Y652D01*
X5194Y651D01*
X5194Y651D01*
X5193Y651D01*
X5192Y650D01*
X5192Y649D01*
X5191Y648D01*
X5191Y647D01*
X5190Y646D01*
X5190Y645D01*
Y645D01*
Y644D01*
X5190Y643D01*
X5191Y641D01*
X5191Y640D01*
X5192Y639D01*
X5193Y638D01*
X5194Y637D01*
X5194Y637D01*
X5194Y637D01*
X5196Y636D01*
X5198Y635D01*
X5200Y634D01*
X5202Y634D01*
X5204Y634D01*
X5205D01*
X5206Y634D01*
X5209D01*
X5211Y634D01*
X5212Y634D01*
X5214Y634D01*
X5215Y635D01*
X5216Y635D01*
X5218Y636D01*
X5218Y636D01*
X5220Y637D01*
X5221Y637D01*
X5222Y638D01*
X5222Y638D01*
X5223Y639D01*
X5223Y641D01*
X5224Y643D01*
X5224Y645D01*
X5224Y647D01*
X5224Y648D01*
X5225Y649D01*
Y649D01*
Y649D01*
Y649D01*
X5242Y648D01*
X5242Y645D01*
X5242Y642D01*
X5241Y640D01*
X5240Y637D01*
X5240Y635D01*
X5240Y635D01*
X5239Y634D01*
X5239Y633D01*
X5239Y633D01*
X5239Y633D01*
Y633D01*
X5237Y630D01*
X5235Y628D01*
X5234Y626D01*
X5232Y625D01*
X5230Y624D01*
X5228Y623D01*
X5228Y623D01*
X5227Y622D01*
X5227Y622D01*
X5227D01*
X5224Y621D01*
X5220Y620D01*
X5217Y619D01*
X5214Y619D01*
X5213Y619D01*
X5211D01*
X5210Y619D01*
X5209Y618D01*
X5207D01*
X5204Y619D01*
X5201Y619D01*
X5199Y619D01*
X5196Y620D01*
X5194Y620D01*
X5192Y621D01*
X5190Y622D01*
X5188Y623D01*
X5187Y623D01*
X5185Y624D01*
X5184Y625D01*
X5183Y625D01*
X5183Y626D01*
X5182Y626D01*
X5182Y627D01*
X5182Y627D01*
X5180Y628D01*
X5178Y630D01*
X5177Y632D01*
X5176Y633D01*
X5175Y635D01*
X5174Y637D01*
X5174Y638D01*
X5173Y640D01*
X5173Y641D01*
X5173Y643D01*
X5172Y644D01*
X5172Y645D01*
X5172Y646D01*
Y646D01*
Y647D01*
Y647D01*
X5172Y649D01*
X5172Y650D01*
X5173Y653D01*
X5174Y656D01*
X5175Y658D01*
X5176Y660D01*
X5177Y661D01*
X5178Y662D01*
X5178Y662D01*
X5178Y662D01*
X5178Y662D01*
X5179Y663D01*
X5180Y664D01*
X5182Y665D01*
X5183Y666D01*
X5186Y667D01*
X5190Y669D01*
X5193Y671D01*
X5194Y671D01*
X5196Y672D01*
X5197Y672D01*
X5197Y673D01*
X5198Y673D01*
X5198Y673D01*
X5200Y674D01*
X5201Y674D01*
X5203Y675D01*
X5204Y676D01*
X5205Y676D01*
X5206Y677D01*
X5207Y678D01*
X5208Y678D01*
X5210Y679D01*
X5210Y679D01*
X5211Y680D01*
X5211Y680D01*
X5212Y681D01*
X5213Y682D01*
X5213Y683D01*
X5214Y684D01*
X5214Y685D01*
X5214Y685D01*
Y686D01*
Y686D01*
X5214Y688D01*
X5213Y689D01*
X5213Y690D01*
X5212Y691D01*
X5212Y692D01*
X5211Y692D01*
X5211Y693D01*
X5211Y693D01*
X5209Y694D01*
X5208Y694D01*
X5206Y695D01*
X5204Y695D01*
X5203Y695D01*
X5201Y696D01*
X5200D01*
X5197Y695D01*
X5195Y695D01*
X5193Y694D01*
X5191Y694D01*
X5190Y693D01*
X5189Y693D01*
X5189Y692D01*
X5188Y692D01*
X5187Y691D01*
X5186Y689D01*
X5185Y688D01*
X5185Y686D01*
X5184Y685D01*
X5184Y683D01*
X5184Y683D01*
Y683D01*
Y682D01*
X5166Y683D01*
X5167Y685D01*
X5167Y688D01*
X5167Y689D01*
X5168Y691D01*
X5169Y693D01*
X5170Y695D01*
X5171Y696D01*
X5171Y697D01*
X5172Y699D01*
X5173Y700D01*
X5174Y701D01*
X5174Y701D01*
X5175Y702D01*
X5175Y702D01*
X5176Y702D01*
X5176Y703D01*
X5177Y704D01*
X5179Y705D01*
X5181Y706D01*
X5183Y707D01*
X5185Y708D01*
X5187Y708D01*
X5191Y709D01*
X5193Y709D01*
X5195Y710D01*
X5196Y710D01*
X5197Y710D01*
X5198Y710D01*
X5200D01*
X5203Y710D01*
D02*
G37*
G36*
X4935D02*
X4938Y710D01*
X4940Y709D01*
X4943Y709D01*
X4945Y708D01*
X4947Y708D01*
X4948Y707D01*
X4950Y706D01*
X4951Y706D01*
X4953Y705D01*
X4954Y704D01*
X4954Y704D01*
X4955Y703D01*
X4956Y703D01*
X4956Y703D01*
X4956Y703D01*
X4957Y701D01*
X4959Y700D01*
X4960Y698D01*
X4961Y697D01*
X4961Y695D01*
X4962Y693D01*
X4963Y690D01*
X4963Y689D01*
X4964Y688D01*
X4964Y687D01*
X4964Y686D01*
X4964Y685D01*
Y684D01*
Y684D01*
Y684D01*
X4964Y682D01*
X4964Y679D01*
X4963Y678D01*
X4963Y676D01*
X4962Y675D01*
X4962Y674D01*
X4961Y673D01*
X4961Y673D01*
X4960Y671D01*
X4959Y670D01*
X4958Y668D01*
X4957Y667D01*
X4956Y666D01*
X4955Y665D01*
X4954Y665D01*
X4954Y665D01*
X4953Y664D01*
X4952Y664D01*
X4950Y663D01*
X4947Y661D01*
X4945Y660D01*
X4942Y659D01*
X4941Y659D01*
X4941Y658D01*
X4940Y658D01*
X4939Y658D01*
X4939Y658D01*
X4939D01*
X4937Y657D01*
X4935Y656D01*
X4934Y655D01*
X4933Y655D01*
X4931Y654D01*
X4930Y654D01*
X4929Y653D01*
X4929Y653D01*
X4928Y652D01*
X4927Y651D01*
X4926Y651D01*
X4926Y651D01*
X4925Y650D01*
X4924Y649D01*
X4924Y648D01*
X4923Y647D01*
X4923Y646D01*
X4923Y645D01*
Y645D01*
Y644D01*
X4923Y643D01*
X4924Y641D01*
X4924Y640D01*
X4925Y639D01*
X4926Y638D01*
X4926Y637D01*
X4927Y637D01*
X4927Y637D01*
X4929Y636D01*
X4931Y635D01*
X4933Y634D01*
X4935Y634D01*
X4937Y634D01*
X4938D01*
X4938Y634D01*
X4942D01*
X4944Y634D01*
X4945Y634D01*
X4947Y634D01*
X4948Y635D01*
X4949Y635D01*
X4950Y636D01*
X4951Y636D01*
X4953Y637D01*
X4954Y637D01*
X4954Y638D01*
X4955Y638D01*
X4955Y639D01*
X4956Y641D01*
X4957Y643D01*
X4957Y645D01*
X4957Y647D01*
X4957Y648D01*
X4957Y649D01*
Y649D01*
Y649D01*
Y649D01*
X4975Y648D01*
X4975Y645D01*
X4974Y642D01*
X4974Y640D01*
X4973Y637D01*
X4973Y635D01*
X4972Y635D01*
X4972Y634D01*
X4972Y633D01*
X4972Y633D01*
X4972Y633D01*
Y633D01*
X4970Y630D01*
X4968Y628D01*
X4966Y626D01*
X4964Y625D01*
X4963Y624D01*
X4961Y623D01*
X4961Y623D01*
X4960Y622D01*
X4960Y622D01*
X4960D01*
X4957Y621D01*
X4953Y620D01*
X4950Y619D01*
X4947Y619D01*
X4945Y619D01*
X4944D01*
X4943Y619D01*
X4942Y618D01*
X4940D01*
X4937Y619D01*
X4934Y619D01*
X4931Y619D01*
X4929Y620D01*
X4927Y620D01*
X4925Y621D01*
X4923Y622D01*
X4921Y623D01*
X4919Y623D01*
X4918Y624D01*
X4917Y625D01*
X4916Y625D01*
X4915Y626D01*
X4915Y626D01*
X4914Y627D01*
X4914Y627D01*
X4913Y628D01*
X4911Y630D01*
X4910Y632D01*
X4909Y633D01*
X4908Y635D01*
X4907Y637D01*
X4907Y638D01*
X4906Y640D01*
X4906Y641D01*
X4905Y643D01*
X4905Y644D01*
X4905Y645D01*
X4905Y646D01*
Y646D01*
Y647D01*
Y647D01*
X4905Y649D01*
X4905Y650D01*
X4906Y653D01*
X4907Y656D01*
X4908Y658D01*
X4909Y660D01*
X4910Y661D01*
X4911Y662D01*
X4911Y662D01*
X4911Y662D01*
X4911Y662D01*
X4912Y663D01*
X4913Y664D01*
X4915Y665D01*
X4916Y666D01*
X4919Y667D01*
X4923Y669D01*
X4926Y671D01*
X4927Y671D01*
X4928Y672D01*
X4929Y672D01*
X4930Y673D01*
X4931Y673D01*
X4931Y673D01*
X4933Y674D01*
X4934Y674D01*
X4936Y675D01*
X4937Y676D01*
X4938Y676D01*
X4939Y677D01*
X4940Y678D01*
X4941Y678D01*
X4942Y679D01*
X4943Y679D01*
X4944Y680D01*
X4944Y680D01*
X4945Y681D01*
X4945Y682D01*
X4946Y683D01*
X4946Y684D01*
X4947Y685D01*
X4947Y685D01*
Y686D01*
Y686D01*
X4947Y688D01*
X4946Y689D01*
X4946Y690D01*
X4945Y691D01*
X4944Y692D01*
X4944Y692D01*
X4944Y693D01*
X4943Y693D01*
X4942Y694D01*
X4940Y694D01*
X4939Y695D01*
X4937Y695D01*
X4935Y695D01*
X4934Y696D01*
X4933D01*
X4930Y695D01*
X4928Y695D01*
X4926Y694D01*
X4924Y694D01*
X4923Y693D01*
X4922Y693D01*
X4921Y692D01*
X4921Y692D01*
X4920Y691D01*
X4919Y689D01*
X4918Y688D01*
X4917Y686D01*
X4917Y685D01*
X4917Y683D01*
X4916Y683D01*
Y683D01*
Y682D01*
X4899Y683D01*
X4899Y685D01*
X4900Y688D01*
X4900Y689D01*
X4901Y691D01*
X4902Y693D01*
X4902Y695D01*
X4903Y696D01*
X4904Y697D01*
X4905Y699D01*
X4906Y700D01*
X4906Y701D01*
X4907Y701D01*
X4908Y702D01*
X4908Y702D01*
X4908Y702D01*
X4909Y703D01*
X4910Y704D01*
X4912Y705D01*
X4914Y706D01*
X4916Y707D01*
X4918Y708D01*
X4920Y708D01*
X4924Y709D01*
X4926Y709D01*
X4927Y710D01*
X4929Y710D01*
X4930Y710D01*
X4931Y710D01*
X4933D01*
X4935Y710D01*
D02*
G37*
G36*
X1891Y439D02*
X1872D01*
X1868Y457D01*
X1888D01*
X1891Y439D01*
D02*
G37*
G36*
X1673Y356D02*
X1654D01*
X1640Y423D01*
X1612Y356D01*
X1593D01*
X1572Y457D01*
X1591D01*
X1606Y389D01*
X1633Y457D01*
X1652D01*
X1673Y356D01*
D02*
G37*
G36*
X1870Y382D02*
X1831D01*
X1827Y402D01*
X1866D01*
X1870Y382D01*
D02*
G37*
G36*
X1475Y458D02*
X1477Y458D01*
X1482Y457D01*
X1487Y456D01*
X1489Y455D01*
X1491Y455D01*
X1493Y454D01*
X1494Y453D01*
X1495Y452D01*
X1497Y452D01*
X1498Y451D01*
X1498Y451D01*
X1499Y451D01*
X1499Y451D01*
X1501Y449D01*
X1503Y448D01*
X1507Y444D01*
X1510Y440D01*
X1513Y437D01*
X1514Y435D01*
X1515Y434D01*
X1516Y432D01*
X1517Y431D01*
X1517Y430D01*
X1518Y429D01*
X1518Y429D01*
X1518Y429D01*
X1519Y426D01*
X1520Y423D01*
X1522Y418D01*
X1523Y413D01*
X1524Y410D01*
X1524Y408D01*
X1524Y405D01*
X1525Y404D01*
X1525Y402D01*
Y400D01*
X1525Y399D01*
Y398D01*
Y397D01*
Y397D01*
X1525Y393D01*
X1525Y390D01*
X1524Y386D01*
X1523Y383D01*
X1523Y380D01*
X1522Y378D01*
X1521Y375D01*
X1520Y373D01*
X1519Y371D01*
X1518Y369D01*
X1517Y368D01*
X1516Y367D01*
X1516Y366D01*
X1515Y365D01*
X1515Y365D01*
X1515Y365D01*
X1513Y363D01*
X1510Y361D01*
X1508Y360D01*
X1506Y358D01*
X1503Y357D01*
X1501Y356D01*
X1499Y356D01*
X1496Y355D01*
X1494Y355D01*
X1492Y354D01*
X1490Y354D01*
X1489Y354D01*
X1487D01*
X1487Y354D01*
X1486D01*
X1483Y354D01*
X1480Y354D01*
X1477Y355D01*
X1474Y355D01*
X1472Y356D01*
X1470Y356D01*
X1467Y357D01*
X1465Y358D01*
X1464Y359D01*
X1462Y360D01*
X1460Y361D01*
X1459Y361D01*
X1458Y362D01*
X1458Y362D01*
X1457Y362D01*
X1457Y363D01*
X1455Y364D01*
X1453Y366D01*
X1449Y370D01*
X1446Y375D01*
X1443Y379D01*
X1442Y381D01*
X1441Y383D01*
X1441Y384D01*
X1440Y386D01*
X1439Y387D01*
X1439Y388D01*
X1439Y388D01*
Y389D01*
X1460Y392D01*
X1461Y388D01*
X1463Y385D01*
X1464Y382D01*
X1466Y380D01*
X1467Y378D01*
X1469Y377D01*
X1469Y376D01*
X1470Y376D01*
X1470D01*
X1472Y374D01*
X1475Y373D01*
X1477Y372D01*
X1480Y372D01*
X1481Y371D01*
X1483Y371D01*
X1484Y371D01*
X1484D01*
X1486Y371D01*
X1487Y371D01*
X1490Y372D01*
X1493Y373D01*
X1495Y374D01*
X1496Y376D01*
X1498Y377D01*
X1499Y377D01*
X1499Y378D01*
X1501Y380D01*
X1502Y383D01*
X1503Y387D01*
X1504Y390D01*
X1504Y392D01*
X1504Y393D01*
Y394D01*
X1505Y395D01*
Y396D01*
Y396D01*
Y396D01*
X1504Y401D01*
X1504Y405D01*
X1503Y408D01*
X1502Y412D01*
X1502Y413D01*
X1501Y415D01*
X1501Y416D01*
X1501Y417D01*
X1501Y418D01*
X1500Y418D01*
X1500Y418D01*
Y419D01*
X1498Y423D01*
X1496Y426D01*
X1494Y429D01*
X1492Y431D01*
X1491Y433D01*
X1489Y434D01*
X1488Y435D01*
X1488Y435D01*
X1488D01*
X1485Y437D01*
X1483Y438D01*
X1480Y439D01*
X1477Y440D01*
X1475Y440D01*
X1474Y440D01*
X1473Y440D01*
X1472D01*
X1469Y440D01*
X1467Y440D01*
X1465Y439D01*
X1463Y438D01*
X1462Y438D01*
X1460Y437D01*
X1460Y437D01*
X1460Y436D01*
X1458Y435D01*
X1457Y433D01*
X1456Y431D01*
X1455Y429D01*
X1454Y427D01*
X1453Y425D01*
X1453Y425D01*
Y424D01*
X1453Y424D01*
Y424D01*
X1433Y426D01*
X1434Y428D01*
X1434Y431D01*
X1435Y433D01*
X1436Y436D01*
X1437Y438D01*
X1438Y440D01*
X1439Y442D01*
X1440Y443D01*
X1441Y445D01*
X1442Y446D01*
X1443Y447D01*
X1444Y448D01*
X1444Y449D01*
X1445Y449D01*
X1445Y449D01*
X1445Y450D01*
X1447Y451D01*
X1449Y452D01*
X1451Y454D01*
X1454Y455D01*
X1456Y455D01*
X1458Y456D01*
X1462Y457D01*
X1464Y458D01*
X1466Y458D01*
X1468Y458D01*
X1469Y458D01*
X1470Y458D01*
X1472D01*
X1475Y458D01*
D02*
G37*
G36*
X1994Y356D02*
X1922D01*
X1919Y373D01*
X1970D01*
X1953Y457D01*
X1973D01*
X1994Y356D01*
D02*
G37*
G36*
X1909D02*
X1889D01*
X1874Y429D01*
X1894D01*
X1909Y356D01*
D02*
G37*
G36*
X1823D02*
X1803D01*
X1782Y457D01*
X1802D01*
X1823Y356D01*
D02*
G37*
G36*
X1431D02*
X1352D01*
X1349Y373D01*
X1407D01*
X1401Y400D01*
X1349D01*
X1345Y417D01*
X1398D01*
X1393Y440D01*
X1338D01*
X1335Y457D01*
X1410D01*
X1431Y356D01*
D02*
G37*
G36*
X1336D02*
X1264D01*
X1261Y373D01*
X1312D01*
X1295Y457D01*
X1315D01*
X1336Y356D01*
D02*
G37*
G36*
X1250D02*
X1178D01*
X1174Y373D01*
X1226D01*
X1208Y457D01*
X1229D01*
X1250Y356D01*
D02*
G37*
G36*
X1726Y458D02*
X1730Y458D01*
X1734Y457D01*
X1736Y456D01*
X1738Y455D01*
X1740Y455D01*
X1741Y454D01*
X1742Y454D01*
X1743Y453D01*
X1744Y453D01*
X1745Y453D01*
X1745Y453D01*
X1745D01*
X1749Y450D01*
X1753Y448D01*
X1756Y445D01*
X1759Y443D01*
X1761Y440D01*
X1761Y440D01*
X1762Y439D01*
X1763Y438D01*
X1763Y438D01*
X1763Y437D01*
X1763Y437D01*
X1766Y433D01*
X1768Y429D01*
X1770Y426D01*
X1771Y422D01*
X1772Y420D01*
X1773Y419D01*
X1773Y417D01*
X1773Y416D01*
X1774Y415D01*
X1774Y415D01*
X1774Y414D01*
Y414D01*
X1775Y410D01*
X1776Y407D01*
X1776Y404D01*
X1776Y401D01*
X1777Y398D01*
Y397D01*
X1777Y397D01*
Y396D01*
Y396D01*
Y395D01*
Y395D01*
X1777Y391D01*
X1776Y388D01*
X1775Y385D01*
X1775Y382D01*
X1774Y380D01*
X1774Y379D01*
X1773Y378D01*
X1773Y377D01*
X1773Y376D01*
X1773Y376D01*
Y376D01*
X1771Y373D01*
X1769Y370D01*
X1767Y367D01*
X1765Y365D01*
X1763Y363D01*
X1761Y361D01*
X1760Y361D01*
X1760Y360D01*
X1760Y360D01*
X1759Y360D01*
X1757Y359D01*
X1756Y358D01*
X1752Y356D01*
X1748Y355D01*
X1744Y355D01*
X1742Y354D01*
X1741Y354D01*
X1739Y354D01*
X1738D01*
X1737Y354D01*
X1736D01*
X1733Y354D01*
X1730Y354D01*
X1724Y355D01*
X1722Y356D01*
X1719Y356D01*
X1717Y357D01*
X1715Y358D01*
X1713Y359D01*
X1712Y359D01*
X1710Y360D01*
X1709Y360D01*
X1708Y361D01*
X1707Y361D01*
X1707Y362D01*
X1707Y362D01*
X1704Y363D01*
X1702Y365D01*
X1698Y369D01*
X1696Y371D01*
X1694Y373D01*
X1693Y374D01*
X1692Y376D01*
X1690Y378D01*
X1689Y380D01*
X1688Y381D01*
X1687Y382D01*
X1687Y383D01*
X1686Y384D01*
X1686Y385D01*
X1686Y385D01*
X1685Y388D01*
X1684Y390D01*
X1683Y393D01*
X1682Y396D01*
X1680Y401D01*
X1680Y404D01*
X1679Y406D01*
X1679Y408D01*
X1679Y410D01*
X1679Y412D01*
X1679Y413D01*
X1679Y414D01*
Y415D01*
Y416D01*
Y416D01*
X1679Y419D01*
X1679Y423D01*
X1680Y426D01*
X1680Y429D01*
X1681Y431D01*
X1682Y434D01*
X1683Y436D01*
X1684Y438D01*
X1685Y440D01*
X1686Y442D01*
X1687Y443D01*
X1688Y445D01*
X1689Y446D01*
X1690Y446D01*
X1690Y447D01*
X1690Y447D01*
X1692Y449D01*
X1695Y451D01*
X1697Y452D01*
X1700Y453D01*
X1702Y455D01*
X1705Y456D01*
X1707Y456D01*
X1710Y457D01*
X1712Y457D01*
X1714Y458D01*
X1716Y458D01*
X1717Y458D01*
X1719Y458D01*
X1720D01*
X1726Y458D01*
D02*
G37*
G36*
X730Y1584D02*
X717D01*
Y1670D01*
X688Y1584D01*
X676D01*
X647Y1668D01*
Y1584D01*
X634D01*
Y1685D01*
X652D01*
X676Y1614D01*
X677Y1610D01*
X678Y1607D01*
X679Y1605D01*
X680Y1602D01*
X681Y1600D01*
X681Y1599D01*
X681Y1598D01*
X681Y1598D01*
X682Y1600D01*
X683Y1602D01*
X683Y1605D01*
X684Y1607D01*
X685Y1610D01*
X686Y1611D01*
X686Y1612D01*
X686Y1613D01*
X686Y1613D01*
Y1613D01*
X710Y1685D01*
X730D01*
Y1584D01*
D02*
G37*
G36*
X846D02*
X832D01*
X810Y1660D01*
X810Y1662D01*
X809Y1664D01*
X809Y1666D01*
X808Y1668D01*
X808Y1670D01*
X808Y1671D01*
X807Y1672D01*
X807Y1672D01*
Y1672D01*
X807Y1672D01*
X807Y1671D01*
X807Y1670D01*
X806Y1668D01*
X805Y1666D01*
X805Y1664D01*
X804Y1662D01*
X804Y1661D01*
X804Y1661D01*
X804Y1661D01*
Y1660D01*
X783Y1584D01*
X770D01*
X742Y1685D01*
X756D01*
X771Y1620D01*
X773Y1615D01*
X773Y1611D01*
X774Y1607D01*
X775Y1604D01*
X775Y1603D01*
X776Y1601D01*
X776Y1600D01*
X776Y1599D01*
X776Y1599D01*
Y1598D01*
X776Y1598D01*
Y1598D01*
X778Y1604D01*
X779Y1610D01*
X780Y1616D01*
X781Y1619D01*
X781Y1622D01*
X782Y1624D01*
X783Y1627D01*
X783Y1628D01*
X784Y1630D01*
X784Y1631D01*
X784Y1633D01*
X785Y1633D01*
Y1633D01*
X799Y1685D01*
X815D01*
X834Y1616D01*
X834Y1616D01*
X835Y1615D01*
X835Y1614D01*
X835Y1612D01*
X836Y1611D01*
X836Y1609D01*
X837Y1606D01*
X837Y1603D01*
X838Y1601D01*
X838Y1600D01*
X838Y1599D01*
X839Y1598D01*
X839Y1598D01*
Y1598D01*
X839Y1601D01*
X840Y1605D01*
X841Y1609D01*
X842Y1612D01*
X842Y1613D01*
X842Y1615D01*
X843Y1616D01*
X843Y1617D01*
X843Y1617D01*
X843Y1618D01*
X843Y1618D01*
Y1618D01*
X858Y1685D01*
X872D01*
X846Y1584D01*
D02*
G37*
G36*
X957D02*
X943D01*
Y1625D01*
X917D01*
X914Y1625D01*
X910Y1625D01*
X907Y1626D01*
X904Y1626D01*
X901Y1627D01*
X899Y1627D01*
X897Y1628D01*
X895Y1629D01*
X893Y1630D01*
X892Y1631D01*
X891Y1631D01*
X890Y1632D01*
X889Y1633D01*
X888Y1633D01*
X888Y1633D01*
X888Y1634D01*
X887Y1635D01*
X885Y1637D01*
X884Y1639D01*
X883Y1641D01*
X882Y1643D01*
X882Y1644D01*
X881Y1648D01*
X880Y1649D01*
X880Y1651D01*
X880Y1652D01*
X880Y1653D01*
X880Y1654D01*
Y1655D01*
Y1655D01*
Y1655D01*
X880Y1658D01*
X880Y1661D01*
X881Y1663D01*
X881Y1665D01*
X882Y1667D01*
X882Y1668D01*
X883Y1669D01*
X883Y1669D01*
X884Y1671D01*
X885Y1673D01*
X887Y1675D01*
X888Y1676D01*
X889Y1677D01*
X890Y1678D01*
X891Y1679D01*
X891Y1679D01*
X893Y1680D01*
X895Y1681D01*
X897Y1682D01*
X899Y1683D01*
X901Y1683D01*
X902Y1683D01*
X903Y1684D01*
X903D01*
X906Y1684D01*
X908Y1684D01*
X911Y1684D01*
X913Y1684D01*
X915Y1685D01*
X957D01*
Y1584D01*
D02*
G37*
G36*
X945Y876D02*
X912D01*
Y787D01*
X898D01*
Y876D01*
X865D01*
Y888D01*
X945D01*
Y876D01*
D02*
G37*
G36*
X849Y787D02*
X836D01*
Y888D01*
X849D01*
Y787D01*
D02*
G37*
G36*
X812D02*
X749D01*
Y799D01*
X799D01*
Y888D01*
X812D01*
Y787D01*
D02*
G37*
G36*
X741Y876D02*
X708D01*
Y787D01*
X694D01*
Y876D01*
X661D01*
Y888D01*
X741D01*
Y876D01*
D02*
G37*
G36*
X173Y1532D02*
X222Y1467D01*
X202D01*
X170Y1510D01*
X169Y1511D01*
X168Y1513D01*
X166Y1516D01*
X165Y1517D01*
X164Y1518D01*
X164Y1519D01*
X164Y1519D01*
X162Y1516D01*
X160Y1514D01*
X159Y1513D01*
X159Y1512D01*
X159Y1512D01*
X159Y1511D01*
X127Y1467D01*
X106D01*
X153Y1533D01*
X109Y1593D01*
X128D01*
X153Y1559D01*
X155Y1556D01*
X157Y1554D01*
X159Y1551D01*
X160Y1549D01*
X161Y1547D01*
X162Y1546D01*
X163Y1545D01*
X163Y1545D01*
X164Y1547D01*
X166Y1549D01*
X167Y1552D01*
X169Y1555D01*
X171Y1557D01*
X172Y1559D01*
X172Y1559D01*
X173Y1560D01*
X173Y1560D01*
Y1560D01*
X196Y1593D01*
X216D01*
X173Y1532D01*
D02*
G37*
G36*
X453Y1467D02*
X436D01*
Y1526D01*
X371D01*
Y1467D01*
X354D01*
Y1593D01*
X371D01*
Y1541D01*
X436D01*
Y1593D01*
X453D01*
Y1467D01*
D02*
G37*
G36*
X326D02*
X232D01*
Y1481D01*
X309D01*
Y1524D01*
X239D01*
Y1539D01*
X309D01*
Y1578D01*
X235D01*
Y1593D01*
X326D01*
Y1467D01*
D02*
G37*
G36*
X1180Y1594D02*
X1186Y1594D01*
X1191Y1592D01*
X1193Y1592D01*
X1195Y1591D01*
X1197Y1590D01*
X1199Y1590D01*
X1200Y1589D01*
X1202Y1588D01*
X1203Y1588D01*
X1204Y1588D01*
X1204Y1587D01*
X1204Y1587D01*
X1209Y1584D01*
X1213Y1580D01*
X1217Y1577D01*
X1220Y1573D01*
X1223Y1570D01*
X1223Y1568D01*
X1224Y1567D01*
X1225Y1566D01*
X1225Y1565D01*
X1225Y1565D01*
X1226Y1565D01*
X1228Y1559D01*
X1230Y1553D01*
X1231Y1547D01*
X1232Y1542D01*
X1233Y1540D01*
X1233Y1537D01*
X1233Y1536D01*
Y1534D01*
X1233Y1532D01*
Y1531D01*
Y1531D01*
Y1530D01*
X1233Y1524D01*
X1232Y1518D01*
X1231Y1512D01*
X1230Y1509D01*
X1230Y1507D01*
X1229Y1505D01*
X1229Y1503D01*
X1228Y1501D01*
X1228Y1499D01*
X1227Y1498D01*
X1227Y1497D01*
X1227Y1497D01*
Y1497D01*
X1224Y1491D01*
X1221Y1486D01*
X1217Y1482D01*
X1216Y1480D01*
X1214Y1479D01*
X1213Y1477D01*
X1211Y1476D01*
X1210Y1475D01*
X1209Y1474D01*
X1208Y1473D01*
X1208Y1473D01*
X1207Y1473D01*
X1207Y1473D01*
X1204Y1471D01*
X1202Y1470D01*
X1196Y1468D01*
X1191Y1466D01*
X1186Y1465D01*
X1183Y1465D01*
X1181Y1465D01*
X1179Y1465D01*
X1177D01*
X1176Y1464D01*
X1174D01*
X1170Y1465D01*
X1167Y1465D01*
X1163Y1465D01*
X1160Y1466D01*
X1157Y1467D01*
X1155Y1468D01*
X1152Y1469D01*
X1150Y1470D01*
X1148Y1471D01*
X1146Y1472D01*
X1144Y1473D01*
X1143Y1473D01*
X1142Y1474D01*
X1141Y1475D01*
X1141Y1475D01*
X1141Y1475D01*
X1138Y1477D01*
X1136Y1479D01*
X1134Y1482D01*
X1132Y1485D01*
X1129Y1490D01*
X1126Y1495D01*
X1125Y1497D01*
X1124Y1499D01*
X1123Y1501D01*
X1123Y1503D01*
X1122Y1504D01*
X1122Y1506D01*
X1122Y1506D01*
Y1506D01*
X1138Y1511D01*
X1139Y1508D01*
X1140Y1505D01*
X1141Y1502D01*
X1142Y1500D01*
X1143Y1498D01*
X1144Y1496D01*
X1145Y1494D01*
X1146Y1493D01*
X1147Y1491D01*
X1148Y1490D01*
X1149Y1489D01*
X1150Y1488D01*
X1151Y1487D01*
X1151Y1487D01*
X1151Y1487D01*
X1152Y1487D01*
X1153Y1485D01*
X1155Y1484D01*
X1159Y1482D01*
X1163Y1481D01*
X1167Y1480D01*
X1170Y1479D01*
X1172Y1479D01*
X1173D01*
X1174Y1479D01*
X1175D01*
X1180Y1479D01*
X1184Y1479D01*
X1187Y1480D01*
X1190Y1481D01*
X1193Y1483D01*
X1194Y1483D01*
X1195Y1483D01*
X1196Y1484D01*
X1196Y1484D01*
X1197Y1484D01*
X1197D01*
X1200Y1487D01*
X1203Y1490D01*
X1206Y1493D01*
X1208Y1496D01*
X1209Y1498D01*
X1210Y1500D01*
X1211Y1501D01*
X1211Y1502D01*
X1211Y1502D01*
Y1502D01*
X1213Y1507D01*
X1214Y1512D01*
X1215Y1517D01*
X1215Y1521D01*
X1216Y1523D01*
X1216Y1525D01*
Y1526D01*
X1216Y1528D01*
Y1529D01*
Y1530D01*
Y1530D01*
Y1530D01*
X1216Y1535D01*
X1215Y1540D01*
X1215Y1544D01*
X1214Y1547D01*
X1213Y1550D01*
X1213Y1552D01*
X1213Y1553D01*
X1213Y1554D01*
X1212Y1554D01*
X1212Y1555D01*
Y1555D01*
X1210Y1559D01*
X1208Y1563D01*
X1206Y1566D01*
X1204Y1569D01*
X1202Y1571D01*
X1200Y1572D01*
X1199Y1573D01*
X1199Y1573D01*
X1198D01*
X1195Y1576D01*
X1190Y1578D01*
X1186Y1579D01*
X1183Y1580D01*
X1179Y1580D01*
X1178Y1580D01*
X1176D01*
X1176Y1581D01*
X1174D01*
X1170Y1580D01*
X1165Y1580D01*
X1162Y1579D01*
X1159Y1577D01*
X1156Y1576D01*
X1155Y1575D01*
X1153Y1575D01*
X1153Y1574D01*
X1150Y1571D01*
X1147Y1568D01*
X1145Y1565D01*
X1143Y1562D01*
X1142Y1559D01*
X1141Y1557D01*
X1141Y1556D01*
X1141Y1555D01*
X1140Y1555D01*
X1140Y1554D01*
Y1554D01*
X1124Y1558D01*
X1125Y1561D01*
X1126Y1564D01*
X1127Y1567D01*
X1129Y1570D01*
X1130Y1572D01*
X1132Y1574D01*
X1133Y1576D01*
X1135Y1578D01*
X1136Y1580D01*
X1137Y1581D01*
X1139Y1582D01*
X1140Y1583D01*
X1141Y1584D01*
X1141Y1585D01*
X1142Y1585D01*
X1142Y1585D01*
X1144Y1587D01*
X1147Y1588D01*
X1149Y1590D01*
X1152Y1591D01*
X1158Y1592D01*
X1163Y1594D01*
X1165Y1594D01*
X1167Y1594D01*
X1169Y1594D01*
X1171Y1595D01*
X1172Y1595D01*
X1174D01*
X1180Y1594D01*
D02*
G37*
G36*
X1487Y1467D02*
X1469D01*
X1455Y1505D01*
X1403D01*
X1388Y1467D01*
X1369D01*
X1420Y1593D01*
X1439D01*
X1487Y1467D01*
D02*
G37*
G36*
X1355D02*
X1310D01*
X1306Y1467D01*
X1302Y1467D01*
X1298Y1467D01*
X1296Y1468D01*
X1293Y1468D01*
X1291Y1468D01*
X1291Y1468D01*
X1290Y1469D01*
X1290D01*
X1286Y1469D01*
X1284Y1471D01*
X1281Y1471D01*
X1279Y1473D01*
X1277Y1473D01*
X1276Y1474D01*
X1275Y1475D01*
X1275Y1475D01*
X1272Y1477D01*
X1270Y1479D01*
X1268Y1480D01*
X1267Y1482D01*
X1265Y1484D01*
X1264Y1485D01*
X1263Y1486D01*
X1263Y1486D01*
X1261Y1489D01*
X1260Y1492D01*
X1258Y1495D01*
X1257Y1498D01*
X1256Y1501D01*
X1255Y1503D01*
X1255Y1504D01*
X1255Y1504D01*
X1255Y1504D01*
Y1505D01*
X1253Y1509D01*
X1253Y1513D01*
X1252Y1518D01*
X1251Y1522D01*
X1251Y1525D01*
Y1526D01*
X1251Y1528D01*
Y1529D01*
Y1530D01*
Y1530D01*
Y1530D01*
X1251Y1536D01*
X1252Y1542D01*
X1253Y1547D01*
X1253Y1549D01*
X1254Y1551D01*
X1254Y1553D01*
X1255Y1555D01*
X1255Y1557D01*
X1256Y1558D01*
X1256Y1559D01*
X1256Y1560D01*
X1256Y1560D01*
Y1560D01*
X1258Y1565D01*
X1261Y1569D01*
X1263Y1573D01*
X1266Y1576D01*
X1268Y1578D01*
X1270Y1580D01*
X1270Y1581D01*
X1271Y1581D01*
X1271Y1582D01*
X1271Y1582D01*
X1274Y1584D01*
X1277Y1586D01*
X1280Y1588D01*
X1283Y1589D01*
X1286Y1590D01*
X1288Y1590D01*
X1288Y1591D01*
X1289D01*
X1289Y1591D01*
X1290D01*
X1293Y1591D01*
X1296Y1592D01*
X1300Y1592D01*
X1304Y1592D01*
X1307Y1593D01*
X1355D01*
Y1467D01*
D02*
G37*
%LPC*%
G36*
X2741Y700D02*
X2736Y664D01*
X2760D01*
X2741Y700D01*
D02*
G37*
G36*
X2668Y703D02*
X2646D01*
X2644Y703D01*
X2642Y703D01*
X2640Y703D01*
X2639Y702D01*
X2639Y702D01*
X2638Y702D01*
X2638Y702D01*
X2637Y701D01*
X2636Y700D01*
X2635Y699D01*
X2635Y697D01*
X2634Y696D01*
X2634Y695D01*
Y695D01*
Y695D01*
X2634Y693D01*
X2635Y692D01*
X2635Y690D01*
X2636Y689D01*
X2636Y688D01*
X2637Y687D01*
X2637Y687D01*
X2637Y687D01*
X2638Y686D01*
X2639Y684D01*
X2641Y683D01*
X2642Y683D01*
X2643Y682D01*
X2644Y682D01*
X2644Y681D01*
X2644Y681D01*
X2646Y681D01*
X2647Y681D01*
X2648Y681D01*
X2649Y680D01*
X2653Y680D01*
X2656Y680D01*
X2659Y680D01*
X2660Y680D01*
X2673D01*
X2668Y703D01*
D02*
G37*
G36*
X2401D02*
X2379D01*
X2376Y703D01*
X2375Y703D01*
X2373Y703D01*
X2372Y702D01*
X2372Y702D01*
X2371Y702D01*
X2371Y702D01*
X2370Y701D01*
X2369Y700D01*
X2368Y699D01*
X2368Y697D01*
X2367Y696D01*
X2367Y695D01*
Y695D01*
Y695D01*
X2367Y693D01*
X2367Y692D01*
X2368Y690D01*
X2368Y689D01*
X2369Y688D01*
X2369Y687D01*
X2370Y687D01*
X2370Y687D01*
X2371Y686D01*
X2372Y684D01*
X2373Y683D01*
X2375Y683D01*
X2376Y682D01*
X2377Y682D01*
X2377Y681D01*
X2377Y681D01*
X2378Y681D01*
X2380Y681D01*
X2381Y681D01*
X2382Y680D01*
X2386Y680D01*
X2389Y680D01*
X2392Y680D01*
X2393Y680D01*
X2406D01*
X2401Y703D01*
D02*
G37*
G36*
X1423Y92D02*
X1422D01*
X1421Y92D01*
X1420Y92D01*
X1419Y92D01*
X1418Y91D01*
X1416Y91D01*
X1416Y90D01*
X1415Y90D01*
X1414Y89D01*
X1414Y89D01*
X1413Y89D01*
X1413Y88D01*
X1413Y88D01*
X1412Y88D01*
X1412Y88D01*
X1412Y88D01*
X1412Y87D01*
X1411Y86D01*
X1410Y85D01*
X1410Y84D01*
X1409Y82D01*
X1409Y79D01*
X1409Y79D01*
X1409Y78D01*
X1409Y77D01*
X1409Y76D01*
X1408Y75D01*
Y75D01*
Y75D01*
Y75D01*
X1409Y73D01*
X1409Y71D01*
X1409Y70D01*
X1409Y69D01*
X1409Y68D01*
X1410Y66D01*
X1410Y66D01*
X1410Y65D01*
X1411Y64D01*
X1411Y63D01*
X1411Y63D01*
X1412Y62D01*
X1412Y62D01*
X1412Y62D01*
X1412Y61D01*
X1412Y61D01*
X1413Y61D01*
X1414Y60D01*
X1415Y59D01*
X1416Y59D01*
X1416Y58D01*
X1417Y58D01*
X1419Y58D01*
X1420Y57D01*
X1421Y57D01*
X1421Y57D01*
X1422Y57D01*
X1422D01*
X1423Y57D01*
X1425Y57D01*
X1426Y57D01*
X1427Y58D01*
X1428Y58D01*
X1430Y59D01*
X1430Y60D01*
X1431Y60D01*
X1431Y60D01*
X1432Y61D01*
X1432Y61D01*
X1432Y61D01*
X1432Y61D01*
X1432Y61D01*
X1433Y62D01*
X1434Y63D01*
X1434Y64D01*
X1435Y65D01*
X1435Y67D01*
X1436Y70D01*
X1436Y71D01*
X1436Y71D01*
X1436Y72D01*
X1436Y73D01*
X1436Y74D01*
Y74D01*
Y74D01*
Y74D01*
X1436Y76D01*
X1436Y77D01*
X1436Y79D01*
X1436Y80D01*
X1435Y81D01*
X1435Y82D01*
X1435Y83D01*
X1434Y84D01*
X1434Y85D01*
X1434Y86D01*
X1433Y86D01*
X1433Y87D01*
X1433Y87D01*
X1433Y87D01*
X1433Y87D01*
X1433Y88D01*
X1432Y88D01*
X1431Y89D01*
X1430Y90D01*
X1429Y90D01*
X1428Y91D01*
X1428Y91D01*
X1426Y91D01*
X1425Y92D01*
X1424Y92D01*
X1423Y92D01*
X1423Y92D01*
D02*
G37*
G36*
X1971D02*
X1970D01*
X1969Y92D01*
X1968Y92D01*
X1967Y92D01*
X1966Y91D01*
X1964Y91D01*
X1964Y90D01*
X1963Y90D01*
X1962Y89D01*
X1962Y89D01*
X1961Y89D01*
X1961Y88D01*
X1961Y88D01*
X1960Y88D01*
X1960Y88D01*
X1960Y88D01*
X1960Y87D01*
X1959Y86D01*
X1959Y85D01*
X1958Y84D01*
X1957Y82D01*
X1957Y79D01*
X1957Y79D01*
X1957Y78D01*
X1957Y77D01*
X1957Y76D01*
X1956Y75D01*
Y75D01*
Y75D01*
Y75D01*
X1957Y73D01*
X1957Y71D01*
X1957Y70D01*
X1957Y69D01*
X1957Y68D01*
X1958Y66D01*
X1958Y66D01*
X1958Y65D01*
X1959Y64D01*
X1959Y63D01*
X1959Y63D01*
X1960Y62D01*
X1960Y62D01*
X1960Y62D01*
X1960Y61D01*
X1960Y61D01*
X1961Y61D01*
X1962Y60D01*
X1963Y59D01*
X1964Y59D01*
X1964Y58D01*
X1965Y58D01*
X1967Y58D01*
X1968Y57D01*
X1969Y57D01*
X1969Y57D01*
X1970Y57D01*
X1970D01*
X1971Y57D01*
X1973Y57D01*
X1974Y57D01*
X1975Y58D01*
X1976Y58D01*
X1978Y59D01*
X1978Y60D01*
X1979Y60D01*
X1979Y60D01*
X1980Y61D01*
X1980Y61D01*
X1980Y61D01*
X1980Y61D01*
X1980Y61D01*
X1981Y62D01*
X1982Y63D01*
X1982Y64D01*
X1983Y65D01*
X1983Y67D01*
X1984Y70D01*
X1984Y71D01*
X1984Y71D01*
X1984Y72D01*
X1984Y73D01*
X1984Y74D01*
Y74D01*
Y74D01*
Y74D01*
X1984Y76D01*
X1984Y77D01*
X1984Y79D01*
X1984Y80D01*
X1984Y81D01*
X1983Y82D01*
X1983Y83D01*
X1983Y84D01*
X1982Y85D01*
X1982Y86D01*
X1981Y86D01*
X1981Y87D01*
X1981Y87D01*
X1981Y87D01*
X1981Y87D01*
X1981Y88D01*
X1980Y88D01*
X1979Y89D01*
X1978Y90D01*
X1977Y90D01*
X1977Y91D01*
X1976Y91D01*
X1974Y91D01*
X1973Y92D01*
X1972Y92D01*
X1971Y92D01*
X1971Y92D01*
D02*
G37*
G36*
X6730Y350D02*
X6713D01*
Y317D01*
X6731D01*
X6732Y317D01*
X6735Y317D01*
X6736Y318D01*
X6737Y318D01*
X6738D01*
X6738Y318D01*
X6738Y318D01*
X6739Y319D01*
X6741Y320D01*
X6743Y322D01*
X6743Y322D01*
X6743Y322D01*
X6744Y322D01*
X6744Y323D01*
X6745Y325D01*
X6746Y327D01*
Y327D01*
X6746Y328D01*
X6746Y328D01*
X6746Y329D01*
X6747Y331D01*
X6747Y333D01*
Y334D01*
Y334D01*
Y335D01*
X6747Y336D01*
X6747Y338D01*
X6746Y340D01*
Y340D01*
X6746Y341D01*
X6746Y341D01*
X6745Y342D01*
X6744Y344D01*
X6743Y345D01*
X6742Y345D01*
X6742Y346D01*
X6742Y346D01*
X6741Y346D01*
X6739Y347D01*
X6737Y348D01*
X6737D01*
X6736Y349D01*
X6735Y349D01*
X6734Y349D01*
X6733Y349D01*
X6732Y349D01*
X6730Y350D01*
D02*
G37*
G36*
X6732Y306D02*
X6713D01*
Y270D01*
X6735D01*
X6736Y270D01*
X6738Y271D01*
X6741Y271D01*
X6741D01*
X6742Y271D01*
X6742Y272D01*
X6743Y272D01*
X6745Y273D01*
X6747Y274D01*
X6747Y274D01*
X6748Y275D01*
X6749Y276D01*
X6750Y277D01*
X6751Y280D01*
Y280D01*
X6752Y280D01*
X6752Y281D01*
X6752Y282D01*
X6752Y283D01*
X6753Y284D01*
X6753Y287D01*
Y287D01*
Y288D01*
Y289D01*
X6753Y290D01*
X6752Y292D01*
X6752Y295D01*
Y295D01*
X6751Y296D01*
X6751Y296D01*
X6750Y297D01*
X6749Y299D01*
X6747Y301D01*
X6747Y301D01*
X6747Y301D01*
X6746Y302D01*
X6745Y302D01*
X6744Y303D01*
X6743Y303D01*
X6740Y305D01*
X6740D01*
X6740Y305D01*
X6739Y305D01*
X6737Y305D01*
X6736Y306D01*
X6734Y306D01*
X6732Y306D01*
D02*
G37*
G36*
X7797Y347D02*
X7797D01*
X7780Y296D01*
X7815D01*
X7797Y347D01*
D02*
G37*
G36*
X7637Y350D02*
X7623D01*
Y315D01*
X7638D01*
X7639Y315D01*
X7642Y316D01*
X7645Y316D01*
X7646D01*
X7646Y317D01*
X7647Y317D01*
X7648Y317D01*
X7650Y318D01*
X7652Y320D01*
X7652Y320D01*
X7652Y320D01*
X7653Y321D01*
X7653Y322D01*
X7655Y323D01*
X7656Y325D01*
Y326D01*
X7656Y326D01*
X7656Y327D01*
X7657Y328D01*
X7657Y330D01*
X7657Y332D01*
Y332D01*
Y333D01*
X7657Y334D01*
X7657Y336D01*
X7656Y337D01*
X7656Y339D01*
X7655Y341D01*
X7654Y342D01*
X7654Y343D01*
X7654Y343D01*
X7653Y344D01*
X7652Y345D01*
X7651Y346D01*
X7649Y347D01*
X7647Y348D01*
X7645Y349D01*
X7645Y349D01*
X7644Y349D01*
X7643Y349D01*
X7641Y349D01*
X7641D01*
X7640Y349D01*
X7638D01*
X7637Y350D01*
D02*
G37*
G36*
X7373Y351D02*
X7371D01*
X7370Y350D01*
X7368Y350D01*
X7365Y350D01*
X7363Y349D01*
X7360Y348D01*
X7358Y347D01*
X7358Y347D01*
X7357Y346D01*
X7356Y346D01*
X7354Y345D01*
X7353Y343D01*
X7351Y342D01*
X7350Y340D01*
X7348Y338D01*
X7348Y338D01*
X7348Y337D01*
X7347Y336D01*
X7346Y335D01*
X7345Y333D01*
X7344Y330D01*
X7344Y328D01*
X7343Y325D01*
Y325D01*
X7343Y324D01*
X7342Y323D01*
X7342Y321D01*
X7342Y318D01*
X7342Y316D01*
X7341Y313D01*
Y310D01*
Y310D01*
Y310D01*
Y309D01*
Y307D01*
X7342Y305D01*
X7342Y302D01*
X7342Y299D01*
X7343Y293D01*
Y293D01*
X7343Y292D01*
X7344Y291D01*
X7344Y289D01*
X7345Y287D01*
X7346Y285D01*
X7346Y283D01*
X7348Y281D01*
X7348Y280D01*
X7348Y280D01*
X7349Y279D01*
X7350Y277D01*
X7352Y276D01*
X7353Y275D01*
X7355Y273D01*
X7357Y272D01*
X7358Y272D01*
X7358Y272D01*
X7360Y271D01*
X7361Y271D01*
X7364Y270D01*
X7366Y270D01*
X7369Y269D01*
X7372Y269D01*
X7374D01*
X7375Y269D01*
X7377Y269D01*
X7380Y270D01*
X7382Y271D01*
X7385Y271D01*
X7387Y272D01*
X7387Y273D01*
X7388Y273D01*
X7389Y274D01*
X7391Y275D01*
X7392Y276D01*
X7394Y277D01*
X7395Y279D01*
X7397Y281D01*
X7397Y281D01*
X7397Y282D01*
X7398Y283D01*
X7399Y285D01*
X7400Y287D01*
X7401Y289D01*
X7401Y291D01*
X7402Y294D01*
Y295D01*
X7402Y295D01*
X7403Y297D01*
X7403Y299D01*
X7403Y301D01*
X7403Y304D01*
X7404Y307D01*
Y310D01*
Y310D01*
Y310D01*
Y311D01*
Y313D01*
X7403Y315D01*
X7403Y318D01*
X7403Y320D01*
X7402Y326D01*
Y326D01*
X7402Y327D01*
X7401Y329D01*
X7401Y330D01*
X7400Y332D01*
X7399Y334D01*
X7398Y337D01*
X7397Y339D01*
X7397Y339D01*
X7396Y340D01*
X7395Y341D01*
X7394Y342D01*
X7393Y343D01*
X7391Y345D01*
X7390Y346D01*
X7387Y347D01*
X7387Y348D01*
X7386Y348D01*
X7385Y348D01*
X7383Y349D01*
X7381Y350D01*
X7379Y350D01*
X7376Y350D01*
X7373Y351D01*
D02*
G37*
G36*
X7092D02*
X7090D01*
X7088Y350D01*
X7086Y350D01*
X7084Y350D01*
X7082Y349D01*
X7079Y348D01*
X7077Y347D01*
X7077Y347D01*
X7076Y346D01*
X7075Y346D01*
X7073Y345D01*
X7072Y343D01*
X7070Y342D01*
X7068Y340D01*
X7067Y338D01*
X7067Y338D01*
X7066Y337D01*
X7066Y336D01*
X7065Y335D01*
X7064Y333D01*
X7063Y330D01*
X7062Y328D01*
X7062Y325D01*
Y325D01*
X7061Y324D01*
X7061Y323D01*
X7061Y321D01*
X7061Y318D01*
X7060Y316D01*
X7060Y313D01*
Y310D01*
Y310D01*
Y310D01*
Y309D01*
Y307D01*
X7060Y305D01*
X7061Y302D01*
X7061Y299D01*
X7062Y293D01*
Y293D01*
X7062Y292D01*
X7062Y291D01*
X7063Y289D01*
X7063Y287D01*
X7064Y285D01*
X7065Y283D01*
X7067Y281D01*
X7067Y280D01*
X7067Y280D01*
X7068Y279D01*
X7069Y277D01*
X7071Y276D01*
X7072Y275D01*
X7074Y273D01*
X7076Y272D01*
X7076Y272D01*
X7077Y272D01*
X7078Y271D01*
X7080Y271D01*
X7082Y270D01*
X7085Y270D01*
X7088Y269D01*
X7091Y269D01*
X7092D01*
X7094Y269D01*
X7096Y269D01*
X7098Y270D01*
X7101Y271D01*
X7103Y271D01*
X7106Y272D01*
X7106Y273D01*
X7107Y273D01*
X7108Y274D01*
X7109Y275D01*
X7111Y276D01*
X7113Y277D01*
X7114Y279D01*
X7116Y281D01*
X7116Y281D01*
X7116Y282D01*
X7117Y283D01*
X7118Y285D01*
X7119Y287D01*
X7119Y289D01*
X7120Y291D01*
X7121Y294D01*
Y295D01*
X7121Y295D01*
X7121Y297D01*
X7122Y299D01*
X7122Y301D01*
X7122Y304D01*
X7123Y307D01*
Y310D01*
Y310D01*
Y310D01*
Y311D01*
Y313D01*
X7122Y315D01*
X7122Y318D01*
X7122Y320D01*
X7121Y326D01*
Y326D01*
X7121Y327D01*
X7120Y329D01*
X7120Y330D01*
X7119Y332D01*
X7118Y334D01*
X7117Y337D01*
X7116Y339D01*
X7116Y339D01*
X7115Y340D01*
X7114Y341D01*
X7113Y342D01*
X7112Y343D01*
X7110Y345D01*
X7108Y346D01*
X7106Y347D01*
X7106Y348D01*
X7105Y348D01*
X7104Y348D01*
X7102Y349D01*
X7100Y350D01*
X7098Y350D01*
X7095Y350D01*
X7092Y351D01*
D02*
G37*
G36*
X6828D02*
X6826D01*
X6825Y350D01*
X6823Y350D01*
X6820Y350D01*
X6818Y349D01*
X6815Y348D01*
X6813Y347D01*
X6813Y347D01*
X6812Y346D01*
X6811Y346D01*
X6810Y345D01*
X6808Y343D01*
X6806Y342D01*
X6805Y340D01*
X6803Y338D01*
X6803Y338D01*
X6803Y337D01*
X6802Y336D01*
X6801Y335D01*
X6800Y333D01*
X6799Y330D01*
X6799Y328D01*
X6798Y325D01*
Y325D01*
X6798Y324D01*
X6797Y323D01*
X6797Y321D01*
X6797Y318D01*
X6797Y316D01*
X6796Y313D01*
Y310D01*
Y310D01*
Y310D01*
Y309D01*
Y307D01*
X6797Y305D01*
X6797Y302D01*
X6797Y299D01*
X6798Y293D01*
Y293D01*
X6798Y292D01*
X6799Y291D01*
X6799Y289D01*
X6800Y287D01*
X6801Y285D01*
X6801Y283D01*
X6803Y281D01*
X6803Y280D01*
X6803Y280D01*
X6804Y279D01*
X6805Y277D01*
X6807Y276D01*
X6808Y275D01*
X6810Y273D01*
X6812Y272D01*
X6813Y272D01*
X6813Y272D01*
X6815Y271D01*
X6816Y271D01*
X6819Y270D01*
X6821Y270D01*
X6824Y269D01*
X6827Y269D01*
X6829D01*
X6830Y269D01*
X6832Y269D01*
X6835Y270D01*
X6837Y271D01*
X6840Y271D01*
X6842Y272D01*
X6842Y273D01*
X6843Y273D01*
X6844Y274D01*
X6846Y275D01*
X6847Y276D01*
X6849Y277D01*
X6850Y279D01*
X6852Y281D01*
X6852Y281D01*
X6852Y282D01*
X6853Y283D01*
X6854Y285D01*
X6855Y287D01*
X6856Y289D01*
X6856Y291D01*
X6857Y294D01*
Y295D01*
X6857Y295D01*
X6858Y297D01*
X6858Y299D01*
X6858Y301D01*
X6859Y304D01*
X6859Y307D01*
Y310D01*
Y310D01*
Y310D01*
Y311D01*
Y313D01*
X6859Y315D01*
X6858Y318D01*
X6858Y320D01*
X6857Y326D01*
Y326D01*
X6857Y327D01*
X6856Y329D01*
X6856Y330D01*
X6855Y332D01*
X6854Y334D01*
X6853Y337D01*
X6852Y339D01*
X6852Y339D01*
X6851Y340D01*
X6850Y341D01*
X6849Y342D01*
X6848Y343D01*
X6846Y345D01*
X6845Y346D01*
X6842Y347D01*
X6842Y348D01*
X6841Y348D01*
X6840Y348D01*
X6838Y349D01*
X6836Y350D01*
X6834Y350D01*
X6831Y350D01*
X6828Y351D01*
D02*
G37*
G36*
X4812Y3858D02*
X4753D01*
Y3792D01*
X4812D01*
Y3858D01*
D02*
G37*
G36*
X4608D02*
X4548D01*
Y3792D01*
X4608D01*
Y3858D01*
D02*
G37*
G36*
X4119Y3895D02*
X4046D01*
Y3795D01*
X4103D01*
X4119Y3778D01*
Y3895D01*
D02*
G37*
G36*
X3621Y3858D02*
X3562D01*
Y3792D01*
X3621D01*
Y3858D01*
D02*
G37*
G36*
X2800D02*
X2740D01*
Y3792D01*
X2800D01*
Y3858D01*
D02*
G37*
G36*
X4868Y2997D02*
X4845D01*
X4843Y2996D01*
X4841Y2996D01*
X4840Y2996D01*
X4839Y2996D01*
X4838Y2995D01*
X4838Y2995D01*
X4838Y2995D01*
X4837Y2994D01*
X4836Y2993D01*
X4835Y2992D01*
X4834Y2991D01*
X4834Y2990D01*
X4834Y2989D01*
Y2988D01*
Y2988D01*
X4834Y2986D01*
X4834Y2985D01*
X4835Y2984D01*
X4835Y2983D01*
X4836Y2981D01*
X4836Y2981D01*
X4837Y2980D01*
X4837Y2980D01*
X4838Y2979D01*
X4839Y2978D01*
X4840Y2977D01*
X4841Y2976D01*
X4843Y2975D01*
X4843Y2975D01*
X4844Y2975D01*
X4844Y2975D01*
X4845Y2974D01*
X4846Y2974D01*
X4848Y2974D01*
X4849Y2974D01*
X4852Y2973D01*
X4856Y2973D01*
X4859Y2973D01*
X4860Y2973D01*
X4873D01*
X4868Y2997D01*
D02*
G37*
G36*
X4684D02*
X4665D01*
X4663Y2997D01*
X4662D01*
X4661Y2996D01*
X4660D01*
X4660Y2996D01*
X4660D01*
X4659Y2996D01*
X4658Y2996D01*
X4657Y2995D01*
X4656Y2995D01*
X4655Y2994D01*
X4655Y2994D01*
X4655Y2993D01*
X4655Y2993D01*
X4654Y2992D01*
X4653Y2992D01*
X4653Y2991D01*
X4653Y2990D01*
X4653Y2989D01*
X4653Y2988D01*
Y2988D01*
Y2988D01*
X4653Y2987D01*
X4653Y2985D01*
X4653Y2984D01*
X4654Y2983D01*
X4654Y2983D01*
X4654Y2982D01*
X4655Y2981D01*
X4655Y2981D01*
X4656Y2980D01*
X4657Y2979D01*
X4658Y2979D01*
X4659Y2978D01*
X4659Y2978D01*
X4660Y2977D01*
X4661Y2977D01*
X4661Y2977D01*
X4663Y2977D01*
X4665Y2976D01*
X4667Y2976D01*
X4669Y2976D01*
X4671D01*
X4672Y2976D01*
X4688D01*
X4684Y2997D01*
D02*
G37*
G36*
X4691Y2960D02*
X4670D01*
X4667Y2960D01*
X4665Y2960D01*
X4663Y2960D01*
X4661Y2959D01*
X4660Y2958D01*
X4659Y2958D01*
X4659Y2958D01*
X4659Y2958D01*
X4658Y2956D01*
X4657Y2955D01*
X4656Y2954D01*
X4656Y2953D01*
X4656Y2952D01*
X4655Y2951D01*
Y2951D01*
Y2950D01*
X4656Y2949D01*
X4656Y2948D01*
X4656Y2947D01*
X4657Y2946D01*
X4657Y2945D01*
X4657Y2944D01*
X4658Y2944D01*
X4658Y2943D01*
X4659Y2942D01*
X4660Y2941D01*
X4661Y2941D01*
X4662Y2940D01*
X4663Y2939D01*
X4663Y2939D01*
X4664Y2939D01*
X4664Y2939D01*
X4665Y2939D01*
X4666Y2938D01*
X4668Y2938D01*
X4670Y2938D01*
X4673Y2938D01*
X4675D01*
X4676Y2937D01*
X4696D01*
X4691Y2960D01*
D02*
G37*
G36*
X4589Y2999D02*
X4589D01*
X4587Y2999D01*
X4586Y2998D01*
X4585Y2998D01*
X4584Y2997D01*
X4583Y2997D01*
X4583Y2996D01*
X4582Y2996D01*
X4582Y2996D01*
X4581Y2995D01*
X4581Y2994D01*
X4580Y2993D01*
X4580Y2992D01*
X4580Y2991D01*
X4579Y2990D01*
Y2989D01*
Y2989D01*
X4580Y2987D01*
X4580Y2986D01*
X4581Y2984D01*
X4581Y2983D01*
X4582Y2982D01*
X4582Y2981D01*
X4583Y2981D01*
X4583Y2981D01*
X4584Y2980D01*
X4586Y2979D01*
X4587Y2978D01*
X4588Y2978D01*
X4589Y2977D01*
X4590Y2977D01*
X4591D01*
X4593Y2977D01*
X4594Y2978D01*
X4595Y2978D01*
X4596Y2979D01*
X4597Y2979D01*
X4597Y2979D01*
X4598Y2980D01*
X4598Y2980D01*
X4599Y2981D01*
X4599Y2982D01*
X4600Y2983D01*
X4600Y2984D01*
X4600Y2985D01*
X4600Y2986D01*
Y2986D01*
Y2987D01*
X4600Y2988D01*
X4600Y2990D01*
X4599Y2991D01*
X4599Y2993D01*
X4598Y2994D01*
X4597Y2995D01*
X4597Y2995D01*
X4597Y2995D01*
X4595Y2996D01*
X4594Y2997D01*
X4593Y2998D01*
X4591Y2998D01*
X4590Y2999D01*
X4589Y2999D01*
D02*
G37*
G36*
X4594Y2964D02*
X4594D01*
X4593Y2964D01*
X4591Y2964D01*
X4590Y2963D01*
X4589Y2963D01*
X4588Y2962D01*
X4588Y2962D01*
X4587Y2961D01*
X4587Y2961D01*
X4586Y2960D01*
X4585Y2959D01*
X4585Y2958D01*
X4585Y2956D01*
X4584Y2955D01*
X4584Y2955D01*
Y2954D01*
Y2954D01*
X4584Y2951D01*
X4585Y2949D01*
X4585Y2947D01*
X4586Y2945D01*
X4587Y2943D01*
X4587Y2942D01*
X4588Y2941D01*
X4588Y2941D01*
Y2941D01*
X4589Y2940D01*
X4589Y2939D01*
X4591Y2938D01*
X4593Y2936D01*
X4594Y2936D01*
X4596Y2935D01*
X4597Y2935D01*
X4598Y2935D01*
X4598D01*
X4600Y2935D01*
X4601Y2935D01*
X4602Y2936D01*
X4603Y2936D01*
X4604Y2937D01*
X4605Y2938D01*
X4605Y2938D01*
X4605Y2938D01*
X4606Y2939D01*
X4607Y2940D01*
X4607Y2942D01*
X4607Y2943D01*
X4608Y2944D01*
X4608Y2945D01*
Y2945D01*
Y2946D01*
X4608Y2949D01*
X4607Y2951D01*
X4607Y2954D01*
X4606Y2955D01*
X4605Y2957D01*
X4604Y2958D01*
X4604Y2959D01*
X4604Y2959D01*
X4602Y2961D01*
X4600Y2962D01*
X4599Y2963D01*
X4597Y2963D01*
X4596Y2964D01*
X4595Y2964D01*
X4594Y2964D01*
D02*
G37*
G36*
X4521Y2999D02*
X4520D01*
X4519Y2999D01*
X4517Y2998D01*
X4516Y2998D01*
X4515Y2997D01*
X4514Y2997D01*
X4514Y2996D01*
X4514Y2996D01*
X4513Y2996D01*
X4513Y2995D01*
X4512Y2994D01*
X4511Y2993D01*
X4511Y2992D01*
X4511Y2991D01*
X4511Y2990D01*
Y2989D01*
Y2989D01*
X4511Y2987D01*
X4511Y2986D01*
X4512Y2984D01*
X4513Y2983D01*
X4513Y2982D01*
X4514Y2981D01*
X4514Y2981D01*
X4514Y2981D01*
X4516Y2980D01*
X4517Y2979D01*
X4519Y2978D01*
X4520Y2978D01*
X4521Y2977D01*
X4522Y2977D01*
X4523D01*
X4524Y2977D01*
X4525Y2978D01*
X4526Y2978D01*
X4527Y2979D01*
X4528Y2979D01*
X4529Y2979D01*
X4529Y2980D01*
X4529Y2980D01*
X4530Y2981D01*
X4531Y2982D01*
X4531Y2983D01*
X4531Y2984D01*
X4531Y2985D01*
X4532Y2986D01*
Y2986D01*
Y2987D01*
X4531Y2988D01*
X4531Y2990D01*
X4531Y2991D01*
X4530Y2993D01*
X4529Y2994D01*
X4529Y2995D01*
X4528Y2995D01*
X4528Y2995D01*
X4527Y2996D01*
X4526Y2997D01*
X4524Y2998D01*
X4523Y2998D01*
X4522Y2999D01*
X4521Y2999D01*
D02*
G37*
G36*
X4526Y2964D02*
X4526D01*
X4524Y2964D01*
X4523Y2964D01*
X4521Y2963D01*
X4520Y2963D01*
X4520Y2962D01*
X4519Y2962D01*
X4519Y2961D01*
X4518Y2961D01*
X4518Y2960D01*
X4517Y2959D01*
X4516Y2958D01*
X4516Y2956D01*
X4516Y2955D01*
X4516Y2955D01*
Y2954D01*
Y2954D01*
X4516Y2951D01*
X4516Y2949D01*
X4517Y2947D01*
X4517Y2945D01*
X4518Y2943D01*
X4519Y2942D01*
X4519Y2941D01*
X4519Y2941D01*
Y2941D01*
X4520Y2940D01*
X4521Y2939D01*
X4522Y2938D01*
X4524Y2936D01*
X4526Y2936D01*
X4527Y2935D01*
X4528Y2935D01*
X4529Y2935D01*
X4530D01*
X4531Y2935D01*
X4532Y2935D01*
X4534Y2936D01*
X4535Y2936D01*
X4536Y2937D01*
X4536Y2938D01*
X4536Y2938D01*
X4537Y2938D01*
X4537Y2939D01*
X4538Y2940D01*
X4539Y2942D01*
X4539Y2943D01*
X4539Y2944D01*
X4539Y2945D01*
Y2945D01*
Y2946D01*
X4539Y2949D01*
X4539Y2951D01*
X4538Y2954D01*
X4537Y2955D01*
X4536Y2957D01*
X4536Y2958D01*
X4535Y2959D01*
X4535Y2959D01*
X4533Y2961D01*
X4532Y2962D01*
X4530Y2963D01*
X4529Y2963D01*
X4527Y2964D01*
X4526Y2964D01*
X4526Y2964D01*
D02*
G37*
G36*
X4452Y2999D02*
X4451D01*
X4450Y2999D01*
X4449Y2998D01*
X4448Y2998D01*
X4447Y2997D01*
X4446Y2997D01*
X4445Y2996D01*
X4445Y2996D01*
X4445Y2996D01*
X4444Y2995D01*
X4443Y2994D01*
X4443Y2993D01*
X4443Y2992D01*
X4442Y2991D01*
X4442Y2990D01*
Y2989D01*
Y2989D01*
X4442Y2987D01*
X4443Y2986D01*
X4443Y2984D01*
X4444Y2983D01*
X4445Y2982D01*
X4445Y2981D01*
X4446Y2981D01*
X4446Y2981D01*
X4447Y2980D01*
X4449Y2979D01*
X4450Y2978D01*
X4451Y2978D01*
X4452Y2977D01*
X4453Y2977D01*
X4454D01*
X4455Y2977D01*
X4457Y2978D01*
X4458Y2978D01*
X4459Y2979D01*
X4460Y2979D01*
X4460Y2979D01*
X4460Y2980D01*
X4461Y2980D01*
X4461Y2981D01*
X4462Y2982D01*
X4462Y2983D01*
X4463Y2984D01*
X4463Y2985D01*
X4463Y2986D01*
Y2986D01*
Y2987D01*
X4463Y2988D01*
X4462Y2990D01*
X4462Y2991D01*
X4461Y2993D01*
X4461Y2994D01*
X4460Y2995D01*
X4460Y2995D01*
X4460Y2995D01*
X4458Y2996D01*
X4457Y2997D01*
X4456Y2998D01*
X4454Y2998D01*
X4453Y2999D01*
X4452Y2999D01*
D02*
G37*
G36*
X4457Y2964D02*
X4457D01*
X4455Y2964D01*
X4454Y2964D01*
X4453Y2963D01*
X4452Y2963D01*
X4451Y2962D01*
X4450Y2962D01*
X4450Y2961D01*
X4450Y2961D01*
X4449Y2960D01*
X4448Y2959D01*
X4448Y2958D01*
X4447Y2956D01*
X4447Y2955D01*
X4447Y2955D01*
Y2954D01*
Y2954D01*
X4447Y2951D01*
X4448Y2949D01*
X4448Y2947D01*
X4449Y2945D01*
X4450Y2943D01*
X4450Y2942D01*
X4451Y2941D01*
X4451Y2941D01*
Y2941D01*
X4451Y2940D01*
X4452Y2939D01*
X4454Y2938D01*
X4456Y2936D01*
X4457Y2936D01*
X4459Y2935D01*
X4460Y2935D01*
X4461Y2935D01*
X4461D01*
X4462Y2935D01*
X4464Y2935D01*
X4465Y2936D01*
X4466Y2936D01*
X4467Y2937D01*
X4467Y2938D01*
X4468Y2938D01*
X4468Y2938D01*
X4469Y2939D01*
X4469Y2940D01*
X4470Y2942D01*
X4470Y2943D01*
X4470Y2944D01*
X4471Y2945D01*
Y2945D01*
Y2946D01*
X4470Y2949D01*
X4470Y2951D01*
X4469Y2954D01*
X4469Y2955D01*
X4468Y2957D01*
X4467Y2958D01*
X4467Y2959D01*
X4467Y2959D01*
X4465Y2961D01*
X4463Y2962D01*
X4462Y2963D01*
X4460Y2963D01*
X4459Y2964D01*
X4458Y2964D01*
X4457Y2964D01*
D02*
G37*
G36*
X967Y3174D02*
X953D01*
X951Y3174D01*
X949Y3173D01*
X948Y3173D01*
X947Y3173D01*
X946Y3173D01*
X945Y3173D01*
X945D01*
X943Y3172D01*
X942Y3171D01*
X941Y3170D01*
X939Y3169D01*
X939Y3168D01*
X938Y3167D01*
X938Y3167D01*
X937Y3166D01*
X936Y3164D01*
X936Y3162D01*
X935Y3160D01*
X935Y3158D01*
X935Y3155D01*
Y3154D01*
X934Y3154D01*
Y3153D01*
Y3153D01*
Y3152D01*
Y3152D01*
X935Y3148D01*
X935Y3144D01*
X936Y3141D01*
X936Y3140D01*
X936Y3138D01*
X937Y3137D01*
X937Y3136D01*
X937Y3135D01*
X937Y3134D01*
X938Y3134D01*
X938Y3133D01*
X938Y3133D01*
Y3133D01*
X939Y3130D01*
X941Y3128D01*
X943Y3125D01*
X944Y3123D01*
X945Y3122D01*
X946Y3121D01*
X947Y3120D01*
X947Y3120D01*
X947D01*
X949Y3119D01*
X950Y3118D01*
X951Y3117D01*
X953Y3116D01*
X954Y3116D01*
X955Y3116D01*
X955Y3115D01*
X956Y3115D01*
X956Y3115D01*
X957Y3115D01*
X960Y3115D01*
X962Y3114D01*
X964Y3114D01*
X967D01*
X968Y3114D01*
X979D01*
X967Y3174D01*
D02*
G37*
G36*
X1043Y3175D02*
X1041D01*
X1040Y3174D01*
X1037Y3174D01*
X1034Y3173D01*
X1032Y3172D01*
X1031Y3171D01*
X1030Y3170D01*
X1029Y3169D01*
X1028Y3169D01*
Y3169D01*
X1027Y3168D01*
X1027Y3166D01*
X1025Y3164D01*
X1024Y3161D01*
X1024Y3158D01*
X1023Y3156D01*
X1023Y3155D01*
Y3154D01*
X1023Y3153D01*
Y3153D01*
Y3152D01*
Y3152D01*
X1023Y3149D01*
X1024Y3145D01*
X1024Y3142D01*
X1025Y3139D01*
X1026Y3138D01*
X1026Y3137D01*
X1026Y3136D01*
X1027Y3135D01*
X1027Y3134D01*
X1027Y3134D01*
X1027Y3133D01*
Y3133D01*
X1029Y3130D01*
X1031Y3127D01*
X1033Y3124D01*
X1035Y3122D01*
X1036Y3120D01*
X1037Y3119D01*
X1038Y3119D01*
X1038Y3119D01*
X1038Y3118D01*
X1039D01*
X1041Y3117D01*
X1044Y3116D01*
X1046Y3115D01*
X1048Y3114D01*
X1050Y3114D01*
X1051Y3114D01*
X1052Y3114D01*
X1053D01*
X1054Y3114D01*
X1056Y3114D01*
X1059Y3115D01*
X1061Y3115D01*
X1063Y3117D01*
X1065Y3118D01*
X1066Y3119D01*
X1067Y3119D01*
X1067Y3120D01*
X1067Y3120D01*
X1068Y3121D01*
X1069Y3122D01*
X1070Y3125D01*
X1071Y3127D01*
X1072Y3130D01*
X1072Y3132D01*
X1072Y3133D01*
Y3133D01*
X1073Y3134D01*
Y3135D01*
Y3135D01*
Y3135D01*
X1072Y3138D01*
X1072Y3140D01*
X1072Y3143D01*
X1071Y3145D01*
X1071Y3148D01*
X1070Y3150D01*
X1069Y3152D01*
X1068Y3154D01*
X1068Y3156D01*
X1067Y3158D01*
X1066Y3159D01*
X1066Y3160D01*
X1065Y3161D01*
X1065Y3162D01*
X1064Y3162D01*
X1064Y3162D01*
X1063Y3164D01*
X1061Y3166D01*
X1059Y3168D01*
X1057Y3169D01*
X1056Y3171D01*
X1054Y3172D01*
X1052Y3173D01*
X1050Y3173D01*
X1049Y3174D01*
X1047Y3174D01*
X1046Y3174D01*
X1045Y3175D01*
X1044D01*
X1043Y3175D01*
D02*
G37*
G36*
X1002Y3316D02*
X986D01*
X985Y3316D01*
X984D01*
X982Y3316D01*
X980Y3316D01*
X979Y3316D01*
X978Y3315D01*
X978Y3315D01*
X978D01*
X976Y3314D01*
X975Y3313D01*
X974Y3313D01*
X974Y3312D01*
Y3312D01*
X973Y3311D01*
X973Y3311D01*
X972Y3309D01*
Y3308D01*
X972Y3307D01*
Y3307D01*
Y3307D01*
X972Y3305D01*
X973Y3304D01*
X973Y3302D01*
X974Y3301D01*
X974Y3300D01*
X975Y3299D01*
X975Y3298D01*
X975Y3298D01*
X976Y3297D01*
X978Y3296D01*
X979Y3295D01*
X980Y3294D01*
X981Y3293D01*
X982Y3293D01*
X982Y3293D01*
X983Y3293D01*
X984Y3292D01*
X985Y3292D01*
X986Y3292D01*
X988Y3292D01*
X991Y3291D01*
X994Y3291D01*
X997Y3291D01*
X998Y3291D01*
X1007D01*
X1002Y3316D01*
D02*
G37*
G36*
X903Y3312D02*
X898Y3277D01*
X922D01*
X903Y3312D01*
D02*
G37*
G36*
X606Y3317D02*
X604D01*
X602Y3317D01*
X599Y3316D01*
X597Y3315D01*
X595Y3314D01*
X593Y3313D01*
X592Y3312D01*
X591Y3311D01*
X591Y3311D01*
Y3311D01*
X590Y3310D01*
X589Y3309D01*
X588Y3306D01*
X587Y3303D01*
X586Y3301D01*
X586Y3298D01*
X585Y3297D01*
Y3297D01*
X585Y3296D01*
Y3295D01*
Y3295D01*
Y3295D01*
X585Y3291D01*
X586Y3288D01*
X587Y3285D01*
X587Y3282D01*
X588Y3280D01*
X588Y3279D01*
X589Y3278D01*
X589Y3277D01*
X589Y3277D01*
X590Y3276D01*
X590Y3276D01*
Y3275D01*
X592Y3272D01*
X593Y3269D01*
X595Y3267D01*
X597Y3265D01*
X599Y3263D01*
X600Y3262D01*
X600Y3261D01*
X601Y3261D01*
X601Y3261D01*
X601D01*
X604Y3259D01*
X606Y3258D01*
X608Y3257D01*
X611Y3257D01*
X612Y3256D01*
X614Y3256D01*
X614Y3256D01*
X615D01*
X617Y3256D01*
X618Y3256D01*
X621Y3257D01*
X624Y3258D01*
X626Y3259D01*
X627Y3260D01*
X629Y3261D01*
X629Y3262D01*
X629Y3262D01*
X630Y3262D01*
X631Y3263D01*
X631Y3265D01*
X633Y3267D01*
X634Y3270D01*
X634Y3272D01*
X635Y3274D01*
X635Y3275D01*
Y3276D01*
X635Y3277D01*
Y3277D01*
Y3277D01*
Y3277D01*
X635Y3280D01*
X635Y3283D01*
X634Y3285D01*
X634Y3288D01*
X633Y3290D01*
X632Y3293D01*
X632Y3295D01*
X631Y3297D01*
X630Y3298D01*
X629Y3300D01*
X629Y3301D01*
X628Y3303D01*
X628Y3303D01*
X627Y3304D01*
X627Y3305D01*
X627Y3305D01*
X625Y3307D01*
X623Y3309D01*
X622Y3310D01*
X620Y3312D01*
X618Y3313D01*
X616Y3314D01*
X615Y3315D01*
X613Y3316D01*
X611Y3316D01*
X610Y3317D01*
X609Y3317D01*
X607Y3317D01*
X606D01*
X606Y3317D01*
D02*
G37*
G36*
X4036Y3091D02*
X4031Y3056D01*
X4055D01*
X4036Y3091D01*
D02*
G37*
G36*
X3964Y3095D02*
X3948D01*
X3946Y3095D01*
X3945D01*
X3943Y3095D01*
X3942Y3095D01*
X3941Y3095D01*
X3940Y3094D01*
X3940Y3094D01*
X3939D01*
X3938Y3093D01*
X3936Y3093D01*
X3936Y3092D01*
X3935Y3092D01*
Y3091D01*
X3935Y3091D01*
X3935Y3090D01*
X3934Y3088D01*
Y3087D01*
X3934Y3087D01*
Y3086D01*
Y3086D01*
X3934Y3084D01*
X3934Y3083D01*
X3935Y3081D01*
X3935Y3080D01*
X3936Y3079D01*
X3936Y3078D01*
X3937Y3078D01*
X3937Y3077D01*
X3938Y3076D01*
X3939Y3075D01*
X3940Y3074D01*
X3942Y3073D01*
X3943Y3073D01*
X3944Y3072D01*
X3944Y3072D01*
X3944Y3072D01*
X3945Y3072D01*
X3947Y3071D01*
X3948Y3071D01*
X3949Y3071D01*
X3953Y3070D01*
X3956Y3070D01*
X3959Y3070D01*
X3960Y3070D01*
X3969D01*
X3964Y3095D01*
D02*
G37*
G36*
X3752Y3096D02*
X3750D01*
X3749Y3096D01*
X3746Y3095D01*
X3743Y3094D01*
X3741Y3093D01*
X3740Y3092D01*
X3738Y3091D01*
X3738Y3091D01*
X3737Y3091D01*
Y3090D01*
X3736Y3089D01*
X3736Y3088D01*
X3734Y3085D01*
X3733Y3083D01*
X3732Y3080D01*
X3732Y3077D01*
X3732Y3076D01*
Y3076D01*
X3732Y3075D01*
Y3074D01*
Y3074D01*
Y3074D01*
X3732Y3070D01*
X3732Y3067D01*
X3733Y3064D01*
X3734Y3061D01*
X3734Y3060D01*
X3735Y3058D01*
X3735Y3057D01*
X3736Y3056D01*
X3736Y3056D01*
X3736Y3055D01*
X3736Y3055D01*
Y3055D01*
X3738Y3051D01*
X3740Y3048D01*
X3742Y3046D01*
X3744Y3044D01*
X3745Y3042D01*
X3746Y3041D01*
X3747Y3041D01*
X3747Y3040D01*
X3747Y3040D01*
X3747D01*
X3750Y3038D01*
X3753Y3037D01*
X3755Y3036D01*
X3757Y3036D01*
X3759Y3035D01*
X3760Y3035D01*
X3761Y3035D01*
X3762D01*
X3763Y3035D01*
X3765Y3035D01*
X3768Y3036D01*
X3770Y3037D01*
X3772Y3038D01*
X3774Y3039D01*
X3775Y3040D01*
X3776Y3041D01*
X3776Y3041D01*
X3776Y3041D01*
X3777Y3042D01*
X3778Y3044D01*
X3779Y3046D01*
X3780Y3049D01*
X3781Y3051D01*
X3781Y3053D01*
X3781Y3054D01*
Y3055D01*
X3782Y3056D01*
Y3056D01*
Y3056D01*
Y3057D01*
X3781Y3059D01*
X3781Y3062D01*
X3781Y3065D01*
X3780Y3067D01*
X3780Y3069D01*
X3779Y3072D01*
X3778Y3074D01*
X3777Y3076D01*
X3777Y3077D01*
X3776Y3079D01*
X3775Y3081D01*
X3775Y3082D01*
X3774Y3083D01*
X3774Y3083D01*
X3773Y3084D01*
X3773Y3084D01*
X3772Y3086D01*
X3770Y3088D01*
X3768Y3090D01*
X3766Y3091D01*
X3765Y3092D01*
X3763Y3093D01*
X3761Y3094D01*
X3759Y3095D01*
X3758Y3095D01*
X3756Y3096D01*
X3755Y3096D01*
X3754Y3096D01*
X3753D01*
X3752Y3096D01*
D02*
G37*
G36*
X4542Y3115D02*
X4529D01*
X4526Y3115D01*
X4524Y3115D01*
X4523Y3115D01*
X4522Y3114D01*
X4521Y3114D01*
X4520Y3114D01*
X4520D01*
X4519Y3113D01*
X4517Y3112D01*
X4516Y3111D01*
X4515Y3110D01*
X4514Y3109D01*
X4513Y3108D01*
X4513Y3108D01*
X4513Y3108D01*
X4512Y3106D01*
X4511Y3103D01*
X4510Y3101D01*
X4510Y3099D01*
X4510Y3097D01*
Y3096D01*
X4510Y3095D01*
Y3094D01*
Y3094D01*
Y3094D01*
Y3093D01*
X4510Y3090D01*
X4510Y3086D01*
X4511Y3083D01*
X4511Y3081D01*
X4511Y3080D01*
X4512Y3078D01*
X4512Y3077D01*
X4512Y3077D01*
X4513Y3076D01*
X4513Y3075D01*
X4513Y3075D01*
X4513Y3074D01*
Y3074D01*
X4515Y3071D01*
X4516Y3069D01*
X4518Y3067D01*
X4519Y3065D01*
X4520Y3063D01*
X4521Y3062D01*
X4522Y3061D01*
X4522Y3061D01*
X4522D01*
X4524Y3060D01*
X4525Y3059D01*
X4527Y3058D01*
X4528Y3058D01*
X4529Y3057D01*
X4530Y3057D01*
X4530Y3057D01*
X4531Y3057D01*
X4532Y3056D01*
X4533Y3056D01*
X4535Y3056D01*
X4537Y3056D01*
X4540Y3056D01*
X4542D01*
X4543Y3055D01*
X4554D01*
X4542Y3115D01*
D02*
G37*
G36*
X3563Y857D02*
X3547D01*
X3546Y857D01*
X3544D01*
X3542Y857D01*
X3541Y857D01*
X3540Y857D01*
X3539Y856D01*
X3539Y856D01*
X3539D01*
X3537Y855D01*
X3536Y854D01*
X3535Y854D01*
X3535Y853D01*
Y853D01*
X3534Y852D01*
X3534Y852D01*
X3533Y850D01*
Y849D01*
X3533Y848D01*
Y848D01*
Y848D01*
X3533Y846D01*
X3533Y845D01*
X3534Y843D01*
X3535Y842D01*
X3535Y841D01*
X3536Y840D01*
X3536Y839D01*
X3536Y839D01*
X3537Y838D01*
X3538Y837D01*
X3540Y836D01*
X3541Y835D01*
X3542Y834D01*
X3543Y834D01*
X3543Y834D01*
X3544Y834D01*
X3545Y833D01*
X3546Y833D01*
X3547Y833D01*
X3549Y833D01*
X3552Y832D01*
X3555Y832D01*
X3558Y832D01*
X3559Y832D01*
X3568D01*
X3563Y857D01*
D02*
G37*
G36*
X5026Y694D02*
X5010D01*
X5009Y694D01*
X5008D01*
X5006Y694D01*
X5004Y693D01*
X5003Y693D01*
X5002Y693D01*
X5002Y693D01*
X5002D01*
X5000Y692D01*
X4999Y691D01*
X4998Y690D01*
X4998Y690D01*
Y690D01*
X4997Y689D01*
X4997Y688D01*
X4997Y687D01*
Y686D01*
X4996Y685D01*
Y685D01*
Y685D01*
X4997Y683D01*
X4997Y681D01*
X4997Y680D01*
X4998Y678D01*
X4998Y677D01*
X4999Y677D01*
X4999Y676D01*
X4999Y676D01*
X5000Y675D01*
X5002Y674D01*
X5003Y672D01*
X5004Y672D01*
X5005Y671D01*
X5006Y671D01*
X5007Y670D01*
X5007Y670D01*
X5008Y670D01*
X5009Y670D01*
X5010Y670D01*
X5012Y669D01*
X5015Y669D01*
X5018Y669D01*
X5021Y669D01*
X5023Y669D01*
X5032D01*
X5026Y694D01*
D02*
G37*
G36*
X1723Y441D02*
X1720D01*
X1719Y441D01*
X1715Y440D01*
X1713Y439D01*
X1710Y438D01*
X1708Y436D01*
X1707Y435D01*
X1706Y434D01*
X1706Y434D01*
Y434D01*
X1705Y433D01*
X1704Y431D01*
X1702Y428D01*
X1701Y425D01*
X1700Y422D01*
X1700Y419D01*
X1699Y418D01*
Y417D01*
X1699Y417D01*
Y416D01*
Y416D01*
Y415D01*
X1699Y411D01*
X1700Y408D01*
X1701Y404D01*
X1702Y400D01*
X1702Y399D01*
X1703Y398D01*
X1703Y396D01*
X1704Y395D01*
X1704Y395D01*
X1704Y394D01*
X1704Y394D01*
Y393D01*
X1706Y389D01*
X1708Y386D01*
X1711Y383D01*
X1713Y381D01*
X1714Y379D01*
X1716Y378D01*
X1717Y377D01*
X1717Y377D01*
X1717Y377D01*
X1717D01*
X1720Y375D01*
X1723Y373D01*
X1726Y372D01*
X1728Y372D01*
X1730Y371D01*
X1732Y371D01*
X1732Y371D01*
X1733D01*
X1735Y371D01*
X1737Y371D01*
X1740Y372D01*
X1743Y373D01*
X1746Y375D01*
X1747Y376D01*
X1749Y377D01*
X1750Y378D01*
X1750Y378D01*
X1750Y378D01*
X1751Y379D01*
X1752Y381D01*
X1754Y384D01*
X1755Y387D01*
X1755Y389D01*
X1756Y392D01*
X1756Y393D01*
Y394D01*
X1756Y395D01*
Y395D01*
Y395D01*
Y396D01*
X1756Y399D01*
X1756Y402D01*
X1755Y405D01*
X1755Y408D01*
X1754Y410D01*
X1753Y413D01*
X1752Y415D01*
X1751Y418D01*
X1750Y419D01*
X1750Y421D01*
X1749Y423D01*
X1748Y424D01*
X1748Y425D01*
X1747Y426D01*
X1747Y427D01*
X1747Y427D01*
X1745Y429D01*
X1743Y431D01*
X1741Y433D01*
X1739Y435D01*
X1737Y436D01*
X1735Y438D01*
X1733Y439D01*
X1731Y439D01*
X1729Y440D01*
X1727Y440D01*
X1726Y441D01*
X1725Y441D01*
X1724D01*
X1723Y441D01*
D02*
G37*
G36*
X943Y1673D02*
X914D01*
X912Y1672D01*
X910Y1672D01*
X908Y1672D01*
X907Y1672D01*
X906Y1672D01*
X905Y1672D01*
X905D01*
X903Y1671D01*
X902Y1670D01*
X900Y1669D01*
X899Y1668D01*
X898Y1667D01*
X897Y1666D01*
X897Y1666D01*
X897Y1666D01*
X896Y1664D01*
X895Y1662D01*
X894Y1660D01*
X894Y1659D01*
X894Y1657D01*
X893Y1656D01*
Y1655D01*
Y1655D01*
Y1655D01*
X894Y1652D01*
X894Y1649D01*
X895Y1647D01*
X896Y1645D01*
X897Y1643D01*
X898Y1642D01*
X899Y1642D01*
X899Y1641D01*
X900Y1641D01*
X901Y1640D01*
X904Y1639D01*
X907Y1638D01*
X910Y1637D01*
X913Y1637D01*
X914Y1637D01*
X915D01*
X916Y1637D01*
X943D01*
Y1673D01*
D02*
G37*
G36*
X1430Y1579D02*
X1429Y1575D01*
X1427Y1571D01*
X1426Y1567D01*
X1424Y1562D01*
X1423Y1561D01*
X1423Y1559D01*
X1422Y1557D01*
X1422Y1556D01*
X1421Y1555D01*
X1421Y1554D01*
X1421Y1553D01*
Y1553D01*
X1408Y1518D01*
X1450D01*
X1437Y1555D01*
X1435Y1560D01*
X1434Y1564D01*
X1433Y1568D01*
X1432Y1572D01*
X1431Y1575D01*
X1431Y1576D01*
X1430Y1577D01*
X1430Y1578D01*
Y1579D01*
X1430Y1579D01*
Y1579D01*
D02*
G37*
G36*
X1339Y1578D02*
X1309D01*
X1307Y1577D01*
X1305D01*
X1303Y1577D01*
X1299Y1577D01*
X1296Y1576D01*
X1294Y1576D01*
X1292Y1575D01*
X1291Y1575D01*
X1291Y1575D01*
X1287Y1573D01*
X1284Y1571D01*
X1282Y1569D01*
X1279Y1567D01*
X1277Y1564D01*
X1276Y1563D01*
X1276Y1562D01*
X1275Y1561D01*
X1275Y1561D01*
Y1561D01*
X1274Y1559D01*
X1273Y1556D01*
X1271Y1552D01*
X1270Y1547D01*
X1269Y1542D01*
X1269Y1539D01*
X1269Y1537D01*
X1268Y1535D01*
Y1534D01*
X1268Y1532D01*
Y1531D01*
Y1531D01*
Y1530D01*
X1268Y1525D01*
X1269Y1521D01*
X1269Y1516D01*
X1270Y1513D01*
X1270Y1511D01*
X1271Y1510D01*
X1271Y1509D01*
X1271Y1508D01*
X1271Y1507D01*
X1272Y1507D01*
X1272Y1506D01*
Y1506D01*
X1273Y1503D01*
X1274Y1500D01*
X1276Y1497D01*
X1278Y1494D01*
X1279Y1493D01*
X1280Y1491D01*
X1281Y1491D01*
X1281Y1490D01*
X1283Y1489D01*
X1284Y1487D01*
X1286Y1486D01*
X1288Y1485D01*
X1290Y1485D01*
X1291Y1484D01*
X1292Y1484D01*
X1292Y1484D01*
X1295Y1483D01*
X1298Y1482D01*
X1302Y1482D01*
X1305Y1482D01*
X1307Y1482D01*
X1309Y1481D01*
X1339D01*
Y1578D01*
D02*
G37*
%LPD*%
D10*
X5675Y354D02*
G03*
X5675Y354I-35J0D01*
G01*
X4593Y207D02*
G03*
X4593Y207I-35J0D01*
G01*
X3129Y285D02*
G03*
X3129Y285I-6J0D01*
G01*
X5518Y3039D02*
G03*
X5518Y3039I-35J0D01*
G01*
X308Y175D02*
X818D01*
X308Y615D02*
X818D01*
X308Y175D02*
Y615D01*
X818Y175D02*
Y615D01*
X2471Y175D02*
X2981D01*
X2471D02*
Y615D01*
X2981Y175D02*
Y615D01*
X2471D02*
X2981D01*
X1473Y-1D02*
Y217D01*
X1873Y-1D02*
Y217D01*
X1473Y-1D02*
X1873D01*
X1473Y-51D02*
Y-1D01*
Y-51D02*
X1873D01*
Y-1D01*
X3117Y691D02*
Y770D01*
X2985Y691D02*
Y770D01*
X3012Y573D02*
X3091D01*
X4150Y45D02*
Y93D01*
X5693Y232D02*
Y280D01*
X144Y1669D02*
X427D01*
X144Y1953D02*
X427D01*
X5620Y837D02*
X5876D01*
X5748Y719D02*
Y955D01*
X5181Y2978D02*
Y3026D01*
X874Y1748D02*
Y1874D01*
X740Y1748D02*
Y1874D01*
X858Y1205D02*
X902D01*
X856Y1120D02*
X902D01*
Y1205D01*
X3652Y2231D02*
X4124D01*
X3652D02*
Y2414D01*
Y2282D02*
X4124D01*
Y2231D02*
Y2414D01*
X4301Y2455D02*
Y2559D01*
Y2516D02*
X5305D01*
X4301Y2455D02*
X5305D01*
Y2559D01*
X4019Y946D02*
X4619D01*
X4019Y846D02*
Y946D01*
Y846D02*
X4619D01*
Y946D01*
X4112Y804D02*
X4512D01*
Y564D02*
Y804D01*
X4112Y564D02*
Y804D01*
Y564D02*
X4512D01*
X1487Y1624D02*
Y1999D01*
X1112Y1624D02*
X1487D01*
X1112Y1999D02*
X1487D01*
X1112Y1624D02*
Y1999D01*
X5024Y261D02*
X5044D01*
X5024Y103D02*
X5044D01*
X1772Y1024D02*
X5925D01*
X1772D02*
Y3671D01*
X5925D01*
Y1024D02*
Y3671D01*
X107Y3679D02*
X157D01*
X207D01*
X107Y2179D02*
Y3679D01*
Y2179D02*
X207D01*
Y3679D01*
X107D02*
X1507D01*
X1607D01*
X1507Y2179D02*
Y3679D01*
X107Y2179D02*
X1507D01*
X1607D01*
Y3679D01*
D11*
X5921Y955D02*
G03*
X5921Y955I-4J0D01*
G01*
X3907Y443D02*
G03*
X3907Y443I-4J0D01*
G01*
X4963Y296D02*
G03*
X4963Y296I-4J0D01*
G01*
X5132Y487D02*
G03*
X5132Y487I-4J0D01*
G01*
X1512Y773D02*
Y887D01*
Y810D02*
X1579D01*
Y773D02*
Y887D01*
X3155Y301D02*
X3179D01*
X3155Y380D02*
X3179D01*
X3155Y301D02*
Y380D01*
X3179Y301D02*
Y380D01*
X2054Y703D02*
Y720D01*
Y618D02*
Y636D01*
X1996Y720D02*
X2054D01*
X1996Y618D02*
X2054D01*
Y919D02*
Y937D01*
Y834D02*
Y852D01*
X1996Y937D02*
X2054D01*
X1996Y834D02*
X2054D01*
X2574Y965D02*
X2862D01*
Y807D02*
Y965D01*
X2551Y941D02*
X2574Y965D01*
X2551Y831D02*
Y941D01*
X2574Y807D02*
X2862D01*
X2551Y831D02*
X2574Y807D01*
X3740Y702D02*
X3956D01*
X3740Y498D02*
X3956D01*
D12*
X3780Y2866D02*
Y2957D01*
X3858Y2866D02*
Y2957D01*
X3878Y2866D02*
Y2957D01*
X3957Y2866D02*
Y2957D01*
X4189Y30D02*
X4315D01*
X4189Y107D02*
X4315D01*
X5528Y294D02*
X5654D01*
X5528Y217D02*
X5654D01*
X5620Y719D02*
X5876D01*
X5620Y955D02*
X5876D01*
X5016Y3041D02*
X5142D01*
X5016Y2963D02*
X5142D01*
X3031Y2577D02*
X3091D01*
X3031Y2640D02*
X3091D01*
X2915Y2348D02*
Y2435D01*
X2994Y2348D02*
Y2435D01*
X3868Y1888D02*
X3928D01*
X3868Y1951D02*
X3928D01*
X3868Y1986D02*
X3928D01*
X3868Y2049D02*
X3928D01*
X3868Y2055D02*
X3928D01*
X3868Y2118D02*
X3928D01*
X3484Y2577D02*
X3544D01*
X3484Y2640D02*
X3544D01*
X1722Y1258D02*
X1782D01*
X1722Y1321D02*
X1782D01*
X1722Y1327D02*
X1782D01*
X1722Y1390D02*
X1782D01*
X1722Y1396D02*
X1782D01*
X1722Y1459D02*
X1782D01*
X1722Y1465D02*
X1782D01*
X1722Y1528D02*
X1782D01*
X1850Y1360D02*
X1910D01*
X1850Y1297D02*
X1910D01*
X1850Y1429D02*
X1910D01*
X1850Y1366D02*
X1910D01*
X1850Y1498D02*
X1910D01*
X1850Y1435D02*
X1910D01*
X1850Y1567D02*
X1910D01*
X1850Y1504D02*
X1910D01*
X1722Y1533D02*
X1782D01*
X1722Y1596D02*
X1782D01*
X1604Y809D02*
Y895D01*
X1683Y809D02*
Y895D01*
X1781Y808D02*
Y899D01*
X1703Y808D02*
Y899D01*
X2220Y921D02*
X2269D01*
X2220Y988D02*
X2269D01*
X3293Y374D02*
X3384D01*
X3293Y453D02*
X3384D01*
X3293Y278D02*
X3384D01*
X3293Y357D02*
X3384D01*
X3480Y659D02*
X3567D01*
X3480Y738D02*
X3567D01*
X3490Y336D02*
X3577D01*
X3490Y415D02*
X3577D01*
X3490Y241D02*
X3577D01*
X3490Y320D02*
X3577D01*
X3486Y222D02*
X3577D01*
X3486Y143D02*
X3577D01*
X3841Y336D02*
X3868D01*
X3841Y458D02*
X3868D01*
X3750Y336D02*
X3778D01*
X3750Y458D02*
X3778D01*
X4002Y108D02*
X4089D01*
X4002Y30D02*
X4089D01*
X4031Y522D02*
X4118D01*
X4031Y443D02*
X4118D01*
X4740Y229D02*
X4827D01*
X4740Y151D02*
X4827D01*
X5083Y330D02*
X5098D01*
Y332D01*
Y485D02*
Y487D01*
X5083D02*
X5098D01*
X4980Y330D02*
Y332D01*
Y330D02*
X4996D01*
X4980Y487D02*
X4996D01*
X4980Y485D02*
Y487D01*
X5207Y286D02*
Y373D01*
X5285Y286D02*
Y373D01*
X5305Y286D02*
Y373D01*
X5384Y286D02*
Y373D01*
X5557Y197D02*
X5644D01*
X5557Y118D02*
X5644D01*
X4569Y969D02*
X4559D01*
X4564D01*
Y998D01*
X4569Y993D01*
X5827Y689D02*
Y650D01*
Y689D02*
X5810D01*
X5804Y687D01*
X5802Y685D01*
X5801Y681D01*
Y678D01*
X5802Y674D01*
X5804Y672D01*
X5810Y670D01*
X5827D01*
X5814D02*
X5801Y650D01*
X5767Y689D02*
X5792D01*
Y650D01*
X5767D01*
X5792Y670D02*
X5777D01*
X5735Y683D02*
X5738Y687D01*
X5744Y689D01*
X5751D01*
X5757Y687D01*
X5761Y683D01*
Y680D01*
X5759Y676D01*
X5757Y674D01*
X5753Y672D01*
X5742Y668D01*
X5738Y666D01*
X5736Y665D01*
X5735Y661D01*
Y655D01*
X5738Y651D01*
X5744Y650D01*
X5751D01*
X5757Y651D01*
X5761Y655D01*
X5701Y689D02*
X5726D01*
Y650D01*
X5701D01*
X5726Y670D02*
X5711D01*
X5682Y689D02*
Y650D01*
X5695Y689D02*
X5669D01*
X286Y3604D02*
X312D01*
X286Y3631D01*
Y3638D01*
X292Y3644D01*
X306D01*
X312Y3638D01*
X272D02*
X266Y3644D01*
X252D01*
X246Y3638D01*
Y3611D01*
X252Y3604D01*
X266D01*
X272Y3611D01*
Y3638D01*
X1482D02*
X1476Y3644D01*
X1462D01*
X1456Y3638D01*
Y3611D01*
X1462Y3604D01*
X1476D01*
X1482Y3611D01*
Y3638D01*
X1442Y3604D02*
X1429D01*
X1436D01*
Y3644D01*
X1442Y3638D01*
X307Y2204D02*
X294D01*
X301D01*
Y2244D01*
X307Y2238D01*
X248Y2244D02*
X261Y2238D01*
X274Y2224D01*
Y2211D01*
X267Y2204D01*
X254D01*
X248Y2211D01*
Y2218D01*
X254Y2224D01*
X274D01*
X1482Y2204D02*
X1469D01*
X1476D01*
Y2244D01*
X1482Y2238D01*
X1423Y2244D02*
X1449D01*
Y2224D01*
X1436Y2231D01*
X1429D01*
X1423Y2224D01*
Y2211D01*
X1429Y2204D01*
X1442D01*
X1449Y2211D01*
X4630Y158D02*
X4603D01*
X4617D01*
Y118D01*
X4590D02*
Y158D01*
X4570D01*
X4563Y151D01*
Y138D01*
X4570Y131D01*
X4590D01*
X4550Y118D02*
X4537D01*
X4543D01*
Y158D01*
X4550Y151D01*
X4490Y158D02*
X4517D01*
Y138D01*
X4503Y145D01*
X4497D01*
X4490Y138D01*
Y125D01*
X4497Y118D01*
X4510D01*
X4517Y125D01*
X5709Y444D02*
X5682D01*
X5695D01*
Y404D01*
X5669D02*
Y444D01*
X5649D01*
X5642Y437D01*
Y424D01*
X5649Y417D01*
X5669D01*
X5629Y404D02*
X5615D01*
X5622D01*
Y444D01*
X5629Y437D01*
X5575Y404D02*
Y444D01*
X5595Y424D01*
X5569D01*
X3972Y2854D02*
X4012D01*
Y2874D01*
X4006Y2881D01*
X3992D01*
X3986Y2874D01*
Y2854D01*
Y2868D02*
X3972Y2881D01*
X4006Y2894D02*
X4012Y2901D01*
Y2914D01*
X4006Y2921D01*
X3999D01*
X3992Y2914D01*
X3986Y2921D01*
X3979D01*
X3972Y2914D01*
Y2901D01*
X3979Y2894D01*
X3986D01*
X3992Y2901D01*
X3999Y2894D01*
X4006D01*
X3992Y2901D02*
Y2914D01*
X3979Y2934D02*
X3972Y2941D01*
Y2954D01*
X3979Y2961D01*
X4006D01*
X4012Y2954D01*
Y2941D01*
X4006Y2934D01*
X3999D01*
X3992Y2941D01*
Y2961D01*
X3720Y2854D02*
X3760D01*
Y2874D01*
X3754Y2881D01*
X3740D01*
X3734Y2874D01*
Y2854D01*
Y2868D02*
X3720Y2881D01*
X3754Y2894D02*
X3760Y2901D01*
Y2914D01*
X3754Y2921D01*
X3747D01*
X3740Y2914D01*
X3734Y2921D01*
X3727D01*
X3720Y2914D01*
Y2901D01*
X3727Y2894D01*
X3734D01*
X3740Y2901D01*
X3747Y2894D01*
X3754D01*
X3740Y2901D02*
Y2914D01*
X3754Y2934D02*
X3760Y2941D01*
Y2954D01*
X3754Y2961D01*
X3747D01*
X3740Y2954D01*
X3734Y2961D01*
X3727D01*
X3720Y2954D01*
Y2941D01*
X3727Y2934D01*
X3734D01*
X3740Y2941D01*
X3747Y2934D01*
X3754D01*
X3740Y2941D02*
Y2954D01*
X3066Y934D02*
X3072Y940D01*
X3086D01*
X3092Y934D01*
Y907D01*
X3086Y900D01*
X3072D01*
X3066Y907D01*
X3026Y940D02*
X3039Y934D01*
X3052Y920D01*
Y907D01*
X3046Y900D01*
X3032D01*
X3026Y907D01*
Y914D01*
X3032Y920D01*
X3052D01*
X3012Y934D02*
X3006Y940D01*
X2992D01*
X2986Y934D01*
Y927D01*
X2992Y920D01*
X2986Y914D01*
Y907D01*
X2992Y900D01*
X3006D01*
X3012Y907D01*
Y914D01*
X3006Y920D01*
X3012Y927D01*
Y934D01*
X3006Y920D02*
X2992D01*
X1981Y210D02*
X1988Y217D01*
X2001D01*
X2008Y210D01*
Y204D01*
X2001Y197D01*
X1988D01*
X1981Y190D01*
Y184D01*
X1988Y177D01*
X2001D01*
X2008Y184D01*
X1968Y217D02*
Y177D01*
X1955Y190D01*
X1941Y177D01*
Y217D01*
X1908Y177D02*
Y217D01*
X1928Y197D01*
X1901D01*
X1566Y948D02*
X1526D01*
Y968D01*
X1532Y975D01*
X1559D01*
X1566Y968D01*
Y948D01*
X1559Y988D02*
X1566Y995D01*
Y1008D01*
X1559Y1015D01*
X1552D01*
X1546Y1008D01*
X1539Y1015D01*
X1532D01*
X1526Y1008D01*
Y995D01*
X1532Y988D01*
X1539D01*
X1546Y995D01*
X1552Y988D01*
X1559D01*
X1546Y995D02*
Y1008D01*
X3413Y614D02*
X3419Y621D01*
X3433D01*
X3439Y614D01*
Y587D01*
X3433Y581D01*
X3419D01*
X3413Y587D01*
X3399Y614D02*
X3393Y621D01*
X3379D01*
X3373Y614D01*
Y607D01*
X3379Y601D01*
X3373Y594D01*
Y587D01*
X3379Y581D01*
X3393D01*
X3399Y587D01*
Y594D01*
X3393Y601D01*
X3399Y607D01*
Y614D01*
X3393Y601D02*
X3379D01*
X3359Y614D02*
X3353Y621D01*
X3339D01*
X3333Y614D01*
Y587D01*
X3339Y581D01*
X3353D01*
X3359Y587D01*
Y614D01*
X3420Y537D02*
X3425Y542D01*
X3435D01*
X3440Y537D01*
Y517D01*
X3435Y512D01*
X3425D01*
X3420Y517D01*
X3410Y542D02*
X3390D01*
Y537D01*
X3410Y517D01*
Y512D01*
X3380Y517D02*
X3375Y512D01*
X3365D01*
X3360Y517D01*
Y537D01*
X3365Y542D01*
X3375D01*
X3380Y537D01*
Y532D01*
X3375Y527D01*
X3360D01*
X4442Y83D02*
X4449Y89D01*
X4462D01*
X4469Y83D01*
Y56D01*
X4462Y49D01*
X4449D01*
X4442Y56D01*
X4429Y89D02*
X4402D01*
Y83D01*
X4429Y56D01*
Y49D01*
X4389Y83D02*
X4382Y89D01*
X4369D01*
X4362Y83D01*
Y76D01*
X4369Y69D01*
X4362Y63D01*
Y56D01*
X4369Y49D01*
X4382D01*
X4389Y56D01*
Y63D01*
X4382Y69D01*
X4389Y76D01*
Y83D01*
X4382Y69D02*
X4369D01*
X4196Y181D02*
X4202Y188D01*
X4216D01*
X4222Y181D01*
Y154D01*
X4216Y148D01*
X4202D01*
X4196Y154D01*
X4182Y188D02*
X4156D01*
Y181D01*
X4182Y154D01*
Y148D01*
X4142D02*
X4129D01*
X4136D01*
Y188D01*
X4142Y181D01*
X4206Y289D02*
X4212Y296D01*
X4226D01*
X4232Y289D01*
Y263D01*
X4226Y256D01*
X4212D01*
X4206Y263D01*
X4192Y296D02*
X4166D01*
Y289D01*
X4192Y263D01*
Y256D01*
X4152Y289D02*
X4146Y296D01*
X4132D01*
X4126Y289D01*
Y263D01*
X4132Y256D01*
X4146D01*
X4152Y263D01*
Y289D01*
X4206Y397D02*
X4212Y403D01*
X4226D01*
X4232Y397D01*
Y370D01*
X4226Y363D01*
X4212D01*
X4206Y370D01*
X4166Y403D02*
X4179Y397D01*
X4192Y383D01*
Y370D01*
X4186Y363D01*
X4172D01*
X4166Y370D01*
Y377D01*
X4172Y383D01*
X4192D01*
X4152Y370D02*
X4146Y363D01*
X4132D01*
X4126Y370D01*
Y397D01*
X4132Y403D01*
X4146D01*
X4152Y397D01*
Y390D01*
X4146Y383D01*
X4126D01*
X5561Y330D02*
X5566Y335D01*
X5576D01*
X5581Y330D01*
Y310D01*
X5576Y305D01*
X5566D01*
X5561Y310D01*
X5551Y335D02*
X5531D01*
Y330D01*
X5551Y310D01*
Y305D01*
X5521Y335D02*
X5501D01*
Y330D01*
X5521Y310D01*
Y305D01*
X4678Y410D02*
X4685Y417D01*
X4698D01*
X4705Y410D01*
Y384D01*
X4698Y377D01*
X4685D01*
X4678Y384D01*
X4665Y417D02*
X4638D01*
Y410D01*
X4665Y384D01*
Y377D01*
X4598Y417D02*
X4611Y410D01*
X4625Y397D01*
Y384D01*
X4618Y377D01*
X4605D01*
X4598Y384D01*
Y390D01*
X4605Y397D01*
X4625D01*
X4678Y304D02*
X4685Y310D01*
X4698D01*
X4705Y304D01*
Y277D01*
X4698Y270D01*
X4685D01*
X4678Y277D01*
X4665Y310D02*
X4638D01*
Y304D01*
X4665Y277D01*
Y270D01*
X4598Y310D02*
X4625D01*
Y290D01*
X4611Y297D01*
X4605D01*
X4598Y290D01*
Y277D01*
X4605Y270D01*
X4618D01*
X4625Y277D01*
X5571Y55D02*
X5576Y60D01*
X5586D01*
X5591Y55D01*
Y35D01*
X5586Y30D01*
X5576D01*
X5571Y35D01*
X5541Y60D02*
X5551Y55D01*
X5561Y45D01*
Y35D01*
X5556Y30D01*
X5546D01*
X5541Y35D01*
Y40D01*
X5546Y45D01*
X5561D01*
X5511Y60D02*
X5521Y55D01*
X5531Y45D01*
Y35D01*
X5526Y30D01*
X5516D01*
X5511Y35D01*
Y40D01*
X5516Y45D01*
X5531D01*
X5374Y222D02*
X5379Y227D01*
X5389D01*
X5394Y222D01*
Y202D01*
X5389Y197D01*
X5379D01*
X5374Y202D01*
X5344Y227D02*
X5354Y222D01*
X5364Y212D01*
Y202D01*
X5359Y197D01*
X5349D01*
X5344Y202D01*
Y207D01*
X5349Y212D01*
X5364D01*
X5314Y227D02*
X5334D01*
Y212D01*
X5324Y217D01*
X5319D01*
X5314Y212D01*
Y202D01*
X5319Y197D01*
X5329D01*
X5334Y202D01*
X5181Y55D02*
X5186Y60D01*
X5196D01*
X5201Y55D01*
Y35D01*
X5196Y30D01*
X5186D01*
X5181Y35D01*
X5151Y60D02*
X5161Y55D01*
X5171Y45D01*
Y35D01*
X5166Y30D01*
X5156D01*
X5151Y35D01*
Y40D01*
X5156Y45D01*
X5171D01*
X5126Y30D02*
Y60D01*
X5141Y45D01*
X5121D01*
X5522Y3118D02*
X5502D01*
X5512D01*
Y3088D01*
X5492D02*
Y3118D01*
X5477D01*
X5472Y3113D01*
Y3103D01*
X5477Y3098D01*
X5492D01*
X5462Y3113D02*
X5457Y3118D01*
X5447D01*
X5442Y3113D01*
Y3108D01*
X5447Y3103D01*
X5452D01*
X5447D01*
X5442Y3098D01*
Y3093D01*
X5447Y3088D01*
X5457D01*
X5462Y3093D01*
X5771Y1002D02*
X5777Y1008D01*
X5791D01*
X5797Y1002D01*
Y995D01*
X5791Y988D01*
X5777D01*
X5771Y982D01*
Y975D01*
X5777Y969D01*
X5791D01*
X5797Y975D01*
X5757Y1008D02*
Y969D01*
X5744Y982D01*
X5731Y969D01*
Y1008D01*
X5717Y1002D02*
X5711Y1008D01*
X5697D01*
X5691Y1002D01*
Y995D01*
X5697Y988D01*
X5704D01*
X5697D01*
X5691Y982D01*
Y975D01*
X5697Y969D01*
X5711D01*
X5717Y975D01*
X5925Y3741D02*
Y3701D01*
X5905D01*
X5898Y3708D01*
Y3734D01*
X5905Y3741D01*
X5925D01*
X5885D02*
X5872D01*
X5878D01*
Y3701D01*
X5885D01*
X5872D01*
X5825Y3734D02*
X5832Y3741D01*
X5845D01*
X5852Y3734D01*
Y3728D01*
X5845Y3721D01*
X5832D01*
X5825Y3714D01*
Y3708D01*
X5832Y3701D01*
X5845D01*
X5852Y3708D01*
X5812Y3701D02*
Y3741D01*
X5792D01*
X5785Y3734D01*
Y3721D01*
X5792Y3714D01*
X5812D01*
X5772Y3701D02*
X5758D01*
X5765D01*
Y3741D01*
X5772Y3734D01*
X5090Y560D02*
Y527D01*
X5084Y520D01*
X5070D01*
X5064Y527D01*
Y560D01*
X5050Y520D02*
X5037D01*
X5044D01*
Y560D01*
X5050Y553D01*
X4990Y560D02*
X5017D01*
Y540D01*
X5004Y547D01*
X4997D01*
X4990Y540D01*
Y527D01*
X4997Y520D01*
X5010D01*
X5017Y527D01*
X3723Y458D02*
Y433D01*
X3718Y428D01*
X3708D01*
X3703Y433D01*
Y458D01*
X3693Y428D02*
X3683D01*
X3688D01*
Y458D01*
X3693Y453D01*
X3648Y458D02*
X3658Y453D01*
X3668Y443D01*
Y433D01*
X3663Y428D01*
X3653D01*
X3648Y433D01*
Y438D01*
X3653Y443D01*
X3668D01*
X5157Y3076D02*
X5162Y3081D01*
X5172D01*
X5177Y3076D01*
Y3056D01*
X5172Y3051D01*
X5162D01*
X5157Y3056D01*
X5132Y3051D02*
Y3081D01*
X5147Y3066D01*
X5127D01*
X5117Y3056D02*
X5112Y3051D01*
X5102D01*
X5097Y3056D01*
Y3076D01*
X5102Y3081D01*
X5112D01*
X5117Y3076D01*
Y3071D01*
X5112Y3066D01*
X5097D01*
X4098Y2205D02*
X4112D01*
X4105D01*
Y2172D01*
X4112Y2165D01*
X4118D01*
X4125Y2172D01*
X4058Y2205D02*
X4085D01*
Y2185D01*
X4072Y2192D01*
X4065D01*
X4058Y2185D01*
Y2172D01*
X4065Y2165D01*
X4078D01*
X4085Y2172D01*
X5269Y2422D02*
X5282D01*
X5276D01*
Y2389D01*
X5282Y2382D01*
X5289D01*
X5296Y2389D01*
X5236Y2382D02*
Y2422D01*
X5256Y2402D01*
X5229D01*
X2290Y772D02*
Y739D01*
X2283Y732D01*
X2270D01*
X2263Y739D01*
Y772D01*
X2250Y732D02*
X2237D01*
X2243D01*
Y772D01*
X2250Y766D01*
X2197Y732D02*
Y772D01*
X2217Y752D01*
X2190D01*
X1893Y650D02*
Y677D01*
X1899Y684D01*
X1913D01*
X1919Y677D01*
Y650D01*
X1913Y644D01*
X1899D01*
X1906Y657D02*
X1893Y644D01*
X1899D02*
X1893Y650D01*
X1853Y644D02*
X1879D01*
X1853Y670D01*
Y677D01*
X1859Y684D01*
X1873D01*
X1879Y677D01*
X2860Y795D02*
Y755D01*
X2840D01*
X2833Y762D01*
Y788D01*
X2840Y795D01*
X2860D01*
X2820D02*
X2793D01*
Y788D01*
X2820Y762D01*
Y755D01*
X851Y1251D02*
Y1221D01*
X831D01*
X801Y1251D02*
X821D01*
Y1221D01*
X801D01*
X821Y1236D02*
X811D01*
X791Y1251D02*
Y1221D01*
X776D01*
X771Y1226D01*
Y1246D01*
X776Y1251D01*
X791D01*
X761Y1221D02*
X751D01*
X756D01*
Y1251D01*
X761Y1246D01*
X3082Y375D02*
Y341D01*
X3075Y335D01*
X3062D01*
X3055Y341D01*
Y375D01*
X3015D02*
X3042D01*
Y355D01*
X3028Y361D01*
X3022D01*
X3015Y355D01*
Y341D01*
X3022Y335D01*
X3035D01*
X3042Y341D01*
X290Y2000D02*
X295Y2005D01*
X305D01*
X310Y2000D01*
Y1995D01*
X305Y1990D01*
X295D01*
X290Y1985D01*
Y1980D01*
X295Y1975D01*
X305D01*
X310Y1980D01*
X280Y2005D02*
Y1975D01*
X270Y1985D01*
X260Y1975D01*
Y2005D01*
X250Y1975D02*
X240D01*
X245D01*
Y2005D01*
X250Y2000D01*
X4278Y463D02*
Y503D01*
X4258D01*
X4252Y496D01*
Y483D01*
X4258Y476D01*
X4278D01*
X4265D02*
X4252Y463D01*
X4212Y503D02*
X4225Y496D01*
X4238Y483D01*
Y470D01*
X4232Y463D01*
X4218D01*
X4212Y470D01*
Y476D01*
X4218Y483D01*
X4238D01*
X4172Y503D02*
X4185Y496D01*
X4198Y483D01*
Y470D01*
X4192Y463D01*
X4178D01*
X4172Y470D01*
Y476D01*
X4178Y483D01*
X4198D01*
X3705Y267D02*
Y297D01*
X3690D01*
X3685Y292D01*
Y282D01*
X3690Y277D01*
X3705D01*
X3695D02*
X3685Y267D01*
X3655Y297D02*
X3665Y292D01*
X3675Y282D01*
Y272D01*
X3670Y267D01*
X3660D01*
X3655Y272D01*
Y277D01*
X3660Y282D01*
X3675D01*
X3625Y297D02*
X3645D01*
Y282D01*
X3635Y287D01*
X3630D01*
X3625Y282D01*
Y272D01*
X3630Y267D01*
X3640D01*
X3645Y272D01*
X1625Y948D02*
X1665D01*
Y968D01*
X1658Y974D01*
X1645D01*
X1638Y968D01*
Y948D01*
Y961D02*
X1625Y974D01*
X1665Y1014D02*
X1658Y1001D01*
X1645Y988D01*
X1632D01*
X1625Y994D01*
Y1008D01*
X1632Y1014D01*
X1638D01*
X1645Y1008D01*
Y988D01*
X1625Y1048D02*
X1665D01*
X1645Y1028D01*
Y1054D01*
X3705Y170D02*
Y200D01*
X3690D01*
X3685Y195D01*
Y185D01*
X3690Y180D01*
X3705D01*
X3695D02*
X3685Y170D01*
X3655Y200D02*
X3665Y195D01*
X3675Y185D01*
Y175D01*
X3670Y170D01*
X3660D01*
X3655Y175D01*
Y180D01*
X3660Y185D01*
X3675D01*
X3645Y195D02*
X3640Y200D01*
X3630D01*
X3625Y195D01*
Y190D01*
X3630Y185D01*
X3635D01*
X3630D01*
X3625Y180D01*
Y175D01*
X3630Y170D01*
X3640D01*
X3645Y175D01*
X1718Y948D02*
X1758D01*
Y968D01*
X1751Y975D01*
X1738D01*
X1731Y968D01*
Y948D01*
Y962D02*
X1718Y975D01*
X1758Y1015D02*
X1751Y1002D01*
X1738Y988D01*
X1724D01*
X1718Y995D01*
Y1008D01*
X1724Y1015D01*
X1731D01*
X1738Y1008D01*
Y988D01*
X1718Y1055D02*
Y1028D01*
X1744Y1055D01*
X1751D01*
X1758Y1048D01*
Y1035D01*
X1751Y1028D01*
X3705Y358D02*
Y388D01*
X3690D01*
X3685Y383D01*
Y373D01*
X3690Y368D01*
X3705D01*
X3695D02*
X3685Y358D01*
X3655Y388D02*
X3665Y383D01*
X3675Y373D01*
Y363D01*
X3670Y358D01*
X3660D01*
X3655Y363D01*
Y368D01*
X3660Y373D01*
X3675D01*
X3645Y358D02*
X3635D01*
X3640D01*
Y388D01*
X3645Y383D01*
X3947Y49D02*
Y89D01*
X3927D01*
X3920Y83D01*
Y69D01*
X3927Y63D01*
X3947D01*
X3934D02*
X3920Y49D01*
X3880Y89D02*
X3894Y83D01*
X3907Y69D01*
Y56D01*
X3900Y49D01*
X3887D01*
X3880Y56D01*
Y63D01*
X3887Y69D01*
X3907D01*
X3867Y83D02*
X3860Y89D01*
X3847D01*
X3840Y83D01*
Y56D01*
X3847Y49D01*
X3860D01*
X3867Y56D01*
Y83D01*
X3691Y684D02*
Y714D01*
X3676D01*
X3671Y709D01*
Y699D01*
X3676Y694D01*
X3691D01*
X3681D02*
X3671Y684D01*
X3641Y714D02*
X3661D01*
Y699D01*
X3651Y704D01*
X3646D01*
X3641Y699D01*
Y689D01*
X3646Y684D01*
X3656D01*
X3661Y689D01*
X3631D02*
X3626Y684D01*
X3616D01*
X3611Y689D01*
Y709D01*
X3616Y714D01*
X3626D01*
X3631Y709D01*
Y704D01*
X3626Y699D01*
X3611D01*
X5404Y276D02*
X5444D01*
Y296D01*
X5437Y302D01*
X5424D01*
X5417Y296D01*
Y276D01*
Y289D02*
X5404Y302D01*
X5444Y342D02*
Y316D01*
X5424D01*
X5430Y329D01*
Y336D01*
X5424Y342D01*
X5410D01*
X5404Y336D01*
Y322D01*
X5410Y316D01*
X5437Y356D02*
X5444Y362D01*
Y376D01*
X5437Y382D01*
X5430D01*
X5424Y376D01*
X5417Y382D01*
X5410D01*
X5404Y376D01*
Y362D01*
X5410Y356D01*
X5417D01*
X5424Y362D01*
X5430Y356D01*
X5437D01*
X5424Y362D02*
Y376D01*
X5150Y278D02*
X5190D01*
Y298D01*
X5183Y305D01*
X5170D01*
X5163Y298D01*
Y278D01*
Y292D02*
X5150Y305D01*
X5190Y345D02*
Y318D01*
X5170D01*
X5177Y332D01*
Y338D01*
X5170Y345D01*
X5157D01*
X5150Y338D01*
Y325D01*
X5157Y318D01*
X5190Y358D02*
Y385D01*
X5183D01*
X5157Y358D01*
X5150D01*
X5719Y59D02*
Y99D01*
X5699D01*
X5692Y92D01*
Y79D01*
X5699Y72D01*
X5719D01*
X5705D02*
X5692Y59D01*
X5652Y99D02*
X5679D01*
Y79D01*
X5665Y86D01*
X5659D01*
X5652Y79D01*
Y66D01*
X5659Y59D01*
X5672D01*
X5679Y66D01*
X5612Y99D02*
X5625Y92D01*
X5639Y79D01*
Y66D01*
X5632Y59D01*
X5619D01*
X5612Y66D01*
Y72D01*
X5619Y79D01*
X5639D01*
X4835Y98D02*
Y138D01*
X4815D01*
X4808Y131D01*
Y118D01*
X4815Y111D01*
X4835D01*
X4821D02*
X4808Y98D01*
X4768Y138D02*
X4795D01*
Y118D01*
X4781Y124D01*
X4775D01*
X4768Y118D01*
Y104D01*
X4775Y98D01*
X4788D01*
X4795Y104D01*
X4728Y138D02*
X4755D01*
Y118D01*
X4741Y124D01*
X4735D01*
X4728Y118D01*
Y104D01*
X4735Y98D01*
X4748D01*
X4755Y104D01*
X2149Y949D02*
Y989D01*
X2129D01*
X2122Y982D01*
Y969D01*
X2129Y962D01*
X2149D01*
X2135D02*
X2122Y949D01*
X2082Y989D02*
X2109D01*
Y969D01*
X2095Y975D01*
X2089D01*
X2082Y969D01*
Y955D01*
X2089Y949D01*
X2102D01*
X2109Y955D01*
X2049Y949D02*
Y989D01*
X2069Y969D01*
X2042D01*
X1190Y2020D02*
Y2050D01*
X1175D01*
X1170Y2045D01*
Y2035D01*
X1175Y2030D01*
X1190D01*
X1180D02*
X1170Y2020D01*
X1145D02*
Y2050D01*
X1160Y2035D01*
X1140D01*
X1115Y2020D02*
Y2050D01*
X1130Y2035D01*
X1110D01*
X3410Y221D02*
Y261D01*
X3390D01*
X3383Y255D01*
Y241D01*
X3390Y235D01*
X3410D01*
X3397D02*
X3383Y221D01*
X3370Y255D02*
X3363Y261D01*
X3350D01*
X3343Y255D01*
Y248D01*
X3350Y241D01*
X3357D01*
X3350D01*
X3343Y235D01*
Y228D01*
X3350Y221D01*
X3363D01*
X3370Y228D01*
X3303Y221D02*
X3330D01*
X3303Y248D01*
Y255D01*
X3310Y261D01*
X3323D01*
X3330Y255D01*
X3376Y468D02*
Y498D01*
X3361D01*
X3356Y493D01*
Y483D01*
X3361Y478D01*
X3376D01*
X3366D02*
X3356Y468D01*
X3346Y493D02*
X3341Y498D01*
X3331D01*
X3326Y493D01*
Y488D01*
X3331Y483D01*
X3336D01*
X3331D01*
X3326Y478D01*
Y473D01*
X3331Y468D01*
X3341D01*
X3346Y473D01*
X3316Y468D02*
X3306D01*
X3311D01*
Y498D01*
X3316Y493D01*
X2094Y1519D02*
Y1559D01*
X2074D01*
X2067Y1552D01*
Y1539D01*
X2074Y1532D01*
X2094D01*
X2080D02*
X2067Y1519D01*
X2027D02*
X2054D01*
X2027Y1546D01*
Y1552D01*
X2034Y1559D01*
X2047D01*
X2054Y1552D01*
X1987Y1559D02*
X2000Y1552D01*
X2014Y1539D01*
Y1526D01*
X2007Y1519D01*
X1994D01*
X1987Y1526D01*
Y1532D01*
X1994Y1539D01*
X2014D01*
X2094Y1450D02*
Y1490D01*
X2074D01*
X2067Y1483D01*
Y1470D01*
X2074Y1463D01*
X2094D01*
X2080D02*
X2067Y1450D01*
X2027D02*
X2054D01*
X2027Y1476D01*
Y1483D01*
X2034Y1490D01*
X2047D01*
X2054Y1483D01*
X1987Y1490D02*
X2014D01*
Y1470D01*
X2000Y1476D01*
X1994D01*
X1987Y1470D01*
Y1456D01*
X1994Y1450D01*
X2007D01*
X2014Y1456D01*
X2094Y1381D02*
Y1421D01*
X2074D01*
X2067Y1414D01*
Y1401D01*
X2074Y1394D01*
X2094D01*
X2080D02*
X2067Y1381D01*
X2027D02*
X2054D01*
X2027Y1407D01*
Y1414D01*
X2034Y1421D01*
X2047D01*
X2054Y1414D01*
X1994Y1381D02*
Y1421D01*
X2014Y1401D01*
X1987D01*
X2095Y1309D02*
Y1349D01*
X2075D01*
X2068Y1342D01*
Y1329D01*
X2075Y1322D01*
X2095D01*
X2082D02*
X2068Y1309D01*
X2028D02*
X2055D01*
X2028Y1336D01*
Y1342D01*
X2035Y1349D01*
X2048D01*
X2055Y1342D01*
X2015D02*
X2008Y1349D01*
X1995D01*
X1988Y1342D01*
Y1336D01*
X1995Y1329D01*
X2002D01*
X1995D01*
X1988Y1322D01*
Y1316D01*
X1995Y1309D01*
X2008D01*
X2015Y1316D01*
X1647Y1270D02*
Y1310D01*
X1627D01*
X1620Y1303D01*
Y1290D01*
X1627Y1283D01*
X1647D01*
X1633D02*
X1620Y1270D01*
X1607D02*
X1593D01*
X1600D01*
Y1310D01*
X1607Y1303D01*
X1547Y1310D02*
X1573D01*
Y1290D01*
X1560Y1297D01*
X1553D01*
X1547Y1290D01*
Y1277D01*
X1553Y1270D01*
X1567D01*
X1573Y1277D01*
X1647Y1343D02*
Y1383D01*
X1627D01*
X1620Y1376D01*
Y1363D01*
X1627Y1356D01*
X1647D01*
X1633D02*
X1620Y1343D01*
X1607D02*
X1593D01*
X1600D01*
Y1383D01*
X1607Y1376D01*
X1553Y1343D02*
Y1383D01*
X1573Y1363D01*
X1547D01*
X1647Y1410D02*
Y1450D01*
X1627D01*
X1620Y1443D01*
Y1430D01*
X1627Y1423D01*
X1647D01*
X1633D02*
X1620Y1410D01*
X1607D02*
X1593D01*
X1600D01*
Y1450D01*
X1607Y1443D01*
X1573D02*
X1567Y1450D01*
X1553D01*
X1547Y1443D01*
Y1437D01*
X1553Y1430D01*
X1560D01*
X1553D01*
X1547Y1423D01*
Y1417D01*
X1553Y1410D01*
X1567D01*
X1573Y1417D01*
X1646Y1480D02*
Y1520D01*
X1626D01*
X1619Y1513D01*
Y1500D01*
X1626Y1493D01*
X1646D01*
X1632D02*
X1619Y1480D01*
X1606D02*
X1592D01*
X1599D01*
Y1520D01*
X1606Y1513D01*
X1546Y1480D02*
X1572D01*
X1546Y1507D01*
Y1513D01*
X1552Y1520D01*
X1566D01*
X1572Y1513D01*
X1644Y1548D02*
Y1588D01*
X1624D01*
X1617Y1581D01*
Y1568D01*
X1624Y1561D01*
X1644D01*
X1631D02*
X1617Y1548D01*
X1604D02*
X1591D01*
X1597D01*
Y1588D01*
X1604Y1581D01*
X1571Y1548D02*
X1557D01*
X1564D01*
Y1588D01*
X1571Y1581D01*
X2938Y2486D02*
X2978D01*
Y2506D01*
X2971Y2513D01*
X2958D01*
X2951Y2506D01*
Y2486D01*
Y2500D02*
X2938Y2513D01*
X2971Y2526D02*
X2978Y2533D01*
Y2546D01*
X2971Y2553D01*
X2965D01*
X2958Y2546D01*
X2951Y2553D01*
X2945D01*
X2938Y2546D01*
Y2533D01*
X2945Y2526D01*
X2951D01*
X2958Y2533D01*
X2965Y2526D01*
X2971D01*
X2958Y2533D02*
Y2546D01*
X3933Y1831D02*
Y1871D01*
X3913D01*
X3906Y1864D01*
Y1851D01*
X3913Y1844D01*
X3933D01*
X3920D02*
X3906Y1831D01*
X3866Y1871D02*
X3880Y1864D01*
X3893Y1851D01*
Y1837D01*
X3886Y1831D01*
X3873D01*
X3866Y1837D01*
Y1844D01*
X3873Y1851D01*
X3893D01*
X3930Y2134D02*
Y2174D01*
X3910D01*
X3903Y2167D01*
Y2154D01*
X3910Y2147D01*
X3930D01*
X3917D02*
X3903Y2134D01*
X3863Y2174D02*
X3890D01*
Y2154D01*
X3877Y2161D01*
X3870D01*
X3863Y2154D01*
Y2141D01*
X3870Y2134D01*
X3883D01*
X3890Y2141D01*
X4040Y1999D02*
Y2039D01*
X4020D01*
X4013Y2032D01*
Y2019D01*
X4020Y2012D01*
X4040D01*
X4027D02*
X4013Y1999D01*
X3980D02*
Y2039D01*
X4000Y2019D01*
X3973D01*
X3544Y2657D02*
Y2697D01*
X3524D01*
X3517Y2691D01*
Y2677D01*
X3524Y2671D01*
X3544D01*
X3531D02*
X3517Y2657D01*
X3504Y2691D02*
X3497Y2697D01*
X3484D01*
X3477Y2691D01*
Y2684D01*
X3484Y2677D01*
X3491D01*
X3484D01*
X3477Y2671D01*
Y2664D01*
X3484Y2657D01*
X3497D01*
X3504Y2664D01*
X3094Y2658D02*
Y2698D01*
X3074D01*
X3068Y2691D01*
Y2678D01*
X3074Y2671D01*
X3094D01*
X3081D02*
X3068Y2658D01*
X3028D02*
X3054D01*
X3028Y2684D01*
Y2691D01*
X3034Y2698D01*
X3048D01*
X3054Y2691D01*
X1893Y873D02*
Y900D01*
X1900Y906D01*
X1913D01*
X1920Y900D01*
Y873D01*
X1913Y867D01*
X1900D01*
X1907Y880D02*
X1893Y867D01*
X1900D02*
X1893Y873D01*
X1853Y906D02*
X1867Y900D01*
X1880Y886D01*
Y873D01*
X1873Y867D01*
X1860D01*
X1853Y873D01*
Y880D01*
X1860Y886D01*
X1880D01*
X926Y1748D02*
X896D01*
Y1768D01*
X926Y1798D02*
Y1778D01*
X896D01*
Y1798D01*
X911Y1778D02*
Y1788D01*
X926Y1808D02*
X896D01*
Y1823D01*
X901Y1828D01*
X921D01*
X926Y1823D01*
Y1808D01*
X896Y1858D02*
Y1838D01*
X916Y1858D01*
X921D01*
X926Y1853D01*
Y1843D01*
X921Y1838D01*
X3880Y760D02*
Y720D01*
X3853D01*
X3840Y753D02*
X3833Y760D01*
X3820D01*
X3813Y753D01*
Y747D01*
X3820Y740D01*
X3827D01*
X3820D01*
X3813Y733D01*
Y727D01*
X3820Y720D01*
X3833D01*
X3840Y727D01*
X5067Y71D02*
Y31D01*
X5040D01*
X5000D02*
X5027D01*
X5000Y58D01*
Y64D01*
X5007Y71D01*
X5020D01*
X5027Y64D01*
X3040Y177D02*
X3000D01*
Y197D01*
X3007Y204D01*
X3013D01*
X3020Y197D01*
Y177D01*
Y197D01*
X3027Y204D01*
X3033D01*
X3040Y197D01*
Y177D01*
X3000Y217D02*
X3027D01*
X3040Y230D01*
X3027Y244D01*
X3000D01*
X3020D01*
Y217D01*
X3040Y257D02*
Y284D01*
Y270D01*
X3000D01*
Y297D02*
Y310D01*
Y304D01*
X3040D01*
X3033Y297D01*
X1580Y3749D02*
X1594D01*
X1587D01*
Y3716D01*
X1594Y3709D01*
X1600D01*
X1607Y3716D01*
X1567Y3742D02*
X1560Y3749D01*
X1547D01*
X1540Y3742D01*
Y3736D01*
X1547Y3729D01*
X1540Y3722D01*
Y3716D01*
X1547Y3709D01*
X1560D01*
X1567Y3716D01*
Y3722D01*
X1560Y3729D01*
X1567Y3736D01*
Y3742D01*
X1560Y3729D02*
X1547D01*
X4571Y800D02*
X4585D01*
X4578D01*
Y767D01*
X4585Y760D01*
X4591D01*
X4598Y767D01*
X4531Y760D02*
X4558D01*
X4531Y787D01*
Y793D01*
X4538Y800D01*
X4551D01*
X4558Y793D01*
X4668Y888D02*
X4682D01*
X4675D01*
Y855D01*
X4682Y848D01*
X4688D01*
X4695Y855D01*
X4655Y848D02*
X4642D01*
X4648D01*
Y888D01*
X4655Y881D01*
X1453Y969D02*
X1460Y962D01*
Y949D01*
X1453Y942D01*
X1427D01*
X1420Y949D01*
Y962D01*
X1427Y969D01*
X1460Y982D02*
Y1009D01*
X1453D01*
X1427Y982D01*
X1420D01*
Y1042D02*
X1460D01*
X1440Y1022D01*
Y1049D01*
X3902Y235D02*
X3907Y230D01*
Y220D01*
X3902Y215D01*
X3882D01*
X3877Y220D01*
Y230D01*
X3882Y235D01*
X3907Y245D02*
Y265D01*
X3902D01*
X3882Y245D01*
X3877D01*
X3902Y275D02*
X3907Y280D01*
Y290D01*
X3902Y295D01*
X3897D01*
X3892Y290D01*
Y285D01*
Y290D01*
X3887Y295D01*
X3882D01*
X3877Y290D01*
Y280D01*
X3882Y275D01*
X3675Y97D02*
X3680Y102D01*
X3690D01*
X3695Y97D01*
Y77D01*
X3690Y72D01*
X3680D01*
X3675Y77D01*
X3665Y102D02*
X3645D01*
Y97D01*
X3665Y77D01*
Y72D01*
X3615D02*
X3635D01*
X3615Y92D01*
Y97D01*
X3620Y102D01*
X3630D01*
X3635Y97D01*
X5278Y593D02*
X5285Y600D01*
X5298D01*
X5305Y593D01*
Y567D01*
X5298Y560D01*
X5285D01*
X5278Y567D01*
X5238Y600D02*
X5252Y593D01*
X5265Y580D01*
Y567D01*
X5258Y560D01*
X5245D01*
X5238Y567D01*
Y573D01*
X5245Y580D01*
X5265D01*
X5225Y600D02*
X5198D01*
Y593D01*
X5225Y567D01*
Y560D01*
X2498Y836D02*
X2505Y843D01*
X2518D01*
X2525Y836D01*
Y809D01*
X2518Y803D01*
X2505D01*
X2498Y809D01*
X2458Y843D02*
X2472Y836D01*
X2485Y823D01*
Y809D01*
X2478Y803D01*
X2465D01*
X2458Y809D01*
Y816D01*
X2465Y823D01*
X2485D01*
X2445Y836D02*
X2438Y843D01*
X2425D01*
X2418Y836D01*
Y829D01*
X2425Y823D01*
X2432D01*
X2425D01*
X2418Y816D01*
Y809D01*
X2425Y803D01*
X2438D01*
X2445Y809D01*
X5253Y2888D02*
X5260Y2895D01*
X5273D01*
X5280Y2888D01*
Y2862D01*
X5273Y2855D01*
X5260D01*
X5253Y2862D01*
X5220Y2855D02*
Y2895D01*
X5240Y2875D01*
X5213D01*
X5200Y2888D02*
X5193Y2895D01*
X5180D01*
X5173Y2888D01*
Y2882D01*
X5180Y2875D01*
X5173Y2868D01*
Y2862D01*
X5180Y2855D01*
X5193D01*
X5200Y2862D01*
Y2868D01*
X5193Y2875D01*
X5200Y2882D01*
Y2888D01*
X5193Y2875D02*
X5180D01*
X4062Y2829D02*
X4069Y2835D01*
X4082D01*
X4089Y2829D01*
Y2802D01*
X4082Y2795D01*
X4069D01*
X4062Y2802D01*
X4029Y2795D02*
Y2835D01*
X4049Y2815D01*
X4022D01*
X4009Y2835D02*
X3982D01*
Y2829D01*
X4009Y2802D01*
Y2795D01*
X3164Y2490D02*
X3171Y2483D01*
Y2470D01*
X3164Y2463D01*
X3138D01*
X3131Y2470D01*
Y2483D01*
X3138Y2490D01*
X3131Y2503D02*
Y2517D01*
Y2510D01*
X3171D01*
X3164Y2503D01*
X0Y0D02*
Y4000D01*
X6000D01*
Y0D02*
Y4000D01*
X0Y0D02*
X6000D01*
D13*
X1963Y594D02*
G03*
X1963Y594I-5J0D01*
G01*
Y811D02*
G03*
X1963Y811I-5J0D01*
G01*
D16*
X2232Y902D02*
G03*
X2256Y902I12J0D01*
G01*
X2223D02*
X2232D01*
X2256D01*
X2265D01*
D17*
X3985Y2691D02*
X4065D01*
X3985Y2781D02*
X4065D01*
X3484Y645D02*
X3564D01*
X3484Y555D02*
X3564D01*
X3484Y537D02*
X3564D01*
X3484Y447D02*
X3564D01*
X4005Y122D02*
X4085D01*
X4005Y212D02*
X4085D01*
X4005Y231D02*
X4085D01*
X4005Y321D02*
X4085D01*
X4005Y338D02*
X4085D01*
X4005Y428D02*
X4085D01*
X5309Y78D02*
Y158D01*
X5399Y78D02*
Y158D01*
X5201Y78D02*
Y158D01*
X5291Y78D02*
Y158D01*
X5418Y78D02*
Y158D01*
X5508Y78D02*
Y158D01*
X4752Y444D02*
X4832D01*
X4752Y354D02*
X4832D01*
X4752Y338D02*
X4832D01*
X4752Y248D02*
X4832D01*
X5049Y2919D02*
X5129D01*
X5049Y2829D02*
X5129D01*
X3112Y2450D02*
Y2530D01*
X3022Y2450D02*
Y2530D01*
X1392Y818D02*
Y898D01*
X1482Y818D02*
Y898D01*
X2525Y885D02*
Y965D01*
X2435Y885D02*
Y965D01*
X3494Y129D02*
X3574D01*
X3494Y39D02*
X3574D01*
X3754Y211D02*
X3834D01*
X3754Y301D02*
X3834D01*
X5216Y450D02*
X5296D01*
X5216Y540D02*
X5296D01*
D128*
X724Y1880D02*
G03*
X724Y1880I-6J0D01*
G01*
X3996Y2657D02*
G03*
X3996Y2657I-10J0D01*
G01*
X5197Y2795D02*
G03*
X5197Y2795I-10J0D01*
G01*
X1366Y1831D02*
G03*
X1366Y1831I-72J0D01*
G01*
X945Y1161D02*
G03*
X945Y1161I-138J0D01*
G01*
X2598Y395D02*
X2723D01*
Y522D01*
X448Y395D02*
X581D01*
X448D02*
Y551D01*
D198*
X865Y345D02*
Y445D01*
X2383Y345D02*
Y445D01*
X2333Y395D02*
X2433D01*
M02*
