G04*
G04 #@! TF.GenerationSoftware,Altium Limited,Altium Designer,19.0.15 (446)*
G04*
G04 Layer_Color=8421376*
%FSLAX23Y23*%
%MOIN*%
G70*
G01*
G75*
%ADD15C,0.005*%
%ADD52R,0.146X0.071*%
%ADD53R,0.071X0.146*%
%ADD54R,0.058X0.068*%
%ADD55R,0.068X0.058*%
%ADD56R,0.058X0.055*%
G04:AMPARAMS|DCode=63|XSize=45mil|YSize=43mil|CornerRadius=8mil|HoleSize=0mil|Usage=FLASHONLY|Rotation=90.000|XOffset=0mil|YOffset=0mil|HoleType=Round|Shape=RoundedRectangle|*
%AMROUNDEDRECTD63*
21,1,0.045,0.027,0,0,90.0*
21,1,0.029,0.043,0,0,90.0*
1,1,0.016,0.014,0.014*
1,1,0.016,0.014,-0.014*
1,1,0.016,-0.014,-0.014*
1,1,0.016,-0.014,0.014*
%
%ADD63ROUNDEDRECTD63*%
%ADD66R,0.055X0.058*%
%ADD70R,0.045X0.043*%
%ADD71R,0.045X0.043*%
%ADD82R,0.045X0.024*%
%ADD91C,0.051*%
%ADD92R,0.071X0.071*%
%ADD93C,0.071*%
%ADD94C,0.047*%
%ADD95O,0.047X0.047*%
%ADD96C,0.059*%
%ADD97C,0.058*%
%ADD98C,0.118*%
%ADD99C,0.015*%
%ADD100C,0.023*%
%ADD101O,0.047X0.083*%
%ADD102O,0.049X0.057*%
%ADD103R,0.067X0.067*%
%ADD104C,0.067*%
%ADD105R,0.071X0.071*%
%ADD106C,0.078*%
%ADD107R,0.078X0.078*%
%ADD108C,0.205*%
%ADD109C,0.068*%
%ADD110R,0.068X0.068*%
%ADD111C,0.028*%
G04:AMPARAMS|DCode=172|XSize=24mil|YSize=9mil|CornerRadius=1mil|HoleSize=0mil|Usage=FLASHONLY|Rotation=180.000|XOffset=0mil|YOffset=0mil|HoleType=Round|Shape=RoundedRectangle|*
%AMROUNDEDRECTD172*
21,1,0.024,0.007,0,0,180.0*
21,1,0.021,0.009,0,0,180.0*
1,1,0.002,-0.011,0.004*
1,1,0.002,0.011,0.004*
1,1,0.002,0.011,-0.004*
1,1,0.002,-0.011,-0.004*
%
%ADD172ROUNDEDRECTD172*%
G04:AMPARAMS|DCode=173|XSize=65mil|YSize=94mil|CornerRadius=2mil|HoleSize=0mil|Usage=FLASHONLY|Rotation=180.000|XOffset=0mil|YOffset=0mil|HoleType=Round|Shape=RoundedRectangle|*
%AMROUNDEDRECTD173*
21,1,0.065,0.091,0,0,180.0*
21,1,0.062,0.094,0,0,180.0*
1,1,0.003,-0.031,0.046*
1,1,0.003,0.031,0.046*
1,1,0.003,0.031,-0.046*
1,1,0.003,-0.031,-0.046*
%
%ADD173ROUNDEDRECTD173*%
%ADD176R,0.059X0.110*%
%ADD177R,0.134X0.047*%
G04:AMPARAMS|DCode=178|XSize=79mil|YSize=60mil|CornerRadius=10mil|HoleSize=0mil|Usage=FLASHONLY|Rotation=180.000|XOffset=0mil|YOffset=0mil|HoleType=Round|Shape=RoundedRectangle|*
%AMROUNDEDRECTD178*
21,1,0.079,0.039,0,0,180.0*
21,1,0.058,0.060,0,0,180.0*
1,1,0.021,-0.029,0.019*
1,1,0.021,0.029,0.019*
1,1,0.021,0.029,-0.019*
1,1,0.021,-0.029,-0.019*
%
%ADD178ROUNDEDRECTD178*%
%ADD179R,0.051X0.067*%
%ADD180R,0.091X0.118*%
%ADD181R,0.032X0.083*%
%ADD182R,0.102X0.102*%
%ADD183R,0.020X0.055*%
%ADD184C,0.039*%
%ADD185R,0.039X0.039*%
%ADD186R,0.043X0.039*%
%ADD187R,0.058X0.030*%
%ADD188R,0.049X0.076*%
%ADD189R,0.093X0.116*%
%ADD190R,0.089X0.114*%
%ADD191R,0.079X0.185*%
%ADD192R,0.039X0.017*%
G36*
X725Y3850D02*
X275D01*
Y3975D01*
X725D01*
Y3850D01*
D02*
G37*
G36*
X5073Y319D02*
X5060D01*
Y350D01*
X5055D01*
Y319D01*
X5042D01*
Y350D01*
X5037D01*
Y319D01*
X5024D01*
Y350D01*
X5019D01*
Y319D01*
X5006D01*
Y498D01*
X5019D01*
Y467D01*
X5024D01*
Y498D01*
X5037D01*
Y467D01*
X5042D01*
Y498D01*
X5055D01*
Y467D01*
X5060D01*
Y498D01*
X5073D01*
Y319D01*
D02*
G37*
G36*
X5102Y475D02*
X5102Y475D01*
X5103Y475D01*
X5103Y475D01*
X5104Y475D01*
X5104Y475D01*
X5104Y475D01*
X5105Y474D01*
X5105Y474D01*
X5105Y474D01*
X5106Y474D01*
X5106Y474D01*
X5106Y473D01*
X5107Y473D01*
X5107Y473D01*
X5107Y473D01*
X5107Y472D01*
X5108Y472D01*
X5108Y472D01*
X5108Y471D01*
X5108Y471D01*
X5108Y471D01*
X5109Y470D01*
X5109Y470D01*
X5109Y469D01*
X5109Y469D01*
X5109Y469D01*
X5109Y468D01*
X5109Y468D01*
X5109Y468D01*
X5109Y467D01*
X5109Y467D01*
X5109Y466D01*
X5109Y466D01*
X5109Y466D01*
X5109Y465D01*
X5109Y465D01*
X5108Y464D01*
X5108Y464D01*
X5108Y464D01*
X5108Y463D01*
X5108Y463D01*
X5107Y463D01*
X5107Y463D01*
X5107Y462D01*
X5107Y462D01*
X5106Y462D01*
X5106Y461D01*
X5106Y461D01*
X5105Y461D01*
X5105Y461D01*
X5105Y461D01*
X5104Y461D01*
X5104Y460D01*
X5104Y460D01*
X5103Y460D01*
X5103Y460D01*
X5102Y460D01*
X5102Y460D01*
X5102Y460D01*
X5087D01*
X5087Y460D01*
X5087Y460D01*
X5086Y460D01*
X5086Y460D01*
X5085Y460D01*
X5085Y460D01*
X5085Y461D01*
X5084Y461D01*
X5084Y461D01*
X5084Y461D01*
X5083Y461D01*
X5083Y461D01*
X5083Y462D01*
X5082Y462D01*
X5082Y462D01*
X5082Y463D01*
X5082Y463D01*
X5081Y463D01*
X5081Y463D01*
X5081Y464D01*
X5081Y464D01*
X5081Y464D01*
X5080Y465D01*
X5080Y465D01*
X5080Y466D01*
X5080Y466D01*
X5080Y466D01*
X5080Y467D01*
X5080Y467D01*
X5080Y468D01*
X5080Y468D01*
X5080Y468D01*
X5080Y469D01*
X5080Y469D01*
X5080Y469D01*
X5080Y470D01*
X5080Y470D01*
X5081Y471D01*
X5081Y471D01*
X5081Y471D01*
X5081Y472D01*
X5081Y472D01*
X5082Y472D01*
X5082Y473D01*
X5082Y473D01*
X5082Y473D01*
X5083Y473D01*
X5083Y474D01*
X5083Y474D01*
X5084Y474D01*
X5084Y474D01*
X5084Y474D01*
X5085Y475D01*
X5085Y475D01*
X5085Y475D01*
X5086Y475D01*
X5086Y475D01*
X5087Y475D01*
X5087Y475D01*
X5087Y475D01*
X5102D01*
X5102Y475D01*
D02*
G37*
G36*
X4992D02*
X4992Y475D01*
X4993Y475D01*
X4993Y475D01*
X4993Y475D01*
X4994Y475D01*
X4994Y475D01*
X4994Y474D01*
X4995Y474D01*
X4995Y474D01*
X4995Y474D01*
X4996Y474D01*
X4996Y473D01*
X4996Y473D01*
X4997Y473D01*
X4997Y473D01*
X4997Y472D01*
X4997Y472D01*
X4998Y472D01*
X4998Y471D01*
X4998Y471D01*
X4998Y471D01*
X4998Y470D01*
X4998Y470D01*
X4999Y469D01*
X4999Y469D01*
X4999Y469D01*
X4999Y468D01*
X4999Y468D01*
X4999Y468D01*
X4999Y467D01*
X4999Y467D01*
X4999Y466D01*
X4999Y466D01*
X4999Y466D01*
X4998Y465D01*
X4998Y465D01*
X4998Y464D01*
X4998Y464D01*
X4998Y464D01*
X4998Y463D01*
X4997Y463D01*
X4997Y463D01*
X4997Y463D01*
X4997Y462D01*
X4996Y462D01*
X4996Y462D01*
X4996Y461D01*
X4995Y461D01*
X4995Y461D01*
X4995Y461D01*
X4994Y461D01*
X4994Y461D01*
X4994Y460D01*
X4993Y460D01*
X4993Y460D01*
X4993Y460D01*
X4992Y460D01*
X4992Y460D01*
X4991Y460D01*
X4977D01*
X4977Y460D01*
X4976Y460D01*
X4976Y460D01*
X4976Y460D01*
X4975Y460D01*
X4975Y460D01*
X4974Y461D01*
X4974Y461D01*
X4974Y461D01*
X4973Y461D01*
X4973Y461D01*
X4973Y461D01*
X4972Y462D01*
X4972Y462D01*
X4972Y462D01*
X4972Y463D01*
X4971Y463D01*
X4971Y463D01*
X4971Y463D01*
X4971Y464D01*
X4970Y464D01*
X4970Y464D01*
X4970Y465D01*
X4970Y465D01*
X4970Y466D01*
X4970Y466D01*
X4970Y466D01*
X4970Y467D01*
X4970Y467D01*
X4970Y468D01*
X4970Y468D01*
X4970Y468D01*
X4970Y469D01*
X4970Y469D01*
X4970Y469D01*
X4970Y470D01*
X4970Y470D01*
X4970Y471D01*
X4970Y471D01*
X4971Y471D01*
X4971Y472D01*
X4971Y472D01*
X4971Y472D01*
X4972Y473D01*
X4972Y473D01*
X4972Y473D01*
X4972Y473D01*
X4973Y474D01*
X4973Y474D01*
X4973Y474D01*
X4974Y474D01*
X4974Y474D01*
X4974Y475D01*
X4975Y475D01*
X4975Y475D01*
X4976Y475D01*
X4976Y475D01*
X4976Y475D01*
X4977Y475D01*
X4977Y475D01*
X4991D01*
X4992Y475D01*
D02*
G37*
G36*
X3827Y445D02*
X3844D01*
Y345D01*
X3827D01*
Y326D01*
X3811D01*
Y345D01*
X3807D01*
Y326D01*
X3792D01*
Y345D01*
X3774D01*
Y445D01*
X3792D01*
Y465D01*
X3807D01*
Y445D01*
X3811D01*
Y465D01*
X3827D01*
Y445D01*
D02*
G37*
G36*
X5102Y455D02*
X5102Y455D01*
X5103Y455D01*
X5103Y455D01*
X5104Y455D01*
X5104Y455D01*
X5104Y455D01*
X5105Y455D01*
X5105Y454D01*
X5105Y454D01*
X5106Y454D01*
X5106Y454D01*
X5106Y454D01*
X5107Y453D01*
X5107Y453D01*
X5107Y453D01*
X5107Y453D01*
X5108Y452D01*
X5108Y452D01*
X5108Y452D01*
X5108Y451D01*
X5108Y451D01*
X5109Y451D01*
X5109Y450D01*
X5109Y450D01*
X5109Y449D01*
X5109Y449D01*
X5109Y449D01*
X5109Y448D01*
X5109Y448D01*
X5109Y447D01*
X5109Y447D01*
X5109Y447D01*
X5109Y446D01*
X5109Y446D01*
X5109Y446D01*
X5109Y445D01*
X5108Y445D01*
X5108Y444D01*
X5108Y444D01*
X5108Y444D01*
X5108Y443D01*
X5107Y443D01*
X5107Y443D01*
X5107Y443D01*
X5107Y442D01*
X5106Y442D01*
X5106Y442D01*
X5106Y442D01*
X5105Y441D01*
X5105Y441D01*
X5105Y441D01*
X5104Y441D01*
X5104Y441D01*
X5104Y441D01*
X5103Y441D01*
X5103Y440D01*
X5102Y440D01*
X5102Y440D01*
X5102Y440D01*
X5087D01*
X5087Y440D01*
X5087Y440D01*
X5086Y440D01*
X5086Y441D01*
X5085Y441D01*
X5085Y441D01*
X5085Y441D01*
X5084Y441D01*
X5084Y441D01*
X5084Y441D01*
X5083Y442D01*
X5083Y442D01*
X5083Y442D01*
X5082Y442D01*
X5082Y443D01*
X5082Y443D01*
X5082Y443D01*
X5081Y443D01*
X5081Y444D01*
X5081Y444D01*
X5081Y444D01*
X5081Y445D01*
X5080Y445D01*
X5080Y446D01*
X5080Y446D01*
X5080Y446D01*
X5080Y447D01*
X5080Y447D01*
X5080Y447D01*
X5080Y448D01*
X5080Y448D01*
X5080Y449D01*
X5080Y449D01*
X5080Y449D01*
X5080Y450D01*
X5080Y450D01*
X5080Y451D01*
X5081Y451D01*
X5081Y451D01*
X5081Y452D01*
X5081Y452D01*
X5081Y452D01*
X5082Y453D01*
X5082Y453D01*
X5082Y453D01*
X5082Y453D01*
X5083Y454D01*
X5083Y454D01*
X5083Y454D01*
X5084Y454D01*
X5084Y454D01*
X5084Y455D01*
X5085Y455D01*
X5085Y455D01*
X5085Y455D01*
X5086Y455D01*
X5086Y455D01*
X5087Y455D01*
X5087Y455D01*
X5087Y455D01*
X5102D01*
X5102Y455D01*
D02*
G37*
G36*
X4992D02*
X4992Y455D01*
X4993Y455D01*
X4993Y455D01*
X4993Y455D01*
X4994Y455D01*
X4994Y455D01*
X4994Y455D01*
X4995Y454D01*
X4995Y454D01*
X4995Y454D01*
X4996Y454D01*
X4996Y454D01*
X4996Y453D01*
X4997Y453D01*
X4997Y453D01*
X4997Y453D01*
X4997Y452D01*
X4998Y452D01*
X4998Y452D01*
X4998Y451D01*
X4998Y451D01*
X4998Y451D01*
X4998Y450D01*
X4999Y450D01*
X4999Y449D01*
X4999Y449D01*
X4999Y449D01*
X4999Y448D01*
X4999Y448D01*
X4999Y447D01*
X4999Y447D01*
X4999Y447D01*
X4999Y446D01*
X4999Y446D01*
X4998Y446D01*
X4998Y445D01*
X4998Y445D01*
X4998Y444D01*
X4998Y444D01*
X4998Y444D01*
X4997Y443D01*
X4997Y443D01*
X4997Y443D01*
X4997Y443D01*
X4996Y442D01*
X4996Y442D01*
X4996Y442D01*
X4995Y442D01*
X4995Y441D01*
X4995Y441D01*
X4994Y441D01*
X4994Y441D01*
X4994Y441D01*
X4993Y441D01*
X4993Y441D01*
X4993Y440D01*
X4992Y440D01*
X4992Y440D01*
X4991Y440D01*
X4977D01*
X4977Y440D01*
X4976Y440D01*
X4976Y440D01*
X4976Y441D01*
X4975Y441D01*
X4975Y441D01*
X4974Y441D01*
X4974Y441D01*
X4974Y441D01*
X4973Y441D01*
X4973Y442D01*
X4973Y442D01*
X4972Y442D01*
X4972Y442D01*
X4972Y443D01*
X4972Y443D01*
X4971Y443D01*
X4971Y443D01*
X4971Y444D01*
X4971Y444D01*
X4970Y444D01*
X4970Y445D01*
X4970Y445D01*
X4970Y446D01*
X4970Y446D01*
X4970Y446D01*
X4970Y447D01*
X4970Y447D01*
X4970Y447D01*
X4970Y448D01*
X4970Y448D01*
X4970Y449D01*
X4970Y449D01*
X4970Y449D01*
X4970Y450D01*
X4970Y450D01*
X4970Y451D01*
X4970Y451D01*
X4970Y451D01*
X4971Y452D01*
X4971Y452D01*
X4971Y452D01*
X4971Y453D01*
X4972Y453D01*
X4972Y453D01*
X4972Y453D01*
X4972Y454D01*
X4973Y454D01*
X4973Y454D01*
X4973Y454D01*
X4974Y454D01*
X4974Y455D01*
X4974Y455D01*
X4975Y455D01*
X4975Y455D01*
X4976Y455D01*
X4976Y455D01*
X4976Y455D01*
X4977Y455D01*
X4977Y455D01*
X4991D01*
X4992Y455D01*
D02*
G37*
G36*
X3879Y427D02*
X3850D01*
Y442D01*
X3879D01*
Y427D01*
D02*
G37*
G36*
X3769D02*
X3739D01*
Y442D01*
X3769D01*
Y427D01*
D02*
G37*
G36*
X5102Y436D02*
X5102Y436D01*
X5103Y436D01*
X5103Y435D01*
X5104Y435D01*
X5104Y435D01*
X5104Y435D01*
X5105Y435D01*
X5105Y435D01*
X5105Y435D01*
X5106Y434D01*
X5106Y434D01*
X5106Y434D01*
X5107Y434D01*
X5107Y433D01*
X5107Y433D01*
X5107Y433D01*
X5108Y433D01*
X5108Y432D01*
X5108Y432D01*
X5108Y432D01*
X5108Y431D01*
X5109Y431D01*
X5109Y430D01*
X5109Y430D01*
X5109Y430D01*
X5109Y429D01*
X5109Y429D01*
X5109Y429D01*
X5109Y428D01*
X5109Y428D01*
X5109Y427D01*
X5109Y427D01*
X5109Y427D01*
X5109Y426D01*
X5109Y426D01*
X5109Y425D01*
X5108Y425D01*
X5108Y425D01*
X5108Y424D01*
X5108Y424D01*
X5108Y424D01*
X5107Y423D01*
X5107Y423D01*
X5107Y423D01*
X5107Y423D01*
X5106Y422D01*
X5106Y422D01*
X5106Y422D01*
X5105Y422D01*
X5105Y421D01*
X5105Y421D01*
X5104Y421D01*
X5104Y421D01*
X5104Y421D01*
X5103Y421D01*
X5103Y421D01*
X5102Y421D01*
X5102Y421D01*
X5102Y421D01*
X5087D01*
X5087Y421D01*
X5087Y421D01*
X5086Y421D01*
X5086Y421D01*
X5085Y421D01*
X5085Y421D01*
X5085Y421D01*
X5084Y421D01*
X5084Y421D01*
X5084Y422D01*
X5083Y422D01*
X5083Y422D01*
X5083Y422D01*
X5082Y423D01*
X5082Y423D01*
X5082Y423D01*
X5082Y423D01*
X5081Y424D01*
X5081Y424D01*
X5081Y424D01*
X5081Y425D01*
X5081Y425D01*
X5080Y425D01*
X5080Y426D01*
X5080Y426D01*
X5080Y427D01*
X5080Y427D01*
X5080Y427D01*
X5080Y428D01*
X5080Y428D01*
X5080Y429D01*
X5080Y429D01*
X5080Y429D01*
X5080Y430D01*
X5080Y430D01*
X5080Y430D01*
X5080Y431D01*
X5081Y431D01*
X5081Y432D01*
X5081Y432D01*
X5081Y432D01*
X5081Y433D01*
X5082Y433D01*
X5082Y433D01*
X5082Y433D01*
X5082Y434D01*
X5083Y434D01*
X5083Y434D01*
X5083Y434D01*
X5084Y435D01*
X5084Y435D01*
X5084Y435D01*
X5085Y435D01*
X5085Y435D01*
X5085Y435D01*
X5086Y435D01*
X5086Y436D01*
X5087Y436D01*
X5087Y436D01*
X5087Y436D01*
X5102D01*
X5102Y436D01*
D02*
G37*
G36*
X4992D02*
X4992Y436D01*
X4993Y436D01*
X4993Y435D01*
X4993Y435D01*
X4994Y435D01*
X4994Y435D01*
X4994Y435D01*
X4995Y435D01*
X4995Y435D01*
X4995Y434D01*
X4996Y434D01*
X4996Y434D01*
X4996Y434D01*
X4997Y433D01*
X4997Y433D01*
X4997Y433D01*
X4997Y433D01*
X4998Y432D01*
X4998Y432D01*
X4998Y432D01*
X4998Y431D01*
X4998Y431D01*
X4998Y430D01*
X4999Y430D01*
X4999Y430D01*
X4999Y429D01*
X4999Y429D01*
X4999Y429D01*
X4999Y428D01*
X4999Y428D01*
X4999Y427D01*
X4999Y427D01*
X4999Y427D01*
X4999Y426D01*
X4998Y426D01*
X4998Y425D01*
X4998Y425D01*
X4998Y425D01*
X4998Y424D01*
X4998Y424D01*
X4997Y424D01*
X4997Y423D01*
X4997Y423D01*
X4997Y423D01*
X4996Y423D01*
X4996Y422D01*
X4996Y422D01*
X4995Y422D01*
X4995Y422D01*
X4995Y421D01*
X4994Y421D01*
X4994Y421D01*
X4994Y421D01*
X4993Y421D01*
X4993Y421D01*
X4993Y421D01*
X4992Y421D01*
X4992Y421D01*
X4991Y421D01*
X4977D01*
X4977Y421D01*
X4976Y421D01*
X4976Y421D01*
X4976Y421D01*
X4975Y421D01*
X4975Y421D01*
X4974Y421D01*
X4974Y421D01*
X4974Y421D01*
X4973Y422D01*
X4973Y422D01*
X4973Y422D01*
X4972Y422D01*
X4972Y423D01*
X4972Y423D01*
X4972Y423D01*
X4971Y423D01*
X4971Y424D01*
X4971Y424D01*
X4971Y424D01*
X4970Y425D01*
X4970Y425D01*
X4970Y425D01*
X4970Y426D01*
X4970Y426D01*
X4970Y427D01*
X4970Y427D01*
X4970Y427D01*
X4970Y428D01*
X4970Y428D01*
X4970Y429D01*
X4970Y429D01*
X4970Y429D01*
X4970Y430D01*
X4970Y430D01*
X4970Y430D01*
X4970Y431D01*
X4970Y431D01*
X4970Y432D01*
X4971Y432D01*
X4971Y432D01*
X4971Y433D01*
X4971Y433D01*
X4972Y433D01*
X4972Y433D01*
X4972Y434D01*
X4972Y434D01*
X4973Y434D01*
X4973Y434D01*
X4973Y435D01*
X4974Y435D01*
X4974Y435D01*
X4974Y435D01*
X4975Y435D01*
X4975Y435D01*
X4976Y435D01*
X4976Y436D01*
X4976Y436D01*
X4977Y436D01*
X4977Y436D01*
X4991D01*
X4992Y436D01*
D02*
G37*
G36*
X3879Y407D02*
X3850D01*
Y422D01*
X3879D01*
Y407D01*
D02*
G37*
G36*
X3769D02*
X3739D01*
Y422D01*
X3769D01*
Y407D01*
D02*
G37*
G36*
X5102Y416D02*
X5102Y416D01*
X5103Y416D01*
X5103Y416D01*
X5104Y416D01*
X5104Y416D01*
X5104Y415D01*
X5105Y415D01*
X5105Y415D01*
X5105Y415D01*
X5106Y415D01*
X5106Y415D01*
X5106Y414D01*
X5107Y414D01*
X5107Y414D01*
X5107Y413D01*
X5107Y413D01*
X5108Y413D01*
X5108Y413D01*
X5108Y412D01*
X5108Y412D01*
X5108Y412D01*
X5109Y411D01*
X5109Y411D01*
X5109Y410D01*
X5109Y410D01*
X5109Y410D01*
X5109Y409D01*
X5109Y409D01*
X5109Y408D01*
X5109Y408D01*
X5109Y408D01*
X5109Y407D01*
X5109Y407D01*
X5109Y407D01*
X5109Y406D01*
X5109Y406D01*
X5108Y405D01*
X5108Y405D01*
X5108Y405D01*
X5108Y404D01*
X5108Y404D01*
X5107Y404D01*
X5107Y403D01*
X5107Y403D01*
X5107Y403D01*
X5106Y403D01*
X5106Y402D01*
X5106Y402D01*
X5105Y402D01*
X5105Y402D01*
X5105Y402D01*
X5104Y401D01*
X5104Y401D01*
X5104Y401D01*
X5103Y401D01*
X5103Y401D01*
X5102Y401D01*
X5102Y401D01*
X5102Y401D01*
X5087D01*
X5087Y401D01*
X5087Y401D01*
X5086Y401D01*
X5086Y401D01*
X5085Y401D01*
X5085Y401D01*
X5085Y401D01*
X5084Y402D01*
X5084Y402D01*
X5084Y402D01*
X5083Y402D01*
X5083Y402D01*
X5083Y403D01*
X5082Y403D01*
X5082Y403D01*
X5082Y403D01*
X5082Y404D01*
X5081Y404D01*
X5081Y404D01*
X5081Y405D01*
X5081Y405D01*
X5081Y405D01*
X5080Y406D01*
X5080Y406D01*
X5080Y407D01*
X5080Y407D01*
X5080Y407D01*
X5080Y408D01*
X5080Y408D01*
X5080Y408D01*
X5080Y409D01*
X5080Y409D01*
X5080Y410D01*
X5080Y410D01*
X5080Y410D01*
X5080Y411D01*
X5080Y411D01*
X5081Y412D01*
X5081Y412D01*
X5081Y412D01*
X5081Y413D01*
X5081Y413D01*
X5082Y413D01*
X5082Y413D01*
X5082Y414D01*
X5082Y414D01*
X5083Y414D01*
X5083Y415D01*
X5083Y415D01*
X5084Y415D01*
X5084Y415D01*
X5084Y415D01*
X5085Y415D01*
X5085Y416D01*
X5085Y416D01*
X5086Y416D01*
X5086Y416D01*
X5087Y416D01*
X5087Y416D01*
X5087Y416D01*
X5102D01*
X5102Y416D01*
D02*
G37*
G36*
X4992D02*
X4992Y416D01*
X4993Y416D01*
X4993Y416D01*
X4993Y416D01*
X4994Y416D01*
X4994Y415D01*
X4994Y415D01*
X4995Y415D01*
X4995Y415D01*
X4995Y415D01*
X4996Y415D01*
X4996Y414D01*
X4996Y414D01*
X4997Y414D01*
X4997Y413D01*
X4997Y413D01*
X4997Y413D01*
X4998Y413D01*
X4998Y412D01*
X4998Y412D01*
X4998Y412D01*
X4998Y411D01*
X4998Y411D01*
X4999Y410D01*
X4999Y410D01*
X4999Y410D01*
X4999Y409D01*
X4999Y409D01*
X4999Y408D01*
X4999Y408D01*
X4999Y408D01*
X4999Y407D01*
X4999Y407D01*
X4999Y407D01*
X4998Y406D01*
X4998Y406D01*
X4998Y405D01*
X4998Y405D01*
X4998Y405D01*
X4998Y404D01*
X4997Y404D01*
X4997Y404D01*
X4997Y403D01*
X4997Y403D01*
X4996Y403D01*
X4996Y403D01*
X4996Y402D01*
X4995Y402D01*
X4995Y402D01*
X4995Y402D01*
X4994Y402D01*
X4994Y401D01*
X4994Y401D01*
X4993Y401D01*
X4993Y401D01*
X4993Y401D01*
X4992Y401D01*
X4992Y401D01*
X4991Y401D01*
X4977D01*
X4977Y401D01*
X4976Y401D01*
X4976Y401D01*
X4976Y401D01*
X4975Y401D01*
X4975Y401D01*
X4974Y401D01*
X4974Y402D01*
X4974Y402D01*
X4973Y402D01*
X4973Y402D01*
X4973Y402D01*
X4972Y403D01*
X4972Y403D01*
X4972Y403D01*
X4972Y403D01*
X4971Y404D01*
X4971Y404D01*
X4971Y404D01*
X4971Y405D01*
X4970Y405D01*
X4970Y405D01*
X4970Y406D01*
X4970Y406D01*
X4970Y407D01*
X4970Y407D01*
X4970Y407D01*
X4970Y408D01*
X4970Y408D01*
X4970Y408D01*
X4970Y409D01*
X4970Y409D01*
X4970Y410D01*
X4970Y410D01*
X4970Y410D01*
X4970Y411D01*
X4970Y411D01*
X4970Y412D01*
X4970Y412D01*
X4971Y412D01*
X4971Y413D01*
X4971Y413D01*
X4971Y413D01*
X4972Y413D01*
X4972Y414D01*
X4972Y414D01*
X4972Y414D01*
X4973Y415D01*
X4973Y415D01*
X4973Y415D01*
X4974Y415D01*
X4974Y415D01*
X4974Y415D01*
X4975Y416D01*
X4975Y416D01*
X4976Y416D01*
X4976Y416D01*
X4976Y416D01*
X4977Y416D01*
X4977Y416D01*
X4991D01*
X4992Y416D01*
D02*
G37*
G36*
X3879Y388D02*
X3850D01*
Y403D01*
X3879D01*
Y388D01*
D02*
G37*
G36*
X3769D02*
X3739D01*
Y403D01*
X3769D01*
Y388D01*
D02*
G37*
G36*
X5102Y396D02*
X5102Y396D01*
X5103Y396D01*
X5103Y396D01*
X5104Y396D01*
X5104Y396D01*
X5104Y396D01*
X5105Y396D01*
X5105Y395D01*
X5105Y395D01*
X5106Y395D01*
X5106Y395D01*
X5106Y395D01*
X5107Y394D01*
X5107Y394D01*
X5107Y394D01*
X5107Y393D01*
X5108Y393D01*
X5108Y393D01*
X5108Y393D01*
X5108Y392D01*
X5108Y392D01*
X5109Y391D01*
X5109Y391D01*
X5109Y391D01*
X5109Y390D01*
X5109Y390D01*
X5109Y390D01*
X5109Y389D01*
X5109Y389D01*
X5109Y388D01*
X5109Y388D01*
X5109Y388D01*
X5109Y387D01*
X5109Y387D01*
X5109Y386D01*
X5109Y386D01*
X5108Y386D01*
X5108Y385D01*
X5108Y385D01*
X5108Y385D01*
X5108Y384D01*
X5107Y384D01*
X5107Y384D01*
X5107Y383D01*
X5107Y383D01*
X5106Y383D01*
X5106Y383D01*
X5106Y383D01*
X5105Y382D01*
X5105Y382D01*
X5105Y382D01*
X5104Y382D01*
X5104Y382D01*
X5104Y382D01*
X5103Y381D01*
X5103Y381D01*
X5102Y381D01*
X5102Y381D01*
X5102Y381D01*
X5087D01*
X5087Y381D01*
X5087Y381D01*
X5086Y381D01*
X5086Y381D01*
X5085Y382D01*
X5085Y382D01*
X5085Y382D01*
X5084Y382D01*
X5084Y382D01*
X5084Y382D01*
X5083Y383D01*
X5083Y383D01*
X5083Y383D01*
X5082Y383D01*
X5082Y383D01*
X5082Y384D01*
X5082Y384D01*
X5081Y384D01*
X5081Y385D01*
X5081Y385D01*
X5081Y385D01*
X5081Y386D01*
X5080Y386D01*
X5080Y386D01*
X5080Y387D01*
X5080Y387D01*
X5080Y388D01*
X5080Y388D01*
X5080Y388D01*
X5080Y389D01*
X5080Y389D01*
X5080Y390D01*
X5080Y390D01*
X5080Y390D01*
X5080Y391D01*
X5080Y391D01*
X5080Y391D01*
X5081Y392D01*
X5081Y392D01*
X5081Y393D01*
X5081Y393D01*
X5081Y393D01*
X5082Y393D01*
X5082Y394D01*
X5082Y394D01*
X5082Y394D01*
X5083Y395D01*
X5083Y395D01*
X5083Y395D01*
X5084Y395D01*
X5084Y395D01*
X5084Y396D01*
X5085Y396D01*
X5085Y396D01*
X5085Y396D01*
X5086Y396D01*
X5086Y396D01*
X5087Y396D01*
X5087Y396D01*
X5087Y396D01*
X5102D01*
X5102Y396D01*
D02*
G37*
G36*
X4992D02*
X4992Y396D01*
X4993Y396D01*
X4993Y396D01*
X4993Y396D01*
X4994Y396D01*
X4994Y396D01*
X4994Y396D01*
X4995Y395D01*
X4995Y395D01*
X4995Y395D01*
X4996Y395D01*
X4996Y395D01*
X4996Y394D01*
X4997Y394D01*
X4997Y394D01*
X4997Y393D01*
X4997Y393D01*
X4998Y393D01*
X4998Y393D01*
X4998Y392D01*
X4998Y392D01*
X4998Y391D01*
X4998Y391D01*
X4999Y391D01*
X4999Y390D01*
X4999Y390D01*
X4999Y390D01*
X4999Y389D01*
X4999Y389D01*
X4999Y388D01*
X4999Y388D01*
X4999Y388D01*
X4999Y387D01*
X4999Y387D01*
X4998Y386D01*
X4998Y386D01*
X4998Y386D01*
X4998Y385D01*
X4998Y385D01*
X4998Y385D01*
X4997Y384D01*
X4997Y384D01*
X4997Y384D01*
X4997Y383D01*
X4996Y383D01*
X4996Y383D01*
X4996Y383D01*
X4995Y383D01*
X4995Y382D01*
X4995Y382D01*
X4994Y382D01*
X4994Y382D01*
X4994Y382D01*
X4993Y382D01*
X4993Y381D01*
X4993Y381D01*
X4992Y381D01*
X4992Y381D01*
X4991Y381D01*
X4977D01*
X4977Y381D01*
X4976Y381D01*
X4976Y381D01*
X4976Y381D01*
X4975Y382D01*
X4975Y382D01*
X4974Y382D01*
X4974Y382D01*
X4974Y382D01*
X4973Y382D01*
X4973Y383D01*
X4973Y383D01*
X4972Y383D01*
X4972Y383D01*
X4972Y383D01*
X4972Y384D01*
X4971Y384D01*
X4971Y384D01*
X4971Y385D01*
X4971Y385D01*
X4970Y385D01*
X4970Y386D01*
X4970Y386D01*
X4970Y386D01*
X4970Y387D01*
X4970Y387D01*
X4970Y388D01*
X4970Y388D01*
X4970Y388D01*
X4970Y389D01*
X4970Y389D01*
X4970Y390D01*
X4970Y390D01*
X4970Y390D01*
X4970Y391D01*
X4970Y391D01*
X4970Y391D01*
X4970Y392D01*
X4970Y392D01*
X4971Y393D01*
X4971Y393D01*
X4971Y393D01*
X4971Y393D01*
X4972Y394D01*
X4972Y394D01*
X4972Y394D01*
X4972Y395D01*
X4973Y395D01*
X4973Y395D01*
X4973Y395D01*
X4974Y395D01*
X4974Y396D01*
X4974Y396D01*
X4975Y396D01*
X4975Y396D01*
X4976Y396D01*
X4976Y396D01*
X4976Y396D01*
X4977Y396D01*
X4977Y396D01*
X4991D01*
X4992Y396D01*
D02*
G37*
G36*
X3879Y368D02*
X3850D01*
Y383D01*
X3879D01*
Y368D01*
D02*
G37*
G36*
X3769D02*
X3739D01*
Y383D01*
X3769D01*
Y368D01*
D02*
G37*
G36*
X5102Y377D02*
X5102Y377D01*
X5103Y376D01*
X5103Y376D01*
X5104Y376D01*
X5104Y376D01*
X5104Y376D01*
X5105Y376D01*
X5105Y376D01*
X5105Y376D01*
X5106Y375D01*
X5106Y375D01*
X5106Y375D01*
X5107Y375D01*
X5107Y374D01*
X5107Y374D01*
X5107Y374D01*
X5108Y373D01*
X5108Y373D01*
X5108Y373D01*
X5108Y372D01*
X5108Y372D01*
X5109Y372D01*
X5109Y371D01*
X5109Y371D01*
X5109Y371D01*
X5109Y370D01*
X5109Y370D01*
X5109Y369D01*
X5109Y369D01*
X5109Y369D01*
X5109Y368D01*
X5109Y368D01*
X5109Y368D01*
X5109Y367D01*
X5109Y367D01*
X5109Y366D01*
X5108Y366D01*
X5108Y366D01*
X5108Y365D01*
X5108Y365D01*
X5108Y365D01*
X5107Y364D01*
X5107Y364D01*
X5107Y364D01*
X5107Y364D01*
X5106Y363D01*
X5106Y363D01*
X5106Y363D01*
X5105Y363D01*
X5105Y362D01*
X5105Y362D01*
X5104Y362D01*
X5104Y362D01*
X5104Y362D01*
X5103Y362D01*
X5103Y362D01*
X5102Y362D01*
X5102Y362D01*
X5102Y362D01*
X5087D01*
X5087Y362D01*
X5087Y362D01*
X5086Y362D01*
X5086Y362D01*
X5085Y362D01*
X5085Y362D01*
X5085Y362D01*
X5084Y362D01*
X5084Y362D01*
X5084Y363D01*
X5083Y363D01*
X5083Y363D01*
X5083Y363D01*
X5082Y364D01*
X5082Y364D01*
X5082Y364D01*
X5082Y364D01*
X5081Y365D01*
X5081Y365D01*
X5081Y365D01*
X5081Y366D01*
X5081Y366D01*
X5080Y366D01*
X5080Y367D01*
X5080Y367D01*
X5080Y368D01*
X5080Y368D01*
X5080Y368D01*
X5080Y369D01*
X5080Y369D01*
X5080Y369D01*
X5080Y370D01*
X5080Y370D01*
X5080Y371D01*
X5080Y371D01*
X5080Y371D01*
X5080Y372D01*
X5081Y372D01*
X5081Y372D01*
X5081Y373D01*
X5081Y373D01*
X5081Y373D01*
X5082Y374D01*
X5082Y374D01*
X5082Y374D01*
X5082Y375D01*
X5083Y375D01*
X5083Y375D01*
X5083Y375D01*
X5084Y376D01*
X5084Y376D01*
X5084Y376D01*
X5085Y376D01*
X5085Y376D01*
X5085Y376D01*
X5086Y376D01*
X5086Y376D01*
X5087Y377D01*
X5087Y377D01*
X5087Y377D01*
X5102D01*
X5102Y377D01*
D02*
G37*
G36*
X4992D02*
X4992Y377D01*
X4993Y376D01*
X4993Y376D01*
X4993Y376D01*
X4994Y376D01*
X4994Y376D01*
X4994Y376D01*
X4995Y376D01*
X4995Y376D01*
X4995Y375D01*
X4996Y375D01*
X4996Y375D01*
X4996Y375D01*
X4997Y374D01*
X4997Y374D01*
X4997Y374D01*
X4997Y373D01*
X4998Y373D01*
X4998Y373D01*
X4998Y372D01*
X4998Y372D01*
X4998Y372D01*
X4998Y371D01*
X4999Y371D01*
X4999Y371D01*
X4999Y370D01*
X4999Y370D01*
X4999Y369D01*
X4999Y369D01*
X4999Y369D01*
X4999Y368D01*
X4999Y368D01*
X4999Y368D01*
X4999Y367D01*
X4998Y367D01*
X4998Y366D01*
X4998Y366D01*
X4998Y366D01*
X4998Y365D01*
X4998Y365D01*
X4997Y365D01*
X4997Y364D01*
X4997Y364D01*
X4997Y364D01*
X4996Y364D01*
X4996Y363D01*
X4996Y363D01*
X4995Y363D01*
X4995Y363D01*
X4995Y362D01*
X4994Y362D01*
X4994Y362D01*
X4994Y362D01*
X4993Y362D01*
X4993Y362D01*
X4993Y362D01*
X4992Y362D01*
X4992Y362D01*
X4991Y362D01*
X4977D01*
X4977Y362D01*
X4976Y362D01*
X4976Y362D01*
X4976Y362D01*
X4975Y362D01*
X4975Y362D01*
X4974Y362D01*
X4974Y362D01*
X4974Y362D01*
X4973Y363D01*
X4973Y363D01*
X4973Y363D01*
X4972Y363D01*
X4972Y364D01*
X4972Y364D01*
X4972Y364D01*
X4971Y364D01*
X4971Y365D01*
X4971Y365D01*
X4971Y365D01*
X4970Y366D01*
X4970Y366D01*
X4970Y366D01*
X4970Y367D01*
X4970Y367D01*
X4970Y368D01*
X4970Y368D01*
X4970Y368D01*
X4970Y369D01*
X4970Y369D01*
X4970Y369D01*
X4970Y370D01*
X4970Y370D01*
X4970Y371D01*
X4970Y371D01*
X4970Y371D01*
X4970Y372D01*
X4970Y372D01*
X4970Y372D01*
X4971Y373D01*
X4971Y373D01*
X4971Y373D01*
X4971Y374D01*
X4972Y374D01*
X4972Y374D01*
X4972Y375D01*
X4972Y375D01*
X4973Y375D01*
X4973Y375D01*
X4973Y376D01*
X4974Y376D01*
X4974Y376D01*
X4974Y376D01*
X4975Y376D01*
X4975Y376D01*
X4976Y376D01*
X4976Y376D01*
X4976Y377D01*
X4977Y377D01*
X4977Y377D01*
X4991D01*
X4992Y377D01*
D02*
G37*
G36*
X3879Y348D02*
X3850D01*
Y363D01*
X3879D01*
Y348D01*
D02*
G37*
G36*
X3769D02*
X3739D01*
Y363D01*
X3769D01*
Y348D01*
D02*
G37*
G36*
X4992Y357D02*
X4992Y357D01*
X4993Y357D01*
X4993Y357D01*
X4993Y357D01*
X4994Y357D01*
X4994Y356D01*
X4994Y356D01*
X4995Y356D01*
X4995Y356D01*
X4995Y356D01*
X4996Y355D01*
X4996Y355D01*
X4996Y355D01*
X4997Y355D01*
X4997Y354D01*
X4997Y354D01*
X4997Y354D01*
X4998Y353D01*
X4998Y353D01*
X4998Y353D01*
X4998Y352D01*
X4998Y352D01*
X4998Y352D01*
X4999Y351D01*
X4999Y351D01*
X4999Y351D01*
X4999Y350D01*
X4999Y350D01*
X4999Y349D01*
X4999Y349D01*
X4999Y349D01*
X4999Y348D01*
X4999Y348D01*
X4999Y347D01*
X4998Y347D01*
X4998Y347D01*
X4998Y346D01*
X4998Y346D01*
X4998Y346D01*
X4998Y345D01*
X4997Y345D01*
X4997Y345D01*
X4997Y344D01*
X4997Y344D01*
X4996Y344D01*
X4996Y344D01*
X4996Y343D01*
X4995Y343D01*
X4995Y343D01*
X4995Y343D01*
X4994Y343D01*
X4994Y342D01*
X4994Y342D01*
X4993Y342D01*
X4993Y342D01*
X4993Y342D01*
X4992Y342D01*
X4992Y342D01*
X4991Y342D01*
X4977D01*
X4977Y342D01*
X4976Y342D01*
X4976Y342D01*
X4976Y342D01*
X4975Y342D01*
X4975Y342D01*
X4974Y342D01*
X4974Y343D01*
X4974Y343D01*
X4973Y343D01*
X4973Y343D01*
X4973Y343D01*
X4972Y344D01*
X4972Y344D01*
X4972Y344D01*
X4972Y344D01*
X4971Y345D01*
X4971Y345D01*
X4971Y345D01*
X4971Y346D01*
X4970Y346D01*
X4970Y346D01*
X4970Y347D01*
X4970Y347D01*
X4970Y347D01*
X4970Y348D01*
X4970Y348D01*
X4970Y349D01*
X4970Y349D01*
X4970Y349D01*
X4970Y350D01*
X4970Y350D01*
X4970Y351D01*
X4970Y351D01*
X4970Y351D01*
X4970Y352D01*
X4970Y352D01*
X4970Y352D01*
X4970Y353D01*
X4971Y353D01*
X4971Y353D01*
X4971Y354D01*
X4971Y354D01*
X4972Y354D01*
X4972Y355D01*
X4972Y355D01*
X4972Y355D01*
X4973Y355D01*
X4973Y356D01*
X4973Y356D01*
X4974Y356D01*
X4974Y356D01*
X4974Y356D01*
X4975Y357D01*
X4975Y357D01*
X4976Y357D01*
X4976Y357D01*
X4976Y357D01*
X4977Y357D01*
X4977Y357D01*
X4991D01*
X4992Y357D01*
D02*
G37*
G36*
X7362Y484D02*
X7365Y484D01*
X7365D01*
X7365Y484D01*
X7366D01*
X7367Y484D01*
X7369Y483D01*
X7371Y482D01*
X7371D01*
X7372Y482D01*
X7372Y482D01*
X7373Y482D01*
X7375Y481D01*
X7377Y480D01*
X7377D01*
X7377Y480D01*
X7378Y480D01*
X7379Y479D01*
X7380Y478D01*
X7380Y478D01*
X7380Y478D01*
X7381Y477D01*
X7381Y477D01*
X7381Y477D01*
X7381Y476D01*
Y476D01*
X7381Y475D01*
Y474D01*
Y474D01*
X7382Y474D01*
Y473D01*
Y472D01*
Y472D01*
Y471D01*
Y470D01*
X7381Y469D01*
Y469D01*
X7381Y469D01*
X7381Y467D01*
Y467D01*
X7381Y467D01*
X7380Y466D01*
X7380D01*
X7379Y466D01*
X7379D01*
X7379Y466D01*
X7378Y467D01*
X7377Y467D01*
X7376Y467D01*
X7375Y468D01*
X7374Y469D01*
X7372Y469D01*
X7372D01*
X7372Y470D01*
X7371Y470D01*
X7370Y470D01*
X7368Y471D01*
X7366Y472D01*
X7366D01*
X7365Y472D01*
X7364Y472D01*
X7364Y473D01*
X7362Y473D01*
X7361Y473D01*
X7358Y473D01*
X7356D01*
X7355Y473D01*
X7353Y473D01*
X7350Y472D01*
X7350D01*
X7350Y472D01*
X7349Y472D01*
X7348Y471D01*
X7347Y470D01*
X7345Y469D01*
X7345Y469D01*
X7344Y468D01*
X7343Y466D01*
X7342Y465D01*
Y464D01*
X7342Y464D01*
X7342Y464D01*
Y463D01*
X7341Y461D01*
X7341Y459D01*
Y459D01*
Y458D01*
X7341Y458D01*
Y457D01*
X7342Y454D01*
X7343Y452D01*
X7343Y452D01*
X7343Y451D01*
X7344Y451D01*
X7344Y450D01*
X7346Y448D01*
X7348Y446D01*
X7348Y446D01*
X7349Y446D01*
X7350Y445D01*
X7350Y445D01*
X7352Y444D01*
X7353Y443D01*
X7356Y442D01*
X7356D01*
X7356Y442D01*
X7357Y441D01*
X7358Y441D01*
X7360Y440D01*
X7361Y440D01*
X7364Y438D01*
X7364D01*
X7365Y438D01*
X7366Y437D01*
X7367Y437D01*
X7368Y436D01*
X7370Y435D01*
X7373Y434D01*
X7373Y433D01*
X7373Y433D01*
X7374Y433D01*
X7375Y432D01*
X7378Y430D01*
X7380Y428D01*
X7380Y428D01*
X7381Y427D01*
X7381Y427D01*
X7382Y426D01*
X7383Y425D01*
X7384Y423D01*
X7385Y420D01*
X7386Y420D01*
X7386Y420D01*
X7386Y419D01*
X7387Y417D01*
X7387Y416D01*
X7387Y414D01*
X7387Y412D01*
Y410D01*
Y409D01*
Y408D01*
X7387Y407D01*
X7387Y406D01*
X7387Y404D01*
X7386Y401D01*
X7386Y399D01*
X7385Y397D01*
X7385Y397D01*
X7384Y396D01*
X7384Y395D01*
X7383Y394D01*
X7382Y392D01*
X7381Y391D01*
X7379Y389D01*
X7377Y387D01*
X7377Y387D01*
X7377Y387D01*
X7376Y386D01*
X7374Y385D01*
X7373Y384D01*
X7371Y383D01*
X7369Y383D01*
X7366Y382D01*
X7366D01*
X7365Y381D01*
X7364Y381D01*
X7362Y381D01*
X7360Y380D01*
X7358Y380D01*
X7355Y380D01*
X7351D01*
X7350Y380D01*
X7348D01*
X7346Y380D01*
X7343Y381D01*
X7343D01*
X7342Y381D01*
X7342Y381D01*
X7341Y381D01*
X7338Y382D01*
X7335Y383D01*
X7335D01*
X7335Y383D01*
X7334Y383D01*
X7333Y383D01*
X7332Y384D01*
X7330Y385D01*
X7330D01*
X7329Y385D01*
X7328Y386D01*
X7327Y387D01*
X7326Y388D01*
X7326Y388D01*
X7326Y388D01*
X7325Y389D01*
X7325Y390D01*
Y390D01*
X7325Y391D01*
X7325Y392D01*
Y394D01*
Y394D01*
Y395D01*
Y396D01*
Y397D01*
Y397D01*
X7325Y398D01*
X7325Y398D01*
X7325Y399D01*
Y399D01*
X7325Y399D01*
X7326Y400D01*
X7326D01*
X7326Y400D01*
X7327Y400D01*
X7327D01*
X7328Y400D01*
X7329Y400D01*
X7330Y399D01*
X7330D01*
X7331Y398D01*
X7332Y398D01*
X7333Y397D01*
X7335Y396D01*
X7336D01*
X7336Y396D01*
X7337Y395D01*
X7338Y395D01*
X7339Y394D01*
X7340Y394D01*
X7343Y393D01*
X7343D01*
X7344Y393D01*
X7345Y392D01*
X7346Y392D01*
X7348Y392D01*
X7349Y392D01*
X7351Y392D01*
X7355D01*
X7356Y392D01*
X7359Y392D01*
X7361Y393D01*
X7362D01*
X7362Y393D01*
X7363Y393D01*
X7364Y394D01*
X7366Y394D01*
X7368Y396D01*
X7368Y396D01*
X7368Y396D01*
X7369Y397D01*
X7370Y399D01*
X7372Y401D01*
Y401D01*
X7372Y402D01*
X7372Y402D01*
X7372Y403D01*
X7373Y404D01*
X7373Y406D01*
X7373Y408D01*
Y408D01*
Y409D01*
X7373Y410D01*
Y411D01*
X7372Y413D01*
X7372Y414D01*
X7371Y416D01*
Y416D01*
X7371Y416D01*
X7370Y417D01*
X7370Y418D01*
X7368Y419D01*
X7366Y421D01*
X7366Y421D01*
X7365Y421D01*
X7365Y422D01*
X7364Y422D01*
X7363Y423D01*
X7362Y424D01*
X7359Y425D01*
X7358Y425D01*
X7358Y426D01*
X7357Y426D01*
X7356Y426D01*
X7355Y427D01*
X7353Y428D01*
X7350Y429D01*
X7350Y429D01*
X7349Y430D01*
X7349Y430D01*
X7348Y430D01*
X7346Y431D01*
X7345Y432D01*
X7342Y434D01*
X7342Y434D01*
X7341Y434D01*
X7340Y435D01*
X7339Y435D01*
X7337Y437D01*
X7334Y439D01*
X7334Y440D01*
X7334Y440D01*
X7333Y441D01*
X7333Y442D01*
X7332Y443D01*
X7331Y444D01*
X7329Y447D01*
Y447D01*
X7329Y448D01*
X7329Y449D01*
X7328Y450D01*
X7328Y452D01*
X7328Y453D01*
X7327Y456D01*
X7327Y458D01*
Y458D01*
Y459D01*
X7327Y460D01*
X7328Y462D01*
X7328Y463D01*
X7328Y465D01*
X7329Y467D01*
X7330Y469D01*
X7330Y469D01*
X7330Y470D01*
X7330Y471D01*
X7331Y472D01*
X7332Y473D01*
X7333Y475D01*
X7336Y478D01*
X7336Y478D01*
X7337Y478D01*
X7338Y479D01*
X7339Y480D01*
X7340Y480D01*
X7342Y481D01*
X7344Y482D01*
X7346Y483D01*
X7346D01*
X7347Y483D01*
X7348Y483D01*
X7350Y484D01*
X7351Y484D01*
X7353Y484D01*
X7356Y485D01*
X7360D01*
X7362Y484D01*
D02*
G37*
G36*
X7513Y483D02*
X7514Y483D01*
X7514D01*
X7515Y482D01*
X7515Y482D01*
X7516Y482D01*
X7516Y481D01*
X7516Y481D01*
X7517Y480D01*
X7517Y480D01*
X7517Y480D01*
X7517Y479D01*
X7518Y478D01*
Y477D01*
Y383D01*
Y383D01*
X7517Y382D01*
X7517Y382D01*
X7516Y382D01*
X7516Y381D01*
X7516D01*
X7515Y381D01*
X7515D01*
X7514Y381D01*
X7514D01*
X7513Y381D01*
X7512Y381D01*
X7510D01*
X7508Y381D01*
X7507Y381D01*
X7507D01*
X7507Y381D01*
X7506D01*
X7505Y381D01*
X7505D01*
X7505Y382D01*
X7504Y382D01*
Y382D01*
Y382D01*
X7504Y383D01*
Y472D01*
X7504D01*
X7468Y383D01*
X7468Y382D01*
X7467Y382D01*
X7467Y382D01*
X7466Y381D01*
X7466Y381D01*
X7466D01*
X7465Y381D01*
X7465D01*
X7464Y381D01*
X7463D01*
X7462Y381D01*
X7459D01*
X7458Y381D01*
X7458D01*
X7458Y381D01*
X7456Y381D01*
X7456D01*
X7456Y381D01*
X7455Y382D01*
Y382D01*
X7455Y382D01*
X7455Y383D01*
X7420Y472D01*
Y383D01*
Y383D01*
X7420Y382D01*
X7420Y382D01*
X7419Y382D01*
X7419Y381D01*
X7418D01*
X7418Y381D01*
X7418D01*
X7417Y381D01*
X7416D01*
X7416Y381D01*
X7415Y381D01*
X7412D01*
X7411Y381D01*
X7410Y381D01*
X7410D01*
X7409Y381D01*
X7409D01*
X7408Y381D01*
X7408D01*
X7408Y382D01*
X7407Y382D01*
Y382D01*
Y382D01*
X7407Y383D01*
Y477D01*
Y477D01*
Y478D01*
X7407Y478D01*
Y479D01*
X7407Y480D01*
X7408Y482D01*
X7409Y482D01*
X7410Y482D01*
X7411Y483D01*
X7412Y483D01*
X7422D01*
X7424Y483D01*
X7425Y483D01*
X7425D01*
X7425Y482D01*
X7426Y482D01*
X7427Y482D01*
X7428Y481D01*
X7429Y481D01*
X7429Y480D01*
X7430Y480D01*
X7431Y478D01*
X7431Y478D01*
X7431Y478D01*
X7432Y476D01*
X7432Y475D01*
X7462Y401D01*
X7462D01*
X7492Y475D01*
Y475D01*
X7493Y475D01*
X7493Y476D01*
X7494Y477D01*
X7494Y479D01*
X7495Y479D01*
X7495Y480D01*
X7496Y480D01*
X7497Y481D01*
X7497Y481D01*
X7497Y482D01*
X7498Y482D01*
X7499Y483D01*
X7500Y483D01*
X7500Y483D01*
X7501Y483D01*
X7512D01*
X7513Y483D01*
D02*
G37*
G36*
X7265D02*
X7265Y483D01*
X7266D01*
X7266Y482D01*
X7267Y482D01*
X7267Y482D01*
X7267Y481D01*
X7268Y481D01*
X7268Y480D01*
X7268Y480D01*
X7269Y480D01*
X7269Y479D01*
X7269Y478D01*
Y477D01*
Y383D01*
Y383D01*
X7269Y382D01*
X7268Y382D01*
X7268Y382D01*
X7267Y381D01*
X7267D01*
X7267Y381D01*
X7266D01*
X7265Y381D01*
X7265D01*
X7264Y381D01*
X7263Y381D01*
X7261D01*
X7260Y381D01*
X7259Y381D01*
X7259D01*
X7258Y381D01*
X7257D01*
X7257Y381D01*
X7257D01*
X7256Y382D01*
X7256Y382D01*
Y382D01*
Y382D01*
X7256Y383D01*
Y472D01*
X7255D01*
X7219Y383D01*
X7219Y382D01*
X7219Y382D01*
X7218Y382D01*
X7218Y381D01*
X7217Y381D01*
X7217D01*
X7217Y381D01*
X7216D01*
X7215Y381D01*
X7215D01*
X7214Y381D01*
X7211D01*
X7210Y381D01*
X7210D01*
X7209Y381D01*
X7208Y381D01*
X7208D01*
X7207Y381D01*
X7207Y382D01*
Y382D01*
X7206Y382D01*
X7206Y383D01*
X7172Y472D01*
Y383D01*
Y383D01*
X7171Y382D01*
X7171Y382D01*
X7171Y382D01*
X7170Y381D01*
X7170D01*
X7170Y381D01*
X7169D01*
X7168Y381D01*
X7168D01*
X7167Y381D01*
X7166Y381D01*
X7164D01*
X7163Y381D01*
X7162Y381D01*
X7161D01*
X7161Y381D01*
X7160D01*
X7160Y381D01*
X7159D01*
X7159Y382D01*
X7158Y382D01*
Y382D01*
Y382D01*
X7158Y383D01*
Y477D01*
Y477D01*
Y478D01*
X7158Y478D01*
Y479D01*
X7159Y480D01*
X7160Y482D01*
X7160Y482D01*
X7161Y482D01*
X7162Y483D01*
X7164Y483D01*
X7174D01*
X7175Y483D01*
X7176Y483D01*
X7177D01*
X7177Y482D01*
X7178Y482D01*
X7179Y482D01*
X7180Y481D01*
X7180Y481D01*
X7181Y480D01*
X7182Y480D01*
X7182Y478D01*
X7182Y478D01*
X7183Y478D01*
X7183Y476D01*
X7184Y475D01*
X7213Y401D01*
X7214D01*
X7244Y475D01*
Y475D01*
X7244Y475D01*
X7244Y476D01*
X7245Y477D01*
X7246Y479D01*
X7246Y479D01*
X7247Y480D01*
X7247Y480D01*
X7248Y481D01*
X7248Y481D01*
X7249Y482D01*
X7250Y482D01*
X7251Y483D01*
X7251Y483D01*
X7252Y483D01*
X7253Y483D01*
X7264D01*
X7265Y483D01*
D02*
G37*
G36*
X6734D02*
X6736Y483D01*
X6738Y482D01*
X6741Y482D01*
X6743Y481D01*
X6743D01*
X6744Y481D01*
X6745Y481D01*
X6747Y480D01*
X6750Y478D01*
X6751Y477D01*
X6753Y476D01*
X6753Y476D01*
X6754Y476D01*
X6754Y475D01*
X6755Y474D01*
X6756Y473D01*
X6757Y471D01*
X6758Y470D01*
X6759Y468D01*
X6759Y468D01*
X6759Y467D01*
X6760Y466D01*
X6760Y465D01*
X6760Y463D01*
X6760Y461D01*
X6761Y459D01*
Y457D01*
Y457D01*
Y457D01*
Y456D01*
X6761Y455D01*
X6760Y453D01*
X6760Y450D01*
Y450D01*
X6760Y450D01*
X6760Y449D01*
X6759Y448D01*
X6758Y446D01*
X6757Y444D01*
Y444D01*
X6757Y444D01*
X6756Y443D01*
X6755Y441D01*
X6753Y439D01*
X6753D01*
X6753Y439D01*
X6752Y439D01*
X6751Y438D01*
X6750Y437D01*
X6747Y436D01*
X6747D01*
X6748Y435D01*
X6749Y435D01*
X6750Y435D01*
X6752Y434D01*
X6755Y433D01*
X6755D01*
X6756Y432D01*
X6756Y432D01*
X6757Y431D01*
X6759Y430D01*
X6761Y427D01*
X6761Y427D01*
X6762Y427D01*
X6762Y426D01*
X6763Y425D01*
X6763Y424D01*
X6764Y423D01*
X6766Y420D01*
Y420D01*
X6766Y419D01*
X6766Y418D01*
X6767Y417D01*
X6767Y416D01*
X6767Y414D01*
X6767Y410D01*
Y410D01*
Y410D01*
Y409D01*
X6767Y408D01*
X6767Y406D01*
X6767Y405D01*
X6766Y402D01*
Y401D01*
X6766Y401D01*
X6765Y400D01*
X6765Y399D01*
X6764Y397D01*
X6762Y394D01*
X6762Y394D01*
X6762Y394D01*
X6762Y393D01*
X6761Y392D01*
X6759Y390D01*
X6757Y389D01*
X6757Y388D01*
X6757Y388D01*
X6756Y388D01*
X6755Y387D01*
X6754Y387D01*
X6753Y386D01*
X6750Y385D01*
X6750D01*
X6749Y384D01*
X6749Y384D01*
X6748Y384D01*
X6746Y383D01*
X6745Y383D01*
X6742Y382D01*
X6742D01*
X6741Y382D01*
X6740D01*
X6739Y382D01*
X6737Y381D01*
X6736D01*
X6734Y381D01*
X6705D01*
X6704Y381D01*
X6703Y382D01*
X6701Y382D01*
X6701Y383D01*
X6701Y383D01*
X6700Y385D01*
X6700Y387D01*
Y478D01*
Y478D01*
Y478D01*
X6700Y479D01*
X6701Y481D01*
X6701Y482D01*
X6702Y482D01*
X6703Y483D01*
X6704Y483D01*
X6705Y483D01*
X6732D01*
X6734Y483D01*
D02*
G37*
G36*
X7035Y483D02*
X7035D01*
X7035Y483D01*
X7036Y482D01*
Y482D01*
X7036Y481D01*
X7036Y481D01*
X7037Y480D01*
Y480D01*
X7037Y479D01*
Y478D01*
Y477D01*
Y477D01*
Y476D01*
Y475D01*
X7037Y475D01*
Y474D01*
X7036Y474D01*
X7036Y473D01*
X7036Y472D01*
X7035Y472D01*
X7035D01*
X7034Y472D01*
X7005D01*
Y383D01*
Y383D01*
X7005Y382D01*
X7005Y382D01*
X7004Y382D01*
X7004Y381D01*
X7004D01*
X7003Y381D01*
X7003D01*
X7002Y381D01*
X7002D01*
X7001Y381D01*
X7000Y381D01*
X6998D01*
X6996Y381D01*
X6995Y381D01*
X6995D01*
X6995Y381D01*
X6993Y381D01*
X6993D01*
X6993Y382D01*
X6992Y382D01*
Y382D01*
Y382D01*
X6992Y383D01*
Y472D01*
X6963D01*
X6962Y472D01*
X6962Y472D01*
X6961Y473D01*
Y473D01*
X6961Y473D01*
Y474D01*
X6961Y475D01*
Y475D01*
Y475D01*
X6961Y476D01*
Y477D01*
Y478D01*
Y478D01*
Y479D01*
X6961Y480D01*
Y480D01*
X6961Y481D01*
X6961Y482D01*
Y482D01*
X6961Y482D01*
X6962Y483D01*
X6962D01*
X6962Y483D01*
X6963Y483D01*
X7034D01*
X7035Y483D01*
D02*
G37*
G36*
X6957D02*
X6957D01*
X6957Y483D01*
X6957Y482D01*
Y482D01*
X6958Y481D01*
X6958Y481D01*
X6958Y480D01*
Y480D01*
X6958Y479D01*
Y478D01*
Y477D01*
Y477D01*
Y476D01*
Y475D01*
X6958Y475D01*
Y474D01*
X6958Y474D01*
X6957Y473D01*
X6957Y472D01*
X6957Y472D01*
X6956D01*
X6955Y472D01*
X6927D01*
Y383D01*
Y383D01*
X6926Y382D01*
X6926Y382D01*
X6926Y382D01*
X6925Y381D01*
X6925D01*
X6925Y381D01*
X6924D01*
X6923Y381D01*
X6923D01*
X6922Y381D01*
X6921Y381D01*
X6919D01*
X6918Y381D01*
X6917Y381D01*
X6917D01*
X6916Y381D01*
X6915Y381D01*
X6914D01*
X6914Y382D01*
X6914Y382D01*
Y382D01*
Y382D01*
X6913Y383D01*
Y472D01*
X6884D01*
X6883Y472D01*
X6883Y472D01*
X6883Y473D01*
Y473D01*
X6882Y473D01*
Y474D01*
X6882Y475D01*
Y475D01*
Y475D01*
X6882Y476D01*
Y477D01*
Y478D01*
Y478D01*
Y479D01*
X6882Y480D01*
Y480D01*
X6882Y481D01*
X6883Y482D01*
Y482D01*
X6883Y482D01*
X6883Y483D01*
X6884D01*
X6884Y483D01*
X6885Y483D01*
X6956D01*
X6957Y483D01*
D02*
G37*
G36*
X7096Y484D02*
X7099Y484D01*
X7102Y484D01*
X7105Y483D01*
X7109Y482D01*
X7112Y481D01*
X7112D01*
X7112Y481D01*
X7113Y481D01*
X7115Y480D01*
X7117Y479D01*
X7119Y477D01*
X7121Y475D01*
X7124Y473D01*
X7126Y471D01*
X7126Y471D01*
X7127Y470D01*
X7128Y469D01*
X7129Y467D01*
X7130Y464D01*
X7132Y462D01*
X7133Y459D01*
X7134Y455D01*
Y455D01*
X7134Y455D01*
Y454D01*
X7135Y453D01*
X7135Y453D01*
X7135Y451D01*
X7136Y449D01*
X7136Y446D01*
X7137Y442D01*
X7137Y438D01*
X7137Y433D01*
Y433D01*
Y433D01*
Y432D01*
Y431D01*
Y430D01*
X7137Y429D01*
X7137Y426D01*
X7136Y422D01*
X7136Y419D01*
X7135Y415D01*
X7134Y411D01*
Y411D01*
X7134Y411D01*
X7134Y410D01*
X7133Y409D01*
X7133Y408D01*
X7132Y405D01*
X7131Y403D01*
X7129Y400D01*
X7127Y397D01*
X7125Y394D01*
X7125Y394D01*
X7124Y393D01*
X7123Y392D01*
X7121Y390D01*
X7119Y389D01*
X7117Y387D01*
X7114Y385D01*
X7111Y383D01*
X7110D01*
X7110Y383D01*
X7110Y383D01*
X7109Y383D01*
X7107Y382D01*
X7105Y382D01*
X7102Y381D01*
X7098Y380D01*
X7094Y380D01*
X7090Y380D01*
X7088D01*
X7087Y380D01*
X7086D01*
X7084Y380D01*
X7080Y381D01*
X7077Y381D01*
X7074Y382D01*
X7070Y383D01*
X7070Y383D01*
X7069Y384D01*
X7067Y385D01*
X7065Y386D01*
X7063Y387D01*
X7061Y389D01*
X7059Y391D01*
X7057Y393D01*
X7056Y394D01*
X7056Y394D01*
X7055Y396D01*
X7053Y398D01*
X7052Y400D01*
X7051Y403D01*
X7049Y406D01*
X7048Y409D01*
Y410D01*
X7048Y410D01*
Y410D01*
X7048Y411D01*
X7048Y412D01*
X7048Y413D01*
X7047Y416D01*
X7047Y419D01*
X7046Y423D01*
X7046Y427D01*
X7046Y432D01*
Y432D01*
Y432D01*
Y433D01*
Y434D01*
Y435D01*
X7046Y436D01*
X7046Y439D01*
X7047Y442D01*
X7047Y446D01*
X7048Y450D01*
X7049Y453D01*
Y454D01*
X7049Y454D01*
X7049Y454D01*
X7049Y455D01*
X7050Y457D01*
X7051Y459D01*
X7052Y462D01*
X7053Y465D01*
X7055Y467D01*
X7057Y470D01*
X7058Y470D01*
X7058Y471D01*
X7060Y472D01*
X7061Y474D01*
X7063Y476D01*
X7066Y478D01*
X7069Y479D01*
X7072Y481D01*
X7072D01*
X7072Y481D01*
X7073Y481D01*
X7074Y481D01*
X7075Y482D01*
X7078Y483D01*
X7081Y483D01*
X7084Y484D01*
X7088Y484D01*
X7092Y485D01*
X7094D01*
X7096Y484D01*
D02*
G37*
G36*
X6832D02*
X6835Y484D01*
X6838Y484D01*
X6842Y483D01*
X6845Y482D01*
X6848Y481D01*
X6848D01*
X6848Y481D01*
X6850Y481D01*
X6851Y480D01*
X6853Y479D01*
X6855Y477D01*
X6858Y475D01*
X6860Y473D01*
X6862Y471D01*
X6862Y471D01*
X6863Y470D01*
X6864Y469D01*
X6865Y467D01*
X6867Y464D01*
X6868Y462D01*
X6869Y459D01*
X6870Y455D01*
Y455D01*
X6871Y455D01*
Y454D01*
X6871Y453D01*
X6871Y453D01*
X6871Y451D01*
X6872Y449D01*
X6872Y446D01*
X6873Y442D01*
X6873Y438D01*
X6873Y433D01*
Y433D01*
Y433D01*
Y432D01*
Y431D01*
Y430D01*
X6873Y429D01*
X6873Y426D01*
X6872Y422D01*
X6872Y419D01*
X6871Y415D01*
X6870Y411D01*
Y411D01*
X6870Y411D01*
X6870Y410D01*
X6870Y409D01*
X6869Y408D01*
X6868Y405D01*
X6867Y403D01*
X6865Y400D01*
X6863Y397D01*
X6861Y394D01*
X6861Y394D01*
X6860Y393D01*
X6859Y392D01*
X6857Y390D01*
X6855Y389D01*
X6853Y387D01*
X6850Y385D01*
X6847Y383D01*
X6847D01*
X6846Y383D01*
X6846Y383D01*
X6845Y383D01*
X6843Y382D01*
X6841Y382D01*
X6838Y381D01*
X6835Y380D01*
X6831Y380D01*
X6826Y380D01*
X6824D01*
X6824Y380D01*
X6822D01*
X6820Y380D01*
X6817Y381D01*
X6813Y381D01*
X6810Y382D01*
X6807Y383D01*
X6806Y383D01*
X6805Y384D01*
X6804Y385D01*
X6802Y386D01*
X6799Y387D01*
X6797Y389D01*
X6795Y391D01*
X6793Y393D01*
X6793Y394D01*
X6792Y394D01*
X6791Y396D01*
X6790Y398D01*
X6788Y400D01*
X6787Y403D01*
X6786Y406D01*
X6785Y409D01*
Y410D01*
X6784Y410D01*
Y410D01*
X6784Y411D01*
X6784Y412D01*
X6784Y413D01*
X6783Y416D01*
X6783Y419D01*
X6782Y423D01*
X6782Y427D01*
X6782Y432D01*
Y432D01*
Y432D01*
Y433D01*
Y434D01*
Y435D01*
X6782Y436D01*
X6782Y439D01*
X6783Y442D01*
X6783Y446D01*
X6784Y450D01*
X6785Y453D01*
Y454D01*
X6785Y454D01*
X6785Y454D01*
X6785Y455D01*
X6786Y457D01*
X6787Y459D01*
X6788Y462D01*
X6790Y465D01*
X6791Y467D01*
X6793Y470D01*
X6794Y470D01*
X6795Y471D01*
X6796Y472D01*
X6797Y474D01*
X6800Y476D01*
X6802Y478D01*
X6805Y479D01*
X6808Y481D01*
X6808D01*
X6808Y481D01*
X6809Y481D01*
X6810Y481D01*
X6812Y482D01*
X6814Y483D01*
X6817Y483D01*
X6820Y484D01*
X6824Y484D01*
X6828Y485D01*
X6830D01*
X6832Y484D01*
D02*
G37*
%LPC*%
G36*
X6730Y472D02*
X6713D01*
Y439D01*
X6731D01*
X6732Y439D01*
X6735Y440D01*
X6736Y440D01*
X6737Y440D01*
X6738D01*
X6738Y441D01*
X6738Y441D01*
X6739Y441D01*
X6741Y443D01*
X6743Y444D01*
X6743Y444D01*
X6743Y444D01*
X6744Y445D01*
X6744Y446D01*
X6745Y447D01*
X6746Y449D01*
Y450D01*
X6746Y450D01*
X6746Y451D01*
X6746Y451D01*
X6747Y453D01*
X6747Y456D01*
Y456D01*
Y457D01*
Y457D01*
X6747Y458D01*
X6747Y460D01*
X6746Y463D01*
Y463D01*
X6746Y463D01*
X6746Y464D01*
X6745Y464D01*
X6744Y466D01*
X6743Y468D01*
X6742Y468D01*
X6742Y468D01*
X6742Y468D01*
X6741Y469D01*
X6739Y470D01*
X6737Y471D01*
X6737D01*
X6736Y471D01*
X6735Y471D01*
X6734Y471D01*
X6733Y472D01*
X6732Y472D01*
X6730Y472D01*
D02*
G37*
G36*
X6732Y428D02*
X6713D01*
Y392D01*
X6735D01*
X6736Y393D01*
X6738Y393D01*
X6741Y394D01*
X6741D01*
X6742Y394D01*
X6742Y394D01*
X6743Y394D01*
X6745Y395D01*
X6747Y397D01*
X6747Y397D01*
X6748Y397D01*
X6749Y398D01*
X6750Y400D01*
X6751Y402D01*
Y402D01*
X6752Y403D01*
X6752Y403D01*
X6752Y404D01*
X6752Y405D01*
X6753Y407D01*
X6753Y410D01*
Y410D01*
Y410D01*
Y411D01*
X6753Y412D01*
X6752Y415D01*
X6752Y418D01*
Y418D01*
X6751Y418D01*
X6751Y419D01*
X6750Y420D01*
X6749Y422D01*
X6747Y423D01*
X6747Y424D01*
X6747Y424D01*
X6746Y424D01*
X6745Y425D01*
X6744Y425D01*
X6743Y426D01*
X6740Y427D01*
X6740D01*
X6740Y427D01*
X6739Y427D01*
X6737Y428D01*
X6736Y428D01*
X6734Y428D01*
X6732Y428D01*
D02*
G37*
G36*
X7092Y473D02*
X7090D01*
X7088Y473D01*
X7086Y473D01*
X7084Y472D01*
X7082Y471D01*
X7079Y471D01*
X7077Y469D01*
X7077Y469D01*
X7076Y469D01*
X7075Y468D01*
X7073Y467D01*
X7072Y466D01*
X7070Y464D01*
X7068Y463D01*
X7067Y461D01*
X7067Y461D01*
X7066Y460D01*
X7066Y459D01*
X7065Y457D01*
X7064Y455D01*
X7063Y453D01*
X7062Y451D01*
X7062Y448D01*
Y447D01*
X7061Y447D01*
X7061Y445D01*
X7061Y443D01*
X7061Y441D01*
X7060Y438D01*
X7060Y435D01*
Y432D01*
Y432D01*
Y432D01*
Y431D01*
Y429D01*
X7060Y427D01*
X7061Y424D01*
X7061Y422D01*
X7062Y416D01*
Y416D01*
X7062Y415D01*
X7062Y413D01*
X7063Y412D01*
X7063Y410D01*
X7064Y407D01*
X7065Y405D01*
X7067Y403D01*
X7067Y403D01*
X7067Y402D01*
X7068Y401D01*
X7069Y400D01*
X7071Y398D01*
X7072Y397D01*
X7074Y396D01*
X7076Y394D01*
X7076Y394D01*
X7077Y394D01*
X7078Y394D01*
X7080Y393D01*
X7082Y392D01*
X7085Y392D01*
X7088Y392D01*
X7091Y392D01*
X7092D01*
X7094Y392D01*
X7096Y392D01*
X7098Y392D01*
X7101Y393D01*
X7103Y394D01*
X7106Y395D01*
X7106Y395D01*
X7107Y395D01*
X7108Y396D01*
X7109Y397D01*
X7111Y398D01*
X7113Y400D01*
X7114Y402D01*
X7116Y404D01*
X7116Y404D01*
X7116Y405D01*
X7117Y406D01*
X7118Y407D01*
X7119Y409D01*
X7119Y411D01*
X7120Y414D01*
X7121Y417D01*
Y417D01*
X7121Y418D01*
X7121Y419D01*
X7122Y421D01*
X7122Y424D01*
X7122Y426D01*
X7123Y429D01*
Y432D01*
Y432D01*
Y433D01*
Y434D01*
Y435D01*
X7122Y438D01*
X7122Y440D01*
X7122Y443D01*
X7121Y448D01*
Y449D01*
X7121Y450D01*
X7120Y451D01*
X7120Y453D01*
X7119Y455D01*
X7118Y457D01*
X7117Y459D01*
X7116Y461D01*
X7116Y461D01*
X7115Y462D01*
X7114Y463D01*
X7113Y464D01*
X7112Y466D01*
X7110Y467D01*
X7108Y469D01*
X7106Y470D01*
X7106Y470D01*
X7105Y470D01*
X7104Y471D01*
X7102Y471D01*
X7100Y472D01*
X7098Y472D01*
X7095Y473D01*
X7092Y473D01*
D02*
G37*
G36*
X6828D02*
X6826D01*
X6825Y473D01*
X6823Y473D01*
X6820Y472D01*
X6818Y471D01*
X6815Y471D01*
X6813Y469D01*
X6813Y469D01*
X6812Y469D01*
X6811Y468D01*
X6810Y467D01*
X6808Y466D01*
X6806Y464D01*
X6805Y463D01*
X6803Y461D01*
X6803Y461D01*
X6803Y460D01*
X6802Y459D01*
X6801Y457D01*
X6800Y455D01*
X6799Y453D01*
X6799Y451D01*
X6798Y448D01*
Y447D01*
X6798Y447D01*
X6797Y445D01*
X6797Y443D01*
X6797Y441D01*
X6797Y438D01*
X6796Y435D01*
Y432D01*
Y432D01*
Y432D01*
Y431D01*
Y429D01*
X6797Y427D01*
X6797Y424D01*
X6797Y422D01*
X6798Y416D01*
Y416D01*
X6798Y415D01*
X6799Y413D01*
X6799Y412D01*
X6800Y410D01*
X6801Y407D01*
X6801Y405D01*
X6803Y403D01*
X6803Y403D01*
X6803Y402D01*
X6804Y401D01*
X6805Y400D01*
X6807Y398D01*
X6808Y397D01*
X6810Y396D01*
X6812Y394D01*
X6813Y394D01*
X6813Y394D01*
X6815Y394D01*
X6816Y393D01*
X6819Y392D01*
X6821Y392D01*
X6824Y392D01*
X6827Y392D01*
X6829D01*
X6830Y392D01*
X6832Y392D01*
X6835Y392D01*
X6837Y393D01*
X6840Y394D01*
X6842Y395D01*
X6842Y395D01*
X6843Y395D01*
X6844Y396D01*
X6846Y397D01*
X6847Y398D01*
X6849Y400D01*
X6850Y402D01*
X6852Y404D01*
X6852Y404D01*
X6852Y405D01*
X6853Y406D01*
X6854Y407D01*
X6855Y409D01*
X6856Y411D01*
X6856Y414D01*
X6857Y417D01*
Y417D01*
X6857Y418D01*
X6858Y419D01*
X6858Y421D01*
X6858Y424D01*
X6859Y426D01*
X6859Y429D01*
Y432D01*
Y432D01*
Y433D01*
Y434D01*
Y435D01*
X6859Y438D01*
X6858Y440D01*
X6858Y443D01*
X6857Y448D01*
Y449D01*
X6857Y450D01*
X6856Y451D01*
X6856Y453D01*
X6855Y455D01*
X6854Y457D01*
X6853Y459D01*
X6852Y461D01*
X6852Y461D01*
X6851Y462D01*
X6850Y463D01*
X6849Y464D01*
X6848Y466D01*
X6846Y467D01*
X6845Y469D01*
X6842Y470D01*
X6842Y470D01*
X6841Y470D01*
X6840Y471D01*
X6838Y471D01*
X6836Y472D01*
X6834Y472D01*
X6831Y473D01*
X6828Y473D01*
D02*
G37*
%LPD*%
D15*
X0Y0D02*
Y4000D01*
X6000D01*
Y0D02*
Y4000D01*
X0Y0D02*
X6000D01*
D52*
X4211Y164D02*
D03*
X3998D02*
D03*
D53*
X5541Y377D02*
D03*
Y164D02*
D03*
X3051Y632D02*
D03*
Y844D02*
D03*
D54*
X2954Y2348D02*
D03*
Y2436D02*
D03*
X1644Y808D02*
D03*
Y896D02*
D03*
X1742Y895D02*
D03*
Y808D02*
D03*
X5246Y286D02*
D03*
Y374D02*
D03*
X5344Y286D02*
D03*
Y374D02*
D03*
X5768Y286D02*
D03*
Y374D02*
D03*
D55*
X851Y1161D02*
D03*
X763D02*
D03*
X3380Y413D02*
D03*
X3293D02*
D03*
X3380Y317D02*
D03*
X3293D02*
D03*
X3577Y472D02*
D03*
X3490D02*
D03*
X3577Y376D02*
D03*
X3490D02*
D03*
X3577Y281D02*
D03*
X3490D02*
D03*
Y182D02*
D03*
X3577D02*
D03*
X4021Y354D02*
D03*
X4109D02*
D03*
X4021Y433D02*
D03*
X4109D02*
D03*
X4835Y295D02*
D03*
X4747D02*
D03*
D56*
X3067Y2530D02*
D03*
X3067Y2450D02*
D03*
X1437Y812D02*
D03*
X1437Y892D02*
D03*
X2480Y965D02*
D03*
X2480Y886D02*
D03*
X5246Y113D02*
D03*
X5246Y192D02*
D03*
D63*
X3031Y2609D02*
D03*
X3091D02*
D03*
X3867Y1919D02*
D03*
X3928D02*
D03*
X3867Y2018D02*
D03*
X3928D02*
D03*
X3867Y2087D02*
D03*
X3928D02*
D03*
X3483Y2608D02*
D03*
X3544D02*
D03*
X1722Y1289D02*
D03*
X1782D02*
D03*
X1722Y1358D02*
D03*
X1782D02*
D03*
X1722Y1427D02*
D03*
X1782D02*
D03*
X1722Y1496D02*
D03*
X1782D02*
D03*
X1910Y1329D02*
D03*
X1850D02*
D03*
X1910Y1398D02*
D03*
X1850D02*
D03*
X1910Y1467D02*
D03*
X1850D02*
D03*
X1910Y1535D02*
D03*
X1850D02*
D03*
X1722Y1565D02*
D03*
X1782D02*
D03*
D66*
X5049Y2874D02*
D03*
X5128Y2874D02*
D03*
X3533Y600D02*
D03*
X3613Y600D02*
D03*
X3494Y84D02*
D03*
X3573Y84D02*
D03*
X3834Y256D02*
D03*
X3755Y256D02*
D03*
X3834Y148D02*
D03*
X3755Y148D02*
D03*
X4754Y398D02*
D03*
X4833Y399D02*
D03*
X5296Y495D02*
D03*
X5216Y495D02*
D03*
X3986Y2736D02*
D03*
X4065Y2736D02*
D03*
D70*
X2054Y669D02*
D03*
X1962Y632D02*
D03*
X2054Y886D02*
D03*
X1962Y848D02*
D03*
D71*
X1962Y707D02*
D03*
Y923D02*
D03*
D82*
X3210Y341D02*
D03*
Y366D02*
D03*
Y315D02*
D03*
X3124D02*
D03*
Y341D02*
D03*
Y366D02*
D03*
D91*
X4409Y1992D02*
D03*
X4551Y1843D02*
D03*
X4094Y1807D02*
D03*
X4350Y1841D02*
D03*
Y1748D02*
D03*
X3917Y2795D02*
D03*
X3819D02*
D03*
X3720D02*
D03*
X3711Y2657D02*
D03*
X4941Y3041D02*
D03*
X5344Y2933D02*
D03*
X5886Y1014D02*
D03*
D92*
X4569Y896D02*
D03*
X1581Y148D02*
D03*
X5650Y2087D02*
D03*
D93*
X4469Y896D02*
D03*
X4369D02*
D03*
X4169D02*
D03*
X4269D02*
D03*
X4069D02*
D03*
X1681Y148D02*
D03*
X1781D02*
D03*
X5550Y2087D02*
D03*
X2354Y2982D02*
D03*
Y3082D02*
D03*
X1683Y2748D02*
D03*
X591Y2964D02*
D03*
X1311Y3069D02*
D03*
D94*
X4212Y724D02*
D03*
Y644D02*
D03*
D95*
X4412Y684D02*
D03*
D96*
X135Y1911D02*
D03*
Y1811D02*
D03*
Y1711D02*
D03*
X435Y1911D02*
D03*
Y1811D02*
D03*
Y1711D02*
D03*
D97*
X1299D02*
D03*
X1399Y1911D02*
D03*
X1199D02*
D03*
D98*
X2723Y395D02*
D03*
X2423Y495D02*
D03*
Y295D02*
D03*
X748Y495D02*
D03*
Y295D02*
D03*
X448Y395D02*
D03*
D99*
X3809Y358D02*
D03*
X3832Y395D02*
D03*
X3786D02*
D03*
D100*
X3809Y433D02*
D03*
X5059Y448D02*
D03*
Y369D02*
D03*
X5020D02*
D03*
Y448D02*
D03*
D101*
X3005Y97D02*
D03*
X3334D02*
D03*
D102*
X3082Y203D02*
D03*
X3257D02*
D03*
D103*
X4715Y3563D02*
D03*
D104*
X4615D02*
D03*
X4515D02*
D03*
X4415D02*
D03*
D105*
X2354Y2882D02*
D03*
X1683Y2648D02*
D03*
X591Y2864D02*
D03*
X1311Y3169D02*
D03*
D106*
X157Y3629D02*
D03*
Y3229D02*
D03*
Y3529D02*
D03*
Y3329D02*
D03*
Y3429D02*
D03*
Y2429D02*
D03*
Y2329D02*
D03*
Y2629D02*
D03*
Y2529D02*
D03*
Y2229D02*
D03*
X1557Y3529D02*
D03*
Y3329D02*
D03*
Y3229D02*
D03*
Y3429D02*
D03*
Y2529D02*
D03*
Y2629D02*
D03*
Y2429D02*
D03*
Y2229D02*
D03*
Y2329D02*
D03*
D107*
Y3629D02*
D03*
D108*
X128Y128D02*
D03*
Y3872D02*
D03*
X5872D02*
D03*
Y128D02*
D03*
D109*
X798Y2804D02*
D03*
X898D02*
D03*
X998D02*
D03*
Y2904D02*
D03*
X898D02*
D03*
X1098Y2804D02*
D03*
Y2904D02*
D03*
D110*
X798D02*
D03*
D111*
X3987Y2785D02*
D03*
X4311Y614D02*
D03*
X3642Y531D02*
D03*
X3573Y1624D02*
D03*
X3620Y1722D02*
D03*
X3770Y1742D02*
D03*
X3348Y640D02*
D03*
X5364Y925D02*
D03*
X5285D02*
D03*
X4931Y925D02*
D03*
X5012D02*
D03*
X5089D02*
D03*
X4343Y226D02*
D03*
X4654Y295D02*
D03*
X2124Y1713D02*
D03*
X3343Y2091D02*
D03*
X3295D02*
D03*
X3248D02*
D03*
X3224Y2114D02*
D03*
X3319D02*
D03*
X3272Y2114D02*
D03*
X778Y1811D02*
D03*
X837D02*
D03*
X4343Y1560D02*
D03*
X3811Y2045D02*
D03*
X1457Y2028D02*
D03*
X5128Y2943D02*
D03*
X1860Y2766D02*
D03*
X2602Y1634D02*
D03*
X2622Y1723D02*
D03*
X1902Y1957D02*
D03*
X1961Y2087D02*
D03*
X2602Y1748D02*
D03*
X2638Y1772D02*
D03*
X2759Y1811D02*
D03*
X2583Y1665D02*
D03*
X3867Y1976D02*
D03*
X3567Y1979D02*
D03*
X3573Y1539D02*
D03*
Y1579D02*
D03*
X3568Y2387D02*
D03*
X3415Y2303D02*
D03*
X2992Y1322D02*
D03*
X2953Y1323D02*
D03*
X2839Y2134D02*
D03*
X1685Y1984D02*
D03*
X4890Y1087D02*
D03*
X4854Y1087D02*
D03*
X4858Y1122D02*
D03*
X4823Y1122D02*
D03*
X5226Y2386D02*
D03*
X3440Y2608D02*
D03*
X3268Y364D02*
D03*
X1783Y1605D02*
D03*
X2587Y1413D02*
D03*
X3051Y2405D02*
D03*
X4212Y1762D02*
D03*
X4045Y1742D02*
D03*
X2957Y1650D02*
D03*
X3240Y2264D02*
D03*
X3976Y1328D02*
D03*
X3630Y1319D02*
D03*
X2943Y2077D02*
D03*
X3976Y1782D02*
D03*
X4716Y1969D02*
D03*
X4998Y2270D02*
D03*
X4471Y2193D02*
D03*
X2535Y966D02*
D03*
X2358Y755D02*
D03*
X2434Y2028D02*
D03*
X2290D02*
D03*
X1492Y1909D02*
D03*
Y2028D02*
D03*
X1397Y1515D02*
D03*
X1397Y1137D02*
D03*
X1654Y1160D02*
D03*
X2268Y1343D02*
D03*
X2481Y1336D02*
D03*
X2651Y965D02*
D03*
X3226Y940D02*
D03*
X3091Y965D02*
D03*
X3574Y943D02*
D03*
X3985Y2018D02*
D03*
X5191Y903D02*
D03*
X5190Y596D02*
D03*
X4151Y1524D02*
D03*
X3947D02*
D03*
X3268Y2296D02*
D03*
X3091Y1024D02*
D03*
X2716Y1073D02*
D03*
X2667Y1004D02*
D03*
X2539Y1735D02*
D03*
X3199Y916D02*
D03*
X3500Y2267D02*
D03*
X3240Y1067D02*
D03*
X3681Y276D02*
D03*
X4114Y500D02*
D03*
X4398Y453D02*
D03*
X4362Y614D02*
D03*
X5484Y248D02*
D03*
X5827Y374D02*
D03*
X5713D02*
D03*
X5768Y437D02*
D03*
X5579Y1683D02*
D03*
X3542Y2407D02*
D03*
X2752Y2907D02*
D03*
X2810Y2520D02*
D03*
X1289Y2057D02*
D03*
X2603Y1362D02*
D03*
X2604Y1329D02*
D03*
X2587Y1461D02*
D03*
Y1528D02*
D03*
X2551Y1433D02*
D03*
X3488Y543D02*
D03*
X1843Y579D02*
D03*
X937Y1165D02*
D03*
X4587Y280D02*
D03*
X4337Y423D02*
D03*
X4515Y1280D02*
D03*
X3789Y1260D02*
D03*
X3825Y1303D02*
D03*
X4547Y2268D02*
D03*
X4515Y2319D02*
D03*
X2608Y1988D02*
D03*
X2626Y1939D02*
D03*
X2610Y1880D02*
D03*
X2607Y1839D02*
D03*
X955Y2530D02*
D03*
X2657Y2667D02*
D03*
X600Y1168D02*
D03*
X2815Y1457D02*
D03*
X2776Y1457D02*
D03*
X2819Y1559D02*
D03*
X2831Y1634D02*
D03*
X2157Y1732D02*
D03*
X2760Y1701D02*
D03*
X2168Y1686D02*
D03*
X2549Y1545D02*
D03*
X3799Y1707D02*
D03*
X2803Y1650D02*
D03*
X2106Y1685D02*
D03*
X2776Y1673D02*
D03*
X2831Y1937D02*
D03*
X2803Y1961D02*
D03*
X1909Y837D02*
D03*
X2884Y1073D02*
D03*
X2835Y1243D02*
D03*
X2777Y1290D02*
D03*
X2795Y1354D02*
D03*
X2106Y844D02*
D03*
X2500Y2229D02*
D03*
X2579Y2224D02*
D03*
X3348Y3563D02*
D03*
X3415Y2018D02*
D03*
X2783Y1992D02*
D03*
X3131Y2608D02*
D03*
X3055Y3421D02*
D03*
X3480Y3370D02*
D03*
X3315Y3469D02*
D03*
X3287Y3417D02*
D03*
X3217Y3323D02*
D03*
X3224Y3370D02*
D03*
X4203Y1801D02*
D03*
X4035Y1802D02*
D03*
X2985Y2133D02*
D03*
X2972Y2256D02*
D03*
X3272Y1638D02*
D03*
X3249Y1602D02*
D03*
X3319Y1484D02*
D03*
X3343Y1524D02*
D03*
X3573Y1506D02*
D03*
X5150Y2805D02*
D03*
X5182Y2827D02*
D03*
X5415Y3415D02*
D03*
X3092Y2276D02*
D03*
X5213Y2449D02*
D03*
X5181Y2480D02*
D03*
X4774Y1417D02*
D03*
X4163Y2717D02*
D03*
X3307Y1122D02*
D03*
X4469Y1362D02*
D03*
X778Y1457D02*
D03*
X837Y1949D02*
D03*
X709Y1870D02*
D03*
X896Y2118D02*
D03*
X1661Y531D02*
D03*
X1585Y495D02*
D03*
X4469Y2002D02*
D03*
X4931Y2119D02*
D03*
X5578Y1969D02*
D03*
X2871Y2133D02*
D03*
X2953Y2134D02*
D03*
X3016D02*
D03*
X2902D02*
D03*
X3067Y2098D02*
D03*
X3092Y2076D02*
D03*
X3445Y2055D02*
D03*
X3811Y2077D02*
D03*
X2540Y1988D02*
D03*
X2508Y1547D02*
D03*
X1673Y1457D02*
D03*
X3650Y1185D02*
D03*
X5161Y1496D02*
D03*
X5158Y1299D02*
D03*
X3351Y1880D02*
D03*
X3111Y2133D02*
D03*
X3151D02*
D03*
X3189Y2264D02*
D03*
X3366Y1819D02*
D03*
X3140Y2264D02*
D03*
X3022Y2266D02*
D03*
X3591Y1949D02*
D03*
X3789Y1998D02*
D03*
X4689Y2077D02*
D03*
X2953Y2717D02*
D03*
X3583Y2608D02*
D03*
X2992D02*
D03*
X2898Y2382D02*
D03*
X2904Y2268D02*
D03*
X3909Y1390D02*
D03*
X3854Y1417D02*
D03*
X3591Y1447D02*
D03*
X2915Y1323D02*
D03*
X2632Y1299D02*
D03*
X2539Y1337D02*
D03*
X3906Y1283D02*
D03*
X3425Y2268D02*
D03*
X4575Y2292D02*
D03*
X4602Y2508D02*
D03*
X4606Y1150D02*
D03*
X4638Y969D02*
D03*
X4657Y2827D02*
D03*
X4673Y2579D02*
D03*
X3811Y2118D02*
D03*
X4689D02*
D03*
X4697Y2827D02*
D03*
X4768Y2579D02*
D03*
X4720D02*
D03*
X4724Y2043D02*
D03*
X4736Y2827D02*
D03*
X3803Y1618D02*
D03*
X4766Y1620D02*
D03*
X4870Y2579D02*
D03*
X4776Y2827D02*
D03*
X4791Y1705D02*
D03*
X3583Y2358D02*
D03*
X4815Y2827D02*
D03*
X4831Y1240D02*
D03*
X4783Y1122D02*
D03*
X4854Y2827D02*
D03*
X4890D02*
D03*
X4931D02*
D03*
X3705Y1063D02*
D03*
Y1004D02*
D03*
X3685Y1091D02*
D03*
Y1035D02*
D03*
X4957Y2657D02*
D03*
X5012Y2382D02*
D03*
X4972Y2402D02*
D03*
X5047Y1260D02*
D03*
X5033Y1168D02*
D03*
X2630Y2480D02*
D03*
X2661Y2453D02*
D03*
X5138Y2437D02*
D03*
X2689Y2425D02*
D03*
X1744Y1134D02*
D03*
X1717Y1114D02*
D03*
X2093Y2240D02*
D03*
X1520Y2094D02*
D03*
Y1831D02*
D03*
X1705Y1929D02*
D03*
Y1890D02*
D03*
X3016Y1862D02*
D03*
X3603Y1799D02*
D03*
X1669Y1807D02*
D03*
X2957Y1725D02*
D03*
X1508Y1673D02*
D03*
X3228Y1579D02*
D03*
X1882Y1618D02*
D03*
X3294Y1440D02*
D03*
X1484Y1733D02*
D03*
X2858Y1911D02*
D03*
X3524Y1467D02*
D03*
X1711Y2044D02*
D03*
X4630Y2281D02*
D03*
X4654Y1933D02*
D03*
X3213Y969D02*
D03*
X5122Y1965D02*
D03*
X5049Y2807D02*
D03*
X5035Y2570D02*
D03*
X5083Y1228D02*
D03*
X5012Y2827D02*
D03*
X5059Y1925D02*
D03*
X5004Y2658D02*
D03*
X4972Y2827D02*
D03*
X2604Y1270D02*
D03*
X3191Y1097D02*
D03*
X3091Y1303D02*
D03*
X3067Y1272D02*
D03*
X2935Y1920D02*
D03*
X4815Y2358D02*
D03*
X2904Y2303D02*
D03*
X4909Y2689D02*
D03*
X4913Y2528D02*
D03*
X4815Y2579D02*
D03*
X3791Y1957D02*
D03*
X4724Y1679D02*
D03*
X3799D02*
D03*
X4026Y502D02*
D03*
X3864Y315D02*
D03*
X3142Y402D02*
D03*
X3228Y259D02*
D03*
X3197D02*
D03*
X3165D02*
D03*
X3618Y2004D02*
D03*
X2103Y1831D02*
D03*
X2150Y1823D02*
D03*
X2114Y2181D02*
D03*
X2154D02*
D03*
X2182D02*
D03*
X3146Y1134D02*
D03*
X3126Y1114D02*
D03*
X1717Y1717D02*
D03*
Y1689D02*
D03*
X1661Y1843D02*
D03*
X1705Y1846D02*
D03*
X3232Y1303D02*
D03*
X3197Y1839D02*
D03*
X2126Y1551D02*
D03*
X1969Y1752D02*
D03*
X1740Y1941D02*
D03*
X2174Y1959D02*
D03*
X1957Y1537D02*
D03*
X2136Y1408D02*
D03*
X1959Y1398D02*
D03*
X2351Y1575D02*
D03*
X2295D02*
D03*
X2323D02*
D03*
X1959Y1467D02*
D03*
X1854Y1583D02*
D03*
X1922Y1819D02*
D03*
X1826D02*
D03*
X1858Y1819D02*
D03*
X1890D02*
D03*
X1961Y1819D02*
D03*
X1705Y1957D02*
D03*
X1717Y2008D02*
D03*
X1689Y2067D02*
D03*
Y2106D02*
D03*
X3867Y1732D02*
D03*
Y1280D02*
D03*
X3573Y1024D02*
D03*
X1959Y1329D02*
D03*
X1506Y1250D02*
D03*
X1673Y1290D02*
D03*
Y1358D02*
D03*
Y1496D02*
D03*
Y1565D02*
D03*
X1654Y1221D02*
D03*
X1457Y1516D02*
D03*
X1458Y1890D02*
D03*
X1457Y2175D02*
D03*
D172*
X3864Y356D02*
D03*
Y415D02*
D03*
Y376D02*
D03*
Y395D02*
D03*
Y435D02*
D03*
X3754Y356D02*
D03*
Y376D02*
D03*
Y395D02*
D03*
Y415D02*
D03*
Y435D02*
D03*
D173*
X3809Y395D02*
D03*
D176*
X5039Y408D02*
D03*
D177*
X5614Y758D02*
D03*
Y915D02*
D03*
X5882Y758D02*
D03*
Y915D02*
D03*
D178*
X5130Y3002D02*
D03*
X5028D02*
D03*
D179*
X837Y1752D02*
D03*
Y1870D02*
D03*
X778Y1752D02*
D03*
Y1870D02*
D03*
D180*
X3665Y2486D02*
D03*
X4110D02*
D03*
D181*
X3829Y2579D02*
D03*
X3868D02*
D03*
X3789D02*
D03*
X3947D02*
D03*
X3986D02*
D03*
X3907D02*
D03*
D182*
X4337Y2630D02*
D03*
X5270D02*
D03*
D183*
X4872Y2736D02*
D03*
X4911D02*
D03*
X4931D02*
D03*
X4892D02*
D03*
X4970D02*
D03*
X4990D02*
D03*
X4951D02*
D03*
X5030D02*
D03*
X5049D02*
D03*
X5010D02*
D03*
X5108D02*
D03*
X5089D02*
D03*
X5128D02*
D03*
X5069D02*
D03*
X5167D02*
D03*
X5187D02*
D03*
X5148D02*
D03*
X4557D02*
D03*
X4577D02*
D03*
X4537D02*
D03*
X4616D02*
D03*
X4636D02*
D03*
X4596D02*
D03*
X4439D02*
D03*
X4459D02*
D03*
X4419D02*
D03*
X4498D02*
D03*
X4518D02*
D03*
X4478D02*
D03*
X4774D02*
D03*
X4793D02*
D03*
X4754D02*
D03*
X4833D02*
D03*
X4852D02*
D03*
X4813D02*
D03*
X4675D02*
D03*
X4695D02*
D03*
X4656D02*
D03*
X4734D02*
D03*
X4715D02*
D03*
D184*
X4362Y709D02*
D03*
X4262D02*
D03*
X4312Y659D02*
D03*
Y709D02*
D03*
X4262Y659D02*
D03*
D185*
X4362D02*
D03*
D186*
X1535Y806D02*
D03*
Y897D02*
D03*
D187*
X2295Y879D02*
D03*
Y842D02*
D03*
Y805D02*
D03*
X2193D02*
D03*
Y842D02*
D03*
Y879D02*
D03*
D188*
X2302Y955D02*
D03*
X2187D02*
D03*
D189*
X2799Y886D02*
D03*
X2625D02*
D03*
D190*
X3756Y600D02*
D03*
X3941D02*
D03*
D191*
X5099Y182D02*
D03*
X4969D02*
D03*
D192*
X5098Y369D02*
D03*
Y389D02*
D03*
Y349D02*
D03*
Y408D02*
D03*
Y428D02*
D03*
Y448D02*
D03*
Y468D02*
D03*
X4980Y349D02*
D03*
Y369D02*
D03*
Y389D02*
D03*
Y408D02*
D03*
Y428D02*
D03*
Y448D02*
D03*
Y468D02*
D03*
M02*
