G04*
G04 #@! TF.GenerationSoftware,Altium Limited,Altium Designer,19.0.15 (446)*
G04*
G04 Layer_Color=10066329*
%FSLAX23Y23*%
%MOIN*%
G70*
G01*
G75*
%ADD10C,0.008*%
%ADD11C,0.000*%
%ADD12C,0.010*%
%ADD13C,0.006*%
%ADD14C,0.005*%
%ADD15C,0.012*%
%ADD16C,0.010*%
%ADD112C,0.020*%
G36*
X901Y1324D02*
X899Y1319D01*
X715D01*
X713Y1324D01*
X807Y1417D01*
X901Y1324D01*
D02*
G37*
G36*
X630Y1254D02*
Y1069D01*
X625Y1067D01*
X531Y1162D01*
X625Y1256D01*
X630Y1254D01*
D02*
G37*
G36*
X1083Y1161D02*
X989Y1067D01*
X984Y1069D01*
Y1254D01*
X989Y1256D01*
X1083Y1161D01*
D02*
G37*
G36*
X902Y999D02*
X807Y906D01*
X713Y999D01*
X715Y1004D01*
X900D01*
X902Y999D01*
D02*
G37*
G36*
X7916Y361D02*
X7918Y361D01*
X7918D01*
X7919Y361D01*
X7919Y361D01*
X7920Y360D01*
X7920Y360D01*
X7920Y360D01*
X7921Y359D01*
X7920Y359D01*
Y358D01*
X7920Y358D01*
X7920Y357D01*
X7919Y356D01*
X7891Y298D01*
Y261D01*
Y260D01*
X7890Y260D01*
X7890Y259D01*
X7889Y259D01*
X7889D01*
X7889Y259D01*
X7888D01*
X7887Y259D01*
X7887D01*
X7886Y258D01*
X7885Y258D01*
X7883D01*
X7882Y258D01*
X7881Y259D01*
X7880D01*
X7880Y259D01*
X7878Y259D01*
X7878D01*
X7878Y259D01*
X7877Y260D01*
Y260D01*
Y260D01*
X7877Y261D01*
Y298D01*
X7848Y356D01*
X7848Y356D01*
X7848Y357D01*
X7847Y358D01*
X7847Y359D01*
Y359D01*
Y359D01*
Y360D01*
X7847Y360D01*
X7848Y361D01*
X7848Y361D01*
X7849Y361D01*
X7850Y361D01*
X7850D01*
X7851Y361D01*
X7856D01*
X7858Y361D01*
X7858D01*
X7859Y361D01*
X7859Y361D01*
X7860Y361D01*
X7860D01*
X7860Y360D01*
X7861Y360D01*
X7861Y360D01*
X7861D01*
X7862Y359D01*
X7862Y359D01*
X7876Y329D01*
Y329D01*
X7877Y328D01*
X7877Y328D01*
X7877Y326D01*
X7878Y325D01*
X7879Y324D01*
X7880Y320D01*
X7880Y320D01*
X7880Y320D01*
X7881Y319D01*
X7881Y318D01*
X7882Y316D01*
X7883Y315D01*
X7884Y311D01*
X7884D01*
Y311D01*
X7885Y312D01*
X7885Y313D01*
X7885Y314D01*
X7886Y315D01*
X7887Y317D01*
X7888Y320D01*
X7888Y320D01*
X7888Y321D01*
X7889Y322D01*
X7889Y323D01*
X7890Y324D01*
X7890Y326D01*
X7892Y329D01*
X7906Y358D01*
Y359D01*
X7906Y359D01*
X7907Y360D01*
Y360D01*
X7907Y360D01*
X7908Y361D01*
X7908D01*
X7908Y361D01*
X7909Y361D01*
X7910Y361D01*
X7910D01*
X7911Y361D01*
X7915D01*
X7916Y361D01*
D02*
G37*
G36*
X7265Y361D02*
X7265Y360D01*
X7266D01*
X7266Y360D01*
X7267Y360D01*
X7267Y359D01*
X7267Y359D01*
X7268Y359D01*
X7268Y358D01*
X7268Y357D01*
X7269Y357D01*
X7269Y357D01*
X7269Y356D01*
Y355D01*
Y261D01*
Y260D01*
X7269Y260D01*
X7268Y259D01*
X7268Y259D01*
X7267Y259D01*
X7267D01*
X7267Y259D01*
X7266D01*
X7265Y259D01*
X7265D01*
X7264Y258D01*
X7263Y258D01*
X7261D01*
X7260Y258D01*
X7259Y259D01*
X7259D01*
X7258Y259D01*
X7257D01*
X7257Y259D01*
X7257D01*
X7256Y259D01*
X7256Y260D01*
Y260D01*
Y260D01*
X7256Y261D01*
Y350D01*
X7255D01*
X7219Y260D01*
X7219Y260D01*
X7219Y259D01*
X7218Y259D01*
X7218Y259D01*
X7217Y259D01*
X7217D01*
X7217Y259D01*
X7216D01*
X7215Y258D01*
X7215D01*
X7214Y258D01*
X7211D01*
X7210Y258D01*
X7210D01*
X7209Y259D01*
X7208Y259D01*
X7208D01*
X7207Y259D01*
X7207Y259D01*
Y260D01*
X7206Y260D01*
X7206Y260D01*
X7172Y350D01*
Y261D01*
Y260D01*
X7171Y260D01*
X7171Y259D01*
X7171Y259D01*
X7170Y259D01*
X7170D01*
X7170Y259D01*
X7169D01*
X7168Y259D01*
X7168D01*
X7167Y258D01*
X7166Y258D01*
X7164D01*
X7163Y258D01*
X7162Y259D01*
X7161D01*
X7161Y259D01*
X7160D01*
X7160Y259D01*
X7159D01*
X7159Y259D01*
X7158Y260D01*
Y260D01*
Y260D01*
X7158Y261D01*
Y355D01*
Y355D01*
Y355D01*
X7158Y356D01*
Y356D01*
X7159Y358D01*
X7160Y359D01*
X7160Y359D01*
X7161Y360D01*
X7162Y361D01*
X7164Y361D01*
X7174D01*
X7175Y361D01*
X7176Y360D01*
X7177D01*
X7177Y360D01*
X7178Y360D01*
X7179Y359D01*
X7180Y359D01*
X7180Y358D01*
X7181Y358D01*
X7182Y357D01*
X7182Y356D01*
X7182Y356D01*
X7183Y355D01*
X7183Y354D01*
X7184Y352D01*
X7213Y279D01*
X7214D01*
X7244Y352D01*
Y352D01*
X7244Y353D01*
X7244Y354D01*
X7245Y355D01*
X7246Y356D01*
X7246Y357D01*
X7247Y357D01*
X7247Y358D01*
X7248Y359D01*
X7248Y359D01*
X7249Y359D01*
X7250Y360D01*
X7251Y360D01*
X7251Y360D01*
X7252Y361D01*
X7253Y361D01*
X7264D01*
X7265Y361D01*
D02*
G37*
G36*
X7511Y361D02*
X7512Y361D01*
X7512D01*
X7513Y361D01*
X7514Y361D01*
X7514Y360D01*
Y360D01*
X7514Y360D01*
X7514Y359D01*
Y359D01*
Y358D01*
Y358D01*
X7514Y357D01*
X7514Y356D01*
X7481Y261D01*
Y261D01*
X7480Y260D01*
X7480Y260D01*
X7479D01*
X7479Y259D01*
X7479Y259D01*
X7478Y259D01*
X7478D01*
X7477Y259D01*
X7477D01*
X7475Y258D01*
X7474D01*
X7473Y258D01*
X7470D01*
X7469Y258D01*
X7467D01*
X7466Y259D01*
X7466D01*
X7466Y259D01*
X7465D01*
X7464Y259D01*
X7464Y259D01*
X7463Y259D01*
X7463Y260D01*
Y260D01*
X7463Y260D01*
X7462Y261D01*
X7429Y356D01*
X7429Y356D01*
X7429Y357D01*
X7429Y358D01*
X7428Y359D01*
Y359D01*
Y359D01*
X7429Y360D01*
X7429Y360D01*
X7429Y361D01*
X7430Y361D01*
X7430Y361D01*
X7431Y361D01*
X7432D01*
X7432Y361D01*
X7438D01*
X7439Y361D01*
X7439D01*
X7440Y361D01*
X7441Y361D01*
X7441Y361D01*
X7441D01*
X7442Y360D01*
X7442Y360D01*
X7442Y360D01*
X7442Y359D01*
X7443Y359D01*
X7472Y273D01*
X7472D01*
X7501Y358D01*
Y359D01*
X7501Y359D01*
X7501Y360D01*
Y360D01*
X7501Y360D01*
X7502Y361D01*
X7502D01*
X7503Y361D01*
X7504Y361D01*
X7504Y361D01*
X7505D01*
X7506Y361D01*
X7510D01*
X7511Y361D01*
D02*
G37*
G36*
X7706D02*
X7707Y361D01*
X7707D01*
X7708Y361D01*
X7708Y361D01*
X7709Y360D01*
X7709D01*
X7710Y360D01*
X7710Y360D01*
X7710Y360D01*
X7710Y359D01*
X7711Y359D01*
Y271D01*
X7747D01*
X7748Y270D01*
X7749D01*
X7749Y270D01*
X7749Y269D01*
Y269D01*
X7749Y269D01*
X7750Y268D01*
X7750Y267D01*
Y267D01*
X7750Y267D01*
Y266D01*
Y265D01*
Y265D01*
Y264D01*
Y263D01*
X7750Y262D01*
Y262D01*
X7750Y261D01*
X7749Y260D01*
Y260D01*
X7749Y260D01*
X7748Y259D01*
X7748D01*
X7747Y259D01*
X7702D01*
X7701Y259D01*
X7700Y259D01*
X7699Y260D01*
X7698Y260D01*
X7698Y261D01*
X7697Y262D01*
X7697Y264D01*
Y359D01*
Y359D01*
Y359D01*
X7697Y360D01*
Y360D01*
X7698Y360D01*
X7698Y360D01*
X7699D01*
X7699Y361D01*
X7700Y361D01*
X7701Y361D01*
X7701D01*
X7702Y361D01*
X7703Y361D01*
X7705D01*
X7706Y361D01*
D02*
G37*
G36*
X7585Y360D02*
X7585D01*
X7586Y360D01*
X7586Y359D01*
Y359D01*
X7586Y359D01*
X7586Y358D01*
X7587Y357D01*
Y357D01*
X7587Y357D01*
X7587Y356D01*
Y355D01*
Y355D01*
Y354D01*
X7587Y353D01*
X7587Y352D01*
Y352D01*
X7586Y352D01*
X7586Y351D01*
X7586Y350D01*
X7585Y350D01*
X7585D01*
X7584Y349D01*
X7544D01*
Y318D01*
X7579D01*
X7579Y317D01*
X7580D01*
X7580Y317D01*
X7580Y316D01*
Y316D01*
X7581Y316D01*
X7581Y315D01*
X7581Y314D01*
Y314D01*
X7581Y314D01*
Y313D01*
Y312D01*
Y312D01*
Y311D01*
Y310D01*
X7581Y309D01*
Y309D01*
X7581Y309D01*
X7581Y308D01*
X7580Y308D01*
X7580Y307D01*
X7579Y307D01*
X7579D01*
X7578Y307D01*
X7544D01*
Y270D01*
X7585D01*
X7586Y270D01*
X7586D01*
X7586Y270D01*
X7587Y269D01*
X7587Y269D01*
X7587Y268D01*
X7587Y268D01*
X7587Y267D01*
Y267D01*
X7587Y266D01*
Y265D01*
Y264D01*
Y264D01*
Y263D01*
Y263D01*
X7587Y262D01*
Y262D01*
X7587Y261D01*
X7587Y260D01*
Y260D01*
X7586Y260D01*
X7586Y259D01*
X7585D01*
X7585Y259D01*
X7535D01*
X7535Y259D01*
X7534Y259D01*
X7532Y260D01*
X7532Y260D01*
X7532Y261D01*
X7531Y262D01*
X7531Y264D01*
Y355D01*
Y355D01*
Y356D01*
X7531Y357D01*
X7531Y358D01*
X7532Y359D01*
X7533Y360D01*
X7533Y360D01*
X7534Y361D01*
X7536Y361D01*
X7585D01*
X7585Y360D01*
D02*
G37*
G36*
X6734Y361D02*
X6736Y360D01*
X6738Y360D01*
X6741Y359D01*
X6743Y359D01*
X6743D01*
X6744Y359D01*
X6745Y358D01*
X6747Y358D01*
X6750Y356D01*
X6751Y355D01*
X6753Y354D01*
X6753Y354D01*
X6754Y353D01*
X6754Y353D01*
X6755Y352D01*
X6756Y350D01*
X6757Y349D01*
X6758Y347D01*
X6759Y346D01*
X6759Y345D01*
X6759Y345D01*
X6760Y344D01*
X6760Y342D01*
X6760Y341D01*
X6760Y339D01*
X6761Y337D01*
Y335D01*
Y335D01*
Y334D01*
Y334D01*
X6761Y333D01*
X6760Y330D01*
X6760Y328D01*
Y328D01*
X6760Y327D01*
X6760Y327D01*
X6759Y326D01*
X6758Y324D01*
X6757Y322D01*
Y322D01*
X6757Y321D01*
X6756Y320D01*
X6755Y318D01*
X6753Y317D01*
X6753D01*
X6753Y316D01*
X6752Y316D01*
X6751Y316D01*
X6750Y314D01*
X6747Y313D01*
X6747D01*
X6748Y313D01*
X6749Y313D01*
X6750Y313D01*
X6752Y312D01*
X6755Y310D01*
X6755D01*
X6756Y310D01*
X6756Y310D01*
X6757Y309D01*
X6759Y307D01*
X6761Y305D01*
X6761Y305D01*
X6762Y304D01*
X6762Y304D01*
X6763Y303D01*
X6763Y302D01*
X6764Y300D01*
X6766Y297D01*
Y297D01*
X6766Y297D01*
X6766Y296D01*
X6767Y295D01*
X6767Y293D01*
X6767Y292D01*
X6767Y288D01*
Y288D01*
Y287D01*
Y286D01*
X6767Y285D01*
X6767Y284D01*
X6767Y282D01*
X6766Y279D01*
Y279D01*
X6766Y278D01*
X6765Y278D01*
X6765Y277D01*
X6764Y274D01*
X6762Y272D01*
X6762Y272D01*
X6762Y271D01*
X6762Y271D01*
X6761Y270D01*
X6759Y268D01*
X6757Y266D01*
X6757Y266D01*
X6757Y266D01*
X6756Y265D01*
X6755Y265D01*
X6754Y264D01*
X6753Y263D01*
X6750Y262D01*
X6750D01*
X6749Y262D01*
X6749Y262D01*
X6748Y261D01*
X6746Y261D01*
X6745Y260D01*
X6742Y260D01*
X6742D01*
X6741Y259D01*
X6740D01*
X6739Y259D01*
X6737Y259D01*
X6736D01*
X6734Y259D01*
X6705D01*
X6704Y259D01*
X6703Y259D01*
X6701Y260D01*
X6701Y260D01*
X6701Y261D01*
X6700Y262D01*
X6700Y264D01*
Y355D01*
Y355D01*
Y356D01*
X6700Y357D01*
X6701Y358D01*
X6701Y359D01*
X6702Y360D01*
X6703Y360D01*
X6704Y361D01*
X6705Y361D01*
X6732D01*
X6734Y361D01*
D02*
G37*
G36*
X7802Y361D02*
X7802D01*
X7803Y361D01*
X7804Y361D01*
X7804Y361D01*
X7805D01*
X7805Y360D01*
X7806Y360D01*
X7806Y360D01*
X7806D01*
X7807Y359D01*
X7807Y358D01*
X7841Y264D01*
X7841Y263D01*
X7842Y263D01*
X7842Y262D01*
Y261D01*
Y260D01*
Y260D01*
X7842Y260D01*
X7841Y259D01*
X7841D01*
X7841Y259D01*
X7840Y259D01*
X7839Y258D01*
X7838D01*
X7837Y258D01*
X7833D01*
X7831Y258D01*
X7831D01*
X7831Y259D01*
X7830D01*
X7829Y259D01*
X7829D01*
X7829Y259D01*
X7828Y259D01*
Y260D01*
X7828Y260D01*
X7827Y261D01*
X7819Y286D01*
X7776D01*
X7768Y261D01*
Y261D01*
X7768Y261D01*
X7767Y260D01*
X7767Y259D01*
X7766Y259D01*
X7766D01*
X7766Y259D01*
X7765D01*
X7764Y258D01*
X7763D01*
X7762Y258D01*
X7759D01*
X7758Y258D01*
X7757Y259D01*
X7757D01*
X7756Y259D01*
X7755Y259D01*
X7755Y259D01*
Y259D01*
X7755Y260D01*
X7754Y260D01*
X7754Y261D01*
Y261D01*
X7754Y261D01*
X7755Y262D01*
X7755Y264D01*
X7789Y358D01*
Y359D01*
X7789Y359D01*
X7790Y360D01*
X7790Y360D01*
X7790Y360D01*
X7791Y361D01*
X7791D01*
X7792Y361D01*
X7793Y361D01*
X7794Y361D01*
X7794D01*
X7795Y361D01*
X7801D01*
X7802Y361D01*
D02*
G37*
G36*
X7641Y361D02*
X7643Y360D01*
X7643D01*
X7644Y360D01*
X7646D01*
X7647Y360D01*
X7647D01*
X7648Y360D01*
X7649Y360D01*
X7651Y359D01*
X7652Y359D01*
X7654Y358D01*
X7658Y357D01*
X7658Y357D01*
X7658Y356D01*
X7659Y356D01*
X7660Y355D01*
X7663Y353D01*
X7665Y351D01*
X7665Y351D01*
X7666Y351D01*
X7666Y350D01*
X7667Y349D01*
X7668Y348D01*
X7669Y346D01*
X7670Y343D01*
Y343D01*
X7670Y343D01*
X7670Y342D01*
X7671Y340D01*
X7671Y339D01*
X7671Y338D01*
X7671Y334D01*
Y334D01*
Y333D01*
Y332D01*
X7671Y331D01*
X7671Y329D01*
X7671Y328D01*
X7670Y324D01*
Y324D01*
X7670Y324D01*
X7669Y323D01*
X7669Y322D01*
X7668Y320D01*
X7666Y317D01*
X7666Y317D01*
X7666Y317D01*
X7665Y316D01*
X7664Y316D01*
X7662Y314D01*
X7660Y312D01*
X7660D01*
X7659Y312D01*
X7658Y311D01*
X7657Y311D01*
X7656Y310D01*
X7655Y310D01*
X7652Y308D01*
X7652D01*
X7652Y308D01*
X7653Y307D01*
X7655Y306D01*
X7656Y305D01*
X7656D01*
X7657Y305D01*
X7657Y304D01*
X7659Y303D01*
X7660Y301D01*
Y301D01*
X7660Y301D01*
X7661Y300D01*
X7661Y300D01*
X7662Y298D01*
X7663Y296D01*
Y296D01*
X7664Y295D01*
X7664Y295D01*
X7664Y294D01*
X7665Y292D01*
X7667Y289D01*
X7676Y267D01*
Y266D01*
X7676Y266D01*
X7676Y265D01*
X7677Y264D01*
X7677Y263D01*
Y262D01*
X7677Y262D01*
X7677Y261D01*
Y260D01*
X7677Y260D01*
X7677Y259D01*
X7677Y259D01*
X7676Y259D01*
X7676D01*
X7675Y259D01*
X7675D01*
X7674Y258D01*
X7673D01*
X7672Y258D01*
X7668D01*
X7667Y258D01*
X7667D01*
X7666Y259D01*
X7665D01*
X7665Y259D01*
X7665D01*
X7664Y259D01*
X7663Y260D01*
Y260D01*
X7663Y260D01*
X7663Y261D01*
X7653Y285D01*
Y286D01*
X7653Y286D01*
X7653Y287D01*
X7652Y288D01*
X7651Y290D01*
X7650Y293D01*
Y293D01*
X7650Y293D01*
X7649Y294D01*
X7649Y295D01*
X7647Y297D01*
X7646Y299D01*
X7645Y299D01*
X7645Y299D01*
X7645Y300D01*
X7644Y300D01*
X7642Y301D01*
X7640Y303D01*
X7640D01*
X7639Y303D01*
X7639Y303D01*
X7638Y303D01*
X7637Y304D01*
X7635Y304D01*
X7632Y304D01*
X7623D01*
Y261D01*
Y260D01*
X7623Y260D01*
X7622Y259D01*
X7622Y259D01*
X7621Y259D01*
X7621D01*
X7621Y259D01*
X7620D01*
X7619Y259D01*
X7619D01*
X7618Y258D01*
X7618Y258D01*
X7615D01*
X7614Y258D01*
X7613Y259D01*
X7613D01*
X7612Y259D01*
X7611Y259D01*
X7611D01*
X7610Y259D01*
X7610Y260D01*
Y260D01*
Y260D01*
X7610Y261D01*
Y355D01*
Y355D01*
Y356D01*
X7610Y357D01*
X7610Y358D01*
X7611Y359D01*
X7611Y360D01*
X7612Y360D01*
X7613Y361D01*
X7614Y361D01*
X7638D01*
X7641Y361D01*
D02*
G37*
G36*
X7035Y360D02*
X7035D01*
X7035Y360D01*
X7036Y359D01*
Y359D01*
X7036Y359D01*
X7036Y358D01*
X7037Y357D01*
Y357D01*
X7037Y357D01*
Y356D01*
Y355D01*
Y355D01*
Y354D01*
Y353D01*
X7037Y352D01*
Y352D01*
X7036Y352D01*
X7036Y350D01*
X7036Y350D01*
X7035Y349D01*
X7035D01*
X7034Y349D01*
X7005D01*
Y261D01*
Y260D01*
X7005Y260D01*
X7005Y259D01*
X7004Y259D01*
X7004Y259D01*
X7004D01*
X7003Y259D01*
X7003D01*
X7002Y259D01*
X7002D01*
X7001Y258D01*
X7000Y258D01*
X6998D01*
X6996Y258D01*
X6995Y259D01*
X6995D01*
X6995Y259D01*
X6993Y259D01*
X6993D01*
X6993Y259D01*
X6992Y260D01*
Y260D01*
Y260D01*
X6992Y261D01*
Y349D01*
X6963D01*
X6962Y349D01*
X6962Y350D01*
X6961Y350D01*
Y351D01*
X6961Y351D01*
Y351D01*
X6961Y352D01*
Y352D01*
Y353D01*
X6961Y354D01*
Y355D01*
Y355D01*
Y356D01*
Y357D01*
X6961Y357D01*
Y358D01*
X6961Y358D01*
X6961Y359D01*
Y359D01*
X6961Y360D01*
X6962Y360D01*
X6962D01*
X6962Y361D01*
X6963Y361D01*
X7034D01*
X7035Y360D01*
D02*
G37*
G36*
X6957D02*
X6957D01*
X6957Y360D01*
X6957Y359D01*
Y359D01*
X6958Y359D01*
X6958Y358D01*
X6958Y357D01*
Y357D01*
X6958Y357D01*
Y356D01*
Y355D01*
Y355D01*
Y354D01*
Y353D01*
X6958Y352D01*
Y352D01*
X6958Y352D01*
X6957Y350D01*
X6957Y350D01*
X6957Y349D01*
X6956D01*
X6955Y349D01*
X6927D01*
Y261D01*
Y260D01*
X6926Y260D01*
X6926Y259D01*
X6926Y259D01*
X6925Y259D01*
X6925D01*
X6925Y259D01*
X6924D01*
X6923Y259D01*
X6923D01*
X6922Y258D01*
X6921Y258D01*
X6919D01*
X6918Y258D01*
X6917Y259D01*
X6917D01*
X6916Y259D01*
X6915Y259D01*
X6914D01*
X6914Y259D01*
X6914Y260D01*
Y260D01*
Y260D01*
X6913Y261D01*
Y349D01*
X6884D01*
X6883Y349D01*
X6883Y350D01*
X6883Y350D01*
Y351D01*
X6882Y351D01*
Y351D01*
X6882Y352D01*
Y352D01*
Y353D01*
X6882Y354D01*
Y355D01*
Y355D01*
Y356D01*
Y357D01*
X6882Y357D01*
Y358D01*
X6882Y358D01*
X6883Y359D01*
Y359D01*
X6883Y360D01*
X6883Y360D01*
X6884D01*
X6884Y361D01*
X6885Y361D01*
X6956D01*
X6957Y360D01*
D02*
G37*
G36*
X7377Y362D02*
X7380Y362D01*
X7383Y361D01*
X7387Y361D01*
X7390Y360D01*
X7393Y359D01*
X7393D01*
X7393Y359D01*
X7395Y358D01*
X7396Y357D01*
X7398Y356D01*
X7400Y355D01*
X7403Y353D01*
X7405Y351D01*
X7407Y349D01*
X7407Y348D01*
X7408Y348D01*
X7409Y346D01*
X7410Y344D01*
X7411Y342D01*
X7413Y339D01*
X7414Y336D01*
X7415Y333D01*
Y332D01*
X7415Y332D01*
Y332D01*
X7416Y331D01*
X7416Y330D01*
X7416Y329D01*
X7417Y326D01*
X7417Y323D01*
X7418Y319D01*
X7418Y315D01*
X7418Y311D01*
Y311D01*
Y310D01*
Y310D01*
Y309D01*
Y308D01*
X7418Y306D01*
X7418Y303D01*
X7417Y300D01*
X7417Y296D01*
X7416Y292D01*
X7415Y289D01*
Y288D01*
X7415Y288D01*
X7415Y288D01*
X7415Y287D01*
X7414Y285D01*
X7413Y283D01*
X7412Y280D01*
X7410Y277D01*
X7408Y275D01*
X7406Y272D01*
X7406Y271D01*
X7405Y271D01*
X7404Y269D01*
X7402Y268D01*
X7400Y266D01*
X7398Y264D01*
X7395Y263D01*
X7392Y261D01*
X7392D01*
X7391Y261D01*
X7391Y261D01*
X7390Y260D01*
X7388Y260D01*
X7386Y259D01*
X7383Y258D01*
X7380Y258D01*
X7376Y258D01*
X7371Y257D01*
X7369D01*
X7368Y258D01*
X7367D01*
X7365Y258D01*
X7362Y258D01*
X7358Y259D01*
X7355Y260D01*
X7352Y261D01*
X7351Y261D01*
X7350Y261D01*
X7349Y262D01*
X7347Y263D01*
X7344Y265D01*
X7342Y266D01*
X7340Y268D01*
X7338Y271D01*
X7338Y271D01*
X7337Y272D01*
X7336Y273D01*
X7335Y275D01*
X7333Y278D01*
X7332Y280D01*
X7331Y283D01*
X7330Y287D01*
Y287D01*
X7329Y287D01*
Y288D01*
X7329Y289D01*
X7329Y289D01*
X7329Y291D01*
X7328Y293D01*
X7328Y297D01*
X7327Y300D01*
X7327Y305D01*
X7327Y309D01*
Y309D01*
Y310D01*
Y310D01*
Y311D01*
Y312D01*
X7327Y314D01*
X7327Y316D01*
X7328Y320D01*
X7328Y324D01*
X7329Y327D01*
X7330Y331D01*
Y331D01*
X7330Y331D01*
X7330Y332D01*
X7330Y333D01*
X7331Y334D01*
X7332Y337D01*
X7333Y339D01*
X7335Y342D01*
X7336Y345D01*
X7338Y348D01*
X7339Y348D01*
X7340Y349D01*
X7341Y350D01*
X7342Y352D01*
X7345Y353D01*
X7347Y355D01*
X7350Y357D01*
X7353Y358D01*
X7353D01*
X7353Y359D01*
X7354Y359D01*
X7355Y359D01*
X7356Y360D01*
X7359Y360D01*
X7362Y361D01*
X7365Y362D01*
X7369Y362D01*
X7373Y362D01*
X7375D01*
X7377Y362D01*
D02*
G37*
G36*
X7096D02*
X7099Y362D01*
X7102Y361D01*
X7105Y361D01*
X7109Y360D01*
X7112Y359D01*
X7112D01*
X7112Y359D01*
X7113Y358D01*
X7115Y357D01*
X7117Y356D01*
X7119Y355D01*
X7121Y353D01*
X7124Y351D01*
X7126Y349D01*
X7126Y348D01*
X7127Y348D01*
X7128Y346D01*
X7129Y344D01*
X7130Y342D01*
X7132Y339D01*
X7133Y336D01*
X7134Y333D01*
Y332D01*
X7134Y332D01*
Y332D01*
X7135Y331D01*
X7135Y330D01*
X7135Y329D01*
X7136Y326D01*
X7136Y323D01*
X7137Y319D01*
X7137Y315D01*
X7137Y311D01*
Y311D01*
Y310D01*
Y310D01*
Y309D01*
Y308D01*
X7137Y306D01*
X7137Y303D01*
X7136Y300D01*
X7136Y296D01*
X7135Y292D01*
X7134Y289D01*
Y288D01*
X7134Y288D01*
X7134Y288D01*
X7133Y287D01*
X7133Y285D01*
X7132Y283D01*
X7131Y280D01*
X7129Y277D01*
X7127Y275D01*
X7125Y272D01*
X7125Y271D01*
X7124Y271D01*
X7123Y269D01*
X7121Y268D01*
X7119Y266D01*
X7117Y264D01*
X7114Y263D01*
X7111Y261D01*
X7110D01*
X7110Y261D01*
X7110Y261D01*
X7109Y260D01*
X7107Y260D01*
X7105Y259D01*
X7102Y258D01*
X7098Y258D01*
X7094Y258D01*
X7090Y257D01*
X7088D01*
X7087Y258D01*
X7086D01*
X7084Y258D01*
X7080Y258D01*
X7077Y259D01*
X7074Y260D01*
X7070Y261D01*
X7070Y261D01*
X7069Y261D01*
X7067Y262D01*
X7065Y263D01*
X7063Y265D01*
X7061Y266D01*
X7059Y268D01*
X7057Y271D01*
X7056Y271D01*
X7056Y272D01*
X7055Y273D01*
X7053Y275D01*
X7052Y278D01*
X7051Y280D01*
X7049Y283D01*
X7048Y287D01*
Y287D01*
X7048Y287D01*
Y288D01*
X7048Y289D01*
X7048Y289D01*
X7048Y291D01*
X7047Y293D01*
X7047Y297D01*
X7046Y300D01*
X7046Y305D01*
X7046Y309D01*
Y309D01*
Y310D01*
Y310D01*
Y311D01*
Y312D01*
X7046Y314D01*
X7046Y316D01*
X7047Y320D01*
X7047Y324D01*
X7048Y327D01*
X7049Y331D01*
Y331D01*
X7049Y331D01*
X7049Y332D01*
X7049Y333D01*
X7050Y334D01*
X7051Y337D01*
X7052Y339D01*
X7053Y342D01*
X7055Y345D01*
X7057Y348D01*
X7058Y348D01*
X7058Y349D01*
X7060Y350D01*
X7061Y352D01*
X7063Y353D01*
X7066Y355D01*
X7069Y357D01*
X7072Y358D01*
X7072D01*
X7072Y359D01*
X7073Y359D01*
X7074Y359D01*
X7075Y360D01*
X7078Y360D01*
X7081Y361D01*
X7084Y362D01*
X7088Y362D01*
X7092Y362D01*
X7094D01*
X7096Y362D01*
D02*
G37*
G36*
X6832D02*
X6835Y362D01*
X6838Y361D01*
X6842Y361D01*
X6845Y360D01*
X6848Y359D01*
X6848D01*
X6848Y359D01*
X6850Y358D01*
X6851Y357D01*
X6853Y356D01*
X6855Y355D01*
X6858Y353D01*
X6860Y351D01*
X6862Y349D01*
X6862Y348D01*
X6863Y348D01*
X6864Y346D01*
X6865Y344D01*
X6867Y342D01*
X6868Y339D01*
X6869Y336D01*
X6870Y333D01*
Y332D01*
X6871Y332D01*
Y332D01*
X6871Y331D01*
X6871Y330D01*
X6871Y329D01*
X6872Y326D01*
X6872Y323D01*
X6873Y319D01*
X6873Y315D01*
X6873Y311D01*
Y311D01*
Y310D01*
Y310D01*
Y309D01*
Y308D01*
X6873Y306D01*
X6873Y303D01*
X6872Y300D01*
X6872Y296D01*
X6871Y292D01*
X6870Y289D01*
Y288D01*
X6870Y288D01*
X6870Y288D01*
X6870Y287D01*
X6869Y285D01*
X6868Y283D01*
X6867Y280D01*
X6865Y277D01*
X6863Y275D01*
X6861Y272D01*
X6861Y271D01*
X6860Y271D01*
X6859Y269D01*
X6857Y268D01*
X6855Y266D01*
X6853Y264D01*
X6850Y263D01*
X6847Y261D01*
X6847D01*
X6846Y261D01*
X6846Y261D01*
X6845Y260D01*
X6843Y260D01*
X6841Y259D01*
X6838Y258D01*
X6835Y258D01*
X6831Y258D01*
X6826Y257D01*
X6824D01*
X6824Y258D01*
X6822D01*
X6820Y258D01*
X6817Y258D01*
X6813Y259D01*
X6810Y260D01*
X6807Y261D01*
X6806Y261D01*
X6805Y261D01*
X6804Y262D01*
X6802Y263D01*
X6799Y265D01*
X6797Y266D01*
X6795Y268D01*
X6793Y271D01*
X6793Y271D01*
X6792Y272D01*
X6791Y273D01*
X6790Y275D01*
X6788Y278D01*
X6787Y280D01*
X6786Y283D01*
X6785Y287D01*
Y287D01*
X6784Y287D01*
Y288D01*
X6784Y289D01*
X6784Y289D01*
X6784Y291D01*
X6783Y293D01*
X6783Y297D01*
X6782Y300D01*
X6782Y305D01*
X6782Y309D01*
Y309D01*
Y310D01*
Y310D01*
Y311D01*
Y312D01*
X6782Y314D01*
X6782Y316D01*
X6783Y320D01*
X6783Y324D01*
X6784Y327D01*
X6785Y331D01*
Y331D01*
X6785Y331D01*
X6785Y332D01*
X6785Y333D01*
X6786Y334D01*
X6787Y337D01*
X6788Y339D01*
X6790Y342D01*
X6791Y345D01*
X6793Y348D01*
X6794Y348D01*
X6795Y349D01*
X6796Y350D01*
X6797Y352D01*
X6800Y353D01*
X6802Y355D01*
X6805Y357D01*
X6808Y358D01*
X6808D01*
X6808Y359D01*
X6809Y359D01*
X6810Y359D01*
X6812Y360D01*
X6814Y360D01*
X6817Y361D01*
X6820Y362D01*
X6824Y362D01*
X6828Y362D01*
X6830D01*
X6832Y362D01*
D02*
G37*
G36*
X5172Y3920D02*
Y3772D01*
X5153Y3792D01*
Y3775D01*
X5093D01*
X5090Y3775D01*
X5088Y3776D01*
X5085Y3777D01*
X5083Y3778D01*
X5081Y3779D01*
X5080Y3780D01*
X5079Y3780D01*
X5079Y3781D01*
X5077Y3783D01*
X5076Y3785D01*
X5075Y3788D01*
X5074Y3790D01*
X5073Y3792D01*
X5073Y3794D01*
Y3795D01*
Y3795D01*
Y3855D01*
X5073Y3858D01*
X5074Y3860D01*
X5075Y3863D01*
X5076Y3865D01*
X5077Y3866D01*
X5078Y3868D01*
X5079Y3869D01*
X5079Y3869D01*
X5081Y3871D01*
X5084Y3872D01*
X5086Y3873D01*
X5088Y3874D01*
X5090Y3874D01*
X5092Y3875D01*
X5139D01*
X5153Y3860D01*
Y3940D01*
X5172Y3920D01*
D02*
G37*
G36*
X4630D02*
Y3775D01*
X4610D01*
Y3858D01*
X4551D01*
Y3775D01*
X4531D01*
Y3855D01*
X4531Y3858D01*
X4532Y3860D01*
X4532Y3863D01*
X4533Y3865D01*
X4535Y3866D01*
X4535Y3868D01*
X4536Y3869D01*
X4536Y3869D01*
X4539Y3871D01*
X4541Y3872D01*
X4543Y3873D01*
X4546Y3874D01*
X4548Y3874D01*
X4549Y3875D01*
X4596D01*
X4610Y3860D01*
Y3940D01*
X4630Y3920D01*
D02*
G37*
G36*
X4491Y3775D02*
X4471D01*
Y3858D01*
X4411D01*
Y3775D01*
X4391D01*
Y3855D01*
X4392Y3858D01*
X4392Y3860D01*
X4393Y3863D01*
X4394Y3865D01*
X4395Y3866D01*
X4396Y3868D01*
X4397Y3869D01*
X4397Y3869D01*
X4399Y3871D01*
X4402Y3872D01*
X4404Y3873D01*
X4406Y3874D01*
X4408Y3874D01*
X4410Y3875D01*
X4457D01*
X4471Y3860D01*
Y3875D01*
X4491D01*
Y3775D01*
D02*
G37*
G36*
X3368D02*
X3348D01*
Y3858D01*
X3294D01*
Y3775D01*
X3274D01*
Y3858D01*
X3220D01*
Y3775D01*
X3201D01*
Y3855D01*
X3201Y3858D01*
X3202Y3860D01*
X3202Y3863D01*
X3203Y3865D01*
X3205Y3866D01*
X3205Y3868D01*
X3206Y3869D01*
X3206Y3869D01*
X3209Y3871D01*
X3211Y3872D01*
X3213Y3873D01*
X3216Y3874D01*
X3218Y3874D01*
X3219Y3875D01*
X3260D01*
X3275Y3860D01*
X3275Y3863D01*
X3276Y3865D01*
X3277Y3867D01*
X3279Y3869D01*
X3280Y3870D01*
X3282Y3871D01*
X3285Y3873D01*
X3289Y3874D01*
X3291Y3874D01*
X3293Y3875D01*
X3334D01*
X3348Y3860D01*
Y3875D01*
X3368D01*
Y3775D01*
D02*
G37*
G36*
X3022D02*
X3002D01*
Y3858D01*
X2942D01*
Y3775D01*
X2922D01*
Y3855D01*
X2923Y3858D01*
X2923Y3860D01*
X2924Y3863D01*
X2925Y3865D01*
X2927Y3866D01*
X2927Y3868D01*
X2928Y3869D01*
X2928Y3869D01*
X2931Y3871D01*
X2933Y3872D01*
X2935Y3873D01*
X2938Y3874D01*
X2940Y3874D01*
X2941Y3875D01*
X2988D01*
X3002Y3860D01*
Y3875D01*
X3022D01*
Y3775D01*
D02*
G37*
G36*
X2679D02*
X2659D01*
Y3858D01*
X2619D01*
Y3835D01*
X2599D01*
Y3855D01*
X2599Y3858D01*
X2600Y3860D01*
X2601Y3863D01*
X2602Y3865D01*
X2603Y3866D01*
X2604Y3868D01*
X2605Y3869D01*
X2605Y3869D01*
X2607Y3871D01*
X2609Y3872D01*
X2612Y3873D01*
X2614Y3874D01*
X2616Y3874D01*
X2618Y3875D01*
X2644D01*
X2659Y3860D01*
Y3875D01*
X2679D01*
Y3775D01*
D02*
G37*
G36*
X2200D02*
X2180D01*
Y3858D01*
X2141D01*
Y3835D01*
X2121D01*
Y3855D01*
X2121Y3858D01*
X2122Y3860D01*
X2122Y3863D01*
X2123Y3865D01*
X2125Y3866D01*
X2126Y3868D01*
X2126Y3869D01*
X2127Y3869D01*
X2129Y3871D01*
X2131Y3872D01*
X2133Y3873D01*
X2136Y3874D01*
X2138Y3874D01*
X2139Y3875D01*
X2166D01*
X2180Y3860D01*
Y3875D01*
X2200D01*
Y3775D01*
D02*
G37*
G36*
X5475D02*
X5452D01*
Y3835D01*
X5379D01*
Y3775D01*
X5356D01*
Y3914D01*
X5379D01*
Y3855D01*
X5435D01*
X5452Y3838D01*
Y3914D01*
X5475D01*
Y3775D01*
D02*
G37*
G36*
X3989Y3874D02*
X3991Y3874D01*
X3994Y3873D01*
X3996Y3872D01*
X3997Y3871D01*
X3999Y3870D01*
X4000Y3869D01*
X4000Y3869D01*
X4002Y3866D01*
X4003Y3864D01*
X4004Y3862D01*
X4005Y3860D01*
X4005Y3858D01*
X4005Y3856D01*
Y3855D01*
Y3855D01*
Y3795D01*
X4005Y3792D01*
X4005Y3789D01*
X4004Y3787D01*
X4003Y3785D01*
X4002Y3783D01*
X4001Y3782D01*
X4000Y3781D01*
X4000Y3781D01*
X3997Y3779D01*
X3995Y3777D01*
X3993Y3776D01*
X3991Y3776D01*
X3989Y3775D01*
X3987Y3775D01*
X3943D01*
X3926Y3789D01*
Y3733D01*
X3991D01*
X4008Y3715D01*
X3926D01*
X3923Y3716D01*
X3920Y3716D01*
X3918Y3717D01*
X3916Y3719D01*
X3914Y3720D01*
X3913Y3720D01*
X3912Y3721D01*
X3912Y3721D01*
X3910Y3724D01*
X3909Y3726D01*
X3908Y3728D01*
X3907Y3730D01*
X3906Y3733D01*
X3906Y3734D01*
Y3735D01*
Y3735D01*
Y3849D01*
X3926D01*
Y3792D01*
X3986D01*
Y3858D01*
X3915D01*
X3898Y3875D01*
X3986D01*
X3989Y3874D01*
D02*
G37*
G36*
X3865Y3795D02*
X3865Y3792D01*
X3864Y3789D01*
X3863Y3787D01*
X3862Y3785D01*
X3861Y3783D01*
X3860Y3782D01*
X3859Y3781D01*
X3859Y3781D01*
X3857Y3779D01*
X3855Y3777D01*
X3852Y3776D01*
X3850Y3776D01*
X3848Y3775D01*
X3846Y3775D01*
X3800D01*
X3785Y3789D01*
Y3733D01*
X3851D01*
X3868Y3715D01*
X3785D01*
X3782Y3716D01*
X3780Y3716D01*
X3778Y3717D01*
X3775Y3719D01*
X3774Y3720D01*
X3772Y3720D01*
X3772Y3721D01*
X3771Y3721D01*
X3769Y3724D01*
X3768Y3726D01*
X3767Y3728D01*
X3766Y3730D01*
X3766Y3733D01*
X3766Y3734D01*
Y3735D01*
Y3735D01*
Y3875D01*
X3785D01*
Y3792D01*
X3845D01*
Y3875D01*
X3865D01*
Y3795D01*
D02*
G37*
G36*
X5315Y3858D02*
X5235D01*
Y3792D01*
X5295D01*
Y3818D01*
X5255D01*
X5238Y3835D01*
X5295D01*
X5298Y3835D01*
X5301Y3834D01*
X5303Y3833D01*
X5305Y3832D01*
X5307Y3831D01*
X5308Y3830D01*
X5309Y3829D01*
X5309Y3829D01*
X5311Y3827D01*
X5312Y3824D01*
X5313Y3822D01*
X5314Y3820D01*
X5314Y3818D01*
X5315Y3816D01*
Y3815D01*
Y3815D01*
Y3795D01*
X5314Y3792D01*
X5314Y3789D01*
X5313Y3787D01*
X5312Y3785D01*
X5311Y3783D01*
X5310Y3782D01*
X5309Y3781D01*
X5309Y3781D01*
X5307Y3779D01*
X5304Y3777D01*
X5302Y3776D01*
X5299Y3776D01*
X5298Y3775D01*
X5296Y3775D01*
X5252D01*
X5235Y3789D01*
Y3775D01*
X5215D01*
Y3855D01*
X5216Y3858D01*
X5216Y3860D01*
X5217Y3863D01*
X5218Y3865D01*
X5219Y3866D01*
X5220Y3868D01*
X5221Y3869D01*
X5221Y3869D01*
X5223Y3871D01*
X5226Y3872D01*
X5228Y3873D01*
X5230Y3874D01*
X5232Y3874D01*
X5234Y3875D01*
X5297D01*
X5315Y3858D01*
D02*
G37*
G36*
X4995Y3895D02*
X4954D01*
Y3775D01*
X4931D01*
Y3895D01*
X4890D01*
Y3914D01*
X4995D01*
Y3895D01*
D02*
G37*
G36*
X4852Y3874D02*
X4854Y3874D01*
X4857Y3873D01*
X4859Y3872D01*
X4860Y3871D01*
X4862Y3870D01*
X4863Y3869D01*
X4863Y3869D01*
X4865Y3866D01*
X4866Y3864D01*
X4867Y3862D01*
X4868Y3860D01*
X4868Y3858D01*
X4869Y3856D01*
Y3855D01*
Y3855D01*
Y3795D01*
X4868Y3792D01*
X4868Y3789D01*
X4867Y3787D01*
X4866Y3785D01*
X4865Y3783D01*
X4864Y3782D01*
X4863Y3781D01*
X4863Y3781D01*
X4860Y3779D01*
X4858Y3777D01*
X4856Y3776D01*
X4854Y3776D01*
X4852Y3775D01*
X4850Y3775D01*
X4769D01*
Y3792D01*
X4849D01*
Y3858D01*
X4789D01*
Y3832D01*
X4829D01*
X4846Y3815D01*
X4789D01*
X4769Y3835D01*
Y3855D01*
X4769Y3858D01*
X4770Y3860D01*
X4771Y3863D01*
X4772Y3865D01*
X4773Y3866D01*
X4774Y3868D01*
X4775Y3869D01*
X4775Y3869D01*
X4777Y3871D01*
X4780Y3872D01*
X4782Y3873D01*
X4784Y3874D01*
X4786Y3874D01*
X4788Y3875D01*
X4849D01*
X4852Y3874D01*
D02*
G37*
G36*
X4721D02*
X4724Y3874D01*
X4726Y3873D01*
X4728Y3872D01*
X4730Y3871D01*
X4731Y3870D01*
X4732Y3869D01*
X4732Y3869D01*
X4734Y3866D01*
X4735Y3864D01*
X4736Y3862D01*
X4737Y3860D01*
X4738Y3858D01*
X4738Y3856D01*
Y3855D01*
Y3855D01*
Y3795D01*
X4738Y3792D01*
X4737Y3789D01*
X4736Y3787D01*
X4735Y3785D01*
X4734Y3783D01*
X4733Y3782D01*
X4732Y3781D01*
X4732Y3781D01*
X4730Y3779D01*
X4728Y3777D01*
X4725Y3776D01*
X4723Y3776D01*
X4721Y3775D01*
X4719Y3775D01*
X4658D01*
Y3792D01*
X4718D01*
Y3858D01*
X4670D01*
X4653Y3875D01*
X4718D01*
X4721Y3874D01*
D02*
G37*
G36*
X4335D02*
X4338Y3874D01*
X4340Y3873D01*
X4342Y3872D01*
X4344Y3871D01*
X4345Y3870D01*
X4346Y3869D01*
X4346Y3869D01*
X4348Y3866D01*
X4349Y3864D01*
X4350Y3862D01*
X4351Y3860D01*
X4352Y3858D01*
X4352Y3856D01*
Y3855D01*
Y3855D01*
Y3795D01*
X4352Y3792D01*
X4351Y3789D01*
X4350Y3787D01*
X4349Y3785D01*
X4348Y3783D01*
X4347Y3782D01*
X4346Y3781D01*
X4346Y3781D01*
X4344Y3779D01*
X4341Y3777D01*
X4339Y3776D01*
X4337Y3776D01*
X4335Y3775D01*
X4333Y3775D01*
X4272D01*
X4269Y3775D01*
X4267Y3776D01*
X4264Y3777D01*
X4262Y3778D01*
X4260Y3779D01*
X4259Y3780D01*
X4258Y3780D01*
X4258Y3781D01*
X4256Y3783D01*
X4255Y3785D01*
X4254Y3788D01*
X4253Y3790D01*
X4253Y3792D01*
X4252Y3794D01*
Y3795D01*
Y3795D01*
Y3855D01*
X4253Y3858D01*
X4253Y3860D01*
X4254Y3863D01*
X4255Y3865D01*
X4256Y3866D01*
X4257Y3868D01*
X4258Y3869D01*
X4258Y3869D01*
X4260Y3871D01*
X4263Y3872D01*
X4265Y3873D01*
X4267Y3874D01*
X4269Y3874D01*
X4271Y3875D01*
X4332D01*
X4335Y3874D01*
D02*
G37*
G36*
X4210Y3920D02*
Y3775D01*
X4190D01*
Y3940D01*
X4210Y3920D01*
D02*
G37*
G36*
X4131Y3874D02*
X4133Y3874D01*
X4135Y3873D01*
X4138Y3872D01*
X4139Y3871D01*
X4141Y3870D01*
X4141Y3869D01*
X4142Y3869D01*
X4144Y3866D01*
X4145Y3864D01*
X4146Y3862D01*
X4147Y3860D01*
X4147Y3858D01*
X4147Y3856D01*
Y3855D01*
Y3855D01*
Y3795D01*
X4147Y3792D01*
X4146Y3789D01*
X4146Y3787D01*
X4144Y3785D01*
X4143Y3783D01*
X4143Y3782D01*
X4142Y3781D01*
X4142Y3781D01*
X4139Y3779D01*
X4137Y3777D01*
X4134Y3776D01*
X4132Y3776D01*
X4130Y3775D01*
X4129Y3775D01*
X4068D01*
X4065Y3775D01*
X4062Y3776D01*
X4060Y3777D01*
X4058Y3778D01*
X4056Y3779D01*
X4055Y3780D01*
X4054Y3780D01*
X4054Y3781D01*
X4052Y3783D01*
X4051Y3785D01*
X4050Y3788D01*
X4049Y3790D01*
X4048Y3792D01*
X4048Y3794D01*
Y3795D01*
Y3795D01*
Y3855D01*
X4048Y3858D01*
X4049Y3860D01*
X4050Y3863D01*
X4051Y3865D01*
X4052Y3866D01*
X4053Y3868D01*
X4054Y3869D01*
X4054Y3869D01*
X4056Y3871D01*
X4058Y3872D01*
X4061Y3873D01*
X4063Y3874D01*
X4065Y3874D01*
X4067Y3875D01*
X4128D01*
X4131Y3874D01*
D02*
G37*
G36*
X3662Y3895D02*
X3642D01*
X3662Y3875D01*
Y3775D01*
X3563D01*
X3560Y3775D01*
X3557Y3776D01*
X3555Y3777D01*
X3553Y3778D01*
X3551Y3779D01*
X3550Y3780D01*
X3549Y3781D01*
X3549Y3781D01*
X3547Y3783D01*
X3545Y3786D01*
X3544Y3788D01*
X3543Y3790D01*
X3543Y3792D01*
X3543Y3794D01*
Y3795D01*
Y3795D01*
Y3895D01*
X3543Y3897D01*
X3544Y3900D01*
X3545Y3902D01*
X3546Y3904D01*
X3547Y3906D01*
X3548Y3907D01*
X3548Y3908D01*
X3549Y3908D01*
X3551Y3910D01*
X3553Y3912D01*
X3556Y3913D01*
X3558Y3914D01*
X3560Y3914D01*
X3561Y3914D01*
X3662D01*
Y3895D01*
D02*
G37*
G36*
X3482Y3874D02*
X3484Y3874D01*
X3487Y3873D01*
X3489Y3872D01*
X3491Y3871D01*
X3492Y3870D01*
X3493Y3869D01*
X3493Y3869D01*
X3495Y3866D01*
X3496Y3864D01*
X3497Y3862D01*
X3498Y3860D01*
X3498Y3858D01*
X3499Y3856D01*
Y3855D01*
Y3855D01*
Y3795D01*
X3498Y3792D01*
X3498Y3789D01*
X3497Y3787D01*
X3496Y3785D01*
X3495Y3783D01*
X3494Y3782D01*
X3493Y3781D01*
X3493Y3781D01*
X3491Y3779D01*
X3488Y3777D01*
X3486Y3776D01*
X3484Y3776D01*
X3482Y3775D01*
X3480Y3775D01*
X3399D01*
Y3792D01*
X3479D01*
Y3858D01*
X3419D01*
Y3832D01*
X3459D01*
X3476Y3815D01*
X3419D01*
X3399Y3835D01*
Y3855D01*
X3400Y3858D01*
X3400Y3860D01*
X3401Y3863D01*
X3402Y3865D01*
X3403Y3866D01*
X3404Y3868D01*
X3405Y3869D01*
X3405Y3869D01*
X3407Y3871D01*
X3410Y3872D01*
X3412Y3873D01*
X3414Y3874D01*
X3416Y3874D01*
X3418Y3875D01*
X3479D01*
X3482Y3874D01*
D02*
G37*
G36*
X3144D02*
X3147Y3874D01*
X3149Y3873D01*
X3151Y3872D01*
X3153Y3871D01*
X3154Y3870D01*
X3155Y3869D01*
X3155Y3869D01*
X3157Y3866D01*
X3158Y3864D01*
X3159Y3862D01*
X3160Y3860D01*
X3161Y3858D01*
X3161Y3856D01*
Y3855D01*
Y3855D01*
Y3795D01*
X3161Y3792D01*
X3160Y3789D01*
X3159Y3787D01*
X3158Y3785D01*
X3157Y3783D01*
X3156Y3782D01*
X3155Y3781D01*
X3155Y3781D01*
X3153Y3779D01*
X3151Y3777D01*
X3148Y3776D01*
X3146Y3776D01*
X3144Y3775D01*
X3142Y3775D01*
X3081D01*
X3078Y3775D01*
X3076Y3776D01*
X3073Y3777D01*
X3071Y3778D01*
X3070Y3779D01*
X3068Y3780D01*
X3068Y3780D01*
X3067Y3781D01*
X3065Y3783D01*
X3064Y3785D01*
X3063Y3788D01*
X3062Y3790D01*
X3062Y3792D01*
X3061Y3794D01*
Y3795D01*
Y3795D01*
Y3855D01*
X3062Y3858D01*
X3063Y3860D01*
X3063Y3863D01*
X3064Y3865D01*
X3066Y3866D01*
X3066Y3868D01*
X3067Y3869D01*
X3067Y3869D01*
X3070Y3871D01*
X3072Y3872D01*
X3074Y3873D01*
X3077Y3874D01*
X3079Y3874D01*
X3080Y3875D01*
X3141D01*
X3144Y3874D01*
D02*
G37*
G36*
X2870D02*
X2873Y3874D01*
X2875Y3873D01*
X2877Y3872D01*
X2879Y3871D01*
X2880Y3870D01*
X2881Y3869D01*
X2881Y3869D01*
X2883Y3866D01*
X2885Y3864D01*
X2886Y3862D01*
X2886Y3860D01*
X2887Y3858D01*
X2887Y3856D01*
Y3855D01*
Y3855D01*
Y3838D01*
X2887Y3835D01*
X2886Y3832D01*
X2885Y3829D01*
X2884Y3827D01*
X2883Y3826D01*
X2882Y3824D01*
X2882Y3824D01*
X2881Y3823D01*
X2879Y3822D01*
X2877Y3820D01*
X2874Y3819D01*
X2872Y3819D01*
X2870Y3818D01*
X2868Y3818D01*
X2828D01*
Y3792D01*
X2887D01*
Y3775D01*
X2828D01*
X2825Y3775D01*
X2822Y3776D01*
X2819Y3777D01*
X2817Y3778D01*
X2816Y3779D01*
X2815Y3780D01*
X2814Y3780D01*
X2814Y3781D01*
X2812Y3783D01*
X2810Y3785D01*
X2809Y3788D01*
X2808Y3790D01*
X2808Y3792D01*
X2808Y3794D01*
Y3795D01*
Y3795D01*
Y3815D01*
X2808Y3818D01*
X2809Y3821D01*
X2809Y3823D01*
X2810Y3825D01*
X2812Y3827D01*
X2813Y3828D01*
X2813Y3829D01*
X2814Y3829D01*
X2816Y3831D01*
X2818Y3832D01*
X2820Y3833D01*
X2823Y3834D01*
X2825Y3835D01*
X2826Y3835D01*
X2867D01*
Y3858D01*
X2819D01*
X2802Y3875D01*
X2867D01*
X2870Y3874D01*
D02*
G37*
G36*
X2766Y3895D02*
Y3875D01*
X2778D01*
X2795Y3858D01*
X2766D01*
Y3795D01*
X2766Y3792D01*
X2766Y3789D01*
X2765Y3787D01*
X2764Y3785D01*
X2763Y3783D01*
X2762Y3782D01*
X2761Y3781D01*
X2761Y3781D01*
X2758Y3779D01*
X2756Y3777D01*
X2754Y3776D01*
X2751Y3776D01*
X2750Y3775D01*
X2748Y3775D01*
X2707D01*
Y3792D01*
X2746D01*
Y3858D01*
X2707D01*
Y3875D01*
X2746D01*
Y3914D01*
X2766Y3895D01*
D02*
G37*
G36*
X2572Y3858D02*
X2493D01*
Y3792D01*
X2552D01*
Y3818D01*
X2513D01*
X2495Y3835D01*
X2552D01*
X2555Y3835D01*
X2558Y3834D01*
X2560Y3833D01*
X2562Y3832D01*
X2564Y3831D01*
X2565Y3830D01*
X2566Y3829D01*
X2566Y3829D01*
X2568Y3827D01*
X2570Y3824D01*
X2571Y3822D01*
X2571Y3820D01*
X2572Y3818D01*
X2572Y3816D01*
Y3815D01*
Y3815D01*
Y3795D01*
X2572Y3792D01*
X2571Y3789D01*
X2570Y3787D01*
X2569Y3785D01*
X2568Y3783D01*
X2567Y3782D01*
X2567Y3781D01*
X2566Y3781D01*
X2564Y3779D01*
X2562Y3777D01*
X2559Y3776D01*
X2557Y3776D01*
X2555Y3775D01*
X2553Y3775D01*
X2509D01*
X2493Y3789D01*
Y3775D01*
X2473D01*
Y3855D01*
X2473Y3858D01*
X2474Y3860D01*
X2475Y3863D01*
X2476Y3865D01*
X2477Y3866D01*
X2478Y3868D01*
X2478Y3869D01*
X2479Y3869D01*
X2481Y3871D01*
X2483Y3872D01*
X2485Y3873D01*
X2488Y3874D01*
X2490Y3874D01*
X2491Y3875D01*
X2555D01*
X2572Y3858D01*
D02*
G37*
G36*
X2427Y3895D02*
Y3875D01*
X2439D01*
X2455Y3858D01*
X2427D01*
Y3795D01*
X2427Y3792D01*
X2426Y3789D01*
X2425Y3787D01*
X2424Y3785D01*
X2423Y3783D01*
X2422Y3782D01*
X2422Y3781D01*
X2421Y3781D01*
X2419Y3779D01*
X2417Y3777D01*
X2414Y3776D01*
X2412Y3776D01*
X2410Y3775D01*
X2408Y3775D01*
X2368D01*
Y3792D01*
X2407D01*
Y3858D01*
X2368D01*
Y3875D01*
X2407D01*
Y3914D01*
X2427Y3895D01*
D02*
G37*
G36*
X2322Y3874D02*
X2325Y3874D01*
X2327Y3873D01*
X2329Y3872D01*
X2331Y3871D01*
X2332Y3870D01*
X2333Y3869D01*
X2333Y3869D01*
X2335Y3866D01*
X2337Y3864D01*
X2338Y3862D01*
X2339Y3860D01*
X2339Y3858D01*
X2339Y3856D01*
Y3855D01*
Y3855D01*
Y3795D01*
X2339Y3792D01*
X2338Y3789D01*
X2338Y3787D01*
X2336Y3785D01*
X2335Y3783D01*
X2334Y3782D01*
X2334Y3781D01*
X2333Y3781D01*
X2331Y3779D01*
X2329Y3777D01*
X2326Y3776D01*
X2324Y3776D01*
X2322Y3775D01*
X2321Y3775D01*
X2260D01*
X2257Y3775D01*
X2254Y3776D01*
X2252Y3777D01*
X2250Y3778D01*
X2248Y3779D01*
X2247Y3780D01*
X2246Y3780D01*
X2246Y3781D01*
X2244Y3783D01*
X2242Y3785D01*
X2241Y3788D01*
X2241Y3790D01*
X2240Y3792D01*
X2240Y3794D01*
Y3795D01*
Y3795D01*
Y3855D01*
X2240Y3858D01*
X2241Y3860D01*
X2242Y3863D01*
X2243Y3865D01*
X2244Y3866D01*
X2245Y3868D01*
X2245Y3869D01*
X2246Y3869D01*
X2248Y3871D01*
X2250Y3872D01*
X2253Y3873D01*
X2255Y3874D01*
X2257Y3874D01*
X2258Y3875D01*
X2319D01*
X2322Y3874D01*
D02*
G37*
G36*
X1115Y3406D02*
X1115Y3404D01*
X1115Y3403D01*
X1116Y3401D01*
X1116Y3400D01*
X1116Y3399D01*
X1116Y3398D01*
X1116Y3397D01*
X1117Y3396D01*
Y3395D01*
X1117Y3395D01*
Y3395D01*
X1117Y3393D01*
X1117Y3392D01*
X1117Y3391D01*
Y3390D01*
X1117Y3390D01*
Y3389D01*
Y3389D01*
X1117Y3387D01*
X1117Y3385D01*
X1117Y3383D01*
X1116Y3381D01*
X1116Y3380D01*
X1115Y3378D01*
X1114Y3376D01*
X1113Y3375D01*
X1113Y3374D01*
X1112Y3373D01*
X1111Y3372D01*
X1110Y3371D01*
X1110Y3371D01*
X1109Y3370D01*
X1109Y3370D01*
X1109Y3370D01*
X1107Y3369D01*
X1105Y3367D01*
X1104Y3366D01*
X1102Y3365D01*
X1100Y3365D01*
X1097Y3364D01*
X1094Y3363D01*
X1092Y3363D01*
X1090Y3363D01*
X1088Y3363D01*
X1087Y3362D01*
X1086Y3362D01*
X1084D01*
X1080Y3363D01*
X1077Y3363D01*
X1075Y3363D01*
X1073Y3363D01*
X1072Y3364D01*
X1070Y3364D01*
X1069Y3365D01*
X1067Y3365D01*
X1066Y3366D01*
X1065Y3366D01*
X1064Y3366D01*
X1063Y3367D01*
X1063Y3367D01*
X1063Y3367D01*
X1063D01*
X1059Y3369D01*
X1057Y3371D01*
X1054Y3373D01*
X1053Y3375D01*
X1051Y3377D01*
X1050Y3378D01*
X1050Y3379D01*
X1050Y3379D01*
X1049Y3380D01*
Y3380D01*
X1049Y3381D01*
X1048Y3383D01*
X1046Y3387D01*
X1045Y3390D01*
X1044Y3394D01*
X1044Y3396D01*
X1043Y3397D01*
X1043Y3399D01*
X1042Y3400D01*
X1042Y3401D01*
X1042Y3402D01*
X1042Y3402D01*
Y3402D01*
X1031Y3452D01*
X1049D01*
X1060Y3404D01*
X1060Y3402D01*
X1060Y3400D01*
X1061Y3398D01*
X1062Y3396D01*
X1062Y3395D01*
X1062Y3393D01*
X1063Y3392D01*
X1063Y3391D01*
X1063Y3390D01*
X1064Y3389D01*
X1064Y3389D01*
X1064Y3388D01*
X1065Y3387D01*
X1065Y3387D01*
X1066Y3386D01*
X1067Y3384D01*
X1068Y3383D01*
X1069Y3382D01*
X1070Y3381D01*
X1071Y3380D01*
X1072Y3380D01*
X1072Y3380D01*
X1074Y3379D01*
X1076Y3378D01*
X1078Y3378D01*
X1079Y3378D01*
X1081Y3378D01*
X1083Y3377D01*
X1084D01*
X1087Y3378D01*
X1089Y3378D01*
X1091Y3378D01*
X1093Y3379D01*
X1094Y3380D01*
X1095Y3380D01*
X1096Y3380D01*
X1096Y3381D01*
X1097Y3382D01*
X1098Y3383D01*
X1099Y3384D01*
X1099Y3386D01*
X1100Y3387D01*
X1100Y3388D01*
X1100Y3388D01*
Y3389D01*
X1100Y3390D01*
X1100Y3391D01*
X1099Y3392D01*
Y3392D01*
Y3392D01*
X1097Y3404D01*
X1086Y3452D01*
X1104D01*
X1115Y3406D01*
D02*
G37*
G36*
X950D02*
X951Y3404D01*
X951Y3403D01*
X951Y3401D01*
X951Y3400D01*
X952Y3399D01*
X952Y3398D01*
X952Y3397D01*
X952Y3396D01*
Y3395D01*
X952Y3395D01*
Y3395D01*
X953Y3393D01*
X953Y3392D01*
X953Y3391D01*
Y3390D01*
X953Y3390D01*
Y3389D01*
Y3389D01*
X953Y3387D01*
X953Y3385D01*
X952Y3383D01*
X952Y3381D01*
X951Y3380D01*
X950Y3378D01*
X950Y3376D01*
X949Y3375D01*
X948Y3374D01*
X947Y3373D01*
X947Y3372D01*
X946Y3371D01*
X945Y3371D01*
X945Y3370D01*
X945Y3370D01*
X945Y3370D01*
X943Y3369D01*
X941Y3367D01*
X939Y3366D01*
X937Y3365D01*
X935Y3365D01*
X933Y3364D01*
X929Y3363D01*
X927Y3363D01*
X926Y3363D01*
X924Y3363D01*
X923Y3362D01*
X922Y3362D01*
X920D01*
X915Y3363D01*
X913Y3363D01*
X911Y3363D01*
X909Y3363D01*
X907Y3364D01*
X906Y3364D01*
X904Y3365D01*
X903Y3365D01*
X902Y3366D01*
X901Y3366D01*
X900Y3366D01*
X899Y3367D01*
X899Y3367D01*
X898Y3367D01*
X898D01*
X895Y3369D01*
X892Y3371D01*
X890Y3373D01*
X888Y3375D01*
X887Y3377D01*
X886Y3378D01*
X886Y3379D01*
X885Y3379D01*
X885Y3380D01*
Y3380D01*
X884Y3381D01*
X884Y3383D01*
X882Y3387D01*
X881Y3390D01*
X880Y3394D01*
X879Y3396D01*
X879Y3397D01*
X878Y3399D01*
X878Y3400D01*
X878Y3401D01*
X878Y3402D01*
X878Y3402D01*
Y3402D01*
X867Y3452D01*
X885D01*
X895Y3404D01*
X896Y3402D01*
X896Y3400D01*
X897Y3398D01*
X897Y3396D01*
X898Y3395D01*
X898Y3393D01*
X898Y3392D01*
X899Y3391D01*
X899Y3390D01*
X899Y3389D01*
X900Y3389D01*
X900Y3388D01*
X900Y3387D01*
X900Y3387D01*
X901Y3386D01*
X903Y3384D01*
X904Y3383D01*
X905Y3382D01*
X906Y3381D01*
X907Y3380D01*
X907Y3380D01*
X908Y3380D01*
X909Y3379D01*
X911Y3378D01*
X913Y3378D01*
X915Y3378D01*
X917Y3378D01*
X918Y3377D01*
X919D01*
X922Y3378D01*
X925Y3378D01*
X927Y3378D01*
X928Y3379D01*
X930Y3380D01*
X931Y3380D01*
X931Y3380D01*
X931Y3381D01*
X933Y3382D01*
X934Y3383D01*
X935Y3384D01*
X935Y3386D01*
X935Y3387D01*
X935Y3388D01*
X936Y3388D01*
Y3389D01*
X935Y3390D01*
X935Y3391D01*
X935Y3392D01*
Y3392D01*
Y3392D01*
X932Y3404D01*
X922Y3452D01*
X940D01*
X950Y3406D01*
D02*
G37*
G36*
X1199Y3364D02*
X1181D01*
X1173Y3401D01*
X1130D01*
X1127Y3416D01*
X1170D01*
X1166Y3437D01*
X1122D01*
X1119Y3452D01*
X1181D01*
X1199Y3364D01*
D02*
G37*
G36*
X1025Y3437D02*
X999D01*
X1014Y3364D01*
X996D01*
X981Y3437D01*
X955D01*
X952Y3452D01*
X1022D01*
X1025Y3437D01*
D02*
G37*
G36*
X870Y3364D02*
X852D01*
X844Y3400D01*
X837D01*
X835Y3400D01*
X833Y3400D01*
X831Y3400D01*
X830Y3400D01*
X829Y3399D01*
X828Y3399D01*
X828Y3399D01*
X828Y3399D01*
X827Y3398D01*
X826Y3397D01*
X825Y3396D01*
X823Y3394D01*
X822Y3392D01*
X821Y3390D01*
X821Y3389D01*
X820Y3388D01*
X820Y3388D01*
X820Y3387D01*
Y3387D01*
X819Y3384D01*
X817Y3382D01*
X816Y3379D01*
X816Y3377D01*
X815Y3375D01*
X814Y3373D01*
X813Y3371D01*
X813Y3370D01*
X812Y3368D01*
X812Y3367D01*
X811Y3366D01*
X811Y3365D01*
X811Y3365D01*
X811Y3364D01*
X811Y3364D01*
Y3364D01*
X791D01*
X792Y3367D01*
X794Y3371D01*
X795Y3374D01*
X796Y3376D01*
X798Y3379D01*
X799Y3382D01*
X800Y3384D01*
X801Y3386D01*
X802Y3387D01*
X802Y3389D01*
X803Y3390D01*
X804Y3391D01*
X804Y3392D01*
X804Y3393D01*
X805Y3393D01*
X805Y3393D01*
X806Y3395D01*
X807Y3397D01*
X808Y3398D01*
X809Y3399D01*
X810Y3400D01*
X811Y3401D01*
X811Y3401D01*
X811Y3401D01*
X809Y3402D01*
X806Y3402D01*
X804Y3403D01*
X802Y3403D01*
X800Y3404D01*
X799Y3405D01*
X797Y3406D01*
X796Y3407D01*
X795Y3407D01*
X794Y3408D01*
X793Y3409D01*
X792Y3409D01*
X792Y3410D01*
X791Y3410D01*
X791Y3410D01*
X791Y3410D01*
X790Y3412D01*
X789Y3413D01*
X788Y3415D01*
X787Y3416D01*
X786Y3420D01*
X785Y3422D01*
X785Y3424D01*
X784Y3425D01*
X784Y3426D01*
X784Y3427D01*
X784Y3428D01*
Y3428D01*
Y3429D01*
Y3429D01*
X784Y3432D01*
X785Y3434D01*
X785Y3437D01*
X786Y3439D01*
X786Y3440D01*
X787Y3441D01*
X788Y3442D01*
X788Y3442D01*
X789Y3444D01*
X790Y3446D01*
X792Y3447D01*
X794Y3448D01*
X795Y3449D01*
X796Y3450D01*
X796Y3450D01*
X797Y3450D01*
X797D01*
X799Y3451D01*
X802Y3451D01*
X804Y3452D01*
X807Y3452D01*
X809Y3452D01*
X810Y3452D01*
X851D01*
X870Y3364D01*
D02*
G37*
G36*
X781D02*
X712D01*
X709Y3379D01*
X761D01*
X755Y3403D01*
X709D01*
X706Y3418D01*
X752D01*
X748Y3437D01*
X700D01*
X697Y3452D01*
X763D01*
X781Y3364D01*
D02*
G37*
G36*
X4788Y3017D02*
X4791Y3016D01*
X4794Y3016D01*
X4796Y3015D01*
X4799Y3015D01*
X4801Y3014D01*
X4803Y3014D01*
X4805Y3013D01*
X4806Y3012D01*
X4808Y3011D01*
X4809Y3011D01*
X4810Y3010D01*
X4811Y3010D01*
X4812Y3009D01*
X4812Y3009D01*
X4812Y3009D01*
X4814Y3007D01*
X4816Y3006D01*
X4820Y3002D01*
X4821Y3000D01*
X4823Y2998D01*
X4824Y2997D01*
X4825Y2995D01*
X4826Y2993D01*
X4827Y2992D01*
X4828Y2990D01*
X4828Y2989D01*
X4829Y2988D01*
X4829Y2987D01*
X4830Y2987D01*
X4830Y2987D01*
X4831Y2982D01*
X4833Y2978D01*
X4833Y2974D01*
X4834Y2972D01*
X4834Y2970D01*
X4834Y2968D01*
X4834Y2967D01*
X4835Y2965D01*
Y2964D01*
X4835Y2963D01*
Y2963D01*
Y2962D01*
Y2962D01*
X4835Y2958D01*
X4834Y2955D01*
X4834Y2952D01*
X4833Y2949D01*
X4832Y2947D01*
X4831Y2944D01*
X4830Y2942D01*
X4829Y2940D01*
X4828Y2938D01*
X4827Y2937D01*
X4826Y2936D01*
X4825Y2934D01*
X4824Y2934D01*
X4823Y2933D01*
X4823Y2933D01*
X4823Y2933D01*
X4821Y2931D01*
X4819Y2930D01*
X4817Y2929D01*
X4815Y2928D01*
X4813Y2928D01*
X4811Y2927D01*
X4807Y2926D01*
X4805Y2926D01*
X4803Y2926D01*
X4802Y2925D01*
X4800Y2925D01*
X4799Y2925D01*
X4798D01*
X4794Y2925D01*
X4790Y2926D01*
X4787Y2926D01*
X4783Y2927D01*
X4782Y2927D01*
X4781Y2927D01*
X4780Y2927D01*
X4779Y2928D01*
X4778Y2928D01*
X4778Y2928D01*
X4777Y2928D01*
X4777D01*
X4773Y2930D01*
X4770Y2931D01*
X4767Y2932D01*
X4765Y2933D01*
X4764Y2934D01*
X4763Y2934D01*
X4762Y2935D01*
X4761Y2935D01*
X4761Y2936D01*
X4760Y2936D01*
X4760Y2936D01*
X4760D01*
X4752Y2974D01*
X4791D01*
X4794Y2959D01*
X4772D01*
X4775Y2946D01*
X4776Y2945D01*
X4778Y2944D01*
X4780Y2944D01*
X4782Y2943D01*
X4783Y2943D01*
X4784Y2942D01*
X4785Y2942D01*
X4785Y2942D01*
X4785D01*
X4788Y2942D01*
X4790Y2941D01*
X4792Y2941D01*
X4794Y2941D01*
X4795Y2940D01*
X4796Y2940D01*
X4797D01*
X4801Y2941D01*
X4804Y2941D01*
X4806Y2942D01*
X4808Y2943D01*
X4810Y2944D01*
X4811Y2945D01*
X4812Y2945D01*
X4812Y2946D01*
X4813Y2947D01*
X4814Y2948D01*
X4815Y2950D01*
X4816Y2953D01*
X4816Y2956D01*
X4817Y2958D01*
X4817Y2959D01*
Y2960D01*
X4817Y2961D01*
Y2962D01*
Y2962D01*
Y2962D01*
X4817Y2966D01*
X4816Y2970D01*
X4816Y2974D01*
X4815Y2975D01*
X4815Y2977D01*
X4815Y2978D01*
X4814Y2979D01*
X4814Y2981D01*
X4814Y2981D01*
X4813Y2982D01*
X4813Y2983D01*
X4813Y2983D01*
Y2983D01*
X4811Y2987D01*
X4809Y2989D01*
X4808Y2992D01*
X4806Y2994D01*
X4804Y2995D01*
X4803Y2996D01*
X4802Y2997D01*
X4802Y2997D01*
X4802Y2997D01*
X4802D01*
X4799Y2999D01*
X4796Y3000D01*
X4793Y3001D01*
X4791Y3001D01*
X4789Y3002D01*
X4788Y3002D01*
X4787D01*
X4786Y3002D01*
X4786D01*
X4783Y3002D01*
X4780Y3001D01*
X4778Y3001D01*
X4776Y3000D01*
X4775Y3000D01*
X4774Y2999D01*
X4773Y2998D01*
X4773Y2998D01*
X4771Y2997D01*
X4770Y2995D01*
X4769Y2993D01*
X4768Y2991D01*
X4767Y2990D01*
X4766Y2988D01*
X4766Y2988D01*
X4766Y2987D01*
X4766Y2987D01*
Y2987D01*
X4749Y2989D01*
X4749Y2991D01*
X4750Y2994D01*
X4751Y2996D01*
X4752Y2998D01*
X4753Y3000D01*
X4754Y3001D01*
X4755Y3003D01*
X4756Y3004D01*
X4757Y3006D01*
X4758Y3007D01*
X4759Y3008D01*
X4760Y3008D01*
X4760Y3009D01*
X4761Y3009D01*
X4761Y3009D01*
X4761Y3010D01*
X4763Y3011D01*
X4765Y3012D01*
X4767Y3013D01*
X4769Y3014D01*
X4773Y3015D01*
X4777Y3016D01*
X4779Y3016D01*
X4780Y3016D01*
X4782Y3016D01*
X4783Y3017D01*
X4784Y3017D01*
X4786D01*
X4788Y3017D01*
D02*
G37*
G36*
X4929Y2927D02*
X4911D01*
X4903Y2963D01*
X4896D01*
X4894Y2963D01*
X4892Y2963D01*
X4890Y2963D01*
X4889Y2962D01*
X4888Y2962D01*
X4888Y2962D01*
X4887Y2962D01*
X4887Y2962D01*
X4886Y2961D01*
X4885Y2960D01*
X4884Y2958D01*
X4883Y2957D01*
X4882Y2955D01*
X4881Y2953D01*
X4880Y2951D01*
X4879Y2951D01*
X4879Y2950D01*
X4879Y2950D01*
Y2950D01*
X4878Y2947D01*
X4877Y2945D01*
X4876Y2942D01*
X4875Y2940D01*
X4874Y2938D01*
X4873Y2936D01*
X4872Y2934D01*
X4872Y2933D01*
X4871Y2931D01*
X4871Y2930D01*
X4871Y2929D01*
X4870Y2928D01*
X4870Y2928D01*
X4870Y2927D01*
X4870Y2927D01*
Y2927D01*
X4850D01*
X4852Y2930D01*
X4853Y2933D01*
X4854Y2937D01*
X4856Y2939D01*
X4857Y2942D01*
X4858Y2944D01*
X4859Y2947D01*
X4860Y2949D01*
X4861Y2950D01*
X4862Y2952D01*
X4862Y2953D01*
X4863Y2954D01*
X4863Y2955D01*
X4864Y2956D01*
X4864Y2956D01*
X4864Y2956D01*
X4865Y2958D01*
X4866Y2959D01*
X4867Y2961D01*
X4868Y2962D01*
X4869Y2963D01*
X4870Y2964D01*
X4870Y2964D01*
X4870Y2964D01*
X4868Y2965D01*
X4866Y2965D01*
X4863Y2966D01*
X4862Y2966D01*
X4860Y2967D01*
X4858Y2968D01*
X4856Y2969D01*
X4855Y2969D01*
X4854Y2970D01*
X4853Y2971D01*
X4852Y2971D01*
X4851Y2972D01*
X4851Y2973D01*
X4850Y2973D01*
X4850Y2973D01*
X4850Y2973D01*
X4849Y2975D01*
X4848Y2976D01*
X4847Y2978D01*
X4846Y2979D01*
X4845Y2982D01*
X4844Y2985D01*
X4844Y2987D01*
X4844Y2988D01*
X4844Y2989D01*
X4843Y2990D01*
X4843Y2991D01*
Y2991D01*
Y2992D01*
Y2992D01*
X4843Y2995D01*
X4844Y2997D01*
X4844Y3000D01*
X4845Y3002D01*
X4846Y3003D01*
X4846Y3004D01*
X4847Y3005D01*
X4847Y3005D01*
X4848Y3007D01*
X4850Y3009D01*
X4851Y3010D01*
X4853Y3011D01*
X4854Y3012D01*
X4855Y3013D01*
X4856Y3013D01*
X4856Y3013D01*
X4856D01*
X4858Y3014D01*
X4861Y3014D01*
X4863Y3015D01*
X4866Y3015D01*
X4868Y3015D01*
X4869Y3015D01*
X4911D01*
X4929Y2927D01*
D02*
G37*
G36*
X4745D02*
X4701D01*
X4698Y2927D01*
X4696Y2927D01*
X4694Y2927D01*
X4692Y2928D01*
X4690Y2928D01*
X4689Y2928D01*
X4687Y2928D01*
X4686Y2929D01*
X4685Y2929D01*
X4684Y2929D01*
X4683Y2929D01*
X4682Y2930D01*
X4682Y2930D01*
X4682Y2930D01*
X4681D01*
X4679Y2931D01*
X4676Y2933D01*
X4674Y2934D01*
X4672Y2936D01*
X4671Y2938D01*
X4670Y2939D01*
X4669Y2939D01*
X4669Y2940D01*
X4669Y2940D01*
Y2940D01*
X4667Y2943D01*
X4666Y2945D01*
X4666Y2948D01*
X4665Y2950D01*
X4665Y2952D01*
X4665Y2953D01*
Y2954D01*
X4664Y2955D01*
Y2955D01*
Y2955D01*
Y2955D01*
X4665Y2957D01*
X4665Y2959D01*
X4666Y2961D01*
X4666Y2963D01*
X4667Y2964D01*
X4668Y2965D01*
X4668Y2966D01*
X4668Y2966D01*
X4670Y2968D01*
X4672Y2969D01*
X4673Y2970D01*
X4675Y2971D01*
X4677Y2972D01*
X4678Y2972D01*
X4678Y2972D01*
X4679Y2972D01*
X4679Y2973D01*
X4679D01*
X4676Y2974D01*
X4673Y2975D01*
X4671Y2976D01*
X4669Y2978D01*
X4668Y2979D01*
X4667Y2980D01*
X4666Y2981D01*
X4666Y2981D01*
X4665Y2983D01*
X4664Y2985D01*
X4663Y2987D01*
X4663Y2989D01*
X4662Y2991D01*
X4662Y2992D01*
Y2993D01*
Y2993D01*
Y2993D01*
Y2994D01*
X4662Y2996D01*
X4662Y2997D01*
X4663Y2999D01*
X4663Y3001D01*
X4664Y3002D01*
X4664Y3003D01*
X4664Y3003D01*
X4665Y3003D01*
X4665Y3005D01*
X4667Y3007D01*
X4668Y3008D01*
X4669Y3009D01*
X4670Y3010D01*
X4671Y3010D01*
X4671Y3011D01*
X4671Y3011D01*
X4673Y3012D01*
X4675Y3013D01*
X4677Y3013D01*
X4679Y3014D01*
X4680Y3014D01*
X4681Y3014D01*
X4682Y3014D01*
X4682D01*
X4683Y3015D01*
X4684Y3015D01*
X4686Y3015D01*
X4688Y3015D01*
X4691D01*
X4693Y3015D01*
X4726D01*
X4745Y2927D01*
D02*
G37*
G36*
X4619Y3015D02*
X4622Y3015D01*
X4624Y3014D01*
X4626Y3014D01*
X4628Y3013D01*
X4629Y3013D01*
X4630Y3013D01*
X4630Y3012D01*
X4630Y3012D01*
X4631D01*
X4633Y3011D01*
X4635Y3009D01*
X4636Y3008D01*
X4638Y3006D01*
X4639Y3005D01*
X4640Y3004D01*
X4640Y3003D01*
X4640Y3003D01*
Y3003D01*
X4641Y3001D01*
X4642Y2999D01*
X4643Y2997D01*
X4643Y2995D01*
X4643Y2993D01*
X4643Y2992D01*
Y2992D01*
Y2991D01*
Y2991D01*
X4643Y2990D01*
X4643Y2988D01*
X4643Y2986D01*
X4642Y2985D01*
X4642Y2984D01*
X4642Y2983D01*
X4641Y2982D01*
X4641Y2982D01*
X4640Y2981D01*
X4639Y2979D01*
X4638Y2978D01*
X4637Y2977D01*
X4636Y2976D01*
X4635Y2976D01*
X4635Y2975D01*
X4634Y2975D01*
X4637Y2974D01*
X4640Y2972D01*
X4642Y2971D01*
X4644Y2969D01*
X4646Y2968D01*
X4647Y2966D01*
X4647Y2966D01*
X4647Y2966D01*
X4648Y2965D01*
Y2965D01*
X4649Y2963D01*
X4650Y2960D01*
X4651Y2957D01*
X4652Y2955D01*
X4652Y2953D01*
X4652Y2952D01*
Y2951D01*
X4653Y2950D01*
Y2950D01*
Y2950D01*
Y2950D01*
X4652Y2948D01*
X4652Y2946D01*
X4651Y2942D01*
X4650Y2939D01*
X4649Y2937D01*
X4648Y2936D01*
X4648Y2935D01*
X4647Y2934D01*
X4647Y2933D01*
X4646Y2933D01*
X4646Y2932D01*
X4646Y2932D01*
X4646Y2932D01*
X4644Y2931D01*
X4643Y2930D01*
X4641Y2929D01*
X4640Y2928D01*
X4636Y2927D01*
X4633Y2926D01*
X4632Y2926D01*
X4631Y2926D01*
X4630Y2925D01*
X4629Y2925D01*
X4628Y2925D01*
X4627D01*
X4624Y2925D01*
X4621Y2926D01*
X4618Y2926D01*
X4616Y2927D01*
X4614Y2928D01*
X4612Y2929D01*
X4610Y2930D01*
X4608Y2931D01*
X4607Y2932D01*
X4605Y2933D01*
X4604Y2934D01*
X4603Y2935D01*
X4602Y2936D01*
X4602Y2936D01*
X4602Y2937D01*
X4601Y2937D01*
X4600Y2938D01*
X4599Y2940D01*
X4598Y2942D01*
X4598Y2943D01*
X4597Y2946D01*
X4596Y2949D01*
X4596Y2950D01*
X4595Y2952D01*
X4595Y2953D01*
Y2953D01*
X4595Y2954D01*
Y2955D01*
Y2955D01*
Y2955D01*
X4595Y2957D01*
X4595Y2959D01*
X4596Y2961D01*
X4596Y2963D01*
X4597Y2964D01*
X4597Y2965D01*
X4598Y2966D01*
X4598Y2966D01*
X4599Y2968D01*
X4600Y2969D01*
X4601Y2971D01*
X4603Y2972D01*
X4604Y2973D01*
X4605Y2973D01*
X4606Y2974D01*
X4606Y2974D01*
X4606D01*
X4603Y2975D01*
X4601Y2977D01*
X4599Y2978D01*
X4597Y2979D01*
X4596Y2980D01*
X4595Y2981D01*
X4595Y2982D01*
X4595Y2982D01*
X4593Y2984D01*
X4592Y2986D01*
X4592Y2988D01*
X4591Y2990D01*
X4591Y2991D01*
X4591Y2993D01*
Y2993D01*
Y2994D01*
Y2994D01*
Y2994D01*
X4591Y2996D01*
X4591Y2997D01*
X4592Y3000D01*
X4593Y3003D01*
X4594Y3005D01*
X4595Y3007D01*
X4596Y3008D01*
X4597Y3009D01*
X4597Y3009D01*
X4597Y3009D01*
X4597Y3009D01*
X4599Y3010D01*
X4600Y3011D01*
X4602Y3012D01*
X4603Y3013D01*
X4606Y3014D01*
X4609Y3015D01*
X4611Y3015D01*
X4612Y3015D01*
X4613Y3015D01*
X4614D01*
X4615Y3016D01*
X4616D01*
X4619Y3015D01*
D02*
G37*
G36*
X4550D02*
X4553Y3015D01*
X4556Y3014D01*
X4558Y3014D01*
X4559Y3013D01*
X4561Y3013D01*
X4561Y3013D01*
X4562Y3012D01*
X4562Y3012D01*
X4562D01*
X4564Y3011D01*
X4566Y3009D01*
X4568Y3008D01*
X4569Y3006D01*
X4570Y3005D01*
X4571Y3004D01*
X4572Y3003D01*
X4572Y3003D01*
Y3003D01*
X4573Y3001D01*
X4573Y2999D01*
X4574Y2997D01*
X4575Y2995D01*
X4575Y2993D01*
X4575Y2992D01*
Y2992D01*
Y2991D01*
Y2991D01*
X4575Y2990D01*
X4575Y2988D01*
X4574Y2986D01*
X4574Y2985D01*
X4573Y2984D01*
X4573Y2983D01*
X4573Y2982D01*
X4573Y2982D01*
X4572Y2981D01*
X4571Y2979D01*
X4569Y2978D01*
X4568Y2977D01*
X4567Y2976D01*
X4566Y2976D01*
X4566Y2975D01*
X4566Y2975D01*
X4569Y2974D01*
X4571Y2972D01*
X4574Y2971D01*
X4576Y2969D01*
X4577Y2968D01*
X4578Y2966D01*
X4579Y2966D01*
X4579Y2966D01*
X4579Y2965D01*
Y2965D01*
X4581Y2963D01*
X4582Y2960D01*
X4583Y2957D01*
X4583Y2955D01*
X4584Y2953D01*
X4584Y2952D01*
Y2951D01*
X4584Y2950D01*
Y2950D01*
Y2950D01*
Y2950D01*
X4584Y2948D01*
X4584Y2946D01*
X4583Y2942D01*
X4582Y2939D01*
X4580Y2937D01*
X4580Y2936D01*
X4579Y2935D01*
X4579Y2934D01*
X4578Y2933D01*
X4578Y2933D01*
X4577Y2932D01*
X4577Y2932D01*
X4577Y2932D01*
X4576Y2931D01*
X4574Y2930D01*
X4573Y2929D01*
X4571Y2928D01*
X4568Y2927D01*
X4565Y2926D01*
X4564Y2926D01*
X4562Y2926D01*
X4561Y2925D01*
X4560Y2925D01*
X4559Y2925D01*
X4558D01*
X4555Y2925D01*
X4552Y2926D01*
X4550Y2926D01*
X4547Y2927D01*
X4545Y2928D01*
X4543Y2929D01*
X4541Y2930D01*
X4539Y2931D01*
X4538Y2932D01*
X4537Y2933D01*
X4535Y2934D01*
X4534Y2935D01*
X4534Y2936D01*
X4533Y2936D01*
X4533Y2937D01*
X4533Y2937D01*
X4532Y2938D01*
X4531Y2940D01*
X4530Y2942D01*
X4529Y2943D01*
X4528Y2946D01*
X4527Y2949D01*
X4527Y2950D01*
X4527Y2952D01*
X4527Y2953D01*
Y2953D01*
X4526Y2954D01*
Y2955D01*
Y2955D01*
Y2955D01*
X4527Y2957D01*
X4527Y2959D01*
X4527Y2961D01*
X4528Y2963D01*
X4528Y2964D01*
X4529Y2965D01*
X4529Y2966D01*
X4529Y2966D01*
X4530Y2968D01*
X4532Y2969D01*
X4533Y2971D01*
X4534Y2972D01*
X4535Y2973D01*
X4536Y2973D01*
X4537Y2974D01*
X4537Y2974D01*
X4537D01*
X4535Y2975D01*
X4532Y2977D01*
X4530Y2978D01*
X4529Y2979D01*
X4528Y2980D01*
X4527Y2981D01*
X4526Y2982D01*
X4526Y2982D01*
X4525Y2984D01*
X4524Y2986D01*
X4523Y2988D01*
X4523Y2990D01*
X4522Y2991D01*
X4522Y2993D01*
Y2993D01*
Y2994D01*
Y2994D01*
Y2994D01*
X4522Y2996D01*
X4522Y2997D01*
X4523Y3000D01*
X4524Y3003D01*
X4526Y3005D01*
X4527Y3007D01*
X4528Y3008D01*
X4528Y3009D01*
X4529Y3009D01*
X4529Y3009D01*
X4529Y3009D01*
X4530Y3010D01*
X4532Y3011D01*
X4533Y3012D01*
X4535Y3013D01*
X4538Y3014D01*
X4541Y3015D01*
X4542Y3015D01*
X4543Y3015D01*
X4544Y3015D01*
X4545D01*
X4546Y3016D01*
X4547D01*
X4550Y3015D01*
D02*
G37*
G36*
X4482D02*
X4484Y3015D01*
X4487Y3014D01*
X4489Y3014D01*
X4491Y3013D01*
X4492Y3013D01*
X4493Y3013D01*
X4493Y3012D01*
X4493Y3012D01*
X4493D01*
X4496Y3011D01*
X4498Y3009D01*
X4499Y3008D01*
X4501Y3006D01*
X4502Y3005D01*
X4502Y3004D01*
X4503Y3003D01*
X4503Y3003D01*
Y3003D01*
X4504Y3001D01*
X4505Y2999D01*
X4506Y2997D01*
X4506Y2995D01*
X4506Y2993D01*
X4506Y2992D01*
Y2992D01*
Y2991D01*
Y2991D01*
X4506Y2990D01*
X4506Y2988D01*
X4506Y2986D01*
X4505Y2985D01*
X4505Y2984D01*
X4504Y2983D01*
X4504Y2982D01*
X4504Y2982D01*
X4503Y2981D01*
X4502Y2979D01*
X4501Y2978D01*
X4500Y2977D01*
X4499Y2976D01*
X4498Y2976D01*
X4497Y2975D01*
X4497Y2975D01*
X4500Y2974D01*
X4503Y2972D01*
X4505Y2971D01*
X4507Y2969D01*
X4508Y2968D01*
X4510Y2966D01*
X4510Y2966D01*
X4510Y2966D01*
X4510Y2965D01*
Y2965D01*
X4512Y2963D01*
X4513Y2960D01*
X4514Y2957D01*
X4515Y2955D01*
X4515Y2953D01*
X4515Y2952D01*
Y2951D01*
X4515Y2950D01*
Y2950D01*
Y2950D01*
Y2950D01*
X4515Y2948D01*
X4515Y2946D01*
X4514Y2942D01*
X4513Y2939D01*
X4512Y2937D01*
X4511Y2936D01*
X4510Y2935D01*
X4510Y2934D01*
X4509Y2933D01*
X4509Y2933D01*
X4509Y2932D01*
X4508Y2932D01*
X4508Y2932D01*
X4507Y2931D01*
X4506Y2930D01*
X4504Y2929D01*
X4502Y2928D01*
X4499Y2927D01*
X4496Y2926D01*
X4495Y2926D01*
X4494Y2926D01*
X4493Y2925D01*
X4491Y2925D01*
X4491Y2925D01*
X4490D01*
X4487Y2925D01*
X4484Y2926D01*
X4481Y2926D01*
X4479Y2927D01*
X4477Y2928D01*
X4475Y2929D01*
X4473Y2930D01*
X4471Y2931D01*
X4469Y2932D01*
X4468Y2933D01*
X4467Y2934D01*
X4466Y2935D01*
X4465Y2936D01*
X4465Y2936D01*
X4464Y2937D01*
X4464Y2937D01*
X4463Y2938D01*
X4462Y2940D01*
X4461Y2942D01*
X4461Y2943D01*
X4459Y2946D01*
X4459Y2949D01*
X4458Y2950D01*
X4458Y2952D01*
X4458Y2953D01*
Y2953D01*
X4458Y2954D01*
Y2955D01*
Y2955D01*
Y2955D01*
X4458Y2957D01*
X4458Y2959D01*
X4459Y2961D01*
X4459Y2963D01*
X4460Y2964D01*
X4460Y2965D01*
X4460Y2966D01*
X4461Y2966D01*
X4462Y2968D01*
X4463Y2969D01*
X4464Y2971D01*
X4466Y2972D01*
X4467Y2973D01*
X4468Y2973D01*
X4468Y2974D01*
X4469Y2974D01*
X4469D01*
X4466Y2975D01*
X4464Y2977D01*
X4462Y2978D01*
X4460Y2979D01*
X4459Y2980D01*
X4458Y2981D01*
X4458Y2982D01*
X4457Y2982D01*
X4456Y2984D01*
X4455Y2986D01*
X4455Y2988D01*
X4454Y2990D01*
X4454Y2991D01*
X4454Y2993D01*
Y2993D01*
Y2994D01*
Y2994D01*
Y2994D01*
X4454Y2996D01*
X4454Y2997D01*
X4455Y3000D01*
X4456Y3003D01*
X4457Y3005D01*
X4458Y3007D01*
X4459Y3008D01*
X4460Y3009D01*
X4460Y3009D01*
X4460Y3009D01*
X4460Y3009D01*
X4462Y3010D01*
X4463Y3011D01*
X4464Y3012D01*
X4466Y3013D01*
X4469Y3014D01*
X4472Y3015D01*
X4473Y3015D01*
X4475Y3015D01*
X4476Y3015D01*
X4477D01*
X4478Y3016D01*
X4479D01*
X4482Y3015D01*
D02*
G37*
G36*
X1199Y3100D02*
X1183D01*
X1169Y3174D01*
X1166Y3100D01*
X1148D01*
X1116Y3173D01*
X1131Y3100D01*
X1115D01*
X1098Y3188D01*
X1125D01*
X1152Y3128D01*
X1155Y3188D01*
X1181D01*
X1199Y3100D01*
D02*
G37*
G36*
X903Y3142D02*
X903Y3140D01*
X903Y3139D01*
X903Y3137D01*
X904Y3136D01*
X904Y3135D01*
X904Y3134D01*
X904Y3133D01*
X905Y3132D01*
Y3131D01*
X905Y3131D01*
Y3131D01*
X905Y3129D01*
X905Y3128D01*
X905Y3127D01*
Y3126D01*
X905Y3126D01*
Y3125D01*
Y3125D01*
X905Y3123D01*
X905Y3121D01*
X905Y3119D01*
X904Y3117D01*
X903Y3116D01*
X903Y3114D01*
X902Y3112D01*
X901Y3111D01*
X900Y3110D01*
X900Y3109D01*
X899Y3108D01*
X898Y3107D01*
X898Y3107D01*
X897Y3106D01*
X897Y3106D01*
X897Y3106D01*
X895Y3105D01*
X893Y3103D01*
X891Y3102D01*
X890Y3102D01*
X887Y3101D01*
X885Y3100D01*
X881Y3099D01*
X880Y3099D01*
X878Y3099D01*
X876Y3099D01*
X875Y3098D01*
X874Y3098D01*
X872D01*
X868Y3099D01*
X865Y3099D01*
X863Y3099D01*
X861Y3099D01*
X860Y3100D01*
X858Y3100D01*
X856Y3101D01*
X855Y3101D01*
X854Y3102D01*
X853Y3102D01*
X852Y3102D01*
X851Y3103D01*
X851Y3103D01*
X850Y3103D01*
X850D01*
X847Y3105D01*
X845Y3107D01*
X842Y3109D01*
X841Y3111D01*
X839Y3113D01*
X838Y3115D01*
X838Y3115D01*
X837Y3115D01*
X837Y3116D01*
Y3116D01*
X836Y3117D01*
X836Y3119D01*
X834Y3123D01*
X833Y3126D01*
X832Y3130D01*
X831Y3132D01*
X831Y3133D01*
X831Y3135D01*
X830Y3136D01*
X830Y3137D01*
X830Y3138D01*
X830Y3138D01*
Y3138D01*
X819Y3188D01*
X837D01*
X847Y3140D01*
X848Y3138D01*
X848Y3136D01*
X849Y3134D01*
X849Y3132D01*
X850Y3131D01*
X850Y3129D01*
X851Y3128D01*
X851Y3127D01*
X851Y3126D01*
X852Y3125D01*
X852Y3125D01*
X852Y3124D01*
X852Y3123D01*
X853Y3123D01*
X854Y3122D01*
X855Y3120D01*
X856Y3119D01*
X857Y3118D01*
X858Y3117D01*
X859Y3116D01*
X860Y3116D01*
X860Y3116D01*
X862Y3115D01*
X864Y3115D01*
X866Y3114D01*
X867Y3114D01*
X869Y3114D01*
X870Y3114D01*
X872D01*
X874Y3114D01*
X877Y3114D01*
X879Y3115D01*
X881Y3115D01*
X882Y3116D01*
X883Y3116D01*
X883Y3116D01*
X884Y3117D01*
X885Y3118D01*
X886Y3119D01*
X887Y3121D01*
X887Y3122D01*
X887Y3123D01*
X888Y3124D01*
X888Y3124D01*
Y3125D01*
X887Y3126D01*
X887Y3127D01*
X887Y3128D01*
Y3128D01*
Y3128D01*
X885Y3140D01*
X874Y3188D01*
X892D01*
X903Y3142D01*
D02*
G37*
G36*
X1000Y3100D02*
X965D01*
X963Y3100D01*
X962Y3100D01*
X960D01*
X958Y3100D01*
X957Y3101D01*
X956Y3101D01*
X955Y3101D01*
X954Y3101D01*
X953Y3101D01*
X953D01*
X952Y3101D01*
X952Y3101D01*
X952D01*
X948Y3102D01*
X945Y3103D01*
X942Y3105D01*
X940Y3106D01*
X938Y3107D01*
X937Y3107D01*
X937Y3108D01*
X936Y3108D01*
X936Y3108D01*
X936Y3109D01*
X935D01*
X932Y3111D01*
X930Y3114D01*
X927Y3117D01*
X925Y3120D01*
X924Y3122D01*
X923Y3123D01*
X923Y3124D01*
X922Y3125D01*
X922Y3126D01*
X922Y3126D01*
Y3126D01*
X921Y3128D01*
X920Y3131D01*
X918Y3135D01*
X917Y3139D01*
X917Y3141D01*
X917Y3143D01*
X917Y3145D01*
X916Y3147D01*
X916Y3148D01*
Y3149D01*
X916Y3150D01*
Y3151D01*
Y3152D01*
Y3152D01*
Y3154D01*
X916Y3156D01*
X917Y3158D01*
X917Y3160D01*
X917Y3162D01*
X917Y3163D01*
X917Y3163D01*
X918Y3164D01*
X918Y3166D01*
X919Y3168D01*
X919Y3169D01*
X920Y3171D01*
X921Y3172D01*
X921Y3173D01*
X921Y3173D01*
X922Y3174D01*
X923Y3175D01*
X924Y3177D01*
X925Y3178D01*
X925Y3179D01*
X926Y3180D01*
X927Y3180D01*
X928Y3181D01*
X928Y3181D01*
X929Y3182D01*
X930Y3183D01*
X932Y3184D01*
X933Y3184D01*
X934Y3185D01*
X935Y3185D01*
X935Y3185D01*
X936Y3186D01*
X939Y3187D01*
X941Y3187D01*
X942Y3187D01*
X943Y3188D01*
X944Y3188D01*
X945Y3188D01*
X945D01*
X946Y3188D01*
X947D01*
X948Y3188D01*
X951D01*
X953Y3188D01*
X982D01*
X1000Y3100D01*
D02*
G37*
G36*
X822D02*
X759D01*
X756Y3115D01*
X801D01*
X785Y3188D01*
X804D01*
X822Y3100D01*
D02*
G37*
G36*
X747D02*
X678D01*
X675Y3115D01*
X726D01*
X721Y3139D01*
X675D01*
X672Y3154D01*
X718D01*
X714Y3173D01*
X666D01*
X663Y3188D01*
X729D01*
X747Y3100D01*
D02*
G37*
G36*
X1046Y3190D02*
X1050Y3189D01*
X1054Y3188D01*
X1055Y3188D01*
X1057Y3187D01*
X1058Y3187D01*
X1059Y3186D01*
X1061Y3186D01*
X1062Y3186D01*
X1062Y3185D01*
X1063Y3185D01*
X1063Y3185D01*
X1063D01*
X1067Y3183D01*
X1070Y3181D01*
X1072Y3178D01*
X1075Y3176D01*
X1076Y3174D01*
X1077Y3173D01*
X1078Y3173D01*
X1078Y3172D01*
X1079Y3172D01*
X1079Y3171D01*
X1079Y3171D01*
X1081Y3168D01*
X1083Y3165D01*
X1085Y3161D01*
X1086Y3158D01*
X1087Y3157D01*
X1087Y3155D01*
X1087Y3154D01*
X1088Y3153D01*
X1088Y3152D01*
X1088Y3152D01*
X1088Y3151D01*
Y3151D01*
X1089Y3148D01*
X1090Y3145D01*
X1090Y3142D01*
X1090Y3140D01*
X1090Y3137D01*
Y3137D01*
X1091Y3136D01*
Y3135D01*
Y3135D01*
Y3135D01*
Y3135D01*
X1090Y3131D01*
X1090Y3128D01*
X1089Y3126D01*
X1089Y3123D01*
X1088Y3121D01*
X1088Y3120D01*
X1088Y3119D01*
X1087Y3119D01*
X1087Y3118D01*
X1087Y3118D01*
Y3118D01*
X1086Y3115D01*
X1084Y3112D01*
X1082Y3110D01*
X1080Y3108D01*
X1078Y3106D01*
X1077Y3105D01*
X1076Y3105D01*
X1076Y3104D01*
X1076Y3104D01*
X1075Y3104D01*
X1074Y3103D01*
X1072Y3102D01*
X1069Y3101D01*
X1065Y3100D01*
X1062Y3099D01*
X1060Y3099D01*
X1059Y3099D01*
X1058Y3098D01*
X1057D01*
X1056Y3098D01*
X1055D01*
X1052Y3098D01*
X1050Y3099D01*
X1045Y3099D01*
X1043Y3100D01*
X1040Y3101D01*
X1038Y3101D01*
X1037Y3102D01*
X1035Y3103D01*
X1034Y3103D01*
X1032Y3104D01*
X1031Y3104D01*
X1030Y3105D01*
X1030Y3105D01*
X1029Y3105D01*
X1029Y3105D01*
X1027Y3107D01*
X1025Y3108D01*
X1022Y3111D01*
X1020Y3113D01*
X1019Y3115D01*
X1017Y3116D01*
X1016Y3118D01*
X1015Y3120D01*
X1014Y3121D01*
X1013Y3122D01*
X1013Y3123D01*
X1012Y3124D01*
X1012Y3125D01*
X1012Y3125D01*
X1011Y3125D01*
X1010Y3128D01*
X1009Y3130D01*
X1008Y3133D01*
X1008Y3135D01*
X1006Y3140D01*
X1006Y3142D01*
X1006Y3144D01*
X1005Y3146D01*
X1005Y3147D01*
X1005Y3149D01*
X1005Y3150D01*
X1005Y3151D01*
Y3152D01*
Y3152D01*
Y3153D01*
X1005Y3156D01*
X1005Y3159D01*
X1006Y3161D01*
X1006Y3164D01*
X1007Y3166D01*
X1008Y3169D01*
X1009Y3171D01*
X1010Y3172D01*
X1011Y3174D01*
X1012Y3176D01*
X1013Y3177D01*
X1013Y3178D01*
X1014Y3179D01*
X1014Y3179D01*
X1015Y3180D01*
X1015Y3180D01*
X1017Y3181D01*
X1019Y3183D01*
X1021Y3184D01*
X1023Y3186D01*
X1025Y3187D01*
X1028Y3187D01*
X1030Y3188D01*
X1032Y3189D01*
X1034Y3189D01*
X1036Y3189D01*
X1037Y3190D01*
X1039Y3190D01*
X1040Y3190D01*
X1041D01*
X1046Y3190D01*
D02*
G37*
G36*
X1088Y3287D02*
X1127Y3242D01*
X1103D01*
X1091Y3256D01*
X1089Y3258D01*
X1088Y3259D01*
X1086Y3261D01*
X1085Y3262D01*
X1084Y3264D01*
X1083Y3265D01*
X1082Y3266D01*
X1082Y3267D01*
X1080Y3268D01*
X1080Y3269D01*
X1079Y3270D01*
X1079Y3270D01*
X1079Y3269D01*
X1078Y3268D01*
X1077Y3266D01*
X1076Y3263D01*
X1075Y3261D01*
X1074Y3259D01*
X1073Y3258D01*
X1073Y3257D01*
X1073Y3256D01*
X1072Y3256D01*
X1072Y3255D01*
Y3255D01*
X1065Y3242D01*
X1045D01*
X1067Y3284D01*
X1026Y3331D01*
X1049D01*
X1063Y3315D01*
X1065Y3313D01*
X1067Y3311D01*
X1069Y3308D01*
X1071Y3306D01*
X1073Y3304D01*
X1074Y3303D01*
X1074Y3303D01*
X1075Y3302D01*
X1075Y3302D01*
X1075Y3301D01*
X1075Y3301D01*
X1076Y3302D01*
X1076Y3302D01*
X1076Y3303D01*
X1076Y3303D01*
X1077Y3305D01*
X1078Y3306D01*
X1079Y3308D01*
X1079Y3309D01*
X1080Y3310D01*
X1080Y3311D01*
X1081Y3312D01*
X1081Y3313D01*
X1081Y3313D01*
X1082Y3314D01*
X1082Y3314D01*
X1082Y3315D01*
X1091Y3331D01*
X1110D01*
X1088Y3287D01*
D02*
G37*
G36*
X864Y3242D02*
X847D01*
X835Y3302D01*
X811Y3242D01*
X794D01*
X776Y3331D01*
X792D01*
X805Y3272D01*
X829Y3331D01*
X845D01*
X864Y3242D01*
D02*
G37*
G36*
X562D02*
X546D01*
X533Y3302D01*
X509Y3242D01*
X493D01*
X474Y3331D01*
X491D01*
X503Y3272D01*
X527Y3331D01*
X544D01*
X562Y3242D01*
D02*
G37*
G36*
X1200D02*
X1131D01*
X1128Y3257D01*
X1179D01*
X1174Y3281D01*
X1128D01*
X1125Y3296D01*
X1171D01*
X1166Y3316D01*
X1119D01*
X1116Y3331D01*
X1182D01*
X1200Y3242D01*
D02*
G37*
G36*
X1036D02*
X1018D01*
X1011Y3276D01*
X993D01*
X991Y3276D01*
X989D01*
X988Y3276D01*
X986D01*
X985Y3277D01*
X984D01*
X983Y3277D01*
X983D01*
X980Y3277D01*
X978Y3278D01*
X976Y3278D01*
X974Y3279D01*
X973Y3279D01*
X972Y3279D01*
X971Y3279D01*
X971Y3280D01*
X969Y3280D01*
X968Y3281D01*
X967Y3282D01*
X966Y3283D01*
X965Y3284D01*
X964Y3285D01*
X963Y3285D01*
X963Y3285D01*
X962Y3287D01*
X960Y3288D01*
X959Y3290D01*
X959Y3292D01*
X958Y3293D01*
X957Y3294D01*
X957Y3295D01*
X957Y3295D01*
Y3295D01*
X956Y3298D01*
X955Y3300D01*
X955Y3302D01*
X954Y3304D01*
X954Y3306D01*
X954Y3307D01*
Y3308D01*
Y3308D01*
Y3308D01*
Y3309D01*
X954Y3311D01*
X955Y3313D01*
X955Y3316D01*
X956Y3317D01*
X956Y3319D01*
X957Y3320D01*
X957Y3321D01*
X957Y3321D01*
X959Y3323D01*
X960Y3324D01*
X962Y3326D01*
X963Y3327D01*
X964Y3327D01*
X965Y3328D01*
X966Y3328D01*
X966Y3328D01*
X966D01*
X968Y3329D01*
X971Y3330D01*
X973Y3330D01*
X976Y3330D01*
X978Y3331D01*
X979D01*
X980Y3331D01*
X1017D01*
X1036Y3242D01*
D02*
G37*
G36*
X960D02*
X941D01*
X930Y3262D01*
X896D01*
X893Y3242D01*
X875D01*
X890Y3331D01*
X910D01*
X960Y3242D01*
D02*
G37*
G36*
X694D02*
X676D01*
X657Y3331D01*
X675D01*
X694Y3242D01*
D02*
G37*
G36*
X733Y3332D02*
X736Y3332D01*
X738Y3332D01*
X741Y3331D01*
X743Y3331D01*
X745Y3330D01*
X746Y3329D01*
X748Y3329D01*
X749Y3328D01*
X751Y3327D01*
X752Y3327D01*
X752Y3326D01*
X753Y3326D01*
X753Y3325D01*
X754Y3325D01*
X754Y3325D01*
X755Y3324D01*
X757Y3322D01*
X758Y3321D01*
X758Y3319D01*
X759Y3317D01*
X760Y3316D01*
X761Y3313D01*
X761Y3312D01*
X762Y3310D01*
X762Y3309D01*
X762Y3308D01*
X762Y3307D01*
Y3307D01*
Y3306D01*
Y3306D01*
X762Y3304D01*
X762Y3302D01*
X761Y3300D01*
X761Y3298D01*
X760Y3297D01*
X760Y3296D01*
X759Y3295D01*
X759Y3295D01*
X758Y3293D01*
X757Y3292D01*
X756Y3291D01*
X755Y3290D01*
X753Y3289D01*
X753Y3288D01*
X752Y3287D01*
X752Y3287D01*
X751Y3287D01*
X750Y3286D01*
X748Y3285D01*
X745Y3284D01*
X743Y3283D01*
X740Y3281D01*
X739Y3281D01*
X738Y3281D01*
X738Y3280D01*
X737Y3280D01*
X737Y3280D01*
X737D01*
X735Y3279D01*
X733Y3278D01*
X732Y3278D01*
X730Y3277D01*
X729Y3277D01*
X728Y3276D01*
X727Y3275D01*
X727Y3275D01*
X725Y3274D01*
X725Y3274D01*
X724Y3274D01*
X724Y3273D01*
X723Y3272D01*
X722Y3271D01*
X722Y3270D01*
X721Y3269D01*
X721Y3268D01*
X721Y3267D01*
Y3267D01*
Y3267D01*
X721Y3265D01*
X721Y3264D01*
X722Y3262D01*
X723Y3261D01*
X724Y3260D01*
X724Y3260D01*
X725Y3259D01*
X725Y3259D01*
X727Y3258D01*
X729Y3257D01*
X731Y3257D01*
X733Y3256D01*
X735Y3256D01*
X736D01*
X736Y3256D01*
X740D01*
X742Y3256D01*
X743Y3256D01*
X745Y3257D01*
X746Y3257D01*
X747Y3257D01*
X748Y3258D01*
X749Y3258D01*
X751Y3259D01*
X752Y3260D01*
X752Y3260D01*
X752Y3261D01*
X753Y3262D01*
X754Y3264D01*
X755Y3265D01*
X755Y3267D01*
X755Y3269D01*
X755Y3271D01*
X755Y3271D01*
Y3271D01*
Y3272D01*
Y3272D01*
X773Y3271D01*
X772Y3268D01*
X772Y3265D01*
X772Y3262D01*
X771Y3260D01*
X770Y3258D01*
X770Y3257D01*
X770Y3256D01*
X770Y3256D01*
X770Y3255D01*
X769Y3255D01*
Y3255D01*
X768Y3253D01*
X766Y3251D01*
X764Y3249D01*
X762Y3247D01*
X761Y3246D01*
X759Y3245D01*
X758Y3245D01*
X758Y3245D01*
X758Y3245D01*
X758D01*
X755Y3243D01*
X751Y3242D01*
X748Y3242D01*
X745Y3241D01*
X743Y3241D01*
X742D01*
X741Y3241D01*
X740Y3241D01*
X738D01*
X735Y3241D01*
X732Y3241D01*
X729Y3242D01*
X727Y3242D01*
X725Y3243D01*
X723Y3243D01*
X721Y3244D01*
X719Y3245D01*
X717Y3246D01*
X716Y3246D01*
X715Y3247D01*
X714Y3248D01*
X713Y3248D01*
X713Y3249D01*
X712Y3249D01*
X712Y3249D01*
X711Y3251D01*
X709Y3252D01*
X708Y3254D01*
X707Y3256D01*
X706Y3257D01*
X705Y3259D01*
X705Y3261D01*
X704Y3262D01*
X704Y3264D01*
X703Y3265D01*
X703Y3266D01*
X703Y3267D01*
X703Y3268D01*
Y3269D01*
Y3269D01*
Y3269D01*
X703Y3271D01*
X703Y3272D01*
X704Y3275D01*
X705Y3278D01*
X706Y3280D01*
X707Y3282D01*
X708Y3284D01*
X708Y3284D01*
X709Y3284D01*
X709Y3284D01*
X709Y3285D01*
X710Y3285D01*
X711Y3286D01*
X712Y3287D01*
X714Y3288D01*
X717Y3290D01*
X720Y3291D01*
X724Y3293D01*
X725Y3294D01*
X726Y3294D01*
X727Y3295D01*
X728Y3295D01*
X729Y3295D01*
X729Y3295D01*
X730Y3296D01*
X732Y3297D01*
X734Y3298D01*
X735Y3298D01*
X736Y3299D01*
X737Y3299D01*
X738Y3300D01*
X739Y3300D01*
X740Y3301D01*
X741Y3302D01*
X742Y3302D01*
X742Y3302D01*
X743Y3303D01*
X743Y3304D01*
X744Y3305D01*
X744Y3306D01*
X744Y3307D01*
X745Y3308D01*
Y3308D01*
Y3309D01*
X744Y3310D01*
X744Y3311D01*
X744Y3312D01*
X743Y3313D01*
X742Y3314D01*
X742Y3315D01*
X742Y3315D01*
X741Y3315D01*
X740Y3316D01*
X738Y3317D01*
X737Y3317D01*
X735Y3318D01*
X733Y3318D01*
X732Y3318D01*
X731D01*
X728Y3318D01*
X726Y3317D01*
X724Y3317D01*
X722Y3316D01*
X721Y3316D01*
X720Y3315D01*
X719Y3315D01*
X719Y3315D01*
X718Y3313D01*
X717Y3312D01*
X716Y3310D01*
X715Y3308D01*
X715Y3307D01*
X714Y3306D01*
X714Y3305D01*
Y3305D01*
Y3305D01*
X697Y3306D01*
X697Y3308D01*
X698Y3310D01*
X698Y3312D01*
X699Y3314D01*
X700Y3315D01*
X700Y3317D01*
X701Y3318D01*
X702Y3320D01*
X703Y3321D01*
X704Y3322D01*
X704Y3323D01*
X705Y3324D01*
X706Y3324D01*
X706Y3325D01*
X706Y3325D01*
X706Y3325D01*
X708Y3326D01*
X710Y3327D01*
X712Y3328D01*
X714Y3329D01*
X716Y3330D01*
X718Y3331D01*
X722Y3331D01*
X724Y3332D01*
X725Y3332D01*
X727Y3332D01*
X728Y3332D01*
X729Y3332D01*
X731D01*
X733Y3332D01*
D02*
G37*
G36*
X608Y3332D02*
X612Y3332D01*
X616Y3331D01*
X618Y3330D01*
X619Y3330D01*
X621Y3329D01*
X622Y3329D01*
X623Y3328D01*
X624Y3328D01*
X625Y3328D01*
X625Y3328D01*
X625Y3327D01*
X626D01*
X629Y3325D01*
X632Y3323D01*
X635Y3321D01*
X637Y3319D01*
X639Y3317D01*
X640Y3316D01*
X640Y3315D01*
X641Y3315D01*
X641Y3314D01*
X641Y3314D01*
X641Y3314D01*
X644Y3310D01*
X646Y3307D01*
X647Y3304D01*
X648Y3300D01*
X649Y3299D01*
X649Y3298D01*
X650Y3297D01*
X650Y3296D01*
X650Y3295D01*
X651Y3294D01*
X651Y3294D01*
Y3294D01*
X651Y3290D01*
X652Y3287D01*
X653Y3285D01*
X653Y3282D01*
X653Y3280D01*
Y3279D01*
X653Y3278D01*
Y3278D01*
Y3277D01*
Y3277D01*
Y3277D01*
X653Y3274D01*
X653Y3271D01*
X652Y3268D01*
X651Y3266D01*
X651Y3263D01*
X650Y3262D01*
X650Y3262D01*
X650Y3261D01*
X650Y3261D01*
X650Y3260D01*
Y3260D01*
X648Y3257D01*
X646Y3255D01*
X644Y3252D01*
X642Y3250D01*
X641Y3249D01*
X639Y3247D01*
X639Y3247D01*
X638Y3247D01*
X638Y3247D01*
X638Y3246D01*
X636Y3245D01*
X635Y3245D01*
X631Y3243D01*
X628Y3242D01*
X624Y3242D01*
X623Y3241D01*
X621Y3241D01*
X620Y3241D01*
X619D01*
X618Y3241D01*
X617D01*
X614Y3241D01*
X612Y3241D01*
X607Y3242D01*
X605Y3242D01*
X603Y3243D01*
X601Y3244D01*
X599Y3244D01*
X597Y3245D01*
X596Y3246D01*
X595Y3246D01*
X594Y3247D01*
X593Y3247D01*
X592Y3248D01*
X592Y3248D01*
X592Y3248D01*
X590Y3249D01*
X588Y3251D01*
X584Y3254D01*
X583Y3256D01*
X581Y3257D01*
X580Y3259D01*
X579Y3261D01*
X577Y3262D01*
X577Y3264D01*
X576Y3265D01*
X575Y3266D01*
X574Y3267D01*
X574Y3267D01*
X574Y3268D01*
X574Y3268D01*
X573Y3270D01*
X572Y3273D01*
X571Y3275D01*
X570Y3278D01*
X569Y3282D01*
X568Y3284D01*
X568Y3286D01*
X568Y3288D01*
X568Y3290D01*
X567Y3291D01*
X567Y3293D01*
X567Y3294D01*
Y3294D01*
Y3295D01*
Y3295D01*
X567Y3298D01*
X568Y3301D01*
X568Y3304D01*
X569Y3306D01*
X570Y3309D01*
X570Y3311D01*
X571Y3313D01*
X572Y3315D01*
X573Y3317D01*
X574Y3318D01*
X575Y3319D01*
X576Y3320D01*
X576Y3321D01*
X577Y3322D01*
X577Y3322D01*
X577Y3322D01*
X579Y3324D01*
X581Y3325D01*
X583Y3327D01*
X586Y3328D01*
X588Y3329D01*
X590Y3330D01*
X592Y3331D01*
X594Y3331D01*
X596Y3331D01*
X598Y3332D01*
X600Y3332D01*
X601Y3332D01*
X602Y3332D01*
X604D01*
X608Y3332D01*
D02*
G37*
G36*
X3477Y2882D02*
X3459D01*
X3451Y2922D01*
X3416D01*
X3425Y2882D01*
X3407D01*
X3388Y2971D01*
X3406D01*
X3413Y2936D01*
X3447D01*
X3440Y2971D01*
X3458D01*
X3477Y2882D01*
D02*
G37*
G36*
X4070Y2972D02*
X4072Y2972D01*
X4077Y2971D01*
X4081Y2970D01*
X4083Y2969D01*
X4084Y2969D01*
X4086Y2968D01*
X4087Y2968D01*
X4088Y2967D01*
X4089Y2966D01*
X4090Y2966D01*
X4091Y2966D01*
X4091Y2966D01*
X4091Y2965D01*
X4093Y2964D01*
X4095Y2963D01*
X4098Y2960D01*
X4101Y2956D01*
X4104Y2953D01*
X4105Y2952D01*
X4106Y2951D01*
X4106Y2949D01*
X4107Y2948D01*
X4108Y2947D01*
X4108Y2947D01*
X4108Y2946D01*
X4108Y2946D01*
X4109Y2944D01*
X4110Y2942D01*
X4112Y2937D01*
X4113Y2932D01*
X4113Y2930D01*
X4113Y2928D01*
X4114Y2926D01*
X4114Y2924D01*
X4114Y2923D01*
Y2921D01*
X4114Y2920D01*
Y2919D01*
Y2919D01*
Y2919D01*
X4114Y2915D01*
X4114Y2912D01*
X4113Y2909D01*
X4113Y2907D01*
X4112Y2904D01*
X4111Y2902D01*
X4110Y2899D01*
X4110Y2898D01*
X4109Y2896D01*
X4108Y2894D01*
X4107Y2893D01*
X4107Y2892D01*
X4106Y2891D01*
X4106Y2891D01*
X4105Y2890D01*
X4105Y2890D01*
X4103Y2889D01*
X4101Y2887D01*
X4099Y2886D01*
X4097Y2885D01*
X4095Y2884D01*
X4093Y2883D01*
X4091Y2882D01*
X4089Y2882D01*
X4087Y2881D01*
X4085Y2881D01*
X4084Y2881D01*
X4082Y2881D01*
X4081D01*
X4081Y2881D01*
X4080D01*
X4077Y2881D01*
X4075Y2881D01*
X4072Y2881D01*
X4070Y2882D01*
X4068Y2882D01*
X4066Y2883D01*
X4064Y2884D01*
X4062Y2885D01*
X4060Y2885D01*
X4059Y2886D01*
X4058Y2887D01*
X4057Y2887D01*
X4056Y2888D01*
X4055Y2888D01*
X4055Y2888D01*
X4055Y2888D01*
X4053Y2890D01*
X4051Y2892D01*
X4048Y2895D01*
X4045Y2899D01*
X4043Y2903D01*
X4042Y2904D01*
X4041Y2906D01*
X4040Y2907D01*
X4040Y2909D01*
X4039Y2910D01*
X4039Y2910D01*
X4039Y2911D01*
Y2911D01*
X4057Y2914D01*
X4058Y2911D01*
X4059Y2908D01*
X4061Y2906D01*
X4062Y2904D01*
X4064Y2902D01*
X4065Y2901D01*
X4065Y2901D01*
X4066Y2900D01*
X4066D01*
X4068Y2899D01*
X4070Y2898D01*
X4072Y2897D01*
X4074Y2896D01*
X4076Y2896D01*
X4077Y2896D01*
X4078Y2896D01*
X4079D01*
X4080Y2896D01*
X4081Y2896D01*
X4084Y2897D01*
X4086Y2898D01*
X4088Y2899D01*
X4089Y2900D01*
X4090Y2901D01*
X4091Y2901D01*
X4091Y2902D01*
X4093Y2904D01*
X4094Y2907D01*
X4095Y2909D01*
X4096Y2912D01*
X4096Y2914D01*
X4096Y2915D01*
Y2916D01*
X4096Y2917D01*
Y2917D01*
Y2918D01*
Y2918D01*
X4096Y2922D01*
X4096Y2925D01*
X4095Y2928D01*
X4094Y2931D01*
X4094Y2933D01*
X4094Y2934D01*
X4093Y2935D01*
X4093Y2936D01*
X4093Y2936D01*
X4092Y2937D01*
X4092Y2937D01*
Y2937D01*
X4091Y2941D01*
X4089Y2944D01*
X4087Y2946D01*
X4086Y2948D01*
X4084Y2950D01*
X4083Y2951D01*
X4082Y2952D01*
X4082Y2952D01*
X4082D01*
X4079Y2953D01*
X4077Y2954D01*
X4075Y2955D01*
X4072Y2956D01*
X4071Y2956D01*
X4069Y2956D01*
X4069Y2956D01*
X4068D01*
X4065Y2956D01*
X4063Y2956D01*
X4061Y2955D01*
X4060Y2955D01*
X4059Y2954D01*
X4058Y2953D01*
X4057Y2953D01*
X4057Y2953D01*
X4056Y2952D01*
X4054Y2950D01*
X4053Y2948D01*
X4053Y2946D01*
X4052Y2944D01*
X4052Y2943D01*
X4051Y2943D01*
Y2942D01*
X4051Y2942D01*
Y2942D01*
X4034Y2943D01*
X4034Y2946D01*
X4035Y2948D01*
X4036Y2950D01*
X4036Y2952D01*
X4037Y2954D01*
X4038Y2956D01*
X4039Y2958D01*
X4040Y2959D01*
X4041Y2960D01*
X4041Y2961D01*
X4042Y2962D01*
X4043Y2963D01*
X4044Y2964D01*
X4044Y2964D01*
X4044Y2964D01*
X4044Y2964D01*
X4046Y2966D01*
X4048Y2967D01*
X4050Y2968D01*
X4052Y2969D01*
X4054Y2970D01*
X4056Y2970D01*
X4059Y2971D01*
X4061Y2972D01*
X4063Y2972D01*
X4064Y2972D01*
X4065Y2972D01*
X4066Y2972D01*
X4068D01*
X4070Y2972D01*
D02*
G37*
G36*
X3646Y2924D02*
X3647Y2922D01*
X3647Y2921D01*
X3647Y2920D01*
X3647Y2918D01*
X3648Y2917D01*
X3648Y2917D01*
X3648Y2915D01*
X3648Y2914D01*
Y2913D01*
X3648Y2913D01*
Y2913D01*
X3649Y2911D01*
X3649Y2910D01*
X3649Y2909D01*
Y2909D01*
X3649Y2908D01*
Y2908D01*
Y2908D01*
X3649Y2905D01*
X3649Y2903D01*
X3648Y2901D01*
X3648Y2900D01*
X3647Y2898D01*
X3646Y2896D01*
X3645Y2895D01*
X3645Y2894D01*
X3644Y2892D01*
X3643Y2891D01*
X3642Y2890D01*
X3642Y2890D01*
X3641Y2889D01*
X3641Y2889D01*
X3641Y2888D01*
X3641Y2888D01*
X3639Y2887D01*
X3637Y2886D01*
X3635Y2885D01*
X3633Y2884D01*
X3631Y2883D01*
X3629Y2882D01*
X3625Y2882D01*
X3623Y2881D01*
X3621Y2881D01*
X3620Y2881D01*
X3619Y2881D01*
X3617Y2881D01*
X3616D01*
X3611Y2881D01*
X3609Y2881D01*
X3607Y2881D01*
X3605Y2882D01*
X3603Y2882D01*
X3601Y2883D01*
X3600Y2883D01*
X3599Y2884D01*
X3597Y2884D01*
X3596Y2884D01*
X3596Y2885D01*
X3595Y2885D01*
X3594Y2885D01*
X3594Y2885D01*
X3594D01*
X3591Y2887D01*
X3588Y2890D01*
X3586Y2892D01*
X3584Y2894D01*
X3583Y2895D01*
X3582Y2897D01*
X3581Y2897D01*
X3581Y2898D01*
X3581Y2898D01*
Y2898D01*
X3580Y2900D01*
X3579Y2901D01*
X3578Y2905D01*
X3577Y2909D01*
X3575Y2912D01*
X3575Y2914D01*
X3575Y2915D01*
X3574Y2917D01*
X3574Y2918D01*
X3574Y2919D01*
X3573Y2920D01*
X3573Y2920D01*
Y2921D01*
X3563Y2971D01*
X3581D01*
X3591Y2922D01*
X3592Y2920D01*
X3592Y2918D01*
X3592Y2916D01*
X3593Y2915D01*
X3593Y2913D01*
X3594Y2912D01*
X3594Y2911D01*
X3594Y2909D01*
X3595Y2909D01*
X3595Y2908D01*
X3596Y2907D01*
X3596Y2907D01*
X3596Y2906D01*
X3596Y2905D01*
X3597Y2904D01*
X3598Y2902D01*
X3600Y2901D01*
X3601Y2900D01*
X3602Y2899D01*
X3603Y2899D01*
X3603Y2898D01*
X3603Y2898D01*
X3605Y2897D01*
X3607Y2897D01*
X3609Y2896D01*
X3611Y2896D01*
X3613Y2896D01*
X3614Y2896D01*
X3615D01*
X3618Y2896D01*
X3620Y2896D01*
X3622Y2897D01*
X3624Y2897D01*
X3625Y2898D01*
X3626Y2898D01*
X3627Y2899D01*
X3627Y2899D01*
X3629Y2900D01*
X3630Y2901D01*
X3630Y2903D01*
X3631Y2904D01*
X3631Y2905D01*
X3631Y2906D01*
X3631Y2907D01*
Y2907D01*
X3631Y2908D01*
X3631Y2910D01*
X3631Y2910D01*
Y2911D01*
Y2911D01*
X3628Y2922D01*
X3618Y2971D01*
X3636D01*
X3646Y2924D01*
D02*
G37*
G36*
X3515Y2972D02*
X3518Y2972D01*
X3522Y2971D01*
X3526Y2970D01*
X3528Y2969D01*
X3529Y2969D01*
X3531Y2968D01*
X3532Y2968D01*
X3534Y2967D01*
X3535Y2966D01*
X3535Y2966D01*
X3536Y2966D01*
X3536Y2966D01*
X3536Y2965D01*
X3538Y2964D01*
X3540Y2963D01*
X3544Y2960D01*
X3547Y2956D01*
X3549Y2953D01*
X3550Y2952D01*
X3551Y2951D01*
X3552Y2949D01*
X3552Y2948D01*
X3553Y2947D01*
X3553Y2947D01*
X3553Y2946D01*
X3553Y2946D01*
X3554Y2944D01*
X3555Y2942D01*
X3557Y2937D01*
X3558Y2932D01*
X3558Y2930D01*
X3559Y2928D01*
X3559Y2926D01*
X3559Y2924D01*
X3559Y2923D01*
Y2921D01*
X3559Y2920D01*
Y2919D01*
Y2919D01*
Y2919D01*
X3559Y2915D01*
X3559Y2912D01*
X3559Y2909D01*
X3558Y2907D01*
X3557Y2904D01*
X3557Y2902D01*
X3556Y2899D01*
X3555Y2898D01*
X3554Y2896D01*
X3553Y2894D01*
X3552Y2893D01*
X3552Y2892D01*
X3551Y2891D01*
X3551Y2891D01*
X3550Y2890D01*
X3550Y2890D01*
X3549Y2889D01*
X3547Y2887D01*
X3545Y2886D01*
X3542Y2885D01*
X3540Y2884D01*
X3538Y2883D01*
X3536Y2882D01*
X3534Y2882D01*
X3532Y2881D01*
X3531Y2881D01*
X3529Y2881D01*
X3528Y2881D01*
X3527D01*
X3526Y2881D01*
X3525D01*
X3522Y2881D01*
X3520Y2881D01*
X3517Y2881D01*
X3515Y2882D01*
X3513Y2882D01*
X3511Y2883D01*
X3509Y2884D01*
X3507Y2885D01*
X3506Y2885D01*
X3504Y2886D01*
X3503Y2887D01*
X3502Y2887D01*
X3501Y2888D01*
X3501Y2888D01*
X3500Y2888D01*
X3500Y2888D01*
X3498Y2890D01*
X3496Y2892D01*
X3493Y2895D01*
X3490Y2899D01*
X3488Y2903D01*
X3487Y2904D01*
X3486Y2906D01*
X3485Y2907D01*
X3485Y2909D01*
X3484Y2910D01*
X3484Y2910D01*
X3484Y2911D01*
Y2911D01*
X3502Y2914D01*
X3503Y2911D01*
X3505Y2908D01*
X3506Y2906D01*
X3508Y2904D01*
X3509Y2902D01*
X3510Y2901D01*
X3511Y2901D01*
X3511Y2900D01*
X3511D01*
X3513Y2899D01*
X3515Y2898D01*
X3518Y2897D01*
X3520Y2896D01*
X3521Y2896D01*
X3523Y2896D01*
X3523Y2896D01*
X3524D01*
X3525Y2896D01*
X3527Y2896D01*
X3529Y2897D01*
X3531Y2898D01*
X3533Y2899D01*
X3534Y2900D01*
X3536Y2901D01*
X3536Y2901D01*
X3536Y2902D01*
X3538Y2904D01*
X3539Y2907D01*
X3540Y2909D01*
X3541Y2912D01*
X3541Y2914D01*
X3541Y2915D01*
Y2916D01*
X3541Y2917D01*
Y2917D01*
Y2918D01*
Y2918D01*
X3541Y2922D01*
X3541Y2925D01*
X3540Y2928D01*
X3540Y2931D01*
X3539Y2933D01*
X3539Y2934D01*
X3539Y2935D01*
X3538Y2936D01*
X3538Y2936D01*
X3538Y2937D01*
X3538Y2937D01*
Y2937D01*
X3536Y2941D01*
X3534Y2944D01*
X3533Y2946D01*
X3531Y2948D01*
X3529Y2950D01*
X3528Y2951D01*
X3527Y2952D01*
X3527Y2952D01*
X3527D01*
X3525Y2953D01*
X3522Y2954D01*
X3520Y2955D01*
X3518Y2956D01*
X3516Y2956D01*
X3514Y2956D01*
X3514Y2956D01*
X3513D01*
X3511Y2956D01*
X3509Y2956D01*
X3507Y2955D01*
X3505Y2955D01*
X3504Y2954D01*
X3503Y2953D01*
X3502Y2953D01*
X3502Y2953D01*
X3501Y2952D01*
X3500Y2950D01*
X3499Y2948D01*
X3498Y2946D01*
X3497Y2944D01*
X3497Y2943D01*
X3497Y2943D01*
Y2942D01*
X3497Y2942D01*
Y2942D01*
X3479Y2943D01*
X3480Y2946D01*
X3480Y2948D01*
X3481Y2950D01*
X3482Y2952D01*
X3482Y2954D01*
X3483Y2956D01*
X3484Y2958D01*
X3485Y2959D01*
X3486Y2960D01*
X3487Y2961D01*
X3488Y2962D01*
X3488Y2963D01*
X3489Y2964D01*
X3489Y2964D01*
X3490Y2964D01*
X3490Y2964D01*
X3491Y2966D01*
X3493Y2967D01*
X3495Y2968D01*
X3497Y2969D01*
X3499Y2970D01*
X3501Y2970D01*
X3505Y2971D01*
X3506Y2972D01*
X3508Y2972D01*
X3509Y2972D01*
X3510Y2972D01*
X3511Y2972D01*
X3513D01*
X3515Y2972D01*
D02*
G37*
G36*
X4038Y2882D02*
X4020D01*
X4009Y2902D01*
X3974D01*
X3971Y2882D01*
X3954D01*
X3968Y2971D01*
X3989D01*
X4038Y2882D01*
D02*
G37*
G36*
X3943D02*
X3925D01*
X3918Y2916D01*
X3900D01*
X3899Y2916D01*
X3896D01*
X3895Y2916D01*
X3893D01*
X3892Y2916D01*
X3891D01*
X3890Y2916D01*
X3890D01*
X3887Y2917D01*
X3885Y2917D01*
X3883Y2918D01*
X3881Y2918D01*
X3880Y2919D01*
X3879Y2919D01*
X3879Y2919D01*
X3878Y2919D01*
X3877Y2920D01*
X3875Y2921D01*
X3874Y2922D01*
X3873Y2923D01*
X3872Y2924D01*
X3871Y2924D01*
X3871Y2925D01*
X3870Y2925D01*
X3869Y2927D01*
X3868Y2928D01*
X3867Y2930D01*
X3866Y2932D01*
X3865Y2933D01*
X3865Y2934D01*
X3864Y2935D01*
X3864Y2935D01*
Y2935D01*
X3863Y2938D01*
X3862Y2940D01*
X3862Y2942D01*
X3862Y2944D01*
X3861Y2946D01*
X3861Y2947D01*
Y2948D01*
Y2948D01*
Y2948D01*
Y2948D01*
X3861Y2951D01*
X3862Y2953D01*
X3862Y2955D01*
X3863Y2957D01*
X3864Y2959D01*
X3864Y2960D01*
X3865Y2960D01*
X3865Y2961D01*
X3866Y2962D01*
X3867Y2964D01*
X3869Y2965D01*
X3870Y2966D01*
X3872Y2967D01*
X3873Y2968D01*
X3873Y2968D01*
X3873Y2968D01*
X3874D01*
X3876Y2969D01*
X3878Y2969D01*
X3881Y2970D01*
X3883Y2970D01*
X3885Y2970D01*
X3886D01*
X3887Y2971D01*
X3924D01*
X3943Y2882D01*
D02*
G37*
G36*
X3817Y2956D02*
X3791D01*
X3806Y2882D01*
X3788D01*
X3773Y2956D01*
X3747D01*
X3744Y2971D01*
X3814D01*
X3817Y2956D01*
D02*
G37*
G36*
X3700Y2972D02*
X3705Y2971D01*
X3708Y2971D01*
X3710Y2970D01*
X3711Y2970D01*
X3713Y2969D01*
X3714Y2969D01*
X3715Y2968D01*
X3716Y2968D01*
X3717Y2968D01*
X3717Y2967D01*
X3718Y2967D01*
X3718D01*
X3721Y2965D01*
X3724Y2963D01*
X3727Y2961D01*
X3729Y2958D01*
X3731Y2956D01*
X3732Y2956D01*
X3732Y2955D01*
X3733Y2954D01*
X3733Y2954D01*
X3733Y2954D01*
X3734Y2954D01*
X3736Y2950D01*
X3738Y2947D01*
X3739Y2943D01*
X3741Y2940D01*
X3741Y2939D01*
X3742Y2937D01*
X3742Y2936D01*
X3742Y2935D01*
X3743Y2935D01*
X3743Y2934D01*
X3743Y2934D01*
Y2933D01*
X3744Y2930D01*
X3744Y2927D01*
X3745Y2924D01*
X3745Y2922D01*
X3745Y2920D01*
Y2919D01*
X3745Y2918D01*
Y2918D01*
Y2917D01*
Y2917D01*
Y2917D01*
X3745Y2914D01*
X3745Y2911D01*
X3744Y2908D01*
X3743Y2905D01*
X3743Y2903D01*
X3743Y2902D01*
X3742Y2902D01*
X3742Y2901D01*
X3742Y2901D01*
X3742Y2900D01*
Y2900D01*
X3740Y2897D01*
X3738Y2895D01*
X3737Y2892D01*
X3735Y2890D01*
X3733Y2888D01*
X3731Y2887D01*
X3731Y2887D01*
X3730Y2886D01*
X3730Y2886D01*
X3730Y2886D01*
X3728Y2885D01*
X3727Y2884D01*
X3723Y2883D01*
X3720Y2882D01*
X3717Y2881D01*
X3715Y2881D01*
X3714Y2881D01*
X3712Y2881D01*
X3711D01*
X3710Y2881D01*
X3709D01*
X3707Y2881D01*
X3704Y2881D01*
X3699Y2882D01*
X3697Y2882D01*
X3695Y2883D01*
X3693Y2883D01*
X3691Y2884D01*
X3690Y2885D01*
X3688Y2885D01*
X3687Y2886D01*
X3686Y2886D01*
X3685Y2887D01*
X3684Y2887D01*
X3684Y2888D01*
X3684Y2888D01*
X3682Y2889D01*
X3680Y2891D01*
X3676Y2894D01*
X3675Y2895D01*
X3673Y2897D01*
X3672Y2899D01*
X3671Y2900D01*
X3670Y2902D01*
X3669Y2903D01*
X3668Y2904D01*
X3667Y2906D01*
X3667Y2907D01*
X3666Y2907D01*
X3666Y2908D01*
X3666Y2908D01*
X3665Y2910D01*
X3664Y2913D01*
X3663Y2915D01*
X3662Y2918D01*
X3661Y2922D01*
X3661Y2924D01*
X3660Y2926D01*
X3660Y2928D01*
X3660Y2930D01*
X3660Y2931D01*
X3660Y2932D01*
X3659Y2933D01*
Y2934D01*
Y2935D01*
Y2935D01*
X3660Y2938D01*
X3660Y2941D01*
X3660Y2944D01*
X3661Y2946D01*
X3662Y2949D01*
X3663Y2951D01*
X3663Y2953D01*
X3664Y2955D01*
X3665Y2956D01*
X3666Y2958D01*
X3667Y2959D01*
X3668Y2960D01*
X3669Y2961D01*
X3669Y2961D01*
X3669Y2962D01*
X3669Y2962D01*
X3671Y2964D01*
X3674Y2965D01*
X3676Y2967D01*
X3678Y2968D01*
X3680Y2969D01*
X3682Y2970D01*
X3684Y2970D01*
X3687Y2971D01*
X3688Y2971D01*
X3690Y2972D01*
X3692Y2972D01*
X3693Y2972D01*
X3694Y2972D01*
X3696D01*
X3700Y2972D01*
D02*
G37*
G36*
X4458Y3140D02*
X4461Y3140D01*
X4465Y3139D01*
X4469Y3138D01*
X4471Y3137D01*
X4472Y3137D01*
X4474Y3136D01*
X4475Y3135D01*
X4477Y3135D01*
X4478Y3134D01*
X4478Y3134D01*
X4479Y3133D01*
X4479Y3133D01*
X4479Y3133D01*
X4481Y3132D01*
X4483Y3130D01*
X4487Y3127D01*
X4490Y3124D01*
X4492Y3121D01*
X4493Y3120D01*
X4494Y3118D01*
X4495Y3117D01*
X4495Y3116D01*
X4496Y3115D01*
X4496Y3115D01*
X4496Y3114D01*
X4496Y3114D01*
X4497Y3112D01*
X4498Y3109D01*
X4500Y3104D01*
X4501Y3100D01*
X4501Y3098D01*
X4502Y3096D01*
X4502Y3094D01*
X4502Y3092D01*
X4502Y3090D01*
Y3089D01*
X4502Y3088D01*
Y3087D01*
Y3087D01*
Y3086D01*
X4502Y3083D01*
X4502Y3080D01*
X4502Y3077D01*
X4501Y3074D01*
X4500Y3072D01*
X4500Y3069D01*
X4499Y3067D01*
X4498Y3065D01*
X4497Y3064D01*
X4496Y3062D01*
X4495Y3061D01*
X4495Y3060D01*
X4494Y3059D01*
X4494Y3059D01*
X4494Y3058D01*
X4493Y3058D01*
X4492Y3056D01*
X4490Y3055D01*
X4488Y3054D01*
X4485Y3052D01*
X4483Y3052D01*
X4481Y3051D01*
X4479Y3050D01*
X4477Y3050D01*
X4475Y3049D01*
X4474Y3049D01*
X4472Y3049D01*
X4471Y3048D01*
X4470D01*
X4469Y3048D01*
X4468D01*
X4465Y3048D01*
X4463Y3049D01*
X4460Y3049D01*
X4458Y3050D01*
X4456Y3050D01*
X4454Y3051D01*
X4452Y3052D01*
X4450Y3052D01*
X4449Y3053D01*
X4447Y3054D01*
X4446Y3054D01*
X4445Y3055D01*
X4444Y3055D01*
X4444Y3056D01*
X4443Y3056D01*
X4443Y3056D01*
X4441Y3058D01*
X4439Y3059D01*
X4436Y3063D01*
X4433Y3067D01*
X4431Y3070D01*
X4430Y3072D01*
X4429Y3074D01*
X4428Y3075D01*
X4428Y3076D01*
X4427Y3077D01*
X4427Y3078D01*
X4427Y3079D01*
Y3079D01*
X4445Y3082D01*
X4446Y3078D01*
X4448Y3076D01*
X4449Y3073D01*
X4451Y3071D01*
X4452Y3070D01*
X4453Y3069D01*
X4454Y3068D01*
X4454Y3068D01*
X4454D01*
X4456Y3066D01*
X4458Y3065D01*
X4461Y3065D01*
X4463Y3064D01*
X4464Y3064D01*
X4466Y3064D01*
X4466Y3064D01*
X4467D01*
X4468Y3064D01*
X4470Y3064D01*
X4472Y3064D01*
X4474Y3065D01*
X4476Y3066D01*
X4477Y3067D01*
X4479Y3068D01*
X4479Y3069D01*
X4479Y3069D01*
X4481Y3072D01*
X4482Y3074D01*
X4483Y3077D01*
X4484Y3080D01*
X4484Y3082D01*
X4484Y3083D01*
Y3084D01*
X4484Y3085D01*
Y3085D01*
Y3086D01*
Y3086D01*
X4484Y3089D01*
X4484Y3093D01*
X4483Y3096D01*
X4483Y3099D01*
X4482Y3100D01*
X4482Y3102D01*
X4482Y3103D01*
X4481Y3103D01*
X4481Y3104D01*
X4481Y3105D01*
X4481Y3105D01*
Y3105D01*
X4479Y3109D01*
X4477Y3111D01*
X4476Y3114D01*
X4474Y3116D01*
X4472Y3118D01*
X4471Y3119D01*
X4470Y3119D01*
X4470Y3119D01*
X4470D01*
X4468Y3121D01*
X4465Y3122D01*
X4463Y3123D01*
X4461Y3124D01*
X4459Y3124D01*
X4457Y3124D01*
X4457Y3124D01*
X4456D01*
X4454Y3124D01*
X4452Y3124D01*
X4450Y3123D01*
X4448Y3122D01*
X4447Y3122D01*
X4446Y3121D01*
X4445Y3121D01*
X4445Y3121D01*
X4444Y3119D01*
X4443Y3117D01*
X4442Y3116D01*
X4441Y3114D01*
X4440Y3112D01*
X4440Y3111D01*
X4440Y3110D01*
Y3110D01*
X4440Y3110D01*
Y3110D01*
X4422Y3111D01*
X4423Y3114D01*
X4423Y3116D01*
X4424Y3118D01*
X4425Y3120D01*
X4425Y3122D01*
X4426Y3124D01*
X4427Y3125D01*
X4428Y3127D01*
X4429Y3128D01*
X4430Y3129D01*
X4431Y3130D01*
X4431Y3131D01*
X4432Y3131D01*
X4432Y3132D01*
X4433Y3132D01*
X4433Y3132D01*
X4434Y3134D01*
X4436Y3135D01*
X4438Y3136D01*
X4440Y3137D01*
X4442Y3137D01*
X4444Y3138D01*
X4448Y3139D01*
X4449Y3139D01*
X4451Y3140D01*
X4452Y3140D01*
X4453Y3140D01*
X4454Y3140D01*
X4456D01*
X4458Y3140D01*
D02*
G37*
G36*
X4924Y3123D02*
X4898D01*
X4914Y3050D01*
X4896D01*
X4880Y3123D01*
X4854D01*
X4852Y3138D01*
X4921D01*
X4924Y3123D01*
D02*
G37*
G36*
X4859Y3050D02*
X4841D01*
X4833Y3087D01*
X4790D01*
X4787Y3102D01*
X4830D01*
X4825Y3123D01*
X4782D01*
X4778Y3138D01*
X4840D01*
X4859Y3050D01*
D02*
G37*
G36*
X4773Y3123D02*
X4748D01*
X4763Y3050D01*
X4745D01*
X4730Y3123D01*
X4704D01*
X4701Y3138D01*
X4770D01*
X4773Y3123D01*
D02*
G37*
G36*
X4673Y3050D02*
X4610D01*
X4607Y3065D01*
X4652D01*
X4636Y3138D01*
X4655D01*
X4673Y3050D01*
D02*
G37*
G36*
X4598D02*
X4563D01*
X4561Y3050D01*
X4559Y3050D01*
X4558D01*
X4556Y3050D01*
X4555Y3051D01*
X4554Y3051D01*
X4553Y3051D01*
X4552Y3051D01*
X4551Y3051D01*
X4550D01*
X4550Y3051D01*
X4550Y3051D01*
X4549D01*
X4546Y3052D01*
X4543Y3053D01*
X4540Y3055D01*
X4537Y3056D01*
X4536Y3057D01*
X4535Y3057D01*
X4534Y3058D01*
X4534Y3058D01*
X4533Y3058D01*
X4533Y3059D01*
X4533D01*
X4530Y3061D01*
X4527Y3064D01*
X4525Y3067D01*
X4523Y3070D01*
X4521Y3072D01*
X4521Y3073D01*
X4520Y3074D01*
X4520Y3075D01*
X4520Y3076D01*
X4519Y3076D01*
Y3076D01*
X4518Y3078D01*
X4517Y3081D01*
X4516Y3085D01*
X4515Y3089D01*
X4515Y3091D01*
X4514Y3093D01*
X4514Y3095D01*
X4514Y3097D01*
X4514Y3098D01*
Y3099D01*
X4514Y3100D01*
Y3101D01*
Y3102D01*
Y3102D01*
Y3104D01*
X4514Y3106D01*
X4514Y3108D01*
X4514Y3110D01*
X4515Y3112D01*
X4515Y3113D01*
X4515Y3113D01*
X4515Y3114D01*
X4516Y3116D01*
X4516Y3118D01*
X4517Y3119D01*
X4518Y3121D01*
X4518Y3122D01*
X4519Y3123D01*
X4519Y3123D01*
X4519Y3124D01*
X4520Y3125D01*
X4521Y3126D01*
X4522Y3128D01*
X4523Y3129D01*
X4524Y3130D01*
X4525Y3130D01*
X4525Y3131D01*
X4525Y3131D01*
X4527Y3132D01*
X4528Y3133D01*
X4529Y3134D01*
X4530Y3134D01*
X4532Y3135D01*
X4532Y3135D01*
X4533Y3135D01*
X4533Y3136D01*
X4536Y3137D01*
X4538Y3137D01*
X4540Y3137D01*
X4541Y3138D01*
X4542Y3138D01*
X4543Y3138D01*
X4543D01*
X4544Y3138D01*
X4544D01*
X4546Y3138D01*
X4548D01*
X4550Y3138D01*
X4579D01*
X4598Y3050D01*
D02*
G37*
G36*
X3928Y872D02*
X3930Y872D01*
X3932Y871D01*
X3934Y871D01*
X3937Y870D01*
X3939Y869D01*
X3940Y868D01*
X3941Y867D01*
X3943Y867D01*
X3944Y866D01*
X3944Y866D01*
X3945Y865D01*
X3945Y865D01*
X3946Y864D01*
X3946Y864D01*
X3948Y862D01*
X3949Y860D01*
X3951Y857D01*
X3952Y855D01*
X3953Y853D01*
X3953Y852D01*
X3954Y851D01*
X3954Y850D01*
X3954Y850D01*
X3954Y850D01*
Y849D01*
X3938Y846D01*
X3938Y849D01*
X3937Y851D01*
X3936Y852D01*
X3935Y853D01*
X3935Y854D01*
X3934Y855D01*
X3934Y856D01*
X3934Y856D01*
X3933Y857D01*
X3931Y857D01*
X3930Y858D01*
X3929Y858D01*
X3928Y858D01*
X3928Y858D01*
X3927D01*
X3926Y858D01*
X3924Y858D01*
X3923Y858D01*
X3922Y857D01*
X3922Y857D01*
X3921Y856D01*
X3921Y856D01*
X3921Y856D01*
X3920Y855D01*
X3919Y854D01*
X3919Y853D01*
X3918Y852D01*
X3918Y851D01*
X3918Y850D01*
Y849D01*
Y849D01*
X3918Y847D01*
X3919Y845D01*
X3919Y843D01*
X3920Y842D01*
X3921Y841D01*
X3921Y840D01*
X3922Y839D01*
X3922Y839D01*
X3923Y838D01*
X3925Y837D01*
X3927Y837D01*
X3928Y836D01*
X3930Y836D01*
X3931Y836D01*
X3934D01*
X3937Y822D01*
X3936Y822D01*
X3935Y822D01*
X3934D01*
X3932Y822D01*
X3931Y821D01*
X3929Y821D01*
X3928Y820D01*
X3927Y820D01*
X3926Y819D01*
X3926Y819D01*
X3926Y819D01*
X3925Y817D01*
X3924Y816D01*
X3923Y815D01*
X3923Y813D01*
X3923Y812D01*
X3923Y811D01*
Y810D01*
Y810D01*
Y810D01*
X3923Y808D01*
X3923Y806D01*
X3924Y804D01*
X3925Y803D01*
X3925Y801D01*
X3926Y801D01*
X3926Y800D01*
X3927Y800D01*
X3928Y799D01*
X3930Y797D01*
X3931Y797D01*
X3933Y796D01*
X3934Y796D01*
X3935Y796D01*
X3936Y796D01*
X3936D01*
X3938Y796D01*
X3939Y796D01*
X3941Y797D01*
X3942Y797D01*
X3942Y798D01*
X3943Y798D01*
X3943Y798D01*
X3944Y799D01*
X3944Y800D01*
X3945Y801D01*
X3946Y803D01*
X3946Y804D01*
X3947Y806D01*
X3947Y807D01*
X3947Y808D01*
X3947Y808D01*
Y808D01*
Y808D01*
X3964Y806D01*
X3963Y804D01*
X3963Y802D01*
X3962Y800D01*
X3962Y799D01*
X3961Y797D01*
X3960Y795D01*
X3960Y794D01*
X3959Y793D01*
X3958Y792D01*
X3957Y791D01*
X3957Y790D01*
X3956Y789D01*
X3956Y789D01*
X3955Y788D01*
X3955Y788D01*
X3955Y788D01*
X3954Y787D01*
X3952Y786D01*
X3951Y785D01*
X3949Y784D01*
X3946Y783D01*
X3943Y783D01*
X3942Y782D01*
X3940Y782D01*
X3939Y782D01*
X3938Y782D01*
X3938Y782D01*
X3937D01*
X3934Y782D01*
X3931Y782D01*
X3929Y783D01*
X3926Y784D01*
X3924Y784D01*
X3922Y785D01*
X3920Y786D01*
X3919Y787D01*
X3917Y788D01*
X3916Y789D01*
X3915Y790D01*
X3914Y791D01*
X3913Y792D01*
X3913Y793D01*
X3912Y793D01*
X3912Y793D01*
X3911Y795D01*
X3910Y796D01*
X3909Y798D01*
X3908Y799D01*
X3907Y802D01*
X3906Y805D01*
X3906Y806D01*
X3906Y807D01*
X3905Y808D01*
X3905Y809D01*
X3905Y810D01*
Y811D01*
Y811D01*
Y811D01*
X3905Y813D01*
X3906Y815D01*
X3906Y816D01*
X3906Y818D01*
X3907Y819D01*
X3907Y820D01*
X3908Y821D01*
X3908Y821D01*
X3909Y822D01*
X3910Y824D01*
X3912Y825D01*
X3913Y826D01*
X3914Y827D01*
X3915Y828D01*
X3916Y828D01*
X3916Y828D01*
X3916D01*
X3914Y830D01*
X3911Y831D01*
X3909Y832D01*
X3908Y834D01*
X3907Y835D01*
X3906Y836D01*
X3905Y836D01*
X3905Y837D01*
X3904Y839D01*
X3903Y841D01*
X3902Y843D01*
X3901Y845D01*
X3901Y847D01*
X3901Y848D01*
Y848D01*
Y849D01*
Y849D01*
Y849D01*
X3901Y851D01*
X3901Y853D01*
X3902Y856D01*
X3903Y858D01*
X3904Y861D01*
X3905Y863D01*
X3906Y863D01*
X3906Y864D01*
X3907Y865D01*
X3907Y865D01*
X3907Y865D01*
X3907Y865D01*
X3909Y867D01*
X3910Y868D01*
X3911Y869D01*
X3913Y869D01*
X3916Y871D01*
X3919Y871D01*
X3922Y872D01*
X3923Y872D01*
X3924Y872D01*
X3925Y872D01*
X3926D01*
X3928Y872D01*
D02*
G37*
G36*
X3698Y783D02*
X3681D01*
X3667Y857D01*
X3664Y783D01*
X3647D01*
X3614Y857D01*
X3630Y783D01*
X3613D01*
X3597Y872D01*
X3623D01*
X3651Y811D01*
X3654Y872D01*
X3679D01*
X3698Y783D01*
D02*
G37*
G36*
X3872D02*
X3852D01*
X3804Y872D01*
X3822D01*
X3858Y805D01*
X3869Y872D01*
X3887D01*
X3872Y783D01*
D02*
G37*
G36*
X3595D02*
X3577D01*
X3570Y817D01*
X3552D01*
X3551Y817D01*
X3548D01*
X3547Y817D01*
X3545D01*
X3544Y818D01*
X3543D01*
X3542Y818D01*
X3542D01*
X3539Y818D01*
X3537Y819D01*
X3535Y819D01*
X3533Y820D01*
X3532Y820D01*
X3531Y820D01*
X3531Y820D01*
X3530Y821D01*
X3529Y821D01*
X3527Y822D01*
X3526Y823D01*
X3525Y824D01*
X3524Y825D01*
X3523Y826D01*
X3523Y826D01*
X3522Y826D01*
X3521Y828D01*
X3520Y829D01*
X3519Y831D01*
X3518Y833D01*
X3517Y834D01*
X3517Y835D01*
X3516Y836D01*
X3516Y836D01*
Y836D01*
X3515Y839D01*
X3514Y841D01*
X3514Y843D01*
X3514Y845D01*
X3513Y847D01*
X3513Y848D01*
Y849D01*
Y849D01*
Y849D01*
Y850D01*
X3513Y852D01*
X3514Y854D01*
X3514Y857D01*
X3515Y858D01*
X3516Y860D01*
X3516Y861D01*
X3517Y862D01*
X3517Y862D01*
X3518Y864D01*
X3519Y865D01*
X3521Y867D01*
X3522Y868D01*
X3524Y868D01*
X3525Y869D01*
X3525Y869D01*
X3525Y869D01*
X3526D01*
X3528Y870D01*
X3530Y871D01*
X3533Y871D01*
X3535Y871D01*
X3537Y872D01*
X3538D01*
X3539Y872D01*
X3576D01*
X3595Y783D01*
D02*
G37*
G36*
X3738Y873D02*
X3740Y873D01*
X3743Y873D01*
X3745Y872D01*
X3747Y872D01*
X3749Y871D01*
X3751Y870D01*
X3752Y870D01*
X3754Y869D01*
X3755Y868D01*
X3756Y868D01*
X3757Y867D01*
X3758Y867D01*
X3758Y866D01*
X3758Y866D01*
X3758Y866D01*
X3760Y865D01*
X3761Y863D01*
X3762Y861D01*
X3763Y860D01*
X3764Y858D01*
X3765Y857D01*
X3765Y854D01*
X3766Y853D01*
X3766Y851D01*
X3766Y850D01*
X3766Y849D01*
X3766Y848D01*
Y848D01*
Y847D01*
Y847D01*
X3766Y845D01*
X3766Y843D01*
X3766Y841D01*
X3765Y839D01*
X3765Y838D01*
X3764Y837D01*
X3764Y836D01*
X3764Y836D01*
X3763Y834D01*
X3761Y833D01*
X3760Y832D01*
X3759Y831D01*
X3758Y830D01*
X3757Y829D01*
X3757Y828D01*
X3756Y828D01*
X3755Y828D01*
X3754Y827D01*
X3752Y826D01*
X3749Y825D01*
X3747Y823D01*
X3745Y822D01*
X3744Y822D01*
X3743Y822D01*
X3742Y821D01*
X3742Y821D01*
X3741Y821D01*
X3741D01*
X3740Y820D01*
X3738Y819D01*
X3736Y819D01*
X3735Y818D01*
X3734Y818D01*
X3733Y817D01*
X3732Y816D01*
X3731Y816D01*
X3730Y815D01*
X3729Y815D01*
X3729Y815D01*
X3729Y814D01*
X3728Y813D01*
X3727Y812D01*
X3726Y811D01*
X3726Y810D01*
X3726Y809D01*
X3725Y808D01*
Y808D01*
Y808D01*
X3726Y806D01*
X3726Y805D01*
X3727Y803D01*
X3727Y802D01*
X3728Y801D01*
X3729Y801D01*
X3729Y800D01*
X3729Y800D01*
X3731Y799D01*
X3733Y798D01*
X3735Y798D01*
X3737Y797D01*
X3739Y797D01*
X3740D01*
X3741Y797D01*
X3744D01*
X3746Y797D01*
X3748Y797D01*
X3749Y798D01*
X3750Y798D01*
X3752Y798D01*
X3753Y799D01*
X3754Y799D01*
X3755Y800D01*
X3756Y801D01*
X3757Y801D01*
X3757Y802D01*
X3758Y803D01*
X3759Y805D01*
X3759Y806D01*
X3759Y808D01*
X3760Y810D01*
X3760Y812D01*
X3760Y812D01*
Y812D01*
Y813D01*
Y813D01*
X3777Y812D01*
X3777Y809D01*
X3777Y806D01*
X3776Y803D01*
X3776Y801D01*
X3775Y799D01*
X3775Y798D01*
X3774Y797D01*
X3774Y797D01*
X3774Y796D01*
X3774Y796D01*
Y796D01*
X3772Y794D01*
X3771Y792D01*
X3769Y790D01*
X3767Y788D01*
X3765Y787D01*
X3764Y786D01*
X3763Y786D01*
X3763Y786D01*
X3762Y786D01*
X3762D01*
X3759Y784D01*
X3756Y783D01*
X3752Y783D01*
X3749Y782D01*
X3748Y782D01*
X3747D01*
X3745Y782D01*
X3744Y782D01*
X3742D01*
X3739Y782D01*
X3737Y782D01*
X3734Y783D01*
X3732Y783D01*
X3729Y784D01*
X3727Y784D01*
X3725Y785D01*
X3723Y786D01*
X3722Y787D01*
X3721Y787D01*
X3719Y788D01*
X3718Y789D01*
X3718Y789D01*
X3717Y790D01*
X3717Y790D01*
X3717Y790D01*
X3715Y792D01*
X3714Y793D01*
X3712Y795D01*
X3711Y797D01*
X3710Y798D01*
X3710Y800D01*
X3709Y802D01*
X3709Y803D01*
X3708Y805D01*
X3708Y806D01*
X3708Y807D01*
X3708Y808D01*
X3707Y809D01*
Y810D01*
Y810D01*
Y810D01*
X3708Y812D01*
X3708Y813D01*
X3708Y816D01*
X3709Y819D01*
X3710Y821D01*
X3712Y823D01*
X3713Y825D01*
X3713Y825D01*
X3713Y825D01*
X3714Y825D01*
X3714Y826D01*
X3715Y826D01*
X3716Y827D01*
X3717Y828D01*
X3718Y829D01*
X3722Y831D01*
X3725Y832D01*
X3728Y834D01*
X3729Y835D01*
X3731Y835D01*
X3732Y836D01*
X3733Y836D01*
X3733Y836D01*
X3733Y836D01*
X3735Y837D01*
X3737Y838D01*
X3738Y839D01*
X3739Y839D01*
X3741Y840D01*
X3742Y840D01*
X3743Y841D01*
X3743Y841D01*
X3745Y842D01*
X3746Y843D01*
X3746Y843D01*
X3746Y843D01*
X3747Y844D01*
X3748Y845D01*
X3748Y846D01*
X3749Y847D01*
X3749Y848D01*
X3749Y849D01*
Y849D01*
Y850D01*
X3749Y851D01*
X3749Y852D01*
X3748Y853D01*
X3747Y854D01*
X3747Y855D01*
X3746Y856D01*
X3746Y856D01*
X3746Y856D01*
X3745Y857D01*
X3743Y858D01*
X3741Y858D01*
X3739Y859D01*
X3738Y859D01*
X3736Y859D01*
X3735D01*
X3733Y859D01*
X3730Y858D01*
X3728Y858D01*
X3727Y857D01*
X3725Y857D01*
X3724Y856D01*
X3724Y856D01*
X3724Y856D01*
X3722Y854D01*
X3721Y853D01*
X3720Y851D01*
X3720Y849D01*
X3719Y848D01*
X3719Y847D01*
X3719Y846D01*
Y846D01*
Y846D01*
X3702Y847D01*
X3702Y849D01*
X3702Y851D01*
X3703Y853D01*
X3703Y855D01*
X3704Y856D01*
X3705Y858D01*
X3706Y859D01*
X3707Y861D01*
X3707Y862D01*
X3708Y863D01*
X3709Y864D01*
X3710Y865D01*
X3710Y865D01*
X3711Y866D01*
X3711Y866D01*
X3711Y866D01*
X3713Y867D01*
X3714Y868D01*
X3716Y869D01*
X3718Y870D01*
X3720Y871D01*
X3722Y872D01*
X3726Y872D01*
X3728Y873D01*
X3730Y873D01*
X3731Y873D01*
X3733Y873D01*
X3734Y873D01*
X3735D01*
X3738Y873D01*
D02*
G37*
G36*
X3471D02*
X3473Y873D01*
X3476Y873D01*
X3478Y872D01*
X3480Y872D01*
X3482Y871D01*
X3484Y870D01*
X3485Y870D01*
X3487Y869D01*
X3488Y868D01*
X3489Y868D01*
X3490Y867D01*
X3490Y867D01*
X3491Y866D01*
X3491Y866D01*
X3491Y866D01*
X3493Y865D01*
X3494Y863D01*
X3495Y861D01*
X3496Y860D01*
X3497Y858D01*
X3497Y857D01*
X3498Y854D01*
X3499Y853D01*
X3499Y851D01*
X3499Y850D01*
X3499Y849D01*
X3499Y848D01*
Y848D01*
Y847D01*
Y847D01*
X3499Y845D01*
X3499Y843D01*
X3498Y841D01*
X3498Y839D01*
X3497Y838D01*
X3497Y837D01*
X3497Y836D01*
X3497Y836D01*
X3495Y834D01*
X3494Y833D01*
X3493Y832D01*
X3492Y831D01*
X3491Y830D01*
X3490Y829D01*
X3489Y828D01*
X3489Y828D01*
X3488Y828D01*
X3487Y827D01*
X3485Y826D01*
X3482Y825D01*
X3480Y823D01*
X3478Y822D01*
X3477Y822D01*
X3476Y822D01*
X3475Y821D01*
X3475Y821D01*
X3474Y821D01*
X3474D01*
X3472Y820D01*
X3471Y819D01*
X3469Y819D01*
X3468Y818D01*
X3467Y818D01*
X3466Y817D01*
X3465Y816D01*
X3464Y816D01*
X3463Y815D01*
X3462Y815D01*
X3462Y815D01*
X3461Y814D01*
X3460Y813D01*
X3460Y812D01*
X3459Y811D01*
X3459Y810D01*
X3458Y809D01*
X3458Y808D01*
Y808D01*
Y808D01*
X3458Y806D01*
X3459Y805D01*
X3459Y803D01*
X3460Y802D01*
X3461Y801D01*
X3462Y801D01*
X3462Y800D01*
X3462Y800D01*
X3464Y799D01*
X3466Y798D01*
X3468Y798D01*
X3470Y797D01*
X3472Y797D01*
X3473D01*
X3474Y797D01*
X3477D01*
X3479Y797D01*
X3480Y797D01*
X3482Y798D01*
X3483Y798D01*
X3484Y798D01*
X3486Y799D01*
X3486Y799D01*
X3488Y800D01*
X3489Y801D01*
X3490Y801D01*
X3490Y802D01*
X3491Y803D01*
X3491Y805D01*
X3492Y806D01*
X3492Y808D01*
X3492Y810D01*
X3492Y812D01*
X3493Y812D01*
Y812D01*
Y813D01*
Y813D01*
X3510Y812D01*
X3510Y809D01*
X3510Y806D01*
X3509Y803D01*
X3508Y801D01*
X3508Y799D01*
X3507Y798D01*
X3507Y797D01*
X3507Y797D01*
X3507Y796D01*
X3507Y796D01*
Y796D01*
X3505Y794D01*
X3503Y792D01*
X3501Y790D01*
X3500Y788D01*
X3498Y787D01*
X3496Y786D01*
X3496Y786D01*
X3495Y786D01*
X3495Y786D01*
X3495D01*
X3492Y784D01*
X3488Y783D01*
X3485Y783D01*
X3482Y782D01*
X3481Y782D01*
X3479D01*
X3478Y782D01*
X3477Y782D01*
X3475D01*
X3472Y782D01*
X3469Y782D01*
X3467Y783D01*
X3464Y783D01*
X3462Y784D01*
X3460Y784D01*
X3458Y785D01*
X3456Y786D01*
X3455Y787D01*
X3453Y787D01*
X3452Y788D01*
X3451Y789D01*
X3450Y789D01*
X3450Y790D01*
X3450Y790D01*
X3449Y790D01*
X3448Y792D01*
X3446Y793D01*
X3445Y795D01*
X3444Y797D01*
X3443Y798D01*
X3442Y800D01*
X3442Y802D01*
X3441Y803D01*
X3441Y805D01*
X3441Y806D01*
X3440Y807D01*
X3440Y808D01*
X3440Y809D01*
Y810D01*
Y810D01*
Y810D01*
X3440Y812D01*
X3440Y813D01*
X3441Y816D01*
X3442Y819D01*
X3443Y821D01*
X3444Y823D01*
X3445Y825D01*
X3446Y825D01*
X3446Y825D01*
X3446Y825D01*
X3446Y826D01*
X3447Y826D01*
X3448Y827D01*
X3450Y828D01*
X3451Y829D01*
X3454Y831D01*
X3458Y832D01*
X3461Y834D01*
X3462Y835D01*
X3463Y835D01*
X3465Y836D01*
X3465Y836D01*
X3466Y836D01*
X3466Y836D01*
X3468Y837D01*
X3469Y838D01*
X3471Y839D01*
X3472Y839D01*
X3473Y840D01*
X3474Y840D01*
X3475Y841D01*
X3476Y841D01*
X3478Y842D01*
X3478Y843D01*
X3479Y843D01*
X3479Y843D01*
X3480Y844D01*
X3481Y845D01*
X3481Y846D01*
X3481Y847D01*
X3482Y848D01*
X3482Y849D01*
Y849D01*
Y850D01*
X3482Y851D01*
X3481Y852D01*
X3481Y853D01*
X3480Y854D01*
X3480Y855D01*
X3479Y856D01*
X3479Y856D01*
X3479Y856D01*
X3477Y857D01*
X3476Y858D01*
X3474Y858D01*
X3472Y859D01*
X3471Y859D01*
X3469Y859D01*
X3468D01*
X3465Y859D01*
X3463Y858D01*
X3461Y858D01*
X3459Y857D01*
X3458Y857D01*
X3457Y856D01*
X3456Y856D01*
X3456Y856D01*
X3455Y854D01*
X3454Y853D01*
X3453Y851D01*
X3453Y849D01*
X3452Y848D01*
X3452Y847D01*
X3452Y846D01*
Y846D01*
Y846D01*
X3434Y847D01*
X3435Y849D01*
X3435Y851D01*
X3435Y853D01*
X3436Y855D01*
X3437Y856D01*
X3438Y858D01*
X3439Y859D01*
X3439Y861D01*
X3440Y862D01*
X3441Y863D01*
X3442Y864D01*
X3442Y865D01*
X3443Y865D01*
X3443Y866D01*
X3444Y866D01*
X3444Y866D01*
X3445Y867D01*
X3447Y868D01*
X3449Y869D01*
X3451Y870D01*
X3453Y871D01*
X3455Y872D01*
X3459Y872D01*
X3461Y873D01*
X3462Y873D01*
X3464Y873D01*
X3465Y873D01*
X3466Y873D01*
X3468D01*
X3471Y873D01*
D02*
G37*
G36*
X5531Y692D02*
X5517Y691D01*
X5515Y692D01*
X5514Y693D01*
X5513Y694D01*
X5512Y694D01*
X5512Y695D01*
X5511Y695D01*
X5511Y695D01*
X5511Y696D01*
X5509Y696D01*
X5508Y697D01*
X5507Y697D01*
X5506Y697D01*
X5505Y697D01*
X5505Y697D01*
X5504D01*
X5502Y697D01*
X5501Y697D01*
X5499Y696D01*
X5498Y696D01*
X5498Y695D01*
X5497Y694D01*
X5497Y694D01*
X5496Y694D01*
X5495Y693D01*
X5495Y691D01*
X5494Y690D01*
X5494Y688D01*
X5494Y687D01*
X5493Y686D01*
Y685D01*
Y685D01*
Y685D01*
X5494Y681D01*
X5494Y678D01*
X5495Y675D01*
X5496Y673D01*
X5497Y671D01*
X5497Y670D01*
X5498Y670D01*
X5498Y669D01*
X5498Y669D01*
X5499Y668D01*
Y668D01*
X5499Y667D01*
X5501Y666D01*
X5502Y665D01*
X5504Y664D01*
X5506Y663D01*
X5508Y663D01*
X5509Y663D01*
X5510Y662D01*
X5510D01*
X5511Y663D01*
X5513Y663D01*
X5514Y663D01*
X5515Y664D01*
X5516Y665D01*
X5516Y665D01*
X5517Y665D01*
X5517Y665D01*
X5518Y667D01*
X5518Y668D01*
X5519Y670D01*
X5519Y671D01*
X5520Y673D01*
X5520Y674D01*
Y674D01*
Y674D01*
Y675D01*
Y675D01*
X5520Y676D01*
Y676D01*
Y677D01*
X5536Y675D01*
X5536Y673D01*
X5536Y671D01*
X5536Y669D01*
X5535Y667D01*
X5535Y665D01*
X5534Y663D01*
X5533Y662D01*
X5533Y661D01*
X5532Y659D01*
X5531Y658D01*
X5531Y658D01*
X5530Y657D01*
X5530Y656D01*
X5529Y656D01*
X5529Y656D01*
X5529Y655D01*
X5528Y654D01*
X5526Y653D01*
X5525Y652D01*
X5523Y651D01*
X5520Y650D01*
X5517Y649D01*
X5516Y649D01*
X5514Y649D01*
X5513Y649D01*
X5512Y648D01*
X5512Y648D01*
X5510D01*
X5507Y649D01*
X5504Y649D01*
X5501Y650D01*
X5499Y651D01*
X5497Y652D01*
X5496Y652D01*
X5495Y652D01*
X5494Y653D01*
X5494Y653D01*
X5494Y653D01*
X5494D01*
X5491Y655D01*
X5488Y657D01*
X5486Y659D01*
X5484Y662D01*
X5483Y664D01*
X5482Y665D01*
X5482Y665D01*
X5481Y666D01*
X5481Y666D01*
X5481Y667D01*
Y667D01*
X5479Y670D01*
X5478Y673D01*
X5477Y676D01*
X5477Y679D01*
X5477Y680D01*
X5477Y681D01*
X5476Y682D01*
Y683D01*
X5476Y684D01*
Y684D01*
Y685D01*
Y685D01*
X5476Y687D01*
X5477Y689D01*
X5477Y692D01*
X5478Y694D01*
X5478Y696D01*
X5479Y697D01*
X5480Y698D01*
X5480Y699D01*
X5481Y700D01*
X5481Y701D01*
X5482Y702D01*
X5482Y702D01*
X5483Y703D01*
X5483Y703D01*
X5483Y703D01*
X5484Y704D01*
X5485Y705D01*
X5487Y706D01*
X5488Y707D01*
X5491Y708D01*
X5494Y709D01*
X5496Y710D01*
X5497Y710D01*
X5498Y710D01*
X5498Y710D01*
X5499D01*
X5501Y710D01*
X5503Y710D01*
X5504Y710D01*
X5504Y709D01*
X5504Y709D01*
X5505D01*
X5506Y709D01*
X5508Y708D01*
X5509Y708D01*
X5509Y708D01*
X5509Y708D01*
X5510D01*
X5506Y721D01*
X5476D01*
X5473Y737D01*
X5517D01*
X5531Y692D01*
D02*
G37*
G36*
X5272Y650D02*
X5255D01*
X5242Y724D01*
X5238Y650D01*
X5221D01*
X5188Y723D01*
X5204Y650D01*
X5187D01*
X5171Y738D01*
X5197D01*
X5225Y678D01*
X5228Y738D01*
X5254D01*
X5272Y650D01*
D02*
G37*
G36*
X5446D02*
X5426D01*
X5378Y738D01*
X5396D01*
X5432Y672D01*
X5443Y738D01*
X5461D01*
X5446Y650D01*
D02*
G37*
G36*
X5169D02*
X5151D01*
X5144Y684D01*
X5126D01*
X5125Y684D01*
X5122D01*
X5121Y684D01*
X5119D01*
X5118Y684D01*
X5117D01*
X5116Y684D01*
X5116D01*
X5114Y685D01*
X5111Y685D01*
X5109Y686D01*
X5108Y686D01*
X5106Y686D01*
X5105Y687D01*
X5105Y687D01*
X5104Y687D01*
X5103Y688D01*
X5101Y689D01*
X5100Y690D01*
X5099Y691D01*
X5098Y692D01*
X5097Y692D01*
X5097Y693D01*
X5096Y693D01*
X5095Y694D01*
X5094Y696D01*
X5093Y698D01*
X5092Y699D01*
X5091Y701D01*
X5091Y702D01*
X5090Y703D01*
X5090Y703D01*
Y703D01*
X5089Y705D01*
X5089Y708D01*
X5088Y710D01*
X5088Y712D01*
X5088Y714D01*
X5087Y715D01*
Y715D01*
Y716D01*
Y716D01*
Y716D01*
X5088Y719D01*
X5088Y721D01*
X5088Y723D01*
X5089Y725D01*
X5090Y726D01*
X5090Y728D01*
X5091Y728D01*
X5091Y728D01*
X5092Y730D01*
X5094Y732D01*
X5095Y733D01*
X5096Y734D01*
X5098Y735D01*
X5099Y736D01*
X5099Y736D01*
X5100Y736D01*
X5100D01*
X5102Y737D01*
X5104Y737D01*
X5107Y738D01*
X5109Y738D01*
X5111Y738D01*
X5112D01*
X5113Y738D01*
X5151D01*
X5169Y650D01*
D02*
G37*
G36*
X5312Y740D02*
X5314Y740D01*
X5317Y739D01*
X5319Y739D01*
X5321Y738D01*
X5323Y738D01*
X5325Y737D01*
X5326Y736D01*
X5328Y736D01*
X5329Y735D01*
X5330Y734D01*
X5331Y734D01*
X5332Y733D01*
X5332Y733D01*
X5332Y733D01*
X5332Y732D01*
X5334Y731D01*
X5335Y730D01*
X5336Y728D01*
X5337Y726D01*
X5338Y725D01*
X5339Y723D01*
X5339Y720D01*
X5340Y719D01*
X5340Y718D01*
X5340Y717D01*
X5340Y716D01*
X5340Y715D01*
Y714D01*
Y714D01*
Y714D01*
X5340Y712D01*
X5340Y709D01*
X5340Y708D01*
X5339Y706D01*
X5339Y705D01*
X5338Y704D01*
X5338Y703D01*
X5338Y703D01*
X5337Y701D01*
X5336Y699D01*
X5334Y698D01*
X5333Y697D01*
X5332Y696D01*
X5331Y695D01*
X5331Y695D01*
X5330Y695D01*
X5330Y694D01*
X5328Y694D01*
X5326Y692D01*
X5324Y691D01*
X5321Y690D01*
X5319Y689D01*
X5318Y689D01*
X5317Y688D01*
X5316Y688D01*
X5316Y688D01*
X5316Y687D01*
X5315D01*
X5314Y687D01*
X5312Y686D01*
X5310Y685D01*
X5309Y685D01*
X5308Y684D01*
X5307Y684D01*
X5306Y683D01*
X5305Y683D01*
X5304Y682D01*
X5303Y681D01*
X5303Y681D01*
X5303Y681D01*
X5302Y680D01*
X5301Y679D01*
X5300Y678D01*
X5300Y677D01*
X5300Y676D01*
X5299Y675D01*
Y674D01*
Y674D01*
X5300Y673D01*
X5300Y671D01*
X5301Y670D01*
X5301Y669D01*
X5302Y668D01*
X5303Y667D01*
X5303Y667D01*
X5304Y667D01*
X5305Y666D01*
X5307Y665D01*
X5309Y664D01*
X5311Y664D01*
X5313Y664D01*
X5314D01*
X5315Y664D01*
X5318D01*
X5320Y664D01*
X5322Y664D01*
X5323Y664D01*
X5325Y665D01*
X5326Y665D01*
X5327Y665D01*
X5328Y666D01*
X5329Y667D01*
X5330Y667D01*
X5331Y668D01*
X5331Y668D01*
X5332Y669D01*
X5333Y671D01*
X5333Y673D01*
X5333Y675D01*
X5334Y677D01*
X5334Y678D01*
X5334Y679D01*
Y679D01*
Y679D01*
Y679D01*
X5351Y678D01*
X5351Y675D01*
X5351Y672D01*
X5350Y670D01*
X5350Y667D01*
X5349Y665D01*
X5349Y665D01*
X5349Y664D01*
X5348Y663D01*
X5348Y663D01*
X5348Y663D01*
Y663D01*
X5346Y660D01*
X5345Y658D01*
X5343Y656D01*
X5341Y655D01*
X5339Y654D01*
X5338Y653D01*
X5337Y652D01*
X5337Y652D01*
X5336Y652D01*
X5336D01*
X5333Y651D01*
X5330Y650D01*
X5326Y649D01*
X5323Y649D01*
X5322Y649D01*
X5321D01*
X5319Y648D01*
X5318Y648D01*
X5317D01*
X5313Y648D01*
X5311Y649D01*
X5308Y649D01*
X5306Y650D01*
X5303Y650D01*
X5301Y651D01*
X5299Y652D01*
X5298Y653D01*
X5296Y653D01*
X5295Y654D01*
X5293Y655D01*
X5292Y655D01*
X5292Y656D01*
X5291Y656D01*
X5291Y657D01*
X5291Y657D01*
X5289Y658D01*
X5288Y660D01*
X5286Y662D01*
X5285Y663D01*
X5285Y665D01*
X5284Y667D01*
X5283Y668D01*
X5283Y670D01*
X5282Y671D01*
X5282Y672D01*
X5282Y674D01*
X5282Y675D01*
X5281Y675D01*
Y676D01*
Y677D01*
Y677D01*
X5282Y678D01*
X5282Y680D01*
X5282Y683D01*
X5283Y686D01*
X5285Y688D01*
X5286Y690D01*
X5287Y691D01*
X5287Y691D01*
X5287Y692D01*
X5288Y692D01*
X5288Y692D01*
X5289Y693D01*
X5290Y694D01*
X5291Y695D01*
X5293Y696D01*
X5296Y697D01*
X5299Y699D01*
X5302Y700D01*
X5304Y701D01*
X5305Y702D01*
X5306Y702D01*
X5307Y703D01*
X5307Y703D01*
X5307Y703D01*
X5309Y704D01*
X5311Y704D01*
X5312Y705D01*
X5313Y706D01*
X5315Y706D01*
X5316Y707D01*
X5317Y708D01*
X5318Y708D01*
X5319Y709D01*
X5320Y709D01*
X5320Y710D01*
X5320Y710D01*
X5321Y711D01*
X5322Y712D01*
X5322Y713D01*
X5323Y714D01*
X5323Y715D01*
X5323Y715D01*
Y716D01*
Y716D01*
X5323Y717D01*
X5323Y719D01*
X5322Y720D01*
X5322Y721D01*
X5321Y722D01*
X5320Y722D01*
X5320Y723D01*
X5320Y723D01*
X5319Y724D01*
X5317Y724D01*
X5315Y725D01*
X5313Y725D01*
X5312Y725D01*
X5311Y725D01*
X5309D01*
X5307Y725D01*
X5304Y725D01*
X5302Y724D01*
X5301Y724D01*
X5299Y723D01*
X5298Y723D01*
X5298Y722D01*
X5298Y722D01*
X5296Y721D01*
X5295Y719D01*
X5294Y717D01*
X5294Y716D01*
X5293Y715D01*
X5293Y713D01*
X5293Y713D01*
Y712D01*
Y712D01*
X5276Y713D01*
X5276Y715D01*
X5276Y717D01*
X5277Y719D01*
X5277Y721D01*
X5278Y723D01*
X5279Y725D01*
X5280Y726D01*
X5281Y727D01*
X5281Y729D01*
X5282Y730D01*
X5283Y730D01*
X5284Y731D01*
X5284Y732D01*
X5285Y732D01*
X5285Y732D01*
X5285Y732D01*
X5287Y734D01*
X5288Y735D01*
X5290Y736D01*
X5292Y737D01*
X5294Y737D01*
X5296Y738D01*
X5300Y739D01*
X5302Y739D01*
X5304Y740D01*
X5305Y740D01*
X5307Y740D01*
X5308Y740D01*
X5309D01*
X5312Y740D01*
D02*
G37*
G36*
X5045D02*
X5047Y740D01*
X5050Y739D01*
X5052Y739D01*
X5054Y738D01*
X5056Y738D01*
X5058Y737D01*
X5059Y736D01*
X5061Y736D01*
X5062Y735D01*
X5063Y734D01*
X5064Y734D01*
X5064Y733D01*
X5065Y733D01*
X5065Y733D01*
X5065Y732D01*
X5067Y731D01*
X5068Y730D01*
X5069Y728D01*
X5070Y726D01*
X5071Y725D01*
X5071Y723D01*
X5072Y720D01*
X5073Y719D01*
X5073Y718D01*
X5073Y717D01*
X5073Y716D01*
X5073Y715D01*
Y714D01*
Y714D01*
Y714D01*
X5073Y712D01*
X5073Y709D01*
X5072Y708D01*
X5072Y706D01*
X5071Y705D01*
X5071Y704D01*
X5071Y703D01*
X5071Y703D01*
X5069Y701D01*
X5068Y699D01*
X5067Y698D01*
X5066Y697D01*
X5065Y696D01*
X5064Y695D01*
X5063Y695D01*
X5063Y695D01*
X5062Y694D01*
X5061Y694D01*
X5059Y692D01*
X5056Y691D01*
X5054Y690D01*
X5052Y689D01*
X5051Y689D01*
X5050Y688D01*
X5049Y688D01*
X5049Y688D01*
X5048Y687D01*
X5048D01*
X5046Y687D01*
X5045Y686D01*
X5043Y685D01*
X5042Y685D01*
X5041Y684D01*
X5040Y684D01*
X5039Y683D01*
X5038Y683D01*
X5037Y682D01*
X5036Y681D01*
X5036Y681D01*
X5036Y681D01*
X5034Y680D01*
X5034Y679D01*
X5033Y678D01*
X5033Y677D01*
X5032Y676D01*
X5032Y675D01*
Y674D01*
Y674D01*
X5032Y673D01*
X5033Y671D01*
X5033Y670D01*
X5034Y669D01*
X5035Y668D01*
X5036Y667D01*
X5036Y667D01*
X5036Y667D01*
X5038Y666D01*
X5040Y665D01*
X5042Y664D01*
X5044Y664D01*
X5046Y664D01*
X5047D01*
X5048Y664D01*
X5051D01*
X5053Y664D01*
X5055Y664D01*
X5056Y664D01*
X5057Y665D01*
X5058Y665D01*
X5060Y665D01*
X5061Y666D01*
X5062Y667D01*
X5063Y667D01*
X5064Y668D01*
X5064Y668D01*
X5065Y669D01*
X5065Y671D01*
X5066Y673D01*
X5066Y675D01*
X5066Y677D01*
X5067Y678D01*
X5067Y679D01*
Y679D01*
Y679D01*
Y679D01*
X5084Y678D01*
X5084Y675D01*
X5084Y672D01*
X5083Y670D01*
X5082Y667D01*
X5082Y665D01*
X5082Y665D01*
X5081Y664D01*
X5081Y663D01*
X5081Y663D01*
X5081Y663D01*
Y663D01*
X5079Y660D01*
X5077Y658D01*
X5076Y656D01*
X5074Y655D01*
X5072Y654D01*
X5070Y653D01*
X5070Y652D01*
X5069Y652D01*
X5069Y652D01*
X5069D01*
X5066Y651D01*
X5062Y650D01*
X5059Y649D01*
X5056Y649D01*
X5055Y649D01*
X5053D01*
X5052Y648D01*
X5051Y648D01*
X5049D01*
X5046Y648D01*
X5043Y649D01*
X5041Y649D01*
X5038Y650D01*
X5036Y650D01*
X5034Y651D01*
X5032Y652D01*
X5030Y653D01*
X5029Y653D01*
X5027Y654D01*
X5026Y655D01*
X5025Y655D01*
X5025Y656D01*
X5024Y656D01*
X5024Y657D01*
X5024Y657D01*
X5022Y658D01*
X5020Y660D01*
X5019Y662D01*
X5018Y663D01*
X5017Y665D01*
X5017Y667D01*
X5016Y668D01*
X5015Y670D01*
X5015Y671D01*
X5015Y672D01*
X5014Y674D01*
X5014Y675D01*
X5014Y675D01*
Y676D01*
Y677D01*
Y677D01*
X5014Y678D01*
X5014Y680D01*
X5015Y683D01*
X5016Y686D01*
X5017Y688D01*
X5018Y690D01*
X5019Y691D01*
X5020Y691D01*
X5020Y692D01*
X5020Y692D01*
X5020Y692D01*
X5021Y693D01*
X5023Y694D01*
X5024Y695D01*
X5025Y696D01*
X5029Y697D01*
X5032Y699D01*
X5035Y700D01*
X5036Y701D01*
X5038Y702D01*
X5039Y702D01*
X5039Y703D01*
X5040Y703D01*
X5040Y703D01*
X5042Y704D01*
X5043Y704D01*
X5045Y705D01*
X5046Y706D01*
X5048Y706D01*
X5049Y707D01*
X5049Y708D01*
X5050Y708D01*
X5052Y709D01*
X5052Y709D01*
X5053Y710D01*
X5053Y710D01*
X5054Y711D01*
X5055Y712D01*
X5055Y713D01*
X5056Y714D01*
X5056Y715D01*
X5056Y715D01*
Y716D01*
Y716D01*
X5056Y717D01*
X5055Y719D01*
X5055Y720D01*
X5054Y721D01*
X5054Y722D01*
X5053Y722D01*
X5053Y723D01*
X5053Y723D01*
X5051Y724D01*
X5050Y724D01*
X5048Y725D01*
X5046Y725D01*
X5045Y725D01*
X5043Y725D01*
X5042D01*
X5039Y725D01*
X5037Y725D01*
X5035Y724D01*
X5033Y724D01*
X5032Y723D01*
X5031Y723D01*
X5031Y722D01*
X5030Y722D01*
X5029Y721D01*
X5028Y719D01*
X5027Y717D01*
X5027Y716D01*
X5026Y715D01*
X5026Y713D01*
X5026Y713D01*
Y712D01*
Y712D01*
X5008Y713D01*
X5009Y715D01*
X5009Y717D01*
X5010Y719D01*
X5010Y721D01*
X5011Y723D01*
X5012Y725D01*
X5013Y726D01*
X5013Y727D01*
X5014Y729D01*
X5015Y730D01*
X5016Y730D01*
X5016Y731D01*
X5017Y732D01*
X5017Y732D01*
X5018Y732D01*
X5018Y732D01*
X5019Y734D01*
X5021Y735D01*
X5023Y736D01*
X5025Y737D01*
X5027Y737D01*
X5029Y738D01*
X5033Y739D01*
X5035Y739D01*
X5037Y740D01*
X5038Y740D01*
X5039Y740D01*
X5040Y740D01*
X5042D01*
X5045Y740D01*
D02*
G37*
G36*
X2751Y632D02*
X2733D01*
X2725Y671D01*
X2690D01*
X2698Y632D01*
X2680D01*
X2662Y720D01*
X2680D01*
X2687Y686D01*
X2721D01*
X2714Y720D01*
X2732D01*
X2751Y632D01*
D02*
G37*
G36*
X2789Y722D02*
X2791Y722D01*
X2796Y721D01*
X2800Y720D01*
X2802Y719D01*
X2803Y718D01*
X2805Y718D01*
X2806Y717D01*
X2807Y717D01*
X2808Y716D01*
X2809Y716D01*
X2810Y715D01*
X2810Y715D01*
X2810Y715D01*
X2812Y714D01*
X2814Y712D01*
X2818Y709D01*
X2820Y706D01*
X2823Y703D01*
X2824Y702D01*
X2825Y700D01*
X2826Y699D01*
X2826Y698D01*
X2827Y697D01*
X2827Y696D01*
X2827Y696D01*
X2827Y696D01*
X2828Y693D01*
X2829Y691D01*
X2831Y686D01*
X2832Y682D01*
X2832Y679D01*
X2833Y677D01*
X2833Y675D01*
X2833Y674D01*
X2833Y672D01*
Y671D01*
X2833Y670D01*
Y669D01*
Y668D01*
Y668D01*
X2833Y665D01*
X2833Y662D01*
X2832Y659D01*
X2832Y656D01*
X2831Y654D01*
X2831Y651D01*
X2830Y649D01*
X2829Y647D01*
X2828Y646D01*
X2827Y644D01*
X2826Y643D01*
X2826Y642D01*
X2825Y641D01*
X2825Y640D01*
X2824Y640D01*
X2824Y640D01*
X2822Y638D01*
X2821Y637D01*
X2819Y635D01*
X2816Y634D01*
X2814Y633D01*
X2812Y633D01*
X2810Y632D01*
X2808Y632D01*
X2806Y631D01*
X2804Y631D01*
X2803Y630D01*
X2802Y630D01*
X2800D01*
X2800Y630D01*
X2799D01*
X2796Y630D01*
X2794Y631D01*
X2791Y631D01*
X2789Y632D01*
X2787Y632D01*
X2785Y633D01*
X2783Y633D01*
X2781Y634D01*
X2780Y635D01*
X2778Y636D01*
X2777Y636D01*
X2776Y637D01*
X2775Y637D01*
X2774Y638D01*
X2774Y638D01*
X2774Y638D01*
X2772Y640D01*
X2770Y641D01*
X2767Y645D01*
X2764Y649D01*
X2762Y652D01*
X2761Y654D01*
X2760Y656D01*
X2759Y657D01*
X2759Y658D01*
X2758Y659D01*
X2758Y660D01*
X2758Y661D01*
Y661D01*
X2776Y664D01*
X2777Y660D01*
X2779Y658D01*
X2780Y655D01*
X2782Y653D01*
X2783Y652D01*
X2784Y651D01*
X2785Y650D01*
X2785Y650D01*
X2785D01*
X2787Y648D01*
X2789Y647D01*
X2791Y647D01*
X2794Y646D01*
X2795Y646D01*
X2797Y646D01*
X2797Y645D01*
X2798D01*
X2799Y646D01*
X2800Y646D01*
X2803Y646D01*
X2805Y647D01*
X2807Y648D01*
X2808Y649D01*
X2809Y650D01*
X2810Y651D01*
X2810Y651D01*
X2812Y654D01*
X2813Y656D01*
X2814Y659D01*
X2815Y662D01*
X2815Y664D01*
X2815Y665D01*
Y666D01*
X2815Y667D01*
Y667D01*
Y667D01*
Y668D01*
X2815Y671D01*
X2815Y675D01*
X2814Y678D01*
X2813Y681D01*
X2813Y682D01*
X2813Y683D01*
X2812Y684D01*
X2812Y685D01*
X2812Y686D01*
X2812Y687D01*
X2812Y687D01*
Y687D01*
X2810Y690D01*
X2808Y693D01*
X2806Y696D01*
X2805Y698D01*
X2803Y699D01*
X2802Y700D01*
X2801Y701D01*
X2801Y701D01*
X2801D01*
X2799Y703D01*
X2796Y704D01*
X2794Y705D01*
X2792Y705D01*
X2790Y706D01*
X2788Y706D01*
X2788Y706D01*
X2787D01*
X2785Y706D01*
X2782Y706D01*
X2781Y705D01*
X2779Y704D01*
X2778Y704D01*
X2777Y703D01*
X2776Y703D01*
X2776Y703D01*
X2775Y701D01*
X2774Y699D01*
X2772Y698D01*
X2772Y696D01*
X2771Y694D01*
X2771Y693D01*
X2771Y692D01*
Y692D01*
X2770Y692D01*
Y691D01*
X2753Y693D01*
X2753Y696D01*
X2754Y698D01*
X2755Y700D01*
X2755Y702D01*
X2756Y704D01*
X2757Y706D01*
X2758Y707D01*
X2759Y709D01*
X2760Y710D01*
X2761Y711D01*
X2762Y712D01*
X2762Y713D01*
X2763Y713D01*
X2763Y714D01*
X2763Y714D01*
X2764Y714D01*
X2765Y715D01*
X2767Y717D01*
X2769Y718D01*
X2771Y718D01*
X2773Y719D01*
X2775Y720D01*
X2778Y721D01*
X2780Y721D01*
X2782Y721D01*
X2783Y722D01*
X2784Y722D01*
X2785Y722D01*
X2787D01*
X2789Y722D01*
D02*
G37*
G36*
X2432D02*
X2435Y721D01*
X2437Y721D01*
X2440Y721D01*
X2442Y720D01*
X2444Y719D01*
X2446Y719D01*
X2448Y718D01*
X2450Y717D01*
X2451Y716D01*
X2453Y716D01*
X2454Y715D01*
X2455Y715D01*
X2455Y714D01*
X2456Y714D01*
X2456Y714D01*
X2458Y712D01*
X2460Y711D01*
X2463Y707D01*
X2465Y705D01*
X2466Y703D01*
X2468Y702D01*
X2469Y700D01*
X2470Y698D01*
X2471Y697D01*
X2471Y695D01*
X2472Y694D01*
X2472Y693D01*
X2473Y692D01*
X2473Y692D01*
X2473Y692D01*
X2475Y687D01*
X2476Y683D01*
X2477Y679D01*
X2477Y677D01*
X2478Y675D01*
X2478Y673D01*
X2478Y672D01*
X2478Y670D01*
Y669D01*
X2478Y668D01*
Y668D01*
Y667D01*
Y667D01*
X2478Y664D01*
X2478Y660D01*
X2477Y657D01*
X2476Y654D01*
X2475Y652D01*
X2475Y649D01*
X2473Y647D01*
X2472Y645D01*
X2471Y643D01*
X2470Y642D01*
X2469Y641D01*
X2468Y640D01*
X2468Y639D01*
X2467Y638D01*
X2466Y638D01*
X2466Y638D01*
X2465Y636D01*
X2463Y635D01*
X2461Y634D01*
X2459Y633D01*
X2457Y633D01*
X2455Y632D01*
X2451Y631D01*
X2449Y631D01*
X2447Y631D01*
X2445Y630D01*
X2444Y630D01*
X2443Y630D01*
X2441D01*
X2437Y630D01*
X2434Y631D01*
X2430Y631D01*
X2427Y632D01*
X2426Y632D01*
X2424Y632D01*
X2423Y633D01*
X2422Y633D01*
X2422Y633D01*
X2421Y633D01*
X2421Y633D01*
X2421D01*
X2417Y635D01*
X2414Y636D01*
X2411Y637D01*
X2408Y638D01*
X2407Y639D01*
X2406Y639D01*
X2405Y640D01*
X2405Y640D01*
X2404Y641D01*
X2404Y641D01*
X2404Y641D01*
X2403D01*
X2395Y679D01*
X2435D01*
X2438Y664D01*
X2415D01*
X2418Y651D01*
X2420Y650D01*
X2422Y649D01*
X2424Y649D01*
X2425Y648D01*
X2427Y648D01*
X2428Y647D01*
X2428Y647D01*
X2429Y647D01*
X2429D01*
X2431Y647D01*
X2433Y646D01*
X2435Y646D01*
X2437Y646D01*
X2439Y646D01*
X2440Y645D01*
X2441D01*
X2444Y646D01*
X2447Y646D01*
X2450Y647D01*
X2452Y648D01*
X2453Y649D01*
X2455Y650D01*
X2455Y650D01*
X2456Y651D01*
X2457Y652D01*
X2457Y653D01*
X2459Y655D01*
X2459Y658D01*
X2460Y661D01*
X2460Y663D01*
X2460Y664D01*
Y665D01*
X2461Y666D01*
Y667D01*
Y667D01*
Y667D01*
X2460Y671D01*
X2460Y675D01*
X2459Y679D01*
X2459Y680D01*
X2459Y682D01*
X2458Y683D01*
X2458Y685D01*
X2457Y686D01*
X2457Y686D01*
X2457Y687D01*
X2457Y688D01*
X2457Y688D01*
Y688D01*
X2455Y692D01*
X2453Y694D01*
X2451Y697D01*
X2449Y699D01*
X2448Y700D01*
X2446Y702D01*
X2446Y702D01*
X2445Y702D01*
X2445Y702D01*
X2445D01*
X2442Y704D01*
X2439Y705D01*
X2437Y706D01*
X2434Y706D01*
X2432Y707D01*
X2431Y707D01*
X2430D01*
X2430Y707D01*
X2429D01*
X2426Y707D01*
X2424Y706D01*
X2422Y706D01*
X2420Y705D01*
X2418Y705D01*
X2417Y704D01*
X2417Y703D01*
X2417Y703D01*
X2415Y702D01*
X2413Y700D01*
X2412Y698D01*
X2411Y696D01*
X2410Y695D01*
X2410Y693D01*
X2409Y693D01*
X2409Y692D01*
X2409Y692D01*
Y692D01*
X2392Y694D01*
X2393Y696D01*
X2394Y699D01*
X2395Y701D01*
X2395Y703D01*
X2396Y705D01*
X2398Y706D01*
X2399Y708D01*
X2400Y709D01*
X2401Y711D01*
X2402Y712D01*
X2402Y713D01*
X2403Y713D01*
X2404Y714D01*
X2404Y714D01*
X2405Y715D01*
X2405Y715D01*
X2406Y716D01*
X2408Y717D01*
X2410Y718D01*
X2412Y719D01*
X2416Y720D01*
X2420Y721D01*
X2422Y721D01*
X2424Y721D01*
X2425Y722D01*
X2427Y722D01*
X2428Y722D01*
X2429D01*
X2432Y722D01*
D02*
G37*
G36*
X2668Y632D02*
X2650D01*
X2639Y651D01*
X2604D01*
X2601Y632D01*
X2584D01*
X2598Y720D01*
X2619D01*
X2668Y632D01*
D02*
G37*
G36*
X2573D02*
X2555D01*
X2547Y668D01*
X2540D01*
X2537Y668D01*
X2535Y668D01*
X2534Y668D01*
X2533Y667D01*
X2532Y667D01*
X2531Y667D01*
X2531Y667D01*
X2530Y667D01*
X2530Y666D01*
X2529Y665D01*
X2527Y664D01*
X2526Y662D01*
X2525Y660D01*
X2524Y658D01*
X2523Y656D01*
X2523Y656D01*
X2523Y655D01*
X2523Y655D01*
Y655D01*
X2521Y652D01*
X2520Y650D01*
X2519Y647D01*
X2518Y645D01*
X2517Y643D01*
X2517Y641D01*
X2516Y639D01*
X2515Y638D01*
X2515Y636D01*
X2514Y635D01*
X2514Y634D01*
X2514Y633D01*
X2514Y633D01*
X2513Y632D01*
X2513Y632D01*
Y632D01*
X2494D01*
X2495Y635D01*
X2497Y639D01*
X2498Y642D01*
X2499Y644D01*
X2500Y647D01*
X2501Y649D01*
X2502Y652D01*
X2503Y654D01*
X2504Y655D01*
X2505Y657D01*
X2506Y658D01*
X2506Y659D01*
X2507Y660D01*
X2507Y661D01*
X2507Y661D01*
X2507Y661D01*
X2509Y663D01*
X2510Y665D01*
X2511Y666D01*
X2512Y667D01*
X2513Y668D01*
X2513Y669D01*
X2514Y669D01*
X2514Y669D01*
X2511Y670D01*
X2509Y670D01*
X2507Y671D01*
X2505Y671D01*
X2503Y672D01*
X2501Y673D01*
X2500Y674D01*
X2499Y674D01*
X2497Y675D01*
X2496Y676D01*
X2496Y677D01*
X2495Y677D01*
X2494Y678D01*
X2494Y678D01*
X2494Y678D01*
X2494Y678D01*
X2492Y680D01*
X2491Y681D01*
X2490Y683D01*
X2490Y684D01*
X2488Y687D01*
X2488Y690D01*
X2487Y692D01*
X2487Y693D01*
X2487Y694D01*
X2487Y695D01*
X2487Y696D01*
Y696D01*
Y697D01*
Y697D01*
X2487Y700D01*
X2487Y702D01*
X2488Y705D01*
X2489Y707D01*
X2489Y708D01*
X2490Y709D01*
X2490Y710D01*
X2490Y710D01*
X2492Y712D01*
X2493Y714D01*
X2495Y715D01*
X2496Y716D01*
X2497Y717D01*
X2498Y718D01*
X2499Y718D01*
X2499Y718D01*
X2499D01*
X2502Y719D01*
X2504Y719D01*
X2507Y720D01*
X2509Y720D01*
X2512Y720D01*
X2513Y720D01*
X2554D01*
X2573Y632D01*
D02*
G37*
G36*
X2388D02*
X2319D01*
X2316Y647D01*
X2367D01*
X2362Y671D01*
X2316D01*
X2313Y685D01*
X2359D01*
X2355Y705D01*
X2307D01*
X2304Y720D01*
X2370D01*
X2388Y632D01*
D02*
G37*
G36*
X2305D02*
X2287D01*
X2280Y668D01*
X2272D01*
X2270Y668D01*
X2268Y668D01*
X2267Y668D01*
X2265Y667D01*
X2265Y667D01*
X2264Y667D01*
X2264Y667D01*
X2263Y667D01*
X2263Y666D01*
X2262Y665D01*
X2260Y664D01*
X2259Y662D01*
X2258Y660D01*
X2257Y658D01*
X2256Y656D01*
X2256Y656D01*
X2256Y655D01*
X2255Y655D01*
Y655D01*
X2254Y652D01*
X2253Y650D01*
X2252Y647D01*
X2251Y645D01*
X2250Y643D01*
X2249Y641D01*
X2249Y639D01*
X2248Y638D01*
X2248Y636D01*
X2247Y635D01*
X2247Y634D01*
X2247Y633D01*
X2246Y633D01*
X2246Y632D01*
X2246Y632D01*
Y632D01*
X2227D01*
X2228Y635D01*
X2229Y639D01*
X2231Y642D01*
X2232Y644D01*
X2233Y647D01*
X2234Y649D01*
X2235Y652D01*
X2236Y654D01*
X2237Y655D01*
X2238Y657D01*
X2239Y658D01*
X2239Y659D01*
X2240Y660D01*
X2240Y661D01*
X2240Y661D01*
X2240Y661D01*
X2241Y663D01*
X2243Y665D01*
X2244Y666D01*
X2245Y667D01*
X2246Y668D01*
X2246Y669D01*
X2247Y669D01*
X2247Y669D01*
X2244Y670D01*
X2242Y670D01*
X2240Y671D01*
X2238Y671D01*
X2236Y672D01*
X2234Y673D01*
X2233Y674D01*
X2232Y674D01*
X2230Y675D01*
X2229Y676D01*
X2228Y677D01*
X2228Y677D01*
X2227Y678D01*
X2227Y678D01*
X2227Y678D01*
X2226Y678D01*
X2225Y680D01*
X2224Y681D01*
X2223Y683D01*
X2222Y684D01*
X2221Y687D01*
X2221Y690D01*
X2220Y692D01*
X2220Y693D01*
X2220Y694D01*
X2220Y695D01*
X2220Y696D01*
Y696D01*
Y697D01*
Y697D01*
X2220Y700D01*
X2220Y702D01*
X2221Y705D01*
X2221Y707D01*
X2222Y708D01*
X2223Y709D01*
X2223Y710D01*
X2223Y710D01*
X2225Y712D01*
X2226Y714D01*
X2228Y715D01*
X2229Y716D01*
X2230Y717D01*
X2231Y718D01*
X2232Y718D01*
X2232Y718D01*
X2232D01*
X2235Y719D01*
X2237Y719D01*
X2240Y720D01*
X2242Y720D01*
X2245Y720D01*
X2245Y720D01*
X2287D01*
X2305Y632D01*
D02*
G37*
G36*
X1891Y439D02*
X1872D01*
X1868Y457D01*
X1888D01*
X1891Y439D01*
D02*
G37*
G36*
X1673Y356D02*
X1654D01*
X1640Y423D01*
X1612Y356D01*
X1593D01*
X1572Y457D01*
X1591D01*
X1606Y389D01*
X1633Y457D01*
X1652D01*
X1673Y356D01*
D02*
G37*
G36*
X1870Y382D02*
X1831D01*
X1827Y402D01*
X1866D01*
X1870Y382D01*
D02*
G37*
G36*
X1475Y458D02*
X1477Y458D01*
X1482Y457D01*
X1487Y456D01*
X1489Y455D01*
X1491Y455D01*
X1493Y454D01*
X1494Y453D01*
X1495Y452D01*
X1497Y452D01*
X1498Y451D01*
X1498Y451D01*
X1499Y451D01*
X1499Y451D01*
X1501Y449D01*
X1503Y448D01*
X1507Y444D01*
X1510Y440D01*
X1513Y437D01*
X1514Y435D01*
X1515Y434D01*
X1516Y432D01*
X1517Y431D01*
X1517Y430D01*
X1518Y429D01*
X1518Y429D01*
X1518Y429D01*
X1519Y426D01*
X1520Y423D01*
X1522Y418D01*
X1523Y413D01*
X1524Y410D01*
X1524Y408D01*
X1524Y405D01*
X1525Y404D01*
X1525Y402D01*
Y400D01*
X1525Y399D01*
Y398D01*
Y397D01*
Y397D01*
X1525Y393D01*
X1525Y390D01*
X1524Y386D01*
X1523Y383D01*
X1523Y380D01*
X1522Y378D01*
X1521Y375D01*
X1520Y373D01*
X1519Y371D01*
X1518Y369D01*
X1517Y368D01*
X1516Y367D01*
X1516Y366D01*
X1515Y365D01*
X1515Y365D01*
X1515Y365D01*
X1513Y363D01*
X1510Y361D01*
X1508Y360D01*
X1506Y358D01*
X1503Y357D01*
X1501Y356D01*
X1499Y356D01*
X1496Y355D01*
X1494Y355D01*
X1492Y354D01*
X1490Y354D01*
X1489Y354D01*
X1487D01*
X1487Y354D01*
X1486D01*
X1483Y354D01*
X1480Y354D01*
X1477Y355D01*
X1474Y355D01*
X1472Y356D01*
X1470Y356D01*
X1467Y357D01*
X1465Y358D01*
X1464Y359D01*
X1462Y360D01*
X1460Y361D01*
X1459Y361D01*
X1458Y362D01*
X1458Y362D01*
X1457Y362D01*
X1457Y363D01*
X1455Y364D01*
X1453Y366D01*
X1449Y370D01*
X1446Y375D01*
X1443Y379D01*
X1442Y381D01*
X1441Y383D01*
X1441Y384D01*
X1440Y386D01*
X1439Y387D01*
X1439Y388D01*
X1439Y388D01*
Y389D01*
X1460Y392D01*
X1461Y388D01*
X1463Y385D01*
X1464Y382D01*
X1466Y380D01*
X1467Y378D01*
X1469Y377D01*
X1469Y376D01*
X1470Y376D01*
X1470D01*
X1472Y374D01*
X1475Y373D01*
X1477Y372D01*
X1480Y372D01*
X1481Y371D01*
X1483Y371D01*
X1484Y371D01*
X1484D01*
X1486Y371D01*
X1487Y371D01*
X1490Y372D01*
X1493Y373D01*
X1495Y374D01*
X1496Y376D01*
X1498Y377D01*
X1499Y377D01*
X1499Y378D01*
X1501Y380D01*
X1502Y383D01*
X1503Y387D01*
X1504Y390D01*
X1504Y392D01*
X1504Y393D01*
Y394D01*
X1505Y395D01*
Y396D01*
Y396D01*
Y396D01*
X1504Y401D01*
X1504Y405D01*
X1503Y408D01*
X1502Y412D01*
X1502Y413D01*
X1501Y415D01*
X1501Y416D01*
X1501Y417D01*
X1501Y418D01*
X1500Y418D01*
X1500Y418D01*
Y419D01*
X1498Y423D01*
X1496Y426D01*
X1494Y429D01*
X1492Y431D01*
X1491Y433D01*
X1489Y434D01*
X1488Y435D01*
X1488Y435D01*
X1488D01*
X1485Y437D01*
X1483Y438D01*
X1480Y439D01*
X1477Y440D01*
X1475Y440D01*
X1474Y440D01*
X1473Y440D01*
X1472D01*
X1469Y440D01*
X1467Y440D01*
X1465Y439D01*
X1463Y438D01*
X1462Y438D01*
X1460Y437D01*
X1460Y437D01*
X1460Y436D01*
X1458Y435D01*
X1457Y433D01*
X1456Y431D01*
X1455Y429D01*
X1454Y427D01*
X1453Y425D01*
X1453Y425D01*
Y424D01*
X1453Y424D01*
Y424D01*
X1433Y426D01*
X1434Y428D01*
X1434Y431D01*
X1435Y433D01*
X1436Y436D01*
X1437Y438D01*
X1438Y440D01*
X1439Y442D01*
X1440Y443D01*
X1441Y445D01*
X1442Y446D01*
X1443Y447D01*
X1444Y448D01*
X1444Y449D01*
X1445Y449D01*
X1445Y449D01*
X1445Y450D01*
X1447Y451D01*
X1449Y452D01*
X1451Y454D01*
X1454Y455D01*
X1456Y455D01*
X1458Y456D01*
X1462Y457D01*
X1464Y458D01*
X1466Y458D01*
X1468Y458D01*
X1469Y458D01*
X1470Y458D01*
X1472D01*
X1475Y458D01*
D02*
G37*
G36*
X1994Y356D02*
X1922D01*
X1919Y373D01*
X1970D01*
X1953Y457D01*
X1973D01*
X1994Y356D01*
D02*
G37*
G36*
X1909D02*
X1889D01*
X1874Y429D01*
X1894D01*
X1909Y356D01*
D02*
G37*
G36*
X1823D02*
X1803D01*
X1782Y457D01*
X1802D01*
X1823Y356D01*
D02*
G37*
G36*
X1431D02*
X1352D01*
X1349Y373D01*
X1407D01*
X1401Y400D01*
X1349D01*
X1345Y417D01*
X1398D01*
X1393Y440D01*
X1338D01*
X1335Y457D01*
X1410D01*
X1431Y356D01*
D02*
G37*
G36*
X1336D02*
X1264D01*
X1261Y373D01*
X1312D01*
X1295Y457D01*
X1315D01*
X1336Y356D01*
D02*
G37*
G36*
X1250D02*
X1178D01*
X1174Y373D01*
X1226D01*
X1208Y457D01*
X1229D01*
X1250Y356D01*
D02*
G37*
G36*
X1726Y458D02*
X1730Y458D01*
X1734Y457D01*
X1736Y456D01*
X1738Y455D01*
X1740Y455D01*
X1741Y454D01*
X1742Y454D01*
X1743Y453D01*
X1744Y453D01*
X1745Y453D01*
X1745Y453D01*
X1745D01*
X1749Y450D01*
X1753Y448D01*
X1756Y445D01*
X1759Y443D01*
X1761Y440D01*
X1761Y440D01*
X1762Y439D01*
X1763Y438D01*
X1763Y438D01*
X1763Y437D01*
X1763Y437D01*
X1766Y433D01*
X1768Y429D01*
X1770Y426D01*
X1771Y422D01*
X1772Y420D01*
X1773Y419D01*
X1773Y417D01*
X1773Y416D01*
X1774Y415D01*
X1774Y415D01*
X1774Y414D01*
Y414D01*
X1775Y410D01*
X1776Y407D01*
X1776Y404D01*
X1776Y401D01*
X1777Y398D01*
Y397D01*
X1777Y397D01*
Y396D01*
Y396D01*
Y395D01*
Y395D01*
X1777Y391D01*
X1776Y388D01*
X1775Y385D01*
X1775Y382D01*
X1774Y380D01*
X1774Y379D01*
X1773Y378D01*
X1773Y377D01*
X1773Y376D01*
X1773Y376D01*
Y376D01*
X1771Y373D01*
X1769Y370D01*
X1767Y367D01*
X1765Y365D01*
X1763Y363D01*
X1761Y361D01*
X1760Y361D01*
X1760Y360D01*
X1760Y360D01*
X1759Y360D01*
X1757Y359D01*
X1756Y358D01*
X1752Y356D01*
X1748Y355D01*
X1744Y355D01*
X1742Y354D01*
X1741Y354D01*
X1739Y354D01*
X1738D01*
X1737Y354D01*
X1736D01*
X1733Y354D01*
X1730Y354D01*
X1724Y355D01*
X1722Y356D01*
X1719Y356D01*
X1717Y357D01*
X1715Y358D01*
X1713Y359D01*
X1712Y359D01*
X1710Y360D01*
X1709Y360D01*
X1708Y361D01*
X1707Y361D01*
X1707Y362D01*
X1707Y362D01*
X1704Y363D01*
X1702Y365D01*
X1698Y369D01*
X1696Y371D01*
X1694Y373D01*
X1693Y374D01*
X1692Y376D01*
X1690Y378D01*
X1689Y380D01*
X1688Y381D01*
X1687Y382D01*
X1687Y383D01*
X1686Y384D01*
X1686Y385D01*
X1686Y385D01*
X1685Y388D01*
X1684Y390D01*
X1683Y393D01*
X1682Y396D01*
X1680Y401D01*
X1680Y404D01*
X1679Y406D01*
X1679Y408D01*
X1679Y410D01*
X1679Y412D01*
X1679Y413D01*
X1679Y414D01*
Y415D01*
Y416D01*
Y416D01*
X1679Y419D01*
X1679Y423D01*
X1680Y426D01*
X1680Y429D01*
X1681Y431D01*
X1682Y434D01*
X1683Y436D01*
X1684Y438D01*
X1685Y440D01*
X1686Y442D01*
X1687Y443D01*
X1688Y445D01*
X1689Y446D01*
X1690Y446D01*
X1690Y447D01*
X1690Y447D01*
X1692Y449D01*
X1695Y451D01*
X1697Y452D01*
X1700Y453D01*
X1702Y455D01*
X1705Y456D01*
X1707Y456D01*
X1710Y457D01*
X1712Y457D01*
X1714Y458D01*
X1716Y458D01*
X1717Y458D01*
X1719Y458D01*
X1720D01*
X1726Y458D01*
D02*
G37*
G36*
X730Y1584D02*
X717D01*
Y1670D01*
X688Y1584D01*
X676D01*
X647Y1668D01*
Y1584D01*
X634D01*
Y1685D01*
X652D01*
X676Y1614D01*
X677Y1610D01*
X678Y1607D01*
X679Y1605D01*
X680Y1602D01*
X681Y1600D01*
X681Y1599D01*
X681Y1598D01*
X681Y1598D01*
X682Y1600D01*
X683Y1602D01*
X683Y1605D01*
X684Y1607D01*
X685Y1610D01*
X686Y1611D01*
X686Y1612D01*
X686Y1613D01*
X686Y1613D01*
Y1613D01*
X710Y1685D01*
X730D01*
Y1584D01*
D02*
G37*
G36*
X846D02*
X832D01*
X810Y1660D01*
X810Y1662D01*
X809Y1664D01*
X809Y1666D01*
X808Y1668D01*
X808Y1670D01*
X808Y1671D01*
X807Y1672D01*
X807Y1672D01*
Y1672D01*
X807Y1672D01*
X807Y1671D01*
X807Y1670D01*
X806Y1668D01*
X805Y1666D01*
X805Y1664D01*
X804Y1662D01*
X804Y1661D01*
X804Y1661D01*
X804Y1661D01*
Y1660D01*
X783Y1584D01*
X770D01*
X742Y1685D01*
X756D01*
X771Y1620D01*
X773Y1615D01*
X773Y1611D01*
X774Y1607D01*
X775Y1604D01*
X775Y1603D01*
X776Y1601D01*
X776Y1600D01*
X776Y1599D01*
X776Y1599D01*
Y1598D01*
X776Y1598D01*
Y1598D01*
X778Y1604D01*
X779Y1610D01*
X780Y1616D01*
X781Y1619D01*
X781Y1622D01*
X782Y1624D01*
X783Y1627D01*
X783Y1628D01*
X784Y1630D01*
X784Y1631D01*
X784Y1633D01*
X785Y1633D01*
Y1633D01*
X799Y1685D01*
X815D01*
X834Y1616D01*
X834Y1616D01*
X835Y1615D01*
X835Y1614D01*
X835Y1612D01*
X836Y1611D01*
X836Y1609D01*
X837Y1606D01*
X837Y1603D01*
X838Y1601D01*
X838Y1600D01*
X838Y1599D01*
X839Y1598D01*
X839Y1598D01*
Y1598D01*
X839Y1601D01*
X840Y1605D01*
X841Y1609D01*
X842Y1612D01*
X842Y1613D01*
X842Y1615D01*
X843Y1616D01*
X843Y1617D01*
X843Y1617D01*
X843Y1618D01*
X843Y1618D01*
Y1618D01*
X858Y1685D01*
X872D01*
X846Y1584D01*
D02*
G37*
G36*
X957D02*
X943D01*
Y1625D01*
X917D01*
X914Y1625D01*
X910Y1625D01*
X907Y1626D01*
X904Y1626D01*
X901Y1627D01*
X899Y1627D01*
X897Y1628D01*
X895Y1629D01*
X893Y1630D01*
X892Y1631D01*
X891Y1631D01*
X890Y1632D01*
X889Y1633D01*
X888Y1633D01*
X888Y1633D01*
X888Y1634D01*
X887Y1635D01*
X885Y1637D01*
X884Y1639D01*
X883Y1641D01*
X882Y1643D01*
X882Y1644D01*
X881Y1648D01*
X880Y1649D01*
X880Y1651D01*
X880Y1652D01*
X880Y1653D01*
X880Y1654D01*
Y1655D01*
Y1655D01*
Y1655D01*
X880Y1658D01*
X880Y1661D01*
X881Y1663D01*
X881Y1665D01*
X882Y1667D01*
X882Y1668D01*
X883Y1669D01*
X883Y1669D01*
X884Y1671D01*
X885Y1673D01*
X887Y1675D01*
X888Y1676D01*
X889Y1677D01*
X890Y1678D01*
X891Y1679D01*
X891Y1679D01*
X893Y1680D01*
X895Y1681D01*
X897Y1682D01*
X899Y1683D01*
X901Y1683D01*
X902Y1683D01*
X903Y1684D01*
X903D01*
X906Y1684D01*
X908Y1684D01*
X911Y1684D01*
X913Y1684D01*
X915Y1685D01*
X957D01*
Y1584D01*
D02*
G37*
G36*
X945Y876D02*
X912D01*
Y787D01*
X898D01*
Y876D01*
X865D01*
Y888D01*
X945D01*
Y876D01*
D02*
G37*
G36*
X849Y787D02*
X836D01*
Y888D01*
X849D01*
Y787D01*
D02*
G37*
G36*
X812D02*
X749D01*
Y799D01*
X799D01*
Y888D01*
X812D01*
Y787D01*
D02*
G37*
G36*
X741Y876D02*
X708D01*
Y787D01*
X694D01*
Y876D01*
X661D01*
Y888D01*
X741D01*
Y876D01*
D02*
G37*
G36*
X173Y1532D02*
X222Y1467D01*
X202D01*
X170Y1510D01*
X169Y1511D01*
X168Y1513D01*
X166Y1516D01*
X165Y1517D01*
X164Y1518D01*
X164Y1519D01*
X164Y1519D01*
X162Y1516D01*
X160Y1514D01*
X159Y1513D01*
X159Y1512D01*
X159Y1512D01*
X159Y1511D01*
X127Y1467D01*
X106D01*
X153Y1533D01*
X109Y1593D01*
X128D01*
X153Y1559D01*
X155Y1556D01*
X157Y1554D01*
X159Y1551D01*
X160Y1549D01*
X161Y1547D01*
X162Y1546D01*
X163Y1545D01*
X163Y1545D01*
X164Y1547D01*
X166Y1549D01*
X167Y1552D01*
X169Y1555D01*
X171Y1557D01*
X172Y1559D01*
X172Y1559D01*
X173Y1560D01*
X173Y1560D01*
Y1560D01*
X196Y1593D01*
X216D01*
X173Y1532D01*
D02*
G37*
G36*
X453Y1467D02*
X436D01*
Y1526D01*
X371D01*
Y1467D01*
X354D01*
Y1593D01*
X371D01*
Y1541D01*
X436D01*
Y1593D01*
X453D01*
Y1467D01*
D02*
G37*
G36*
X326D02*
X232D01*
Y1481D01*
X309D01*
Y1524D01*
X239D01*
Y1539D01*
X309D01*
Y1578D01*
X235D01*
Y1593D01*
X326D01*
Y1467D01*
D02*
G37*
G36*
X1180Y1594D02*
X1186Y1594D01*
X1191Y1592D01*
X1193Y1592D01*
X1195Y1591D01*
X1197Y1590D01*
X1199Y1590D01*
X1200Y1589D01*
X1202Y1588D01*
X1203Y1588D01*
X1204Y1588D01*
X1204Y1587D01*
X1204Y1587D01*
X1209Y1584D01*
X1213Y1580D01*
X1217Y1577D01*
X1220Y1573D01*
X1223Y1570D01*
X1223Y1568D01*
X1224Y1567D01*
X1225Y1566D01*
X1225Y1565D01*
X1225Y1565D01*
X1226Y1565D01*
X1228Y1559D01*
X1230Y1553D01*
X1231Y1547D01*
X1232Y1542D01*
X1233Y1540D01*
X1233Y1537D01*
X1233Y1536D01*
Y1534D01*
X1233Y1532D01*
Y1531D01*
Y1531D01*
Y1530D01*
X1233Y1524D01*
X1232Y1518D01*
X1231Y1512D01*
X1230Y1509D01*
X1230Y1507D01*
X1229Y1505D01*
X1229Y1503D01*
X1228Y1501D01*
X1228Y1499D01*
X1227Y1498D01*
X1227Y1497D01*
X1227Y1497D01*
Y1497D01*
X1224Y1491D01*
X1221Y1486D01*
X1217Y1482D01*
X1216Y1480D01*
X1214Y1479D01*
X1213Y1477D01*
X1211Y1476D01*
X1210Y1475D01*
X1209Y1474D01*
X1208Y1473D01*
X1208Y1473D01*
X1207Y1473D01*
X1207Y1473D01*
X1204Y1471D01*
X1202Y1470D01*
X1196Y1468D01*
X1191Y1466D01*
X1186Y1465D01*
X1183Y1465D01*
X1181Y1465D01*
X1179Y1465D01*
X1177D01*
X1176Y1464D01*
X1174D01*
X1170Y1465D01*
X1167Y1465D01*
X1163Y1465D01*
X1160Y1466D01*
X1157Y1467D01*
X1155Y1468D01*
X1152Y1469D01*
X1150Y1470D01*
X1148Y1471D01*
X1146Y1472D01*
X1144Y1473D01*
X1143Y1473D01*
X1142Y1474D01*
X1141Y1475D01*
X1141Y1475D01*
X1141Y1475D01*
X1138Y1477D01*
X1136Y1479D01*
X1134Y1482D01*
X1132Y1485D01*
X1129Y1490D01*
X1126Y1495D01*
X1125Y1497D01*
X1124Y1499D01*
X1123Y1501D01*
X1123Y1503D01*
X1122Y1504D01*
X1122Y1506D01*
X1122Y1506D01*
Y1506D01*
X1138Y1511D01*
X1139Y1508D01*
X1140Y1505D01*
X1141Y1502D01*
X1142Y1500D01*
X1143Y1498D01*
X1144Y1496D01*
X1145Y1494D01*
X1146Y1493D01*
X1147Y1491D01*
X1148Y1490D01*
X1149Y1489D01*
X1150Y1488D01*
X1151Y1487D01*
X1151Y1487D01*
X1151Y1487D01*
X1152Y1487D01*
X1153Y1485D01*
X1155Y1484D01*
X1159Y1482D01*
X1163Y1481D01*
X1167Y1480D01*
X1170Y1479D01*
X1172Y1479D01*
X1173D01*
X1174Y1479D01*
X1175D01*
X1180Y1479D01*
X1184Y1479D01*
X1187Y1480D01*
X1190Y1481D01*
X1193Y1483D01*
X1194Y1483D01*
X1195Y1483D01*
X1196Y1484D01*
X1196Y1484D01*
X1197Y1484D01*
X1197D01*
X1200Y1487D01*
X1203Y1490D01*
X1206Y1493D01*
X1208Y1496D01*
X1209Y1498D01*
X1210Y1500D01*
X1211Y1501D01*
X1211Y1502D01*
X1211Y1502D01*
Y1502D01*
X1213Y1507D01*
X1214Y1512D01*
X1215Y1517D01*
X1215Y1521D01*
X1216Y1523D01*
X1216Y1525D01*
Y1526D01*
X1216Y1528D01*
Y1529D01*
Y1530D01*
Y1530D01*
Y1530D01*
X1216Y1535D01*
X1215Y1540D01*
X1215Y1544D01*
X1214Y1547D01*
X1213Y1550D01*
X1213Y1552D01*
X1213Y1553D01*
X1213Y1554D01*
X1212Y1554D01*
X1212Y1555D01*
Y1555D01*
X1210Y1559D01*
X1208Y1563D01*
X1206Y1566D01*
X1204Y1569D01*
X1202Y1571D01*
X1200Y1572D01*
X1199Y1573D01*
X1199Y1573D01*
X1198D01*
X1195Y1576D01*
X1190Y1578D01*
X1186Y1579D01*
X1183Y1580D01*
X1179Y1580D01*
X1178Y1580D01*
X1176D01*
X1176Y1581D01*
X1174D01*
X1170Y1580D01*
X1165Y1580D01*
X1162Y1579D01*
X1159Y1577D01*
X1156Y1576D01*
X1155Y1575D01*
X1153Y1575D01*
X1153Y1574D01*
X1150Y1571D01*
X1147Y1568D01*
X1145Y1565D01*
X1143Y1562D01*
X1142Y1559D01*
X1141Y1557D01*
X1141Y1556D01*
X1141Y1555D01*
X1140Y1555D01*
X1140Y1554D01*
Y1554D01*
X1124Y1558D01*
X1125Y1561D01*
X1126Y1564D01*
X1127Y1567D01*
X1129Y1570D01*
X1130Y1572D01*
X1132Y1574D01*
X1133Y1576D01*
X1135Y1578D01*
X1136Y1580D01*
X1137Y1581D01*
X1139Y1582D01*
X1140Y1583D01*
X1141Y1584D01*
X1141Y1585D01*
X1142Y1585D01*
X1142Y1585D01*
X1144Y1587D01*
X1147Y1588D01*
X1149Y1590D01*
X1152Y1591D01*
X1158Y1592D01*
X1163Y1594D01*
X1165Y1594D01*
X1167Y1594D01*
X1169Y1594D01*
X1171Y1595D01*
X1172Y1595D01*
X1174D01*
X1180Y1594D01*
D02*
G37*
G36*
X1487Y1467D02*
X1469D01*
X1455Y1505D01*
X1403D01*
X1388Y1467D01*
X1369D01*
X1420Y1593D01*
X1439D01*
X1487Y1467D01*
D02*
G37*
G36*
X1355D02*
X1310D01*
X1306Y1467D01*
X1302Y1467D01*
X1298Y1467D01*
X1296Y1468D01*
X1293Y1468D01*
X1291Y1468D01*
X1291Y1468D01*
X1290Y1469D01*
X1290D01*
X1286Y1469D01*
X1284Y1471D01*
X1281Y1471D01*
X1279Y1473D01*
X1277Y1473D01*
X1276Y1474D01*
X1275Y1475D01*
X1275Y1475D01*
X1272Y1477D01*
X1270Y1479D01*
X1268Y1480D01*
X1267Y1482D01*
X1265Y1484D01*
X1264Y1485D01*
X1263Y1486D01*
X1263Y1486D01*
X1261Y1489D01*
X1260Y1492D01*
X1258Y1495D01*
X1257Y1498D01*
X1256Y1501D01*
X1255Y1503D01*
X1255Y1504D01*
X1255Y1504D01*
X1255Y1504D01*
Y1505D01*
X1253Y1509D01*
X1253Y1513D01*
X1252Y1518D01*
X1251Y1522D01*
X1251Y1525D01*
Y1526D01*
X1251Y1528D01*
Y1529D01*
Y1530D01*
Y1530D01*
Y1530D01*
X1251Y1536D01*
X1252Y1542D01*
X1253Y1547D01*
X1253Y1549D01*
X1254Y1551D01*
X1254Y1553D01*
X1255Y1555D01*
X1255Y1557D01*
X1256Y1558D01*
X1256Y1559D01*
X1256Y1560D01*
X1256Y1560D01*
Y1560D01*
X1258Y1565D01*
X1261Y1569D01*
X1263Y1573D01*
X1266Y1576D01*
X1268Y1578D01*
X1270Y1580D01*
X1270Y1581D01*
X1271Y1581D01*
X1271Y1582D01*
X1271Y1582D01*
X1274Y1584D01*
X1277Y1586D01*
X1280Y1588D01*
X1283Y1589D01*
X1286Y1590D01*
X1288Y1590D01*
X1288Y1591D01*
X1289D01*
X1289Y1591D01*
X1290D01*
X1293Y1591D01*
X1296Y1592D01*
X1300Y1592D01*
X1304Y1592D01*
X1307Y1593D01*
X1355D01*
Y1467D01*
D02*
G37*
%LPC*%
G36*
X6730Y350D02*
X6713D01*
Y317D01*
X6731D01*
X6732Y317D01*
X6735Y317D01*
X6736Y318D01*
X6737Y318D01*
X6738D01*
X6738Y318D01*
X6738Y318D01*
X6739Y319D01*
X6741Y320D01*
X6743Y322D01*
X6743Y322D01*
X6743Y322D01*
X6744Y322D01*
X6744Y323D01*
X6745Y325D01*
X6746Y327D01*
Y327D01*
X6746Y328D01*
X6746Y328D01*
X6746Y329D01*
X6747Y331D01*
X6747Y333D01*
Y334D01*
Y334D01*
Y335D01*
X6747Y336D01*
X6747Y338D01*
X6746Y340D01*
Y340D01*
X6746Y341D01*
X6746Y341D01*
X6745Y342D01*
X6744Y344D01*
X6743Y345D01*
X6742Y345D01*
X6742Y346D01*
X6742Y346D01*
X6741Y346D01*
X6739Y347D01*
X6737Y348D01*
X6737D01*
X6736Y349D01*
X6735Y349D01*
X6734Y349D01*
X6733Y349D01*
X6732Y349D01*
X6730Y350D01*
D02*
G37*
G36*
X6732Y306D02*
X6713D01*
Y270D01*
X6735D01*
X6736Y270D01*
X6738Y271D01*
X6741Y271D01*
X6741D01*
X6742Y271D01*
X6742Y272D01*
X6743Y272D01*
X6745Y273D01*
X6747Y274D01*
X6747Y274D01*
X6748Y275D01*
X6749Y276D01*
X6750Y277D01*
X6751Y280D01*
Y280D01*
X6752Y280D01*
X6752Y281D01*
X6752Y282D01*
X6752Y283D01*
X6753Y284D01*
X6753Y287D01*
Y287D01*
Y288D01*
Y289D01*
X6753Y290D01*
X6752Y292D01*
X6752Y295D01*
Y295D01*
X6751Y296D01*
X6751Y296D01*
X6750Y297D01*
X6749Y299D01*
X6747Y301D01*
X6747Y301D01*
X6747Y301D01*
X6746Y302D01*
X6745Y302D01*
X6744Y303D01*
X6743Y303D01*
X6740Y305D01*
X6740D01*
X6740Y305D01*
X6739Y305D01*
X6737Y305D01*
X6736Y306D01*
X6734Y306D01*
X6732Y306D01*
D02*
G37*
G36*
X7797Y347D02*
X7797D01*
X7780Y296D01*
X7815D01*
X7797Y347D01*
D02*
G37*
G36*
X7637Y350D02*
X7623D01*
Y315D01*
X7638D01*
X7639Y315D01*
X7642Y316D01*
X7645Y316D01*
X7646D01*
X7646Y317D01*
X7647Y317D01*
X7648Y317D01*
X7650Y318D01*
X7652Y320D01*
X7652Y320D01*
X7652Y320D01*
X7653Y321D01*
X7653Y322D01*
X7655Y323D01*
X7656Y325D01*
Y326D01*
X7656Y326D01*
X7656Y327D01*
X7657Y328D01*
X7657Y330D01*
X7657Y332D01*
Y332D01*
Y333D01*
X7657Y334D01*
X7657Y336D01*
X7656Y337D01*
X7656Y339D01*
X7655Y341D01*
X7654Y342D01*
X7654Y343D01*
X7654Y343D01*
X7653Y344D01*
X7652Y345D01*
X7651Y346D01*
X7649Y347D01*
X7647Y348D01*
X7645Y349D01*
X7645Y349D01*
X7644Y349D01*
X7643Y349D01*
X7641Y349D01*
X7641D01*
X7640Y349D01*
X7638D01*
X7637Y350D01*
D02*
G37*
G36*
X7373Y351D02*
X7371D01*
X7370Y350D01*
X7368Y350D01*
X7365Y350D01*
X7363Y349D01*
X7360Y348D01*
X7358Y347D01*
X7358Y347D01*
X7357Y346D01*
X7356Y346D01*
X7354Y345D01*
X7353Y343D01*
X7351Y342D01*
X7350Y340D01*
X7348Y338D01*
X7348Y338D01*
X7348Y337D01*
X7347Y336D01*
X7346Y335D01*
X7345Y333D01*
X7344Y330D01*
X7344Y328D01*
X7343Y325D01*
Y325D01*
X7343Y324D01*
X7342Y323D01*
X7342Y321D01*
X7342Y318D01*
X7342Y316D01*
X7341Y313D01*
Y310D01*
Y310D01*
Y310D01*
Y309D01*
Y307D01*
X7342Y305D01*
X7342Y302D01*
X7342Y299D01*
X7343Y293D01*
Y293D01*
X7343Y292D01*
X7344Y291D01*
X7344Y289D01*
X7345Y287D01*
X7346Y285D01*
X7346Y283D01*
X7348Y281D01*
X7348Y280D01*
X7348Y280D01*
X7349Y279D01*
X7350Y277D01*
X7352Y276D01*
X7353Y275D01*
X7355Y273D01*
X7357Y272D01*
X7358Y272D01*
X7358Y272D01*
X7360Y271D01*
X7361Y271D01*
X7364Y270D01*
X7366Y270D01*
X7369Y269D01*
X7372Y269D01*
X7374D01*
X7375Y269D01*
X7377Y269D01*
X7380Y270D01*
X7382Y271D01*
X7385Y271D01*
X7387Y272D01*
X7387Y273D01*
X7388Y273D01*
X7389Y274D01*
X7391Y275D01*
X7392Y276D01*
X7394Y277D01*
X7395Y279D01*
X7397Y281D01*
X7397Y281D01*
X7397Y282D01*
X7398Y283D01*
X7399Y285D01*
X7400Y287D01*
X7401Y289D01*
X7401Y291D01*
X7402Y294D01*
Y295D01*
X7402Y295D01*
X7403Y297D01*
X7403Y299D01*
X7403Y301D01*
X7403Y304D01*
X7404Y307D01*
Y310D01*
Y310D01*
Y310D01*
Y311D01*
Y313D01*
X7403Y315D01*
X7403Y318D01*
X7403Y320D01*
X7402Y326D01*
Y326D01*
X7402Y327D01*
X7401Y329D01*
X7401Y330D01*
X7400Y332D01*
X7399Y334D01*
X7398Y337D01*
X7397Y339D01*
X7397Y339D01*
X7396Y340D01*
X7395Y341D01*
X7394Y342D01*
X7393Y343D01*
X7391Y345D01*
X7390Y346D01*
X7387Y347D01*
X7387Y348D01*
X7386Y348D01*
X7385Y348D01*
X7383Y349D01*
X7381Y350D01*
X7379Y350D01*
X7376Y350D01*
X7373Y351D01*
D02*
G37*
G36*
X7092D02*
X7090D01*
X7088Y350D01*
X7086Y350D01*
X7084Y350D01*
X7082Y349D01*
X7079Y348D01*
X7077Y347D01*
X7077Y347D01*
X7076Y346D01*
X7075Y346D01*
X7073Y345D01*
X7072Y343D01*
X7070Y342D01*
X7068Y340D01*
X7067Y338D01*
X7067Y338D01*
X7066Y337D01*
X7066Y336D01*
X7065Y335D01*
X7064Y333D01*
X7063Y330D01*
X7062Y328D01*
X7062Y325D01*
Y325D01*
X7061Y324D01*
X7061Y323D01*
X7061Y321D01*
X7061Y318D01*
X7060Y316D01*
X7060Y313D01*
Y310D01*
Y310D01*
Y310D01*
Y309D01*
Y307D01*
X7060Y305D01*
X7061Y302D01*
X7061Y299D01*
X7062Y293D01*
Y293D01*
X7062Y292D01*
X7062Y291D01*
X7063Y289D01*
X7063Y287D01*
X7064Y285D01*
X7065Y283D01*
X7067Y281D01*
X7067Y280D01*
X7067Y280D01*
X7068Y279D01*
X7069Y277D01*
X7071Y276D01*
X7072Y275D01*
X7074Y273D01*
X7076Y272D01*
X7076Y272D01*
X7077Y272D01*
X7078Y271D01*
X7080Y271D01*
X7082Y270D01*
X7085Y270D01*
X7088Y269D01*
X7091Y269D01*
X7092D01*
X7094Y269D01*
X7096Y269D01*
X7098Y270D01*
X7101Y271D01*
X7103Y271D01*
X7106Y272D01*
X7106Y273D01*
X7107Y273D01*
X7108Y274D01*
X7109Y275D01*
X7111Y276D01*
X7113Y277D01*
X7114Y279D01*
X7116Y281D01*
X7116Y281D01*
X7116Y282D01*
X7117Y283D01*
X7118Y285D01*
X7119Y287D01*
X7119Y289D01*
X7120Y291D01*
X7121Y294D01*
Y295D01*
X7121Y295D01*
X7121Y297D01*
X7122Y299D01*
X7122Y301D01*
X7122Y304D01*
X7123Y307D01*
Y310D01*
Y310D01*
Y310D01*
Y311D01*
Y313D01*
X7122Y315D01*
X7122Y318D01*
X7122Y320D01*
X7121Y326D01*
Y326D01*
X7121Y327D01*
X7120Y329D01*
X7120Y330D01*
X7119Y332D01*
X7118Y334D01*
X7117Y337D01*
X7116Y339D01*
X7116Y339D01*
X7115Y340D01*
X7114Y341D01*
X7113Y342D01*
X7112Y343D01*
X7110Y345D01*
X7108Y346D01*
X7106Y347D01*
X7106Y348D01*
X7105Y348D01*
X7104Y348D01*
X7102Y349D01*
X7100Y350D01*
X7098Y350D01*
X7095Y350D01*
X7092Y351D01*
D02*
G37*
G36*
X6828D02*
X6826D01*
X6825Y350D01*
X6823Y350D01*
X6820Y350D01*
X6818Y349D01*
X6815Y348D01*
X6813Y347D01*
X6813Y347D01*
X6812Y346D01*
X6811Y346D01*
X6810Y345D01*
X6808Y343D01*
X6806Y342D01*
X6805Y340D01*
X6803Y338D01*
X6803Y338D01*
X6803Y337D01*
X6802Y336D01*
X6801Y335D01*
X6800Y333D01*
X6799Y330D01*
X6799Y328D01*
X6798Y325D01*
Y325D01*
X6798Y324D01*
X6797Y323D01*
X6797Y321D01*
X6797Y318D01*
X6797Y316D01*
X6796Y313D01*
Y310D01*
Y310D01*
Y310D01*
Y309D01*
Y307D01*
X6797Y305D01*
X6797Y302D01*
X6797Y299D01*
X6798Y293D01*
Y293D01*
X6798Y292D01*
X6799Y291D01*
X6799Y289D01*
X6800Y287D01*
X6801Y285D01*
X6801Y283D01*
X6803Y281D01*
X6803Y280D01*
X6803Y280D01*
X6804Y279D01*
X6805Y277D01*
X6807Y276D01*
X6808Y275D01*
X6810Y273D01*
X6812Y272D01*
X6813Y272D01*
X6813Y272D01*
X6815Y271D01*
X6816Y271D01*
X6819Y270D01*
X6821Y270D01*
X6824Y269D01*
X6827Y269D01*
X6829D01*
X6830Y269D01*
X6832Y269D01*
X6835Y270D01*
X6837Y271D01*
X6840Y271D01*
X6842Y272D01*
X6842Y273D01*
X6843Y273D01*
X6844Y274D01*
X6846Y275D01*
X6847Y276D01*
X6849Y277D01*
X6850Y279D01*
X6852Y281D01*
X6852Y281D01*
X6852Y282D01*
X6853Y283D01*
X6854Y285D01*
X6855Y287D01*
X6856Y289D01*
X6856Y291D01*
X6857Y294D01*
Y295D01*
X6857Y295D01*
X6858Y297D01*
X6858Y299D01*
X6858Y301D01*
X6859Y304D01*
X6859Y307D01*
Y310D01*
Y310D01*
Y310D01*
Y311D01*
Y313D01*
X6859Y315D01*
X6858Y318D01*
X6858Y320D01*
X6857Y326D01*
Y326D01*
X6857Y327D01*
X6856Y329D01*
X6856Y330D01*
X6855Y332D01*
X6854Y334D01*
X6853Y337D01*
X6852Y339D01*
X6852Y339D01*
X6851Y340D01*
X6850Y341D01*
X6849Y342D01*
X6848Y343D01*
X6846Y345D01*
X6845Y346D01*
X6842Y347D01*
X6842Y348D01*
X6841Y348D01*
X6840Y348D01*
X6838Y349D01*
X6836Y350D01*
X6834Y350D01*
X6831Y350D01*
X6828Y351D01*
D02*
G37*
G36*
X5153Y3858D02*
X5093D01*
Y3792D01*
X5153D01*
Y3858D01*
D02*
G37*
G36*
X4332D02*
X4272D01*
Y3792D01*
X4332D01*
Y3858D01*
D02*
G37*
G36*
X4128D02*
X4068D01*
Y3792D01*
X4128D01*
Y3858D01*
D02*
G37*
G36*
X3639Y3895D02*
X3565D01*
Y3795D01*
X3622D01*
X3639Y3778D01*
Y3895D01*
D02*
G37*
G36*
X3141Y3858D02*
X3081D01*
Y3792D01*
X3141D01*
Y3858D01*
D02*
G37*
G36*
X2319D02*
X2260D01*
Y3792D01*
X2319D01*
Y3858D01*
D02*
G37*
G36*
X836Y3437D02*
X814D01*
X812Y3437D01*
X810Y3437D01*
X808Y3437D01*
X807Y3436D01*
X807Y3436D01*
X806Y3436D01*
X806Y3436D01*
X805Y3435D01*
X804Y3434D01*
X803Y3433D01*
X803Y3431D01*
X802Y3430D01*
X802Y3429D01*
Y3429D01*
Y3429D01*
X802Y3427D01*
X803Y3426D01*
X803Y3424D01*
X804Y3423D01*
X804Y3422D01*
X805Y3421D01*
X805Y3421D01*
X805Y3421D01*
X806Y3420D01*
X807Y3418D01*
X809Y3418D01*
X810Y3417D01*
X811Y3416D01*
X812Y3416D01*
X812Y3415D01*
X813Y3415D01*
X814Y3415D01*
X815Y3415D01*
X816Y3415D01*
X817Y3414D01*
X821Y3414D01*
X824Y3414D01*
X827Y3414D01*
X828Y3414D01*
X841D01*
X836Y3437D01*
D02*
G37*
G36*
X4896Y3000D02*
X4873D01*
X4871Y3000D01*
X4869Y3000D01*
X4867Y3000D01*
X4866Y2999D01*
X4866Y2999D01*
X4865Y2999D01*
X4865Y2999D01*
X4864Y2998D01*
X4863Y2997D01*
X4862Y2995D01*
X4862Y2994D01*
X4862Y2993D01*
X4861Y2992D01*
Y2992D01*
Y2992D01*
X4862Y2990D01*
X4862Y2989D01*
X4862Y2987D01*
X4863Y2986D01*
X4863Y2985D01*
X4864Y2984D01*
X4864Y2984D01*
X4864Y2984D01*
X4865Y2982D01*
X4866Y2981D01*
X4868Y2980D01*
X4869Y2980D01*
X4870Y2979D01*
X4871Y2979D01*
X4871Y2978D01*
X4872Y2978D01*
X4873Y2978D01*
X4874Y2978D01*
X4875Y2977D01*
X4877Y2977D01*
X4880Y2977D01*
X4883Y2977D01*
X4886Y2977D01*
X4887Y2977D01*
X4901D01*
X4896Y3000D01*
D02*
G37*
G36*
X4711D02*
X4692D01*
X4691Y3000D01*
X4690D01*
X4689Y3000D01*
X4688D01*
X4688Y3000D01*
X4688D01*
X4686Y3000D01*
X4685Y2999D01*
X4684Y2999D01*
X4684Y2998D01*
X4683Y2998D01*
X4682Y2997D01*
X4682Y2997D01*
X4682Y2997D01*
X4681Y2996D01*
X4681Y2995D01*
X4681Y2994D01*
X4680Y2993D01*
X4680Y2993D01*
X4680Y2992D01*
Y2992D01*
Y2991D01*
X4680Y2990D01*
X4680Y2989D01*
X4681Y2988D01*
X4681Y2987D01*
X4682Y2986D01*
X4682Y2985D01*
X4682Y2985D01*
X4682Y2985D01*
X4683Y2984D01*
X4684Y2983D01*
X4685Y2982D01*
X4686Y2982D01*
X4687Y2981D01*
X4688Y2981D01*
X4688Y2981D01*
X4688Y2981D01*
X4690Y2980D01*
X4692Y2980D01*
X4694Y2980D01*
X4697Y2979D01*
X4699D01*
X4699Y2979D01*
X4716D01*
X4711Y3000D01*
D02*
G37*
G36*
X4719Y2964D02*
X4697D01*
X4694Y2964D01*
X4692Y2964D01*
X4690Y2963D01*
X4689Y2963D01*
X4688Y2962D01*
X4687Y2962D01*
X4686Y2961D01*
X4686Y2961D01*
X4685Y2960D01*
X4684Y2959D01*
X4684Y2958D01*
X4683Y2956D01*
X4683Y2955D01*
X4683Y2955D01*
Y2954D01*
Y2954D01*
X4683Y2953D01*
X4683Y2951D01*
X4684Y2950D01*
X4684Y2949D01*
X4685Y2948D01*
X4685Y2948D01*
X4685Y2947D01*
X4685Y2947D01*
X4686Y2946D01*
X4687Y2945D01*
X4688Y2944D01*
X4689Y2944D01*
X4690Y2943D01*
X4691Y2943D01*
X4691Y2943D01*
X4691Y2942D01*
X4692Y2942D01*
X4693Y2942D01*
X4695Y2942D01*
X4698Y2941D01*
X4700Y2941D01*
X4703D01*
X4704Y2941D01*
X4724D01*
X4719Y2964D01*
D02*
G37*
G36*
X4617Y3002D02*
X4616D01*
X4615Y3002D01*
X4613Y3002D01*
X4612Y3001D01*
X4611Y3001D01*
X4611Y3001D01*
X4610Y3000D01*
X4610Y3000D01*
X4610Y3000D01*
X4609Y2999D01*
X4608Y2997D01*
X4608Y2996D01*
X4607Y2995D01*
X4607Y2994D01*
X4607Y2993D01*
Y2993D01*
Y2993D01*
X4607Y2991D01*
X4607Y2989D01*
X4608Y2988D01*
X4609Y2987D01*
X4609Y2986D01*
X4610Y2985D01*
X4610Y2984D01*
X4610Y2984D01*
X4612Y2983D01*
X4613Y2982D01*
X4615Y2982D01*
X4616Y2981D01*
X4617Y2981D01*
X4618Y2981D01*
X4619D01*
X4620Y2981D01*
X4621Y2981D01*
X4622Y2982D01*
X4623Y2982D01*
X4624Y2983D01*
X4625Y2983D01*
X4625Y2983D01*
X4625Y2983D01*
X4626Y2984D01*
X4627Y2986D01*
X4627Y2987D01*
X4627Y2988D01*
X4628Y2989D01*
X4628Y2990D01*
Y2990D01*
Y2990D01*
X4628Y2992D01*
X4627Y2994D01*
X4627Y2995D01*
X4626Y2996D01*
X4625Y2997D01*
X4625Y2998D01*
X4624Y2999D01*
X4624Y2999D01*
X4623Y3000D01*
X4622Y3001D01*
X4620Y3001D01*
X4619Y3002D01*
X4618Y3002D01*
X4617Y3002D01*
D02*
G37*
G36*
X4622Y2968D02*
X4622D01*
X4620Y2968D01*
X4619Y2967D01*
X4617Y2967D01*
X4616Y2966D01*
X4616Y2966D01*
X4615Y2965D01*
X4615Y2965D01*
X4615Y2965D01*
X4614Y2964D01*
X4613Y2962D01*
X4612Y2961D01*
X4612Y2960D01*
X4612Y2959D01*
X4612Y2958D01*
Y2958D01*
Y2957D01*
X4612Y2955D01*
X4612Y2952D01*
X4613Y2950D01*
X4614Y2948D01*
X4614Y2947D01*
X4615Y2946D01*
X4615Y2945D01*
X4615Y2945D01*
Y2945D01*
X4616Y2944D01*
X4617Y2943D01*
X4618Y2941D01*
X4620Y2940D01*
X4622Y2939D01*
X4623Y2939D01*
X4624Y2939D01*
X4625Y2939D01*
X4626D01*
X4627Y2939D01*
X4629Y2939D01*
X4630Y2940D01*
X4631Y2940D01*
X4632Y2941D01*
X4632Y2941D01*
X4633Y2941D01*
X4633Y2942D01*
X4634Y2943D01*
X4634Y2944D01*
X4635Y2945D01*
X4635Y2946D01*
X4635Y2948D01*
X4635Y2949D01*
Y2949D01*
Y2949D01*
X4635Y2952D01*
X4635Y2955D01*
X4634Y2957D01*
X4633Y2959D01*
X4633Y2961D01*
X4632Y2962D01*
X4631Y2962D01*
X4631Y2963D01*
X4630Y2964D01*
X4628Y2965D01*
X4626Y2966D01*
X4625Y2967D01*
X4624Y2967D01*
X4623Y2968D01*
X4622Y2968D01*
D02*
G37*
G36*
X4548Y3002D02*
X4548D01*
X4546Y3002D01*
X4545Y3002D01*
X4544Y3001D01*
X4543Y3001D01*
X4542Y3001D01*
X4541Y3000D01*
X4541Y3000D01*
X4541Y3000D01*
X4540Y2999D01*
X4539Y2997D01*
X4539Y2996D01*
X4539Y2995D01*
X4538Y2994D01*
X4538Y2993D01*
Y2993D01*
Y2993D01*
X4538Y2991D01*
X4539Y2989D01*
X4539Y2988D01*
X4540Y2987D01*
X4541Y2986D01*
X4541Y2985D01*
X4542Y2984D01*
X4542Y2984D01*
X4543Y2983D01*
X4545Y2982D01*
X4546Y2982D01*
X4547Y2981D01*
X4548Y2981D01*
X4549Y2981D01*
X4550D01*
X4551Y2981D01*
X4553Y2981D01*
X4554Y2982D01*
X4555Y2982D01*
X4556Y2983D01*
X4556Y2983D01*
X4557Y2983D01*
X4557Y2983D01*
X4557Y2984D01*
X4558Y2986D01*
X4558Y2987D01*
X4559Y2988D01*
X4559Y2989D01*
X4559Y2990D01*
Y2990D01*
Y2990D01*
X4559Y2992D01*
X4559Y2994D01*
X4558Y2995D01*
X4557Y2996D01*
X4557Y2997D01*
X4556Y2998D01*
X4556Y2999D01*
X4556Y2999D01*
X4554Y3000D01*
X4553Y3001D01*
X4552Y3001D01*
X4550Y3002D01*
X4549Y3002D01*
X4548Y3002D01*
D02*
G37*
G36*
X4553Y2968D02*
X4553D01*
X4552Y2968D01*
X4550Y2967D01*
X4549Y2967D01*
X4548Y2966D01*
X4547Y2966D01*
X4546Y2965D01*
X4546Y2965D01*
X4546Y2965D01*
X4545Y2964D01*
X4544Y2962D01*
X4544Y2961D01*
X4544Y2960D01*
X4543Y2959D01*
X4543Y2958D01*
Y2958D01*
Y2957D01*
X4543Y2955D01*
X4544Y2952D01*
X4544Y2950D01*
X4545Y2948D01*
X4546Y2947D01*
X4546Y2946D01*
X4547Y2945D01*
X4547Y2945D01*
Y2945D01*
X4547Y2944D01*
X4548Y2943D01*
X4550Y2941D01*
X4552Y2940D01*
X4553Y2939D01*
X4555Y2939D01*
X4556Y2939D01*
X4557Y2939D01*
X4557D01*
X4559Y2939D01*
X4560Y2939D01*
X4561Y2940D01*
X4562Y2940D01*
X4563Y2941D01*
X4564Y2941D01*
X4564Y2941D01*
X4564Y2942D01*
X4565Y2943D01*
X4566Y2944D01*
X4566Y2945D01*
X4566Y2946D01*
X4567Y2948D01*
X4567Y2949D01*
Y2949D01*
Y2949D01*
X4567Y2952D01*
X4566Y2955D01*
X4565Y2957D01*
X4565Y2959D01*
X4564Y2961D01*
X4563Y2962D01*
X4563Y2962D01*
X4563Y2963D01*
X4561Y2964D01*
X4559Y2965D01*
X4558Y2966D01*
X4556Y2967D01*
X4555Y2967D01*
X4554Y2968D01*
X4553Y2968D01*
D02*
G37*
G36*
X4480Y3002D02*
X4479D01*
X4478Y3002D01*
X4476Y3002D01*
X4475Y3001D01*
X4474Y3001D01*
X4473Y3001D01*
X4473Y3000D01*
X4473Y3000D01*
X4472Y3000D01*
X4471Y2999D01*
X4471Y2997D01*
X4470Y2996D01*
X4470Y2995D01*
X4470Y2994D01*
X4470Y2993D01*
Y2993D01*
Y2993D01*
X4470Y2991D01*
X4470Y2989D01*
X4471Y2988D01*
X4471Y2987D01*
X4472Y2986D01*
X4473Y2985D01*
X4473Y2984D01*
X4473Y2984D01*
X4475Y2983D01*
X4476Y2982D01*
X4477Y2982D01*
X4479Y2981D01*
X4480Y2981D01*
X4481Y2981D01*
X4481D01*
X4483Y2981D01*
X4484Y2981D01*
X4485Y2982D01*
X4486Y2982D01*
X4487Y2983D01*
X4488Y2983D01*
X4488Y2983D01*
X4488Y2983D01*
X4489Y2984D01*
X4489Y2986D01*
X4490Y2987D01*
X4490Y2988D01*
X4490Y2989D01*
X4490Y2990D01*
Y2990D01*
Y2990D01*
X4490Y2992D01*
X4490Y2994D01*
X4489Y2995D01*
X4489Y2996D01*
X4488Y2997D01*
X4488Y2998D01*
X4487Y2999D01*
X4487Y2999D01*
X4486Y3000D01*
X4484Y3001D01*
X4483Y3001D01*
X4482Y3002D01*
X4481Y3002D01*
X4480Y3002D01*
D02*
G37*
G36*
X4485Y2968D02*
X4484D01*
X4483Y2968D01*
X4482Y2967D01*
X4480Y2967D01*
X4479Y2966D01*
X4478Y2966D01*
X4478Y2965D01*
X4477Y2965D01*
X4477Y2965D01*
X4476Y2964D01*
X4476Y2962D01*
X4475Y2961D01*
X4475Y2960D01*
X4475Y2959D01*
X4475Y2958D01*
Y2958D01*
Y2957D01*
X4475Y2955D01*
X4475Y2952D01*
X4476Y2950D01*
X4476Y2948D01*
X4477Y2947D01*
X4478Y2946D01*
X4478Y2945D01*
X4478Y2945D01*
Y2945D01*
X4479Y2944D01*
X4480Y2943D01*
X4481Y2941D01*
X4483Y2940D01*
X4485Y2939D01*
X4486Y2939D01*
X4487Y2939D01*
X4488Y2939D01*
X4488D01*
X4490Y2939D01*
X4491Y2939D01*
X4493Y2940D01*
X4494Y2940D01*
X4494Y2941D01*
X4495Y2941D01*
X4495Y2941D01*
X4495Y2942D01*
X4496Y2943D01*
X4497Y2944D01*
X4497Y2945D01*
X4498Y2946D01*
X4498Y2948D01*
X4498Y2949D01*
Y2949D01*
Y2949D01*
X4498Y2952D01*
X4497Y2955D01*
X4497Y2957D01*
X4496Y2959D01*
X4495Y2961D01*
X4495Y2962D01*
X4494Y2962D01*
X4494Y2963D01*
X4492Y2964D01*
X4491Y2965D01*
X4489Y2966D01*
X4488Y2967D01*
X4486Y2967D01*
X4485Y2968D01*
X4485Y2968D01*
D02*
G37*
G36*
X967Y3174D02*
X953D01*
X951Y3174D01*
X949Y3173D01*
X948Y3173D01*
X947Y3173D01*
X946Y3173D01*
X945Y3173D01*
X945D01*
X943Y3172D01*
X942Y3171D01*
X941Y3170D01*
X939Y3169D01*
X939Y3168D01*
X938Y3167D01*
X938Y3167D01*
X937Y3166D01*
X936Y3164D01*
X936Y3162D01*
X935Y3160D01*
X935Y3158D01*
X935Y3155D01*
Y3154D01*
X934Y3154D01*
Y3153D01*
Y3153D01*
Y3152D01*
Y3152D01*
X935Y3148D01*
X935Y3144D01*
X936Y3141D01*
X936Y3140D01*
X936Y3138D01*
X937Y3137D01*
X937Y3136D01*
X937Y3135D01*
X937Y3134D01*
X938Y3134D01*
X938Y3133D01*
X938Y3133D01*
Y3133D01*
X939Y3130D01*
X941Y3128D01*
X943Y3125D01*
X944Y3123D01*
X945Y3122D01*
X946Y3121D01*
X947Y3120D01*
X947Y3120D01*
X947D01*
X949Y3119D01*
X950Y3118D01*
X951Y3117D01*
X953Y3116D01*
X954Y3116D01*
X955Y3116D01*
X955Y3115D01*
X956Y3115D01*
X956Y3115D01*
X957Y3115D01*
X960Y3115D01*
X962Y3114D01*
X964Y3114D01*
X967D01*
X968Y3114D01*
X979D01*
X967Y3174D01*
D02*
G37*
G36*
X1043Y3175D02*
X1041D01*
X1040Y3174D01*
X1037Y3174D01*
X1034Y3173D01*
X1032Y3172D01*
X1031Y3171D01*
X1030Y3170D01*
X1029Y3169D01*
X1028Y3169D01*
Y3169D01*
X1027Y3168D01*
X1027Y3166D01*
X1025Y3164D01*
X1024Y3161D01*
X1024Y3158D01*
X1023Y3156D01*
X1023Y3155D01*
Y3154D01*
X1023Y3153D01*
Y3153D01*
Y3152D01*
Y3152D01*
X1023Y3149D01*
X1024Y3145D01*
X1024Y3142D01*
X1025Y3139D01*
X1026Y3138D01*
X1026Y3137D01*
X1026Y3136D01*
X1027Y3135D01*
X1027Y3134D01*
X1027Y3134D01*
X1027Y3133D01*
Y3133D01*
X1029Y3130D01*
X1031Y3127D01*
X1033Y3124D01*
X1035Y3122D01*
X1036Y3120D01*
X1037Y3119D01*
X1038Y3119D01*
X1038Y3119D01*
X1038Y3118D01*
X1039D01*
X1041Y3117D01*
X1044Y3116D01*
X1046Y3115D01*
X1048Y3114D01*
X1050Y3114D01*
X1051Y3114D01*
X1052Y3114D01*
X1053D01*
X1054Y3114D01*
X1056Y3114D01*
X1059Y3115D01*
X1061Y3115D01*
X1063Y3117D01*
X1065Y3118D01*
X1066Y3119D01*
X1067Y3119D01*
X1067Y3120D01*
X1067Y3120D01*
X1068Y3121D01*
X1069Y3122D01*
X1070Y3125D01*
X1071Y3127D01*
X1072Y3130D01*
X1072Y3132D01*
X1072Y3133D01*
Y3133D01*
X1073Y3134D01*
Y3135D01*
Y3135D01*
Y3135D01*
X1072Y3138D01*
X1072Y3140D01*
X1072Y3143D01*
X1071Y3145D01*
X1071Y3148D01*
X1070Y3150D01*
X1069Y3152D01*
X1068Y3154D01*
X1068Y3156D01*
X1067Y3158D01*
X1066Y3159D01*
X1066Y3160D01*
X1065Y3161D01*
X1065Y3162D01*
X1064Y3162D01*
X1064Y3162D01*
X1063Y3164D01*
X1061Y3166D01*
X1059Y3168D01*
X1057Y3169D01*
X1056Y3171D01*
X1054Y3172D01*
X1052Y3173D01*
X1050Y3173D01*
X1049Y3174D01*
X1047Y3174D01*
X1046Y3174D01*
X1045Y3175D01*
X1044D01*
X1043Y3175D01*
D02*
G37*
G36*
X1002Y3316D02*
X986D01*
X985Y3316D01*
X984D01*
X982Y3316D01*
X980Y3316D01*
X979Y3316D01*
X978Y3315D01*
X978Y3315D01*
X978D01*
X976Y3314D01*
X975Y3313D01*
X974Y3313D01*
X974Y3312D01*
Y3312D01*
X973Y3311D01*
X973Y3311D01*
X972Y3309D01*
Y3308D01*
X972Y3307D01*
Y3307D01*
Y3307D01*
X972Y3305D01*
X973Y3304D01*
X973Y3302D01*
X974Y3301D01*
X974Y3300D01*
X975Y3299D01*
X975Y3298D01*
X975Y3298D01*
X976Y3297D01*
X978Y3296D01*
X979Y3295D01*
X980Y3294D01*
X981Y3293D01*
X982Y3293D01*
X982Y3293D01*
X983Y3293D01*
X984Y3292D01*
X985Y3292D01*
X986Y3292D01*
X988Y3292D01*
X991Y3291D01*
X994Y3291D01*
X997Y3291D01*
X998Y3291D01*
X1007D01*
X1002Y3316D01*
D02*
G37*
G36*
X903Y3312D02*
X898Y3277D01*
X922D01*
X903Y3312D01*
D02*
G37*
G36*
X606Y3317D02*
X604D01*
X602Y3317D01*
X599Y3316D01*
X597Y3315D01*
X595Y3314D01*
X593Y3313D01*
X592Y3312D01*
X591Y3311D01*
X591Y3311D01*
Y3311D01*
X590Y3310D01*
X589Y3309D01*
X588Y3306D01*
X587Y3303D01*
X586Y3301D01*
X586Y3298D01*
X585Y3297D01*
Y3297D01*
X585Y3296D01*
Y3295D01*
Y3295D01*
Y3295D01*
X585Y3291D01*
X586Y3288D01*
X587Y3285D01*
X587Y3282D01*
X588Y3280D01*
X588Y3279D01*
X589Y3278D01*
X589Y3277D01*
X589Y3277D01*
X590Y3276D01*
X590Y3276D01*
Y3275D01*
X592Y3272D01*
X593Y3269D01*
X595Y3267D01*
X597Y3265D01*
X599Y3263D01*
X600Y3262D01*
X600Y3261D01*
X601Y3261D01*
X601Y3261D01*
X601D01*
X604Y3259D01*
X606Y3258D01*
X608Y3257D01*
X611Y3257D01*
X612Y3256D01*
X614Y3256D01*
X614Y3256D01*
X615D01*
X617Y3256D01*
X618Y3256D01*
X621Y3257D01*
X624Y3258D01*
X626Y3259D01*
X627Y3260D01*
X629Y3261D01*
X629Y3262D01*
X629Y3262D01*
X630Y3262D01*
X631Y3263D01*
X631Y3265D01*
X633Y3267D01*
X634Y3270D01*
X634Y3272D01*
X635Y3274D01*
X635Y3275D01*
Y3276D01*
X635Y3277D01*
Y3277D01*
Y3277D01*
Y3277D01*
X635Y3280D01*
X635Y3283D01*
X634Y3285D01*
X634Y3288D01*
X633Y3290D01*
X632Y3293D01*
X632Y3295D01*
X631Y3297D01*
X630Y3298D01*
X629Y3300D01*
X629Y3301D01*
X628Y3303D01*
X628Y3303D01*
X627Y3304D01*
X627Y3305D01*
X627Y3305D01*
X625Y3307D01*
X623Y3309D01*
X622Y3310D01*
X620Y3312D01*
X618Y3313D01*
X616Y3314D01*
X615Y3315D01*
X613Y3316D01*
X611Y3316D01*
X610Y3317D01*
X609Y3317D01*
X607Y3317D01*
X606D01*
X606Y3317D01*
D02*
G37*
G36*
X3981Y2952D02*
X3976Y2917D01*
X4001D01*
X3981Y2952D01*
D02*
G37*
G36*
X3909Y2956D02*
X3893D01*
X3892Y2956D01*
X3891D01*
X3889Y2956D01*
X3887Y2955D01*
X3886Y2955D01*
X3886Y2955D01*
X3885Y2955D01*
X3885D01*
X3883Y2954D01*
X3882Y2953D01*
X3881Y2952D01*
X3881Y2952D01*
Y2952D01*
X3881Y2951D01*
X3880Y2950D01*
X3880Y2949D01*
Y2948D01*
X3880Y2947D01*
Y2947D01*
Y2947D01*
X3880Y2945D01*
X3880Y2943D01*
X3880Y2942D01*
X3881Y2941D01*
X3881Y2940D01*
X3882Y2939D01*
X3882Y2938D01*
X3882Y2938D01*
X3884Y2937D01*
X3885Y2936D01*
X3886Y2935D01*
X3887Y2934D01*
X3888Y2933D01*
X3889Y2933D01*
X3890Y2933D01*
X3890Y2933D01*
X3891Y2932D01*
X3892Y2932D01*
X3894Y2932D01*
X3895Y2931D01*
X3898Y2931D01*
X3901Y2931D01*
X3904Y2931D01*
X3906Y2931D01*
X3915D01*
X3909Y2956D01*
D02*
G37*
G36*
X3698Y2957D02*
X3696D01*
X3694Y2957D01*
X3692Y2956D01*
X3689Y2955D01*
X3687Y2954D01*
X3685Y2953D01*
X3684Y2952D01*
X3683Y2951D01*
X3683Y2951D01*
Y2951D01*
X3682Y2950D01*
X3681Y2949D01*
X3680Y2946D01*
X3679Y2943D01*
X3678Y2941D01*
X3678Y2938D01*
X3678Y2937D01*
Y2936D01*
X3677Y2936D01*
Y2935D01*
Y2935D01*
Y2935D01*
X3678Y2931D01*
X3678Y2928D01*
X3679Y2924D01*
X3680Y2921D01*
X3680Y2920D01*
X3681Y2919D01*
X3681Y2918D01*
X3681Y2917D01*
X3682Y2916D01*
X3682Y2916D01*
X3682Y2915D01*
Y2915D01*
X3684Y2912D01*
X3686Y2909D01*
X3687Y2906D01*
X3689Y2904D01*
X3691Y2903D01*
X3692Y2902D01*
X3693Y2901D01*
X3693Y2901D01*
X3693Y2901D01*
X3693D01*
X3696Y2899D01*
X3698Y2898D01*
X3701Y2897D01*
X3703Y2896D01*
X3705Y2896D01*
X3706Y2896D01*
X3706Y2896D01*
X3707D01*
X3709Y2896D01*
X3710Y2896D01*
X3713Y2897D01*
X3716Y2898D01*
X3718Y2899D01*
X3720Y2900D01*
X3721Y2901D01*
X3721Y2902D01*
X3722Y2902D01*
X3722Y2902D01*
X3723Y2903D01*
X3724Y2904D01*
X3725Y2907D01*
X3726Y2909D01*
X3727Y2912D01*
X3727Y2914D01*
X3727Y2915D01*
Y2916D01*
X3727Y2916D01*
Y2917D01*
Y2917D01*
Y2917D01*
X3727Y2920D01*
X3727Y2923D01*
X3726Y2925D01*
X3726Y2928D01*
X3725Y2930D01*
X3725Y2932D01*
X3724Y2934D01*
X3723Y2936D01*
X3722Y2938D01*
X3722Y2940D01*
X3721Y2941D01*
X3720Y2942D01*
X3720Y2943D01*
X3719Y2944D01*
X3719Y2944D01*
X3719Y2945D01*
X3717Y2947D01*
X3716Y2949D01*
X3714Y2950D01*
X3712Y2952D01*
X3710Y2953D01*
X3708Y2954D01*
X3707Y2955D01*
X3705Y2955D01*
X3703Y2956D01*
X3702Y2956D01*
X3701Y2957D01*
X3700Y2957D01*
X3699D01*
X3698Y2957D01*
D02*
G37*
G36*
X4564Y3124D02*
X4551D01*
X4549Y3124D01*
X4547Y3123D01*
X4545Y3123D01*
X4544Y3123D01*
X4543Y3123D01*
X4543Y3123D01*
X4543D01*
X4541Y3122D01*
X4540Y3121D01*
X4538Y3120D01*
X4537Y3119D01*
X4536Y3118D01*
X4536Y3117D01*
X4535Y3117D01*
X4535Y3116D01*
X4534Y3114D01*
X4533Y3112D01*
X4533Y3110D01*
X4532Y3108D01*
X4532Y3105D01*
Y3104D01*
X4532Y3104D01*
Y3103D01*
Y3103D01*
Y3102D01*
Y3102D01*
X4532Y3098D01*
X4533Y3094D01*
X4533Y3091D01*
X4534Y3090D01*
X4534Y3088D01*
X4534Y3087D01*
X4535Y3086D01*
X4535Y3085D01*
X4535Y3084D01*
X4535Y3084D01*
X4536Y3083D01*
X4536Y3083D01*
Y3083D01*
X4537Y3080D01*
X4539Y3078D01*
X4540Y3075D01*
X4542Y3073D01*
X4543Y3072D01*
X4544Y3071D01*
X4545Y3070D01*
X4545Y3070D01*
X4545D01*
X4546Y3069D01*
X4548Y3068D01*
X4549Y3067D01*
X4550Y3066D01*
X4552Y3066D01*
X4552Y3066D01*
X4553Y3065D01*
X4553Y3065D01*
X4554Y3065D01*
X4555Y3065D01*
X4557Y3065D01*
X4560Y3064D01*
X4562Y3064D01*
X4564D01*
X4565Y3064D01*
X4577D01*
X4564Y3124D01*
D02*
G37*
G36*
X3561Y857D02*
X3545D01*
X3544Y857D01*
X3543D01*
X3541Y857D01*
X3539Y857D01*
X3538Y857D01*
X3538Y856D01*
X3537Y856D01*
X3537D01*
X3535Y855D01*
X3534Y854D01*
X3533Y854D01*
X3533Y853D01*
Y853D01*
X3533Y852D01*
X3532Y852D01*
X3532Y850D01*
Y849D01*
X3532Y848D01*
Y848D01*
Y848D01*
X3532Y846D01*
X3532Y845D01*
X3532Y843D01*
X3533Y842D01*
X3533Y841D01*
X3534Y840D01*
X3534Y839D01*
X3534Y839D01*
X3536Y838D01*
X3537Y837D01*
X3538Y836D01*
X3539Y835D01*
X3540Y834D01*
X3541Y834D01*
X3542Y834D01*
X3542Y834D01*
X3543Y833D01*
X3544Y833D01*
X3546Y833D01*
X3547Y833D01*
X3550Y832D01*
X3553Y832D01*
X3556Y832D01*
X3558Y832D01*
X3567D01*
X3561Y857D01*
D02*
G37*
G36*
X5135Y724D02*
X5119D01*
X5118Y724D01*
X5117D01*
X5115Y723D01*
X5114Y723D01*
X5112Y723D01*
X5112Y723D01*
X5111Y723D01*
X5111D01*
X5109Y722D01*
X5108Y721D01*
X5107Y720D01*
X5107Y720D01*
Y720D01*
X5107Y719D01*
X5106Y718D01*
X5106Y716D01*
Y716D01*
X5106Y715D01*
Y715D01*
Y715D01*
X5106Y713D01*
X5106Y711D01*
X5107Y710D01*
X5107Y708D01*
X5108Y707D01*
X5108Y706D01*
X5108Y706D01*
X5108Y706D01*
X5110Y705D01*
X5111Y703D01*
X5112Y702D01*
X5113Y702D01*
X5114Y701D01*
X5115Y701D01*
X5116Y700D01*
X5116Y700D01*
X5117Y700D01*
X5118Y700D01*
X5120Y699D01*
X5121Y699D01*
X5124Y699D01*
X5127Y699D01*
X5130Y699D01*
X5132Y698D01*
X5141D01*
X5135Y724D01*
D02*
G37*
G36*
X2612Y702D02*
X2606Y666D01*
X2631D01*
X2612Y702D01*
D02*
G37*
G36*
X2539Y705D02*
X2516D01*
X2514Y705D01*
X2512Y705D01*
X2511Y705D01*
X2510Y704D01*
X2509Y704D01*
X2509Y704D01*
X2509Y704D01*
X2508Y703D01*
X2507Y702D01*
X2506Y700D01*
X2505Y699D01*
X2505Y698D01*
X2505Y697D01*
Y697D01*
Y697D01*
X2505Y695D01*
X2505Y694D01*
X2506Y692D01*
X2506Y691D01*
X2507Y690D01*
X2507Y689D01*
X2508Y689D01*
X2508Y689D01*
X2509Y687D01*
X2510Y686D01*
X2511Y685D01*
X2512Y685D01*
X2514Y684D01*
X2514Y684D01*
X2515Y683D01*
X2515Y683D01*
X2516Y683D01*
X2517Y683D01*
X2519Y683D01*
X2520Y682D01*
X2523Y682D01*
X2527Y682D01*
X2530Y682D01*
X2531Y682D01*
X2544D01*
X2539Y705D01*
D02*
G37*
G36*
X2272D02*
X2249D01*
X2247Y705D01*
X2245Y705D01*
X2244Y705D01*
X2243Y704D01*
X2242Y704D01*
X2242Y704D01*
X2242Y704D01*
X2240Y703D01*
X2239Y702D01*
X2239Y700D01*
X2238Y699D01*
X2238Y698D01*
X2238Y697D01*
Y697D01*
Y697D01*
X2238Y695D01*
X2238Y694D01*
X2239Y692D01*
X2239Y691D01*
X2240Y690D01*
X2240Y689D01*
X2240Y689D01*
X2241Y689D01*
X2242Y687D01*
X2243Y686D01*
X2244Y685D01*
X2245Y685D01*
X2246Y684D01*
X2247Y684D01*
X2248Y683D01*
X2248Y683D01*
X2249Y683D01*
X2250Y683D01*
X2252Y683D01*
X2253Y682D01*
X2256Y682D01*
X2259Y682D01*
X2262Y682D01*
X2264Y682D01*
X2277D01*
X2272Y705D01*
D02*
G37*
G36*
X1723Y441D02*
X1720D01*
X1719Y441D01*
X1715Y440D01*
X1713Y439D01*
X1710Y438D01*
X1708Y436D01*
X1707Y435D01*
X1706Y434D01*
X1706Y434D01*
Y434D01*
X1705Y433D01*
X1704Y431D01*
X1702Y428D01*
X1701Y425D01*
X1700Y422D01*
X1700Y419D01*
X1699Y418D01*
Y417D01*
X1699Y417D01*
Y416D01*
Y416D01*
Y415D01*
X1699Y411D01*
X1700Y408D01*
X1701Y404D01*
X1702Y400D01*
X1702Y399D01*
X1703Y398D01*
X1703Y396D01*
X1704Y395D01*
X1704Y395D01*
X1704Y394D01*
X1704Y394D01*
Y393D01*
X1706Y389D01*
X1708Y386D01*
X1711Y383D01*
X1713Y381D01*
X1714Y379D01*
X1716Y378D01*
X1717Y377D01*
X1717Y377D01*
X1717Y377D01*
X1717D01*
X1720Y375D01*
X1723Y373D01*
X1726Y372D01*
X1728Y372D01*
X1730Y371D01*
X1732Y371D01*
X1732Y371D01*
X1733D01*
X1735Y371D01*
X1737Y371D01*
X1740Y372D01*
X1743Y373D01*
X1746Y375D01*
X1747Y376D01*
X1749Y377D01*
X1750Y378D01*
X1750Y378D01*
X1750Y378D01*
X1751Y379D01*
X1752Y381D01*
X1754Y384D01*
X1755Y387D01*
X1755Y389D01*
X1756Y392D01*
X1756Y393D01*
Y394D01*
X1756Y395D01*
Y395D01*
Y395D01*
Y396D01*
X1756Y399D01*
X1756Y402D01*
X1755Y405D01*
X1755Y408D01*
X1754Y410D01*
X1753Y413D01*
X1752Y415D01*
X1751Y418D01*
X1750Y419D01*
X1750Y421D01*
X1749Y423D01*
X1748Y424D01*
X1748Y425D01*
X1747Y426D01*
X1747Y427D01*
X1747Y427D01*
X1745Y429D01*
X1743Y431D01*
X1741Y433D01*
X1739Y435D01*
X1737Y436D01*
X1735Y438D01*
X1733Y439D01*
X1731Y439D01*
X1729Y440D01*
X1727Y440D01*
X1726Y441D01*
X1725Y441D01*
X1724D01*
X1723Y441D01*
D02*
G37*
G36*
X943Y1673D02*
X914D01*
X912Y1672D01*
X910Y1672D01*
X908Y1672D01*
X907Y1672D01*
X906Y1672D01*
X905Y1672D01*
X905D01*
X903Y1671D01*
X902Y1670D01*
X900Y1669D01*
X899Y1668D01*
X898Y1667D01*
X897Y1666D01*
X897Y1666D01*
X897Y1666D01*
X896Y1664D01*
X895Y1662D01*
X894Y1660D01*
X894Y1659D01*
X894Y1657D01*
X893Y1656D01*
Y1655D01*
Y1655D01*
Y1655D01*
X894Y1652D01*
X894Y1649D01*
X895Y1647D01*
X896Y1645D01*
X897Y1643D01*
X898Y1642D01*
X899Y1642D01*
X899Y1641D01*
X900Y1641D01*
X901Y1640D01*
X904Y1639D01*
X907Y1638D01*
X910Y1637D01*
X913Y1637D01*
X914Y1637D01*
X915D01*
X916Y1637D01*
X943D01*
Y1673D01*
D02*
G37*
G36*
X1430Y1579D02*
X1429Y1575D01*
X1427Y1571D01*
X1426Y1567D01*
X1424Y1562D01*
X1423Y1561D01*
X1423Y1559D01*
X1422Y1557D01*
X1422Y1556D01*
X1421Y1555D01*
X1421Y1554D01*
X1421Y1553D01*
Y1553D01*
X1408Y1518D01*
X1450D01*
X1437Y1555D01*
X1435Y1560D01*
X1434Y1564D01*
X1433Y1568D01*
X1432Y1572D01*
X1431Y1575D01*
X1431Y1576D01*
X1430Y1577D01*
X1430Y1578D01*
Y1579D01*
X1430Y1579D01*
Y1579D01*
D02*
G37*
G36*
X1339Y1578D02*
X1309D01*
X1307Y1577D01*
X1305D01*
X1303Y1577D01*
X1299Y1577D01*
X1296Y1576D01*
X1294Y1576D01*
X1292Y1575D01*
X1291Y1575D01*
X1291Y1575D01*
X1287Y1573D01*
X1284Y1571D01*
X1282Y1569D01*
X1279Y1567D01*
X1277Y1564D01*
X1276Y1563D01*
X1276Y1562D01*
X1275Y1561D01*
X1275Y1561D01*
Y1561D01*
X1274Y1559D01*
X1273Y1556D01*
X1271Y1552D01*
X1270Y1547D01*
X1269Y1542D01*
X1269Y1539D01*
X1269Y1537D01*
X1268Y1535D01*
Y1534D01*
X1268Y1532D01*
Y1531D01*
Y1531D01*
Y1530D01*
X1268Y1525D01*
X1269Y1521D01*
X1269Y1516D01*
X1270Y1513D01*
X1270Y1511D01*
X1271Y1510D01*
X1271Y1509D01*
X1271Y1508D01*
X1271Y1507D01*
X1272Y1507D01*
X1272Y1506D01*
Y1506D01*
X1273Y1503D01*
X1274Y1500D01*
X1276Y1497D01*
X1278Y1494D01*
X1279Y1493D01*
X1280Y1491D01*
X1281Y1491D01*
X1281Y1490D01*
X1283Y1489D01*
X1284Y1487D01*
X1286Y1486D01*
X1288Y1485D01*
X1290Y1485D01*
X1291Y1484D01*
X1292Y1484D01*
X1292Y1484D01*
X1295Y1483D01*
X1298Y1482D01*
X1302Y1482D01*
X1305Y1482D01*
X1307Y1482D01*
X1309Y1481D01*
X1339D01*
Y1578D01*
D02*
G37*
%LPD*%
D10*
X1539Y934D02*
G03*
X1539Y934I-4J0D01*
G01*
X3907Y443D02*
G03*
X3907Y443I-4J0D01*
G01*
X4963Y296D02*
G03*
X4963Y296I-4J0D01*
G01*
X5132Y487D02*
G03*
X5132Y487I-4J0D01*
G01*
X2054Y703D02*
Y720D01*
Y618D02*
Y636D01*
X1996Y720D02*
X2054D01*
X1996Y618D02*
X2054D01*
Y919D02*
Y937D01*
Y834D02*
Y852D01*
X1996Y937D02*
X2054D01*
X1996Y834D02*
X2054D01*
X2574Y965D02*
X2862D01*
Y807D02*
Y965D01*
X2551Y941D02*
X2574Y965D01*
X2551Y831D02*
Y941D01*
X2574Y807D02*
X2862D01*
X2551Y831D02*
X2574Y807D01*
X3155Y301D02*
X3179D01*
X3155Y380D02*
X3179D01*
X3155Y301D02*
Y380D01*
X3179Y301D02*
Y380D01*
X3740Y702D02*
X3956D01*
X3740Y498D02*
X3956D01*
D11*
X3129Y293D02*
G03*
X3129Y293I-6J0D01*
G01*
D12*
X1963Y594D02*
G03*
X1963Y594I-5J0D01*
G01*
Y811D02*
G03*
X1963Y811I-5J0D01*
G01*
D13*
X2232Y902D02*
G03*
X2256Y902I12J0D01*
G01*
X2223D02*
X2232D01*
X2256D01*
X2265D01*
D14*
X5016Y3041D02*
X5142D01*
X5016Y2963D02*
X5142D01*
X3031Y2577D02*
X3091D01*
X3031Y2640D02*
X3091D01*
X2915Y2348D02*
Y2435D01*
X2994Y2348D02*
Y2435D01*
X3868Y1888D02*
X3928D01*
X3868Y1951D02*
X3928D01*
X3868Y1986D02*
X3928D01*
X3868Y2049D02*
X3928D01*
X3868Y2055D02*
X3928D01*
X3868Y2118D02*
X3928D01*
X3484Y2577D02*
X3544D01*
X3484Y2640D02*
X3544D01*
X1722Y1258D02*
X1782D01*
X1722Y1321D02*
X1782D01*
X1722Y1327D02*
X1782D01*
X1722Y1390D02*
X1782D01*
X1722Y1396D02*
X1782D01*
X1722Y1459D02*
X1782D01*
X1722Y1465D02*
X1782D01*
X1722Y1528D02*
X1782D01*
X1850Y1360D02*
X1910D01*
X1850Y1297D02*
X1910D01*
X1850Y1429D02*
X1910D01*
X1850Y1366D02*
X1910D01*
X1850Y1498D02*
X1910D01*
X1850Y1435D02*
X1910D01*
X1850Y1567D02*
X1910D01*
X1850Y1504D02*
X1910D01*
X1722Y1533D02*
X1782D01*
X1722Y1596D02*
X1782D01*
X1505Y818D02*
Y885D01*
X1566Y818D02*
Y885D01*
X1604Y809D02*
Y895D01*
X1683Y809D02*
Y895D01*
X1781Y808D02*
Y899D01*
X1703Y808D02*
Y899D01*
X2220Y921D02*
X2269D01*
X2220Y988D02*
X2269D01*
X3293Y374D02*
X3384D01*
X3293Y453D02*
X3384D01*
X3293Y278D02*
X3384D01*
X3293Y357D02*
X3384D01*
X3490Y433D02*
X3577D01*
X3490Y512D02*
X3577D01*
X3490Y336D02*
X3577D01*
X3490Y415D02*
X3577D01*
X3490Y241D02*
X3577D01*
X3490Y320D02*
X3577D01*
X3486Y222D02*
X3577D01*
X3486Y143D02*
X3577D01*
X3841Y336D02*
X3868D01*
X3841Y458D02*
X3868D01*
X3750Y336D02*
X3778D01*
X3750Y458D02*
X3778D01*
X4022Y394D02*
X4108D01*
X4022Y315D02*
X4108D01*
X4022Y472D02*
X4108D01*
X4022Y394D02*
X4108D01*
X4748Y256D02*
X4835D01*
X4748Y335D02*
X4835D01*
X5083Y330D02*
X5098D01*
Y332D01*
Y485D02*
Y487D01*
X5083D02*
X5098D01*
X4980Y330D02*
Y332D01*
Y330D02*
X4996D01*
X4980Y487D02*
X4996D01*
X4980Y485D02*
Y487D01*
X5207Y286D02*
Y373D01*
X5285Y286D02*
Y373D01*
X5305Y286D02*
Y373D01*
X5384Y286D02*
Y373D01*
X5728Y287D02*
Y374D01*
X5807Y287D02*
Y374D01*
X286Y3604D02*
X312D01*
X286Y3631D01*
Y3638D01*
X292Y3644D01*
X306D01*
X312Y3638D01*
X272D02*
X266Y3644D01*
X252D01*
X246Y3638D01*
Y3611D01*
X252Y3604D01*
X266D01*
X272Y3611D01*
Y3638D01*
X1482D02*
X1476Y3644D01*
X1462D01*
X1456Y3638D01*
Y3611D01*
X1462Y3604D01*
X1476D01*
X1482Y3611D01*
Y3638D01*
X1442Y3604D02*
X1429D01*
X1436D01*
Y3644D01*
X1442Y3638D01*
X307Y2204D02*
X294D01*
X301D01*
Y2244D01*
X307Y2238D01*
X248Y2244D02*
X261Y2238D01*
X274Y2224D01*
Y2211D01*
X267Y2204D01*
X254D01*
X248Y2211D01*
Y2218D01*
X254Y2224D01*
X274D01*
X1482Y2204D02*
X1469D01*
X1476D01*
Y2244D01*
X1482Y2238D01*
X1423Y2244D02*
X1449D01*
Y2224D01*
X1436Y2231D01*
X1429D01*
X1423Y2224D01*
Y2211D01*
X1429Y2204D01*
X1442D01*
X1449Y2211D01*
X1938Y3741D02*
Y3701D01*
X1918D01*
X1911Y3708D01*
Y3734D01*
X1918Y3741D01*
X1938D01*
X1898D02*
X1885D01*
X1891D01*
Y3701D01*
X1898D01*
X1885D01*
X1838Y3734D02*
X1845Y3741D01*
X1858D01*
X1865Y3734D01*
Y3728D01*
X1858Y3721D01*
X1845D01*
X1838Y3714D01*
Y3708D01*
X1845Y3701D01*
X1858D01*
X1865Y3708D01*
X1825Y3701D02*
Y3741D01*
X1805D01*
X1798Y3734D01*
Y3721D01*
X1805Y3714D01*
X1825D01*
X1785Y3701D02*
X1771D01*
X1778D01*
Y3741D01*
X1785Y3734D01*
X5090Y560D02*
Y527D01*
X5084Y520D01*
X5070D01*
X5064Y527D01*
Y560D01*
X5050Y520D02*
X5037D01*
X5044D01*
Y560D01*
X5050Y553D01*
X4990Y560D02*
X5017D01*
Y540D01*
X5004Y547D01*
X4997D01*
X4990Y540D01*
Y527D01*
X4997Y520D01*
X5010D01*
X5017Y527D01*
X3723Y458D02*
Y433D01*
X3718Y428D01*
X3708D01*
X3703Y433D01*
Y458D01*
X3693Y428D02*
X3683D01*
X3688D01*
Y458D01*
X3693Y453D01*
X3648Y458D02*
X3658Y453D01*
X3668Y443D01*
Y433D01*
X3663Y428D01*
X3653D01*
X3648Y433D01*
Y438D01*
X3653Y443D01*
X3668D01*
X5103Y3092D02*
X5110Y3098D01*
X5123D01*
X5130Y3092D01*
Y3065D01*
X5123Y3058D01*
X5110D01*
X5103Y3065D01*
X5070Y3058D02*
Y3098D01*
X5090Y3078D01*
X5063D01*
X5050Y3065D02*
X5043Y3058D01*
X5030D01*
X5023Y3065D01*
Y3092D01*
X5030Y3098D01*
X5043D01*
X5050Y3092D01*
Y3085D01*
X5043Y3078D01*
X5023D01*
X4098Y2205D02*
X4112D01*
X4105D01*
Y2172D01*
X4112Y2165D01*
X4118D01*
X4125Y2172D01*
X4058Y2205D02*
X4085D01*
Y2185D01*
X4072Y2192D01*
X4065D01*
X4058Y2185D01*
Y2172D01*
X4065Y2165D01*
X4078D01*
X4085Y2172D01*
X5269Y2422D02*
X5282D01*
X5276D01*
Y2389D01*
X5282Y2382D01*
X5289D01*
X5296Y2389D01*
X5236Y2382D02*
Y2422D01*
X5256Y2402D01*
X5229D01*
X3598Y697D02*
X3605Y704D01*
X3618D01*
X3625Y697D01*
Y671D01*
X3618Y664D01*
X3605D01*
X3598Y671D01*
X3558Y704D02*
X3572Y697D01*
X3585Y684D01*
Y671D01*
X3578Y664D01*
X3565D01*
X3558Y671D01*
Y677D01*
X3565Y684D01*
X3585D01*
X3545Y671D02*
X3538Y664D01*
X3525D01*
X3518Y671D01*
Y697D01*
X3525Y704D01*
X3538D01*
X3545Y697D01*
Y691D01*
X3538Y684D01*
X3518D01*
X4819Y498D02*
X4826Y505D01*
X4839D01*
X4846Y498D01*
Y471D01*
X4839Y465D01*
X4826D01*
X4819Y471D01*
X4779Y505D02*
X4793Y498D01*
X4806Y485D01*
Y471D01*
X4799Y465D01*
X4786D01*
X4779Y471D01*
Y478D01*
X4786Y485D01*
X4806D01*
X4739Y505D02*
X4766D01*
Y485D01*
X4753Y491D01*
X4746D01*
X4739Y485D01*
Y471D01*
X4746Y465D01*
X4759D01*
X4766Y471D01*
X2290Y772D02*
Y739D01*
X2283Y732D01*
X2270D01*
X2263Y739D01*
Y772D01*
X2250Y732D02*
X2237D01*
X2243D01*
Y772D01*
X2250Y766D01*
X2197Y732D02*
Y772D01*
X2217Y752D01*
X2190D01*
X2028Y557D02*
Y583D01*
X2035Y590D01*
X2048D01*
X2055Y583D01*
Y557D01*
X2048Y550D01*
X2035D01*
X2042Y563D02*
X2028Y550D01*
X2035D02*
X2028Y557D01*
X2015Y590D02*
X1988D01*
Y583D01*
X2015Y557D01*
Y550D01*
X2860Y795D02*
Y755D01*
X2840D01*
X2833Y762D01*
Y788D01*
X2840Y795D01*
X2860D01*
X2820D02*
X2793D01*
Y788D01*
X2820Y762D01*
Y755D01*
X851Y1251D02*
Y1221D01*
X831D01*
X801Y1251D02*
X821D01*
Y1221D01*
X801D01*
X821Y1236D02*
X811D01*
X791Y1251D02*
Y1221D01*
X776D01*
X771Y1226D01*
Y1246D01*
X776Y1251D01*
X791D01*
X761Y1221D02*
X751D01*
X756D01*
Y1251D01*
X761Y1246D01*
X3080Y368D02*
Y335D01*
X3073Y328D01*
X3060D01*
X3053Y335D01*
Y368D01*
X3013D02*
X3040D01*
Y348D01*
X3027Y355D01*
X3020D01*
X3013Y348D01*
Y335D01*
X3020Y328D01*
X3033D01*
X3040Y335D01*
X290Y2000D02*
X295Y2005D01*
X305D01*
X310Y2000D01*
Y1995D01*
X305Y1990D01*
X295D01*
X290Y1985D01*
Y1980D01*
X295Y1975D01*
X305D01*
X310Y1980D01*
X280Y2005D02*
Y1975D01*
X270Y1985D01*
X260Y1975D01*
Y2005D01*
X250Y1975D02*
X240D01*
X245D01*
Y2005D01*
X250Y2000D01*
X4269Y414D02*
Y454D01*
X4249D01*
X4242Y447D01*
Y434D01*
X4249Y427D01*
X4269D01*
X4255D02*
X4242Y414D01*
X4202Y454D02*
X4215Y447D01*
X4229Y434D01*
Y421D01*
X4222Y414D01*
X4209D01*
X4202Y421D01*
Y427D01*
X4209Y434D01*
X4229D01*
X4162Y454D02*
X4175Y447D01*
X4189Y434D01*
Y421D01*
X4182Y414D01*
X4169D01*
X4162Y421D01*
Y427D01*
X4169Y434D01*
X4189D01*
X3705Y267D02*
Y297D01*
X3690D01*
X3685Y292D01*
Y282D01*
X3690Y277D01*
X3705D01*
X3695D02*
X3685Y267D01*
X3655Y297D02*
X3665Y292D01*
X3675Y282D01*
Y272D01*
X3670Y267D01*
X3660D01*
X3655Y272D01*
Y277D01*
X3660Y282D01*
X3675D01*
X3625Y297D02*
X3645D01*
Y282D01*
X3635Y287D01*
X3630D01*
X3625Y282D01*
Y272D01*
X3630Y267D01*
X3640D01*
X3645Y272D01*
X1625Y948D02*
X1665D01*
Y968D01*
X1658Y974D01*
X1645D01*
X1638Y968D01*
Y948D01*
Y961D02*
X1625Y974D01*
X1665Y1014D02*
X1658Y1001D01*
X1645Y988D01*
X1632D01*
X1625Y994D01*
Y1008D01*
X1632Y1014D01*
X1638D01*
X1645Y1008D01*
Y988D01*
X1625Y1048D02*
X1665D01*
X1645Y1028D01*
Y1054D01*
X3705Y170D02*
Y200D01*
X3690D01*
X3685Y195D01*
Y185D01*
X3690Y180D01*
X3705D01*
X3695D02*
X3685Y170D01*
X3655Y200D02*
X3665Y195D01*
X3675Y185D01*
Y175D01*
X3670Y170D01*
X3660D01*
X3655Y175D01*
Y180D01*
X3660Y185D01*
X3675D01*
X3645Y195D02*
X3640Y200D01*
X3630D01*
X3625Y195D01*
Y190D01*
X3630Y185D01*
X3635D01*
X3630D01*
X3625Y180D01*
Y175D01*
X3630Y170D01*
X3640D01*
X3645Y175D01*
X1718Y948D02*
X1758D01*
Y968D01*
X1751Y975D01*
X1738D01*
X1731Y968D01*
Y948D01*
Y962D02*
X1718Y975D01*
X1758Y1015D02*
X1751Y1002D01*
X1738Y988D01*
X1724D01*
X1718Y995D01*
Y1008D01*
X1724Y1015D01*
X1731D01*
X1738Y1008D01*
Y988D01*
X1718Y1055D02*
Y1028D01*
X1744Y1055D01*
X1751D01*
X1758Y1048D01*
Y1035D01*
X1751Y1028D01*
X3705Y366D02*
Y395D01*
X3690D01*
X3685Y390D01*
Y381D01*
X3690Y376D01*
X3705D01*
X3695D02*
X3685Y366D01*
X3655Y395D02*
X3665Y390D01*
X3675Y381D01*
Y371D01*
X3670Y366D01*
X3660D01*
X3655Y371D01*
Y376D01*
X3660Y381D01*
X3675D01*
X3645Y366D02*
X3635D01*
X3640D01*
Y395D01*
X3645Y390D01*
X4269Y337D02*
Y377D01*
X4249D01*
X4242Y370D01*
Y357D01*
X4249Y350D01*
X4269D01*
X4255D02*
X4242Y337D01*
X4202Y377D02*
X4215Y370D01*
X4229Y357D01*
Y344D01*
X4222Y337D01*
X4209D01*
X4202Y344D01*
Y350D01*
X4209Y357D01*
X4229D01*
X4189Y370D02*
X4182Y377D01*
X4169D01*
X4162Y370D01*
Y344D01*
X4169Y337D01*
X4182D01*
X4189Y344D01*
Y370D01*
X3708Y475D02*
Y505D01*
X3693D01*
X3688Y500D01*
Y490D01*
X3693Y485D01*
X3708D01*
X3698D02*
X3688Y475D01*
X3658Y505D02*
X3678D01*
Y490D01*
X3668Y495D01*
X3663D01*
X3658Y490D01*
Y480D01*
X3663Y475D01*
X3673D01*
X3678Y480D01*
X3648D02*
X3643Y475D01*
X3633D01*
X3628Y480D01*
Y500D01*
X3633Y505D01*
X3643D01*
X3648Y500D01*
Y495D01*
X3643Y490D01*
X3628D01*
X5340Y422D02*
X5380D01*
Y442D01*
X5373Y449D01*
X5360D01*
X5353Y442D01*
Y422D01*
Y435D02*
X5340Y449D01*
X5380Y489D02*
Y462D01*
X5360D01*
X5367Y475D01*
Y482D01*
X5360Y489D01*
X5347D01*
X5340Y482D01*
Y469D01*
X5347Y462D01*
X5373Y502D02*
X5380Y509D01*
Y522D01*
X5373Y529D01*
X5367D01*
X5360Y522D01*
X5353Y529D01*
X5347D01*
X5340Y522D01*
Y509D01*
X5347Y502D01*
X5353D01*
X5360Y509D01*
X5367Y502D01*
X5373D01*
X5360Y509D02*
Y522D01*
X5150Y278D02*
X5190D01*
Y298D01*
X5183Y305D01*
X5170D01*
X5163Y298D01*
Y278D01*
Y292D02*
X5150Y305D01*
X5190Y345D02*
Y318D01*
X5170D01*
X5177Y332D01*
Y338D01*
X5170Y345D01*
X5157D01*
X5150Y338D01*
Y325D01*
X5157Y318D01*
X5190Y358D02*
Y385D01*
X5183D01*
X5157Y358D01*
X5150D01*
X5825Y286D02*
X5865D01*
Y306D01*
X5858Y313D01*
X5845D01*
X5838Y306D01*
Y286D01*
Y300D02*
X5825Y313D01*
X5865Y353D02*
Y326D01*
X5845D01*
X5852Y340D01*
Y346D01*
X5845Y353D01*
X5832D01*
X5825Y346D01*
Y333D01*
X5832Y326D01*
X5865Y393D02*
X5858Y380D01*
X5845Y366D01*
X5832D01*
X5825Y373D01*
Y386D01*
X5832Y393D01*
X5838D01*
X5845Y386D01*
Y366D01*
X4846Y200D02*
Y240D01*
X4826D01*
X4819Y233D01*
Y220D01*
X4826Y213D01*
X4846D01*
X4833D02*
X4819Y200D01*
X4779Y240D02*
X4806D01*
Y220D01*
X4793Y227D01*
X4786D01*
X4779Y220D01*
Y207D01*
X4786Y200D01*
X4799D01*
X4806Y207D01*
X4739Y240D02*
X4766D01*
Y220D01*
X4753Y227D01*
X4746D01*
X4739Y220D01*
Y207D01*
X4746Y200D01*
X4759D01*
X4766Y207D01*
X2149Y949D02*
Y989D01*
X2129D01*
X2122Y982D01*
Y969D01*
X2129Y962D01*
X2149D01*
X2135D02*
X2122Y949D01*
X2082Y989D02*
X2109D01*
Y969D01*
X2095Y975D01*
X2089D01*
X2082Y969D01*
Y955D01*
X2089Y949D01*
X2102D01*
X2109Y955D01*
X2049Y949D02*
Y989D01*
X2069Y969D01*
X2042D01*
X1190Y2020D02*
Y2050D01*
X1175D01*
X1170Y2045D01*
Y2035D01*
X1175Y2030D01*
X1190D01*
X1180D02*
X1170Y2020D01*
X1145D02*
Y2050D01*
X1160Y2035D01*
X1140D01*
X1115Y2020D02*
Y2050D01*
X1130Y2035D01*
X1110D01*
X3410Y221D02*
Y261D01*
X3390D01*
X3383Y255D01*
Y241D01*
X3390Y235D01*
X3410D01*
X3397D02*
X3383Y221D01*
X3370Y255D02*
X3363Y261D01*
X3350D01*
X3343Y255D01*
Y248D01*
X3350Y241D01*
X3357D01*
X3350D01*
X3343Y235D01*
Y228D01*
X3350Y221D01*
X3363D01*
X3370Y228D01*
X3303Y221D02*
X3330D01*
X3303Y248D01*
Y255D01*
X3310Y261D01*
X3323D01*
X3330Y255D01*
X3410Y470D02*
Y510D01*
X3390D01*
X3383Y503D01*
Y490D01*
X3390Y483D01*
X3410D01*
X3397D02*
X3383Y470D01*
X3370Y503D02*
X3363Y510D01*
X3350D01*
X3343Y503D01*
Y496D01*
X3350Y490D01*
X3357D01*
X3350D01*
X3343Y483D01*
Y476D01*
X3350Y470D01*
X3363D01*
X3370Y476D01*
X3330Y470D02*
X3317D01*
X3323D01*
Y510D01*
X3330Y503D01*
X2094Y1519D02*
Y1559D01*
X2074D01*
X2067Y1552D01*
Y1539D01*
X2074Y1532D01*
X2094D01*
X2080D02*
X2067Y1519D01*
X2027D02*
X2054D01*
X2027Y1546D01*
Y1552D01*
X2034Y1559D01*
X2047D01*
X2054Y1552D01*
X1987Y1559D02*
X2000Y1552D01*
X2014Y1539D01*
Y1526D01*
X2007Y1519D01*
X1994D01*
X1987Y1526D01*
Y1532D01*
X1994Y1539D01*
X2014D01*
X2094Y1450D02*
Y1490D01*
X2074D01*
X2067Y1483D01*
Y1470D01*
X2074Y1463D01*
X2094D01*
X2080D02*
X2067Y1450D01*
X2027D02*
X2054D01*
X2027Y1476D01*
Y1483D01*
X2034Y1490D01*
X2047D01*
X2054Y1483D01*
X1987Y1490D02*
X2014D01*
Y1470D01*
X2000Y1476D01*
X1994D01*
X1987Y1470D01*
Y1456D01*
X1994Y1450D01*
X2007D01*
X2014Y1456D01*
X2094Y1381D02*
Y1421D01*
X2074D01*
X2067Y1414D01*
Y1401D01*
X2074Y1394D01*
X2094D01*
X2080D02*
X2067Y1381D01*
X2027D02*
X2054D01*
X2027Y1407D01*
Y1414D01*
X2034Y1421D01*
X2047D01*
X2054Y1414D01*
X1994Y1381D02*
Y1421D01*
X2014Y1401D01*
X1987D01*
X2095Y1309D02*
Y1349D01*
X2075D01*
X2068Y1342D01*
Y1329D01*
X2075Y1322D01*
X2095D01*
X2082D02*
X2068Y1309D01*
X2028D02*
X2055D01*
X2028Y1336D01*
Y1342D01*
X2035Y1349D01*
X2048D01*
X2055Y1342D01*
X2015D02*
X2008Y1349D01*
X1995D01*
X1988Y1342D01*
Y1336D01*
X1995Y1329D01*
X2002D01*
X1995D01*
X1988Y1322D01*
Y1316D01*
X1995Y1309D01*
X2008D01*
X2015Y1316D01*
X1647Y1270D02*
Y1310D01*
X1627D01*
X1620Y1303D01*
Y1290D01*
X1627Y1283D01*
X1647D01*
X1633D02*
X1620Y1270D01*
X1607D02*
X1593D01*
X1600D01*
Y1310D01*
X1607Y1303D01*
X1547Y1310D02*
X1573D01*
Y1290D01*
X1560Y1297D01*
X1553D01*
X1547Y1290D01*
Y1277D01*
X1553Y1270D01*
X1567D01*
X1573Y1277D01*
X1647Y1343D02*
Y1383D01*
X1627D01*
X1620Y1376D01*
Y1363D01*
X1627Y1356D01*
X1647D01*
X1633D02*
X1620Y1343D01*
X1607D02*
X1593D01*
X1600D01*
Y1383D01*
X1607Y1376D01*
X1553Y1343D02*
Y1383D01*
X1573Y1363D01*
X1547D01*
X1647Y1410D02*
Y1450D01*
X1627D01*
X1620Y1443D01*
Y1430D01*
X1627Y1423D01*
X1647D01*
X1633D02*
X1620Y1410D01*
X1607D02*
X1593D01*
X1600D01*
Y1450D01*
X1607Y1443D01*
X1573D02*
X1567Y1450D01*
X1553D01*
X1547Y1443D01*
Y1437D01*
X1553Y1430D01*
X1560D01*
X1553D01*
X1547Y1423D01*
Y1417D01*
X1553Y1410D01*
X1567D01*
X1573Y1417D01*
X1646Y1480D02*
Y1520D01*
X1626D01*
X1619Y1513D01*
Y1500D01*
X1626Y1493D01*
X1646D01*
X1632D02*
X1619Y1480D01*
X1606D02*
X1592D01*
X1599D01*
Y1520D01*
X1606Y1513D01*
X1546Y1480D02*
X1572D01*
X1546Y1507D01*
Y1513D01*
X1552Y1520D01*
X1566D01*
X1572Y1513D01*
X1644Y1548D02*
Y1588D01*
X1624D01*
X1617Y1581D01*
Y1568D01*
X1624Y1561D01*
X1644D01*
X1631D02*
X1617Y1548D01*
X1604D02*
X1591D01*
X1597D01*
Y1588D01*
X1604Y1581D01*
X1571Y1548D02*
X1557D01*
X1564D01*
Y1588D01*
X1571Y1581D01*
X2938Y2486D02*
X2978D01*
Y2506D01*
X2971Y2513D01*
X2958D01*
X2951Y2506D01*
Y2486D01*
Y2500D02*
X2938Y2513D01*
X2971Y2526D02*
X2978Y2533D01*
Y2546D01*
X2971Y2553D01*
X2965D01*
X2958Y2546D01*
X2951Y2553D01*
X2945D01*
X2938Y2546D01*
Y2533D01*
X2945Y2526D01*
X2951D01*
X2958Y2533D01*
X2965Y2526D01*
X2971D01*
X2958Y2533D02*
Y2546D01*
X3933Y1831D02*
Y1871D01*
X3913D01*
X3906Y1864D01*
Y1851D01*
X3913Y1844D01*
X3933D01*
X3920D02*
X3906Y1831D01*
X3866Y1871D02*
X3880Y1864D01*
X3893Y1851D01*
Y1837D01*
X3886Y1831D01*
X3873D01*
X3866Y1837D01*
Y1844D01*
X3873Y1851D01*
X3893D01*
X3930Y2134D02*
Y2174D01*
X3910D01*
X3903Y2167D01*
Y2154D01*
X3910Y2147D01*
X3930D01*
X3917D02*
X3903Y2134D01*
X3863Y2174D02*
X3890D01*
Y2154D01*
X3877Y2161D01*
X3870D01*
X3863Y2154D01*
Y2141D01*
X3870Y2134D01*
X3883D01*
X3890Y2141D01*
X4040Y1999D02*
Y2039D01*
X4020D01*
X4013Y2032D01*
Y2019D01*
X4020Y2012D01*
X4040D01*
X4027D02*
X4013Y1999D01*
X3980D02*
Y2039D01*
X4000Y2019D01*
X3973D01*
X3549Y2657D02*
Y2697D01*
X3529D01*
X3522Y2690D01*
Y2677D01*
X3529Y2670D01*
X3549D01*
X3535D02*
X3522Y2657D01*
X3509Y2690D02*
X3502Y2697D01*
X3489D01*
X3482Y2690D01*
Y2684D01*
X3489Y2677D01*
X3495D01*
X3489D01*
X3482Y2670D01*
Y2664D01*
X3489Y2657D01*
X3502D01*
X3509Y2664D01*
X3094Y2658D02*
Y2698D01*
X3074D01*
X3068Y2691D01*
Y2678D01*
X3074Y2671D01*
X3094D01*
X3081D02*
X3068Y2658D01*
X3028D02*
X3054D01*
X3028Y2684D01*
Y2691D01*
X3034Y2698D01*
X3048D01*
X3054Y2691D01*
X1893Y873D02*
Y900D01*
X1900Y906D01*
X1913D01*
X1920Y900D01*
Y873D01*
X1913Y867D01*
X1900D01*
X1907Y880D02*
X1893Y867D01*
X1900D02*
X1893Y873D01*
X1853Y906D02*
X1867Y900D01*
X1880Y886D01*
Y873D01*
X1873Y867D01*
X1860D01*
X1853Y873D01*
Y880D01*
X1860Y886D01*
X1880D01*
X926Y1748D02*
X896D01*
Y1768D01*
X926Y1798D02*
Y1778D01*
X896D01*
Y1798D01*
X911Y1778D02*
Y1788D01*
X926Y1808D02*
X896D01*
Y1823D01*
X901Y1828D01*
X921D01*
X926Y1823D01*
Y1808D01*
X896Y1858D02*
Y1838D01*
X916Y1858D01*
X921D01*
X926Y1853D01*
Y1843D01*
X921Y1838D01*
X3880Y760D02*
Y720D01*
X3853D01*
X3840Y753D02*
X3833Y760D01*
X3820D01*
X3813Y753D01*
Y747D01*
X3820Y740D01*
X3827D01*
X3820D01*
X3813Y733D01*
Y727D01*
X3820Y720D01*
X3833D01*
X3840Y727D01*
X5067Y71D02*
Y31D01*
X5040D01*
X5000D02*
X5027D01*
X5000Y58D01*
Y64D01*
X5007Y71D01*
X5020D01*
X5027Y64D01*
X2920Y344D02*
X2880D01*
Y364D01*
X2887Y370D01*
X2893D01*
X2900Y364D01*
Y344D01*
Y364D01*
X2907Y370D01*
X2913D01*
X2920Y364D01*
Y344D01*
X2880Y384D02*
X2907D01*
X2920Y397D01*
X2907Y410D01*
X2880D01*
X2900D01*
Y384D01*
X2920Y424D02*
Y450D01*
Y437D01*
X2880D01*
Y464D02*
Y477D01*
Y470D01*
X2920D01*
X2913Y464D01*
X1580Y3749D02*
X1594D01*
X1587D01*
Y3716D01*
X1594Y3709D01*
X1600D01*
X1607Y3716D01*
X1567Y3742D02*
X1560Y3749D01*
X1547D01*
X1540Y3742D01*
Y3736D01*
X1547Y3729D01*
X1540Y3722D01*
Y3716D01*
X1547Y3709D01*
X1560D01*
X1567Y3716D01*
Y3722D01*
X1560Y3729D01*
X1567Y3736D01*
Y3742D01*
X1560Y3729D02*
X1547D01*
X4571Y800D02*
X4585D01*
X4578D01*
Y767D01*
X4585Y760D01*
X4591D01*
X4598Y767D01*
X4531Y760D02*
X4558D01*
X4531Y787D01*
Y793D01*
X4538Y800D01*
X4551D01*
X4558Y793D01*
X4668Y888D02*
X4682D01*
X4675D01*
Y855D01*
X4682Y848D01*
X4688D01*
X4695Y855D01*
X4655Y848D02*
X4642D01*
X4648D01*
Y888D01*
X4655Y881D01*
X1559Y960D02*
X1519D01*
Y980D01*
X1526Y987D01*
X1552D01*
X1559Y980D01*
Y960D01*
X1552Y1000D02*
X1559Y1007D01*
Y1020D01*
X1552Y1027D01*
X1546D01*
X1539Y1020D01*
X1532Y1027D01*
X1526D01*
X1519Y1020D01*
Y1007D01*
X1526Y1000D01*
X1532D01*
X1539Y1007D01*
X1546Y1000D01*
X1552D01*
X1539Y1007D02*
Y1020D01*
X1453Y963D02*
X1460Y956D01*
Y943D01*
X1453Y936D01*
X1427D01*
X1420Y943D01*
Y956D01*
X1427Y963D01*
X1460Y976D02*
Y1003D01*
X1453D01*
X1427Y976D01*
X1420D01*
Y1036D02*
X1460D01*
X1440Y1016D01*
Y1043D01*
X3902Y235D02*
X3907Y230D01*
Y220D01*
X3902Y215D01*
X3882D01*
X3877Y220D01*
Y230D01*
X3882Y235D01*
X3907Y245D02*
Y265D01*
X3902D01*
X3882Y245D01*
X3877D01*
X3902Y275D02*
X3907Y280D01*
Y290D01*
X3902Y295D01*
X3897D01*
X3892Y290D01*
Y285D01*
Y290D01*
X3887Y295D01*
X3882D01*
X3877Y290D01*
Y280D01*
X3882Y275D01*
X3675Y97D02*
X3680Y102D01*
X3690D01*
X3695Y97D01*
Y77D01*
X3690Y72D01*
X3680D01*
X3675Y77D01*
X3665Y102D02*
X3645D01*
Y97D01*
X3665Y77D01*
Y72D01*
X3615D02*
X3635D01*
X3615Y92D01*
Y97D01*
X3620Y102D01*
X3630D01*
X3635Y97D01*
X4353Y68D02*
X4359Y75D01*
X4372D01*
X4379Y68D01*
Y42D01*
X4372Y35D01*
X4359D01*
X4353Y42D01*
X4339Y75D02*
X4313D01*
Y68D01*
X4339Y42D01*
Y35D01*
X4299D02*
X4286D01*
X4293D01*
Y75D01*
X4299Y68D01*
X3822Y73D02*
X3828Y80D01*
X3842D01*
X3848Y73D01*
Y47D01*
X3842Y40D01*
X3828D01*
X3822Y47D01*
X3808Y80D02*
X3782D01*
Y73D01*
X3808Y47D01*
Y40D01*
X3768Y73D02*
X3762Y80D01*
X3748D01*
X3742Y73D01*
Y47D01*
X3748Y40D01*
X3762D01*
X3768Y47D01*
Y73D01*
X3244Y632D02*
X3250Y625D01*
Y612D01*
X3244Y605D01*
X3217D01*
X3210Y612D01*
Y625D01*
X3217Y632D01*
X3250Y672D02*
X3244Y658D01*
X3230Y645D01*
X3217D01*
X3210Y652D01*
Y665D01*
X3217Y672D01*
X3224D01*
X3230Y665D01*
Y645D01*
X3244Y685D02*
X3250Y692D01*
Y705D01*
X3244Y712D01*
X3237D01*
X3230Y705D01*
X3224Y712D01*
X3217D01*
X3210Y705D01*
Y692D01*
X3217Y685D01*
X3224D01*
X3230Y692D01*
X3237Y685D01*
X3244D01*
X3230Y692D02*
Y705D01*
X5278Y593D02*
X5285Y600D01*
X5298D01*
X5305Y593D01*
Y567D01*
X5298Y560D01*
X5285D01*
X5278Y567D01*
X5238Y600D02*
X5252Y593D01*
X5265Y580D01*
Y567D01*
X5258Y560D01*
X5245D01*
X5238Y567D01*
Y573D01*
X5245Y580D01*
X5265D01*
X5225Y600D02*
X5198D01*
Y593D01*
X5225Y567D01*
Y560D01*
X5733Y162D02*
X5740Y155D01*
Y142D01*
X5733Y135D01*
X5706D01*
X5700Y142D01*
Y155D01*
X5706Y162D01*
X5740Y202D02*
X5733Y188D01*
X5720Y175D01*
X5706D01*
X5700Y182D01*
Y195D01*
X5706Y202D01*
X5713D01*
X5720Y195D01*
Y175D01*
X5740Y242D02*
X5733Y228D01*
X5720Y215D01*
X5706D01*
X5700Y222D01*
Y235D01*
X5706Y242D01*
X5713D01*
X5720Y235D01*
Y215D01*
X5345Y124D02*
X5351Y117D01*
Y104D01*
X5345Y97D01*
X5318D01*
X5311Y104D01*
Y117D01*
X5318Y124D01*
X5351Y164D02*
X5345Y151D01*
X5331Y137D01*
X5318D01*
X5311Y144D01*
Y157D01*
X5318Y164D01*
X5325D01*
X5331Y157D01*
Y137D01*
X5311Y197D02*
X5351D01*
X5331Y177D01*
Y204D01*
X2498Y836D02*
X2505Y843D01*
X2518D01*
X2525Y836D01*
Y809D01*
X2518Y803D01*
X2505D01*
X2498Y809D01*
X2458Y843D02*
X2472Y836D01*
X2485Y823D01*
Y809D01*
X2478Y803D01*
X2465D01*
X2458Y809D01*
Y816D01*
X2465Y823D01*
X2485D01*
X2445Y836D02*
X2438Y843D01*
X2425D01*
X2418Y836D01*
Y829D01*
X2425Y823D01*
X2432D01*
X2425D01*
X2418Y816D01*
Y809D01*
X2425Y803D01*
X2438D01*
X2445Y809D01*
X5253Y2888D02*
X5260Y2895D01*
X5273D01*
X5280Y2888D01*
Y2862D01*
X5273Y2855D01*
X5260D01*
X5253Y2862D01*
X5220Y2855D02*
Y2895D01*
X5240Y2875D01*
X5213D01*
X5200Y2888D02*
X5193Y2895D01*
X5180D01*
X5173Y2888D01*
Y2882D01*
X5180Y2875D01*
X5173Y2868D01*
Y2862D01*
X5180Y2855D01*
X5193D01*
X5200Y2862D01*
Y2868D01*
X5193Y2875D01*
X5200Y2882D01*
Y2888D01*
X5193Y2875D02*
X5180D01*
X3982Y2845D02*
X3989Y2852D01*
X4002D01*
X4009Y2845D01*
Y2819D01*
X4002Y2812D01*
X3989D01*
X3982Y2819D01*
X3949Y2812D02*
Y2852D01*
X3969Y2832D01*
X3942D01*
X3929Y2852D02*
X3902D01*
Y2845D01*
X3929Y2819D01*
Y2812D01*
X3164Y2490D02*
X3171Y2483D01*
Y2470D01*
X3164Y2463D01*
X3138D01*
X3131Y2470D01*
Y2483D01*
X3138Y2490D01*
X3131Y2503D02*
Y2517D01*
Y2510D01*
X3171D01*
X3164Y2503D01*
X0Y0D02*
Y4000D01*
X6000D01*
Y0D02*
Y4000D01*
X0Y0D02*
X6000D01*
D15*
X5049Y2919D02*
X5129D01*
X5049Y2829D02*
X5129D01*
X3112Y2450D02*
Y2530D01*
X3022Y2450D02*
Y2530D01*
X1392Y812D02*
Y892D01*
X1482Y812D02*
Y892D01*
X2525Y885D02*
Y965D01*
X2435Y885D02*
Y965D01*
X3533Y645D02*
X3613D01*
X3533Y555D02*
X3613D01*
X3494Y129D02*
X3574D01*
X3494Y39D02*
X3574D01*
X3754Y211D02*
X3834D01*
X3754Y301D02*
X3834D01*
X3754Y103D02*
X3834D01*
X3754Y193D02*
X3834D01*
X4754Y443D02*
X4834D01*
X4754Y353D02*
X4834D01*
X5201Y113D02*
Y193D01*
X5291Y113D02*
Y193D01*
X5216Y450D02*
X5296D01*
X5216Y540D02*
X5296D01*
X3907Y2691D02*
X3987D01*
X3907Y2781D02*
X3987D01*
D16*
X5181Y2978D02*
Y3026D01*
X874Y1748D02*
Y1874D01*
X740Y1748D02*
Y1874D01*
X858Y1205D02*
X902D01*
X856Y1120D02*
X902D01*
Y1205D01*
X3652Y2231D02*
X4124D01*
X3652D02*
Y2414D01*
Y2282D02*
X4124D01*
Y2231D02*
Y2414D01*
X4301Y2455D02*
Y2559D01*
Y2516D02*
X5305D01*
X4301Y2455D02*
X5305D01*
Y2559D01*
X4019Y946D02*
X4619D01*
X4019Y846D02*
Y946D01*
Y846D02*
X4619D01*
Y946D01*
X4112Y804D02*
X4512D01*
Y564D02*
Y804D01*
X4112Y564D02*
Y804D01*
Y564D02*
X4512D01*
X144Y1953D02*
X427D01*
X144Y1669D02*
X427D01*
X1487Y1624D02*
Y1999D01*
X1112Y1624D02*
X1487D01*
X1112Y1999D02*
X1487D01*
X1112Y1624D02*
Y1999D01*
X2353Y615D02*
X2863D01*
X2215Y395D02*
X2315D01*
X2265Y345D02*
Y445D01*
X308Y615D02*
X818D01*
X865Y345D02*
Y445D01*
X2863Y175D02*
Y615D01*
X2353Y175D02*
Y615D01*
Y175D02*
X2863D01*
X818D02*
Y615D01*
X308Y175D02*
Y615D01*
Y175D02*
X818D01*
X2936Y578D02*
X2992D01*
X2913Y600D02*
X2936Y578D01*
X2913Y821D02*
X2992D01*
X2913Y846D02*
X2992D01*
X2913Y796D02*
X2992D01*
X3110Y581D02*
X3169D01*
X3110Y796D02*
X3189D01*
X3169Y581D02*
X3189Y600D01*
X3110Y846D02*
X3189D01*
X3110Y871D02*
X3189D01*
X3110Y821D02*
X3189D01*
X2992Y796D02*
Y896D01*
X2913Y600D02*
Y896D01*
Y871D02*
X2992D01*
X2913Y896D02*
X2992D01*
X2971D02*
X2976D01*
X3110Y796D02*
Y896D01*
X3189Y600D02*
Y896D01*
X3110D02*
X3189D01*
X3126D02*
X3131D01*
X3944Y223D02*
Y280D01*
X3967Y302D01*
X4187Y223D02*
Y302D01*
X4212Y223D02*
Y302D01*
X4162Y223D02*
Y302D01*
X3947Y46D02*
Y105D01*
X4162Y27D02*
Y105D01*
X3947Y46D02*
X3967Y27D01*
X4212D02*
Y105D01*
X4237Y27D02*
Y105D01*
X4187Y27D02*
Y105D01*
X4162Y223D02*
X4262D01*
X3967Y302D02*
X4262D01*
X4237Y223D02*
Y302D01*
X4262Y223D02*
Y302D01*
Y240D02*
Y245D01*
X4162Y105D02*
X4262D01*
X3967Y27D02*
X4262D01*
Y105D01*
Y84D02*
Y89D01*
X5024Y261D02*
X5044D01*
X5024Y103D02*
X5044D01*
X5426Y111D02*
X5482D01*
X5404Y133D02*
X5426Y111D01*
X5404Y353D02*
X5482D01*
X5404Y378D02*
X5482D01*
X5404Y328D02*
X5482D01*
X5600Y113D02*
X5659D01*
X5600Y328D02*
X5679D01*
X5659Y113D02*
X5679Y133D01*
X5600Y378D02*
X5679D01*
X5600Y403D02*
X5679D01*
X5600Y353D02*
X5679D01*
X5482Y328D02*
Y428D01*
X5404Y133D02*
Y428D01*
Y403D02*
X5482D01*
X5404Y428D02*
X5482D01*
X5461D02*
X5466D01*
X5600Y328D02*
Y428D01*
X5679Y133D02*
Y428D01*
X5600D02*
X5679D01*
X5617D02*
X5622D01*
X1772Y1024D02*
X5925D01*
X1772D02*
Y3671D01*
X5925D01*
Y1024D02*
Y3671D01*
X107Y3679D02*
X157D01*
X207D01*
X107Y2179D02*
Y3679D01*
Y2179D02*
X207D01*
Y3679D01*
X107D02*
X1507D01*
X1607D01*
X1507Y2179D02*
Y3679D01*
X107Y2179D02*
X1507D01*
X1607D01*
Y3679D01*
D112*
X724Y1880D02*
G03*
X724Y1880I-6J0D01*
G01*
X3996Y2657D02*
G03*
X3996Y2657I-10J0D01*
G01*
X5197Y2795D02*
G03*
X5197Y2795I-10J0D01*
G01*
X1366Y1831D02*
G03*
X1366Y1831I-72J0D01*
G01*
X945Y1161D02*
G03*
X945Y1161I-138J0D01*
G01*
M02*
