G04*
G04 #@! TF.GenerationSoftware,Altium Limited,Altium Designer,19.0.15 (446)*
G04*
G04 Layer_Physical_Order=3*
G04 Layer_Color=36540*
%FSLAX23Y23*%
%MOIN*%
G70*
G01*
G75*
%ADD11C,0.010*%
%ADD15C,0.005*%
%ADD116C,0.020*%
%ADD119C,0.006*%
%ADD134C,0.070*%
%ADD139C,0.020*%
%ADD158C,0.006*%
G36*
X7181Y1062D02*
X7184Y1062D01*
X7184D01*
X7184Y1061D01*
X7185D01*
X7186Y1061D01*
X7188Y1061D01*
X7190Y1060D01*
X7190D01*
X7191Y1060D01*
X7191Y1060D01*
X7192Y1059D01*
X7194Y1059D01*
X7196Y1058D01*
X7196D01*
X7196Y1058D01*
X7197Y1057D01*
X7198Y1057D01*
X7199Y1056D01*
X7199Y1056D01*
X7199Y1056D01*
X7199Y1055D01*
X7200Y1055D01*
X7200Y1055D01*
X7200Y1054D01*
Y1053D01*
X7200Y1053D01*
Y1052D01*
Y1052D01*
X7201Y1051D01*
Y1051D01*
Y1050D01*
Y1049D01*
Y1049D01*
Y1048D01*
X7200Y1047D01*
Y1047D01*
X7200Y1046D01*
X7200Y1045D01*
Y1045D01*
X7200Y1045D01*
X7199Y1044D01*
X7199D01*
X7198Y1044D01*
X7198D01*
X7198Y1044D01*
X7197Y1044D01*
X7196Y1045D01*
X7195Y1045D01*
X7194Y1046D01*
X7193Y1046D01*
X7191Y1047D01*
X7191D01*
X7191Y1047D01*
X7190Y1048D01*
X7189Y1048D01*
X7187Y1049D01*
X7185Y1050D01*
X7185D01*
X7184Y1050D01*
X7183Y1050D01*
X7182Y1051D01*
X7181Y1051D01*
X7180Y1051D01*
X7177Y1051D01*
X7175D01*
X7174Y1051D01*
X7172Y1051D01*
X7169Y1050D01*
X7169D01*
X7169Y1050D01*
X7168Y1049D01*
X7167Y1049D01*
X7166Y1048D01*
X7164Y1047D01*
X7164Y1046D01*
X7163Y1045D01*
X7162Y1044D01*
X7161Y1042D01*
Y1042D01*
X7161Y1042D01*
X7161Y1041D01*
Y1041D01*
X7160Y1039D01*
X7160Y1037D01*
Y1037D01*
Y1036D01*
X7160Y1035D01*
Y1034D01*
X7161Y1032D01*
X7162Y1030D01*
X7162Y1029D01*
X7162Y1029D01*
X7163Y1028D01*
X7163Y1028D01*
X7165Y1026D01*
X7167Y1024D01*
X7167Y1024D01*
X7168Y1024D01*
X7168Y1023D01*
X7169Y1023D01*
X7170Y1022D01*
X7172Y1021D01*
X7175Y1020D01*
X7175D01*
X7175Y1019D01*
X7176Y1019D01*
X7177Y1019D01*
X7178Y1018D01*
X7180Y1017D01*
X7183Y1016D01*
X7183D01*
X7184Y1016D01*
X7185Y1015D01*
X7186Y1015D01*
X7187Y1014D01*
X7188Y1013D01*
X7192Y1011D01*
X7192Y1011D01*
X7192Y1011D01*
X7193Y1010D01*
X7194Y1010D01*
X7196Y1008D01*
X7199Y1006D01*
X7199Y1006D01*
X7200Y1005D01*
X7200Y1004D01*
X7201Y1004D01*
X7202Y1002D01*
X7203Y1001D01*
X7204Y998D01*
X7205Y998D01*
X7205Y997D01*
X7205Y996D01*
X7205Y995D01*
X7206Y993D01*
X7206Y992D01*
X7206Y990D01*
Y987D01*
Y987D01*
Y986D01*
X7206Y985D01*
X7206Y983D01*
X7206Y981D01*
X7205Y979D01*
X7205Y977D01*
X7204Y975D01*
X7203Y975D01*
X7203Y974D01*
X7203Y973D01*
X7202Y971D01*
X7201Y970D01*
X7199Y968D01*
X7198Y967D01*
X7196Y965D01*
X7196Y965D01*
X7195Y965D01*
X7194Y964D01*
X7193Y963D01*
X7192Y962D01*
X7190Y961D01*
X7188Y960D01*
X7185Y959D01*
X7185D01*
X7184Y959D01*
X7183Y959D01*
X7181Y959D01*
X7179Y958D01*
X7177Y958D01*
X7174Y958D01*
X7170D01*
X7168Y958D01*
X7167D01*
X7165Y958D01*
X7162Y959D01*
X7162D01*
X7161Y959D01*
X7160Y959D01*
X7160Y959D01*
X7157Y960D01*
X7154Y961D01*
X7154D01*
X7154Y961D01*
X7153Y961D01*
X7152Y961D01*
X7150Y962D01*
X7149Y963D01*
X7148D01*
X7148Y963D01*
X7147Y964D01*
X7146Y965D01*
X7145Y965D01*
X7145Y966D01*
X7145Y966D01*
X7144Y967D01*
X7144Y968D01*
Y968D01*
X7144Y969D01*
X7144Y970D01*
Y972D01*
Y972D01*
Y973D01*
Y974D01*
Y975D01*
Y975D01*
X7144Y975D01*
X7144Y976D01*
X7144Y976D01*
Y977D01*
X7144Y977D01*
X7145Y977D01*
X7145D01*
X7145Y978D01*
X7146Y978D01*
X7146D01*
X7147Y978D01*
X7148Y977D01*
X7149Y976D01*
X7149D01*
X7149Y976D01*
X7151Y975D01*
X7152Y975D01*
X7154Y973D01*
X7154D01*
X7155Y973D01*
X7155Y973D01*
X7156Y973D01*
X7158Y972D01*
X7159Y972D01*
X7162Y971D01*
X7162D01*
X7163Y970D01*
X7164Y970D01*
X7165Y970D01*
X7166Y970D01*
X7168Y969D01*
X7170Y969D01*
X7174D01*
X7175Y969D01*
X7178Y970D01*
X7180Y970D01*
X7180D01*
X7181Y971D01*
X7182Y971D01*
X7182Y971D01*
X7184Y972D01*
X7186Y974D01*
X7187Y974D01*
X7187Y974D01*
X7188Y975D01*
X7189Y977D01*
X7191Y979D01*
Y979D01*
X7191Y979D01*
X7191Y980D01*
X7191Y981D01*
X7192Y982D01*
X7192Y983D01*
X7192Y986D01*
Y986D01*
Y987D01*
X7192Y988D01*
Y989D01*
X7191Y991D01*
X7191Y992D01*
X7190Y993D01*
Y994D01*
X7190Y994D01*
X7189Y995D01*
X7189Y995D01*
X7187Y997D01*
X7185Y999D01*
X7185Y999D01*
X7184Y999D01*
X7184Y1000D01*
X7183Y1000D01*
X7182Y1001D01*
X7180Y1002D01*
X7178Y1003D01*
X7177Y1003D01*
X7177Y1003D01*
X7176Y1004D01*
X7175Y1004D01*
X7174Y1005D01*
X7172Y1006D01*
X7169Y1007D01*
X7169Y1007D01*
X7168Y1007D01*
X7168Y1008D01*
X7166Y1008D01*
X7165Y1009D01*
X7164Y1010D01*
X7161Y1011D01*
X7160Y1012D01*
X7160Y1012D01*
X7159Y1012D01*
X7158Y1013D01*
X7156Y1015D01*
X7153Y1017D01*
X7153Y1017D01*
X7153Y1018D01*
X7152Y1018D01*
X7151Y1019D01*
X7151Y1020D01*
X7150Y1022D01*
X7148Y1025D01*
Y1025D01*
X7148Y1026D01*
X7148Y1027D01*
X7147Y1028D01*
X7147Y1029D01*
X7147Y1031D01*
X7146Y1033D01*
X7146Y1036D01*
Y1036D01*
Y1037D01*
X7146Y1038D01*
X7147Y1039D01*
X7147Y1041D01*
X7147Y1043D01*
X7148Y1045D01*
X7148Y1047D01*
X7149Y1047D01*
X7149Y1048D01*
X7149Y1049D01*
X7150Y1050D01*
X7151Y1051D01*
X7152Y1053D01*
X7155Y1055D01*
X7155Y1055D01*
X7155Y1056D01*
X7156Y1057D01*
X7158Y1057D01*
X7159Y1058D01*
X7161Y1059D01*
X7163Y1060D01*
X7165Y1061D01*
X7165D01*
X7166Y1061D01*
X7167Y1061D01*
X7168Y1061D01*
X7170Y1062D01*
X7172Y1062D01*
X7175Y1062D01*
X7179D01*
X7181Y1062D01*
D02*
G37*
G36*
X7314Y1062D02*
X7316D01*
X7317Y1062D01*
X7321Y1061D01*
X7321D01*
X7322Y1061D01*
X7323Y1061D01*
X7324Y1061D01*
X7326Y1060D01*
X7327Y1060D01*
X7330Y1059D01*
X7331D01*
X7331Y1059D01*
X7332Y1058D01*
X7333Y1058D01*
X7335Y1057D01*
X7337Y1056D01*
X7337D01*
X7338Y1056D01*
X7339Y1055D01*
X7340Y1054D01*
X7341Y1053D01*
X7341Y1053D01*
X7341Y1053D01*
X7342Y1052D01*
X7342Y1051D01*
X7342Y1051D01*
X7343Y1050D01*
X7343Y1049D01*
Y1047D01*
Y1047D01*
Y1046D01*
Y1045D01*
X7343Y1044D01*
Y1044D01*
X7342Y1044D01*
X7342Y1042D01*
Y1042D01*
X7342Y1042D01*
X7341Y1041D01*
X7341D01*
X7340Y1041D01*
X7340D01*
X7340Y1041D01*
X7339Y1042D01*
X7337Y1043D01*
X7337D01*
X7337Y1043D01*
X7336Y1043D01*
X7336Y1043D01*
X7334Y1045D01*
X7331Y1046D01*
X7331D01*
X7330Y1046D01*
X7330Y1047D01*
X7329Y1047D01*
X7327Y1047D01*
X7326Y1048D01*
X7324Y1049D01*
X7322Y1049D01*
X7322D01*
X7321Y1049D01*
X7320Y1050D01*
X7319Y1050D01*
X7317Y1050D01*
X7315Y1051D01*
X7313Y1051D01*
X7309D01*
X7307Y1051D01*
X7305Y1050D01*
X7303Y1050D01*
X7300Y1049D01*
X7297Y1049D01*
X7295Y1048D01*
X7295Y1047D01*
X7294Y1047D01*
X7293Y1046D01*
X7291Y1045D01*
X7289Y1044D01*
X7287Y1043D01*
X7285Y1041D01*
X7284Y1039D01*
X7283Y1039D01*
X7283Y1038D01*
X7282Y1037D01*
X7281Y1035D01*
X7280Y1034D01*
X7279Y1031D01*
X7278Y1029D01*
X7276Y1026D01*
X7276Y1026D01*
X7276Y1025D01*
X7276Y1023D01*
X7275Y1021D01*
X7275Y1019D01*
X7274Y1016D01*
X7274Y1013D01*
X7274Y1010D01*
Y1010D01*
Y1010D01*
Y1009D01*
Y1008D01*
X7274Y1006D01*
X7274Y1004D01*
X7275Y1002D01*
X7275Y999D01*
X7276Y995D01*
X7277Y993D01*
X7277Y992D01*
X7277Y991D01*
X7278Y990D01*
X7279Y988D01*
X7280Y986D01*
X7281Y984D01*
X7282Y982D01*
X7284Y980D01*
X7284Y980D01*
X7285Y979D01*
X7286Y978D01*
X7287Y977D01*
X7289Y976D01*
X7291Y974D01*
X7293Y973D01*
X7296Y972D01*
X7296Y972D01*
X7297Y972D01*
X7298Y971D01*
X7300Y971D01*
X7302Y970D01*
X7305Y970D01*
X7307Y970D01*
X7310Y969D01*
X7312D01*
X7313Y970D01*
X7315D01*
X7316Y970D01*
X7320Y971D01*
X7320D01*
X7321Y971D01*
X7322Y971D01*
X7323Y971D01*
X7324Y972D01*
X7326Y973D01*
X7329Y974D01*
Y1004D01*
X7305D01*
X7305Y1004D01*
X7304Y1004D01*
X7303Y1005D01*
Y1005D01*
X7303Y1006D01*
X7303Y1007D01*
X7303Y1009D01*
Y1009D01*
Y1010D01*
Y1011D01*
Y1012D01*
Y1012D01*
X7303Y1012D01*
X7303Y1013D01*
X7303Y1013D01*
Y1014D01*
X7303Y1014D01*
X7304Y1014D01*
X7304D01*
X7304Y1015D01*
X7305Y1015D01*
X7338D01*
X7339Y1014D01*
X7340D01*
X7340Y1014D01*
X7341Y1013D01*
X7341Y1013D01*
X7341Y1013D01*
X7342Y1012D01*
X7342Y1012D01*
X7342Y1012D01*
X7342Y1011D01*
X7343Y1010D01*
Y1009D01*
Y970D01*
Y970D01*
Y969D01*
X7342Y968D01*
X7342Y967D01*
X7342Y967D01*
X7341Y966D01*
X7340Y965D01*
X7339Y964D01*
X7339D01*
X7338Y964D01*
X7338Y964D01*
X7337Y963D01*
X7335Y963D01*
X7333Y962D01*
X7333D01*
X7332Y961D01*
X7332Y961D01*
X7331Y961D01*
X7330Y961D01*
X7328Y960D01*
X7325Y959D01*
X7325D01*
X7325Y959D01*
X7324D01*
X7323Y959D01*
X7322Y959D01*
X7320Y959D01*
X7317Y958D01*
X7317D01*
X7316Y958D01*
X7315D01*
X7313Y958D01*
X7310Y958D01*
X7308D01*
X7307Y958D01*
X7306D01*
X7303Y958D01*
X7299Y959D01*
X7296Y959D01*
X7292Y960D01*
X7289Y961D01*
X7289D01*
X7288Y961D01*
X7287Y962D01*
X7285Y963D01*
X7283Y964D01*
X7281Y965D01*
X7278Y967D01*
X7276Y969D01*
X7273Y972D01*
X7273Y972D01*
X7272Y973D01*
X7271Y974D01*
X7269Y976D01*
X7268Y979D01*
X7266Y981D01*
X7265Y984D01*
X7263Y988D01*
Y988D01*
X7263Y988D01*
X7263Y989D01*
X7263Y989D01*
X7262Y991D01*
X7262Y994D01*
X7261Y997D01*
X7260Y1001D01*
X7260Y1005D01*
X7260Y1009D01*
Y1009D01*
Y1010D01*
Y1010D01*
Y1011D01*
X7260Y1012D01*
Y1013D01*
X7260Y1016D01*
X7261Y1020D01*
X7261Y1023D01*
X7262Y1027D01*
X7264Y1031D01*
Y1031D01*
X7264Y1031D01*
X7264Y1032D01*
X7264Y1032D01*
X7265Y1034D01*
X7266Y1037D01*
X7268Y1039D01*
X7269Y1042D01*
X7271Y1045D01*
X7274Y1048D01*
X7274Y1048D01*
X7275Y1049D01*
X7276Y1050D01*
X7278Y1052D01*
X7281Y1053D01*
X7283Y1055D01*
X7287Y1057D01*
X7290Y1059D01*
X7290D01*
X7290Y1059D01*
X7291Y1059D01*
X7291Y1059D01*
X7293Y1060D01*
X7296Y1061D01*
X7299Y1061D01*
X7302Y1062D01*
X7306Y1062D01*
X7310Y1062D01*
X7313D01*
X7314Y1062D01*
D02*
G37*
G36*
X7441Y1061D02*
X7442D01*
X7442Y1061D01*
X7443Y1061D01*
X7444Y1060D01*
X7444D01*
X7444Y1060D01*
X7445Y1059D01*
X7445Y1059D01*
X7445Y1059D01*
Y965D01*
Y964D01*
Y964D01*
X7445Y963D01*
X7444Y962D01*
X7444Y962D01*
X7444Y961D01*
X7443Y960D01*
X7443Y960D01*
X7442Y960D01*
X7442Y959D01*
X7441Y959D01*
X7440D01*
X7440Y959D01*
X7433D01*
X7432Y959D01*
X7431Y959D01*
X7431D01*
X7430Y960D01*
X7429Y960D01*
X7428Y961D01*
X7428Y961D01*
X7427Y961D01*
X7426Y963D01*
X7425Y964D01*
Y964D01*
X7425Y964D01*
X7424Y965D01*
X7423Y967D01*
X7422Y969D01*
X7391Y1027D01*
X7391Y1027D01*
X7390Y1028D01*
X7390Y1028D01*
X7389Y1030D01*
X7389Y1031D01*
X7388Y1033D01*
X7386Y1036D01*
X7386Y1036D01*
X7385Y1037D01*
X7385Y1038D01*
X7384Y1039D01*
X7384Y1041D01*
X7383Y1042D01*
X7381Y1046D01*
X7381D01*
Y1046D01*
Y1045D01*
Y1044D01*
X7381Y1042D01*
Y1040D01*
Y1038D01*
Y1034D01*
Y1034D01*
Y1033D01*
Y1032D01*
X7381Y1030D01*
Y1029D01*
Y1027D01*
Y1022D01*
Y961D01*
Y961D01*
X7381Y960D01*
X7381Y960D01*
X7380Y959D01*
X7380Y959D01*
X7380D01*
X7379Y959D01*
X7379D01*
X7378Y959D01*
X7378D01*
X7377Y959D01*
X7376Y959D01*
X7373D01*
X7372Y959D01*
X7371Y959D01*
X7371D01*
X7370Y959D01*
X7370D01*
X7369Y959D01*
X7369D01*
X7369Y959D01*
X7368Y960D01*
Y960D01*
Y960D01*
X7368Y961D01*
Y1055D01*
Y1055D01*
Y1056D01*
X7368Y1057D01*
X7369Y1058D01*
X7370Y1059D01*
X7370Y1060D01*
X7371Y1060D01*
X7372Y1061D01*
X7374Y1061D01*
X7382D01*
X7383Y1061D01*
X7384Y1060D01*
X7384D01*
X7385Y1060D01*
X7386Y1060D01*
X7387Y1059D01*
X7387Y1059D01*
X7388Y1058D01*
X7388Y1058D01*
X7389Y1057D01*
X7389Y1056D01*
X7390Y1055D01*
X7391Y1054D01*
X7392Y1053D01*
X7416Y1008D01*
X7416Y1008D01*
X7416Y1007D01*
X7417Y1006D01*
X7417Y1005D01*
X7418Y1004D01*
X7419Y1003D01*
X7420Y1000D01*
X7420Y1000D01*
X7420Y999D01*
X7421Y998D01*
X7421Y997D01*
X7423Y995D01*
X7424Y992D01*
X7424Y992D01*
X7424Y991D01*
X7425Y991D01*
X7425Y990D01*
X7427Y987D01*
X7428Y985D01*
Y985D01*
X7428Y984D01*
X7429Y983D01*
X7429Y982D01*
X7430Y980D01*
X7432Y977D01*
X7432D01*
Y978D01*
Y978D01*
Y980D01*
Y981D01*
X7432Y983D01*
Y985D01*
Y988D01*
Y990D01*
Y991D01*
Y991D01*
Y993D01*
Y994D01*
Y996D01*
Y999D01*
Y1003D01*
Y1059D01*
Y1059D01*
Y1059D01*
X7432Y1059D01*
Y1060D01*
X7432Y1060D01*
X7433Y1060D01*
X7433D01*
X7433Y1061D01*
X7434Y1061D01*
X7435Y1061D01*
X7435D01*
X7436Y1061D01*
X7440D01*
X7441Y1061D01*
D02*
G37*
G36*
X6918D02*
X6918D01*
X6919Y1061D01*
X6920Y1061D01*
X6920Y1060D01*
X6920D01*
X6921Y1060D01*
X6921Y1059D01*
X6922Y1059D01*
X6922Y1059D01*
Y965D01*
Y964D01*
Y964D01*
X6922Y963D01*
X6921Y962D01*
X6921Y962D01*
X6921Y961D01*
X6920Y960D01*
X6920Y960D01*
X6919Y960D01*
X6918Y959D01*
X6918Y959D01*
X6917D01*
X6916Y959D01*
X6910D01*
X6909Y959D01*
X6908Y959D01*
X6907D01*
X6907Y960D01*
X6906Y960D01*
X6904Y961D01*
X6904Y961D01*
X6904Y961D01*
X6903Y963D01*
X6902Y964D01*
Y964D01*
X6902Y964D01*
X6901Y965D01*
X6900Y967D01*
X6899Y969D01*
X6867Y1027D01*
X6867Y1027D01*
X6867Y1028D01*
X6867Y1028D01*
X6866Y1030D01*
X6865Y1031D01*
X6864Y1033D01*
X6863Y1036D01*
X6862Y1036D01*
X6862Y1037D01*
X6862Y1038D01*
X6861Y1039D01*
X6860Y1041D01*
X6860Y1042D01*
X6858Y1046D01*
X6858D01*
Y1046D01*
Y1045D01*
Y1044D01*
X6858Y1042D01*
Y1040D01*
Y1038D01*
Y1034D01*
Y1034D01*
Y1033D01*
Y1032D01*
X6858Y1030D01*
Y1029D01*
Y1027D01*
Y1022D01*
Y961D01*
Y961D01*
X6858Y960D01*
X6857Y960D01*
X6857Y959D01*
X6857Y959D01*
X6856D01*
X6856Y959D01*
X6855D01*
X6855Y959D01*
X6854D01*
X6854Y959D01*
X6853Y959D01*
X6850D01*
X6849Y959D01*
X6848Y959D01*
X6848D01*
X6847Y959D01*
X6846D01*
X6846Y959D01*
X6846D01*
X6846Y959D01*
X6845Y960D01*
Y960D01*
Y960D01*
X6845Y961D01*
Y1055D01*
Y1055D01*
Y1056D01*
X6845Y1057D01*
X6845Y1058D01*
X6846Y1059D01*
X6847Y1060D01*
X6848Y1060D01*
X6849Y1061D01*
X6850Y1061D01*
X6858D01*
X6859Y1061D01*
X6861Y1060D01*
X6861D01*
X6862Y1060D01*
X6863Y1060D01*
X6864Y1059D01*
X6864Y1059D01*
X6864Y1058D01*
X6865Y1058D01*
X6866Y1057D01*
X6866Y1056D01*
X6867Y1055D01*
X6868Y1054D01*
X6869Y1053D01*
X6893Y1008D01*
X6893Y1008D01*
X6893Y1007D01*
X6893Y1006D01*
X6894Y1005D01*
X6895Y1004D01*
X6895Y1003D01*
X6897Y1000D01*
X6897Y1000D01*
X6897Y999D01*
X6898Y998D01*
X6898Y997D01*
X6899Y995D01*
X6901Y992D01*
X6901Y992D01*
X6901Y991D01*
X6902Y991D01*
X6902Y990D01*
X6903Y987D01*
X6905Y985D01*
Y985D01*
X6905Y984D01*
X6905Y983D01*
X6906Y982D01*
X6907Y980D01*
X6908Y977D01*
X6908D01*
Y978D01*
Y978D01*
Y980D01*
Y981D01*
X6908Y983D01*
Y985D01*
Y988D01*
Y990D01*
Y991D01*
Y991D01*
Y993D01*
Y994D01*
Y996D01*
Y999D01*
Y1003D01*
Y1059D01*
Y1059D01*
Y1059D01*
X6908Y1059D01*
Y1060D01*
X6909Y1060D01*
X6910Y1060D01*
X6910D01*
X6910Y1061D01*
X6911Y1061D01*
X6912Y1061D01*
X6912D01*
X6913Y1061D01*
X6917D01*
X6918Y1061D01*
D02*
G37*
G36*
X6814D02*
X6814D01*
X6815Y1061D01*
X6816Y1061D01*
X6816Y1060D01*
X6816D01*
X6817Y1060D01*
X6817Y1059D01*
X6818Y1059D01*
X6818Y1059D01*
Y965D01*
Y964D01*
Y964D01*
X6818Y963D01*
X6817Y962D01*
X6817Y962D01*
X6817Y961D01*
X6816Y960D01*
X6816Y960D01*
X6815Y960D01*
X6814Y959D01*
X6814Y959D01*
X6813D01*
X6812Y959D01*
X6806D01*
X6805Y959D01*
X6803Y959D01*
X6803D01*
X6803Y960D01*
X6801Y960D01*
X6800Y961D01*
X6800Y961D01*
X6800Y961D01*
X6799Y963D01*
X6798Y964D01*
Y964D01*
X6797Y964D01*
X6797Y965D01*
X6796Y967D01*
X6795Y969D01*
X6763Y1027D01*
X6763Y1027D01*
X6763Y1028D01*
X6762Y1028D01*
X6762Y1030D01*
X6761Y1031D01*
X6760Y1033D01*
X6758Y1036D01*
X6758Y1036D01*
X6758Y1037D01*
X6758Y1038D01*
X6757Y1039D01*
X6756Y1041D01*
X6756Y1042D01*
X6754Y1046D01*
X6754D01*
Y1046D01*
Y1045D01*
Y1044D01*
X6754Y1042D01*
Y1040D01*
Y1038D01*
Y1034D01*
Y1034D01*
Y1033D01*
Y1032D01*
X6754Y1030D01*
Y1029D01*
Y1027D01*
Y1022D01*
Y961D01*
Y961D01*
X6754Y960D01*
X6753Y960D01*
X6753Y959D01*
X6752Y959D01*
X6752D01*
X6752Y959D01*
X6751D01*
X6750Y959D01*
X6750D01*
X6750Y959D01*
X6748Y959D01*
X6746D01*
X6745Y959D01*
X6744Y959D01*
X6744D01*
X6743Y959D01*
X6742D01*
X6742Y959D01*
X6742D01*
X6742Y959D01*
X6741Y960D01*
Y960D01*
Y960D01*
X6741Y961D01*
Y1055D01*
Y1055D01*
Y1056D01*
X6741Y1057D01*
X6741Y1058D01*
X6742Y1059D01*
X6743Y1060D01*
X6744Y1060D01*
X6745Y1061D01*
X6746Y1061D01*
X6754D01*
X6755Y1061D01*
X6757Y1060D01*
X6757D01*
X6758Y1060D01*
X6759Y1060D01*
X6760Y1059D01*
X6760Y1059D01*
X6760Y1058D01*
X6761Y1058D01*
X6762Y1057D01*
X6762Y1056D01*
X6763Y1055D01*
X6764Y1054D01*
X6764Y1053D01*
X6789Y1008D01*
X6789Y1008D01*
X6789Y1007D01*
X6789Y1006D01*
X6790Y1005D01*
X6791Y1004D01*
X6791Y1003D01*
X6793Y1000D01*
X6793Y1000D01*
X6793Y999D01*
X6793Y998D01*
X6794Y997D01*
X6795Y995D01*
X6797Y992D01*
X6797Y992D01*
X6797Y991D01*
X6797Y991D01*
X6798Y990D01*
X6799Y987D01*
X6801Y985D01*
Y985D01*
X6801Y984D01*
X6801Y983D01*
X6802Y982D01*
X6803Y980D01*
X6804Y977D01*
X6804D01*
Y978D01*
Y978D01*
Y980D01*
Y981D01*
X6804Y983D01*
Y985D01*
Y988D01*
Y990D01*
Y991D01*
Y991D01*
Y993D01*
Y994D01*
Y996D01*
Y999D01*
Y1003D01*
Y1059D01*
Y1059D01*
Y1059D01*
X6804Y1059D01*
Y1060D01*
X6805Y1060D01*
X6805Y1060D01*
X6806D01*
X6806Y1061D01*
X6807Y1061D01*
X6808Y1061D01*
X6808D01*
X6809Y1061D01*
X6813D01*
X6814Y1061D01*
D02*
G37*
G36*
X7697Y1062D02*
X7699D01*
X7701Y1062D01*
X7703Y1061D01*
X7705Y1061D01*
X7707Y1060D01*
X7708D01*
X7708Y1060D01*
X7709Y1059D01*
X7711Y1059D01*
X7714Y1057D01*
X7715Y1056D01*
X7717Y1055D01*
X7717Y1054D01*
X7717Y1054D01*
X7718Y1053D01*
X7719Y1052D01*
X7720Y1051D01*
X7721Y1049D01*
X7722Y1048D01*
X7722Y1046D01*
Y1046D01*
X7723Y1045D01*
X7723Y1044D01*
X7723Y1043D01*
X7724Y1041D01*
X7724Y1040D01*
X7724Y1036D01*
Y1036D01*
Y1035D01*
Y1034D01*
X7724Y1033D01*
Y1031D01*
X7724Y1030D01*
X7723Y1026D01*
Y1026D01*
X7723Y1025D01*
X7723Y1024D01*
X7723Y1023D01*
X7722Y1021D01*
X7721Y1020D01*
X7721Y1018D01*
X7719Y1016D01*
X7719Y1015D01*
X7719Y1015D01*
X7718Y1014D01*
X7717Y1012D01*
X7716Y1010D01*
X7715Y1008D01*
X7713Y1006D01*
X7711Y1003D01*
X7711Y1003D01*
X7710Y1002D01*
X7709Y1000D01*
X7708Y999D01*
X7706Y996D01*
X7703Y993D01*
X7700Y991D01*
X7697Y987D01*
X7681Y971D01*
X7726D01*
X7727Y970D01*
X7727D01*
X7727Y970D01*
X7728Y969D01*
Y969D01*
X7728Y969D01*
X7728Y968D01*
X7728Y967D01*
Y967D01*
X7729Y967D01*
X7729Y966D01*
Y965D01*
Y965D01*
Y964D01*
X7729Y963D01*
X7728Y962D01*
Y962D01*
X7728Y962D01*
X7728Y960D01*
Y960D01*
X7728Y960D01*
X7727Y959D01*
X7727D01*
X7726Y959D01*
X7669D01*
X7667Y959D01*
X7667D01*
X7667Y959D01*
X7666Y960D01*
Y960D01*
X7666Y961D01*
X7665Y961D01*
X7665Y962D01*
Y962D01*
Y963D01*
X7665Y964D01*
Y965D01*
Y965D01*
Y966D01*
Y967D01*
Y968D01*
Y968D01*
X7665Y968D01*
X7665Y970D01*
Y970D01*
X7666Y970D01*
X7666Y971D01*
X7667Y972D01*
X7667Y972D01*
X7667Y973D01*
X7668Y973D01*
X7688Y994D01*
X7689Y995D01*
X7690Y996D01*
X7691Y997D01*
X7692Y999D01*
X7694Y1001D01*
X7696Y1003D01*
X7698Y1005D01*
X7700Y1007D01*
X7700Y1007D01*
X7700Y1008D01*
X7701Y1009D01*
X7702Y1011D01*
X7703Y1012D01*
X7704Y1014D01*
X7705Y1016D01*
X7706Y1018D01*
X7706Y1018D01*
X7707Y1018D01*
X7707Y1019D01*
X7708Y1021D01*
X7709Y1023D01*
X7709Y1026D01*
Y1026D01*
X7710Y1027D01*
X7710Y1028D01*
X7710Y1029D01*
X7710Y1031D01*
X7710Y1034D01*
Y1034D01*
Y1034D01*
Y1035D01*
X7710Y1036D01*
X7710Y1038D01*
X7709Y1040D01*
Y1040D01*
X7709Y1040D01*
X7709Y1041D01*
X7708Y1042D01*
X7707Y1043D01*
X7706Y1045D01*
X7706Y1045D01*
X7705Y1046D01*
X7704Y1047D01*
X7702Y1048D01*
X7700Y1049D01*
X7700D01*
X7700Y1049D01*
X7699Y1049D01*
X7698Y1050D01*
X7697Y1050D01*
X7696Y1050D01*
X7693Y1050D01*
X7691D01*
X7690Y1050D01*
X7688Y1050D01*
X7687Y1050D01*
X7684Y1049D01*
X7684D01*
X7683Y1049D01*
X7682Y1048D01*
X7682Y1048D01*
X7679Y1047D01*
X7677Y1046D01*
X7677D01*
X7676Y1046D01*
X7676Y1045D01*
X7675Y1045D01*
X7674Y1044D01*
X7672Y1043D01*
X7672Y1043D01*
X7671Y1043D01*
X7670Y1042D01*
X7669Y1042D01*
X7669D01*
X7668Y1042D01*
X7668Y1042D01*
X7667Y1043D01*
Y1043D01*
X7667Y1044D01*
Y1044D01*
X7667Y1045D01*
Y1045D01*
Y1046D01*
Y1047D01*
Y1048D01*
Y1048D01*
Y1049D01*
Y1050D01*
Y1050D01*
Y1050D01*
X7667Y1051D01*
Y1051D01*
X7667Y1052D01*
X7667Y1053D01*
Y1053D01*
X7668Y1053D01*
X7668Y1053D01*
X7669Y1054D01*
X7669Y1054D01*
X7669Y1055D01*
X7671Y1055D01*
X7672Y1056D01*
X7672D01*
X7672Y1056D01*
X7673Y1057D01*
X7674Y1057D01*
X7675Y1058D01*
X7678Y1059D01*
X7678D01*
X7679Y1059D01*
X7679Y1059D01*
X7680Y1060D01*
X7681Y1060D01*
X7683Y1061D01*
X7686Y1061D01*
X7686D01*
X7686Y1061D01*
X7687Y1062D01*
X7688Y1062D01*
X7690Y1062D01*
X7691Y1062D01*
X7694Y1062D01*
X7696D01*
X7697Y1062D01*
D02*
G37*
G36*
X7574Y1061D02*
X7575Y1061D01*
X7575D01*
X7576Y1061D01*
X7577Y1061D01*
X7577Y1061D01*
X7577D01*
X7578Y1060D01*
X7578Y1060D01*
X7578Y1060D01*
X7579Y1060D01*
X7579Y1059D01*
Y971D01*
X7616D01*
X7616Y970D01*
X7617D01*
X7617Y970D01*
X7617Y969D01*
Y969D01*
X7618Y969D01*
X7618Y968D01*
X7618Y967D01*
Y967D01*
X7618Y967D01*
Y966D01*
Y965D01*
Y965D01*
Y964D01*
Y963D01*
X7618Y962D01*
Y962D01*
X7618Y962D01*
X7617Y960D01*
Y960D01*
X7617Y960D01*
X7616Y959D01*
X7616D01*
X7615Y959D01*
X7570D01*
X7569Y959D01*
X7568Y960D01*
X7567Y960D01*
X7567Y960D01*
X7566Y961D01*
X7565Y963D01*
X7565Y965D01*
Y1059D01*
Y1059D01*
Y1059D01*
X7565Y1060D01*
Y1060D01*
X7566Y1060D01*
X7567Y1061D01*
X7567D01*
X7567Y1061D01*
X7568Y1061D01*
X7569Y1061D01*
X7569D01*
X7570Y1061D01*
X7571Y1061D01*
X7573D01*
X7574Y1061D01*
D02*
G37*
G36*
X7003Y1061D02*
X7003D01*
X7004Y1060D01*
X7004Y1059D01*
Y1059D01*
X7004Y1059D01*
X7004Y1058D01*
X7004Y1058D01*
Y1057D01*
X7005Y1057D01*
X7005Y1056D01*
Y1055D01*
Y1055D01*
Y1054D01*
X7005Y1053D01*
X7004Y1053D01*
Y1052D01*
X7004Y1052D01*
X7004Y1051D01*
X7004Y1050D01*
X7003Y1050D01*
X7003D01*
X7002Y1050D01*
X6962D01*
Y1018D01*
X6997D01*
X6997Y1017D01*
X6998D01*
X6998Y1017D01*
X6998Y1016D01*
Y1016D01*
X6998Y1016D01*
X6999Y1015D01*
X6999Y1015D01*
Y1014D01*
X6999Y1014D01*
Y1013D01*
Y1012D01*
Y1012D01*
Y1011D01*
Y1010D01*
X6999Y1010D01*
Y1009D01*
X6999Y1009D01*
X6998Y1008D01*
X6998Y1008D01*
X6998Y1008D01*
X6997Y1007D01*
X6997D01*
X6996Y1007D01*
X6962D01*
Y970D01*
X7003D01*
X7004Y970D01*
X7004D01*
X7004Y970D01*
X7004Y969D01*
X7005Y969D01*
X7005Y969D01*
X7005Y968D01*
X7005Y967D01*
Y967D01*
X7005Y967D01*
Y966D01*
Y965D01*
Y964D01*
Y964D01*
Y963D01*
X7005Y962D01*
Y962D01*
X7005Y961D01*
X7004Y960D01*
Y960D01*
X7004Y960D01*
X7004Y959D01*
X7003D01*
X7002Y959D01*
X6953D01*
X6953Y959D01*
X6951Y960D01*
X6950Y960D01*
X6950Y960D01*
X6949Y961D01*
X6949Y963D01*
X6949Y965D01*
Y1055D01*
Y1055D01*
Y1056D01*
X6949Y1057D01*
X6949Y1058D01*
X6950Y1060D01*
X6951Y1060D01*
X6951Y1060D01*
X6952Y1061D01*
X6954Y1061D01*
X7002D01*
X7003Y1061D01*
D02*
G37*
G36*
X7509Y1061D02*
X7509D01*
X7510Y1061D01*
X7511Y1061D01*
X7512Y1061D01*
X7512D01*
X7512Y1061D01*
X7513Y1060D01*
X7513Y1060D01*
X7513D01*
X7514Y1059D01*
X7514Y1059D01*
X7548Y964D01*
X7549Y963D01*
X7549Y963D01*
X7549Y962D01*
Y961D01*
Y961D01*
Y960D01*
X7549Y960D01*
X7548Y959D01*
X7548D01*
X7548Y959D01*
X7547Y959D01*
X7546Y959D01*
X7545D01*
X7544Y959D01*
X7540D01*
X7538Y959D01*
X7538D01*
X7538Y959D01*
X7537D01*
X7536Y959D01*
X7536D01*
X7536Y959D01*
X7535Y960D01*
Y960D01*
X7535Y960D01*
X7534Y961D01*
X7526Y986D01*
X7483D01*
X7475Y961D01*
Y961D01*
X7475Y961D01*
X7474Y960D01*
X7474Y960D01*
X7473Y959D01*
X7473D01*
X7473Y959D01*
X7472D01*
X7471Y959D01*
X7470D01*
X7469Y959D01*
X7466D01*
X7465Y959D01*
X7464Y959D01*
X7464D01*
X7463Y959D01*
X7462Y959D01*
X7462Y959D01*
Y960D01*
X7462Y960D01*
X7461Y960D01*
X7461Y961D01*
Y961D01*
X7461Y962D01*
X7462Y963D01*
X7462Y964D01*
X7496Y1059D01*
Y1059D01*
X7496Y1059D01*
X7497Y1060D01*
X7497Y1060D01*
X7497Y1060D01*
X7498Y1061D01*
X7498D01*
X7499Y1061D01*
X7500Y1061D01*
X7501Y1061D01*
X7501D01*
X7502Y1061D01*
X7508D01*
X7509Y1061D01*
D02*
G37*
G36*
X7234D02*
X7235Y1061D01*
X7236D01*
X7236Y1061D01*
X7237Y1061D01*
X7237Y1061D01*
X7238D01*
X7238Y1060D01*
X7238Y1060D01*
X7239Y1060D01*
X7239Y1060D01*
X7239Y1059D01*
Y961D01*
Y961D01*
X7239Y960D01*
X7238Y960D01*
X7238Y959D01*
X7237Y959D01*
X7237D01*
X7237Y959D01*
X7236D01*
X7235Y959D01*
X7235D01*
X7235Y959D01*
X7234Y959D01*
X7231D01*
X7230Y959D01*
X7229Y959D01*
X7229D01*
X7228Y959D01*
X7227Y959D01*
X7227D01*
X7227Y959D01*
X7226Y960D01*
Y960D01*
Y960D01*
X7226Y961D01*
Y1059D01*
Y1059D01*
Y1059D01*
X7226Y1060D01*
Y1060D01*
X7226Y1060D01*
X7227Y1061D01*
X7227D01*
X7227Y1061D01*
X7228Y1061D01*
X7229Y1061D01*
X7229D01*
X7230Y1061D01*
X7231Y1061D01*
X7233D01*
X7234Y1061D01*
D02*
G37*
G36*
X7058Y1061D02*
X7060Y1061D01*
X7061D01*
X7062Y1060D01*
X7063D01*
X7065Y1060D01*
X7065D01*
X7066Y1060D01*
X7067Y1060D01*
X7069Y1059D01*
X7070Y1059D01*
X7072Y1058D01*
X7076Y1057D01*
X7076Y1057D01*
X7076Y1057D01*
X7077Y1056D01*
X7078Y1055D01*
X7081Y1054D01*
X7083Y1051D01*
X7083Y1051D01*
X7084Y1051D01*
X7084Y1050D01*
X7085Y1049D01*
X7086Y1048D01*
X7086Y1047D01*
X7088Y1044D01*
Y1043D01*
X7088Y1043D01*
X7088Y1042D01*
X7089Y1041D01*
X7089Y1039D01*
X7089Y1038D01*
X7089Y1034D01*
Y1034D01*
Y1033D01*
Y1032D01*
X7089Y1031D01*
X7089Y1029D01*
X7089Y1028D01*
X7088Y1025D01*
Y1024D01*
X7088Y1024D01*
X7087Y1023D01*
X7087Y1022D01*
X7086Y1020D01*
X7084Y1018D01*
X7084Y1017D01*
X7084Y1017D01*
X7083Y1016D01*
X7082Y1016D01*
X7080Y1014D01*
X7078Y1012D01*
X7078D01*
X7077Y1012D01*
X7076Y1011D01*
X7075Y1011D01*
X7074Y1010D01*
X7073Y1010D01*
X7070Y1008D01*
X7070D01*
X7070Y1008D01*
X7071Y1008D01*
X7072Y1007D01*
X7074Y1006D01*
X7074D01*
X7074Y1005D01*
X7075Y1004D01*
X7077Y1003D01*
X7078Y1002D01*
Y1001D01*
X7078Y1001D01*
X7079Y1001D01*
X7079Y1000D01*
X7080Y998D01*
X7081Y996D01*
Y996D01*
X7082Y995D01*
X7082Y995D01*
X7082Y994D01*
X7083Y992D01*
X7084Y989D01*
X7094Y967D01*
Y967D01*
X7094Y966D01*
X7094Y965D01*
X7095Y964D01*
X7095Y963D01*
Y963D01*
X7095Y962D01*
X7095Y961D01*
Y961D01*
X7095Y960D01*
X7095Y960D01*
X7094Y959D01*
X7094Y959D01*
X7094D01*
X7093Y959D01*
X7093D01*
X7092Y959D01*
X7091D01*
X7090Y959D01*
X7086D01*
X7085Y959D01*
X7084D01*
X7084Y959D01*
X7083D01*
X7083Y959D01*
X7082D01*
X7082Y959D01*
X7081Y960D01*
Y960D01*
X7081Y961D01*
X7081Y962D01*
X7071Y986D01*
Y986D01*
X7071Y986D01*
X7071Y987D01*
X7070Y988D01*
X7069Y991D01*
X7068Y993D01*
Y993D01*
X7067Y994D01*
X7067Y994D01*
X7067Y995D01*
X7065Y997D01*
X7063Y999D01*
X7063Y999D01*
X7063Y999D01*
X7063Y1000D01*
X7062Y1000D01*
X7060Y1002D01*
X7058Y1003D01*
X7058D01*
X7057Y1003D01*
X7057Y1004D01*
X7056Y1004D01*
X7054Y1004D01*
X7053Y1004D01*
X7050Y1004D01*
X7041D01*
Y961D01*
Y961D01*
X7041Y960D01*
X7040Y960D01*
X7040Y959D01*
X7039Y959D01*
X7039D01*
X7039Y959D01*
X7038D01*
X7037Y959D01*
X7037D01*
X7036Y959D01*
X7035Y959D01*
X7033D01*
X7032Y959D01*
X7031Y959D01*
X7031D01*
X7030Y959D01*
X7029Y959D01*
X7029D01*
X7028Y959D01*
X7028Y960D01*
Y960D01*
Y960D01*
X7027Y961D01*
Y1055D01*
Y1055D01*
Y1056D01*
X7028Y1057D01*
X7028Y1058D01*
X7029Y1060D01*
X7029Y1060D01*
X7030Y1060D01*
X7031Y1061D01*
X7032Y1061D01*
X7056D01*
X7058Y1061D01*
D02*
G37*
G36*
X6709Y1061D02*
X6710Y1061D01*
X6710D01*
X6711Y1061D01*
X6711Y1061D01*
X6712Y1061D01*
X6712D01*
X6712Y1060D01*
X6713Y1060D01*
X6713Y1060D01*
X6713Y1060D01*
X6713Y1059D01*
Y961D01*
Y961D01*
X6713Y960D01*
X6713Y960D01*
X6712Y959D01*
X6712Y959D01*
X6712D01*
X6711Y959D01*
X6711D01*
X6710Y959D01*
X6710D01*
X6709Y959D01*
X6708Y959D01*
X6706D01*
X6705Y959D01*
X6703Y959D01*
X6703D01*
X6703Y959D01*
X6701Y959D01*
X6701D01*
X6701Y959D01*
X6700Y960D01*
Y960D01*
Y960D01*
X6700Y961D01*
Y1059D01*
Y1059D01*
Y1059D01*
X6700Y1060D01*
Y1060D01*
X6701Y1060D01*
X6701Y1061D01*
X6701D01*
X6702Y1061D01*
X6703Y1061D01*
X6703Y1061D01*
X6704D01*
X6704Y1061D01*
X6705Y1061D01*
X6708D01*
X6709Y1061D01*
D02*
G37*
G36*
X464Y3944D02*
X466Y3943D01*
X467Y3943D01*
X470Y3942D01*
X470D01*
X471Y3942D01*
X471Y3942D01*
X472Y3942D01*
X474Y3940D01*
X475Y3940D01*
X476Y3939D01*
X476Y3939D01*
X477Y3938D01*
X477Y3938D01*
X478Y3937D01*
X478Y3936D01*
X479Y3935D01*
X480Y3933D01*
Y3933D01*
X480Y3933D01*
X480Y3932D01*
X481Y3931D01*
X481Y3930D01*
X481Y3929D01*
X481Y3928D01*
Y3926D01*
Y3926D01*
Y3926D01*
Y3925D01*
X481Y3924D01*
X481Y3923D01*
X481Y3922D01*
X480Y3920D01*
Y3920D01*
X480Y3919D01*
X480Y3919D01*
X480Y3918D01*
X479Y3917D01*
X478Y3915D01*
X478Y3915D01*
X477Y3914D01*
X477Y3914D01*
X477Y3913D01*
X475Y3912D01*
X474Y3911D01*
X473D01*
X473Y3911D01*
X473Y3910D01*
X472Y3910D01*
X471Y3910D01*
X470Y3909D01*
X468Y3909D01*
X468D01*
X469Y3909D01*
X469Y3909D01*
X470Y3908D01*
X471Y3908D01*
X472Y3908D01*
X475Y3907D01*
X475D01*
X475Y3907D01*
X476Y3906D01*
X476Y3906D01*
X478Y3905D01*
X480Y3903D01*
X480Y3903D01*
X480Y3903D01*
X481Y3902D01*
X481Y3902D01*
X482Y3901D01*
X482Y3900D01*
X483Y3898D01*
Y3898D01*
X484Y3898D01*
X484Y3897D01*
X484Y3896D01*
X484Y3895D01*
X484Y3894D01*
X485Y3892D01*
Y3892D01*
Y3891D01*
X484Y3890D01*
X484Y3889D01*
X484Y3887D01*
X484Y3886D01*
X483Y3884D01*
X483Y3883D01*
X483Y3883D01*
X483Y3882D01*
X482Y3881D01*
X482Y3881D01*
X481Y3879D01*
X480Y3878D01*
X479Y3877D01*
X478Y3876D01*
X478Y3876D01*
X477Y3876D01*
X477Y3875D01*
X476Y3875D01*
X475Y3874D01*
X473Y3873D01*
X472Y3872D01*
X470Y3872D01*
X470D01*
X469Y3872D01*
X468Y3871D01*
X467Y3871D01*
X465Y3871D01*
X464Y3871D01*
X462Y3871D01*
X460Y3870D01*
X458D01*
X457Y3871D01*
X456D01*
X455Y3871D01*
X453Y3871D01*
X453D01*
X452Y3871D01*
X452Y3871D01*
X451Y3871D01*
X449Y3872D01*
X447Y3872D01*
X447D01*
X447Y3872D01*
X446Y3873D01*
X446Y3873D01*
X445Y3873D01*
X443Y3874D01*
X443Y3874D01*
X442Y3874D01*
X442Y3875D01*
X441Y3875D01*
Y3875D01*
X441Y3876D01*
X441Y3876D01*
Y3876D01*
X441Y3876D01*
X440Y3877D01*
Y3877D01*
X440Y3877D01*
Y3878D01*
X440Y3878D01*
Y3878D01*
Y3879D01*
Y3879D01*
Y3880D01*
Y3880D01*
Y3880D01*
Y3881D01*
X440Y3882D01*
X440Y3883D01*
X441Y3883D01*
X441Y3883D01*
X441Y3884D01*
X441Y3884D01*
X442D01*
X442Y3884D01*
X442Y3883D01*
X443Y3883D01*
X444D01*
X444Y3883D01*
X444Y3882D01*
X446Y3882D01*
X447Y3881D01*
X447D01*
X448Y3881D01*
X448Y3880D01*
X449Y3880D01*
X450Y3880D01*
X451Y3880D01*
X453Y3879D01*
X453D01*
X453Y3879D01*
X454Y3879D01*
X455Y3879D01*
X456Y3878D01*
X457Y3878D01*
X460Y3878D01*
X461D01*
X462Y3878D01*
X463Y3878D01*
X464Y3879D01*
X466Y3879D01*
X466D01*
X467Y3879D01*
X467Y3879D01*
X468Y3880D01*
X469Y3880D01*
X471Y3882D01*
X471Y3882D01*
X471Y3882D01*
X472Y3882D01*
X472Y3883D01*
X473Y3884D01*
X474Y3886D01*
Y3886D01*
X474Y3886D01*
X474Y3887D01*
X474Y3887D01*
X475Y3889D01*
X475Y3891D01*
Y3891D01*
Y3891D01*
Y3892D01*
X475Y3893D01*
X474Y3894D01*
X474Y3896D01*
Y3896D01*
X473Y3897D01*
X473Y3897D01*
X473Y3898D01*
X472Y3899D01*
X470Y3900D01*
X470Y3901D01*
X470Y3901D01*
X469Y3901D01*
X468Y3902D01*
X468Y3902D01*
X467Y3902D01*
X465Y3903D01*
X464Y3903D01*
X464D01*
X464Y3903D01*
X463Y3904D01*
X462Y3904D01*
X461Y3904D01*
X460Y3904D01*
X458Y3904D01*
X449D01*
X449Y3904D01*
X448Y3904D01*
X448Y3905D01*
Y3905D01*
X448Y3905D01*
X448Y3906D01*
X447Y3906D01*
Y3906D01*
Y3907D01*
X447Y3907D01*
Y3908D01*
Y3908D01*
Y3909D01*
Y3909D01*
X447Y3910D01*
Y3910D01*
X448Y3910D01*
X448Y3910D01*
X448Y3911D01*
X448Y3911D01*
X448Y3911D01*
X449Y3911D01*
X449D01*
X449Y3912D01*
X449Y3912D01*
X457D01*
X458Y3912D01*
X459Y3912D01*
X460Y3912D01*
X462Y3913D01*
X462D01*
X462Y3913D01*
X463Y3913D01*
X464Y3913D01*
X465Y3914D01*
X467Y3915D01*
X467Y3915D01*
X467Y3916D01*
X468Y3916D01*
X468Y3916D01*
X469Y3918D01*
X470Y3919D01*
Y3920D01*
X470Y3920D01*
X470Y3920D01*
X471Y3921D01*
X471Y3922D01*
X471Y3923D01*
X471Y3925D01*
Y3925D01*
Y3925D01*
Y3926D01*
X471Y3926D01*
X471Y3928D01*
X470Y3929D01*
Y3929D01*
X470Y3930D01*
X470Y3930D01*
X470Y3930D01*
X469Y3931D01*
X468Y3933D01*
Y3933D01*
X468Y3933D01*
X467Y3934D01*
X466Y3934D01*
X464Y3935D01*
X464D01*
X464Y3935D01*
X464Y3935D01*
X463Y3936D01*
X462Y3936D01*
X461Y3936D01*
X459Y3936D01*
X458D01*
X457Y3936D01*
X456Y3936D01*
X454Y3935D01*
X454D01*
X453Y3935D01*
X453Y3935D01*
X452Y3934D01*
X450Y3934D01*
X449Y3933D01*
X449D01*
X448Y3933D01*
X448Y3932D01*
X448Y3932D01*
X447Y3931D01*
X445Y3931D01*
X445Y3931D01*
X445Y3930D01*
X444Y3930D01*
X444Y3930D01*
X443D01*
X443Y3930D01*
X443Y3930D01*
X442Y3930D01*
Y3931D01*
X442Y3931D01*
Y3931D01*
X442Y3932D01*
Y3932D01*
Y3932D01*
Y3933D01*
Y3934D01*
Y3934D01*
Y3934D01*
Y3935D01*
Y3935D01*
Y3935D01*
X442Y3936D01*
Y3936D01*
X442Y3936D01*
X443Y3937D01*
Y3937D01*
X443Y3937D01*
X443Y3938D01*
X443Y3938D01*
X444Y3938D01*
X444Y3939D01*
X445Y3939D01*
X446D01*
X446Y3940D01*
X446Y3940D01*
X447Y3940D01*
X448Y3941D01*
X449Y3941D01*
X450D01*
X450Y3941D01*
X450Y3942D01*
X451Y3942D01*
X452Y3942D01*
X453Y3942D01*
X455Y3943D01*
X455D01*
X455Y3943D01*
X456Y3943D01*
X457Y3943D01*
X458Y3943D01*
X459Y3944D01*
X461Y3944D01*
X463D01*
X464Y3944D01*
D02*
G37*
%LPC*%
G36*
X7504Y1047D02*
X7504D01*
X7487Y997D01*
X7522D01*
X7504Y1047D01*
D02*
G37*
G36*
X7055Y1050D02*
X7041D01*
Y1015D01*
X7056D01*
X7057Y1016D01*
X7060Y1016D01*
X7063Y1017D01*
X7063D01*
X7064Y1017D01*
X7065Y1017D01*
X7066Y1018D01*
X7068Y1019D01*
X7070Y1020D01*
X7070Y1020D01*
X7070Y1020D01*
X7071Y1021D01*
X7071Y1022D01*
X7073Y1023D01*
X7074Y1026D01*
Y1026D01*
X7074Y1026D01*
X7074Y1027D01*
X7074Y1028D01*
X7075Y1030D01*
X7075Y1032D01*
Y1033D01*
Y1034D01*
X7075Y1035D01*
X7075Y1036D01*
X7074Y1038D01*
X7074Y1039D01*
X7073Y1041D01*
X7072Y1043D01*
X7072Y1043D01*
X7072Y1043D01*
X7071Y1044D01*
X7070Y1045D01*
X7069Y1046D01*
X7067Y1047D01*
X7065Y1048D01*
X7063Y1049D01*
X7063Y1049D01*
X7062Y1049D01*
X7061Y1049D01*
X7059Y1049D01*
X7058D01*
X7058Y1050D01*
X7056D01*
X7055Y1050D01*
D02*
G37*
%LPD*%
D11*
X2606Y1331D02*
X2835D01*
X2604Y1329D02*
X2606Y1331D01*
X3935Y1892D02*
X5026D01*
X3924Y1903D02*
X3935Y1892D01*
X3024Y1903D02*
X3924D01*
X4492Y2292D02*
X4575D01*
X4481Y2303D02*
X4492Y2292D01*
X3415Y2303D02*
X4481D01*
X4498Y2319D02*
X4515D01*
X4491Y2326D02*
X4498Y2319D01*
X3142Y2326D02*
X4491D01*
X4524Y2244D02*
X4547Y2268D01*
X3533Y2244D02*
X4524D01*
X3533Y2244D02*
X3533Y2244D01*
X3490Y2244D02*
X3533D01*
X3467Y2268D02*
X3490Y2244D01*
X3425Y2268D02*
X3467D01*
X4926Y2387D02*
X4947Y2366D01*
X3568Y2387D02*
X4926D01*
X4947Y2366D02*
X4996D01*
X4488Y2411D02*
X4960D01*
X4970Y2402D01*
X4972D01*
X4488Y2411D02*
X4488Y2411D01*
X3553Y2411D02*
X4488D01*
X3550Y2409D02*
X3553Y2411D01*
X3543Y2409D02*
X3550D01*
X3542Y2407D02*
X3543Y2409D01*
X3542Y2407D02*
Y2408D01*
X3811Y2045D02*
X4723D01*
X4724Y2043D01*
X4651Y1933D02*
X4654D01*
X4643Y1941D02*
X4651Y1933D01*
X3810Y1941D02*
X4643D01*
X3794Y1957D02*
X3810Y1941D01*
X3791Y1957D02*
X3794D01*
X3092Y2276D02*
X3142Y2326D01*
X2767Y1313D02*
X2872D01*
X4807Y1004D02*
X4890Y1087D01*
X3705Y1004D02*
X4807D01*
X4803Y1035D02*
X4854Y1087D01*
X3685Y1035D02*
X4803D01*
X4798Y1063D02*
X4857Y1122D01*
X4858D01*
X3705Y1063D02*
X4798D01*
X4791Y1091D02*
X4823Y1122D01*
X3685Y1091D02*
X4791D01*
X2905Y1346D02*
X3782D01*
X2868Y1364D02*
X3825D01*
X3782Y1346D02*
X3825Y1303D01*
Y1364D02*
X3906Y1283D01*
X2835Y1331D02*
X2868Y1364D01*
X2872Y1313D02*
X2905Y1346D01*
X2603Y1362D02*
X2729D01*
X3809Y1240D02*
X4831D01*
X3789Y1260D02*
X3809Y1240D01*
X2610Y1880D02*
X3001D01*
X2689Y2433D02*
X3676Y2433D01*
X2782Y1416D02*
X3853D01*
X2729Y1362D02*
X2782Y1416D01*
X3853D02*
X3854Y1417D01*
X2831Y1390D02*
X3909D01*
X2795Y1354D02*
X2831Y1390D01*
X3799Y1707D02*
X3802Y1705D01*
X3001Y1880D02*
X3024Y1903D01*
X2768Y1266D02*
X3015D01*
X2764Y1270D02*
X2768Y1266D01*
X3015D02*
X3050Y1231D01*
X2777Y1290D02*
X3016D01*
X3057Y1249D01*
X2604Y1270D02*
X2764D01*
X2754Y1299D02*
X2767Y1313D01*
X2632Y1299D02*
X2754D01*
X5173Y2449D02*
X5213D01*
X2630Y2480D02*
X5181D01*
X5162Y2460D02*
X5173Y2449D01*
X5063Y2460D02*
X5162D01*
X4783Y1122D02*
X4783Y1122D01*
X3307Y1122D02*
X4783D01*
X3307Y1122D02*
X3307Y1122D01*
X3811Y2077D02*
X4689D01*
X3811Y2118D02*
X4689D01*
X3650Y1185D02*
X3693D01*
X3728Y1150D01*
X4967Y1910D02*
X5022Y1965D01*
X3959Y1910D02*
X4967D01*
X3948Y1921D02*
X3959Y1910D01*
X2936Y1921D02*
X3948D01*
X2935Y1920D02*
X2936Y1921D01*
X3050Y1231D02*
X3741D01*
X3769Y1173D02*
X4616D01*
X4621Y1168D01*
X5033D01*
X3781Y1191D02*
X4985D01*
X3741Y1231D02*
X3781Y1191D01*
X3728Y1150D02*
X4606D01*
X3733Y1209D02*
X3769Y1173D01*
X4985Y1191D02*
X5023Y1228D01*
X3213Y969D02*
X4638D01*
X4765Y1619D02*
X4766Y1620D01*
X3804Y1619D02*
X4765D01*
X3803Y1618D02*
X3804Y1619D01*
X3802Y1705D02*
X4791D01*
X3583Y2358D02*
X4815D01*
X4996Y2366D02*
X5012Y2382D01*
X5004Y1260D02*
X5047D01*
X3788Y1209D02*
X4953D01*
X3748Y1249D02*
X3788Y1209D01*
X3057Y1249D02*
X3748D01*
X3228Y1209D02*
X3733D01*
X3191Y1171D02*
X3228Y1209D01*
X2661Y2452D02*
X5055Y2452D01*
X5092Y2433D02*
X5096Y2437D01*
X5138D01*
X3676Y2433D02*
X5092D01*
X5055Y2452D02*
X5063Y2460D01*
X5026Y1892D02*
X5059Y1925D01*
X5022Y1965D02*
X5122D01*
X4953Y1209D02*
X5004Y1260D01*
X5023Y1228D02*
X5083D01*
X3191Y1097D02*
Y1171D01*
X3799Y1679D02*
X4724D01*
D15*
X0Y0D02*
Y4000D01*
X6000D01*
Y0D02*
Y4000D01*
X0Y0D02*
X6000D01*
D116*
X4558Y559D02*
X4654Y464D01*
X3579Y559D02*
X4558D01*
X3563Y543D02*
X3579Y559D01*
X3488Y543D02*
X3563D01*
X3427Y226D02*
X4343D01*
X3366Y287D02*
X3427Y226D01*
X2551Y287D02*
X3366D01*
X2486Y222D02*
X2551Y287D01*
X502Y222D02*
X2486D01*
X157Y3429D02*
X264Y3323D01*
Y461D02*
Y3323D01*
Y461D02*
X502Y222D01*
X1843Y579D02*
X3453D01*
X3488Y543D01*
X4654Y295D02*
Y464D01*
D119*
X3567Y1979D02*
Y2033D01*
X3524Y2076D02*
X3567Y2033D01*
X3357Y2076D02*
X3524D01*
X3145Y2070D02*
X3351D01*
X2371Y2127D02*
X2386Y2112D01*
X3032Y2112D02*
X3039Y2119D01*
X2976Y2112D02*
X3032D01*
X2976Y2112D02*
X2976Y2112D01*
X2386Y2112D02*
X2976D01*
X2117Y2264D02*
X2851D01*
X2097Y2244D02*
X2117Y2264D01*
X2097Y2243D02*
Y2244D01*
X2851Y2264D02*
X2945Y2169D01*
X3095Y2119D02*
X3145Y2070D01*
X3039Y2119D02*
X3095D01*
X3351Y2070D02*
X3357Y2076D01*
X1552Y2127D02*
X2371D01*
X2945Y2169D02*
X3545D01*
X1520Y2094D02*
X1552Y2127D01*
X1745Y1135D02*
X3145D01*
X1744Y1134D02*
X1745Y1135D01*
X1718Y1113D02*
X3125D01*
X1717Y1114D02*
X1718Y1113D01*
X3618Y2004D02*
Y2096D01*
X3545Y2169D02*
X3618Y2096D01*
X3125Y1113D02*
X3126Y1114D01*
X3145Y1135D02*
X3146Y1134D01*
D134*
X157Y3429D02*
D03*
D139*
X4343Y226D02*
D03*
X4654Y295D02*
D03*
X2124Y1713D02*
D03*
X3811Y2045D02*
D03*
X2602Y1634D02*
D03*
Y1748D02*
D03*
X2583Y1665D02*
D03*
X3567Y1979D02*
D03*
X3568Y2387D02*
D03*
X3415Y2303D02*
D03*
X2839Y2134D02*
D03*
X1685Y1984D02*
D03*
X4890Y1087D02*
D03*
X4854Y1087D02*
D03*
X4858Y1122D02*
D03*
X4823Y1122D02*
D03*
X1783Y1605D02*
D03*
X3542Y2407D02*
D03*
X2603Y1362D02*
D03*
X2604Y1329D02*
D03*
X3488Y543D02*
D03*
X1843Y579D02*
D03*
X3789Y1260D02*
D03*
X3825Y1303D02*
D03*
X4547Y2268D02*
D03*
X4515Y2319D02*
D03*
X2626Y1939D02*
D03*
X2610Y1880D02*
D03*
X2607Y1839D02*
D03*
X2760Y1701D02*
D03*
X2168Y1686D02*
D03*
X3799Y1707D02*
D03*
X2831Y1937D02*
D03*
X2803Y1961D02*
D03*
X2777Y1290D02*
D03*
X2795Y1354D02*
D03*
X3415Y2018D02*
D03*
X2783Y1992D02*
D03*
X3272Y1638D02*
D03*
X3249Y1602D02*
D03*
X3319Y1484D02*
D03*
X3343Y1524D02*
D03*
X3092Y2276D02*
D03*
X5213Y2449D02*
D03*
X5181Y2480D02*
D03*
X3307Y1122D02*
D03*
X2871Y2133D02*
D03*
X2902Y2134D02*
D03*
X3067Y2098D02*
D03*
X3092Y2076D02*
D03*
X3445Y2055D02*
D03*
X3811Y2077D02*
D03*
X3650Y1185D02*
D03*
X4689Y2077D02*
D03*
X3909Y1390D02*
D03*
X3854Y1417D02*
D03*
X2632Y1299D02*
D03*
X3906Y1283D02*
D03*
X3425Y2268D02*
D03*
X4575Y2292D02*
D03*
X4606Y1150D02*
D03*
X4638Y969D02*
D03*
X3811Y2118D02*
D03*
X4689D02*
D03*
X4724Y2043D02*
D03*
X3803Y1618D02*
D03*
X4766Y1620D02*
D03*
X4791Y1705D02*
D03*
X3583Y2358D02*
D03*
X4831Y1240D02*
D03*
X4783Y1122D02*
D03*
X3705Y1063D02*
D03*
Y1004D02*
D03*
X3685Y1091D02*
D03*
Y1035D02*
D03*
X5012Y2382D02*
D03*
X4972Y2402D02*
D03*
X5047Y1260D02*
D03*
X5033Y1168D02*
D03*
X2630Y2480D02*
D03*
X2661Y2453D02*
D03*
X5138Y2437D02*
D03*
X2689Y2425D02*
D03*
X1744Y1134D02*
D03*
X1717Y1114D02*
D03*
X2093Y2240D02*
D03*
X1520Y2094D02*
D03*
X1705Y1929D02*
D03*
Y1890D02*
D03*
X3016Y1862D02*
D03*
X3603Y1799D02*
D03*
X1669Y1807D02*
D03*
X2957Y1725D02*
D03*
X1508Y1673D02*
D03*
X3228Y1579D02*
D03*
X1882Y1618D02*
D03*
X3294Y1440D02*
D03*
X1484Y1733D02*
D03*
X2858Y1911D02*
D03*
X1711Y2044D02*
D03*
X4654Y1933D02*
D03*
X3213Y969D02*
D03*
X5122Y1965D02*
D03*
X5083Y1228D02*
D03*
X5059Y1925D02*
D03*
X2604Y1270D02*
D03*
X3191Y1097D02*
D03*
X2935Y1920D02*
D03*
X4815Y2358D02*
D03*
X3791Y1957D02*
D03*
X4724Y1679D02*
D03*
X3799D02*
D03*
X3618Y2004D02*
D03*
X2150Y1823D02*
D03*
X2114Y2181D02*
D03*
X2154D02*
D03*
X2182D02*
D03*
X3146Y1134D02*
D03*
X3126Y1114D02*
D03*
X1661Y1843D02*
D03*
X1705Y1846D02*
D03*
X3197Y1839D02*
D03*
X1969Y1752D02*
D03*
X1740Y1941D02*
D03*
X2351Y1575D02*
D03*
X2295D02*
D03*
X2323D02*
D03*
X1854Y1583D02*
D03*
X1705Y1957D02*
D03*
X1717Y2008D02*
D03*
X1689Y2067D02*
D03*
Y2106D02*
D03*
D158*
X2124Y1713D02*
Y1738D01*
X2146Y1760D01*
X2655Y1790D02*
X3594D01*
X2140Y1783D02*
X2159Y1803D01*
X1693Y1783D02*
X2140D01*
X2159Y1803D02*
X2642D01*
X1669Y1807D02*
X1693Y1783D01*
X2642Y1803D02*
X2655Y1790D01*
X3594D02*
X3603Y1799D01*
X2531Y1634D02*
X2602D01*
X2524Y1626D02*
X2531Y1634D01*
X1893Y1936D02*
X2164D01*
X1888Y1941D02*
X1893Y1936D01*
X1740Y1941D02*
X1888D01*
X1893Y1978D02*
X2164D01*
X1887Y1991D02*
X2158D01*
X1886Y1971D02*
X1893Y1978D01*
X1718Y1971D02*
X1886D01*
X1705Y1957D02*
X1718Y1971D01*
X2164Y1936D02*
X2166Y1938D01*
X2164Y1978D02*
X2166Y1980D01*
X2158Y1991D02*
X2160Y1993D01*
X1880Y1984D02*
X1887Y1991D01*
X1685Y1984D02*
X1880D01*
X2371Y2107D02*
X2381Y2098D01*
X1690Y2107D02*
X2371D01*
X1689Y2106D02*
X1690Y2107D01*
X1690Y2066D02*
X2854D01*
X1689Y2067D02*
X1690Y2066D01*
X2854D02*
X2864Y2056D01*
X2595Y1752D02*
X2595D01*
X2598Y1748D01*
X2602D01*
X2615Y1818D02*
X2636Y1839D01*
X3197D01*
X2584Y1818D02*
X2615D01*
X2589Y1859D02*
X3013D01*
X3016Y1862D01*
X2540Y1665D02*
X2583D01*
X2508Y1686D02*
X2591D01*
X1945Y1642D02*
X2517D01*
X2208Y1710D02*
X2587D01*
X2205Y1707D02*
X2208Y1710D01*
X2517Y1642D02*
X2540Y1665D01*
X2623Y1630D02*
X2630Y1623D01*
X2623Y1630D02*
Y1654D01*
X2591Y1686D02*
X2623Y1654D01*
X2598Y1700D02*
X2657D01*
X2587Y1710D02*
X2598Y1700D01*
X2899Y2134D02*
Y2136D01*
X2786Y2250D02*
X2899Y2136D01*
X2183Y2250D02*
X2786D01*
X2808Y2196D02*
X2871Y2133D01*
X2490Y2196D02*
X2808D01*
X2791Y2181D02*
X2839Y2134D01*
X2182Y2181D02*
X2791D01*
X2587Y1760D02*
X2595Y1752D01*
X1803Y1605D02*
X1846Y1562D01*
X1783Y1605D02*
X1803D01*
X3072Y2056D02*
X3092Y2076D01*
X2864Y2056D02*
X3072D01*
X2277Y2044D02*
X2281Y2049D01*
X2851D01*
X2858Y2042D01*
X3432D01*
X3444Y2055D01*
X3445D01*
X2381Y2098D02*
X3067D01*
X2506Y1993D02*
X2532Y1967D01*
X2500Y1980D02*
X2526Y1954D01*
X2519Y2007D02*
X2535Y2023D01*
X2633Y1917D02*
X2653Y1937D01*
X1719Y1917D02*
X2633D01*
X1707Y1929D02*
X1719Y1917D01*
X1705Y1929D02*
X1707D01*
X2166Y1980D02*
X2500D01*
X2160Y1993D02*
X2506D01*
X1717Y2007D02*
X2519D01*
X1717Y2008D02*
X1717Y2007D01*
X1711Y2044D02*
X2277D01*
X2582Y1436D02*
X3046D01*
X2556Y1461D02*
X2582Y1436D01*
X2306Y1484D02*
X3319D01*
X2609Y1499D02*
X2634Y1524D01*
X2332Y1499D02*
X2609D01*
X2295Y1461D02*
X2556D01*
X2549Y1967D02*
X2590Y2009D01*
X2767D01*
X2783Y1992D01*
X2535Y2023D02*
X3000D01*
X3005Y2018D01*
X3415D01*
X2526Y1954D02*
X2561D01*
X2568Y1961D01*
X2803D01*
X2803Y1961D01*
X2532Y1967D02*
X2549D01*
X2624Y1938D02*
X2626Y1939D01*
X1913Y1901D02*
X2834D01*
X2583Y1839D02*
X2607D01*
X2653Y1937D02*
X2831D01*
X2378Y1580D02*
X3227D01*
X2525Y1595D02*
X3208D01*
X2328Y1609D02*
X3196D01*
X2373Y1575D02*
X2378Y1580D01*
X3196Y1609D02*
X3224Y1638D01*
X3208Y1595D02*
X3215Y1602D01*
X3227Y1580D02*
X3228Y1579D01*
X2525Y1596D02*
X2525Y1595D01*
X2351Y1575D02*
X2373D01*
X2343Y1596D02*
X2525D01*
X2116Y1664D02*
X2159Y1707D01*
X2757Y1698D02*
X2760Y1701D01*
X2682Y1725D02*
X2957D01*
X2168Y1686D02*
X2193D01*
X2159Y1707D02*
X2205D01*
X2021Y1664D02*
X2116D01*
X2573Y1875D02*
X2589Y1859D01*
X2844Y1911D02*
X2858D01*
X2834Y1901D02*
X2844Y1911D01*
X2038Y1886D02*
X2563D01*
X2573Y1875D02*
X2573D01*
X2563Y1886D02*
X2573Y1875D01*
X2579Y1822D02*
X2584Y1818D01*
X2151Y1822D02*
X2579D01*
X2657Y1700D02*
X2682Y1725D01*
X2114Y2181D02*
X2183Y2250D01*
X2484Y2202D02*
X2490Y2196D01*
X2173Y2202D02*
X2484D01*
X3067Y2098D02*
X3067Y2098D01*
X2205Y1586D02*
X2306Y1484D01*
X3046Y1436D02*
X3050Y1440D01*
X3294D01*
X3224Y1638D02*
X3272D01*
X3215Y1602D02*
X3249D01*
X2228D02*
X2332Y1499D01*
X2634Y1524D02*
X3343D01*
X1910Y1626D02*
X2524D01*
X1897Y1639D02*
X1910Y1626D01*
X1756Y1639D02*
X1897D01*
X1503D02*
X1575D01*
X1750D02*
X1756D01*
X1742Y1631D02*
X1750Y1639D01*
X1742Y1609D02*
Y1631D01*
X1734Y1601D02*
X1742Y1609D01*
X1724Y1601D02*
X1734D01*
X1716Y1609D02*
X1724Y1601D01*
X1716Y1609D02*
Y1639D01*
X1711Y1644D02*
X1716Y1639D01*
X1695Y1644D02*
X1711D01*
X1690Y1639D02*
X1695Y1644D01*
X1690Y1609D02*
Y1639D01*
X1683Y1601D02*
X1690Y1609D01*
X1672Y1601D02*
X1683D01*
X1665Y1609D02*
X1672Y1601D01*
X1665Y1609D02*
Y1639D01*
X1660Y1644D02*
X1665Y1639D01*
X1644Y1644D02*
X1660D01*
X1639Y1639D02*
X1644Y1644D01*
X1639Y1609D02*
Y1639D01*
X1631Y1601D02*
X1639Y1609D01*
X1621Y1601D02*
X1631D01*
X1613Y1609D02*
X1621Y1601D01*
X1613Y1609D02*
Y1639D01*
X1609Y1644D02*
X1613Y1639D01*
X1592Y1644D02*
X1609D01*
X1588Y1639D02*
X1592Y1644D01*
X1575Y1639D02*
X1588D01*
X1484Y1657D02*
X1503Y1639D01*
X1484Y1657D02*
Y1733D01*
X1929Y1657D02*
X1945Y1642D01*
X1927Y1657D02*
X1929D01*
X1524D02*
X1741D01*
X1908D02*
X1927D01*
X1904Y1653D02*
X1908Y1657D01*
X1888Y1653D02*
X1904D01*
X1883Y1657D02*
X1888Y1653D01*
X1883Y1657D02*
Y1696D01*
X1875Y1704D02*
X1883Y1696D01*
X1865Y1704D02*
X1875D01*
X1857Y1696D02*
X1865Y1704D01*
X1857Y1657D02*
Y1696D01*
X1852Y1653D02*
X1857Y1657D01*
X1836Y1653D02*
X1852D01*
X1831Y1657D02*
X1836Y1653D01*
X1831Y1657D02*
Y1696D01*
X1824Y1704D02*
X1831Y1696D01*
X1813Y1704D02*
X1824D01*
X1806Y1696D02*
X1813Y1704D01*
X1806Y1657D02*
Y1696D01*
X1801Y1653D02*
X1806Y1657D01*
X1785Y1653D02*
X1801D01*
X1780Y1657D02*
X1785Y1653D01*
X1780Y1657D02*
Y1696D01*
X1772Y1704D02*
X1780Y1696D01*
X1762Y1704D02*
X1772D01*
X1754Y1696D02*
X1762Y1704D01*
X1754Y1665D02*
Y1696D01*
X1747Y1657D02*
X1754Y1665D01*
X1741Y1657D02*
X1747D01*
X1508Y1673D02*
X1524Y1657D01*
X2166Y1836D02*
X2177D01*
X2576Y1839D02*
X2579Y1836D01*
X2576Y1839D02*
Y1854D01*
X2568Y1862D02*
X2576Y1854D01*
X2558Y1862D02*
X2568D01*
X2550Y1854D02*
X2558Y1862D01*
X2550Y1843D02*
Y1854D01*
X2542Y1836D02*
X2550Y1843D01*
X2532Y1836D02*
X2542D01*
X2524Y1843D02*
X2532Y1836D01*
X2524Y1843D02*
Y1864D01*
X2516Y1872D02*
X2524Y1864D01*
X2506Y1872D02*
X2516D01*
X2498Y1864D02*
X2506Y1872D01*
X2498Y1843D02*
Y1864D01*
X2491Y1836D02*
X2498Y1843D01*
X2480Y1836D02*
X2491D01*
X2473Y1843D02*
X2480Y1836D01*
X2473Y1843D02*
Y1864D01*
X2465Y1872D02*
X2473Y1864D01*
X2455Y1872D02*
X2465D01*
X2447Y1864D02*
X2455Y1872D01*
X2447Y1843D02*
Y1864D01*
X2439Y1836D02*
X2447Y1843D01*
X2429Y1836D02*
X2439D01*
X2421Y1843D02*
X2429Y1836D01*
X2421Y1843D02*
Y1864D01*
X2414Y1872D02*
X2421Y1864D01*
X2403Y1872D02*
X2414D01*
X2396Y1864D02*
X2403Y1872D01*
X2396Y1843D02*
Y1864D01*
X2388Y1836D02*
X2396Y1843D01*
X2378Y1836D02*
X2388D01*
X2370Y1843D02*
X2378Y1836D01*
X2370Y1843D02*
Y1864D01*
X2362Y1872D02*
X2370Y1864D01*
X2352Y1872D02*
X2362D01*
X2344Y1864D02*
X2352Y1872D01*
X2344Y1843D02*
Y1864D01*
X2336Y1836D02*
X2344Y1843D01*
X2326Y1836D02*
X2336D01*
X2319Y1843D02*
X2326Y1836D01*
X2319Y1843D02*
Y1864D01*
X2311Y1872D02*
X2319Y1864D01*
X2301Y1872D02*
X2311D01*
X2293Y1864D02*
X2301Y1872D01*
X2293Y1843D02*
Y1864D01*
X2285Y1836D02*
X2293Y1843D01*
X2275Y1836D02*
X2285D01*
X2267Y1843D02*
X2275Y1836D01*
X2267Y1843D02*
Y1864D01*
X2259Y1872D02*
X2267Y1864D01*
X2249Y1872D02*
X2259D01*
X2241Y1864D02*
X2249Y1872D01*
X2241Y1843D02*
Y1864D01*
X2234Y1836D02*
X2241Y1843D01*
X2223Y1836D02*
X2234D01*
X2216Y1843D02*
X2223Y1836D01*
X2216Y1843D02*
Y1864D01*
X2208Y1872D02*
X2216Y1864D01*
X2198Y1872D02*
X2208D01*
X2190Y1864D02*
X2198Y1872D01*
X2190Y1843D02*
Y1864D01*
X2182Y1836D02*
X2190Y1843D01*
X2177Y1836D02*
X2182D01*
X2150Y1852D02*
X2166Y1836D01*
X1932Y1852D02*
X2150D01*
X1927Y1846D02*
X1932Y1852D01*
X1705Y1846D02*
X1927D01*
X2020Y1867D02*
X2038Y1886D01*
X1902Y1890D02*
X1913Y1901D01*
X1686Y1867D02*
X2020D01*
X1661Y1843D02*
X1686Y1867D01*
X1705Y1890D02*
X1902D01*
X2579Y1836D02*
X2580D01*
X2583Y1839D01*
X2594Y1938D02*
X2624D01*
X2166D02*
X2193D01*
X2593D02*
X2594D01*
X2591Y1939D02*
X2593Y1938D01*
X2584Y1947D02*
X2591Y1939D01*
X2573Y1947D02*
X2584D01*
X2566Y1939D02*
X2573Y1947D01*
X2566Y1938D02*
Y1939D01*
X2559Y1931D02*
X2566Y1938D01*
X2547Y1931D02*
X2559D01*
X2540Y1938D02*
X2547Y1931D01*
X2514Y1938D02*
X2540D01*
X2507Y1931D02*
X2514Y1938D01*
X2495Y1931D02*
X2507D01*
X2488Y1938D02*
X2495Y1931D01*
X2488Y1938D02*
Y1958D01*
X2481Y1966D02*
X2488Y1958D01*
X2470Y1966D02*
X2481D01*
X2463Y1958D02*
X2470Y1966D01*
X2463Y1938D02*
Y1958D01*
X2456Y1931D02*
X2463Y1938D01*
X2444Y1931D02*
X2456D01*
X2437Y1938D02*
X2444Y1931D01*
X2437Y1938D02*
Y1958D01*
X2429Y1966D02*
X2437Y1958D01*
X2419Y1966D02*
X2429D01*
X2411Y1958D02*
X2419Y1966D01*
X2411Y1938D02*
Y1958D01*
X2405Y1931D02*
X2411Y1938D01*
X2392Y1931D02*
X2405D01*
X2386Y1938D02*
X2392Y1931D01*
X2386Y1938D02*
Y1958D01*
X2378Y1966D02*
X2386Y1958D01*
X2368Y1966D02*
X2378D01*
X2360Y1958D02*
X2368Y1966D01*
X2360Y1938D02*
Y1958D01*
X2353Y1931D02*
X2360Y1938D01*
X2341Y1931D02*
X2353D01*
X2334Y1938D02*
X2341Y1931D01*
X2334Y1938D02*
Y1958D01*
X2327Y1966D02*
X2334Y1958D01*
X2316Y1966D02*
X2327D01*
X2309Y1958D02*
X2316Y1966D01*
X2309Y1938D02*
Y1958D01*
X2302Y1931D02*
X2309Y1938D01*
X2290Y1931D02*
X2302D01*
X2283Y1938D02*
X2290Y1931D01*
X2283Y1938D02*
Y1958D01*
X2275Y1966D02*
X2283Y1958D01*
X2265Y1966D02*
X2275D01*
X2257Y1958D02*
X2265Y1966D01*
X2257Y1938D02*
Y1958D01*
X2250Y1931D02*
X2257Y1938D01*
X2238Y1931D02*
X2250D01*
X2231Y1938D02*
X2238Y1931D01*
X2231Y1938D02*
Y1958D01*
X2224Y1966D02*
X2231Y1958D01*
X2213Y1966D02*
X2224D01*
X2206Y1958D02*
X2213Y1966D01*
X2206Y1946D02*
Y1958D01*
X2198Y1938D02*
X2206Y1946D01*
X2193Y1938D02*
X2198D01*
X2150Y1823D02*
X2151Y1822D01*
X2570Y1760D02*
X2587D01*
X2564Y1755D02*
X2570Y1760D01*
X2549Y1755D02*
X2564D01*
X2544Y1760D02*
X2549Y1755D01*
X2544Y1760D02*
Y1782D01*
X2536Y1789D02*
X2544Y1782D01*
X2526Y1789D02*
X2536D01*
X2518Y1782D02*
X2526Y1789D01*
X2518Y1760D02*
Y1782D01*
Y1732D02*
Y1760D01*
X2511Y1724D02*
X2518Y1732D01*
X2500Y1724D02*
X2511D01*
X2493Y1732D02*
X2500Y1724D01*
X2493Y1732D02*
Y1760D01*
Y1782D01*
X2485Y1789D02*
X2493Y1782D01*
X2475Y1789D02*
X2485D01*
X2467Y1782D02*
X2475Y1789D01*
X2467Y1760D02*
Y1782D01*
Y1732D02*
Y1760D01*
X2459Y1724D02*
X2467Y1732D01*
X2449Y1724D02*
X2459D01*
X2441Y1732D02*
X2449Y1724D01*
X2441Y1732D02*
Y1760D01*
Y1782D01*
X2433Y1789D02*
X2441Y1782D01*
X2423Y1789D02*
X2433D01*
X2416Y1782D02*
X2423Y1789D01*
X2416Y1760D02*
Y1782D01*
Y1732D02*
Y1760D01*
X2408Y1724D02*
X2416Y1732D01*
X2398Y1724D02*
X2408D01*
X2390Y1732D02*
X2398Y1724D01*
X2390Y1732D02*
Y1760D01*
Y1782D01*
X2382Y1789D02*
X2390Y1782D01*
X2372Y1789D02*
X2382D01*
X2364Y1782D02*
X2372Y1789D01*
X2364Y1760D02*
Y1782D01*
Y1732D02*
Y1760D01*
X2356Y1724D02*
X2364Y1732D01*
X2346Y1724D02*
X2356D01*
X2338Y1732D02*
X2346Y1724D01*
X2338Y1732D02*
Y1760D01*
Y1782D01*
X2331Y1789D02*
X2338Y1782D01*
X2320Y1789D02*
X2331D01*
X2313Y1782D02*
X2320Y1789D01*
X2313Y1760D02*
Y1782D01*
Y1732D02*
Y1760D01*
X2305Y1724D02*
X2313Y1732D01*
X2295Y1724D02*
X2305D01*
X2287Y1732D02*
X2295Y1724D01*
X2287Y1732D02*
Y1760D01*
Y1782D01*
X2279Y1789D02*
X2287Y1782D01*
X2269Y1789D02*
X2279D01*
X2261Y1782D02*
X2269Y1789D01*
X2261Y1760D02*
Y1782D01*
Y1732D02*
Y1760D01*
X2254Y1724D02*
X2261Y1732D01*
X2243Y1724D02*
X2254D01*
X2236Y1732D02*
X2243Y1724D01*
X2236Y1732D02*
Y1760D01*
Y1782D01*
X2228Y1789D02*
X2236Y1782D01*
X2218Y1789D02*
X2228D01*
X2210Y1782D02*
X2218Y1789D01*
X2210Y1760D02*
Y1782D01*
Y1732D02*
Y1760D01*
X2202Y1724D02*
X2210Y1732D01*
X2192Y1724D02*
X2202D01*
X2184Y1732D02*
X2192Y1724D01*
X2184Y1732D02*
Y1760D01*
Y1782D01*
X2177Y1789D02*
X2184Y1782D01*
X2166Y1789D02*
X2177D01*
X2159Y1782D02*
X2166Y1789D01*
X2159Y1768D02*
Y1782D01*
X2151Y1760D02*
X2159Y1768D01*
X2146Y1760D02*
X2151D01*
X2753Y1680D02*
X2757Y1684D01*
X2753Y1627D02*
Y1680D01*
X2757Y1684D02*
Y1698D01*
X2749Y1623D02*
X2753Y1627D01*
X2739Y1623D02*
X2749D01*
X2732Y1631D02*
X2739Y1623D01*
X2732Y1631D02*
Y1678D01*
X2724Y1686D02*
X2732Y1678D01*
X2714Y1686D02*
X2724D01*
X2706Y1678D02*
X2714Y1686D01*
X2706Y1631D02*
Y1678D01*
X2698Y1623D02*
X2706Y1631D01*
X2688Y1623D02*
X2698D01*
X2680Y1631D02*
X2688Y1623D01*
X2680Y1631D02*
Y1678D01*
X2673Y1686D02*
X2680Y1678D01*
X2662Y1686D02*
X2673D01*
X2655Y1678D02*
X2662Y1686D01*
X2655Y1631D02*
Y1678D01*
X2647Y1623D02*
X2655Y1631D01*
X2642Y1623D02*
X2647D01*
X2630D02*
X2642D01*
X2491Y1686D02*
X2508D01*
X2488Y1689D02*
X2491Y1686D01*
X2481Y1697D02*
X2488Y1689D01*
X2470Y1697D02*
X2481D01*
X2463Y1689D02*
X2470Y1697D01*
X2463Y1686D02*
Y1689D01*
Y1663D02*
Y1686D01*
X2455Y1655D02*
X2463Y1663D01*
X2445Y1655D02*
X2455D01*
X2437Y1663D02*
X2445Y1655D01*
X2437Y1663D02*
Y1686D01*
Y1689D01*
X2429Y1697D02*
X2437Y1689D01*
X2419Y1697D02*
X2429D01*
X2411Y1689D02*
X2419Y1697D01*
X2411Y1686D02*
Y1689D01*
Y1663D02*
Y1686D01*
X2404Y1655D02*
X2411Y1663D01*
X2393Y1655D02*
X2404D01*
X2386Y1663D02*
X2393Y1655D01*
X2386Y1663D02*
Y1686D01*
Y1689D01*
X2378Y1697D02*
X2386Y1689D01*
X2368Y1697D02*
X2378D01*
X2360Y1689D02*
X2368Y1697D01*
X2360Y1686D02*
Y1689D01*
Y1663D02*
Y1686D01*
X2352Y1655D02*
X2360Y1663D01*
X2342Y1655D02*
X2352D01*
X2334Y1663D02*
X2342Y1655D01*
X2334Y1663D02*
Y1686D01*
Y1689D01*
X2327Y1697D02*
X2334Y1689D01*
X2316Y1697D02*
X2327D01*
X2309Y1689D02*
X2316Y1697D01*
X2309Y1686D02*
Y1689D01*
Y1663D02*
Y1686D01*
X2301Y1655D02*
X2309Y1663D01*
X2291Y1655D02*
X2301D01*
X2283Y1663D02*
X2291Y1655D01*
X2283Y1663D02*
Y1686D01*
Y1689D01*
X2275Y1697D02*
X2283Y1689D01*
X2265Y1697D02*
X2275D01*
X2257Y1689D02*
X2265Y1697D01*
X2257Y1686D02*
Y1689D01*
Y1663D02*
Y1686D01*
X2249Y1655D02*
X2257Y1663D01*
X2239Y1655D02*
X2249D01*
X2231Y1663D02*
X2239Y1655D01*
X2231Y1663D02*
Y1686D01*
Y1689D01*
X2224Y1697D02*
X2231Y1689D01*
X2213Y1697D02*
X2224D01*
X2206Y1689D02*
X2213Y1697D01*
X2203Y1686D02*
X2206Y1689D01*
X2193Y1686D02*
X2203D01*
X1898Y1602D02*
X2228D01*
X1882Y1618D02*
X1898Y1602D01*
X2323Y1576D02*
X2343Y1596D01*
X2323Y1575D02*
Y1576D01*
X2184Y1572D02*
X2295Y1461D01*
X1873Y1572D02*
X2184D01*
X2154Y2183D02*
X2173Y2202D01*
X2154Y2181D02*
Y2183D01*
X1867Y1586D02*
X2205D01*
X1969Y1717D02*
Y1752D01*
Y1717D02*
X2021Y1664D01*
X1867Y1585D02*
X1867Y1586D01*
X1857Y1585D02*
X1867D01*
X1854Y1583D02*
X1857Y1585D01*
X1863Y1562D02*
X1873Y1572D01*
X2295Y1576D02*
X2328Y1609D01*
X2295Y1575D02*
Y1576D01*
X1846Y1562D02*
X1863D01*
M02*
