G04*
G04 #@! TF.GenerationSoftware,Altium Limited,Altium Designer,19.0.15 (446)*
G04*
G04 Layer_Color=128*
%FSLAX23Y23*%
%MOIN*%
G70*
G01*
G75*
%ADD15C,0.005*%
%ADD17R,0.138X0.063*%
%ADD18R,0.063X0.138*%
%ADD19R,0.050X0.060*%
%ADD20R,0.060X0.050*%
%ADD21R,0.050X0.047*%
G04:AMPARAMS|DCode=28|XSize=37mil|YSize=35mil|CornerRadius=4mil|HoleSize=0mil|Usage=FLASHONLY|Rotation=90.000|XOffset=0mil|YOffset=0mil|HoleType=Round|Shape=RoundedRectangle|*
%AMROUNDEDRECTD28*
21,1,0.037,0.027,0,0,90.0*
21,1,0.029,0.035,0,0,90.0*
1,1,0.008,0.014,0.014*
1,1,0.008,0.014,-0.014*
1,1,0.008,-0.014,-0.014*
1,1,0.008,-0.014,0.014*
%
%ADD28ROUNDEDRECTD28*%
%ADD29R,0.047X0.050*%
%ADD33R,0.037X0.035*%
%ADD34R,0.037X0.035*%
%ADD44R,0.037X0.016*%
%ADD158R,0.126X0.039*%
G04:AMPARAMS|DCode=159|XSize=71mil|YSize=52mil|CornerRadius=6mil|HoleSize=0mil|Usage=FLASHONLY|Rotation=180.000|XOffset=0mil|YOffset=0mil|HoleType=Round|Shape=RoundedRectangle|*
%AMROUNDEDRECTD159*
21,1,0.071,0.039,0,0,180.0*
21,1,0.058,0.052,0,0,180.0*
1,1,0.013,-0.029,0.019*
1,1,0.013,0.029,0.019*
1,1,0.013,0.029,-0.019*
1,1,0.013,-0.029,-0.019*
%
%ADD159ROUNDEDRECTD159*%
%ADD160R,0.043X0.059*%
%ADD161R,0.083X0.110*%
%ADD162R,0.024X0.075*%
%ADD163R,0.094X0.094*%
%ADD164R,0.012X0.047*%
%ADD165C,0.031*%
%ADD166R,0.031X0.031*%
%ADD167R,0.035X0.031*%
%ADD168R,0.050X0.022*%
%ADD169R,0.041X0.068*%
%ADD170R,0.085X0.108*%
%ADD171R,0.081X0.106*%
G04:AMPARAMS|DCode=172|XSize=24mil|YSize=9mil|CornerRadius=1mil|HoleSize=0mil|Usage=FLASHONLY|Rotation=180.000|XOffset=0mil|YOffset=0mil|HoleType=Round|Shape=RoundedRectangle|*
%AMROUNDEDRECTD172*
21,1,0.024,0.007,0,0,180.0*
21,1,0.021,0.009,0,0,180.0*
1,1,0.002,-0.011,0.004*
1,1,0.002,0.011,0.004*
1,1,0.002,0.011,-0.004*
1,1,0.002,-0.011,-0.004*
%
%ADD172ROUNDEDRECTD172*%
%ADD174R,0.071X0.177*%
%ADD175R,0.031X0.009*%
G36*
X5070Y412D02*
X5044D01*
Y495D01*
X5052D01*
Y462D01*
X5063D01*
Y495D01*
X5070D01*
Y412D01*
D02*
G37*
G36*
X5034D02*
X5008D01*
Y495D01*
X5016D01*
Y462D01*
X5026D01*
Y495D01*
X5034D01*
Y412D01*
D02*
G37*
G36*
X3824Y449D02*
X3814D01*
Y462D01*
X3824D01*
Y449D01*
D02*
G37*
G36*
X3804D02*
X3794D01*
Y462D01*
X3804D01*
Y449D01*
D02*
G37*
G36*
X3839Y399D02*
X3780D01*
Y441D01*
X3839D01*
Y399D01*
D02*
G37*
G36*
Y350D02*
X3780D01*
Y391D01*
X3839D01*
Y350D01*
D02*
G37*
G36*
X3824Y328D02*
X3814D01*
Y342D01*
X3824D01*
Y328D01*
D02*
G37*
G36*
X3804D02*
X3794D01*
Y342D01*
X3804D01*
Y328D01*
D02*
G37*
G36*
X5070Y322D02*
X5063D01*
Y355D01*
X5052D01*
Y322D01*
X5044D01*
Y405D01*
X5070D01*
Y322D01*
D02*
G37*
G36*
X5034D02*
X5026D01*
Y355D01*
X5016D01*
Y322D01*
X5008D01*
Y405D01*
X5034D01*
Y322D01*
D02*
G37*
G36*
X7522Y230D02*
X7523Y229D01*
X7523D01*
X7524Y229D01*
X7524Y229D01*
X7525Y228D01*
X7525Y228D01*
X7525Y228D01*
X7526Y227D01*
X7526Y226D01*
X7526Y226D01*
X7526Y226D01*
X7527Y225D01*
Y224D01*
Y130D01*
Y129D01*
X7526Y129D01*
X7526Y128D01*
X7526Y128D01*
X7525Y128D01*
X7525D01*
X7524Y128D01*
X7524D01*
X7523Y128D01*
X7523D01*
X7522Y128D01*
X7521Y127D01*
X7519D01*
X7518Y128D01*
X7516Y128D01*
X7516D01*
X7516Y128D01*
X7515D01*
X7514Y128D01*
X7514D01*
X7514Y128D01*
X7513Y129D01*
Y129D01*
Y129D01*
X7513Y130D01*
Y219D01*
X7513D01*
X7477Y129D01*
X7477Y129D01*
X7476Y128D01*
X7476Y128D01*
X7475Y128D01*
X7475Y128D01*
X7475D01*
X7474Y128D01*
X7474D01*
X7473Y128D01*
X7472D01*
X7471Y127D01*
X7468D01*
X7467Y128D01*
X7467D01*
X7467Y128D01*
X7465Y128D01*
X7465D01*
X7465Y128D01*
X7464Y128D01*
Y129D01*
X7464Y129D01*
X7464Y129D01*
X7429Y219D01*
Y130D01*
Y129D01*
X7429Y129D01*
X7429Y128D01*
X7428Y128D01*
X7428Y128D01*
X7428D01*
X7427Y128D01*
X7427D01*
X7426Y128D01*
X7426D01*
X7425Y128D01*
X7424Y127D01*
X7421D01*
X7420Y128D01*
X7419Y128D01*
X7419D01*
X7418Y128D01*
X7418D01*
X7417Y128D01*
X7417D01*
X7417Y128D01*
X7416Y129D01*
Y129D01*
Y129D01*
X7416Y130D01*
Y224D01*
Y224D01*
Y224D01*
X7416Y225D01*
Y225D01*
X7417Y227D01*
X7418Y228D01*
X7418Y229D01*
X7419Y229D01*
X7420Y230D01*
X7422Y230D01*
X7431D01*
X7433Y230D01*
X7434Y229D01*
X7434D01*
X7434Y229D01*
X7435Y229D01*
X7436Y228D01*
X7438Y228D01*
X7438Y227D01*
X7438Y227D01*
X7439Y226D01*
X7440Y225D01*
X7440Y225D01*
X7440Y224D01*
X7441Y223D01*
X7442Y221D01*
X7471Y148D01*
X7471D01*
X7501Y221D01*
Y221D01*
X7502Y222D01*
X7502Y223D01*
X7503Y224D01*
X7504Y225D01*
X7504Y226D01*
X7504Y226D01*
X7505Y227D01*
X7506Y228D01*
X7506Y228D01*
X7507Y228D01*
X7507Y229D01*
X7508Y229D01*
X7509Y229D01*
X7510Y230D01*
X7511Y230D01*
X7522D01*
X7522Y230D01*
D02*
G37*
G36*
X7265D02*
X7265Y229D01*
X7266D01*
X7266Y229D01*
X7267Y229D01*
X7267Y228D01*
X7267Y228D01*
X7268Y228D01*
X7268Y227D01*
X7268Y226D01*
X7269Y226D01*
X7269Y226D01*
X7269Y225D01*
Y224D01*
Y130D01*
Y129D01*
X7269Y129D01*
X7268Y128D01*
X7268Y128D01*
X7267Y128D01*
X7267D01*
X7267Y128D01*
X7266D01*
X7265Y128D01*
X7265D01*
X7264Y128D01*
X7263Y127D01*
X7261D01*
X7260Y128D01*
X7259Y128D01*
X7259D01*
X7258Y128D01*
X7257D01*
X7257Y128D01*
X7257D01*
X7256Y128D01*
X7256Y129D01*
Y129D01*
Y129D01*
X7256Y130D01*
Y219D01*
X7255D01*
X7219Y129D01*
X7219Y129D01*
X7219Y128D01*
X7218Y128D01*
X7218Y128D01*
X7217Y128D01*
X7217D01*
X7217Y128D01*
X7216D01*
X7215Y128D01*
X7215D01*
X7214Y127D01*
X7211D01*
X7210Y128D01*
X7210D01*
X7209Y128D01*
X7208Y128D01*
X7208D01*
X7207Y128D01*
X7207Y128D01*
Y129D01*
X7206Y129D01*
X7206Y129D01*
X7172Y219D01*
Y130D01*
Y129D01*
X7171Y129D01*
X7171Y128D01*
X7171Y128D01*
X7170Y128D01*
X7170D01*
X7170Y128D01*
X7169D01*
X7168Y128D01*
X7168D01*
X7167Y128D01*
X7166Y127D01*
X7164D01*
X7163Y128D01*
X7162Y128D01*
X7161D01*
X7161Y128D01*
X7160D01*
X7160Y128D01*
X7159D01*
X7159Y128D01*
X7158Y129D01*
Y129D01*
Y129D01*
X7158Y130D01*
Y224D01*
Y224D01*
Y224D01*
X7158Y225D01*
Y225D01*
X7159Y227D01*
X7160Y228D01*
X7160Y229D01*
X7161Y229D01*
X7162Y230D01*
X7164Y230D01*
X7174D01*
X7175Y230D01*
X7176Y229D01*
X7177D01*
X7177Y229D01*
X7178Y229D01*
X7179Y228D01*
X7180Y228D01*
X7180Y227D01*
X7181Y227D01*
X7182Y226D01*
X7182Y225D01*
X7182Y225D01*
X7183Y224D01*
X7183Y223D01*
X7184Y221D01*
X7213Y148D01*
X7214D01*
X7244Y221D01*
Y221D01*
X7244Y222D01*
X7244Y223D01*
X7245Y224D01*
X7246Y225D01*
X7246Y226D01*
X7247Y226D01*
X7247Y227D01*
X7248Y228D01*
X7248Y228D01*
X7249Y228D01*
X7250Y229D01*
X7251Y229D01*
X7251Y229D01*
X7252Y230D01*
X7253Y230D01*
X7264D01*
X7265Y230D01*
D02*
G37*
G36*
X6734D02*
X6736Y229D01*
X6738Y229D01*
X6741Y229D01*
X6743Y228D01*
X6743D01*
X6744Y228D01*
X6745Y227D01*
X6747Y227D01*
X6750Y225D01*
X6751Y224D01*
X6753Y223D01*
X6753Y223D01*
X6754Y222D01*
X6754Y222D01*
X6755Y221D01*
X6756Y219D01*
X6757Y218D01*
X6758Y217D01*
X6759Y215D01*
X6759Y214D01*
X6759Y214D01*
X6760Y213D01*
X6760Y212D01*
X6760Y210D01*
X6760Y208D01*
X6761Y206D01*
Y204D01*
Y204D01*
Y203D01*
Y203D01*
X6761Y202D01*
X6760Y200D01*
X6760Y197D01*
Y197D01*
X6760Y196D01*
X6760Y196D01*
X6759Y195D01*
X6758Y193D01*
X6757Y191D01*
Y191D01*
X6757Y190D01*
X6756Y189D01*
X6755Y188D01*
X6753Y186D01*
X6753D01*
X6753Y186D01*
X6752Y185D01*
X6751Y185D01*
X6750Y184D01*
X6747Y182D01*
X6747D01*
X6748Y182D01*
X6749Y182D01*
X6750Y182D01*
X6752Y181D01*
X6755Y179D01*
X6755D01*
X6756Y179D01*
X6756Y179D01*
X6757Y178D01*
X6759Y176D01*
X6761Y174D01*
X6761Y174D01*
X6762Y174D01*
X6762Y173D01*
X6763Y172D01*
X6763Y171D01*
X6764Y169D01*
X6766Y166D01*
Y166D01*
X6766Y166D01*
X6766Y165D01*
X6767Y164D01*
X6767Y162D01*
X6767Y161D01*
X6767Y157D01*
Y157D01*
Y156D01*
Y155D01*
X6767Y154D01*
X6767Y153D01*
X6767Y151D01*
X6766Y148D01*
Y148D01*
X6766Y147D01*
X6765Y147D01*
X6765Y146D01*
X6764Y143D01*
X6762Y141D01*
X6762Y141D01*
X6762Y140D01*
X6762Y140D01*
X6761Y139D01*
X6759Y137D01*
X6757Y135D01*
X6757Y135D01*
X6757Y135D01*
X6756Y134D01*
X6755Y134D01*
X6754Y133D01*
X6753Y133D01*
X6750Y131D01*
X6750D01*
X6749Y131D01*
X6749Y131D01*
X6748Y130D01*
X6746Y130D01*
X6745Y129D01*
X6742Y129D01*
X6742D01*
X6741Y128D01*
X6740D01*
X6739Y128D01*
X6737Y128D01*
X6736D01*
X6734Y128D01*
X6705D01*
X6704Y128D01*
X6703Y128D01*
X6701Y129D01*
X6701Y129D01*
X6701Y130D01*
X6700Y131D01*
X6700Y133D01*
Y224D01*
Y224D01*
Y225D01*
X6700Y226D01*
X6701Y227D01*
X6701Y229D01*
X6702Y229D01*
X6703Y229D01*
X6704Y230D01*
X6705Y230D01*
X6732D01*
X6734Y230D01*
D02*
G37*
G36*
X7364D02*
X7366Y229D01*
X7366D01*
X7367Y229D01*
X7368Y229D01*
X7369Y229D01*
X7370Y229D01*
X7373Y228D01*
X7373D01*
X7374Y228D01*
X7375Y228D01*
X7376Y227D01*
X7377Y227D01*
X7379Y227D01*
X7382Y225D01*
X7382Y225D01*
X7382Y225D01*
X7383Y224D01*
X7384Y223D01*
X7387Y221D01*
X7389Y219D01*
X7389Y219D01*
X7389Y218D01*
X7390Y217D01*
X7391Y216D01*
X7391Y215D01*
X7392Y214D01*
X7394Y210D01*
Y210D01*
X7394Y209D01*
X7394Y208D01*
X7395Y207D01*
X7395Y206D01*
X7395Y204D01*
X7395Y200D01*
Y200D01*
Y199D01*
X7395Y197D01*
X7395Y195D01*
X7395Y193D01*
X7394Y191D01*
X7394Y188D01*
X7393Y186D01*
X7393Y186D01*
X7392Y185D01*
X7392Y184D01*
X7391Y182D01*
X7390Y181D01*
X7389Y179D01*
X7387Y177D01*
X7385Y176D01*
X7385Y175D01*
X7385Y175D01*
X7384Y174D01*
X7382Y173D01*
X7381Y172D01*
X7379Y171D01*
X7376Y170D01*
X7374Y169D01*
X7373D01*
X7372Y168D01*
X7371Y168D01*
X7369Y168D01*
X7367Y167D01*
X7364Y167D01*
X7361Y167D01*
X7358Y167D01*
X7346D01*
Y130D01*
Y129D01*
X7346Y129D01*
X7345Y128D01*
X7345Y128D01*
X7344Y128D01*
X7344D01*
X7344Y128D01*
X7343D01*
X7342Y128D01*
X7342D01*
X7342Y128D01*
X7341Y127D01*
X7338D01*
X7337Y128D01*
X7336Y128D01*
X7336D01*
X7335Y128D01*
X7334Y128D01*
X7334D01*
X7334Y128D01*
X7333Y129D01*
Y129D01*
Y129D01*
X7333Y130D01*
Y224D01*
Y224D01*
Y225D01*
X7333Y226D01*
X7333Y227D01*
X7334Y228D01*
X7335Y229D01*
X7335Y229D01*
X7336Y230D01*
X7338Y230D01*
X7362D01*
X7364Y230D01*
D02*
G37*
G36*
X7035Y229D02*
X7035D01*
X7035Y229D01*
X7036Y228D01*
Y228D01*
X7036Y228D01*
X7036Y227D01*
X7037Y227D01*
Y226D01*
X7037Y226D01*
Y225D01*
Y224D01*
Y224D01*
Y223D01*
Y222D01*
X7037Y221D01*
Y221D01*
X7036Y221D01*
X7036Y219D01*
X7036Y219D01*
X7035Y219D01*
X7035D01*
X7034Y218D01*
X7005D01*
Y130D01*
Y129D01*
X7005Y129D01*
X7005Y128D01*
X7004Y128D01*
X7004Y128D01*
X7004D01*
X7003Y128D01*
X7003D01*
X7002Y128D01*
X7002D01*
X7001Y128D01*
X7000Y127D01*
X6998D01*
X6996Y128D01*
X6995Y128D01*
X6995D01*
X6995Y128D01*
X6993Y128D01*
X6993D01*
X6993Y128D01*
X6992Y129D01*
Y129D01*
Y129D01*
X6992Y130D01*
Y218D01*
X6963D01*
X6962Y219D01*
X6962Y219D01*
X6961Y219D01*
Y220D01*
X6961Y220D01*
Y221D01*
X6961Y221D01*
Y221D01*
Y222D01*
X6961Y223D01*
Y224D01*
Y224D01*
Y225D01*
Y226D01*
X6961Y227D01*
Y227D01*
X6961Y227D01*
X6961Y228D01*
Y229D01*
X6961Y229D01*
X6962Y229D01*
X6962D01*
X6962Y230D01*
X6963Y230D01*
X7034D01*
X7035Y229D01*
D02*
G37*
G36*
X6957D02*
X6957D01*
X6957Y229D01*
X6957Y228D01*
Y228D01*
X6958Y228D01*
X6958Y227D01*
X6958Y227D01*
Y226D01*
X6958Y226D01*
Y225D01*
Y224D01*
Y224D01*
Y223D01*
Y222D01*
X6958Y221D01*
Y221D01*
X6958Y221D01*
X6957Y219D01*
X6957Y219D01*
X6957Y219D01*
X6956D01*
X6955Y218D01*
X6927D01*
Y130D01*
Y129D01*
X6926Y129D01*
X6926Y128D01*
X6926Y128D01*
X6925Y128D01*
X6925D01*
X6925Y128D01*
X6924D01*
X6923Y128D01*
X6923D01*
X6922Y128D01*
X6921Y127D01*
X6919D01*
X6918Y128D01*
X6917Y128D01*
X6917D01*
X6916Y128D01*
X6915Y128D01*
X6914D01*
X6914Y128D01*
X6914Y129D01*
Y129D01*
Y129D01*
X6913Y130D01*
Y218D01*
X6884D01*
X6883Y219D01*
X6883Y219D01*
X6883Y219D01*
Y220D01*
X6882Y220D01*
Y221D01*
X6882Y221D01*
Y221D01*
Y222D01*
X6882Y223D01*
Y224D01*
Y224D01*
Y225D01*
Y226D01*
X6882Y227D01*
Y227D01*
X6882Y227D01*
X6883Y228D01*
Y229D01*
X6883Y229D01*
X6883Y229D01*
X6884D01*
X6884Y230D01*
X6885Y230D01*
X6956D01*
X6957Y229D01*
D02*
G37*
G36*
X7096Y231D02*
X7099Y231D01*
X7102Y230D01*
X7105Y230D01*
X7109Y229D01*
X7112Y228D01*
X7112D01*
X7112Y228D01*
X7113Y227D01*
X7115Y226D01*
X7117Y225D01*
X7119Y224D01*
X7121Y222D01*
X7124Y220D01*
X7126Y218D01*
X7126Y217D01*
X7127Y217D01*
X7128Y215D01*
X7129Y213D01*
X7130Y211D01*
X7132Y208D01*
X7133Y205D01*
X7134Y202D01*
Y202D01*
X7134Y201D01*
Y201D01*
X7135Y200D01*
X7135Y199D01*
X7135Y198D01*
X7136Y196D01*
X7136Y192D01*
X7137Y188D01*
X7137Y184D01*
X7137Y180D01*
Y180D01*
Y179D01*
Y179D01*
Y178D01*
Y177D01*
X7137Y176D01*
X7137Y173D01*
X7136Y169D01*
X7136Y165D01*
X7135Y161D01*
X7134Y158D01*
Y157D01*
X7134Y157D01*
X7134Y157D01*
X7133Y156D01*
X7133Y154D01*
X7132Y152D01*
X7131Y149D01*
X7129Y146D01*
X7127Y144D01*
X7125Y141D01*
X7125Y141D01*
X7124Y140D01*
X7123Y139D01*
X7121Y137D01*
X7119Y135D01*
X7117Y133D01*
X7114Y132D01*
X7111Y130D01*
X7110D01*
X7110Y130D01*
X7110Y130D01*
X7109Y130D01*
X7107Y129D01*
X7105Y128D01*
X7102Y128D01*
X7098Y127D01*
X7094Y127D01*
X7090Y126D01*
X7088D01*
X7087Y127D01*
X7086D01*
X7084Y127D01*
X7080Y127D01*
X7077Y128D01*
X7074Y129D01*
X7070Y130D01*
X7070Y130D01*
X7069Y131D01*
X7067Y131D01*
X7065Y132D01*
X7063Y134D01*
X7061Y135D01*
X7059Y137D01*
X7057Y140D01*
X7056Y140D01*
X7056Y141D01*
X7055Y142D01*
X7053Y144D01*
X7052Y147D01*
X7051Y149D01*
X7049Y153D01*
X7048Y156D01*
Y156D01*
X7048Y156D01*
Y157D01*
X7048Y158D01*
X7048Y159D01*
X7048Y160D01*
X7047Y162D01*
X7047Y166D01*
X7046Y169D01*
X7046Y174D01*
X7046Y178D01*
Y178D01*
Y179D01*
Y179D01*
Y180D01*
Y181D01*
X7046Y183D01*
X7046Y186D01*
X7047Y189D01*
X7047Y193D01*
X7048Y196D01*
X7049Y200D01*
Y200D01*
X7049Y200D01*
X7049Y201D01*
X7049Y202D01*
X7050Y204D01*
X7051Y206D01*
X7052Y208D01*
X7053Y211D01*
X7055Y214D01*
X7057Y217D01*
X7058Y217D01*
X7058Y218D01*
X7060Y219D01*
X7061Y221D01*
X7063Y222D01*
X7066Y224D01*
X7069Y226D01*
X7072Y227D01*
X7072D01*
X7072Y228D01*
X7073Y228D01*
X7074Y228D01*
X7075Y229D01*
X7078Y229D01*
X7081Y230D01*
X7084Y231D01*
X7088Y231D01*
X7092Y231D01*
X7094D01*
X7096Y231D01*
D02*
G37*
G36*
X6832D02*
X6835Y231D01*
X6838Y230D01*
X6842Y230D01*
X6845Y229D01*
X6848Y228D01*
X6848D01*
X6848Y228D01*
X6850Y227D01*
X6851Y226D01*
X6853Y225D01*
X6855Y224D01*
X6858Y222D01*
X6860Y220D01*
X6862Y218D01*
X6862Y217D01*
X6863Y217D01*
X6864Y215D01*
X6865Y213D01*
X6867Y211D01*
X6868Y208D01*
X6869Y205D01*
X6870Y202D01*
Y202D01*
X6871Y201D01*
Y201D01*
X6871Y200D01*
X6871Y199D01*
X6871Y198D01*
X6872Y196D01*
X6872Y192D01*
X6873Y188D01*
X6873Y184D01*
X6873Y180D01*
Y180D01*
Y179D01*
Y179D01*
Y178D01*
Y177D01*
X6873Y176D01*
X6873Y173D01*
X6872Y169D01*
X6872Y165D01*
X6871Y161D01*
X6870Y158D01*
Y157D01*
X6870Y157D01*
X6870Y157D01*
X6870Y156D01*
X6869Y154D01*
X6868Y152D01*
X6867Y149D01*
X6865Y146D01*
X6863Y144D01*
X6861Y141D01*
X6861Y141D01*
X6860Y140D01*
X6859Y139D01*
X6857Y137D01*
X6855Y135D01*
X6853Y133D01*
X6850Y132D01*
X6847Y130D01*
X6847D01*
X6846Y130D01*
X6846Y130D01*
X6845Y130D01*
X6843Y129D01*
X6841Y128D01*
X6838Y128D01*
X6835Y127D01*
X6831Y127D01*
X6826Y126D01*
X6824D01*
X6824Y127D01*
X6822D01*
X6820Y127D01*
X6817Y127D01*
X6813Y128D01*
X6810Y129D01*
X6807Y130D01*
X6806Y130D01*
X6805Y131D01*
X6804Y131D01*
X6802Y132D01*
X6799Y134D01*
X6797Y135D01*
X6795Y137D01*
X6793Y140D01*
X6793Y140D01*
X6792Y141D01*
X6791Y142D01*
X6790Y144D01*
X6788Y147D01*
X6787Y149D01*
X6786Y153D01*
X6785Y156D01*
Y156D01*
X6784Y156D01*
Y157D01*
X6784Y158D01*
X6784Y159D01*
X6784Y160D01*
X6783Y162D01*
X6783Y166D01*
X6782Y169D01*
X6782Y174D01*
X6782Y178D01*
Y178D01*
Y179D01*
Y179D01*
Y180D01*
Y181D01*
X6782Y183D01*
X6782Y186D01*
X6783Y189D01*
X6783Y193D01*
X6784Y196D01*
X6785Y200D01*
Y200D01*
X6785Y200D01*
X6785Y201D01*
X6785Y202D01*
X6786Y204D01*
X6787Y206D01*
X6788Y208D01*
X6790Y211D01*
X6791Y214D01*
X6793Y217D01*
X6794Y217D01*
X6795Y218D01*
X6796Y219D01*
X6797Y221D01*
X6800Y222D01*
X6802Y224D01*
X6805Y226D01*
X6808Y227D01*
X6808D01*
X6808Y228D01*
X6809Y228D01*
X6810Y228D01*
X6812Y229D01*
X6814Y229D01*
X6817Y230D01*
X6820Y231D01*
X6824Y231D01*
X6828Y231D01*
X6830D01*
X6832Y231D01*
D02*
G37*
%LPC*%
G36*
X6730Y219D02*
X6713D01*
Y186D01*
X6731D01*
X6732Y186D01*
X6735Y186D01*
X6736Y187D01*
X6737Y187D01*
X6738D01*
X6738Y187D01*
X6738Y188D01*
X6739Y188D01*
X6741Y189D01*
X6743Y191D01*
X6743Y191D01*
X6743Y191D01*
X6744Y192D01*
X6744Y192D01*
X6745Y194D01*
X6746Y196D01*
Y196D01*
X6746Y197D01*
X6746Y197D01*
X6746Y198D01*
X6747Y200D01*
X6747Y202D01*
Y203D01*
Y203D01*
Y204D01*
X6747Y205D01*
X6747Y207D01*
X6746Y209D01*
Y209D01*
X6746Y210D01*
X6746Y210D01*
X6745Y211D01*
X6744Y213D01*
X6743Y214D01*
X6742Y214D01*
X6742Y215D01*
X6742Y215D01*
X6741Y215D01*
X6739Y217D01*
X6737Y217D01*
X6737D01*
X6736Y218D01*
X6735Y218D01*
X6734Y218D01*
X6733Y218D01*
X6732Y219D01*
X6730Y219D01*
D02*
G37*
G36*
X6732Y175D02*
X6713D01*
Y139D01*
X6735D01*
X6736Y139D01*
X6738Y140D01*
X6741Y140D01*
X6741D01*
X6742Y140D01*
X6742Y141D01*
X6743Y141D01*
X6745Y142D01*
X6747Y143D01*
X6747Y143D01*
X6748Y144D01*
X6749Y145D01*
X6750Y147D01*
X6751Y149D01*
Y149D01*
X6752Y149D01*
X6752Y150D01*
X6752Y151D01*
X6752Y152D01*
X6753Y153D01*
X6753Y156D01*
Y156D01*
Y157D01*
Y158D01*
X6753Y159D01*
X6752Y161D01*
X6752Y164D01*
Y164D01*
X6751Y165D01*
X6751Y165D01*
X6750Y166D01*
X6749Y168D01*
X6747Y170D01*
X6747Y170D01*
X6747Y170D01*
X6746Y171D01*
X6745Y171D01*
X6744Y172D01*
X6743Y173D01*
X6740Y174D01*
X6740D01*
X6740Y174D01*
X6739Y174D01*
X6737Y174D01*
X6736Y175D01*
X6734Y175D01*
X6732Y175D01*
D02*
G37*
G36*
X7359Y219D02*
X7346D01*
Y178D01*
X7360D01*
X7362Y178D01*
X7364Y178D01*
X7365Y178D01*
X7367Y179D01*
X7368Y179D01*
X7369D01*
X7369Y180D01*
X7370Y180D01*
X7371Y180D01*
X7373Y182D01*
X7375Y184D01*
X7375Y184D01*
X7376Y184D01*
X7376Y185D01*
X7377Y186D01*
X7378Y188D01*
X7380Y190D01*
Y190D01*
X7380Y191D01*
X7380Y192D01*
X7380Y193D01*
X7381Y194D01*
X7381Y196D01*
X7381Y199D01*
Y199D01*
Y200D01*
X7381Y201D01*
X7381Y202D01*
X7381Y204D01*
X7380Y206D01*
X7379Y208D01*
X7379Y209D01*
X7379Y209D01*
X7378Y210D01*
X7378Y211D01*
X7377Y212D01*
X7375Y214D01*
X7374Y214D01*
X7373Y215D01*
X7373Y216D01*
X7372Y216D01*
X7372Y216D01*
X7371Y217D01*
X7368Y217D01*
X7366Y218D01*
X7366D01*
X7365Y218D01*
X7364D01*
X7364Y218D01*
X7361Y219D01*
X7359Y219D01*
D02*
G37*
G36*
X7092Y220D02*
X7090D01*
X7088Y219D01*
X7086Y219D01*
X7084Y219D01*
X7082Y218D01*
X7079Y217D01*
X7077Y216D01*
X7077Y216D01*
X7076Y216D01*
X7075Y215D01*
X7073Y214D01*
X7072Y212D01*
X7070Y211D01*
X7068Y209D01*
X7067Y207D01*
X7067Y207D01*
X7066Y206D01*
X7066Y205D01*
X7065Y204D01*
X7064Y202D01*
X7063Y200D01*
X7062Y197D01*
X7062Y194D01*
Y194D01*
X7061Y193D01*
X7061Y192D01*
X7061Y190D01*
X7061Y188D01*
X7060Y185D01*
X7060Y182D01*
Y179D01*
Y179D01*
Y179D01*
Y178D01*
Y176D01*
X7060Y174D01*
X7061Y171D01*
X7061Y168D01*
X7062Y163D01*
Y162D01*
X7062Y161D01*
X7062Y160D01*
X7063Y158D01*
X7063Y156D01*
X7064Y154D01*
X7065Y152D01*
X7067Y150D01*
X7067Y149D01*
X7067Y149D01*
X7068Y148D01*
X7069Y147D01*
X7071Y145D01*
X7072Y144D01*
X7074Y142D01*
X7076Y141D01*
X7076Y141D01*
X7077Y141D01*
X7078Y140D01*
X7080Y140D01*
X7082Y139D01*
X7085Y139D01*
X7088Y138D01*
X7091Y138D01*
X7092D01*
X7094Y138D01*
X7096Y139D01*
X7098Y139D01*
X7101Y140D01*
X7103Y140D01*
X7106Y141D01*
X7106Y142D01*
X7107Y142D01*
X7108Y143D01*
X7109Y144D01*
X7111Y145D01*
X7113Y147D01*
X7114Y148D01*
X7116Y150D01*
X7116Y150D01*
X7116Y151D01*
X7117Y152D01*
X7118Y154D01*
X7119Y156D01*
X7119Y158D01*
X7120Y161D01*
X7121Y163D01*
Y164D01*
X7121Y165D01*
X7121Y166D01*
X7122Y168D01*
X7122Y170D01*
X7122Y173D01*
X7123Y176D01*
Y179D01*
Y179D01*
Y179D01*
Y180D01*
Y182D01*
X7122Y184D01*
X7122Y187D01*
X7122Y189D01*
X7121Y195D01*
Y195D01*
X7121Y196D01*
X7120Y198D01*
X7120Y199D01*
X7119Y201D01*
X7118Y204D01*
X7117Y206D01*
X7116Y208D01*
X7116Y208D01*
X7115Y209D01*
X7114Y210D01*
X7113Y211D01*
X7112Y212D01*
X7110Y214D01*
X7108Y215D01*
X7106Y217D01*
X7106Y217D01*
X7105Y217D01*
X7104Y217D01*
X7102Y218D01*
X7100Y219D01*
X7098Y219D01*
X7095Y219D01*
X7092Y220D01*
D02*
G37*
G36*
X6828D02*
X6826D01*
X6825Y219D01*
X6823Y219D01*
X6820Y219D01*
X6818Y218D01*
X6815Y217D01*
X6813Y216D01*
X6813Y216D01*
X6812Y216D01*
X6811Y215D01*
X6810Y214D01*
X6808Y212D01*
X6806Y211D01*
X6805Y209D01*
X6803Y207D01*
X6803Y207D01*
X6803Y206D01*
X6802Y205D01*
X6801Y204D01*
X6800Y202D01*
X6799Y200D01*
X6799Y197D01*
X6798Y194D01*
Y194D01*
X6798Y193D01*
X6797Y192D01*
X6797Y190D01*
X6797Y188D01*
X6797Y185D01*
X6796Y182D01*
Y179D01*
Y179D01*
Y179D01*
Y178D01*
Y176D01*
X6797Y174D01*
X6797Y171D01*
X6797Y168D01*
X6798Y163D01*
Y162D01*
X6798Y161D01*
X6799Y160D01*
X6799Y158D01*
X6800Y156D01*
X6801Y154D01*
X6801Y152D01*
X6803Y150D01*
X6803Y149D01*
X6803Y149D01*
X6804Y148D01*
X6805Y147D01*
X6807Y145D01*
X6808Y144D01*
X6810Y142D01*
X6812Y141D01*
X6813Y141D01*
X6813Y141D01*
X6815Y140D01*
X6816Y140D01*
X6819Y139D01*
X6821Y139D01*
X6824Y138D01*
X6827Y138D01*
X6829D01*
X6830Y138D01*
X6832Y139D01*
X6835Y139D01*
X6837Y140D01*
X6840Y140D01*
X6842Y141D01*
X6842Y142D01*
X6843Y142D01*
X6844Y143D01*
X6846Y144D01*
X6847Y145D01*
X6849Y147D01*
X6850Y148D01*
X6852Y150D01*
X6852Y150D01*
X6852Y151D01*
X6853Y152D01*
X6854Y154D01*
X6855Y156D01*
X6856Y158D01*
X6856Y161D01*
X6857Y163D01*
Y164D01*
X6857Y165D01*
X6858Y166D01*
X6858Y168D01*
X6858Y170D01*
X6859Y173D01*
X6859Y176D01*
Y179D01*
Y179D01*
Y179D01*
Y180D01*
Y182D01*
X6859Y184D01*
X6858Y187D01*
X6858Y189D01*
X6857Y195D01*
Y195D01*
X6857Y196D01*
X6856Y198D01*
X6856Y199D01*
X6855Y201D01*
X6854Y204D01*
X6853Y206D01*
X6852Y208D01*
X6852Y208D01*
X6851Y209D01*
X6850Y210D01*
X6849Y211D01*
X6848Y212D01*
X6846Y214D01*
X6845Y215D01*
X6842Y217D01*
X6842Y217D01*
X6841Y217D01*
X6840Y217D01*
X6838Y218D01*
X6836Y219D01*
X6834Y219D01*
X6831Y219D01*
X6828Y220D01*
D02*
G37*
%LPD*%
D15*
X0Y0D02*
Y4000D01*
X6000D01*
Y0D02*
Y4000D01*
X0Y0D02*
X6000D01*
D17*
X4211Y164D02*
D03*
X3998D02*
D03*
D18*
X5541Y377D02*
D03*
Y164D02*
D03*
X3051Y632D02*
D03*
Y844D02*
D03*
D19*
X2954Y2348D02*
D03*
Y2436D02*
D03*
X1644Y808D02*
D03*
Y896D02*
D03*
X1742Y895D02*
D03*
Y808D02*
D03*
X5246Y286D02*
D03*
Y374D02*
D03*
X5344Y286D02*
D03*
Y374D02*
D03*
X5768Y286D02*
D03*
Y374D02*
D03*
D20*
X851Y1161D02*
D03*
X763D02*
D03*
X3380Y413D02*
D03*
X3293D02*
D03*
X3380Y317D02*
D03*
X3293D02*
D03*
X3577Y472D02*
D03*
X3490D02*
D03*
X3577Y376D02*
D03*
X3490D02*
D03*
X3577Y281D02*
D03*
X3490D02*
D03*
Y182D02*
D03*
X3577D02*
D03*
X4021Y354D02*
D03*
X4109D02*
D03*
X4021Y433D02*
D03*
X4109D02*
D03*
X4835Y295D02*
D03*
X4747D02*
D03*
D21*
X3067Y2530D02*
D03*
X3067Y2450D02*
D03*
X1437Y812D02*
D03*
X1437Y892D02*
D03*
X2480Y965D02*
D03*
X2480Y886D02*
D03*
X5246Y113D02*
D03*
X5246Y192D02*
D03*
D28*
X3031Y2609D02*
D03*
X3091D02*
D03*
X3867Y1919D02*
D03*
X3928D02*
D03*
X3867Y2018D02*
D03*
X3928D02*
D03*
X3867Y2087D02*
D03*
X3928D02*
D03*
X3483Y2608D02*
D03*
X3544D02*
D03*
X1722Y1289D02*
D03*
X1782D02*
D03*
X1722Y1358D02*
D03*
X1782D02*
D03*
X1722Y1427D02*
D03*
X1782D02*
D03*
X1722Y1496D02*
D03*
X1782D02*
D03*
X1910Y1329D02*
D03*
X1850D02*
D03*
X1910Y1398D02*
D03*
X1850D02*
D03*
X1910Y1467D02*
D03*
X1850D02*
D03*
X1910Y1535D02*
D03*
X1850D02*
D03*
X1722Y1565D02*
D03*
X1782D02*
D03*
D29*
X5049Y2874D02*
D03*
X5128Y2874D02*
D03*
X3533Y600D02*
D03*
X3613Y600D02*
D03*
X3494Y84D02*
D03*
X3573Y84D02*
D03*
X3834Y256D02*
D03*
X3755Y256D02*
D03*
X3834Y148D02*
D03*
X3755Y148D02*
D03*
X4754Y398D02*
D03*
X4833Y399D02*
D03*
X5296Y495D02*
D03*
X5216Y495D02*
D03*
X3986Y2736D02*
D03*
X4065Y2736D02*
D03*
D33*
X2054Y669D02*
D03*
X1962Y632D02*
D03*
X2054Y886D02*
D03*
X1962Y848D02*
D03*
D34*
X1962Y707D02*
D03*
Y923D02*
D03*
D44*
X3210Y341D02*
D03*
Y366D02*
D03*
Y315D02*
D03*
X3124D02*
D03*
Y341D02*
D03*
Y366D02*
D03*
D158*
X5614Y758D02*
D03*
Y915D02*
D03*
X5882Y758D02*
D03*
Y915D02*
D03*
D159*
X5130Y3002D02*
D03*
X5028D02*
D03*
D160*
X837Y1752D02*
D03*
Y1870D02*
D03*
X778Y1752D02*
D03*
Y1870D02*
D03*
D161*
X3665Y2486D02*
D03*
X4110D02*
D03*
D162*
X3829Y2579D02*
D03*
X3868D02*
D03*
X3789D02*
D03*
X3947D02*
D03*
X3986D02*
D03*
X3907D02*
D03*
D163*
X4337Y2630D02*
D03*
X5270D02*
D03*
D164*
X4872Y2736D02*
D03*
X4911D02*
D03*
X4931D02*
D03*
X4892D02*
D03*
X4970D02*
D03*
X4990D02*
D03*
X4951D02*
D03*
X5030D02*
D03*
X5049D02*
D03*
X5010D02*
D03*
X5108D02*
D03*
X5089D02*
D03*
X5128D02*
D03*
X5069D02*
D03*
X5167D02*
D03*
X5187D02*
D03*
X5148D02*
D03*
X4557D02*
D03*
X4577D02*
D03*
X4537D02*
D03*
X4616D02*
D03*
X4636D02*
D03*
X4596D02*
D03*
X4439D02*
D03*
X4459D02*
D03*
X4419D02*
D03*
X4498D02*
D03*
X4518D02*
D03*
X4478D02*
D03*
X4774D02*
D03*
X4793D02*
D03*
X4754D02*
D03*
X4833D02*
D03*
X4852D02*
D03*
X4813D02*
D03*
X4675D02*
D03*
X4695D02*
D03*
X4656D02*
D03*
X4734D02*
D03*
X4715D02*
D03*
D165*
X4362Y709D02*
D03*
X4262D02*
D03*
X4312Y659D02*
D03*
Y709D02*
D03*
X4262Y659D02*
D03*
D166*
X4362D02*
D03*
D167*
X1535Y806D02*
D03*
Y897D02*
D03*
D168*
X2295Y879D02*
D03*
Y842D02*
D03*
Y805D02*
D03*
X2193D02*
D03*
Y842D02*
D03*
Y879D02*
D03*
D169*
X2302Y955D02*
D03*
X2187D02*
D03*
D170*
X2799Y886D02*
D03*
X2625D02*
D03*
D171*
X3756Y600D02*
D03*
X3941D02*
D03*
D172*
X3864Y356D02*
D03*
Y415D02*
D03*
Y376D02*
D03*
Y395D02*
D03*
Y435D02*
D03*
X3754Y356D02*
D03*
Y376D02*
D03*
Y395D02*
D03*
Y415D02*
D03*
Y435D02*
D03*
D174*
X5099Y182D02*
D03*
X4969D02*
D03*
D175*
X5098Y369D02*
D03*
Y389D02*
D03*
Y349D02*
D03*
Y408D02*
D03*
Y428D02*
D03*
Y448D02*
D03*
Y468D02*
D03*
X4980Y349D02*
D03*
Y369D02*
D03*
Y389D02*
D03*
Y408D02*
D03*
Y428D02*
D03*
Y448D02*
D03*
Y468D02*
D03*
M02*
