M48
;Layer_Color=9474304
;FILE_FORMAT=2:3
INCH,TZ
;TYPE=PLATED
T1F00S00C0.010
T3F00S00C0.025
T5F00S00C0.030
T6F00S00C0.031
T7F00S00C0.035
T8F00S00C0.039
T9F00S00C0.040
T10F00S00C0.070
T11F00S00C0.118
;TYPE=NON_PLATED
T12F00S00C0.039
%
T01
X2417Y370
X3142Y402
X3268Y364
X3197Y259
X3165
X3390Y531
X3642
X3809Y433
X3832Y395
X3786
X3809Y358
X3864Y315
X4026Y551
X4094
X4337Y423
X4398Y453
X4518Y482
X4657Y541
X5020Y448
X5059
Y369
X5020
X5521Y504
X5719Y259
Y158
X5364Y925
X5285
X5579Y1683
X5578Y1969
X5122Y1965
X5059Y1925
X4931Y2119
X4689Y2118
Y2077
X4724Y2043
X4716Y1969
X4654Y1933
X4469Y2002
X4429Y1748
X4212Y1762
X4203Y1801
X4035Y1802
X4045Y1742
X3976Y1782
X3867Y1732
X3799Y1707
Y1679
X3803Y1618
X3770Y1742
X3791Y1957
X3789Y1998
X3811Y2045
Y2077
Y2118
X3867Y1976
X3985Y2018
X4131Y2008
X4151Y1524
X3947
X3909Y1390
X3854Y1417
X3825Y1303
X3867Y1280
X3906Y1283
X3976Y1328
X3789Y1260
X3705Y1063
Y1004
X4638Y969
X4606Y1150
X4783Y1122
X4823
X4858Y1122
X4854Y1087
X4890Y1087
X4931Y925
X5012
X5089
X5191Y903
X5190Y596
X5033Y1168
X5047Y1260
X5083Y1228
X5158Y1299
X5161Y1496
X4774Y1417
X4766Y1620
X4724Y1679
X4791Y1705
X4831Y1240
X4515Y1280
X4469Y1362
X4343Y1560
X4362Y614
X4311
X3612Y748
X3574Y943
X3573Y1024
X3685Y1035
Y1091
X3650Y1185
X3630Y1319
X3591Y1447
X3573Y1506
Y1539
Y1579
Y1624
X3620Y1722
X3603Y1799
X3591Y1949
X3567Y1979
X3618Y2004
X3415Y2018
X3445Y2055
X3343Y2091
X3295
X3272Y2114
X3319Y2114
X3248Y2091
X3224Y2114
X3092Y2076
X3067Y2098
X2943Y2077
X2935Y1920
X2858Y1911
X2831Y1937
X2803Y1961
X2783Y1992
X2608Y1988
X2626Y1939
X2610Y1880
X2607Y1839
X2602Y1748
X2622Y1723
X2638Y1772
X2539Y1735
X2583Y1665
X2602Y1634
X2587Y1528
X2549Y1545
X2508Y1547
X2551Y1433
X2587Y1413
X2587Y1461
X2603Y1362
X2604Y1329
X2632Y1299
X2604Y1270
X2539Y1337
X2481Y1336
X2268Y1343
X2136Y1408
X2126Y1551
X2168Y1686
X2157Y1732
X2150Y1823
X2174Y1959
X2290Y2028
X2434
X2540Y1988
X2759Y1811
X2760Y1701
X2776Y1673
X2803Y1650
X2831Y1634
X2819Y1559
X2815Y1457
X2776Y1457
X2795Y1354
X2777Y1290
X2835Y1243
X2915Y1323
X2953
X2992Y1322
X3091Y1303
X3067Y1272
X3232Y1303
X3294Y1440
X3319Y1484
X3343Y1524
X3228Y1579
X3249Y1602
X3272Y1638
X3366Y1819
X3351Y1880
X3197Y1839
X3016Y1862
X2957Y1725
Y1650
X2884Y1073
X2716
X2667Y1004
X2651Y965
X2535Y966
X2451Y699
X2358Y755
X2351Y1575
X2323
X2295
X3146Y1134
X3126Y1114
X3191Y1097
X3240Y1067
X3307Y1122
X3213Y969
X3226Y940
X3091Y965
X3091Y1024
X3396Y699
X3524Y1467
X1959
Y1398
Y1329
X1957Y1537
X1854Y1583
X1882Y1618
X1783Y1605
X1673Y1565
Y1496
Y1457
Y1358
Y1290
X1654Y1221
Y1160
X1717Y1114
X1744Y1134
X1397Y1137
X1506Y1250
X1457Y1516
X1397Y1515
X1508Y1673
X1484Y1733
X1520Y1831
X1492Y1909
X1458Y1890
X1457Y2028
X1492Y2028
X1520Y2094
X1689Y2106
Y2067
X1711Y2044
X1717Y2008
X1685Y1984
X1705Y1957
Y1929
Y1890
X1705Y1846
X1661Y1843
X1669Y1807
X1717Y1717
Y1689
X1826Y1819
X1858Y1819
X1890
X1922Y1819
X1961
X1969Y1752
X2124Y1713
X2106Y1685
X2103Y1831
X1902Y1957
X1740Y1941
X1961Y2087
X1289Y2057
X896Y2118
X837Y1949
X837Y1811
X778
X709Y1870
X778Y1457
X937Y1165
X600Y1168
X1545Y681
X1909Y837
X2106Y844
X2008Y605
X327Y2677
X364Y3061
X472
X1573Y2884
X1860Y2766
X2093Y2240
X2114Y2181
X1457Y2175
X2154Y2181
X2182
X2500Y2229
X2579Y2224
X2630Y2480
X2661Y2453
X2689Y2425
X2626Y2570
X2434
X2810Y2520
X2898Y2382
X2904Y2303
Y2268
X2972Y2256
X3022Y2266
X3092Y2276
X3140Y2264
X3189
X3240Y2264
X3268Y2296
X3415Y2303
X3425Y2268
X3500Y2267
X3583Y2358
X3568Y2387
X3542Y2407
X3583Y2608
X3440
X3131
X2992
X2953Y2717
X2752Y2907
X3051Y2405
X3016Y2134
X2985Y2133
X2953Y2134
X2902
X2871Y2133
X2839Y2134
X3111Y2133
X3151
X3217Y3323
X3224Y3370
X3287Y3417
X3315Y3469
X3348Y3563
X3480Y3370
X3055Y3421
X3750Y2587
X3987Y2785
X4163Y2717
X4222Y2549
X4472Y2530
X4602Y2508
X4673Y2579
X4720
X4768
X4815Y2579
X4870
X4913Y2528
X5035Y2570
X5004Y2658
X4957Y2657
X4909Y2689
X4890Y2827
X4854
X4815
X4776
X4736
X4697
X4657
X4931
X4972
X5012
X5049Y2807
X5158Y2804
X5182Y2827
X5128Y2943
X5181Y2480
X5213Y2449
X5226Y2386
X5138Y2437
X5012Y2382
X4972Y2402
X4998Y2270
X4815Y2358
X4630Y2281
X4575Y2292
X4547Y2268
X4515Y2319
X4471Y2193
T03
X2539Y158
X4557Y207
X5640Y354
X5886Y1014
X4551Y1843
X4350Y1841
Y1748
X4409Y1992
X4094Y1807
X3169Y940
X2618Y1074
X3711Y2657
X3720Y2795
X3819
X3917
X4830Y3179
X5482Y3039
T05
X1299Y1711
X1399Y1911
X1199
T06
X1573Y217
X1673
X1773
X435Y1711
Y1811
Y1911
X135
Y1811
Y1711
T07
X1033Y276
X1133
X1233
X5550Y2087
X5650
X4569Y896
X4469
X4369
X4269
X4169
X4069
X1663Y2666
Y2766
X2434Y2951
Y3051
Y3151
T08
X4415Y3563
X4515
X4615
X4715
T09
X157Y2229
Y2329
Y2429
Y2529
Y2629
Y3229
Y3329
Y3429
Y3529
Y3629
X1557
Y3529
Y3429
Y3329
Y3229
Y2629
Y2529
Y2429
Y2329
Y2229
T10
X448Y395
X748Y295
Y495
X2541
Y295
X2841Y395
T11
X128Y128
X5872
Y3872
X128
T12
X4212Y644
Y724
X4412Y684
M30
